<svg xmlns="http://www.w3.org/2000/svg" width="1278.065" height="1569.494" viewBox="0 0 338.155 415.262">
  <g paint-order="stroke fill markers">
    <path fill="none" d="M.5.5h337.155v414.262H.5z"/>
    <path class="skin" fill="#f7ba8f" fill-rule="evenodd" d="m-1157.776 477.874-59.555.51a1 1 0 0 0-.883 1.472.99.99 0 0 0-.152.48c.198 3.45.594 6.482-.331 11.428-6.1 2.303-16.402 5.176-25.9 7.522-4.916 1.214-9.619 2.29-13.423 3.08-3.803.79-6.767 1.294-7.953 1.364-.33.012-.57.143-.73.33a1 1 0 0 0-.554.802c-1.073 11.231-1.644 22.736-.135 32.979 1.509 10.242 5.124 19.276 12.5 25.322 14.199 11.637 37.479 17.583 61.375 17.711 23.896.128 48.431-5.578 65.125-17.674 9.324-6.755 14.06-15.875 16.229-26.62 2.136-10.588 1.84-22.783 1.144-36.157.082-.26.065-.55-.057-.793a1 1 0 0 0-.94-.764 1 1 0 0 0-.528.133c-30.239-4.878-36.58-6.904-43.362-9.825-.823-2.198-1.318-5.523-1.264-9.01 0-.152 0-.315-.012-.472a1 1 0 0 0-.594-1.818z" transform="translate(1354.41 -270.583)"/>
    <path fill-rule="evenodd" d="M-1217.322 479.383a1 1 0 0 0-1.044.953c.198 3.45.593 6.482-.332 11.428-6.099 2.303-16.4 5.176-25.9 7.522-4.915 1.214-9.618 2.29-13.422 3.08-3.803.79-6.767 1.294-7.953 1.364-1.363.05-1.242 2.107.118 1.996 1.516-.089 4.406-.603 8.242-1.4 3.836-.797 8.559-1.879 13.496-3.098 8.967-2.215 18.603-4.875 24.951-7.16v.019c-.153.68-.063 3.328.451 3.413.477.08 1.37-2.353 1.504-2.985.108-.493.205-.963.297-1.422a1 1 0 0 0 .185-.955c.95-5.095.648-8.259.364-11.683a1 1 0 0 0-.953-1.072zm59.553-.509c-.551 0-1.306 1.203-1.307 1.755-.1 6.517 1.935 10.568 3.158 13.764.262.755 2.166 2.39 2.659 2.063.355-.236-.568-2.246-.792-2.778a50.733 50.733 0 0 0-.779-1.887c5.505 3.388 14.132 5.079 42.703 9.303 1.317.212 1.636-1.763.319-1.975-30.901-4.968-37.259-7-44.098-9.945-.823-2.197-1.318-5.523-1.264-9.01.016-.564-.034-1.29-.599-1.29z" transform="translate(1354.41 -270.583)"/>
  </g>
</svg>
