<svg xmlns="http://www.w3.org/2000/svg" width="1278.065" height="1569.494" viewBox="0 0 338.155 415.262">
  <path fill="none" d="M.5.5h337.155v414.262H.5z" paint-order="stroke fill markers"/>
  <path class="hair" fill="#3b2516" d="M177.65 22.27c-4.73.143-2.985 7.797-6.98 8-8.772 2.604-15.185-13.36-24.503-3.931-4.784 6.808-13.657 8.85-18.127 17.022-1.267.316-8.875-12.83-15.306-6.005-7.335 2.882-2.776 12.825.771 11.193 1.03 1.596 3.074 2.304 4.345 4.035-3.258-.23-8.571 3.255-12.806 2.897-8.432-3.01-13.884 21.394-4.718 15.447 4.312 5.44-14.381 3.738-9.5 14-4.015 4.172-3.137 10.71-4.356 15.536-3.525 6.564-18.273 13.845-7.946 21.84 3.216.104 4.82-.305 5.3-.902 6.237-7.262 12.817 13.907 17.658 8.454a.571.571 0 0 0 .211-.037l4.429-4.019c-1.253-7.642 8.683-6.123 6.103-13.87 2.509-2.838-2.079-9.437 3.006-9.38 8.502.124 16.22-9.174 18.362-17.955 5.832 5.385 7.897-7.012 12.408-1.076-3.205 7.311 10.301 15.122 8.826 3.651-3.59 2.056-4.165-1.295-.45-4.54 7.22 1.205 3.923-9.361 10.934-8.665 5.77 7.992 11.388-3.821 17.594 2.887 3.946-7.71 7.013 2.552 13.421 1.286-.827 3.715 7.579 13.224 12.093 7.416 5.919 1.209 3.15-7.776 7.852-5.432-4.658 2.776-5.745 20.729 4.92 16.253-.468-7.385 3.9-4.608 4.169 1.186-5.658 3.774-.72 11.77 4.158 14.525-.619 7.656-4.984 21.63 8.174 18.083-.966 3.594.717 6.26 2.01 5.065 2.533-1.507 3.939-3.058 4.977-4.623 5.57 8.746 14.89 7.364 23.289-2.11.561.417 1.97.387 4.276-.117-1.661-3.489 10.25-14.487.195-18.369-2.463-3.064-6.77-1.683-9.294-2.77-.363-3.074-1.334-4.82-3.738-7.379 1.961-1.787 1.744-3.775-2.663-8.507.416-1.461-.313-4.943-2.094-6.845 2.498-5.69-1.717-11.782-5.09-16.823-7.637-2.105-4.953-5.99-3.503-12.797-1.719-9.35-17.657-15.023-19.637-2.892-1.854-3.17-4.172-13.03-10.443-11.374-9.732 4.062-8.507-14.424-19.218-11.511-7.2 3.394-9.086-6.756-15.646-6.842a7.21 7.21 0 0 0-1.774.21c-.641-.163-1.2-.23-1.689-.215z"/>
  <path d="M272.244 128.384c-1.66-3.489 10.25-14.487.195-18.369-2.463-3.064-6.77-1.683-9.294-2.77-.362-3.074-1.334-4.82-3.737-7.379 1.961-1.787 1.743-3.775-2.664-8.507.416-1.461-.313-4.942-2.093-6.845 2.497-5.69-1.717-11.783-5.09-16.823-7.638-2.105-4.954-5.991-3.504-12.797-1.719-9.35-17.657-15.023-19.637-2.892-1.854-3.17-4.172-13.03-10.443-11.375-9.732 4.063-8.507-14.423-19.218-11.51-7.2 3.394-9.086-6.756-15.646-6.843a7.2 7.2 0 0 0-1.774.21c-6.841-1.735-4.26 7.562-8.669 7.786-8.772 2.604-15.185-13.36-24.503-3.931-4.784 6.808-13.656 8.85-18.127 17.022-1.267.316-8.875-12.83-15.306-6.005-7.335 2.882-2.776 12.825.771 11.194 1.03 1.595 3.075 2.303 4.345 4.034-3.258-.23-8.57 3.255-12.806 2.897-8.432-3.01-13.883 21.394-4.717 15.447 4.312 5.44-14.382 3.738-9.501 14-4.015 4.171-3.137 10.71-4.355 15.536-3.526 6.564-18.273 13.845-7.947 21.84 5.606.181 6.324-1.196 4.7-2.41-11.89 1.653-2.109-13.47 2.76-16.797 4.144 4.661.076-5.893 4.323-1.956-2.023-5.146-.969-14.565 6.014-16.211-5.638.916-4.063-5.838.667-6.777 5.814.632 10.517-13.2 2.062-8.623-4.532-5.297 5.418-17.021 12.245-11.47 5.863 5.21-.954-1.691 1.623-2.427 4.696 1.598 9.839-2.707 4.147-6.755-.91-.247-1.702-.925-2.502-1.227.524-.693.986-1.745 1.328-3.245-3.433 6.43-9.2-4.068-1.73-5.202 7.95-3.905 10.888 5.9 12.636 11.268 4.6-8.074 11.132-18.143 20.888-17.202-5.78-3.557 8.385-11.548 11.473-3.987-1.317-6.344 6.017 1.679.79 4.348-7.404 1.185 2.55 4.877 3.167-1.278 2.88 1.08 14.512.068 12.322-3.357.138-3.148 2.48-4.322 5.118-4.212 4.703.196 10.346 4.47 6.12 8.907 7.333-3.602 20.905-2.884 21.473 9.027.988 2.728 11.104-3.869 13.822 3.939 6.982 9.626-6.312-.097-3.415 5.47 8.602 10.19 11.338-9.258 19.995-3.678 6.336.293 7.213 11.84 4.547 12.139-2.517-9.626-3.297-.916-1.506 3.688-8.022 6.403 6.906.467 8.236 8.009-9.816 2.94 7.596 2.389 2.731 9.186-4.22-.09-10.593 4.446-5.935 9.567-2.698 7.88 4.996-1.876 8.49-.042-1.743 2.532 8.428 5.701.937 8.23.904 2.619 7.294 4.293 4.18 9.884-1.215 8.306 1.866.372 4.734.723 10.787-1.1 11.794 11.897 3.14 17.004-.467.74-4.788 5.284-4.46 5.605.498.488 6.176-3.528 8.601-4.058zm-29.984 2.581c-3.582 2.832-2.24 0-1.093-3.357-2.756 2.79-5.824 3.41-8.983 1.361-6.88.804 3.803-14.91-.831-14.112 1.993-.73 1.07-16.6.41-8.301-1.006 8.213-8.507-.177-7.47-4.8 2.967-4.36 5.07-10.532-2.771-12.557-6.678 2.385-.7 2.14-1.656 5.388-5.99 2.601-6.445-10.714-2.34-14.008-1.906-7.234-6.584 4.104-10.45 1.705.866 5.812-3.414 2.297-6.92.812-.153-4.025-3.28-9.209-3.399-15.043-4.627.052 1.903 7.486-.55 8.107-4.135.606-9.29-1.451-9.356-6.596-.698 4.463-4.692 7.598-7.98 2.976-5.517-9.558-2.78 6.95-9.222 2.918-3.725-5.46-5.752-2.711-11.051-2.808 1.986 8.01-11.66 9.13-7.806 17.448-2.998 1.716-.908-8.958-5.567-8.594.86-7.034-2.045-2.39-5.928.795-3.56 6.552-8.738-6.031-8.018-.251 1.145 9.565-8.342 16.424-15.51 17.818-6.416-2.37-2.996-7.95-.916-11.041-3.776 5.51-10.609-1.892-7.054-6.837-7.274 6.368 3.184 9.41 2.334 15.698 7.011 7.222-9.351 1.343-2.23 6.426 8.17.457-.11 6.975 2.11 11.285-5.224 1.836-2.66 5.883-7.222 9.381-2.596 2.754-2.997 6.257-5.963 5.248-.334 4.412 7.766-2.838 9.295-4.226-1.253-7.642 8.682-6.123 6.103-13.87 2.508-2.837-2.08-9.437 3.006-9.38 8.501.124 16.219-9.174 18.36-17.956 5.833 5.386 7.898-7.011 12.409-1.075-3.205 7.311 10.302 15.122 8.826 3.651-3.59 2.056-4.165-1.295-.449-4.54 7.22 1.204 3.922-9.36 10.933-8.665 5.77 7.992 11.388-3.821 17.595 2.887 3.945-7.71 7.012 2.552 13.42 1.286-.827 3.715 7.58 13.225 12.094 7.416 5.918 1.209 3.15-7.776 7.851-5.433-4.658 2.777-5.745 20.73 4.92 16.254-.468-7.386 3.9-4.608 4.169 1.186-5.658 3.774-.72 11.77 4.159 14.525-.62 7.655-4.176 19.307 4.204 21.107-.965 3.593.718 6.26 2.01 5.065 3.97-2.36 5.173-4.83 6.527-7.293zM194.32 41.949c-.213.001-.43.015-.652.043-.165 2.528 9.41 6.877 3.874 12.46 5.24.529 3.367-12.517-3.222-12.503zm-56.643 2.481c-3.607.053-9.525 14.445-2.69 18.885 3.766.582 5.837-2.09 10.335.004 11.78-.654 7.027-21.332-3.5-14.9-3.867 4.585-.386 5.904 2.545 1.723 12.009-1.168 1.075 16.328-3.33 8.64-8.76 7.43-8.233-9.484-3.36-14.353zm97.086 5.79c-2.3-.138-7.42 7.876-.947 10.125 7.406 1.974-5.921-7.146 1.91-8.557-.053-1.07-.433-1.537-.963-1.568zm-44.746 2.496c-3.231.005 6.995 4.268 5.214 9.838 4.346 1.21 1.104-9.112-1.872-9.384-1.684-.31-2.744-.455-3.342-.454zm-49.454 1.298c-.56-.056-.945.314-.52 1.58 3.832.731 1.752-1.457.52-1.58zm46.397 14.084a8.578 8.578 0 0 0-.106 1.466c.074-.476.111-.967.106-1.466zm63.777 17.611c2.467.084 4.73 1.525.128 2.7-.892.343-1.768.772-2.552 1.359-2.086-3.151.248-4.133 2.424-4.059zm-148.261 7.998c-1.675.103-9.009 4.83-5.335 9.22 2.23 2.197 1.156-8.12 5.122-8.192.621-.657.665-.976.357-1.024a.518.518 0 0 0-.144-.004zm163.665 19.688c-1.486-.075 5.685 4.832 1.226 7.21 3.554 1.32 3.983-4.713 1.435-6.27-1.515-.64-2.318-.923-2.661-.94zm-166.915-3.013c-.377.03-.287.945.914 3.313-.71 8.934-11.028-3.355-6.895 5.52 1.968.898 4.38.096 6.235-.787 5.405-1.447.789-8.13-.254-8.046zm137.815 22.632c.368.006.69.587.823 2.147l-1.29 1.603c-2.701 1.998-.738-3.774.467-3.75z"/>
</svg>
