<svg xmlns="http://www.w3.org/2000/svg" width="1278.065" height="1569.494" viewBox="0 0 338.155 415.262">
  <path fill="none" d="M0 0h338.667v415.256H0z" paint-order="fill markers stroke"/>
  <path class="hair" fill="#3b2516" d="M169.464 44.676c-9.203-.202-18.344 1.431-27.092 4.318l-.018-.052a.658.658 0 0 1-.608-.006c-.49-.27-1.117-.314-1.879-.17-.76.143-1.618.478-2.449.863-.83.385-1.631.817-2.332 1.148-.35.166-.676.31-.994.409-.177.054-.395.03-.596.045a.658.658 0 0 1-.33.054c-.346-.034-1.033.122-1.826.492-.795.371-1.71.933-2.645 1.58-1.855 1.286-3.778 2.902-5.146 4.077-3.431 4.105-7.903 7.192-10.211 11.62v-.003a.658.658 0 0 1-.051.088c-1.407 2.03-3.039 4.195-4.133 6.441-1.016 2.087-1.527 4.205-1.105 6.4.395.038.776-.015 1.199-.228.58-.292 1.208-.824 1.838-1.469 1.214-1.243 2.391-2.851 3.777-3.808 1.479-2.068 3.702-2.725 5.781-3.221 2.111-.503 4.112-.9 5.567-2.233a.658.658 0 0 1 0-.004c4.287-3.86 10.254-3.632 15.266-3.865a.658.658 0 0 1 .132.006c5.624-.365 10.776 1.75 15.807 3.047 6.015.243 11.954.98 17.867 1.035 5.452-.576 10.94-.777 15.76-3.062v.002a.658.658 0 0 1 .04-.018c2.45-1.02 4.856-.736 7.081-.056 2.224.679 4.323 1.739 6.305 2.392a.658.658 0 0 1 .074.031v-.002c4.342 1.95 8.927 3.077 13.652 4.108l-.074-.012c2.54.255 4.549 2.061 6.438 3.315.946.628 1.858 1.125 2.718 1.318.794.177 1.55.094 2.432-.356.8-1.693.547-3.478-.256-5.355-.84-1.962-2.25-3.924-3.408-5.627a.658.658 0 0 1-.018-.027c-2.18-3.537-5.83-5.664-9.346-8.157-4.256-2.55-7.395-6.313-11.392-8.54-3.602-1.077-7.006-2.884-10.555-3.358a.658.658 0 0 1-.156-.045v.006c-7.97-2.84-16.57-3.023-25.09-3.121h-.014a.658.658 0 0 1-.014 0z"/>
  <path d="M167.754 44.267c-8.715.024-17.342 1.649-25.61 4.377-2.815-1.543-7.66 2.573-8.883 2.256-2.421-.237-7.49 4.001-10.24 6.363-3.34 4.022-7.923 7.139-10.365 11.825-2.787 4.021-6.636 8.772-5.282 13.99 3.146 1.038 5.604-4.076 8.08-5.673 2.616-3.798 7.988-2.368 11.304-5.405 4.001-3.602 9.718-3.427 14.776-3.662 5.472-.4 10.596 1.72 15.77 3.047 6.012.237 12.002.99 18.018 1.044 5.433-.578 11.047-.758 16.077-3.143 4.469-1.862 8.713.999 12.836 2.358 4.427 1.99 9.069 3.126 13.807 4.159 4.403.429 7.756 6.71 12.29 4.098 2.163-4.052-1.327-8.652-3.622-12.027-2.311-3.75-6.093-5.923-9.572-8.39-4.14-2.468-7.293-6.279-11.499-8.607-3.534-1.039-7.009-2.919-10.79-3.423-8.129-2.897-16.824-3.072-25.351-3.17a70.462 70.462 0 0 0-1.744-.017zm4.571 1.71c.977-.006 1.956.03 2.938.118-4.153 1.468 4.193.605 6.068 1.034 6.51 1.061 13.113 1.864 19.452 3.773 3.967 1.139 7.059 3.185 9.7 6.35 4.001 2.956 8.452 5.301 12.115 8.691-4.675-1.587-9.117-3.89-13.643-5.874-3.216-1.888 2.909.76 1.174-.883-7.264-2.853-13.432-8.64-21.494-9.272-4.016-.048-9.078-1.462-12.104 1.982 1.42.513-2.691 1.912-.234 1.86 8.55-3.501 18.822-1.69 26.244 3.599 2.619.003 5.865 5.053 9.555 5.38 4.369 2.15 9.045 4.155 12.548 7.65 1.032 2.7 6.482 5.608 4.562 8.274-.927.417-1.829-.34-2.56-.79-.962-1.265-7.788-2.428-5.273-3.252 6.67 1.464.646-3.936-1.97-5.334-3.856-.83 1.535 2.13 2.72 3.85-3.023-1.173-6.629.134-8.875-1.673-4.403.064-8.637-3.122-12.674-3.026-1.311-1.238 5.175-.738 7.104-1.228.541-2.805-5.722-2.85-7.92-4.01-5.137-.918-.032 1.298 1.749 2.49-3.611 1.577-8.89.607-13.03 1.92-4.991 1.81-10.467 2.03-15.72 2.403-5.797-.45-11.74-.54-17.369-2.025-8.5-2.843-18.047-3.358-26.602-.434-3.429.972-6.83 3.839-9.741 4.895 6.317-3.936 12.8-8.356 20.303-9.534 2.772-.018 10.561-2.523 4.25-1.705-3.377.798-1.94-.14.323-1.15-8.082.95-15.584 4.538-22.398 8.833-1.578.337 4.323-3.752 5.517-4.649 1.07-1.061 8.17-5.137 4.108-4.308 4.657-2.513 9.215-5.486 14.176-7.433-1.818-.415-5.275 1.282-7.531 2.185-7.45 3.684-15.763 6.704-21.167 13.341 1.52-.65 4.166-3.215 6.432-3.891-3.461 2.935-6.926 5.888-10.217 9.024-2.774 2.981-1.38.165-.054-1.415 4.206-6.696 10.956-11 17.195-15.55 3.831-3.231 8.996-3.109 13.355-5.199 5.28-1.732 10.753-4.005 16.396-3.53 4.17-.654 8.359-1.46 12.592-1.487zm-12.94 2.4c-.204-.009-.571.027-1.155.125-4.148.98-7.534 3.882-11.46 5.484-3.913 2.468-8.785 3.332-12.455 6.059 1.069-.207 2.039-.892 3.098-1.188 5.119-1.467 9.783-4.198 14.991-5.282 4.926-1.97 10.187-2.485 15.446-2.678 3.876-.164.47-.606-1.536-.443-4.528.301-.601-.884 1.43-.947-1.21-1.083-6.19-.356-8.708.052-4.705 1.123 1.782-1.126.35-1.183zm12.665 7.89c-1.102.009-2.204.04-3.302.082-6.346.86-13.046-.315-19.137 1.938 2.669 1.301-.654 1.134-2.123 2.072 3.04-1.606 5.783.375 8.54-1.654 5.58-1.243 11.36-.839 17.038-.887 8.37-.284 15.918 3.97 24.154 4.652.537.09 7.193.036 5.347-1.188-5.58-.348-11.11-1.252-16.444-2.985-4.53-1.665-9.3-2.063-14.073-2.03zm-2.358 6.54c-.585 1.074 6.039 1.733 8.072 2.11-4.809.67-10.14.114-15.107-.444-1.341.127-9.392-2-5.26-.243 3.863 1.218 8.088.704 11.734 2.542 3.093.55 6.272.38 9.385.085 5.852-.938 11.736-2.378 17.717-1.699 4.25.53.42-1.816-1.554-1.629-8.314-.512-16.67-.126-24.987-.722zm-55.054 11.34c.158-.022.067.26-.492 1.067l-.568.515c-.422.318-.756.475-.927.644-.53.525-1.674 1.186-2.833 2.416-1.3 1.38-.859-.358-.393-.654 1.877-1.575 2.615-2.629 3.034-2.745.612-.679 1.915-1.208 2.18-1.243z"/>
</svg>
