<svg xmlns="http://www.w3.org/2000/svg" width="1278.065" height="1569.494">
  <path fill="none" d="M0 0h1278.065v1569.494H0z" paint-order="fill markers stroke"/>
  <path class="hair" fill="#3b2516" d="M391.004 536.047c-17.814-25.059-28.43-55.86-24.042-86.789-1.098-30.37-.549-63.606 19.125-88.701 8.06-19.908 7.57-42.229 19.38-61.217 11.285-24.305 28.762-44.668 44.037-66.31 12.452-19.192 31.375-35.856 53.962-41.364 15.179-12.608 31.005-25.952 51.577-29.045 19.732-5.796 40.754 2.717 59.782-6.116 29.994-1.851 62.808-3.554 89.785 12.2 31.202 3.522 60.987 15.782 85.329 35.736 17.959 13.327 36.615 25.014 48.664 44.194 17.297 22.353 22.45 50.752 35.989 75.129 9.391 25.168 26.254 49.752 22.263 77.763-8.754 19.204 3.333 38.61 2.897 58.758-2.393 20.72 2.01 54.021-21.663 62.559-14.232-16.356-23.067-40.084-27.797-61.767-2.347-28.25-22.06-51.455-14.535-80.943 5.35-17.918-1.03-38.36-14.603-53.003-9.857-23.372-33.619-35.87-53.756-49.392-12.702-21.664-33.361-32.739-57.552-36.31-20.69-4.792-39.764-16.732-61.652-14.276-20.27 5.393-40.767-14.814-56.89-4.539-23.1 11.393-48.417 16.594-71.375 28.68-17.511 10.579-38.752 24.818-46.045 42.984-5.253 11.4-17.8 24.402-30.277 19.032 9.998 4.962 7.244 14.387 6.079 23.456-1.158 22.548-4.507 44.984-19.26 62.902-11.029 21.185-6.162 44.819-14.18 66.415-6.085 21.908-3.716 46.339-12.543 67.682-9.251 6.433-.87 19.462-12.7 2.282z"/>
  <path d="M391.004 536.047c-17.814-25.058-28.43-55.86-24.042-86.789-1.098-30.37-.549-63.606 19.125-88.701 8.06-19.908 7.57-42.229 19.38-61.217 11.285-24.305 28.762-44.668 44.037-66.31 12.452-19.192 31.375-35.856 53.962-41.364 15.179-12.608 31.005-25.952 51.577-29.045 19.732-5.796 40.754 2.717 59.782-6.116 29.994-1.851 62.808-3.554 89.785 12.2 31.202 3.522 60.987 15.782 85.329 35.736 17.959 13.327 36.615 25.014 48.664 44.194 17.298 22.353 22.45 50.752 35.989 75.129 9.391 25.169 26.254 49.752 22.263 77.763-8.754 19.204 3.333 38.61 2.897 58.758-2.393 20.72 2.01 54.021-21.663 62.56-14.232-16.357-23.067-40.085-27.797-61.768-2.347-28.25-22.06-51.455-14.535-80.943 5.35-17.918-1.03-38.36-14.603-53.003-9.856-23.372-33.619-35.87-53.756-49.392-12.702-21.664-33.361-32.739-57.552-36.31-20.69-4.792-39.764-16.732-61.652-14.276-20.27 5.393-40.767-14.814-56.89-4.539-23.1 11.393-48.417 16.594-71.375 28.68-17.511 10.579-38.752 24.818-46.045 42.984-5.253 11.4-17.8 24.402-30.277 19.032 9.998 4.963 7.244 14.387 6.079 23.456-1.158 22.548-4.507 44.984-19.26 62.902-11.029 21.185-6.162 44.819-14.18 66.415-6.085 21.908-3.716 46.339-12.543 67.682-9.251 6.433-.87 19.462-12.7 2.282zm8.633-11.722c4.829-11.39 9.641-28.665-8.755-27.49-24.1-22.585-6.358 18.354 1.568 28.493 1.872 5.718 7.18 4.87 7.187-1.003zm485.799-17.32c5.62-23.916 10.643-50.797-2.766-73.174-.87-17.376-28.846-31.02-25.955-36.91 11.886 2.463 21.14 23.43 30.416 16.785-7.633-5.687-22.053-24.094-3.13-12.24.734-13.036-23.87-34.703-37.673-25.52-2.21 20.224-.865 38.798 18.494 53.554 7.648 6.62 15.061 29.838 1.87 10.18-5.745-9.898-21.083-24.216-11.366-3.448 8.462 16.878 2.3 34.506 9.413 50.98 4.436 5.032 13.99 38.686 20.697 19.793zm-480.944-23.58c-1.123-14.426 17.74-35.814 5.03-46.266-8.624-4.105-30.095-22.636-7.623-11.316 17.946 14.384 17.676-23.231 3.655-24.714 9.584-.779 16.395 7.493 19.493-8.102 1.954-7.464 13.492-15.507 5.191-22.359-7.726-7.286-16.643-15.135.237-8.665 15.651 4.95 14.518-29.146 11.773-38.59-5.502-4.591-32.032-11.906-10.862-12.298 27.205 8.495-18.608-15.884 4.07-8.476 13.396 14.288 29.079 2.115 31.08-13.02-14.877-5.57-26.997-45.667-37.192-17.036-9.177 18.35-43.687 56.552-7.964 64.343 22.36 13.555-42.295-3.796-13.596 12.739 21.207 14.763-19.375-6.328-17.383 15.683-12.673 20.15-14.66 44.09-18.101 67.035 8.478 13.762 21.928 23.188 33.727 33.88-13.64-.404-38.16-33.254-34.595-1.881-2.028 11.352 34.568 38.07 33.06 19.044zm484.001-102.003c-5.736-26.83-19.966-51.823-30.055-77.494-12.083-22.533-17.724-49.257-38.426-66.188-7.812-18.802-49.617 13.103-26.025-10.405 18.52-12.568-15.91-11.585-22.642-4.305-12.5 6.608-27.512 9.156-9.645-1.79 9.903-6.962 34.93-8.151 13.134-20.977-22.003-14.174-48.388-25.875-75.022-23.291-17.518-.27-26.932 25.687-24.064 34.897 4.626-13.189 19.296-18.174 9.86.488-4.131 20.25 15.722 19.735 18.251 1.955 5.1-11.067 23.17-16.84 7.45-1.04-19.72 15.793 6.509 31.136 13.628 8.207 5.461-7.366 20.01-21.16 9.464-4.182-5.334 9.432-23.39 22.812-.424 20.445 11.776 4.664 34.648-15.227 36.427-8.437-12.141 3.79-31.972 27.714-6.474 22.313 7.6-7.102 55.777-9.075 27.338-1.735-10.387 2.455-42.212 5.894-21.824 18.98 12.563-1.126 48.47-1.028 46.976 5.706-11.368.149-57.589-5.389-27.782 9.048 13.625 22.023 46.497 6.49 59.157 9.866-7.206 13.62-47.786 6.057-20.901 23.364 15.855 3.122 31.8 6.889 41.489 21.266-9.032-2.134-35.428-18.57-32.466-8.337 10.58 1.564 45.182 23.905 14.985 12.494-23.776-8.893.505 9.89 12.007 7.366 10.867 5.967 16.345 20.815-2.271 11.015-17.838-10.879-12.276 9.114 3.849 12.971 10.337.762 15.753 8.091 23.137 10.062zm-483.79-45.677c-11.648-5.1 6.324 6.383 0 0zm84.14-75.542c19.938-1.848 13.415-26.93 12.647-33.58 3.193 15.207 20.574 22.539 28.431 11.561-10.746-10.346-19.468-23.33-32.188-31.209-19.333 2.363-38.254 24.673-43.765 42.304 1.021 17.159 26.782 39.894 32.687 12.947zm-33.584 6.687c-3.567-8.78-19.278-27.886-10.934-7.021 2.604 1.555 8.093 10.3 10.934 7.021zm84.908-41.108c-13.663-7.264-24.884-41.273-38.461-22.375 11.957 9.656 30.497 22.922 41.889 25.96zm35.793-3.495c28.185-4.194-7.548-26.289-2.675-34.918 13.579 15.965 29.38 30.896 51.778 32.104 3.323.494-6.762-34.831 2.687-16.655-2.465 23.272 49.266 27.334 37.752.943.981-14.234 42.275-38.03 6.895-36.131-7.882 8.61-10.412 34.062-17.264 35.425-3.293-15.43 21.584-45.5-7.79-39.24-19.06-1.568-54.2-3.498-41.24 25.892 4.916 8.887 11.883 38.609-1.188 15.48-9.783-10.182.175-35.32-12.596-39.013-24.869-1.743-51.09 5.773-71.513 19.889 5.194 16.244 22.7 38.31 42.515 38.868 4.318-.23 8.56-1.245 12.639-2.644z"/>
</svg>
