<svg xmlns="http://www.w3.org/2000/svg" width="1278.714" height="1568.173" viewBox="0 0 338.326 414.913">
  <path fill="none" d="M0 .651h337.155v414.262H0z" paint-order="stroke fill markers"/>
  <path class="hair" fill="#3b2516" d="M244.67 117.89a166.688 166.688 0 0 0-3.195-14.735c-4.008-18.953-16.85-34.626-32.127-45.903-1.252-3.693-9.49-7.893-12.158-8.654-2.799-1.578-19.237-2.758-23.654-3.7-4.229-.54-8.564-.932-12.863-.903-8.207.055-16.281 1.645-23.229 6.671-10.162 8.942-20.637 18.433-27.27 30.564-8.684 18.905-14.814 33.657-13.362 54.33.072.726 1.354 3.858 2.455 3.797l.015-.003.096.173c3.365-1.872 4.302-4.775 6.48-7.708l.435-.68c6.543-10.62 8.649-24.094 15.237-35.075 5.38-14.417 19.57-21.633 30.18-31.607 6.803-8.76 11.29-6.49 20.86-5.004 12.396.055 16.88 21.178 21.093 26.007 1.534 1.757 2.362 2.663 2.82 3.137 1.163 2.527 2.867 4.814 5.585 6.66-.752-2.064-7.505-16.658-7.78-24.177-1.552 1.213-4.308-6.856.494-.587 7.81 10.397 9.477 24.324 18.966 33.567 3.796 13.273 13.21 20.05 21.931 30.053 1.694 1.351 2.362 1.623 2.424 1.299l.007.012c6.527-1.504 6.873-9.19 6.56-17.534z"/>
  <path d="M246.036 127.805c-.88-8.4-2.43-16.73-4.588-24.888-4.008-18.952-16.85-34.626-32.127-45.903-1.252-3.692-9.49-7.892-12.158-8.654-2.799-1.577-19.237-2.758-23.654-3.699-4.229-.54-8.564-.932-12.863-.903-8.207.055-16.281 1.645-23.228 6.671-10.163 8.942-20.637 18.433-27.27 30.564-8.685 18.905-16.718 40.026-12.93 61.172 1.232 1.083 2.263-1.738 2.372-2.135-2.43-18.137 2.296-36.795 10.485-53.002 4.902-11.354 12.366-22.659 22.71-29.677 6.8-5.714 22.712-18.793 27.033-4.4-3.752 1.816-9.806 10.545-15.8 14.287-11.95 8.586-22.59 19.388-27.965 33.353-4.274 8.871-5.167 19.665-9.38 27.808-1.065 2.538-3.902 5.601-4.113 8.285-.033.13 3.409-4.634 3.376-4.504 7.182-10.78 8.732-24.96 15.567-36.353 5.38-14.417 19.57-21.634 30.18-31.607 6.803-8.761 11.29-6.49 20.86-5.004 12.396.055 16.88 21.178 21.093 26.007 1.534 1.757 2.362 2.663 2.82 3.137 1.163 2.527 2.867 4.813 5.585 6.659-.751-2.063-7.505-16.657-7.78-24.177-1.552 1.213-4.308-6.855.495-.586 7.809 10.397 9.476 24.324 18.965 33.567 3.796 13.273 14.413 22.188 23.134 32.19 6.146 4.906-2.397-6.533-3.325-7.03-11.445-10.983-17.624-25.854-24.132-40.003-4.916-10.007.715 3.25 1.51 6.64-4.043-3.607-5.92-14.112-10.195-19.894.364-4.717-16.798-17.187-10.682-8.888 3.944 6.208 3.39 14.25 6.123 20.826-1.15-1.433-3.121-3.99-4.032-6.954-3.442-11.208-6.316-21.757-18.784-24.24-8.945.337-13.384-2.932-15.267-10.384 2.552 3.52 2.793 4.148 2.622 1.225-.148-2.528 1.958-1.701 3.186-2.274 1.496-.699 4.8.126 7.2 1.167 8.204-3.292-9.854 6.863.05 2.394 4.283-2.263 15.635-2.503 15.314-1.164-.229.956-11.094 1.86-14.102 4.242 3.507-.948 16.877-4.219 24.203-3.026.478.468 1.798 1.357 4.33 2.785 8.895 3.9-3.872 1.435 3.12 4.091 10.47 4.954 16.906 15.298 24.22 23.864 7.965 9.412 11.244 21.308 13.555 33.155.865 5.847 1.287 11.774 1.637 17.714zm-95.55-75.711c-3.794.014-10.618.754-11.59 2.137-.203.29 2.605-.52 2.691-.05-.326.345-6.413 4.041-8.463 6.368-1.684 1.912-2.852 4.051-2.674 3.868 9.651-9.929 17.283-12.294 18.376-11.437 6.608-.43 5.228-.9 1.66-.886zm43.45.865c-.897-.003 8.641 4.128 11.778 6.466 8.862 5.479-4.256-4.436-6.78-4.864-3.241-1.14-4.7-1.6-4.999-1.602zm12.45 29.993c-.035.01-.076.119-.12.389.307 1.383.273-.433.12-.39zm-89.226 7.78a104.203 104.203 0 0 0-13.96 35.931c-.236 2.514 1.61-3.17 1.211-2.063 2.829-11.81 7.637-22.935 12.749-33.868z"/>
</svg>
