<svg xmlns="http://www.w3.org/2000/svg" width="1278.065" height="1569.494" viewBox="0 0 338.155 415.262">
  <path fill="none" d="M.5.5h337.155v414.262H.5z" paint-order="stroke fill markers"/>
  <path class="hair" fill="#3b2516" d="M160.187 44.087c-5.868-.047-11.743 1.125-17.15 2.883-5.395 5.57-14.463 3.185-18.72 10.585-6.768 5.905-9.035 14.56-14.27 21.646-5.461 5.129-2.853 12.985-6.476 18.376-5.677 7.862 1.277 15.987-.445 24.35 1.804 8.109.62 16.987 4.391 24.543 2.192-.557-.161-4.637.531-6.308 2.457-8.398-.053-17.775 1.062-26.671 1-8.018 3.078-15.016 7.88-22.014 1.784-9.753 6.073-18.117 14.26-23.647 7.496-4.198 14.047-10.554 23.163-6.923 6.295.287 12.19 4.595 18.835 1.787 8.453-2.441 10.59-.592 18.405-.362 6.81 1.866 14.426-.945 18.714 5.813 7.97 7.796 14.67 20.808 15.077 31.644 1.762 8.555 6.214 13.664 2.607 22.2-.276 6.71.476 16.114 3.515 21.081 3.79-9.442 2.515-19.863 2.452-29.765.282-8.315.354-13.904-4.004-21.704-2.474-8.439-3.895-19.662-12.954-23.856-7.717-4.157-12.134-12.822-20.192-16.138-9.806-2.714-19.628-5.807-29.824-6.866a38.396 38.396 0 0 0-6.857-.654z"/>
  <path d="M107.518 146.47c-3.771-7.557-2.588-16.434-4.392-24.543 1.722-8.363-5.231-16.488.446-24.35 3.623-5.39 1.014-13.247 6.476-18.376 5.234-7.087 7.5-15.74 14.27-21.646 4.257-7.4 13.324-5.015 18.718-10.585 7.524-2.446 15.952-3.759 24.008-2.23 10.196 1.06 20.019 4.153 29.824 6.867 8.058 3.316 11.975 11.114 19.692 15.27 9.059 4.196 10.98 16.285 13.454 24.724 4.358 7.8 4.286 13.389 4.005 21.704.062 9.902 1.338 20.323-2.452 29.765-3.04-4.967-3.792-14.37-3.515-21.081 3.606-8.537-.846-13.645-2.608-22.2-2.369-10.548-7.492-24.923-15.077-31.644-4.288-6.758-11.905-3.947-18.714-5.813-7.815-.23-9.952-2.079-18.405.362-6.644 2.808-12.54-1.5-18.834-1.787-9.117-3.63-15.668 2.725-23.164 6.923-8.187 5.53-12.476 13.894-14.26 23.647-4.802 6.998-6.879 13.996-7.88 22.014-1.115 8.896 1.396 18.273-1.061 26.671-.693 1.67 1.66 5.75-.531 6.308zm.033-8.28c.23-4.077-.226-14.688-1.112-5.12.187 1.176-.296 10.257 1.112 5.12zm124.364.334c1.012-4.045 1.96-13.104-.287-4.117-3.496-1.698.033 7.555.287 4.117zm.035-7.208c1.91-6.232 1.444-12.625 1.29-19.009-5.211 4.62-4.486 13.418-3.336 19.732 1.08 2.664 1.919 1.093 2.046-.723zm-124.775-7.174c3.034-5.41-5.13-10.63-2.35-1.944-.088 3.25 1.185 7.426 2.35 1.944zm.366-9.353c1.34-7.269 1.805-15.34 6.301-21.018 2.74-4.505 2.32-10.059-1.234-10.578 6.074-1.495 8.163-10.32 5.97-11.34 4.72 4.445 10.577-2.738 7.547-6.75 4.613 3.636 11.244-3.282 15.832-5.52 2.841-1.474-4.71-5.297 1.32-2.213 2.33 2.696-1.12-6.344 2.211-.59 1.326 3.257 10.216 3.932 4.32-.418-.753-8.682-9.12-8.676-14.604-3.957-8.541 1.49-9.539 7.954-14.626 11.532-4.373 4.093-3.421 11.133-7.263 13.154-4.444 5.833-7.342 13.98-5.551 20.34-5.245-6.463 1.777 9.24-3.86 2.346-2.263 5.097-1.118 14.025 3.466 16.689zm124.856-3.721c2.177-12.335-4.138-20.421-9.318-26.043-1.794-.33 4.253 10.917 3.79 17.364 1.453 2.94 4.605 9.125 5.528 8.679zm-5.041-25.778c.165-4.928-11.623-12.21-10.12-12.65 3.088 1.782 8.948 7.228 3.912 1.256-1.262-4.28-12.34-11.27-11.204-8.3 6.853 4.892 8.517 14.003 16.28 20.225 1.513 1.997 2.292 2.752 1.132-.53zm-2.804-7.235c-.915-1.093.147 1.324 0 0zm-20.744-15.357c7.083-2.068-7.917-12.72-1.788-5.018 2.409 3.006-5.324 6.582 1.788 5.018zm5.81.05c-6.052-4.476-3.386 3.874 1.884 1.153l-.344-.322zm-40.309-1.478c4.367-9.871-9.509-16.482-18.07-15.457-1.653.415 6.856 5.142 4.827 9.469.913 5.632 8.52 7.39 13.243 5.988zm28.821-.194c7.334-6.879-7.662-10.918-13.16-11.932 6.088 1.781 8.942 9.061 9.586 12.328l1.94.143zm-25.062-.112c3.579.021 2.038-9.129 3.406-1.408 1.196 6.44 3.629-6.662 3.24-2.865 3.493 4.902-1.44-7.059-5.607-6.443-3.5-1.599-15.743-5.747-14.989-4.735 9.01.838 13.852 10.271 13.95 15.45zm18.055-.671c2.055-8.622-10.918-11.6-17.508-13.68-4.522-.868-14.408-1.462-4.802.722 7.047 1.492 13.617 7.093 15.273 12.56 2.415-3.06 3.452-4.44 2.636.542 6.318-3.128-7.668-10.548 1.179-5.751 4.497.41-.448 8.853 3.222 5.607zm-33.99-.6c-3.081-3.643-4.336-15.923-10.74-11.623 4.549 2.038 5.887 13.995 10.74 11.623zm77.336 47.995c.216-.905.116 1.149 0 0z"/>
</svg>
