<svg xmlns="http://www.w3.org/2000/svg" width="1278.714" height="1568.173" viewBox="0 0 338.326 414.913">
  <path fill="none" d="M0 .651h337.155v414.262H0z" paint-order="stroke fill markers"/>
  <path class="hair" fill="#3b2516" d="M244.67 117.89a166.688 166.688 0 0 0-3.195-14.735c-.432-2.04-2.202-4.478-2.83-6.441-5.208-16.27-15.665-29.4-29.297-39.462-1.252-3.693-9.49-7.893-12.158-8.654-2.799-1.578-19.237-2.758-23.654-3.7-4.229-.54-7.548-.731-11.162.03-.795.005-2.69 2.205-3.483 2.241-.53.024-3.21-1.624-4.948-1.64-5.76-.052-10.676.924-16.499 5.137-10.162 8.942-20.637 18.433-27.27 30.564-8.684 18.905-14.814 33.657-13.362 54.33.072.726 1.354 3.858 2.455 3.797l.015-.003.096.173c3.365-1.872 4.302-4.775 6.48-7.708l.435-.68c6.543-10.62 5.814-24.472 12.402-35.452 5.38-14.418 7.127-19.817 17.634-30.382 8.003-8.047 20.39-9.877 29.96-8.39 10.77.806 20.732 1.317 27.466 4.888 19.342 10.256 23.029 31.368 28.479 44.83 3.395 10.266 4.724 17.477 13.445 27.48 1.694 1.351 2.362 1.623 2.424 1.299l.007.012c6.527-1.504 6.873-9.19 6.56-17.534z"/>
  <path d="M158.946 46.888c-.185.053-.372.057-.545-.091-.605-.518-3.077-1.933-6.035-1.808-6.292.265-9.574 1.551-14.949 5.44-10.162 8.942-20.636 18.433-27.27 30.563-8.684 18.906-16.717 40.027-12.929 61.173 1.232 1.083 2.263-1.738 2.372-2.135-2.43-18.137 2.296-36.795 10.485-53.002 4.902-11.354 12.626-22.848 22.31-30.81 2.466-2.074 6.051-5.3 10.191-7.592 4.587-2.54 10.307-2.93 13.776-1.565 2.03.8 2.45 2.504 3.466 5.89.227 1.317 2.834 3.091-1.109 3.069-5.765-.034-15.973 2.409-20.563 6.6-11.95 8.586-17.777 26.122-23.151 40.087-.233.483-.107 1.054-.97 2.2-.378.502-1.85 1.818-3.587 2.91-2.42 1.523-5.246 2.833-5.37 2.878-.27.097 3.117-.992 5.697-2.263 1.1-.542 1.838-1.112 2.322-1.434.116-.077.38-.373.369-.343-3.081 8.11-3.103 14.63-6.783 21.745-1.065 2.538-3.902 5.6-4.113 8.285-.033.13 3.409-4.635 3.376-4.505 5.641-8.468 7.229-21.339 9.103-26.23.576-.354 1.06-1.646 1.371-2.348.999-2.253 2.334-6.055 3.274-8.389 5.748-14.274 7.07-19.64 17.68-29.613 4.34-5.59 17.625-8.254 22.723-8.5 4.58-.221 7.187.041 10.652.58 8.229.62 18.023 1.635 24.443 5.723 11.637 7.41 16.446 18.081 21.792 30.989.347.837 1.134 1.878 1.843 2.548 3.796 13.273 7.946 27.606 17.046 37.42 1.826 1.37.909.338-.365-1.836-1.135-1.937-1.53-3.306-1.968-3.54-4.424-8.365-8.036-15.533-11.417-25.918-.268-.82-1.34-5.135-1.143-4.925.728.777 12.637 10.166 15.321 10.873-3.79-3.026-11.531-8.68-15.524-12.689-.908-.911-1.842-2.224-2.233-2.884-7.87-17.818-14.562-27.378-25.51-32.97-5.563-2.843-12.876-2.201-19.686-4-8.945.336-12.359-.634-14.242-8.087 2.552 3.521 2.45 2.153 1.465.257-1.72-3.048 2.09-3.03 3.318-3.604 1.496-.699 4.8.127 7.2 1.167 8.204-3.291-9.854 6.864.05 2.395 4.283-2.263 15.635-2.504 15.314-1.164-.228.956-11.094 1.858-14.103 4.241 3.507-.948 16.878-4.219 24.205-3.026.477.469 1.797 1.358 4.33 2.785 8.895 3.9-3.873 1.435 3.118 4.092 10.472 4.953 16.907 15.298 24.221 23.863 3.867 4.57 7.338 9.82 9.422 15.271.263.69-.396.147-.171.844 1.659 5.134 3.257 11.673 4.304 17.04.864 5.847 1.287 11.774 1.637 17.715l2.63-2.455c-.88-8.399-2.43-16.73-4.588-24.887-.342-1.62-1.572-4.673-1.827-6.058-.192-1.036-.235-1.904-.65-3.051-5.533-15.269-16.655-27.201-29.65-36.794-1.252-3.692-9.49-7.893-12.158-8.654-2.799-1.578-19.237-2.758-23.654-3.7-4.229-.54-4.24-1.148-8.637-.87-2.804.178-4.361 1.468-5.926 3.097zm-8.46 5.206c-3.794.014-10.618.753-11.589 2.137-.204.29 2.604-.52 2.69-.05-.326.345-6.413 4.041-8.463 6.368-1.684 1.912-2.852 4.052-2.674 3.868 9.65-9.929 17.283-12.294 18.376-11.437 6.608-.43 5.228-.9 1.66-.886zm34.235 4.222c-.565.419 7.562-1.71 10.741-1.854 8.4-1.046-4.969-.524-6.774.418-2.625.874-3.779 1.297-3.967 1.436zm50.13 37.111c-4.858-6.096-16.249-14.973-23.936-17.535-2.05-1.286 6.288 1.538 8.018 2.717 6.291 4.554 9.965 5.995 15.919 14.818z"/>
</svg>
