<?xml version="1.0" encoding="UTF-8" standalone="no"?>
<!-- Created with Inkscape (http://www.inkscape.org/) -->

<svg
   xmlns:dc="http://purl.org/dc/elements/1.1/"
   xmlns:cc="http://creativecommons.org/ns#"
   xmlns:rdf="http://www.w3.org/1999/02/22-rdf-syntax-ns#"
   xmlns:svg="http://www.w3.org/2000/svg"
   xmlns="http://www.w3.org/2000/svg"
   xmlns:sodipodi="http://sodipodi.sourceforge.net/DTD/sodipodi-0.dtd"
   xmlns:inkscape="http://www.inkscape.org/namespaces/inkscape"
   width="338.15475mm"
   height="415.26193mm"
   viewBox="0 0 338.15475 415.26193"
   version="1.1"
   id="svg8"
   inkscape:version="0.92.3 (2405546, 2018-03-11)"
   sodipodi:docname="Fronthair06.svg">
  <defs
     id="defs2" />
  <sodipodi:namedview
     id="base"
     pagecolor="#ffffff"
     bordercolor="#666666"
     borderopacity="1.0"
     inkscape:pageopacity="0.0"
     inkscape:pageshadow="2"
     inkscape:zoom="0.69999999"
     inkscape:cx="559.47986"
     inkscape:cy="1001.8603"
     inkscape:document-units="mm"
     inkscape:current-layer="layer1"
     showgrid="false"
     inkscape:window-width="1920"
     inkscape:window-height="1001"
     inkscape:window-x="-9"
     inkscape:window-y="-9"
     inkscape:window-maximized="1"
     inkscape:snap-global="true"
     fit-margin-top="0"
     fit-margin-left="0"
     fit-margin-right="0"
     fit-margin-bottom="0" />
  <metadata
     id="metadata5">
    <rdf:RDF>
      <cc:Work
         rdf:about="">
        <dc:format>image/svg+xml</dc:format>
        <dc:type
           rdf:resource="http://purl.org/dc/dcmitype/StillImage" />
        <dc:title />
      </cc:Work>
    </rdf:RDF>
  </metadata>
  <g
     inkscape:label="Ebene 1"
     inkscape:groupmode="layer"
     id="layer1"
     transform="translate(1027.0834,-13.766026)">
    <rect
       style="opacity:1;fill:none;fill-opacity:1;fill-rule:evenodd;stroke:none;stroke-width:0.99999988;stroke-linecap:round;stroke-linejoin:miter;stroke-miterlimit:4;stroke-dasharray:none;stroke-dashoffset:0;stroke-opacity:1;paint-order:stroke fill markers"
       id="rect1307-4"
       width="337.15475"
       height="414.26193"
       x="-1026.5834"
       y="14.266026"
       inkscape:label="Frame" />
    <path
       style="fill:#241c1c;fill-opacity:1;stroke-width:0.99999994"
       d="m -866.89651,57.853015 c -5.868,-0.04726 -11.7427,1.125275 -17.15054,2.883204 -5.39394,5.570056 -14.46198,3.185262 -18.71946,10.585127 -6.76822,5.904746 -9.03479,14.558957 -14.26945,21.646065 -5.46162,5.128276 -2.85325,12.985109 -6.47634,18.375669 -5.67693,7.8623 1.27691,15.98713 -0.44522,24.34959 1.80371,8.10897 0.62064,16.98687 4.39143,24.54347 2.19188,-0.55757 -0.1617,-4.6372 0.53079,-6.30781 2.45727,-8.39853 -0.053,-17.7751 1.06208,-26.67135 1.00064,-8.01755 3.07743,-15.01571 7.8802,-22.01369 1.78355,-9.753345 6.07222,-18.117033 14.25978,-23.647163 7.49536,-4.198184 14.04675,-10.553748 23.16333,-6.923601 6.29469,0.287813 12.19007,4.595358 18.83409,1.787188 8.4534,-2.440843 10.59058,-0.591941 18.40565,-0.361255 6.80912,1.865867 14.42544,-0.945523 18.71336,5.812915 7.97133,7.795239 14.67068,20.807296 15.07726,31.643276 1.76262,8.55579 6.21366,13.66394 2.60763,22.2002 -0.27646,6.71063 0.47576,16.11381 3.51478,21.08166 3.79031,-9.44286 2.51427,-19.86373 2.45218,-29.76555 0.2814,-8.31493 0.3535,-13.90353 -4.0047,-21.70411 -2.47413,-8.438327 -3.89443,-19.661501 -12.95346,-23.856275 -7.71688,-4.156742 -12.13442,-12.821665 -20.19244,-16.137243 -9.80547,-2.714154 -19.62792,-5.807421 -29.82408,-6.86634 -2.26575,-0.430187 -4.56069,-0.635476 -6.85687,-0.653977 z"
       id="path2137"
       inkscape:connector-curvature="0"
       inkscape:label="Füllung_Vorderhaar"
       sodipodi:nodetypes="cccccccccccccccccccccccc" />
    <path
       style="fill:#000000;stroke-width:0.99999994"
       d="m -919.56588,160.2361 c -3.77078,-7.5566 -2.58789,-16.43441 -4.39158,-24.54338 1.72213,-8.36247 -5.23129,-16.48755 0.44565,-24.34987 3.6231,-5.39055 1.01462,-13.247078 6.47625,-18.375363 5.23466,-7.087109 7.50108,-15.7413 14.26931,-21.646045 4.25747,-7.399865 13.32526,-5.015167 18.7192,-10.585223 7.52395,-2.445808 15.95167,-3.75898 24.00761,-2.229426 10.19618,1.05891 20.01886,4.152252 29.82433,6.866407 8.05803,3.315578 11.97435,11.113877 19.69123,15.270619 9.05903,4.194773 10.98009,16.284702 13.45422,24.723031 4.3582,7.80057 4.28629,13.38906 4.00488,21.70399 0.0622,9.90182 1.33837,20.32281 -2.45196,29.76567 -3.03903,-4.96785 -3.79136,-14.37128 -3.51491,-21.08191 3.60602,-8.53626 -0.84527,-13.64415 -2.6079,-22.19995 -2.36873,-10.54731 -7.49216,-24.922888 -15.07726,-31.643276 -4.28791,-6.758429 -11.9041,-3.946991 -18.71318,-5.812858 -7.8151,-0.230686 -9.95227,-2.079465 -18.40569,0.361377 -6.64402,2.808171 -12.53908,-1.499488 -18.83376,-1.787302 -9.11659,-3.630146 -15.66812,2.725551 -23.16347,6.923745 -8.18757,5.53012 -12.47622,13.893704 -14.25978,23.647064 -4.80276,6.99797 -6.87975,13.99603 -7.88039,22.01358 -1.11507,8.89625 1.39549,18.27259 -1.06178,26.67112 -0.69249,1.67061 1.66086,5.75043 -0.53102,6.308 z m 0.0335,-8.27994 c 0.23066,-4.07674 -0.22589,-14.68841 -1.11198,-5.11966 0.18662,1.17518 -0.29618,10.25661 1.11198,5.11966 z m 124.36385,0.33362 c 1.0126,-4.04455 1.95958,-13.1033 -0.28737,-4.11633 -3.49523,-1.69796 0.0336,7.5541 0.28737,4.11633 z m 0.0348,-7.20784 c 1.91123,-6.23215 1.44461,-12.62531 1.29047,-19.00854 -5.21117,4.62033 -4.48579,13.41734 -3.33569,19.73167 1.08038,2.6635 1.91847,1.09313 2.04522,-0.72313 z m -124.7751,-7.17417 c 3.03432,-5.40916 -5.12939,-10.62939 -2.35022,-1.94334 -0.0874,3.25018 1.186,7.42548 2.35022,1.94334 z m 0.36604,-9.35233 c 1.33989,-7.26903 1.8057,-15.34012 6.30182,-21.0183 2.7402,-4.50508 2.32046,-10.058904 -1.23437,-10.57836 6.07346,-1.494372 8.16273,-10.320236 5.96931,-11.339238 4.72145,4.444593 10.57783,-2.738186 7.54746,-6.750122 4.61303,3.635381 11.24448,-3.282527 15.83258,-5.519597 2.84054,-1.475222 -4.70974,-5.297383 1.32046,-2.214063 2.32858,2.695847 -1.12059,-6.34372 2.2102,-0.590633 1.32585,3.258261 10.21544,3.932623 4.31911,-0.416774 -0.75194,-8.682744 -9.11998,-8.676796 -14.60284,-3.957147 -8.54165,1.489762 -9.5389,7.953766 -14.62613,11.531744 -4.37284,4.093284 -3.4213,11.133418 -7.2629,13.153973 -4.44438,5.832968 -7.34252,13.979827 -5.55154,20.339177 -5.24462,-6.46174 1.77765,9.24127 -3.85955,2.34663 -2.26306,5.0973 -1.11866,14.02547 3.46587,16.68891 z m 124.85641,-3.72172 c 2.17672,-12.33439 -4.13813,-20.4209 -9.31778,-26.042715 -1.7942,-0.329719 4.25299,10.917005 3.78914,17.364095 1.45385,2.94049 4.60541,9.1254 5.52864,8.67862 z m -5.04151,-25.777263 c 0.16597,-4.928187 -11.6222,-12.210345 -10.11991,-12.650525 3.08853,1.781987 8.94862,7.227918 3.91263,1.25609 -1.26266,-4.280273 -12.34039,-11.269251 -11.20395,-8.300445 6.85276,4.892012 8.51639,14.003459 16.27916,20.225068 1.51404,1.997795 2.29297,2.752865 1.13207,-0.530188 z m -2.80375,-7.235363 c -0.91437,-1.093276 0.1476,1.32379 0,0 z m -20.74344,-15.357287 c 7.0824,-2.068118 -7.91702,-12.719763 -1.78876,-5.017556 2.40936,3.005449 -5.32357,6.581646 1.78876,5.017556 z m 5.80917,0.04978 c -6.05109,-4.475592 -3.38576,3.874742 1.88461,1.153275 l -0.34413,-0.321679 z m -40.3084,-1.477765 c 4.3667,-9.870852 -9.50888,-16.481765 -18.07081,-15.456503 -1.65277,0.415165 6.85661,5.141283 4.82814,9.468692 0.91288,5.632003 8.51936,7.389447 13.24267,5.987811 z m 28.82109,-0.193942 c 7.33375,-6.87879 -7.66181,-10.918195 -13.16082,-11.931827 6.08837,1.781241 8.94254,9.061003 9.58689,12.327932 l 1.93984,0.142979 z m -25.06255,-0.111918 c 3.57939,0.02151 2.03798,-9.128639 3.40614,-1.407813 1.19648,6.439251 3.62925,-6.662219 3.24012,-2.865425 3.49318,4.902093 -1.44012,-7.058653 -5.60667,-6.442946 -3.50065,-1.598495 -15.74286,-5.746958 -14.989,-4.734966 9.00951,0.838464 13.85171,10.271179 13.94939,15.45115 z m 18.05587,-0.671339 c 2.05436,-8.621858 -10.91841,-11.599018 -17.50842,-13.679818 -4.52171,-0.86781 -14.4081,-1.461391 -4.80163,0.721884 7.04637,1.492715 13.61667,7.093645 15.27217,12.561222 2.41519,-3.060702 3.4523,-4.441631 2.63649,0.541301 6.31818,-3.128527 -7.66815,-10.547943 1.17887,-5.751631 4.49714,0.411271 -0.44779,8.853659 3.22252,5.607042 z m -33.99071,-0.599102 c -3.0809,-3.643001 -4.33575,-15.923348 -10.73987,-11.623382 4.54872,2.037862 5.88747,13.994895 10.73987,11.623382 z m 77.3363,47.994659 c 0.21637,-0.90535 0.11595,1.14842 0,0 z"
       id="path826-1-3"
       inkscape:connector-curvature="0"
       sodipodi:nodetypes="ccccccccccccccccccccccccccccccccccccccccccccccccccccccccccccccccccccccccccccccccccccccccccccccccccc"
       inkscape:label="Kontur_Vorderhaar" />
  </g>
</svg>
