<?xml version="1.0" encoding="UTF-8" standalone="no"?>
<!-- Created with Inkscape (http://www.inkscape.org/) -->

<svg
   xmlns:dc="http://purl.org/dc/elements/1.1/"
   xmlns:cc="http://creativecommons.org/ns#"
   xmlns:rdf="http://www.w3.org/1999/02/22-rdf-syntax-ns#"
   xmlns:svg="http://www.w3.org/2000/svg"
   xmlns="http://www.w3.org/2000/svg"
   xmlns:sodipodi="http://sodipodi.sourceforge.net/DTD/sodipodi-0.dtd"
   xmlns:inkscape="http://www.inkscape.org/namespaces/inkscape"
   width="338.15475mm"
   height="415.26193mm"
   viewBox="0 0 338.15475 415.26193"
   version="1.1"
   id="svg864"
   inkscape:version="0.92.3 (2405546, 2018-03-11)"
   sodipodi:docname="Fronthair07.svg">
  <defs
     id="defs858" />
  <sodipodi:namedview
     id="base"
     pagecolor="#ffffff"
     bordercolor="#666666"
     borderopacity="1.0"
     inkscape:pageopacity="0.0"
     inkscape:pageshadow="2"
     inkscape:zoom="0.49497475"
     inkscape:cx="357.34165"
     inkscape:cy="1047.6036"
     inkscape:document-units="mm"
     inkscape:current-layer="layer1"
     showgrid="false"
     fit-margin-top="0"
     fit-margin-left="0"
     fit-margin-right="0"
     fit-margin-bottom="0"
     inkscape:window-width="1920"
     inkscape:window-height="1001"
     inkscape:window-x="-9"
     inkscape:window-y="-9"
     inkscape:window-maximized="1"
     inkscape:snap-page="true" />
  <metadata
     id="metadata861">
    <rdf:RDF>
      <cc:Work
         rdf:about="">
        <dc:format>image/svg+xml</dc:format>
        <dc:type
           rdf:resource="http://purl.org/dc/dcmitype/StillImage" />
        <dc:title></dc:title>
      </cc:Work>
    </rdf:RDF>
  </metadata>
  <g
     inkscape:label="Ebene 1"
     inkscape:groupmode="layer"
     id="layer1"
     transform="translate(389.05954,5.8809661)">
    <rect
       style="opacity:1;fill:none;fill-opacity:1;fill-rule:evenodd;stroke:none;stroke-width:0.99999988;stroke-linecap:round;stroke-linejoin:miter;stroke-miterlimit:4;stroke-dasharray:none;stroke-dashoffset:0;stroke-opacity:1;paint-order:stroke fill markers"
       id="rect1307"
       width="337.15475"
       height="414.26193"
       x="-388.05954"
       y="-4.8809843"
       inkscape:label="Frame" />
    <path
       style="fill:#784421;stroke-width:1"
       d="m -216.12428,30.677459 c -9.5198,-0.0374 -19.7844,1.55676 -25.2442,9.96482 -6.472,0.17284 -16.3401,7.21649 -22.0022,13.87228 -5.6317,8.7105 -12.4814,16.52913 -17.5721,25.56443 -5.2202,11.03851 -7.5918,23.597511 -7.2568,35.850141 0.5557,10.85995 2.9504,18.46078 6.6662,23.72053 0.2055,-11.45222 2.3879,-23.03669 5.4768,-34.10653 4.8356,-11.734421 10.1492,-23.789481 18.8928,-33.103521 6.5323,-7.91956 19.8961,-10.02966 22.483,-20.5305 5.7123,3.15095 18.7733,1.59018 26.7772,5.96916 11.4037,3.42394 19.5094,12.13293 28.9025,18.92386 9.3558,5.80985 14.1195,16.09287 17.7964,26.103081 1.4789,3.75336 3.4523,21.31553 4.5478,28.57126 0.2251,1.49047 0.029,4.06595 0.2089,4.31617 0.2084,0.28994 0.6303,-1.11923 0.9382,-3.3462 0.1971,-1.42576 0.3335,-2.89398 0.383,-5.42594 -0.1017,-9.11173 -1.3103,-21.77627 -3.5566,-45.485891 -2.4695,-6.42976 -0.9237,-6.36934 -2.5641,-10.03351 -6.4851,-10.08299 -7.1234,-12.55291 -14.3374,-22.16909 -9.1309,-9.28001 -21.1818,-16.48968 -34.1359,-18.43168 -2.0491,-0.11862 -4.2063,-0.21421 -6.403,-0.22287 z"
       id="path967"
       inkscape:connector-curvature="0"
       inkscape:label="Füllung_Vorderhaar"
       sodipodi:nodetypes="ccccccccccccsssccccccc" />
    <path
       style="fill:#000000;stroke-width:1"
       d="m -281.53318,139.64967 c 0.2054,-11.45222 2.3878,-23.03668 5.4767,-34.10652 4.8356,-11.734431 10.1491,-23.789491 18.8927,-33.103531 6.5324,-7.91956 19.8962,-10.02965 22.4831,-20.53049 5.7123,3.15093 18.7734,1.59017 26.7773,5.96913 11.4036,3.42396 19.5094,12.13295 28.9025,18.92387 9.3557,5.80987 14.1194,16.09287 17.7962,26.103081 0.6568,10.06459 3.4965,19.93381 4.3723,29.98014 0.2967,3.06037 0.051,4.21668 0.4136,3.96513 0.9885,-0.6866 0.1286,-11.20324 -0.4284,-14.39454 -1.5278,-11.01929 -1.871,-22.31196 -8.1005,-31.912021 -3.1635,-6.68338 -2.3142,-5.3887 1.7664,-0.16113 3.2182,5.35732 5.5515,8.05262 1.9382,-0.0148 -5.7783,-8.8105 -15.4578,-13.86895 -23.2988,-20.61129 -7.3218,-8.0467 -17.5269,-11.45795 -27.033,-15.95439 -9.0397,-3.29824 -24.4556,0.5816 -27.5325,-12.12634 6.4359,-10.59958 20.4144,-9.12668 31.0544,-8.76447 10.3828,2.75543 20.5917,7.71678 28.7127,14.85251 6.9895,8.83763 13.9606,17.8727 18.8959,28.04636 3.4347,8.16026 4.0187,7.04799 3.1883,3.8108 -3.8791,-11.61978 -11.1146,-20.6729 -18.3287,-30.28907 -9.1309,-9.28001 -21.1819,-16.4897 -34.136,-18.43168 -2.0493,-0.11867 -4.2065,-0.21426 -6.4034,-0.22288 l 5.3e-4,-1.4e-4 c -9.5198,-0.0373 -19.7848,1.55663 -25.2448,9.96482 -6.4719,0.17285 -16.3399,7.2165 -22.0021,13.87227 -5.6316,8.71052 -12.4814,16.52915 -17.5721,25.56446 -5.2203,11.0385 -7.5919,23.597491 -7.2568,35.850131 0.5557,10.85996 2.9505,18.46078 6.6663,23.72053 z m 74.2496,-100.207721 c 1.0941,2.38991 18.2722,7.19559 22.9159,14.18803 12.8552,8.4331 18.6697,22.42405 26.6074,35.02625 l 1.8545,2.00332 0.5949,0.58505 c -3.9401,-11.19607 -10.5621,-21.27249 -17.879,-30.47163 -9.8846,-9.02159 -20.3422,-19.29064 -34.0937,-21.33102 z m -14.9626,3.39669 c -3.5364,-0.009 -6.9557,0.75305 -9.4972,2.74473 4.2836,2.40592 18.4793,-3.18281 25.741,2.55527 -2.3135,-2.45346 -9.4922,-5.28257 -16.2438,-5.3 z m -21.9552,0.57299 c 0.5549,-0.007 1.1163,0.0295 1.6847,0.11284 12.7142,7.95531 -0.5735,17.73051 -9.0855,21.95649 -10.3266,6.1213 -16.3794,17.12709 -21.5008,27.66423 -6.0805,11.140161 -8.3218,23.726971 -10.1847,36.193701 -0.2348,0.21653 -1.8339,-5.3806 -2.5134,-9.6286 -1.0783,-11.17313 -0.9283,-12.10052 2.2842,-23.096931 1.9416,-14.32198 11.4153,-25.51632 18.9276,-37.21482 5.2675,-6.07641 12.0658,-15.88288 20.3879,-15.98691 z m 0.3765,0.93193 c -10.8048,4.70941 -17.6029,15.6931 -24.3145,25.02629 2.927,-2.84594 5.1252,-6.37064 8.034,-9.24696 3.6108,-5.81 15.5911,-12.94286 16.2805,-15.77933 z m 5.6111,1.48498 c 0.044,0.003 0.097,0.0102 0.161,0.0233 0.6816,1.00742 -0.8163,-0.0594 -0.161,-0.0233 z"
       id="path912"
       inkscape:connector-curvature="0"
       sodipodi:nodetypes="ccccccccscccccccccccccccccccccccccccccccccccccccccccccccc"
       inkscape:label="Kontur_Vorderhaar" />
  </g>
</svg>
