<svg xmlns="http://www.w3.org/2000/svg" width="1278.714" height="1568.173" viewBox="0 0 338.326 414.913">
  <path fill="none" d="M0 .651h337.155v414.262H0z" paint-order="stroke fill markers"/>
  <path class="hair" fill="#3b2516" d="M157.04 44.537c17.613-.871 31.447-.219 44.603 3.4 8.98 5.156 16.975 12.477 24.334 20.152 13.86 19.749 24.687 42.57 29.22 67.316 4.726 14.21-.884 37.39 6.432 50.818 1.645 7.45-2.727 12.089-2.998 19.751-.166 4.718 2.924 12.656 4.873 16.935.951 5.195 3.483 17.893-8.258 20.584-1.572 3.572 8.48 7.493 7.293 15.28-.88 3.89-1.695 4.188-8.76 5.388.406-4.143-8.717-.29-14.237-1.177-3.85 3.512-12.425 13.323-17.223 1.991-8.187-11.016 9.157-7.184 6.84-16.775-9.443-6.573-15.887-23.981-7.865-33.624 5.408-3.357 11.072-9.068 12.152-15.749 1.21-7.49-2.55-16.028-3.306-20.476 3.93-11.954 1.587-20.414 2.595-33.21-3.68-14.656-4.633-31.76-10.584-45.546-5.708-11.538-12.07-24.628-23.982-30.202-9.048 1.873-28.3-3.066-31.15-4.347-10.808 2.577-17.479-.498-24.52 4.84-17.63 13.7-18.684 20.597-29.145 47.009-4.712 13.904-9.945 34.355-8.435 42.268-1.021 10.247 6.402 18.005 4.263 28.702-7.474 5.984 11.159 15.916 12.081 30.74.355 5.714-5.193 12.9-6.844 19.46 7.748 9.366 15.987 24.756 3.629 30.295-1.385.675-6.778 4.166-8.311 3.872-5.463-5.9-10.669-6.014-17.806-4.902 1.766-5.338-2.93-6.069-6.885-10.492-6.902-5.591.63-13.481 1.81-18.176-3.943-5.525-4.128-6.756-3.425-23.897-5.921-9.041 2.052-15.684.89-24.044-5.766-10.054 2.12-20.33.16-31.068-2.872-18.913 2.788-37.592 9.398-54.76 8.31-18.121 15.709-27.21 32.213-44.453 7.83-6.5 21.175-15.758 30.947-15.903z"/>
  <path d="M158.315 42.852c3.258-.048 16.95-1.09 20.225.216 7.125 1.766 13.117-.464 23.103 4.87 8.98 5.155 16.975 12.476 24.334 20.151 13.86 19.749 24.687 42.57 29.22 67.316 4.726 14.21.272 32.931 5.848 47.17 4.495 11.477-5.73 21.488-.614 32.717 7.633 8.336 6.556 25.51-5.185 28.201-1.572 3.572 8.575 7.351 8.143 13.155-.88 9.18-3.301 7.021-10.366 8.222 1.92-2.656-3.337-3.012-7.499-1.892-4.111 1.106-7.118 3.683-6.984 2.11-1.58 4.047-10.148 11.286-16.75-.113-8.187-11.016 9.157-7.184 6.839-16.775-9.442-6.573-15.887-24.926-7.864-34.57 8.963-7.861 14.95-14.846 11.532-24.852-.782-2.292-3.368-3.924-2.465-12.442 3.93-11.954 1.895-18.399 2.903-31.195-3.68-14.656-5.011-30.325-10.962-44.112-5.708-11.538-11.692-26.062-23.604-31.636-9.048 1.873-16.809-.397-25.093-1.665-2.37-.362-5.304-2.144-6.987-1.692-6.243 1.679-18.29-.2-23.041 4.614-14.466 14.657-21.245 23.532-24.374 33.551-4.819 15.432-9.476 26.442-12.102 39.077-.56 2.69-1.026 5.454-1.383 8.35-1.021 10.246 6.132 25.54 3.993 36.237-7.215 8.773 10.116 13.642 11.152 23.147 5.527 11.814-3.358 17.655-5.607 26.796 10.808 9.935 14.61 26.483 2.252 32.022-1.385.675-5.71 2.696-7.242 2.402-5.463-5.9-10.669-6.014-17.806-4.902 1.766-5.338-2.93-6.069-6.885-10.492-6.902-5.591-.172-12.612 1.009-17.307-.336-2.313-3.445-2.41-3.964-10.047-.668-9.832 1.786-5.496.338-15.186-5.922-9.042 3.054-15.217 1.892-23.577-5.766-10.054 2.12-20.33.16-31.068-2.872-18.913 2.788-37.592 9.398-54.76 6.851-22.961 22.272-37.5 39.323-51.695 7.83-6.5 15.341-10.201 25.113-10.346zm.383 2.956c-16.719.65-30.268 12.9-41.585 25.853-18.696 20.612-27.463 46.091-31.902 74.32-.263 2.967 1.029 18.922 2.553 13.936.464-12.15 2.269-.764.826 4.604-3.644 9.577-8.51 25.986 4.68 29.699 3.627-1.146-8.474-12.868-2.406-19.183 6.41-10.908.867 1.138.428 6.53 2.591 11.329 6.22-3.015 5.63-7.658 1.392 2.566-2.86 14.545 4.121 7.461.805-6.857 4.812-1.747 1.501 1.503-7.498 2.067-10.293 14.595.33 10.385 10.214-8.156 3.494-19.277 1.725-28.748-.169-3.68-1.667-9-.67-16.34 1.71-12.57 8.453-34.45 13.685-46.034 6.152-13.62 9.706-18.61 22.721-31.099 5.543-5.32 16.465-7.148 26.529-6.474 1.5.1 4.43 1.248 5.934 1.402 10.077 1.033 18.474 1.96 23.148.856 12.655 1.692 22.25 19.265 26.931 30.186 7.744 13.754 6.142 27.438 10.762 42.703 3.542 11.61 12.31 23.762 6.361 36.346-2.32 2.453-6.504 6.787-6.228 7.4.925 2.055 16.151-7.687 13.65-13.747-3.87-9.392-1.964-20.355-6.085-29.743 2.658 3.946 7.755 14.457 10.132 21.643.482-6.81.716-21.466-2.868-30.488 4.718 7.675 4.83 17.378 4.73 26.333.058 5.585 3.03 15.622 3.345 14.01.538-2.755-.617-21.563-1.123-24.702-1.474-18.51-8.507-36.295-16.517-52.475-10.029-19.392-23.828-38.11-43.085-46.29-5.212-1.022-13.533-2.462-16.704-2.26-3.384.214-13.63-.199-20.55.07zm18.933 1.395c-1.108-.147-13.4 10.202-10.62 15.06 2.278 1.164 2.605-4.247 4.282-5.686 2.293-3.179 6.771-9.316 6.338-9.374zm-7.469 12.555c-112.588 228.398-56.294 114.2 0 0zm-59.147 51.944c1.205 1.564-6.283 15.677-6.517 22.834l-.452 2.132c-1.208-1.418 2.645-19.14 6.969-24.966zm125.14 39.897c-4.147.216 1.187 13.032-4.696 25.038-1.26 2.44-.165 6.943.384 7.541.559.61 1.661-2.452 1.833-2.617 12.82-12.288 3.895-27.049 2.65-29.655-.047-.219-.106-.316-.172-.307zM246.713 154c-1.754 9.17 1.983 16.496 6.674 25.385.63 1.195 3.001 3.018 3.416 5.228 1.112 5.918.625 17.431 3.094 12.46l.77-5.63c1.698-12.398-10.064-27.732-13.954-37.443zm-151.17 5.147c1.08-.162 4.444 11.512 6.353 15.09-5.66-1.385-5.745-9.51-6.61-14.637.058-.292.145-.436.257-.453zm153.477 16.775c-2.888.086-7.355 6.186-3.505 9.95l1.189 1.781c2.754 9.035 4.641-2.144 4.13-5.715.777-4.456-.302-6.06-1.814-6.016zm-7.371 5.976c-11.096 5.02-4.35 19.715-11.062 26.693.737 3.61 9.762-4.78 10.687-5.503 8.07-5.733 3.061-13.99.375-21.19zm12.64 1.08c-2.06.222-4.925 17.335-11.81 21.16 4.411 1.035 17.874-11.94 11.81-21.16zM88.481 195.572c-3.158-.047-8.799 10.566-5.099 15.41 2.03 2.663 4.22-2.244 5.837-3.216 6.762.523 6.418-11.682.136-5.806-2.41 10.481-3.938.851.99-2.877-.163-2.484-.897-3.497-1.864-3.511zm8.547.957c-.884.065-1.562.666-1.857 1.976 11.347 11.66-9.779 23.57-4.276 35.073.957.437 4.052 2.424 5.828 4.95 1.685 2.397 2.077 5.413 2.185 3.224.167-3.366 5.571-8.462 6.358-14.147.732-5.284 4.193-10.484 4.836-12.921.871-1.608 2.239-8.517 1.665-10.488 7.366 5.298 5.882 15.077 7.23 21.312 1.644 2.146 1.947-6.67 1.934-7.437-.662-9.443-8.695-17.379-15.717-22.547.06 2.099 5.648 5.948 6.586 8.488-1.951-3.916-12.503-7.652-14.772-7.483zm159.144 1.318c-1.963-.135-5.937 4.197-4.805 8.6-.014 6.65 4.116-.542 4.63-2.584 1.807-4.247 1.353-5.935.175-6.016zm-8.453 7.202c-3.61-.07-3.42 12.205 2.444 12.992 9.546 10.813-2.016-8.503-.67-12.137-.666-.583-1.259-.845-1.774-.855zm-152.173 1.379c-.106.07-.125.714.038 2.342 1.813 4.447.338-2.597-.038-2.342zm146.814 2.415c-11.18 6.854-1 22.124 8.422 23.105 1.009.439 1.302 1.812 1.834 2.693 6.535-8.158-8.584-16.84-10.256-25.798zm13.296.026c-.446.004-.958.234-1.557.748 2.49 3.78-1.704 26.423 6.891 18.157 5.147 2.17-9.16 7.319-9.25 12.576 9.346 2.992 14.335-9.264 10.352-18.23-3.473-2.228-3.32-13.277-6.436-13.25zm-161.738.553c-8.173.187-14.774 18.906-7.717 27.094l.995.247 1.32.353c-3.906-8.83 7.915-20.035 6.197-27.653a5.384 5.384 0 0 0-.795-.041zm140.573.368c-1.861 1.12-2.753 1.37-3.508 2.74 2.82.28 3.37 2.311 4.324 4.032.95-.692 5.334-9.696 4.469-10.555-1.575.779-3.5 2.708-5.285 3.783zm-122.443 5.138c-.96-.164-3.753 7.328-4.58 10.858 2.458-.518 3.646-3.382 4.529-5.682.534-3.673.456-5.107.05-5.176zm120.853.578c-.276.069-.309 1.392.166 4.898 4.898 10.6.817-5.145-.166-4.898zm-2.373-.142c-.958-1.8-.59-5.128-2.235-5.183-1.686-.056-5.383 3.2-6.055 4.534-8.731 9.577.018 26.755 8.83 33.404 7.27 5.319-.39 20.096-4.932 13.76 8.529 3.025 6.957-16.802 2.823-5.697-7.518-1.956-9.186 9.721-1.664 12.56 1.698.975 3.402 1.086 5.2.18 7.575-8.375-.2-23.083-4.017-31.846-6.235-3.865 3.245-19.466 2.05-21.712zm-115.835-3.919c.968 16.86-14.813 21.71-14.818 31.797 2.082-.522 5.95-2.51 7.867-3.526 8.767-2.45 14.39-20.436 6.95-28.27zm116.81 9.737c-1.865-.256-2.976 7.134-2.816 10.983 1.637 6.26 8.5-3.682 5.32-6.5-.93-3.112-1.775-4.383-2.505-4.483zm9.198 7.39c-6.497.673-12.728 10.12-6.56 17.123 1.938 3.52 2.006-6.541 3.69-7.16 5.394-1.005 11.145-7.314 2.87-9.963zm8.206 5.754c-2.506-.055-9.592 5.861-11.118 8.665-.507 2.981 9.395-2.153 11.17-4.036 1.389-3.345 1.087-4.604-.052-4.63zm-158.864.274c-.63-.061-.243.742 2.493 3.26 7.367 2.709-.882-3.101-2.493-3.26zm2.145 6.813c-3.546.01-8.96 2.954-8.665 8.123.134 5.776 11.695-2.877 14.213-2.487 3.07-3.877-2.79-5.644-5.548-5.636zm20.961-.607c-.747.016-5.835.909-6.576 1.236-8.971 9.68 8.625 9.474 13.94 10.372.617 1.073 3.344 1.68 2.404-.56-3.607-3.623-4.538-11.16-9.768-11.048zm135.527 1.745c-13.461 5.725 9.002 10.215 6.023 19.107 2.828 2.937 6.168 1.486 6.625-2.266.94-9.136-7.61-11.266-12.648-16.841zm-8.46 5.12c-2.995-.143-3.105 12.375.772 15.46 1.36 1.082 3.815-3.692 6.07-2.88 13.805 4.977.443-6.404-2.927-9.179-1.683-2.382-2.98-3.355-3.914-3.4zm-141.035 1.365c-3.874-.038-3.765 8.793-2.307 11.851 5.352 2.327 4.068-9.317 3.785-11.537-.589-.21-1.078-.31-1.478-.314zm135.669.67a1.432 1.432 0 0 0-.327.03c-.29 3.006 1.725.029.327-.03zm-139.495 1.366c-7.676 1.254-4.369 9.578-.405 10.663 1.88-3.476-3.576-5.845.405-10.663zm11.97 1.9c-.268.02-1.618-.982-3.077-2.73-4.1-4.613-1.006 8.022-2.412 11.907-.742 2.568 6.229-.937 6.003-2.402 5.382-1.228.287-6.837-.515-6.775zm7.227.808c.001 1.12-6.09 10.187-12.15 10.487 3.555 3.384 11.012-1.675 12.086-5.155.195-3.631.87-5.325.064-5.332zm5.613 1.674c-2.23 1.016-4.676 6.738-13.56 13.817 7.247 5.972 22.833-8.98 13.56-13.817zm116.904 1.772c-1.05 3.631.934.098 0 0zm-138.785 5.279c-.147-.046-.473.372-1.07 1.62-.166 4.63 1.594-1.455 1.07-1.62z"/>
</svg>
