<?xml version="1.0" encoding="UTF-8" standalone="no"?>
<!-- Created with Inkscape (http://www.inkscape.org/) -->

<svg
   xmlns:dc="http://purl.org/dc/elements/1.1/"
   xmlns:cc="http://creativecommons.org/ns#"
   xmlns:rdf="http://www.w3.org/1999/02/22-rdf-syntax-ns#"
   xmlns:svg="http://www.w3.org/2000/svg"
   xmlns="http://www.w3.org/2000/svg"
   xmlns:sodipodi="http://sodipodi.sourceforge.net/DTD/sodipodi-0.dtd"
   xmlns:inkscape="http://www.inkscape.org/namespaces/inkscape"
   version="1.1"
   id="svg2"
   width="1274.2856"
   height="1565.7144"
   viewBox="0 0 1274.2856 1565.7144"
   sodipodi:docname="Fronthair05.svg"
   inkscape:version="0.92.3 (2405546, 2018-03-11)">
  <metadata
     id="metadata8">
    <rdf:RDF>
      <cc:Work
         rdf:about="">
        <dc:format>image/svg+xml</dc:format>
        <dc:type
           rdf:resource="http://purl.org/dc/dcmitype/StillImage" />
        <dc:title></dc:title>
      </cc:Work>
    </rdf:RDF>
  </metadata>
  <defs
     id="defs6" />
  <sodipodi:namedview
     pagecolor="#ffffff"
     bordercolor="#666666"
     borderopacity="1"
     objecttolerance="10"
     gridtolerance="10"
     guidetolerance="10"
     inkscape:pageopacity="0"
     inkscape:pageshadow="2"
     inkscape:window-width="1920"
     inkscape:window-height="1001"
     id="namedview4"
     showgrid="false"
     inkscape:zoom="0.13037282"
     inkscape:cx="1917.0287"
     inkscape:cy="1220.0991"
     inkscape:window-x="-9"
     inkscape:window-y="-9"
     inkscape:window-maximized="1"
     inkscape:current-layer="svg2"
     fit-margin-top="0"
     fit-margin-left="0"
     fit-margin-right="0"
     fit-margin-bottom="0" />
  <rect
     style="display:inline;opacity:1;fill:none;fill-opacity:1;fill-rule:evenodd;stroke:none;stroke-width:3.77952719;stroke-linecap:round;stroke-linejoin:miter;stroke-miterlimit:4;stroke-dasharray:none;stroke-dashoffset:0;stroke-opacity:1;paint-order:stroke fill markers"
     id="rect1307"
     width="1274.2856"
     height="1565.7144"
     x="0"
     y="0"
     inkscape:label="Frame" />
  <path
     style="display:inline;fill:#d38d5f;fill-opacity:1;stroke-width:3.77952743;enable-background:new"
     d="m 732.7623,120.704 c -4.4788,-0.0513 -9.1646,0.74734 -14.0992,2.62751 -23.0852,15.61501 -46.7909,12.79935 -72.4236,22.29101 -11.7889,1.01777 -25.4423,1.52336 -44.0262,12.60116 l -12.9603,5.48943 c -6.3916,-6.07691 -12.2708,-12.38046 -15.6434,-17.7573 -16.7487,0.0535 -35.7278,-4.2085 -54.2497,-4.18732 -11.113,0.0151 -22.0618,1.56784 -32.2656,6.52058 -24.3805,-2.39857 -36.3548,42.0263 -58.0648,20.76759 -1.853,2.49984 -2.9846,4.46345 -3.5428,6.01543 -0.092,0.0822 -0.1772,0.17336 -0.2429,0.28372 0,0 -6.6436,10.74195 -7.1661,23.37687 -0.2615,6.31745 1.041,13.17281 5.5244,19.24159 1.7911,2.42442 4.0887,4.71075 6.9622,6.79925 -8.6517,-2.34932 -17.9139,-3.6763 -27.2365,-3.80455 -18.1647,-0.24995 -36.544,4.01786 -51.0127,13.98392 -28.322,5.72296 -36.4473,54.62455 -65.8622,40.55603 13.6483,21.56662 -4.4146,25.58318 -13.7664,41.35028 -16.3498,19.00074 8.2129,55.54487 -12.9237,75.89603 -18.8946,21.5893 -23.5912,51.93779 -6.9135,76.11998 0.054,2.61726 -0.4829,8.20883 -5.1847,12.89027 -14.3977,3.61175 -29.7552,38.69716 -36.5881,54.80561 -21.1442,28.21008 3.4851,56.92865 2.4866,83.70314 21.0542,8.71783 5.1751,3.49254 -7.4599,21.33267 l 0.7115,1.17438 1.7023,0.0761 c 0.9467,-0.25449 1.8283,-0.53266 2.7101,-0.80987 l -4.5628,6.43981 c -9.7368,2.36964 -17.1851,8.5512 -20.4543,27.29607 -8.2211,19.09846 -11.1727,61.56034 17.4065,67.15415 7.8792,1.75638 10.5259,1.46889 10.2818,0.20561 0.1714,0.0505 0.3388,0.0892 0.5172,0.14817 2.5675,0.8522 5.6875,2.7964 8.0405,7.52842 l 0.4683,0.94264 c -0.4567,3.46893 -0.063,11.39043 -3.98,8.56479 -23.5068,23.93793 23.8201,40.24739 39.8347,39.94156 -3.7787,21.07972 -51.3553,6.0506 -53.9192,-18.18959 -15.8434,27.38263 28.049,32.29994 35.9787,47.44388 -17.005,24.05548 14.7501,63.12321 33.6473,61.40951 33.612,-10.53044 31.7368,39.48651 63.4093,41.33208 1.8425,4.80464 3.1307,-4.97442 6.2169,-1.33333 25.5009,9.9697 48.3996,-9.57864 68.657,-18.66604 13.181,-15.59682 38.5838,-7.21186 32.3944,-24.99923 16.1461,-22.54319 -23.1062,-24.35231 -10.289,-32.33236 24.9027,-6.11821 7.0032,-75.18737 -5.9908,-56.60502 -1.9312,-1.79325 -4.3606,-3.35213 -7.2267,-4.01544 -0.1594,-0.0354 -0.3262,-0.06 -0.4883,-0.0907 6.0378,-16.72908 4.4417,-36.65912 -7.9965,-44.6158 1.8782,-8.55188 -7.9837,-22.51504 -13.4338,-24.67883 0.057,-0.25599 0.038,-0.52464 -0.056,-0.76824 -2.4681,-6.43208 -6.8581,-10.40938 -10.9469,-13.10117 -1.0982,-0.72293 -2.1631,-1.34382 -3.1788,-1.91144 2.1961,-7.31054 -18.2241,-37.93867 -7.4746,-47.39173 11.4485,-24.44387 32.9948,-40.28296 32.2949,-70.07329 20.031,-17.93151 32.0221,-46.19853 33.2007,-74.07058 -0.8847,-27.94661 9.721,-51.68625 8.3657,-80.99749 -16.5359,-26.68424 12.712,-38.59587 5.3108,-66.99794 -15.6084,-13.99284 6.9972,-40.50873 22.4453,-58.96954 1.8747,-9.89644 13.3752,-32.07412 29.7743,-37.02748 19.6324,-7.58936 43.4658,-12.99396 57.846,-27.99911 5.183,-3.44638 9.7945,-6.89386 13.0014,-9.53356 0.2909,0.0302 0.5809,-0.0608 0.8136,-0.24992 l 2.8678,-2.26817 c 0.024,0.056 0.053,0.11083 0.071,0.16931 6.3903,-10.68589 22.8917,-16.38624 30.1434,-24.07497 3.8167,2.59715 14.4258,8.92277 28.9046,10.29133 3.3445,1.02824 7.8316,1.76236 13.0647,1.67186 36.4259,1.80303 53.4891,55.08712 59.6344,57.20363 15.8038,43.94595 61.3437,10.56517 74.6445,46.10301 12.0033,21.61016 24.7395,42.47502 26.4206,65.35994 12.2956,5.47833 20.2885,47.2521 17.1252,60.61359 1.518,21.72344 -6.9638,24.15488 1.2129,44.04368 -1.9124,26.13897 14.4006,60.26044 28.5964,70.6645 8.2343,22.97996 -1.8574,50.18844 21.1363,69.89367 -0.7131,13.51282 -15.9722,37.68375 -34.8128,48.76931 -17.4532,17.23022 -44.0174,31.24594 -44.7598,58.66481 -6.0395,20.35272 2.4025,47.08081 12.4334,58.66486 19.9578,4.22064 39.4591,39.65688 9.9466,31.99899 -9.122,-5.02824 -13.7203,-6.36196 -15.3084,-5.65611 -2.8678,0.31797 -13.6062,1.93969 -23.1401,8.83575 -3.4218,1.13812 -7.5628,4.42463 -11.8429,10.89539 8.0021,39.67003 20.5868,45.14096 54.486,49.48541 13.1194,0.28703 28.0169,7.60736 36.7903,6.24505 9.842,-3.66852 15.162,-16.65409 22.5792,-16.91941 12.8378,-0.45922 31.452,-13.05802 25.3316,-17.78718 2.9591,-16.45112 25.9614,-12.92128 39.1664,-28.43242 3.9233,-22.40943 3.3193,-24.24654 -13.7057,-57.16686 23.1212,14.99795 50.6397,0.87048 39.8155,-25.6066 17.1759,-16.03507 52.6785,-18.66036 63.9558,-48.9751 15.3953,-31.71515 -15.8503,-55.84149 -23.5478,-80.91147 28.9748,-3.35128 36.6128,-38.82562 6.8383,-52.66507 -18.189,-15.06724 -43.3963,-17.37102 -57.7732,-35.99889 7.1988,-18.74298 37.9546,-34.83622 37.8727,-62.58656 -4.629,-29.64705 -34.6288,-54.34564 -58.2005,-72.66188 -16.6909,-3.3376 -15.6462,-9.41814 -15.2609,-12.88216 7.6478,-0.15508 20.0894,-9.89278 24.6789,-24.57605 5.7043,-18.2496 2.2338,-43.03092 -3.0167,-53.56326 -20.4992,-9.52344 -26.2598,-44.48929 -41.6246,-44.07154 -24.5262,32.55326 -17.4099,-18.97472 -55.7677,-49.64862 -9.91,-29.8279 -39.2678,-49.37582 -66.5444,-58.66478 -18.4669,-14.18397 -36.599,-39.30733 -60.7844,-39.58473 z"
     id="path1319-8"
     inkscape:connector-curvature="0"
     sodipodi:nodetypes="cccccccccccccccccccccccccccccccccccccccccccccccccccccccccccccccccccccccccccccccccccscccccccccccscccccc"
     inkscape:label="Vorderhaar" />
  <path
     inkscape:connector-curvature="0"
     style="display:inline;fill:#000000;stroke-width:3.77952743;enable-background:new"
     d="m 519.3585,141.77311 c -11.113,0.0151 -22.0618,1.56786 -32.2656,6.52065 -24.3805,-2.39856 -36.3548,42.02625 -58.0646,20.76755 -12.1001,16.32295 6.3341,10.03285 17.0348,12.56469 24.2826,-13.78326 47.9506,-38.11163 78.3293,-33.33224 19.7482,-7.33387 62.9548,14.41734 55.5636,30.61359 -29.6813,-12.46785 -65.0296,-3.75423 -92.8631,12.05169 -25.8031,2.83198 -26.3524,56.82161 -14.133,26.83512 16.1758,-17.45689 29.0933,-33.19617 55.1626,-30.83499 30.558,-2.97921 44.0021,-13.38585 66.6731,2.11192 31.5953,10.62442 -26.2357,26.76091 -31.7872,35.2697 -5.6518,2.20205 -68.4679,2.86918 -35.697,7.8904 17.1785,5.27557 52.5134,-10.29208 56.7606,1.50519 7.0509,-12.54795 24.5065,-17.26114 32.3265,-26.77804 -12.5412,-11.8617 -3.507,-12.0034 0,-19.99939 -6.7049,-5.50396 -33.7485,-26.58298 -42.7903,-40.99865 -16.7487,0.0535 -35.7279,-4.20854 -54.2497,-4.18739 z m 170.8598,27.4054 c -2.1116,-0.0151 -1.1557,1.42448 8.2394,5.78105 11.0005,-0.43489 -4.2083,-5.75535 -8.2394,-5.78105 z m 104.6651,6.53367 c 19.4534,-0.58491 14.7576,17.81448 35.3665,23.86901 -13.2881,-1.11958 -32.1998,-9.27322 -37.3263,-23.75186 0.6794,-0.0594 1.3321,-0.0983 1.9598,-0.11746 z m -174.2135,7.81483 c -1.4275,0.14966 -1.2775,1.41233 3.1885,4.76549 10.7309,-0.0402 -0.048,-5.09522 -3.1885,-4.76549 z m 22.8947,1.12494 c -0.8679,0.0543 0.033,0.99097 5.1603,3.64055 7.2094,0.39254 -3.2514,-3.76077 -5.1603,-3.64055 z m 175.4955,194.30122 c 4.28,-30.52855 -29.3687,-64.36097 -30.566,-78.99751 31.1818,5.58082 -9.9369,-8.13269 8.8369,-17.63488 16.361,-18.32193 26.7652,-48.3132 16.5495,-74.23466 -4.6271,14.3612 -4.2695,62.29675 -33.3634,72.2035 -17.7279,5.57469 -38.8625,-3.44899 -52.2195,-19.27025 -14.8204,-6.6948 14.4004,39.55595 34.8129,37.9363 -1.474,8.98442 -40.0489,-9.928 -42.273,-31.50945 -7.867,-15.21338 -14.1254,-46.44657 -28.0161,-45.11052 6.6318,-8.59318 -14.8692,-19.08435 -33.0765,-30.04333 -0.2507,-0.18142 -0.4471,-0.25449 -0.6023,-0.23684 v -1.6e-4 c -2.3287,0.26204 4.6944,20.97735 -19.7451,4.83839 -12.8262,-5.20076 16.678,20.90377 23.3148,11.77307 16.2374,-8.58545 11.4263,20.58725 -11.5009,6.29144 -24.0722,-3.74865 -14.337,7.0006 4.9733,6.66649 36.4258,1.80302 43.9977,37.46001 59.9734,63.30532 23.9395,45.30189 53.7795,13.2148 66.7416,28.75266 12.0034,21.61009 26.3108,43.65642 27.9922,66.54132 l 11.659,17.99434 c 7.2305,9.18243 11.5322,36.40706 7.7306,51.33153 1.5181,21.7235 -3.2349,25.51076 4.9419,45.39962 -1.9126,26.13902 14.4006,60.26044 28.5964,70.66449 8.2343,22.97998 -1.8575,50.18845 21.1363,69.89363 -0.7133,13.51281 -15.9723,37.68388 -34.8129,48.76936 -17.4532,17.23022 -44.0175,31.24589 -44.7597,58.66481 -6.0396,20.35272 2.4023,47.08081 12.4332,58.66486 19.958,4.22068 39.4591,39.65693 9.9466,31.99899 -35.9722,-11.6542 -5.613,13.50071 9.9466,13.3329 13.7308,-10.33845 45.5692,3.11882 40.1917,-34.56402 1.0774,-14.34498 -4.6113,-47.53756 24.3882,-41.39713 2.3264,-11.20792 16.7637,9.21558 2.5595,23.66853 -25.9629,20.73854 11.1295,58.34364 11.1505,67.94048 0.6212,6.46899 0.3373,12.5264 -10.3247,16.63901 -4.36,1.68178 -16.878,-4.73717 -20.3644,1.92823 -8.7884,16.80168 -35.5258,21.37806 -45.9737,13.05428 4.2881,-14.80135 -34.2648,10.03667 -18.9244,-17.1297 15.9346,-31.18346 -4.5931,-15.22734 -15.663,-0.24994 20.2999,34.95441 -31.5512,-0.59603 -19.2592,-19.98376 12.6433,-5.59422 26.0068,-22.87673 22.3005,-26.6798 -3.263,-3.3481 -22.3733,5.50343 -30.3192,17.51605 -17.3785,10.92935 2.4978,33.43425 -0.9562,40.11299 15.5832,19.00531 17.635,4.72839 53.2636,12.26225 45.6469,12.89806 57.8583,1.60725 59.2823,-11.42578 5.1804,0.22104 34.5917,-0.16221 36.467,-23.04172 5.1162,-17.64992 12.9946,-1.61737 29.3383,-21.72089 6.4956,-7.98985 15.199,-14.14701 -6.0354,-52.13321 23.1212,14.99796 43.9282,-7.75882 33.1041,-34.23575 17.1757,-16.03538 52.6784,-18.6603 63.9557,-48.975 15.3953,-31.71518 -15.8504,-55.84159 -23.5478,-80.91157 28.9749,-3.35123 36.6127,-38.82557 6.8383,-52.66503 -18.189,-15.0672 -43.3962,-17.37101 -57.7732,-35.99887 7.1988,-18.74299 37.9544,-34.83622 37.8727,-62.58657 -4.629,-29.64711 -16.3237,-39.09142 -39.8956,-57.40759 -14.3179,-9.77838 -19.3748,-26.02829 -1.7013,-52.20423 4.6888,-18.80455 -0.4206,-40.31726 -9.8956,-59.3237 -20.4992,-9.52344 -26.2599,-44.48929 -41.6246,-44.0715 -24.5263,32.55328 -17.2372,-29.30283 -56.0743,-44.39644 -9.91,-29.82785 -39.2679,-49.37581 -66.5445,-58.66483 -18.467,-14.18397 -36.599,-39.30737 -60.7844,-39.58473 -4.4787,-0.0513 -9.1645,0.74736 -14.0991,2.62749 -23.0852,15.61502 -46.7911,12.79936 -72.4235,22.29101 -11.8132,1.01989 -25.4958,1.52244 -44.1379,12.66627 -13.3858,23.46487 51.0921,-16.77584 22.2704,10.70796 2.0239,12.51588 30.7267,-22.13115 52.5061,-17.16351 24.8963,-0.24237 46.8935,-33.34848 76.2872,-16.87706 13.219,5.09319 43.6319,35.25849 29.8397,40.29306 -20.7643,-35.61356 -8.9467,1.1471 -2.4866,19.59569 17.2592,25.46465 -47.1985,31.49337 -12.4333,33.44169 -15.4214,3.97745 -44.0991,3.36539 -17.8315,7.66903 25.0397,10.71219 38.6656,-28.76062 40.2114,-37.00149 -12.5961,-34.00341 17.4748,3.97871 27.455,3.99987 31.7061,13.49321 23.9666,55.69328 15.4396,81.99747 14.346,-11.99004 11.3181,-40.95736 11.8116,-59.33148 15.5355,-14.49364 45.8737,29.63935 46.5575,44.89118 21.0219,14.47106 18.1377,50.6966 -6.1024,24.23621 -18.4444,11.31442 52.2,43.23623 34.4293,-0.90364 -19.1645,-27.86815 25.901,7.64252 23.0378,17.6948 5.2395,14.20931 -1.948,51.59523 -23.8974,33.87393 -32.1946,-13.89522 13.8576,25.37117 25.8305,4.28374 14.8346,-32.56248 19.5876,6.19336 10.8033,20.21672 -5.9854,8.51907 -17.8008,17.21726 -22.3076,18.62075 -5.0693,1.57869 -8.722,-9.94672 -14.6595,-8.83657 -20.1308,3.76389 -43.146,4.70247 -54.7673,1.91802 -18.8453,-10.05475 -37.0095,-36.02877 -39.75,-55.54256 3.1823,-46.12762 -18.3309,0.74303 -2.7973,20.87694 11.908,27.97262 35.7385,47.8944 64.6526,50.66511 19.6973,1.60101 55.1474,-6.29641 58.2005,11.68331 11.8261,6.85811 29.2358,22.80445 44.9954,49.94239 15.0666,28.12249 -17.6731,50.08549 -32.3264,67.59423 -3.3381,25.2329 35.1471,43.86405 36.0563,60.10749 13.3658,11.71678 -22.7263,21.64119 -18.9242,26.66584 21.9455,11.88166 46.9254,21.6458 54.9806,49.62609 10.5565,26.39855 1.2183,60.79934 -27.3531,69.03691 -29.1053,11.59462 -52.4192,2.19518 -67.1393,-28.53298 -4.5127,17.21917 -24.5079,47.0744 -48.4898,51.19889 4.566,3.6297 -26.3245,41.27097 -25.3835,14.58551 0.4651,-21.52672 11.8783,-14.11096 36.5735,-26.58512 33.2739,-28.92116 -5.7378,-3.87007 -22.3798,1.33331 -20.3366,6.80525 -31.3348,35.75327 -17.4066,53.33167 19.5381,14.75909 6.4868,51.54717 -9.9466,22.66596 -11.2947,-17.75566 -36.6125,-34.44937 -33.5696,-57.43311 0.07,-28.95315 26.3012,-47.51529 46.9597,-63.11262 21.5278,-8.10104 23.462,-17.05178 36.7412,-23.78831 22.3403,-31.43814 -2.2631,-55.33837 -21.5349,-78.32569 -1.0724,-52.97927 18.8393,-2.70042 36.6829,15.32761 18.1123,25.05501 51.5049,30.86262 68.9997,55.33687 21.5284,37.96145 -25.2642,46.87666 -34.8131,15.42916 -18.8906,14.11993 25.0728,48.67225 49.1112,27.90278 13.4222,-26.71186 12.6291,-60.8418 -12.3435,-79.33081 -2.2289,-16.58688 -54.7593,-34.81654 -43.6933,-26.66586 15.1136,2.45229 56.3079,47.25163 31.7922,34.66559 -28.5578,-12.79032 -53.6124,-28.96005 -71.666,-57.18055 -19.2026,-19.27594 36.4396,-69.04045 2.1442,-44.14966 -6.1696,-8.11297 43.3051,-20.15362 45.8986,-42.66529 7.2078,-27.45972 -6.8104,-53.36638 -26.1098,-69.39631 -24.568,-23.10454 -12.883,5.72934 2.4867,19.02544 17.2778,18.54097 8.7764,43.07373 -6.2168,55.70403 0.282,11.86356 -9.1057,-80.65816 -8.7032,-37.33216 16.7717,37.50676 -19.4097,55.96574 -31.083,82.66404 6.3978,46.14912 -13.1023,-2.91245 -28.5964,-19.24419 -6.1095,-14.50227 -17.6295,-40.93394 3.4284,-56.37115 4.864,-3.5657 14.4972,-5.1898 18.4295,-8.81366 32.8221,-30.24778 16.5534,-22.17756 -1.6446,-9.60513 -8.679,5.99599 -18.1157,11.13685 -27.71,4.02342 -6.8214,-5.05754 -3.6255,-31.77822 -4.9366,-36.65196 -1.9306,-17.49194 -7.1531,-32.13079 -18.6498,-41.33209 z M 436.3084,192.23225 c -0.3449,-0.12947 -0.8223,1.62398 -1.4352,6.72634 2.1885,18.22269 2.6662,-6.26366 1.4352,-6.72634 z m 191.9913,6.76281 c -1.5003,0.0892 -3.7649,1.1684 -6.928,3.96341 7.9082,8.03874 12.2865,-4.28122 6.928,-3.96341 z m -224.9733,21.97849 c -18.1645,-0.24995 -36.5437,4.01792 -51.0127,13.98392 -28.3219,5.72297 -36.4475,54.62456 -65.862,40.55604 13.6484,21.56662 -4.4147,25.58317 -13.7664,41.35027 -16.3498,19.00075 8.2127,55.54486 -12.9237,75.89603 -19.0862,21.80816 -23.6987,52.55774 -6.4133,76.85701 0.5387,6.92994 10.7286,-1.71433 7.4184,-5.76026 -8.2217,-17.21138 -17.3509,-27.33359 -6.248,-46.7381 15.3149,-18.93116 21.3033,-45.5508 48.5623,-52.83166 9.2041,-13.48408 22.4468,-1.89736 17.4066,-10.66635 2.9875,-24.59253 -2.5066,-50.02462 7.4601,-65.86513 29.1613,-39.097 -8.903,-3.11782 -14.9199,15.20001 2.7908,22.01196 -20.9036,39.67722 -27.3532,15.1766 22.1765,-22.73747 27.9147,-51.43729 60.1773,-69.84151 19.4645,-10.40593 30.0487,-17.71224 51.2505,-15.60373 11.2334,4.44611 49.7988,-2.94093 42.7443,6.27065 17.89,12.02543 18.6494,-6.53889 8.2272,-7.57787 -12.8596,-6.44792 -28.7199,-10.18547 -44.7475,-10.40592 z m 174.9321,15.31201 c -1.733,-0.079 -8.2775,2.90404 -13.3925,6.06231 -13.6192,13.1836 -29.4973,14.51596 -46.69,23.97319 -19.1613,-7.33016 24.5259,-28.4793 38.7784,-28.69699 -2.8758,-2.1209 -28.0548,3.64198 -42.7173,7.22632 -2.208,26.81806 -19.2262,-10.8258 -19.6845,16.15053 -7.5682,30.40716 -28.0005,7.75912 -27.841,-7.87735 -4.5397,6.00493 -18.3533,16.80301 -11.9451,16.49949 -0.3393,-1.59596 42.1281,12.16548 19.1816,17.90569 4.7967,25.26455 -34.3818,47.51006 -50.2648,70.09157 -17.6615,1.83362 -20.6267,61.79839 -8.7032,31.999 15.1384,9.06112 15.475,-21.96432 24.1915,-40.72268 6.5231,2.06259 16.3694,52.88659 -9.9346,64.01101 -10.7989,15.40886 9.7732,29.76683 -4.3102,50.81351 -27.5082,30.70301 6.1236,13.42174 8.7032,-7.43723 13.9585,-29.60683 0.1093,9.89042 5.5948,13.99954 -3.9789,31.65789 -41.6236,37.80124 -67.761,31.33237 -45.7653,-12.89076 8.8708,19.0651 27.9748,10.29653 30.499,-21.70386 47.0239,10.54046 30.4614,36.55358 0.8229,18.01836 -18.7249,14.73889 -32.3265,27.81424 -23.1634,17.16956 -40.9573,11.84311 -61.7774,-6.38261 -17.967,-21.86182 2.4299,-44.40889 16.5371,-58.17792 -19.0258,-7.02195 -40.0265,34.03977 -26.8723,53.25617 16.7432,16.98406 27.9531,35.9559 44.3348,30.97038 21.7596,-2.53214 43.2488,4.11069 20.9056,28.33249 -21.2356,17.38276 -41.7802,67.03151 -11.7775,85.33066 20.8909,8.74469 -14.26,-36.0511 -0.8427,-47.85012 11.4485,-24.44394 32.9947,-40.283 32.2949,-70.07331 20.031,-17.93159 32.0221,-46.1985 33.2007,-74.07059 -0.8846,-27.94656 9.721,-51.68625 8.3656,-80.99748 -16.5359,-26.68421 12.7121,-38.59584 5.3107,-66.99792 -15.6083,-13.99282 6.9975,-40.50876 22.4455,-58.96952 1.8747,-9.89651 13.3752,-32.07414 29.774,-37.02748 19.6328,-7.58935 43.4659,-12.99396 57.8463,-27.99912 10.2511,-6.81654 12.4689,-9.26864 10.9397,-9.33826 z m -111.5469,16.83801 c 1.4744,-1.95027 1.9853,-3.40177 0.4882,-3.79418 -0.3301,1.18781 -0.4746,2.46906 -0.4882,3.79418 z m 240.9156,6.63525 c 0.9901,-0.0402 2.8816,2.41512 5.7504,9.86424 -5.7436,2.37962 -7.9287,-9.77832 -5.7504,-9.86424 z m 109.3906,4.86701 c -0.5604,0.0504 -1.1528,0.69974 -1.6877,2.33064 5.9527,8.51803 4.116,-2.54692 1.6877,-2.33064 z m -384.1406,6.31227 c -5.5763,-0.56287 -35.4432,12.2209 -33.8757,17.87968 7.1932,2.63566 17.8959,-6.96177 25.9253,-9.86169 8.5947,-5.53365 10.1325,-7.79773 7.9504,-8.01799 z m -62.2657,45.59495 c -4.8147,-0.19249 -26.9291,39.71409 -24.014,51.75363 -12.971,8.86231 -22.9726,42.98962 -7.0911,25.98354 -5.2764,-47.28768 21.0764,26.39161 5.7772,8.82003 4.4071,13.04617 26.1776,30.86371 47.3167,38.52745 4.0036,4.04831 25.1501,-0.86936 20.6023,-7.42684 -29.9356,3.47161 -51.7201,-24.58829 -60.3887,-49.90468 6.6254,-20.08193 2.3719,-40.31916 17.4068,-58.66487 1.7217,-6.38577 1.618,-9.03917 0.3908,-9.08826 z m 580.7152,2.15818 c 0.3445,-0.12948 0.8249,1.62398 1.4377,6.72632 -2.1883,18.22275 -2.6687,-6.26364 -1.4377,-6.72632 z m -646.4972,17.10944 c 5.0671,-0.10333 5.7953,4.14475 3.934,14.58289 -4.6942,7.70445 -46.3093,-24.06603 -18.1156,-10.09602 6.5396,-2.79822 11.1415,-4.42497 14.1816,-4.48687 z m -9.949,16.0125 c 1.772,0.12148 3.8442,1.47222 5.7139,5.04673 -13.6447,5.26654 -11.0297,-5.41159 -5.7139,-5.04673 z m -17.8849,8.37734 c 3.8953,0.0302 9.7431,7.38855 1.2189,12.09604 l -1.2431,1.33327 c -4.3927,-10.03947 -2.6411,-13.44967 0.024,-13.42931 z m 149.2206,7.29932 c 0.7135,0.10344 0.618,1.72714 -1.2894,6.12999 -10.2843,6.9318 -0.8514,-6.44047 1.2894,-6.12999 z m -100.0389,2.14055 c -3.682,-0.14312 -6.7744,2.37729 1.7704,7.98931 6.1831,-5.03971 1.9117,-7.84625 -1.7704,-7.98931 z m -27.7756,25.81428 c -1.8218,0.33511 -8.423,7.85234 -12.7271,18.46816 1.621,7.6963 3.1132,-5.60668 4.9733,-4.29412 7.6965,-10.34999 9.1706,-14.43457 7.7538,-14.17404 z m 29.546,18.1739 c -4.7771,20.77059 -15.9226,32.00125 -34.8133,44.60537 18.203,-5.2945 45.4378,-19.3143 34.8133,-44.60537 z m -44.1212,5.98942 c -1.1816,-0.30487 -3.125,2.73293 -5.612,12.67671 7.1216,4.85236 8.2118,-12.00558 5.612,-12.67671 z m 131.3454,2.28641 c -1.6927,0.13958 -3.6656,1.81618 -5.165,6.39042 11.9793,2.94174 9.491,-6.7466 5.165,-6.39042 z m 420.9043,36.54908 c 0.3557,-0.077 8.7609,5.48859 9.3939,8.52153 -1.1833,5.67134 -9.17,19.33608 -11.0759,15.49882 -1.7343,-3.49181 1.0763,-23.88932 1.682,-24.02035 z m -586.3195,23.00372 c -14.9762,0.45051 -31.5163,38.23694 -38.6816,55.12848 -21.1439,28.21009 3.4853,56.92864 2.4868,83.70315 21.0542,8.71789 5.175,3.49257 -7.4599,21.33266 l 0.7114,1.17443 1.7023,0.0756 c 40.5324,-10.8951 20.6523,-42.92408 4.6163,-67.55014 -0.5019,-4.19117 24.5831,30.4663 8.2224,-4.03107 -2.0482,-31.30808 6.0003,-73.39273 37.4285,-84.76823 -2.8756,-3.64392 -5.9181,-5.15841 -9.0262,-5.06497 z m 107.9408,3.60667 c -6.8624,0.0811 -9.4985,1.9735 2.5765,7.22895 l 2.7975,0.95826 7.1492,0.37492 c 29.0775,-2.26936 0.5776,-8.71744 -12.5232,-8.56223 z m 41.8843,0.48426 c -1.1521,0.0796 -2.6511,0.48378 -4.4947,1.41144 7.9893,4.02013 9.4882,-1.75693 4.4947,-1.41144 z m -121.1365,2.06764 c -1.0386,0.13306 -2.7665,1.85661 -5.2039,6.58313 6.0115,3.12825 7.8584,-6.92236 5.2039,-6.58313 z m -15.9179,3.29418 c -0.8077,-0.0202 -2.2299,1.65358 -4.2058,6.71592 4.7893,1.57189 5.9828,-6.67258 4.2058,-6.71592 z m 51.7436,0.0505 c -22.3455,18.10218 -61.5008,45.77632 -36.9888,77.94546 19.1666,15.13309 -19.4564,-29.13038 1.6197,-37.38684 6.752,-11.72499 49.0353,-39.79653 35.3691,-40.55862 z m -42.4988,12.2522 c -3.3026,0.21871 -11.5488,9.06156 -14.6939,22.41336 -13.9054,17.7852 -15.8797,54.38672 -1.1195,65.19331 16.4436,1.39622 27.0585,23.70915 47.1222,26.80382 14.4482,5.61923 0.8539,-23.89337 -9.9466,-21.33265 -30.438,-8.11934 -39.5518,-49.96511 -27.353,-75.99762 8.1376,-12.20372 8.5595,-17.25025 5.9908,-17.08022 z m 46.1631,4.72381 c -1.9368,0.11128 -4.6699,1.58823 -7.3942,5.68993 12.0578,0.43086 11.6553,-5.93467 7.3942,-5.68993 z m -71.6293,2.56244 c -1.0664,0.0453 -2.9019,1.67369 -5.3912,6.40081 6.3561,1.03561 7.7369,-6.50386 5.3912,-6.40081 z m 144.2908,14.18187 c -2.4116,0.32653 -6.1217,4.1902 -10.4296,14.81464 14.7532,0.86073 15.7356,-15.5332 10.4296,-14.81464 z m -160.5609,16.1531 c -0.6691,-0.15723 -1.956,1.48338 -4.0409,6.6977 3.4183,5.83739 5.7508,-6.29588 4.0409,-6.6977 z m 654.5535,6.53626 c 0.6744,-0.14614 1.6236,1.12294 2.8535,4.92174 -4.1818,14.16759 -5.2621,-4.40075 -2.8535,-4.92174 z m -632.6617,4.77858 c 0.3406,-0.18241 0.8148,2.28779 1.4206,9.47629 -2.1632,25.67318 -2.6374,-8.82442 -1.4206,-9.47629 z m 726.8216,3.60666 c 1.1995,-0.06 3.9871,1.53706 8.1593,6.44248 -7.7483,-1.64203 -10.1584,-6.34255 -8.1593,-6.44248 z m -753.5944,3.15873 c -0.2214,0.2706 -0.06,2.87225 0.8401,9.48929 5.6264,18.30258 -0.05,-10.45586 -0.8401,-9.48929 z m 776.098,8.8539 c 0.4451,0.0151 1.0433,0.1814 1.8189,0.52342 25.2935,8.09217 48.0896,49.35356 8.7032,51.99838 -3.4596,2.15916 -13.3238,2.52409 -14.099,-3.08844 24.5529,-14.62047 -3.095,-49.62505 3.5769,-49.43336 z M 300.5944,570.948 c -2.4158,8.89402 12.6319,40.31265 32.3265,43.99864 42.3458,-2.26603 -34.2729,-22.5543 -32.3265,-43.99864 z m -10.9179,8.54662 c -2.0309,-0.16631 -0.4829,2.63414 10.9179,11.45277 5.7912,-2.65451 -7.5331,-11.17551 -10.9179,-11.45277 z m 623.6915,57.57114 c -2.0824,0.42935 13.0163,12.0653 19.1453,21.17901 17.9527,12.2849 -4.8367,-14.53128 -7.2415,-15.71307 -7.6431,-4.08662 -11.0891,-5.63404 -11.9038,-5.46594 z m -14.9441,0.52342 c 0.3487,-0.10333 0.8321,1.29386 1.4521,5.35658 -2.2142,14.50957 -2.6975,-4.98821 -1.4521,-5.35658 z m -614.1918,3.74988 c -1.5682,0.066 -4.1293,0.77292 -7.9164,2.23947 -23.7578,22.3397 -50.2484,50.53521 -21.4134,82.62506 20.3247,22.18478 3.1063,-16.16719 -1.554,-24.48099 -9.286,-19.02355 43.6535,-60.91936 30.8838,-60.38354 z m 17.3653,3.05457 c -2.0768,0.10837 -6.3586,3.7141 -10.9495,13.5126 12.309,-6.35984 13.9847,-13.67108 10.9495,-13.5126 z m -85.6777,2.75253 c -14.1994,1.11829 -25.4677,4.31196 -29.7109,28.64233 -8.2211,19.09841 -11.1728,61.56033 17.4064,67.15415 19.6728,4.38544 6.7737,-3.95386 -2.4864,-8.47631 -27.5374,-23.66992 -1.9182,-65.20377 14.7909,-87.32017 z m 696.1637,2.98164 c -0.7466,0.24894 0.1119,3.46869 4.2667,12.0986 14.6463,13.14211 -2.0271,-12.84596 -4.2667,-12.0986 z m 76.9937,2.33587 c 0.9531,-0.0609 2.8661,1.35999 5.2914,5.75504 -5.8036,-1.43381 -6.8797,-5.65324 -5.2914,-5.75504 z m -700.3354,8.87997 c -0.6991,-0.0453 -1.7109,1.07784 -3.0671,4.26811 4.0661,10.94854 5.5631,-4.10969 3.0671,-4.26811 z m 8.662,0.0202 c -4.2834,0.0661 -10.5603,29.65697 -3.0258,37.5822 10.3624,21.3397 34.2543,23.75833 50.976,27.99912 8.5232,1.31307 22.6193,-12.5112 0,-10.66634 -18.913,-4.53842 -58.5604,-9.69354 -45.0315,-45.20695 -0.484,-6.98203 -1.6075,-9.72825 -2.9187,-9.70803 z m 630.3572,17.3302 c -1.3961,-0.079 -1.9744,3.82174 1.0223,15.59068 5.9021,-4.26716 1.3046,-15.45844 -1.0223,-15.59068 z m -634.5366,44.96733 c -4.784,-0.59195 21.9992,38.76496 37.2098,29.9496 6.833,6.46082 -17.735,45.90506 6.5277,60.67002 8.099,6.39552 -0.4994,-7.69156 -1.5543,-8.96587 -24.2483,-32.04874 55.4498,-56.22326 29.8399,-62.37044 -20.996,9.55691 -46.2778,2.30528 -59.6336,-7.45551 -7.2364,-8.3645 -11.0501,-11.662 -12.3895,-11.8278 z m 104.9055,0.99217 c -2.4961,0.35425 -2.9085,5.32523 1.9305,18.29114 5.483,16.09832 25.1274,32.00288 11.8675,54.05822 -3.8607,-7.98419 -23.4333,24.54665 -41.7071,21.93941 6.9103,7.17856 21.9305,0.61856 31.0829,-0.63545 23.6115,-10.73507 32.1863,-55.69806 11.8675,-68.69576 2.0824,-9.48203 -10.2764,-25.63367 -15.0413,-24.95756 z m 542.5136,12.31472 c 2.0226,-0.14965 4.5767,0.43892 7.7223,1.97654 21.6102,6.18494 45.4469,36.20306 15.8941,46.60538 -9.7072,2.18893 -26.1408,-1.1608 -19.6242,-14.60638 -10.3604,-10.8212 -14.9142,-33.16688 -3.9922,-33.97554 z m -717.1545,13.26588 c -1.4781,0.44648 0.3333,13.61809 -4.5458,10.09869 -23.5068,23.93783 23.82,40.24735 39.8349,39.94147 -3.7788,21.07973 -51.3554,6.05062 -53.9194,-18.18955 -15.8434,27.38258 28.049,32.29994 35.9787,47.44383 -17.0048,24.05559 14.7501,63.12331 33.6472,61.40956 33.6122,-10.53039 31.7371,39.48653 63.4096,41.33203 1.8425,4.80474 3.1306,-4.97434 6.2166,-1.33327 25.501,9.96979 48.3998,-9.57858 68.6573,-18.66609 21.5839,-7.07071 41.8747,-13.47303 32.3942,-24.99924 16.1463,-22.54312 -23.1062,-24.35224 -10.289,-32.33231 25.8568,-6.35252 5.5689,-80.58951 -7.4599,-54.09206 12.3535,10.36047 4.1901,38.58837 -18.0814,49.36827 -9.9873,10.76562 -36.2675,19.50744 -38.7642,17.72337 -24.2694,0.41219 -33.3525,-36.68512 -52.5666,-41.56903 -11.5758,-7.99658 -27.3563,-27.02687 -11.8116,-38.76178 21.3885,-16.50408 5.1196,-14.24439 -9.8495,4.66651 2.1659,-24.00283 11.8368,-23.1888 -8.1788,-27.99913 -29.4173,-30.44143 4.3998,9.81518 -7.8095,30.33238 -12.0825,22.80003 -0.685,18.03606 10.2402,6.867 -4.7026,25.36347 58.1315,55.48813 8.1642,70.79724 2.3063,10.40453 -24.1931,16.26615 -13.2515,8.31224 -11.0845,2.49508 -47.5979,-14.62575 -40.8597,-32.31147 1.5785,-2.19499 27.7123,-18.78529 23.8975,-31.99901 -46.2353,31.29196 32.0242,-28.30369 -9.2009,-27.14498 5.0741,-20.2723 1.9964,-17.49131 -6.6149,-2.85411 -26.578,11.29786 -16.3968,-15.02492 -24.2448,-25.99917 -2.9689,-7.81838 -4.3209,-10.24421 -4.9929,-10.04139 z m 62.0157,130.35013 c 1.381,-0.31091 2.3907,-0.90982 2.8484,-1.86712 -1.1494,0.69205 -2.0855,1.31256 -2.8484,1.86712 z M 915.93,762.11661 c 8.7692,-0.23331 35.0147,17.64977 11.1198,23.16202 -2.0535,5.24718 -12.0753,-15.59504 -9.7672,-14.94613 -6.7042,-5.84544 -5.3388,-8.10991 -1.3526,-8.21589 z M 289.3487,773.8923 c 1.0199,-0.13757 1.3626,1.2581 -0.4783,5.81232 -7.2823,2.20718 -1.7657,-5.51003 0.4783,-5.81232 z m -0.1848,15.71825 c 0.3558,-0.077 0.851,0.9643 1.4839,3.99726 -2.26,10.8321 -2.755,-3.72221 -1.4839,-3.99726 z m 623.939,6.6753 c 26.0358,-10.51338 35.5493,6.91668 41.0897,17.10014 6.7889,12.47827 0.9007,37.57759 -35.053,33.49367 -13.0837,-0.42985 -13.4939,-28.8619 -14.1035,-38.57438 0.6616,-6.37324 4.7902,-12.03648 8.0668,-12.01943 z m -532.409,29.73504 c -0.6058,0.0781 -1.577,1.76247 -3.0137,6.2524 2.6725,13.70223 5.1771,-6.53107 3.0137,-6.2524 z m 413.3902,14.47872 c 1.7137,-0.0302 1.8253,0.90359 -3.6205,3.77331 -6.5431,-0.97625 0.7646,-3.71999 3.6205,-3.77331 z m -374.3762,8.66638 c 1.9988,-0.0453 3.5566,1.28848 3.4412,5.20295 -19.395,7.48847 -9.4369,-5.06467 -3.4412,-5.20295 z m 32.4649,4.35665 c -1.0725,-0.1557 -2.728,1.30582 -4.8664,5.98937 6.5405,5.35673 7.6071,-5.59162 4.8664,-5.98937 z m -37.795,7.67685 c 20.7719,0.54559 24.8522,38.15348 -4.3711,36.40508 -28.934,-0.84548 -20.3556,-39.82817 0,-35.99888 1.5281,-0.31594 2.9863,-0.44242 4.3711,-0.40615 z m -83.1765,1.35932 c 12.9081,-0.18293 33.2291,29.29183 48.9658,20.37958 23.7347,19.93402 20.4264,36.75664 -14.9198,38.66544 -5.599,2.69986 -12.1111,0.69037 -17.9241,0.85413 -22.0549,-9.71105 -53.0846,-31.75706 -24.3489,-52.85251 2.1281,-5.02778 4.9369,-7.00008 8.227,-7.04664 z m 104.1502,1.63533 c 1.1523,0.0796 2.6512,0.48377 4.495,1.41143 -7.9894,4.02029 -9.4882,-1.75687 -4.495,-1.41143 z"
     id="path830-8-2"
     sodipodi:nodetypes="cccccccccccccccccccccccccccccccccccccccccccccccccccccccccccccccccssccccscccccscccccccccccccccccccccccccccccccccccssccccccccccccccccccccccccccccccccccccccsssscccccccccccccccccccccccccccccccccccccccccccccccccccccccccccccccccccccccccccccccccccccccccccccccccccccccccccccccccccccccsccccccccccccccccccccccccccccccccccccccccccccccccccccccccccccccccccccccccccccccccccccccccccccccccccccccsccccsccccccccccccccccccccccccccccccccccccccccccccccccccccccccccccccccsccccccccccccccccccccccccccccc"
     inkscape:label="Kontur_Vorderhaar" />
</svg>
