<svg xmlns="http://www.w3.org/2000/svg" width="1278.065" height="1569.494" viewBox="0 0 338.155 415.262">
  <path fill="none" d="M1 1h337.155v414.262H1z" paint-order="stroke fill markers"/>
  <path class="hair" fill="#3b2516" d="M172.935 36.558c-9.52-.037-19.784 1.557-25.244 9.965-6.472.173-16.34 7.217-22.002 13.873-5.632 8.71-12.482 16.529-17.572 25.564-5.22 11.038-7.592 23.597-7.257 35.85.556 10.86 2.95 18.46 6.666 23.72.206-11.452 2.388-23.036 5.477-34.106 4.836-11.734 10.15-23.79 18.893-33.103 6.532-7.92 19.896-10.03 22.483-20.53 5.712 3.15 18.773 1.59 26.777 5.968 11.404 3.424 19.51 12.133 28.902 18.924 9.356 5.81 14.12 16.093 17.797 26.103 1.479 3.754 3.452 21.316 4.548 28.571.225 1.49.029 4.066.209 4.317.208.29.63-1.12.938-3.347.197-1.425.333-2.894.383-5.426-.102-9.111-1.31-21.776-3.557-45.485-2.47-6.43-.924-6.37-2.564-10.034-6.485-10.083-7.123-12.553-14.337-22.169-9.131-9.28-21.182-16.49-34.136-18.432-2.05-.118-4.207-.214-6.403-.223z"/>
  <path d="M107.526 145.53c.206-11.452 2.388-23.036 5.477-34.106 4.836-11.734 10.15-23.79 18.893-33.103 6.532-7.92 19.896-10.03 22.483-20.53 5.712 3.15 18.773 1.59 26.777 5.968 11.404 3.424 19.51 12.133 28.903 18.924 9.355 5.81 14.12 16.093 17.796 26.103.657 10.065 3.496 19.934 4.372 29.98.297 3.06.051 4.217.414 3.965.988-.686.128-11.203-.429-14.394-1.527-11.02-1.87-22.312-8.1-31.912-3.164-6.683-2.314-5.389 1.766-.161 3.218 5.357 5.552 8.052 1.938-.015-5.778-8.81-15.457-13.869-23.298-20.611-7.322-8.047-17.527-11.458-27.033-15.955-9.04-3.298-24.456.582-27.533-12.126 6.436-10.6 20.415-9.127 31.055-8.765 10.382 2.756 20.591 7.717 28.712 14.853 6.99 8.838 13.96 17.873 18.896 28.046 3.435 8.16 4.019 7.048 3.188 3.811-3.879-11.62-11.114-20.673-18.328-30.289-9.131-9.28-21.182-16.49-34.136-18.432-2.05-.118-4.207-.214-6.404-.222-9.519-.038-19.784 1.556-25.244 9.964-6.472.173-16.34 7.217-22.002 13.872-5.632 8.711-12.481 16.53-17.572 25.565-5.22 11.038-7.592 23.597-7.257 35.85.556 10.86 2.95 18.46 6.666 23.72zm74.25-100.207c1.094 2.39 18.272 7.196 22.916 14.188 12.855 8.433 18.67 22.424 26.607 35.026l1.855 2.004.595.585c-3.94-11.197-10.562-21.273-17.88-30.472-9.884-9.022-20.342-19.29-34.093-21.331zm-14.963 3.397c-3.536-.01-6.955.753-9.497 2.744 4.284 2.406 18.48-3.182 25.741 2.556-2.313-2.454-9.492-5.283-16.244-5.3zm-21.955.573c.555-.007 1.116.03 1.685.112 12.714 7.956-.574 17.73-9.086 21.957-10.326 6.121-16.379 17.127-21.5 27.664-6.08 11.14-8.322 23.727-10.185 36.194-.235.216-1.834-5.38-2.514-9.629-1.078-11.173-.928-12.1 2.285-23.097 1.941-14.322 11.415-25.516 18.927-37.214 5.268-6.077 12.066-15.883 20.388-15.987zm.377.932c-10.805 4.709-17.603 15.693-24.315 25.026 2.927-2.846 5.125-6.37 8.034-9.247 3.611-5.81 15.591-12.943 16.28-15.78zm5.61 1.485c.045.003.098.01.162.023.681 1.007-.817-.06-.161-.023z"/>
</svg>
