<?xml version="1.0" encoding="UTF-8" standalone="no"?>
<!-- Created with Inkscape (http://www.inkscape.org/) -->

<svg
   xmlns:dc="http://purl.org/dc/elements/1.1/"
   xmlns:cc="http://creativecommons.org/ns#"
   xmlns:rdf="http://www.w3.org/1999/02/22-rdf-syntax-ns#"
   xmlns:svg="http://www.w3.org/2000/svg"
   xmlns="http://www.w3.org/2000/svg"
   xmlns:sodipodi="http://sodipodi.sourceforge.net/DTD/sodipodi-0.dtd"
   xmlns:inkscape="http://www.inkscape.org/namespaces/inkscape"
   width="338.15475mm"
   height="415.26193mm"
   viewBox="0 0 338.15475 415.26193"
   version="1.1"
   id="svg8"
   inkscape:version="0.92.3 (2405546, 2018-03-11)"
   sodipodi:docname="Fronthair04.svg">
  <defs
     id="defs2" />
  <sodipodi:namedview
     id="base"
     pagecolor="#ffffff"
     bordercolor="#666666"
     borderopacity="1.0"
     inkscape:pageopacity="0.0"
     inkscape:pageshadow="2"
     inkscape:zoom="0.49497475"
     inkscape:cx="36.744879"
     inkscape:cy="782.96606"
     inkscape:document-units="mm"
     inkscape:current-layer="layer1"
     showgrid="false"
     inkscape:window-width="1920"
     inkscape:window-height="1001"
     inkscape:window-x="-9"
     inkscape:window-y="-9"
     inkscape:window-maximized="1"
     inkscape:snap-global="true"
     showguides="true"
     fit-margin-top="0"
     fit-margin-left="0"
     fit-margin-right="0"
     fit-margin-bottom="0" />
  <metadata
     id="metadata5">
    <rdf:RDF>
      <cc:Work
         rdf:about="">
        <dc:format>image/svg+xml</dc:format>
        <dc:type
           rdf:resource="http://purl.org/dc/dcmitype/StillImage" />
        <dc:title />
      </cc:Work>
    </rdf:RDF>
  </metadata>
  <g
     inkscape:label="Ebene 1"
     inkscape:groupmode="layer"
     id="layer1"
     transform="translate(1355.1667,-269.28568)">
    <rect
       style="opacity:1;fill:none;fill-opacity:1;fill-rule:evenodd;stroke:none;stroke-width:0.99999988;stroke-linecap:round;stroke-linejoin:miter;stroke-miterlimit:4;stroke-dasharray:none;stroke-dashoffset:0;stroke-opacity:1;paint-order:stroke fill markers"
       id="rect1307"
       width="337.15475"
       height="414.26193"
       x="-1354.6667"
       y="269.78568"
       inkscape:label="Frame" />
    <path
       style="display:inline;fill:#aa4400;fill-opacity:1;stroke-width:1"
       d="m -1177.5176,291.55601 c -4.7294,0.14229 -2.9839,7.79682 -6.9791,8.00011 -8.7725,2.60367 -15.1851,-13.36119 -24.5026,-3.93143 -4.784,6.80753 -13.6574,8.84964 -18.1276,17.02228 -1.267,0.31575 -8.875,-12.83081 -15.3056,-6.00498 -7.3355,2.88156 -2.7767,12.82491 0.771,11.19316 1.0298,1.59556 3.0741,2.30357 4.3445,4.03436 -3.2579,-0.22896 -8.5708,3.2556 -12.8061,2.8971 -8.4317,-3.00999 -13.8834,21.39364 -4.7173,15.44751 4.312,5.43938 -14.3816,3.73769 -9.5008,13.99895 -4.0148,4.17213 -3.1363,10.70967 -4.3552,15.53696 -3.5254,6.56317 -18.2729,13.84453 -7.9461,21.83975 3.2155,0.10421 4.8202,-0.30517 5.2998,-0.90197 6.2369,-7.26215 12.8168,13.90727 17.6581,8.45354 0.054,0.002 0.1198,-0.005 0.2111,-0.0362 l 4.4288,-4.01905 c -1.2531,-7.64206 8.6828,-6.12357 6.1034,-13.86966 2.5083,-2.83829 -2.0792,-9.43778 3.0059,-9.38063 8.5014,0.12403 16.2193,-9.1741 18.3613,-17.95551 5.8321,5.38522 7.8976,-7.01187 12.4079,-1.07539 -3.2043,7.31116 10.3016,15.12167 8.8263,3.65079 -3.5901,2.05591 -4.1653,-1.29469 -0.4491,-4.5405 7.22,1.20525 3.9227,-9.36049 10.9333,-8.66432 5.7705,7.99185 11.3876,-3.82148 17.5944,2.88667 3.9456,-7.7092 7.0121,2.55204 13.4208,1.28616 -0.8271,3.71478 7.5787,13.22442 12.0931,7.41616 5.9185,1.20866 3.1502,-7.77632 7.8518,-5.43266 -4.6585,2.77646 -5.7456,20.7291 4.9191,16.25327 -0.4673,-7.38517 3.9011,-4.60764 4.1697,1.18628 -5.6576,3.77407 -0.7198,11.76991 4.1585,14.5247 -0.6193,7.65583 -4.9841,21.62949 8.1734,18.08358 -0.9656,3.59367 0.7174,6.25901 2.0101,5.06439 2.5333,-1.50666 3.9387,-3.05733 4.9767,-4.62261 5.5712,8.74608 14.8904,7.36348 23.2893,-2.11031 0.5615,0.41728 1.9707,0.38704 4.2763,-0.11704 -1.6612,-3.48854 10.2503,-14.48665 0.1948,-18.36849 -2.4629,-3.06415 -6.7696,-1.68288 -9.2941,-2.77025 -0.3626,-3.07388 -1.3344,-4.82074 -3.7376,-7.37877 1.9611,-1.78704 1.7436,-3.77542 -2.6636,-8.50747 0.416,-1.4609 -0.3132,-4.94231 -2.0934,-6.84445 2.4976,-5.69003 -1.7172,-11.78283 -5.0899,-16.82313 -7.6379,-2.10532 -4.9539,-5.99105 -3.5036,-12.79736 -1.7188,-9.34964 -17.6568,-15.02288 -19.6366,-2.89158 -1.8538,-3.16973 -4.1725,-13.02948 -10.4434,-11.37452 -9.732,4.06226 -8.5071,-14.4234 -19.2178,-11.51119 -7.1992,3.39465 -9.0864,-6.75511 -15.6462,-6.842 v 0 0 c -0.5557,-0.006 -1.1447,0.0581 -1.7735,0.20956 -0.6413,-0.16263 -1.2,-0.22857 -1.6891,-0.21385 z"
       id="path1322"
       inkscape:connector-curvature="0"
       inkscape:label="Vorderhaar"
       sodipodi:nodetypes="ccccccccccccccccccccccccccccccccccccccccccccccccccc" />
    <path
       style="display:inline;fill:#000000;stroke-width:1"
       d="m -1082.9224,397.66922 c -1.6612,-3.48854 10.2506,-14.48665 0.195,-18.36849 -2.4629,-3.06415 -6.7697,-1.6826 -9.2942,-2.76997 -0.3626,-3.07387 -1.334,-4.82076 -3.7373,-7.37881 1.9612,-1.78703 1.7433,-3.77568 -2.6637,-8.50773 0.4159,-1.4609 -0.3134,-4.94197 -2.0935,-6.84411 2.4975,-5.69003 -1.717,-11.78296 -5.0898,-16.82326 -7.638,-2.10532 -4.9538,-5.99112 -3.5036,-12.79744 -1.7188,-9.34963 -17.6572,-15.02314 -19.637,-2.89183 -1.8538,-3.16974 -4.1721,-13.02939 -10.4431,-11.37442 -9.732,4.06225 -8.5074,-14.42304 -19.2181,-11.51082 -7.1992,3.39465 -9.086,-6.75542 -15.6456,-6.84232 l -7e-4,-1e-5 -5e-4,-1.1e-4 c -0.5557,-0.006 -1.1447,0.058 -1.7734,0.20963 -6.8411,-1.73475 -4.2602,7.56225 -8.6688,7.78656 -8.7725,2.60366 -15.1851,-13.36116 -24.5026,-3.9314 -4.784,6.80753 -13.6569,8.84963 -18.1273,17.02227 -1.2669,0.31574 -8.8751,-12.83066 -15.3057,-6.00483 -7.3355,2.88157 -2.7768,12.8249 0.7709,11.19315 1.0298,1.59555 3.0746,2.30334 4.3449,4.03413 -3.2579,-0.22895 -8.571,3.25563 -12.8062,2.89712 -8.4318,-3.01001 -13.8833,21.39371 -4.7172,15.44758 4.312,5.43938 -14.3817,3.73749 -9.501,13.99874 -4.0147,4.17214 -3.1365,10.7099 -4.3552,15.5372 -3.5256,6.56316 -18.273,13.84415 -7.9462,21.83937 5.6056,0.18146 6.3237,-1.19612 4.6995,-2.41033 -11.8905,1.65388 -2.1086,-13.46899 2.7597,-16.79634 4.1445,4.66102 0.076,-5.89289 4.323,-1.95594 -2.0223,-5.14564 -0.9685,-14.56474 6.0143,-16.21124 -5.6378,0.91601 -4.0627,-5.83771 0.6675,-6.7766 5.8138,0.63185 10.5167,-13.19959 2.0613,-8.62348 -4.5317,-5.29707 5.4186,-17.02089 12.2452,-11.47042 5.8634,5.20981 -0.9542,-1.69073 1.6231,-2.42596 4.6958,1.59769 9.839,-2.70758 4.1467,-6.75575 -0.9094,-0.24708 -1.7015,-0.92441 -2.5019,-1.22673 0.5243,-0.69278 0.9863,-1.74528 1.328,-3.24542 -3.4333,6.43018 -9.2005,-4.06758 -1.7293,-5.20146 7.9493,-3.90541 10.8875,5.89965 12.6358,11.26788 4.5994,-8.07441 11.132,-18.14254 20.888,-17.20182 -5.7806,-3.55692 8.3844,-11.54786 11.4727,-3.98667 -1.3168,-6.34406 6.0169,1.67847 0.7893,4.34757 -7.4038,1.18537 2.5509,4.87731 3.1672,-1.27756 2.8811,1.07915 14.5125,0.0674 12.3228,-3.35779 0.138,-3.14779 2.4798,-4.32147 5.1178,-4.21151 v -1.6e-4 c 4.7028,0.1961 10.346,4.47017 6.1192,8.90682 7.3333,-3.60147 20.906,-2.88373 21.4738,9.02693 0.9875,2.72821 11.1037,-3.86834 13.8217,3.93897 6.9823,9.62636 -6.3123,-0.097 -3.4152,5.46937 8.6024,10.19066 11.3384,-9.25733 19.9949,-3.67669 6.3365,0.29233 7.2137,11.84011 4.5478,12.13817 -2.5175,-9.62571 -3.2971,-0.9153 -1.5066,3.68872 -8.0221,6.40242 6.906,0.46679 8.2362,8.00842 -9.8157,2.9402 7.5959,2.38911 2.7313,9.18605 -4.2211,-0.0893 -10.5932,4.44604 -5.9356,9.5672 -2.6974,7.8792 4.9961,-1.87555 8.4902,-0.0418 -1.7432,2.53207 8.4283,5.70104 0.937,8.23019 0.9041,2.61844 7.2938,4.293 4.1801,9.88362 -1.2147,8.30557 1.8658,0.37233 4.7341,0.72299 10.7873,-1.10087 11.794,11.89747 3.1404,17.0039 -0.4675,0.74066 -4.788,5.28438 -4.4607,5.60516 0.4979,0.48807 6.176,-3.52812 8.6016,-4.05844 z m -29.9848,2.58143 c -3.5819,2.83222 -2.2388,9.5e-4 -1.0921,-3.35654 -2.7566,2.78921 -5.8243,3.40872 -8.9831,1.36067 -6.8794,0.80406 3.8031,-14.91053 -0.8315,-14.11204 1.9927,-0.72984 1.071,-16.60043 0.4111,-8.30141 -1.0074,8.21353 -8.5084,-0.17638 -7.4716,-4.80023 2.968,-4.35916 5.0707,-10.53101 -2.7708,-12.55652 -6.6777,2.38552 -0.6994,2.14012 -1.6558,5.38827 -5.9905,2.6008 -6.4448,-10.71377 -2.3401,-14.008 -1.9057,-7.2342 -6.5841,4.10409 -10.4502,1.70464 0.8665,5.81255 -3.4138,2.29739 -6.919,0.81171 -0.1534,-4.02444 -3.2803,-9.20854 -3.3993,-15.043 -4.6268,0.0526 1.9031,7.48603 -0.5499,8.10767 -4.1353,0.60551 -9.2895,-1.45134 -9.3566,-6.59581 -0.6976,4.46217 -4.6914,7.5974 -7.9794,2.97612 -5.5176,-9.55801 -2.7799,6.9498 -9.2224,2.91712 -3.7251,-5.4602 -5.7519,-2.71096 -11.0509,-2.80746 1.9856,8.01048 -11.6598,9.12969 -7.8057,17.44831 -2.9979,1.71519 -0.908,-8.95833 -5.5674,-8.59466 0.8601,-7.0335 -2.0451,-2.38891 -5.9275,0.79494 -3.5599,6.55231 -8.7383,-6.03113 -8.0182,-0.25088 1.1453,9.56466 -8.3422,16.42447 -15.5098,17.81824 -6.4168,-2.36985 -2.9965,-7.95092 -0.9162,-11.04116 -3.7766,5.50988 -10.609,-1.89223 -7.0539,-6.83678 -7.2743,6.36739 3.184,9.41038 2.3336,15.69745 7.0115,7.22205 -9.3513,1.34305 -2.2295,6.42607 8.1698,0.45773 -0.1107,6.97534 2.109,11.28544 -5.2231,1.83626 -2.6599,5.88328 -7.2217,9.38115 -2.5954,2.75383 -2.9967,6.25697 -5.963,5.24763 -0.3336,4.41198 7.7661,-2.83837 9.2949,-4.22565 -1.2529,-7.64205 8.6826,-6.12337 6.1032,-13.86945 2.5083,-2.83829 -2.0792,-9.43768 3.0059,-9.38056 8.5015,0.12404 16.2192,-9.17447 18.3612,-17.95588 5.8322,5.38522 7.8976,-7.01168 12.4079,-1.07519 -3.2043,7.31113 10.3018,15.12182 8.8265,3.65095 -3.5901,2.0559 -4.1654,-1.29508 -0.4491,-4.5409 7.22,1.20525 3.9223,-9.36014 10.9329,-8.66397 5.7705,7.99185 11.3879,-3.82141 17.5948,2.88672 3.9455,-7.70919 7.012,2.5518 13.4206,1.28592 -0.8271,3.71477 7.5787,13.22472 12.0931,7.41647 5.9185,1.20867 3.1502,-7.77682 7.8518,-5.43317 -4.6584,2.77646 -5.7454,20.72917 4.9194,16.25334 -0.4674,-7.38517 3.9006,-4.60744 4.1692,1.18649 -5.6576,3.77407 -0.7195,11.76984 4.1587,14.52464 -0.6192,7.65583 -4.1756,19.30766 4.2045,21.10714 -0.9656,3.59367 0.7177,6.25949 2.0106,5.06488 3.9689,-2.36062 5.1725,-4.8296 6.5258,-7.29272 z m -47.9385,-89.01587 c -0.2127,10e-4 -0.4303,0.0148 -0.6524,0.0434 -0.1651,2.52753 9.411,6.87655 3.8745,12.45909 5.2392,0.52938 3.3666,-12.51689 -3.2221,-12.50246 z m -56.6426,2.481 c -3.6073,0.0527 -9.5257,14.44482 -2.6905,18.88529 3.7661,0.582 5.8373,-2.0912 10.3349,0.004 11.7799,-0.65442 7.027,-21.33194 -3.5,-14.90062 -3.867,4.58555 -0.3862,5.9044 2.5452,1.72331 12.0086,-1.16852 1.0749,16.32743 -3.3306,8.63939 -8.7595,7.4301 -8.232,-9.4833 -3.359,-14.35229 z m 97.0852,5.78965 c -2.2989,-0.13749 -7.4189,7.87622 -0.9468,10.12532 7.406,1.97443 -5.9213,-7.14601 1.9104,-8.55685 -0.053,-1.07092 -0.433,-1.53675 -0.9636,-1.56847 z m -44.7458,2.49648 c -3.2313,0.005 6.9956,4.26755 5.2139,9.83733 4.3462,1.21063 1.104,-9.11122 -1.8722,-9.38379 -1.6833,-0.30962 -2.7431,-0.45459 -3.3417,-0.45354 z m -49.4542,1.29747 c -0.56,-0.0559 -0.9447,0.31429 -0.519,1.57971 3.8316,0.73181 1.751,-1.45635 0.519,-1.57971 z m 46.3973,14.08405 c -0.082,0.51502 -0.1124,1.00226 -0.1064,1.46661 0.074,-0.47647 0.1118,-0.96776 0.1064,-1.46661 z m 63.7772,17.61128 c 2.4664,0.084 4.7302,1.52474 0.1274,2.70068 -0.8915,0.34271 -1.7671,0.7713 -2.5517,1.35826 -2.0859,-3.1513 0.2481,-4.13315 2.4243,-4.05894 z m -148.2611,7.99768 c -1.6751,0.10346 -9.0086,4.8299 -5.3351,9.22079 2.2294,2.1969 1.1565,-8.1208 5.1225,-8.19221 0.6208,-0.65749 0.6643,-0.97651 0.3563,-1.02416 -0.042,-0.007 -0.09,-0.01 -0.1437,-0.004 z m 163.6647,19.68823 c -1.4855,-0.0751 5.6851,4.83241 1.2265,7.20927 3.5539,1.3204 3.9825,-4.71185 1.4344,-6.26884 -1.5142,-0.64035 -2.3179,-0.92311 -2.6609,-0.94043 z m -166.9146,-3.01318 c -0.3771,0.0301 -0.2872,0.94515 0.9136,3.31301 -0.7103,8.93392 -11.028,-3.35487 -6.8948,5.52016 1.9679,0.89776 4.3794,0.0965 6.2346,-0.78653 5.405,-1.4475 0.7895,-8.12956 -0.2534,-8.04664 z m 137.8145,22.63179 c 0.3686,0.006 0.6907,0.58719 0.8235,2.14732 l -1.2895,1.60295 c -2.7016,1.99812 -0.7387,-3.77383 0.466,-3.75027 z"
       id="path990-0-8"
       inkscape:connector-curvature="0"
       sodipodi:nodetypes="cccccccccccccccccccccccccccccccccccccccccccccccccccccccccccccsccccccccccccccccccccccccccccccccccccccccccccccccccccccccccccccccccccccccccccccccccccccccccccccccccc"
       inkscape:label="Kontur_Vorderhaar" />
  </g>
</svg>
