<svg xmlns="http://www.w3.org/2000/svg" width="1278.714" height="1568.173" viewBox="0 0 338.326 414.913">
  <path fill="none" d="M0 .651h337.155v414.262H0z" paint-order="stroke fill markers"/>
  <path class="hair" fill="#3b2516" d="M244.67 117.89a166.688 166.688 0 0 0-3.195-14.735c-4.008-18.953-16.85-34.626-32.127-45.903-1.252-3.693-9.49-7.893-12.158-8.654-2.799-1.578-19.237-2.758-23.654-3.7-4.229-.54-8.564-.932-12.863-.903-8.207.055-16.281 1.645-23.229 6.671-10.162 8.942-20.637 18.433-27.27 30.564-8.684 18.905-14.814 33.657-13.362 54.33.072.726 1.354 3.858 2.455 3.797l.015-.003.096.173c3.365-1.872 4.302-4.775 6.48-7.708l.435-.68c6.543-10.62 8.649-24.094 15.237-35.075 5.38-14.417 19.57-21.633 30.18-31.607 6.803-8.76 11.29-6.49 20.86-5.004 12.396.055 16.501 11.35 20.715 16.18 1.307 2.059 1.942 5.664 4.15 8.554 3.594 4.705 4.87 7.935 6.853 9.227-.75-2.063-7.599-15.665-9.858-23.137-.465-.677-.15-1.045 1.392-.067 7.809 10.397 8.637 23.972 18.126 33.215 3.796 13.273 13.01 20.685 21.731 30.688 1.694 1.351 2.362 1.623 2.424 1.299l.007.012c6.527-1.504 6.873-9.19 6.56-17.534z"/>
  <path d="M160.646 43.758c-8.207.055-16.281 1.645-23.229 6.671-10.162 8.942-20.636 18.433-27.27 30.563-8.684 18.906-16.717 40.027-12.929 61.173 1.232 1.083 2.263-1.738 2.372-2.135-2.43-18.137 2.296-36.795 10.485-53.002 4.902-11.354 12.366-22.659 22.71-29.677 6.8-5.715 22.712-18.793 27.033-4.4-3.752 1.816-9.806 10.545-15.799 14.287-11.95 8.586-22.592 19.387-27.966 33.353-4.275 8.871-5.167 19.665-9.38 27.808-1.065 2.538-3.902 5.602-4.113 8.285-.033.13 3.409-4.634 3.376-4.504 7.182-10.78 8.732-24.96 15.567-36.353 5.38-14.417 19.569-21.634 30.18-31.607 6.803-8.761 11.29-6.49 20.86-5.004 12.396.055 21.178 21.603 25.393 26.432 1.533 1.757 2.361 2.663 2.82 3.137 1.163 2.527 2.867 4.813 5.584 6.659-.673-1.849-7.52-12.396-10.448-23.963 4.363 4.953 10.268 24.977 17.83 32.342 3.795 13.273 14.412 22.187 23.133 32.19 6.146 4.906-2.397-6.533-3.325-7.03-11.445-10.983-17.624-25.854-24.132-40.002-4.916-10.008.715 3.25 1.51 6.64-4.043-3.608-6.655-12.042-10.195-19.894-2.991-5.342-4.95-6.069-8.683-8.899 1.845 2.105 6.263 16.08 8.423 21.261-1.149-1.433-3.12-3.989-4.031-6.954-3.443-11.208-10.616-22.182-23.084-24.664-8.945.336-13.384-2.933-15.268-10.385 2.553 3.52 2.794 4.148 2.623 1.225-.148-2.528 1.958-1.701 3.186-2.274 1.496-.7 4.8.126 7.2 1.167 8.204-3.292-9.854 6.863.05 2.395 4.283-2.264 15.635-2.504 15.314-1.165-.228.956-11.094 1.859-14.103 4.242 3.507-.949 16.878-4.219 24.205-3.026.477.468 1.797 1.357 4.33 2.785 8.895 3.9-3.873 1.435 3.118 4.091 10.472 4.954 16.907 15.298 24.221 23.864 7.965 9.412 11.244 21.308 13.555 33.155.864 5.847 1.287 11.773 1.637 17.714l2.63-2.454a164.43 164.43 0 0 0-4.588-24.888c-4.008-18.953-16.85-34.626-32.127-45.902-1.252-3.693-9.49-7.893-12.158-8.655-2.799-1.577-19.237-2.757-23.654-3.699-4.229-.54-8.564-.932-12.863-.903zm-10.16 8.336c-3.794.014-10.618.753-11.59 2.137-.203.29 2.605-.52 2.691-.05-.326.345-6.413 4.041-8.463 6.368-1.684 1.912-2.852 4.052-2.674 3.868 9.65-9.929 17.283-12.294 18.376-11.437 6.608-.43 5.228-.9 1.66-.886zm43.45.866c-.897-.004 8.641 4.127 11.778 6.465 8.862 5.478-4.256-4.436-6.78-4.863-3.241-1.14-4.7-1.601-4.999-1.602zm12.45 29.992c-.035.01-.076.119-.121.39.308 1.382.274-.434.121-.39zm-89.226 7.78a104.203 104.203 0 0 0-13.96 35.931c-.236 2.513 1.61-3.17 1.211-2.063 2.829-11.81 7.637-22.935 12.749-33.868z"/>
</svg>
