<?xml version="1.0" encoding="UTF-8" standalone="no"?>
<!-- Created with Inkscape (http://www.inkscape.org/) -->

<svg
   xmlns:dc="http://purl.org/dc/elements/1.1/"
   xmlns:cc="http://creativecommons.org/ns#"
   xmlns:rdf="http://www.w3.org/1999/02/22-rdf-syntax-ns#"
   xmlns:svg="http://www.w3.org/2000/svg"
   xmlns="http://www.w3.org/2000/svg"
   xmlns:sodipodi="http://sodipodi.sourceforge.net/DTD/sodipodi-0.dtd"
   xmlns:inkscape="http://www.inkscape.org/namespaces/inkscape"
   version="1.1"
   id="svg2"
   width="1274.2856"
   height="1565.7144"
   viewBox="0 0 1274.2856 1565.7144"
   sodipodi:docname="Fronthair03.svg"
   inkscape:version="0.92.3 (2405546, 2018-03-11)"
   inkscape:label="Ebene">
  <metadata
     id="metadata8">
    <rdf:RDF>
      <cc:Work
         rdf:about="">
        <dc:format>image/svg+xml</dc:format>
        <dc:type
           rdf:resource="http://purl.org/dc/dcmitype/StillImage" />
        <dc:title />
      </cc:Work>
    </rdf:RDF>
  </metadata>
  <defs
     id="defs6" />
  <sodipodi:namedview
     pagecolor="#ffffff"
     bordercolor="#666666"
     borderopacity="1"
     objecttolerance="10"
     gridtolerance="10"
     guidetolerance="10"
     inkscape:pageopacity="0"
     inkscape:pageshadow="2"
     inkscape:window-width="1920"
     inkscape:window-height="1001"
     id="namedview4"
     showgrid="false"
     inkscape:zoom="0.36875"
     inkscape:cx="229.1607"
     inkscape:cy="521.68027"
     inkscape:window-x="-9"
     inkscape:window-y="-9"
     inkscape:window-maximized="1"
     inkscape:current-layer="svg2"
     fit-margin-top="0"
     fit-margin-left="0"
     fit-margin-right="0"
     fit-margin-bottom="0" />
  <rect
     style="display:inline;opacity:1;fill:none;fill-opacity:1;fill-rule:evenodd;stroke:none;stroke-width:3.77952719;stroke-linecap:round;stroke-linejoin:miter;stroke-miterlimit:4;stroke-dasharray:none;stroke-dashoffset:0;stroke-opacity:1;paint-order:stroke fill markers"
     id="rect1307"
     width="1274.2856"
     height="1565.7144"
     x="0"
     y="0"
     inkscape:label="Frame" />
  <path
     style="display:inline;fill:#ffe680;fill-opacity:1"
     d="m 653.63551,135.2967 c -31.573,-0.0735 -63.3014,6.69965 -93.1836,17.23047 -42.5588,7.01512 -74.4448,36.61669 -105.3829,64.08008 -34.2002,32.87518 -58.3606,76.20277 -74.6992,120.47656 -17.8423,40.00612 -25.1692,82.66543 -29.709,125.72071 l 8.3731,16.95312 c 36.6195,62.30039 36.5864,71.74412 44.5176,-7.13867 12.1797,-55.64035 27.5289,-112.24657 56.3183,-161.86719 18.4384,-34.95695 50.5116,-61.87673 88.043,-72.72852 36.4804,1.43962 75.2652,4.12615 108.3516,-10.58593 42.8742,-2.66274 76.3586,-0.0633 117.4628,4.79687 12.3218,14.62491 29.5246,55.5536 54.9571,72.08985 29.58,30.44197 33.2657,75.42337 43.2675,115.00039 6.2131,25.22832 6.1202,40.32353 2.8477,65.59333 -0.1,0.27277 -0.135,0.56482 -0.1035,0.8535 -6e-4,0 0,0.01 0,0.014 v 0 c 0.1862,1.63557 2.2291,2.26785 3.3066,1.0234 33.5087,-37.70368 39.118,-52.74343 41.8555,-77.01945 0.01,0.0444 0.017,0.0884 0.025,0.13281 l 6.2266,-19.85938 c -9.2439,-34.94007 -18.883,-69.89415 -36.0645,-101.9082 -21.0536,-38.60535 -45.0819,-80.63677 -83.043,-104.34765 -31.1727,-2.95656 -54.7445,-36.57947 -89.4179,-37.75391 -20.817,-7.44805 -42.3467,-10.70363 -63.9492,-10.75391 z"
     id="path1125"
     inkscape:connector-curvature="0"
     inkscape:label="Vorderhaar"
     sodipodi:nodetypes="cccccccccccccccccccccccccc" />
  <path
     style="display:inline;fill:#000000"
     d="m 350.44891,462.91045 c 4.5398,-43.05528 12.0798,-85.82099 29.9221,-125.82711 16.3386,-44.27379 40.4979,-87.60056 74.6981,-120.47574 30.9381,-27.46339 62.8247,-57.06623 105.3835,-64.08135 50.3279,-17.73612 105.8905,-24.80962 157.1323,-6.47597 34.6734,1.17444 58.2449,34.797 89.4176,37.75356 37.9611,23.71088 61.9899,65.7417 83.0435,104.34705 17.1815,32.01405 26.8197,66.96907 36.0636,101.90914 l -6.2252,19.85854 c -7.3373,-40.62991 -18.1482,-79.09994 -35.076,-116.53087 -21.8827,-31.16398 -36.1904,-57.62142 -63.7673,-84.80421 -34.5342,-35.51956 -48.1732,20.7015 -25.5289,44.35608 28.5388,39.29249 70.9168,70.05042 85.4712,118.67484 8.4918,16.00627 25.4459,66.62355 6.2091,24.61981 -9.5519,-19.48193 -44.006,-87.4179 -25.5715,-32.20501 14.4541,42.08526 23.3439,88.63085 18.8329,133.08892 l -7.2847,0.19156 c 3.4094,-25.57229 2.4294,-50.55166 -3.8548,-76.06873 -10.0018,-39.57701 -11.0493,-86.47567 -40.6293,-116.91764 -25.4325,-16.53625 -42.6355,-57.46506 -54.9573,-72.08997 -41.1042,-4.8602 -74.5892,-7.45876 -117.4634,-4.79602 -33.0864,14.71208 -71.8716,12.02422 -108.352,10.58461 -37.5314,10.85179 -69.6041,37.77159 -88.0425,72.72854 -28.7894,49.62062 -42.6133,107.07467 -54.793,162.71502 -3.4675,23.34757 -4.225,45.78324 -0.3314,68.59646 l -7.5793,-9.45095 c 2.5942,-48.34844 3.3566,-94.13896 20.8408,-139.70711 18.0737,-64.44981 52.7826,-129.88274 115.5602,-160.05809 -41.7002,-18.98998 -64.0318,51.62648 -69.9083,50.35155 5.1142,-43.86554 41.7929,-66.01129 81.685,-72.50009 55.1067,2.34617 110.5691,12.42129 165.7737,7.82536 -36.2895,-42.86968 -101.4175,-51.431 -153.1635,-37.53261 -72.515,25.64702 -121.6165,91.74489 -155.0049,158.18707 -11.1727,22.21543 -26.1543,51.02777 -34.3936,78.5243 -8.1744,27.28017 -9.6457,53.29438 -10.8603,62.94498 z m 493.9666,-178.5639 c -10.3379,-20.96595 -51.4103,-57.0068 -43.7756,-69.07114 20.5547,22.05552 40.6524,47.39632 49.9076,76.51691 z m -464.9481,90.22689 c 29.7725,-73.33287 76.0123,-142.34266 141.8967,-187.46934 67.0764,-28.94942 146.7879,-36.21048 215.4499,-8.0663 14.4978,13.80937 63.001,43.94901 43.9184,5.23931 -38.9804,-29.54416 -89.8845,-43.095 -138.5428,-43.43142 -43.9499,6.39504 -88.7132,16.61075 -128.4497,36.83801 -35.5037,28.05726 -74.116,55.69986 -93.9082,97.91448 -21.6073,36.11475 -37.1568,75.65246 -48.2887,116.15208 3.4995,-5.26128 5.1715,-11.52765 7.9244,-17.17682 z m 237.1858,-143.17272 c 47.4462,-6.58202 -39.6671,-7.02882 -52.5311,-10.70213 -19.7741,-4.57867 -50.2287,6.46095 -11.8929,7.26678 21.1218,4.34944 42.9763,3.52621 64.424,3.43535 z m 151.0809,-8.19504 c 5.5142,-30.25583 -58.5155,-49.74686 -90.6058,-51.17839 -16.1349,-2.5497 -51.0895,-4.04999 -14.2385,3.15854 41.8733,7.32672 57.3737,65.23505 104.8443,48.01985 z"
     id="path817-0-56"
     inkscape:connector-curvature="0"
     sodipodi:nodetypes="cccccccccccccccccccccccccccccccccsccccccccccccccccccccccc"
     inkscape:label="Kontur_Vorderhaar" />
</svg>
