<svg xmlns="http://www.w3.org/2000/svg" width="1278.065" height="1569.494" viewBox="0 0 338.155 415.262">
  <path fill="none" d="M0 0h338.667v415.256H0z" paint-order="fill markers stroke"/>
  <path class="hair" fill="#3b2516" d="M171.1 44.421c-3.67.024-7.34.221-10.987.58-4.63-.795-8.473 1.918-12.83 2.904-4.693 3.174-10.32 4.372-15.089 7.385-4.37 2.825-9.572 4.037-13.438 7.68-3.046 2.859-6.294 6.05-7.65 10.168-.377-1.887-.92 1.79-1.442 3.335l-.06.447c.02.026-.14.263-.112.261.411.185 1.98-3.264.619.526.332.726 4.79 5.35 4.79 5.35 3.39-2.855 5.519-6.916 8.69-9.993 2.186-4.544 6.891-2.403 10.508-2.802 4.188-.861 8.26-2.09 12.454-2.793 3.993-.652 7.848-2.504 11.909-2.292 4.382-.417 8.317 1.233 12.182 2.727 3.768-1.522 7.963-1.878 12.044-2.165 3.962-.218 8.34.534 12.165-.69.731.075 1.679.07 2.613.005.034.034.1.073.207.118 1.039.087 3.849.664 4.89.64.689-.022 1.1-.062 1.298-.113 2.33 1.279 4.13-.386 6.506 1.531 3.372 2.838 5.79 5.855 9.376 7.088 1.279-.509 9.854-5.388 6.17-6.384-3.791-1.112-4.369-5.813-8.338-6.97.613-2.279-2.932-2.81-4.81-3.58-.505-.3-3.877-2.833-5.42-3.642-1.369-1.181-4.637-2.953-6.354-4.475-3.91-1.306-8.126-4.637-12.22-3.545a107.949 107.949 0 0 0-16.101-1.3c-.525-.005-1.049-.005-1.574-.001z"/>
  <path d="M652.63 167.332c-15.854-.115-31.72.635-47.472 2.178-17.722-2.994-32.335 7.309-48.629 10.998l-.101.021-.09.06c-17.616 11.916-38.872 16.445-57.01 27.903-16.407 10.606-36.127 15.194-50.877 29.092-11.17 10.486-23.002 22.267-28.443 37.316-.064-.146-.097-.413-.176-.53-.147-.217-.353-.436-.674-.49-.317-.052-.609.108-.789.274-.359.332-.56.782-.797 1.381-.234.6-.472 1.34-.709 2.178-.948 3.352-1.96 8.293-2.924 11.139v.023l-.738 2.59.186.236c0-.011.117.177.242.385.128.209.287.464.465.701.177.237.362.462.664.627a.95.95 0 0 0 .568.127.962.962 0 0 0 .584-.31c.979-1.108 2.133-3.267 3.522-6.053 1.389-2.786 2.974-6.174 4.65-9.62 3.353-6.89 7.141-14.04 10.217-16.823v-.014c10.727-10.59 21.292-21.395 32.908-31.028v-.014c15.354-8.278 30.97-16.243 45.701-25.867 16.413-2.284 29.63-12.824 44.166-19.392 8.002.282 15.164-2.876 22.213-5.573 7.12-2.723 14.095-4.937 21.805-2.798l.101.023.104-.008c31.862-2.846 63.827-5.247 95.691-1.875h.077c16.529.077 32.5 4.088 47.855 10.32l.088.037.094.008c8.572.433 14.36 4.931 20.13 9.694 4.531 3.74 9.41 7.106 15.184 9.144.181.404.47.876.879 1.455l.088.125.139.059c6.036 2.736 9.73 6.039 10.8 7.877.269.46.348.814.34.959 0 .145.039.112-.146.164-.356.103-1.694-.113-3.655-1.115l-.039-.008v-.008c-14.209-8.588-31.841-9.921-47.656-13.309l-.04-.008-.044-.008c-15.804-1.05-31.925-1.544-47.14-4.592l-.17-.037-.163.067c-16.79 7.212-34.28 7.52-51.384 3.867l-.274-.059-.215.179c-5.632 4.84-11.804 5.112-18.306 4.215-6.503-.898-13.261-3.01-19.828-2.791h-.088l-.09.031c-14.506 5.33-29.631 5.604-44.926 3.89l-.164-.023-.146.074c-11.42 5.49-28.67 8.873-42.528 8.82h-.133l-.109.06c-2.155 1.02-3.713 1.849-4.791 2.54-1.078.692-1.708 1.187-1.963 1.852-.128.332-.079.769.14 1.049.22.28.512.42.835.531.646.222 1.498.309 2.53.354 2.068.089 4.835-.034 7.509-.096 2.674-.062 5.265-.05 6.836.265l.256.053.209-.162c1.946-1.568 3.424-2.45 4.457-2.799 1.032-.347 1.51-.216 1.86.133.352.349.604 1.107.686 2.156.084 1.05.001 2.362-.13 3.75-.284 2.776-.839 5.856-.85 8.106 0 1.124.084 2.064.613 2.738.265.337.69.563 1.145.59.455.026.918-.104 1.437-.361l.4-.2-.095-.427c-1.35-6.342 1.06-12.832 4.96-16.477 1.951-1.822 4.255-2.928 6.638-3.012 2.367-.083 4.843.848 7.234 3.19.936 2.062 1.67 3.644 2.2 4.658.271.523.49.907.687 1.18.098.136.18.245.332.355a.68.68 0 0 0 .347.14.713.713 0 0 0 .516-.17c.242-.233.217-.411.232-.568v-.51a18.91 18.91 0 0 0-.234-1.55c-.227-1.212-.629-3.029-1.139-5.24 5.212-5.22 12.412-5.79 20.118-5.596 7.805.196 16.02 1.124 22.808-1.771v.008c7.104-2.79 12.093-1.093 15.526 2.966 3.432 4.06 5.216 10.607 5.373 17.46v.087l.039.08c.736 2.183 1.364 3.757 1.912 4.852.548 1.095.94 1.739 1.578 2.03.317.145.775.088 1.041-.134.265-.222.397-.501.502-.82.208-.637.296-1.485.318-2.516.091-4.122-.91-10.992-2.695-14.248v.016c-1.457-2.906-1.576-5.027-1.143-6.356.434-1.328 1.382-1.917 2.354-1.935.972-.019 1.996.55 2.555 1.883.558 1.332.62 3.473-.569 6.467v.053c-.744 2.626-.818 4.787-.517 6.392.298 1.605.938 2.722 1.927 3.072.495.175 1.071.074 1.498-.266.428-.339.74-.868.96-1.558.436-1.372.52-3.46.039-6.4v-.038c-.387-3.762.525-6.616 2.25-8.793 1.731-2.184 4.312-3.696 7.287-4.627 5.921-1.852 13.36-1.342 18.224.487.121.087.197.173.235.347.045.193.046.49-.037.872-.163.763-.63 1.83-1.3 3.07-1.34 2.48-3.48 5.668-5.513 8.99-2.032 3.323-3.965 6.784-4.902 9.922-.469 1.57-.69 3.06-.518 4.43.17 1.369.765 2.62 1.861 3.572l.776.672.154-1.018c2.799-18.657 16.314-33.774 35.078-33.123h.069l.068-.008c2.281-.453 3.91-.686 4.975-.73.532-.023.926.01 1.16.058.096.02.139.04.176.057-.003.007-.002 0-.006.01-.057.122-.213.336-.452.59-.478.506-1.279 1.173-2.26 1.912-1.96 1.478-4.643 3.284-7.093 5.123-2.45 1.839-4.67 3.677-5.758 5.404l-.494.783.924.088c2.635.249 5.466-.884 8.48-2.584 3.015-1.7 6.222-3.993 9.569-6.209 6.692-4.43 13.89-8.484 20.912-7.011l.052.015h.06c15.195 0 29.426 2.243 41.546 8.51v.016c1.512.708 4.086 1.06 7.064 1.389 2.978.328 6.323.598 9.155.974 2.831.377 5.194.949 5.957 1.541.189.148.268.276.295.364.037.087.037.17-.069.353-.185.367-.83 1.011-2.074 1.758l-.871.516.9.464c4.965 2.592 11.08 2.71 17.194 3.123 6.11.414 12.202 1.109 17.213 4.614.003.002 0 .004 0 .008 2.422 4.53 6.871 7.438 11.11 10.498 4.284 3.09 8.301 6.344 9.954 11.55-.303 3.172 1.277 5.643 4.086 7.598 2.841 1.979 6.941 3.56 11.898 5.256l.053.014.06.008c2.34.297 3.502.967 3.891 1.646.197.34.245.707.155 1.182-.091.475-.347 1.044-.752 1.66-1.567 2.385-5.478 5.409-9.715 8.01l-.598-.584v2.347l.62-.376c.564.411 1.15.764 1.712.85.708.107 1.362.056 1.95.081l.59.022v-.338c2.662-1.142 7.584-4.267 10.527-7.907 1.522-1.882 2.53-3.9 2.119-5.832-.41-1.93-2.25-3.499-5.825-4.466-6.96-2.045-10.987-7.395-15.199-12.91-4.144-5.427-8.53-10.943-15.99-13.258.395-2.037.15-3.875-.879-5.301-1.127-1.563-2.882-2.75-4.9-3.742-4.028-1.982-9.149-3.219-12.623-4.643-.622-.371-2.784-1.906-5.493-3.832-2.726-1.94-6.032-4.278-9.064-6.289-2.906-1.928-5.426-3.464-7.139-4.172a85.503 85.503 0 0 0-8.666-6.377c-5.01-3.246-10.45-6.75-14.011-9.906l-.088-.074-.102-.037c-7.309-2.442-14.984-6.817-22.795-10.084-7.768-3.25-15.711-5.415-23.592-3.36-17.858-2.823-35.929-4.383-54.03-4.799l-.016-.002a432.837 432.837 0 0 0-6.803-.101zm73.06 39.277c-.317.018-.654.1-1.016.207-.725.216-1.574.594-2.531 1.094-1.915 1-4.246 2.51-6.65 4.266-4.81 3.51-9.878 7.975-12.263 11.435l-.117.178.037.213c.042.357.22.727.54.924.32.196.677.195 1.011.13.668-.128 1.395-.526 2.274-1.099 1.756-1.146 4.044-3.04 6.496-5.166 4.904-4.251 10.504-9.435 13.154-11.014l.871-.525-.91-.465a1.679 1.679 0 0 0-.897-.178zm-222.503 13.71c-.064.003-.101.037-.162.042-6.096-.417-11.098 2.48-14.548 6.866-3.222 4.095-4.986 9.426-5.426 14.55-.528-1.35-1.008-2.811-2.149-3.173-1.603-.51-3.516-.096-5.47.81-3.91 1.812-8.087 5.66-10.18 9.442l-.256.472.457.281c.787.494 1.684.56 2.526.332.84-.227 1.653-.717 2.457-1.328 1.607-1.222 3.197-2.967 4.658-4.379.73-.705 1.426-1.326 2.045-1.748.618-.421 1.148-.62 1.506-.605.359.015.643.16.99.767s.668 1.663.885 3.249l.064.486h.494c2.995.002 5.045-1.655 6.512-3.994 1.467-2.34 2.459-5.373 3.572-8.407s2.342-6.065 4.186-8.365c1.844-2.3 4.26-3.894 7.922-4.17v-1.129c-.038-.003-.058.018-.088.014zm90.092 9.689-.062.002c-.2.023-.467.219-.545.414-.155.39-.038.567.06.797.17.459.507 1.037.975 1.75 1.698 2.587 5.15 6.459 8.135 8.584-15.088 1.535-29.287 5.92-44.174 8.851-19.73 1.748-37.996 10.942-57.682 10.823-7.097-.904-14.217-1.602-20.617-.252-6.411 1.352-12.095 4.81-16.111 12.076-10.212 12.467-17.476 19.978-24.244 34.865-.94.724-2.702 2.487-4.125 4.252-.735.912-1.351 1.773-1.662 2.518-.155.371-.275.73-.14 1.152.069.211.235.42.436.531.2.112.413.149.627.149h.207l.164-.135c12.953-10.907 21.126-28.31 33.004-39.832l.073-.067.045-.095c4.045-8.412 10.257-10.536 17.34-10.844 7.083-.308 14.952 1.346 21.923.576l.037-.008h.04c15.86-3.259 31.245-7.91 47.044-10.557 15.202-2.483 29.733-9.443 44.889-8.652h.045l.037-.008c16.391-1.56 31.171 4.626 45.791 10.277l.207.08.21-.08c14.13-5.707 29.922-7.067 45.337-8.15 18.43-1.015 39.554 3.665 56.207-7.441l.037-.022.04-.023c1.442-1.266 2.466-2.255 3.165-3.033.699-.778 1.097-1.293 1.196-1.891.049-.3-.06-.693-.317-.9-.257-.208-.53-.245-.805-.252-.55-.016-1.199.13-1.978.355-3.117.9-8.25 3.242-10.86 4.066l-.037.016-.037.016c-15.94 7.19-32.645 3.437-49.718 4.34h-.038c-15.199 1.76-30.92.961-45.48 6.578-6.354-5.835-14.598-6.551-22.469-7.375-8.002-.839-15.543-1.871-20.648-8.49v-.03c-1.416-1.565-2.503-2.694-3.315-3.469-.811-.774-1.28-1.19-1.755-1.388a.826.826 0 0 0-.452-.075zm-9.207 5.87c-.23-.003-.525.009-.767.304a.778.778 0 0 0-.164.51c0 .16.054.29.111.406.227.463.663.884 1.44 1.535.776.65 1.89 1.476 3.439 2.531l.053.04.052.02 3.838 1.58.04-.812c.037-.662-.285-1.264-.718-1.822-.432-.558-1.01-1.087-1.66-1.58-1.297-.986-2.863-1.826-4.09-2.303-.613-.238-1.113-.398-1.572-.406zm178.99 3.32c-.2.002-.416.018-.652.04-.942.092-2.188.323-3.63.643-5.773 1.281-14.571 3.998-17.505 5.181l-1.52.614 1.573.457c5.338 1.55 11.41.267 16.453-1.535l.04-.008.036-.016c2.42-1.182 4.081-2.084 5.14-2.768.528-.342.903-.62 1.173-.892a1.64 1.64 0 0 0 .332-.436.892.892 0 0 0 .06-.658.848.848 0 0 0-.443-.473 1.473 1.473 0 0 0-.486-.125h-.02a4.014 4.014 0 0 0-.55-.025zm28.01 4.314c-.564.015-1.31.178-2.242.427-3.735.999-10.24 3.526-13.62 5.317l-.833.441.783.526c4.2 2.815 10.204 3.823 16.305 5.115 6.101 1.292 9.762 6.637 14.32 10.313 3.934 3.316 6.437 8.342 8.955 12.772 1.26 2.216 2.53 4.287 4.024 5.912 1.492 1.625 3.235 2.809 5.388 3.166l.569.096.082-.569.326-2.095-.688.023c-.378.011-.48-.067-.613-.295-.132-.228-.215-.678-.178-1.248.08-1.14.617-2.73 1.426-4.082l.356-.584-.635-.236c-1.849-.7-2.917-1.351-3.604-1.971-.686-.62-1.016-1.218-1.408-1.934-.784-1.43-1.79-3.204-5.84-5.234-2.461-2.782-6.222-5.263-9.765-7.484-3.511-2.201-4.139-7.967-5.47-9.503.495-.755.942-1.477.835-2.112a1.697 1.697 0 0 0-.584-1.004c-.295-.249-.652-.411-1.049-.53-1.589-.479-3.95-.32-6.326-.08-2.376.238-4.753.586-6.06.618-.106.003-.148-.012-.235-.015.087-.069.117-.11.234-.192l.04-.015v-.014c2.02-1.109 3.51-1.99 4.539-2.666 1.039-.684 1.612-1.096 1.925-1.594a.886.886 0 0 0 .157-.48.802.802 0 0 0-.274-.576c-.31-.246-.556-.222-.838-.213zm-31.447 2.89c-1.644-.015-3.18.018-4.402.116-.605.048-1.13.109-1.567.197-.44.089-.786.176-1.093.406a.863.863 0 0 0-.362.576c-.038.27.09.51.223.664.264.31.619.487 1.144.71l.086.036.092.008c3.964.333 7.93.286 11.87.2 2.649-.087 4.32-.21 5.292-.354.486-.072.753-.083 1.078-.303a.643.643 0 0 0 .256-.302.686.686 0 0 0-.037-.56c-.155-.281-.307-.306-.443-.364-.549-.233-1.406-.351-2.643-.494a80.904 80.904 0 0 0-4.443-.362 107.514 107.514 0 0 0-5.051-.173zm-302.178 1.752c-2.097.052-4.48.479-6.45 1.53-1.884 1.004-3.33 2.685-3.669 5.02-.763.868-1.177 1.342-1.373 1.784-.049.113-.132.234-.053.518a.697.697 0 0 0 .309.377c.136.072.25.076.334.072.336-.015.452-.12.678-.242.9-.488 2.544-1.668 4.437-2.908 1.893-1.24 4.01-2.52 5.633-3.123.812-.302 1.5-.416 1.889-.348.388.068.521.165.613.693l.117.659.627-.223c1.07-.367 1.735-.703 2.12-1.232.192-.265.29-.635.198-.96-.094-.323-.313-.548-.56-.722-.492-.349-1.165-.555-1.992-.703-.827-.148-1.807-.217-2.856-.192z" color="#000" font-family="sans-serif" font-weight="400" overflow="visible" style="line-height:normal;font-variant-ligatures:normal;font-variant-position:normal;font-variant-caps:normal;font-variant-numeric:normal;font-variant-alternates:normal;font-feature-settings:normal;text-indent:0;text-align:start;text-decoration-line:none;text-decoration-style:solid;text-decoration-color:#000;text-transform:none;text-orientation:mixed;white-space:normal;shape-padding:0;isolation:auto;mix-blend-mode:normal;solid-color:#000;solid-opacity:1" transform="scale(.26458)"/>
</svg>
