<svg xmlns="http://www.w3.org/2000/svg" width="1278.065" height="1569.494" viewBox="0 0 338.155 415.262">
  <path fill="none" d="M0 0h338.667v415.256H0z" paint-order="fill markers stroke"/>
  <path class="hair" fill="#3b2516" d="M171.1 41.776c-3.67.023-7.34.22-10.987.578-4.63-.793-7.872 2.72-12.23 3.707-4.692 3.174-11.345 4.798-16.114 7.811-4.37 2.825-8.77 5.058-12.635 8.7-6.744 6.68-7.963 11.067-11.698 18.472-2.33 3.162-4.336 19.964-5.214 33.517-.79 12.18-.613 21.098.127 25.946.185 1.212 2.907 2.222 2.82 1.154-.078-.98 2.03-11.381 4.487-19.811 2.359-8.099 5.048-14.229 5.93-15.6.586-17.791.834-11.594 2.105-24.47.227-2.301 4.648-7.5 5.9-8.716 2.186-4.544 7.175-3.3 10.792-3.7 4.188-.86 7.032.13 11.225-.572 3.993-.652 3.36-1.465 7.42-1.253 4.383-.417 13.762 2.207 17.627 3.702 3.768-1.522 5.708-2.357 9.529-3.447 6.038-1.614 11.836-2.376 17.282-2.74.034.034.1.073.207.118 1.039.087 3.849.664 4.89.64.689-.022 1.1-.062 1.298-.113 2.33 1.279 4.13-.386 6.506 1.531.95 3.724 6.902 7.16 8.475 13.348.72 2.833 2.287 8.348 2.54 12.158.302 4.533.544 9.058 1.691 10.791 3.822 5.773 6.27 13.73 6.478 13.321.396-.157 1.379 17.81 2.567 20.494.267.603 1.453-.258 1.644-.428 1.322-1.178-.607-16.044.158-19.856 1.399-6.966-1.382-32.175-2.905-32.587 1.295-7.73-10.257-26.775-18.25-28.146-.506-.3-3.877-2.832-5.42-3.641-1.369-1.182-5.26-3.164-6.976-4.686-3.91-1.306-7.371-2.004-12.667-3.92-5.318-.842-9.639-2.264-15.032-2.303-.525-.004-1.05-.004-1.574 0z"/>
  <path d="M664.28 153.611c-5.107-.024-13.634.31-17.602.282-21.046-.584-36.472 3.233-54.303 5.554-15.597 2.03-47.518 16.662-60.963 25.028-19.266 9.606-23.566 11.43-41.607 23.449-19.935 8.745-39.888 24.8-53.828 42.107-20.332 25.773-30.337 46.738-39.133 79.367-8.17 29.008-7.814 29.778-10.266 55.334-2.567 26.757-3.824 79.243-3.945 103.899 3.273 13.567-.492 24.203.802 38.045-.364 4.06 1.215 7.504 5.567 8.082 3.643.765 7.646 4.703 11.05 2.574.404-15.543 7.108-50.586 14.726-75.438 9.645-31.463 21.908-55.977 22.08-60.32-.047-13.504 2.526-8.222 2.325-21.773.137-35.68.737-25.164 6.442-60.338-.39-1.881.356-5.924 1.113-9.713 5.826-15.05 13.8-26.05 22.877-36.764 10.288-14.744 23.323-8.008 43.522-10.375 20.198-2.366 35.715 1.198 60.51-5.037 19.67-3.12 53.386 3.615 71.349 11.682-14.378-9.208-55.74-18.316-75.35-15.682-28.551 7.26-50.812 3.503-80.23 6.684-19.086-.247-26.21 18.76-36.467 30.738-2.569 4.07-4.47 7.657-5.92 10.881-.588.674-1.476 2.056-2.767 4.37-5.27 31.92-6.247 13.672-8.141 46.005-1.928 22.303-.308 27.027.736 49.322-21.004 29.498-39.129 122.936-39.377 132.492l-9.96-3.962c-1.919-26.354 2.134-52.493.113-78.836.513-26.687 1.905-67.464 8.097-94.506 2.17-39.459 21.122-70.494 38.184-96.843 20.006-30.898 46.721-47.601 79.172-60.142 18.397-6.771 39.655-24.516 58.566-28.392 56.585-11.6 81.712-26.652 197.053 19.584l35.445 21.912c49.56 29.638 56.575 63.332 68.976 106.38 7.524 26.702 9.615 85.73 7.765 113.792-.715 26.411 2.636 54.714 2.025 81.13.79 3.252-.502 2.968-3.752 4.452-7.097-11.929-2.7-49.95-12.01-80.08-7.885-25.518-24.125-46.508-24.59-48.205-3.052-11.143.309-11.468-2.72-33.649-3.438-31.7-2.294-19.345-8.91-49.93l-.003-.002c-.104-.48-.188-.883-.294-1.373-.178.014-.316.006-.48.014-10.894-17.572-31.176-48.476-30.612-55.137-13.1-4.02-28.163-1.159-23.637-.33 2.318.184 13.658 2.129 16.658 4.85 13.152 11.932 29.265 46.415 35.446 57.324 6.75 32.42 6.349 15.16 8.116 48.257.469 13.544 1.711 17.325 6.436 29.976 2.619 7.01 16.623 28.104 23.382 50.028 9.181 29.785 2.282 66.706 10.81 81.645 2.3-.72 1.174-1.012 4.775-1.957 4.318-.792 5.86-5.472 5.295-9.51.608-13.889-3.596-53.037-.998-66.75 4.305-42.273-4.927-100.879-8.105-123.097-5.753-41.563-22.7-77.04-65.817-106.418-13.562-10.506-26.22-19.967-41.64-27.068-31.745-14.62-72.386-31.663-104.03-33.577a64.85 64.85 0 0 0-1.957-.035zm-19.284 115.645c3.582-1.22 7.091-2.62 10.568-4.076a518.827 518.827 0 0 0-10.568 4.076zm10.568-4.076c22.966-8.563 47.389-15.58 70.944-16.63 12.493-2.23 29.357-3.536 9.678-2.544-11.103.56-31.665 3.648-39.188 6.13-14.674.675-27.788 7.328-41.434 13.044zm104.061-18.778c-19.527 1.127 10.935 6.554 12.137 1.03-3.972-.904-8.087-.903-12.137-1.03z" color="#000" font-family="sans-serif" font-weight="400" overflow="visible" style="line-height:normal;font-variant-ligatures:normal;font-variant-position:normal;font-variant-caps:normal;font-variant-numeric:normal;font-variant-alternates:normal;font-feature-settings:normal;text-indent:0;text-align:start;text-decoration-line:none;text-decoration-style:solid;text-decoration-color:#000;text-transform:none;text-orientation:mixed;white-space:normal;shape-padding:0;isolation:auto;mix-blend-mode:normal;solid-color:#000;solid-opacity:1" transform="scale(.26458)"/>
</svg>
