<?xml version="1.0" encoding="UTF-8" standalone="no"?>
<!-- Created with Inkscape (http://www.inkscape.org/) -->

<svg
   xmlns:dc="http://purl.org/dc/elements/1.1/"
   xmlns:cc="http://creativecommons.org/ns#"
   xmlns:rdf="http://www.w3.org/1999/02/22-rdf-syntax-ns#"
   xmlns:svg="http://www.w3.org/2000/svg"
   xmlns="http://www.w3.org/2000/svg"
   xmlns:sodipodi="http://sodipodi.sourceforge.net/DTD/sodipodi-0.dtd"
   xmlns:inkscape="http://www.inkscape.org/namespaces/inkscape"
   width="338.15475mm"
   height="415.26193mm"
   viewBox="0 0 338.15475 415.26193"
   version="1.1"
   id="svg8"
   inkscape:version="0.92.3 (2405546, 2018-03-11)"
   sodipodi:docname="Fronthair02.svg">
  <defs
     id="defs2" />
  <sodipodi:namedview
     id="base"
     pagecolor="#ffffff"
     bordercolor="#666666"
     borderopacity="1.0"
     inkscape:pageopacity="0.0"
     inkscape:pageshadow="2"
     inkscape:zoom="0.49497475"
     inkscape:cx="195.57505"
     inkscape:cy="764.31483"
     inkscape:document-units="mm"
     inkscape:current-layer="layer1"
     showgrid="false"
     inkscape:window-width="1920"
     inkscape:window-height="1001"
     inkscape:window-x="-9"
     inkscape:window-y="-9"
     inkscape:window-maximized="1"
     inkscape:snap-global="true"
     showguides="true"
     fit-margin-top="0"
     fit-margin-left="0"
     fit-margin-right="0"
     fit-margin-bottom="0" />
  <metadata
     id="metadata5">
    <rdf:RDF>
      <cc:Work
         rdf:about="">
        <dc:format>image/svg+xml</dc:format>
        <dc:type
           rdf:resource="http://purl.org/dc/dcmitype/StillImage" />
        <dc:title />
      </cc:Work>
    </rdf:RDF>
  </metadata>
  <g
     inkscape:label="Ebene 1"
     inkscape:groupmode="layer"
     id="layer1"
     transform="translate(1355.1667,-269.28568)">
    <rect
       style="opacity:1;fill:none;fill-opacity:1;fill-rule:evenodd;stroke:none;stroke-width:0.99999988;stroke-linecap:round;stroke-linejoin:miter;stroke-miterlimit:4;stroke-dasharray:none;stroke-dashoffset:0;stroke-opacity:1;paint-order:stroke fill markers"
       id="rect1307"
       width="337.15475"
       height="414.26193"
       x="-1354.6667"
       y="269.78568"
       inkscape:label="Frame" />
    <path
       style="display:inline;fill:#502d16;fill-opacity:1;stroke-width:1"
       d="m -1164.3038,308.0042 c -1.9521,-0.006 -3.936,0.22545 -5.948,0.74156 -10.1457,2.22041 -18.3438,8.05486 -28.5269,3.24321 -9.864,-1.86142 -20.5699,-1.24576 -29.3264,4.14755 -7.3424,6.35336 -14.0493,13.81122 -18.7188,22.41259 -11.5968,16.85064 -17.7359,36.50715 -23.3692,55.95937 -3.41,15.0912 -9.7802,30.57879 -5.6601,46.2349 0.8007,9.52846 10.2804,14.86345 12.9176,23.41718 1.0079,5.57663 3.8479,13.7261 -1.3731,17.8847 1.8126,4.9899 11.7211,-0.42547 16.3189,1.48621 2.9518,-5.60252 5.4048,3.42284 9.553,4.43952 l 6e-4,5.3e-4 0.7136,0.53847 c 7.4254,0.72169 25.1294,-9.52445 13.6503,-15.6037 -6.5058,6.16306 -11.2185,-2.35033 -14.5319,-7.22074 -4.6358,-7.64795 -6.849,-16.27752 -6.3572,-25.21087 -1.8285,-14.52843 3.2303,-28.58303 4.516,-42.92503 4.2686,-16.07833 4.7909,-33.53683 13.2808,-48.29266 4.2002,-8.60052 11.842,-15.89477 20.8696,-18.82624 8.3289,-2.39592 16.6088,2.494 24.6351,0.39688 8.1162,1.67313 16.0118,-4.74058 23.0436,2.65875 11.7576,9.14735 18.8238,22.85183 24.7855,36.23706 4.9883,15.49952 6.73,31.82301 7.6191,48.02498 -0.104,8.08847 -0.6206,15.92054 -0.5286,23.90707 -1.9316,9.33117 -5.5668,18.33004 -11.8458,25.65476 -4.5405,8.32109 -13.9017,10.58915 -22.6156,10.83138 -1.4482,9.56765 11.1758,9.671 17.7616,7.37681 8.63,-2.38641 15.3172,-8.25061 24.0275,-8.19071 2.2885,-0.9696 3.1153,-1.76732 3.0489,-2.22622 6.725,0.9867 5.7967,-6.3334 4.5641,-10.57093 2.0968,-1.46151 9.1683,-1.84002 8.9152,-6.95152 10.9931,0.95803 -6.5372,-8.0373 0.7369,-13.82344 4.0895,-8.41573 10.5438,-15.90899 10.5668,-25.7638 0.2385,-10.77502 -2.9788,-21.39161 -5.9087,-31.68592 -3.6377,-10.59849 -7.4112,-21.24151 -12.2287,-31.37122 -8.5154,-11.40239 -15.5374,-24.08059 -26.3131,-33.6243 -8.1154,-6.32743 -17.7314,-13.27399 -28.2726,-13.30616 z"
       id="path2969"
       inkscape:connector-curvature="0"
       inkscape:label="Vorderhaar" />
    <path
       style="display:inline;fill:#000000;stroke-width:1"
       d="m -1164.3038,308.0042 c -1.9521,-0.006 -3.936,0.22544 -5.9479,0.74155 -10.1457,2.22041 -18.3439,8.05487 -28.527,3.24322 -9.864,-1.86142 -20.5698,-1.24576 -29.3263,4.14755 -7.3424,6.35336 -14.0493,13.81121 -18.7188,22.41258 -11.5967,16.85064 -17.7358,36.50716 -23.3691,55.95938 -3.41,15.0912 -9.7802,30.57878 -5.6601,46.2349 0.8007,9.52846 10.2803,14.86345 12.9175,23.41717 1.0079,5.57663 3.848,13.7261 -1.373,17.8847 1.8126,4.9899 11.7211,-0.42546 16.3189,1.48622 2.9517,-5.60252 5.4047,3.42284 9.5529,4.43952 l 5e-4,5.3e-4 0.7137,0.53847 c 7.4254,0.72169 25.1294,-9.52445 13.6503,-15.6037 -6.5058,6.16306 -11.2185,-2.35033 -14.5319,-7.22075 -4.6358,-7.64795 -6.8491,-16.27752 -6.3573,-25.21086 -1.8285,-14.52843 3.2303,-28.58303 4.516,-42.92503 4.2686,-16.07833 4.791,-33.53683 13.2809,-48.29266 4.2002,-8.60052 11.8419,-15.89477 20.8695,-18.82624 8.3289,-2.39592 16.6089,2.49399 24.6352,0.39687 8.1162,1.67313 16.0118,-4.74058 23.0436,2.65876 11.7577,9.14735 18.8238,22.85183 24.7855,36.23706 4.9883,15.49951 6.7301,31.82301 7.6192,48.02497 -0.104,8.08847 -0.6207,15.92054 -0.5287,23.90707 -1.9316,9.33117 -5.5667,18.33005 -11.8457,25.65477 -4.5405,8.32109 -13.9017,10.58915 -22.6157,10.83138 -1.4482,9.56765 11.1759,9.671 17.7617,7.37681 8.63,-2.38641 15.3172,-8.25062 24.0275,-8.19072 2.2884,-0.9696 3.1153,-1.76732 3.0489,-2.22622 6.725,0.9867 5.7966,-6.3334 4.564,-10.57093 2.0968,-1.46151 9.1684,-1.84001 8.9153,-6.95151 10.9931,0.95803 -6.5372,-8.03731 0.7369,-13.82345 4.0895,-8.41573 10.5438,-15.90899 10.5668,-25.7638 0.2385,-10.77502 -2.9788,-21.39161 -5.9087,-31.68592 -3.6377,-10.59848 -7.4112,-21.2415 -12.2287,-31.37121 -8.5154,-11.40239 -15.5375,-24.0806 -26.3132,-33.62431 -8.1153,-6.32743 -17.7313,-13.27398 -28.2727,-13.30616 z m 2.5456,2.15749 c 0.5328,-0.006 1.0662,-0.004 1.601,0.005 14.3158,4.36228 25.7844,14.92205 34.8852,26.4573 5.8401,7.17401 11.6291,14.75094 15.6703,23.08696 6.2836,18.75154 15.2042,37.35578 15.2161,57.50347 -0.1516,14.09624 -10.8967,24.47321 -16.3478,36.67838 -0.6207,1.96449 -8.6723,12.90422 -4.1853,9.57254 0.8299,-0.67742 3.444,9.55458 -1.5043,11.48044 -0.4031,-0.5383 -2.5382,-0.32122 -4.7185,1.1653 -8.8795,2.71542 0.4478,-2.75128 1.6562,-6.40323 -3.7135,-1.25834 -9.0192,10.11622 -15.2843,10.16062 -6.9552,2.65225 -16.7435,7.80704 -23.2534,2.82464 -1.4451,-1.42613 -2.3593,-2.96458 -1.6394,-3.07057 3.1643,-0.4659 17.439,-0.0989 20.0657,-7.61457 4.886,-6.39739 10.3512,-12.69483 13.2803,-20.14606 5.3443,-16.04435 2.5653,-33.02783 0.8072,-49.42334 -1.8899,-10.28666 -2.4008,-20.82292 -5.101,-30.92266 -4.5426,-12.09219 -10.9252,-23.74978 -19.4278,-33.51475 -1.3653,-4.57335 -19.8228,-11.68396 -12.592,-11.25306 5.5108,1.96111 6.2024,1.37784 0.8997,-1.49396 -7.3514,-0.22188 -15.4315,5.36984 -23.6895,3.96461 -9.0112,-1.69474 -18.3238,-1.19729 -27.5037,-1.00304 3.4104,2.70941 -5.5577,5.26398 -7.5257,8.94416 -10.5523,11.53884 -15.6143,26.71574 -19.0443,41.69306 -3.2237,8.76874 -3.4522,18.07911 -4.9521,27.18232 -3.1816,11.34579 -3.779,23.15909 -3.1275,34.88624 -0.7198,12.90552 4.4893,25.88832 14.0048,34.64595 2.1602,5.1653 14.8169,2.52815 4.4793,1.33997 8.5002,-6.94951 7.6622,8.14628 -1.0288,6.9727 -6.0685,5.20142 -11.0288,-2.42017 -15.9458,-5.26789 -7.6195,-7.98204 -14.1868,-16.9995 -20.9373,-25.66303 -6.6918,-10.43137 -8.9515,-23.40722 -6.1133,-35.47639 4.9668,-20.04029 10.0084,-40.25472 18.3503,-59.23721 7.055,-13.45588 13.915,-27.62396 25.1225,-38.18734 7.208,-7.57863 18.352,-9.09731 28.1533,-6.87503 5.2672,-0.47168 15.7856,9.97128 16.7401,2.39262 7.2323,-3.5026 14.9976,-5.31594 22.9898,-5.40432 z m -4.2163,2.82618 c -0.5183,0.006 -1.0428,0.0346 -1.574,0.0858 -4.9531,0.49035 -16.0122,2.90849 -15.735,7.47189 8.0907,-3.90919 18.0898,-8.84178 26.757,-3.70727 7.4099,4.53064 15.9974,7.89303 21.638,14.75362 5.1402,6.43755 -2.2315,-3.90484 -4.208,-4.59765 -8.3997,-5.33263 -16.3386,-14.13774 -26.878,-14.00638 z m -47.7144,0.72554 c -4.7029,0.0867 -10.7642,3.90943 -13.3883,8.4584 -11.7695,14.42005 -18.0685,32.27637 -21.931,50.27651 4.8529,-14.08151 9.491,-28.58276 17.138,-41.39799 4.7343,-7.1667 9.7171,-16.77583 19.5921,-17.2408 -0.4521,-0.0743 -0.9242,-0.10509 -1.4108,-0.0961 z m 7.3758,1.00821 c -6.2783,-0.0239 -12.3348,4.62628 -16.2248,9.55755 -8.3256,11.91988 -14.9968,25.32987 -18.9291,39.38985 l 0.4589,-0.49093 0.8335,-1.50844 c 7.033,-15.33011 12.5329,-33.56409 27.8521,-42.74467 8.3203,-3.51756 16.2861,1.82124 23.7722,4.89582 -0.2411,-2.72156 -8.1811,-5.46916 -11.4825,-7.35459 -2.07,-1.2092 -4.1875,-1.73664 -6.2803,-1.74459 z m 40.0115,2.84168 c -6.3565,-0.001 -13.7299,1.92948 -16.4062,5.10408 7.6383,-3.18614 17.509,-5.40516 24.9173,-0.64802 13.8725,10.4259 26.3416,23.5112 33.8486,39.30458 5.3979,10.16113 5.0104,21.89963 8.0781,32.70808 h 5e-4 c 2.6634,9.04185 -0.4607,-6.50643 -0.031,-8.35298 -1.7858,-9.91965 3.9601,1.62948 4.7785,5.04982 -0.3934,-4.65414 -3.4259,-15.96463 -7.0502,-22.22035 -4.5766,-10.18848 -8.1473,-21.27408 -16.8506,-28.85043 -7.0531,-9.08636 -15.6059,-17.10349 -26.3101,-21.62452 -1.4949,-0.31846 -3.195,-0.46988 -4.9749,-0.47026 z m 34.5152,37.43906 c -0.058,0.0443 3.5657,7.11292 3.7812,10.26759 3.5059,9.84211 3.4247,20.4218 6.4017,30.39866 2.3837,11.04088 3.9584,22.29373 4.5609,33.54421 0.4009,8.71147 -1.4259,17.19725 -5.1759,25.03413 -0.2193,0.49604 -0.439,0.99173 -0.6583,1.48776 6.5012,-7.86346 7.2752,-18.28163 6.9313,-28.05513 -0.8615,-11.90804 -2.119,-23.85174 -4.2819,-35.59008 -1.2203,-11.52248 -4.2582,-22.82692 -9.3746,-33.2574 -1.575,-2.78912 -2.1616,-3.84708 -2.1844,-3.82974 z m 8.4109,23.92671 c 0.2114,0.0768 0.6073,1.30257 0.9653,4.07778 0.4632,2.85269 0.01,3.11894 -0.3948,0.47129 -0.8093,-2.84746 -0.8423,-4.64776 -0.5705,-4.54907 z m 2.2484,4.16202 c -0.023,-0.008 -0.054,0.0995 -0.094,0.41289 0.1438,1.11937 0.1749,-0.38448 0.094,-0.41289 z m 16.5566,1.52548 c -0.3235,-0.11046 0.984,5.65509 1.4485,7.97471 1.1188,9.51276 3.4985,19.26357 1.8382,28.80238 0.4053,-0.26729 1.5696,-3.56667 1.7285,-4.82658 0.6334,-9.42145 -0.3636,-19.48933 -3.7377,-28.56312 -0.7743,-2.40114 -1.1509,-3.34416 -1.2775,-3.38739 z m -161.0377,17.13694 c -0.023,0.0166 -0.054,0.10158 -0.091,0.29507 0.1627,0.83846 0.1931,-0.36713 0.091,-0.29507 z m 158.3557,1.82935 c -0.1293,-0.0187 -0.258,0.11144 -0.3829,0.42374 -0.3928,6.04108 1.9584,10.58369 1.1896,16.45585 -1.8526,10.76946 -2.6582,21.99993 -7.6538,31.94533 -5.5215,10.04989 -13.3937,19.21264 -23.8879,24.12049 -7.083,2.97021 0.572,1.58346 3.5103,-0.28215 8.9436,-4.71364 14.7051,-13.25774 20.237,-21.49998 7.4472,-11.39939 8.7075,-25.29553 8.7075,-38.56405 0.4373,-2.39892 -0.6664,-12.44706 -1.7198,-12.59923 z m -158.721,0.67799 c -0.2494,0.0895 -2.1999,7.36265 -2.6128,10.09344 -4.2029,14.0215 1.4117,28.55015 8.6734,40.52208 4.1538,5.04446 -1.5418,-5.71849 -1.9182,-6.61924 -6.5622,-12.16457 -9.4967,-26.76615 -4.8251,-40.09884 0.6174,-2.86725 0.7803,-3.93248 0.6827,-3.89744 z m 161.2852,46.31965 c 0.4897,0.0119 0.7433,0.61568 0.5834,2.0867 5.1158,4.50101 -1.5196,4.34849 -4.3981,8.20157 -6.395,3.34095 1.4553,-10.34539 3.8147,-10.28827 z m -154.0562,16.65377 c 0.189,0.0199 0.4477,0.40207 0.7958,1.26245 1.7873,2.69142 11.5278,11.47172 8.5581,11.21947 -4.7394,-3.27114 -1.8245,-2.20372 -2.1461,1.19941 -3.0657,1.65457 -4.695,-1.98525 -7.5633,0.03 0.6343,-0.42793 -0.7997,-13.83281 0.3555,-13.71131 z"
       id="path2905"
       inkscape:connector-curvature="0"
       inkscape:label="Kontur_Vorderhaare"
       sodipodi:nodetypes="ccccccccccccccccccccccccccccccccccccccccccccccccccsccccccccccccccccccccccccccccccccccccccccccccccccccccccccccccccccccccccccccccccccccccccccccccccccccccccccccccccc" />
  </g>
</svg>
