<svg xmlns="http://www.w3.org/2000/svg" width="1278.714" height="1568.173" viewBox="0 0 338.326 414.913">
  <path class="hair" fill="#3b2516" d="M110.712 307.652c-6.595-4.465-10.094-12.862-14.654-19.949-6.327-22.925-4.152-47.11-2.483-70.52 2.77-14.606 1.121-29.443-1.706-43.88-.854-9.973-2.165-20.078-1.884-30.074 2.74-18.54.99-30.133 9.539-47.101 3.184-9.663 9.988-27.066 17.497-34.429 5.132-8.193 15.357-14.214 25.023-15.587 6.236-.725 12.5.322 18.525-.226 4.476-.406 9.446-1.376 13.73-3.559 9.557-1.565 19.467.08 27.217 5.848 16.014 14.384 30.01 33.996 37.767 53.793 6.275 19.023 10.598 40.341 13.38 60.11-.442 22 5.958 42.931-.686 64.595-5.012 19.995-13.234 39.238-20.976 58.26-.064-3.426-6.941 9.144-3.331-.332 3.068-10.219-8.754 7.674-13.655 7.903-6.469 9.265-16.08 8.975-25.441 13.802-3.441 1.186-13.223 3.306-5.645-1.72 2.669-3.647 16.692-13.644 15.913-14.621-3.735 3.376-17.279 8.912-8.82 1.589 4.096-4.3-13.6 1.278-4.826-5.182 9.917-4.988 12.711-9.706 16.013-18.474 4.666-12.372.793-26.317 3.946-38.973 2.066-15.186 6.677-31.284 12.904-45.652 4.915-9.955 7.409-22.07 8.525-33.447.321-13.044-2.814-25.815-7.863-37.768-6.229-17.337-10.37-39.782-23.91-49.642-3.318-2.417-9.76-6.769-16.573-6.631-7.472 1.228-12.779-2.963-19.671.935-13.86 7.579-26.277 17.954-36.506 29.928-8.185 12.339-5.795 27.875-9.331 41.608-.459 16.485-1.455 33.882 5.904 49.146 4.333 15.335 11.117 29.921 10.44 46.32 1.608 13.574-6.207 26.21-10.419 38.608-3.886 14.007-8.32 28.571-5.222 43.226 3.742 6.127 2.405 6.86-2.72 2.096z"/>
  <path fill="none" d="M0 .651h337.155v414.262H0z" paint-order="stroke fill markers"/>
  <path fill="#010101" d="M181.404 41.633c-2.438-.01-5.372-.194-7.663.588-4.17 1.422-9.094 2.432-13.158 2.945-5.017-.215-11.919.175-18.975.945-10.299 1.373-18.775 6.979-25.271 14.482-7.066 8.162-11.133 18.245-15.485 27.516-8.184 17.434-8.973 36.58-11.892 55.12-.3 9.995 1.097 20.1 2.008 30.074 3.012 14.437 4.768 29.273 1.818 43.88-1.779 23.41-4.096 47.595 2.645 70.52 4.858 7.086 8.586 15.483 15.613 19.948 5.462 4.765 6.886 4.031 2.9-2.096-3.302-14.655 1.423-29.219 5.563-43.226 4.487-12.398 11.686-25.033 9.972-38.608.722-16.399-5.551-30.984-10.168-46.32-7.84-15.263-6.78-32.66-6.29-49.145 3.767-13.734 1.22-29.27 9.941-41.61 10.9-11.973 21.854-22.348 35.714-29.927 5.665-2.764 6.152.123 18.16.548 8.17-.067 11.995 2.017 16.962 6.212 14.903 12.586 17.75 31.145 24.33 48.579 5.502 11.953 8.918 24.723 8.569 37.767-1.217 11.378-3.934 23.493-9.289 33.448-6.785 14.368-11.798 25.333-12.322 44.515-3.435 12.656.983 25.867-4.1 38.24-3.598 8.767-4.875 15.356-15.68 20.344-9.56 6.46 9.144.88 4.681 5.181-9.217 7.323 3.606 2.98 7.676-.396.848.977-11.956 9.782-14.624 13.429-7.579 5.025 2.197 2.906 5.947 1.72 10.199-4.828 17.686-3.923 24.734-13.188 5.34-.23 17.171-18.736 13.828-8.518-3.934 9.476 3.559-3.093 3.63.332 8.435-19.021 16.817-38.264 22.277-58.259 7.24-21.664-.614-44.065-.131-66.066-3.031-19.768-6.286-39.616-13.123-58.64-8.452-19.797-19.665-39.409-37.114-53.793-6.333-4.326-14.368-6.51-21.683-6.54Zm1.339 1.304c1.376.006 2.495.162 3.178.524 18.924 2.759 29.55 19.28 38.662 33.069 13.444 19.188 19.075 41.62 24.02 63.663 1.526 8.461 4.413 18.382 2.903 26.268-.484 12.854 3.279 25.53 2.768 38.43 1.369 12.466-2.88 24.052-6.804 35.718-3.572 12.597-7.114 20.714-12.487 32.311-1.843 3.98-5.41 9.917-5.724 10.134-.373.258 1.254-6.306.765-5.848-2.274 2.128-5.442 5.824-6.232 5.598 6.554-13.164 14.118-26.279 16.619-40.723-5.444 13.423-9.922 27.405-18.594 39.536-2.306 4.771-13.97 16.436-15.149 14.698-.017-1.207-12.503 8.476-18.59 8.667-8.398 2.676 1.408-3.584 3.142-5.272 10.386-5.932 13.944-17.682 23.036-24.898 7.907-9.52 18.517-39.997 19.8-52.048-1.353-.362-10 37.522-15.736 43.496-5.394 9.758-14.404 17.13-25.933 20.303-14.715 4.228 7.172-6.015 6.303-12.077 5.817-8.864 7.681-18.786 6.697-28.943.587-16.002 1.549-32.167 7.206-47.301 6.086-11.459 11.014-23.346 14.132-35.787-.164 8.34-3.065 18.391-2.993 26.006 5.98-16.78 5.635-34.905 4.489-52.357-1.207-12.376-8.784-23.162-12.383-35.013-7.148-16.5-9.222-34.486-27.96-43.03-3.32-5.084-18.932-.584-15.82-3.553-1.224-.44-6.877-1.005-12.415.036-4.006-1.414-6.896-.617-9.147.237-10.224 3.878-19.887 8.106-25.168 18.54 6.824-8.405 14.476-15.127 29.529-18.101.667-.132 3-.352 3.124.662-5.25 2.514-16.825 10.333-23.668 16.771-4.838 3.36-9.057 8.585-12.442 13.12.399-3.383.56-3.508 2.212-7.917.467-1.247-.863.277-2.127 2.81-1.26 2.525-2.452 6.056-2.936 7.192-1.707 4.004-3.653 8.833-4.17 13.362-2.268 18.232-4.408 36.665-2.583 55.032 2.909 14.412-5.46-2.058-5.475-7.74-3.022-15.06-1.641-28.018 1.044-42.84 2.875-11.853 8.654-19.129 14.295-29.463 5.585-9.138-2.772 2.275-4.12 4.981-5.745 10.162-8.973 13.196-11.466 23.048-4.764 19.449-4.17 40.953 4.793 59.64 6.79 16.43 12.16 32.75 15.32 50.228 3.248 12.774 0 25.738-4.745 37.764-2.357-1.214-.371-16.054-2.848-21.727-3.272-18.696-12.79-35.614-18.24-53.677-4.528-14.064-5.228-28.972-6.301-43.564-1.682 2.774-.686 12.905-.443 18.251 1.81 12.91 3.282 26.012.978 38.972-1.169-15.547-5.16-30.992-5.136-46.692 2.967-12.49 2.815-29.737 8.03-41.513 7.154-16.152 8.997-30.734 23.123-43.284 9.445-11.157 26.613-14.298 39.681-11.495 8.704-3.638 6.403.483 1.867 1.308-.885.332-1.89.584-1.866 1.523 3.076-.434 7.591-.674 10.16-3.33-4.802-.946 5.863-3.732 11.825-3.705zm-5.565 2.488c-5.177.005-.47 1.306 4.798 1.808 15.266 2.51 26.753 15.515 36.579 26.797.853.995 1.638 2.054 2.665 2.914-9.167-14.374-23.463-29.446-41.19-31.436a57.623 57.623 0 0 0-2.852-.083zm-32.99 3.19c.222.303 12.411.18 12.414.393.024 1.799-6.715.369-11.56 2.027-10.923 2.664-21.42 12.879-26.978 22.157-1.922 3.532-1.848 4.647-1.388 3.757 2.777-5.383 9.188-14.946 13.752-17.566 6.247-3.587 16.975-9.98 27.187-7.238-.39-1.096-.193-1.598 1.126-1.912.832-.366.742-.732 0-1.099.316-2.334-12.703-1.177-14.553-.52zm30.414.062c-5.187.07-16.37 3.345-11.16 4.147 2.015-1.736 5.636-2.53 8.944-2.798 6.331-.512 13.73 1.855 19.415 5.803 4.06.633-11.813-7.494-15.456-6.917-.396-.175-1.002-.245-1.743-.235zm66.43 71.467c2.562 9.788 4.955 20.17 5.73 30.41-.151 17.311 1.438 34.58 1.402 51.874-1.822 19.105-5.068 27.669-4.555 28.584.277.493 5.146-13.845 6.116-23.624 1.244-18.402-.426-36.879-1.52-55.264-1.92-10.65-2.32-22.168-7.174-31.98zM98.322 176.303c2.302 1.04 3.806 13.847 7.821 18.799 9.416 22.59 18.059 47.918 10.272 72.051-4.414 12.575-8.685 26.86-3.315 39.803l.514 1.328c-7.217-7.429-6.856-18.01-7.736-27.427-.095 7.565-.514 15.426 2.626 22.556-6.575-7.526-9.096-18.222-7.844-27.834.227-13.329 8.595-25.26 8.11-38.54-3.362 12.674-8.51 25.048-9.838 38.16-2.353 2.998 2.98 22.858-1.058 12.754-7.11-16.05-4.637-34.92 3.037-50.484-1.163-1.696-6.81 14.31-8.145 19.254-1.821 7.445.662-11.323 2.69-13.559 7.153-12.672 7.602-27.257 7.032-41.257-.236-10.04-1.594-2.086-1.322 3.35.157 13.413-3.05 26.525-7.756 39.081-2.453 12.39-1.396-1.18-1.147-6.556 2.755-20.427 5.287-40.89 6.059-61.48zm5.63 16.675c-.433-.131-.475 9.359-.05 12.28 1.016 13.898 1.149-4.552.67-7.595-.255-3.331-.463-4.638-.62-4.685zm116.992-.71c-.642-.045-1.019 8.188-2.246 11.51-3.729 15.059-6.716 30.978-5.744 46.697l.43-.44c1.145-11.823 1.679-23.78 4.523-35.43.945-4.327 6.478-22.943 2.994-18.311-.058-1.396.24-4.013.043-4.026zm-14.977 89.6c.174-.066-.507 1.15-2.85 4.774-5.885 7.161 2.33-4.575 2.85-4.774zm-2.87 1.332c.086-.003.147.018.178.063.206.295-2.272 3.133-4.438 5.142l-1.233.923c-2.075 1.28-9.097 5.26-8.414 4.676 3.906-3.336 2.805-4.896 3.297-5.722.508-.855 2.084-1.287 3.589-1.883 2.888-1.145 6.18-3.183 7.02-3.2zm-5.656 4.095c-.085-.045-1.303.881-3.4 2.915 2.438-1.854 3.485-2.87 3.4-2.915z"/>
</svg>
