<svg xmlns="http://www.w3.org/2000/svg" width="1278.065" height="1569.494">
  <path fill="none" d="M0 0h1278.065v1569.494H0z" paint-order="fill markers stroke"/>
  <path class="hair" fill="#3b2516" d="M565.019 163.072c-22.22-.08-43.721 7.289-62.247 19.634-25.35 11.905-42.9 36.612-60.844 57.441-25.262 36.811-43.089 77.713-48.1 122.546-7.615 35.343-10.335 68.706-12.85 104.722-.21 18.628-9.56 36.86-2.519 53.345 10.999-.118 19.942 18.783 21.615 5.425 10.093-30.986 10.708-64.127 21.031-95.115 4.294-22.778 12.248-50.013 18.334-69.133 4.536-17.1 16.523-40.89 25.827-59.52 12.024-18.688 33.314-28.31 47.776-45.159 15.111-17.693 36.63-28.474 59.675-29.468 17.021 2.291 36.118-21.505 44.37-25.321 15.357 20.1 38.337 19.47 60.42 21.611 29.185-2.394 63.666 6.377 81.013 30.246 38.652 45.887 67.946 107.664 92.7 161.888 13.323 33.824 15.014 67.744 25.8 102.23 15.11-20.611 18.948-20.586 31.064-10.253 8.249-22.131-5.117-39.817 2.17-62.96 6.075-49.115-12.723-96.373-35.522-138.783-17.997-34.628-41.951-66.243-68.757-94.57-20.143-19.204-44.474-34.602-72.17-39.784-14.635-3.823-29.121-8.862-44.466-7.103-12.906.662-26.32-1.261-38.9 1.053-13.98 4.937-29.113 16.426-42.896 4.835-13.667-4.569-28.041-7.95-42.524-7.807z"/>
  <path d="M396.219 533.15c8.116-41.403 12.852-83.455 25.181-123.981 9.688-37.877 27.183-73.319 41.707-109.527 6.047-12.572 32.674-60.507 25.58-26.608 26.365-22.374 51.899-52.539 90.317-49.918 15.524.95 34.936-30.388 9.953-16.35-18.162 3.794-69.517 10.99-63.413 10.616 24.22-18.148 70.55-3.9 86.001-27.932-4.013-34.056-57.118-21.238-81.358-16.277-26.08 16.655-53.911 29.213-72.743 55.021-31.553 40.894-53.786 89.797-58.058 141.675-7.617 42.444-12.44 85.404-16.055 128.36 5.224 17.133-10.729 38.22-7.274 8.015 4.57-53.952 8.062-108.057 19.271-161.156 11.777-62.506 46.197-122.087 98.648-158.989 30.71-20.504 69.312-30.44 105.511-19.42 20.319 14.6 39.764 3.164 60.248-2.482 24.155.687 48.874-3.082 71.998 5.734 59.778 9.813 98.865 61.095 130.23 108.413 31.774 51.958 60.22 112.035 50.378 174.664-5.663 13.61 5.209 63.382-4.257 55.183-6.337-30.98-1.738-60.768.72-91.296-4.889-52.14-32.971-97.074-57.66-141.831-30.694-48.296-76.178-93.517-135.562-100.526-31.07-8.273-61.898-4.754-89.375 11.647-27.079 35.661 44.21 27.68 65.601 29.786 33.252 3.471 62.89 20.776 84.882 45.39 1.637 5.677-22.109-14.683-6.238 2.558 35.132 39.92 53.276 90.821 78.59 136.864 9.02 21.948 31.867 49.894 31.398 68.745-9.21-22.193-20.697-20.968-8.22 3.188 2.265 14.626 6.897 38.3 4.74 47.65-14.67-36.22-16.172-76.987-32.107-113.137-28.19-58.891-56.487-120.432-104.15-166.284-32.137-28.692-77.65-10.199-114.509-24.543-17.283-27.909-28.927 20.195-55.477 12.913-40.799-.228-60.878 39.98-92.255 58.823-16.059 19.875-32.415 55.62-35.674 74.488-14.393 39.892-22.66 81.89-30.989 123.38-1.859 9.983-7.41 52.465-15.58 47.144zm-9.371-18.353c7.24-74.505 13.257-151.794 49.79-218.835 7.458-15.403 19.277-48.169 28.682-49.765-25.503 47.785-50.738 97.201-59.319 151.236-9.904 42.099-11.128 85.713-19.103 127.915-.856-3.45.174-7.08-.05-10.55zm507.864-100.625c-15.187-51.904-34.06-104.02-67.897-146.947-12.12-15.773-19.91-33.498-1.675-7.43 25.66 33.797 48.428 69.963 59.833 111.235 3.1 12.374 12.764 34.875 9.739 43.142zm-73.287-99.227c-6.984-20.945-42.752-68.582-42.045-71.316 28.976 27.323 43.697 66.162 58.909 102.03-6.447-9.723-11.356-20.443-16.864-30.714zm-81.738-97.184c-26.066-17.452-61.356-25.251-88.418-30.703 28.92-10.827 62.182 12.165 88.696 25.178 17.02 11.115 26.835 22.263-.278 5.525zM592.89 183.78c-31.979-9.804 34.626 2.346 0 0z"/>
</svg>
