<svg xmlns="http://www.w3.org/2000/svg" width="1278.714" height="1568.173" viewBox="0 0 338.326 414.913">
  <path fill="none" d="M0 .651h337.155v414.262H0z" paint-order="stroke fill markers"/>
  <path class="hair" fill="#3b2516" d="M169.026 42.996a74.604 74.604 0 0 0-17.462 2.164c-8.12 4.33-20.622 1.161-25.267 10.776-10.74 7.944-18.537 19.311-22.143 31.995-2.483 11.78-7.745 23.073-8.03 35.232-1.728 11.534-4.71 23.128-9.347 33.946-2.633 7.78-5.533 16.52-2.69 24.608 3.505 8.979 6.957 18.027 11.321 26.615 3.218 5.74 4.78 21.48.593 25.105-.134 4.293.548 12.992 10.46 19.002 11.808 4.909 29.776-4.483 32.646-16.655 3.198-12.134.992-29.605-12.704-36.132-5.864-6.238-9.901-15.43-12.45-23.926-4.897-9.406-5.026-20.035-5.234-30.375-1.186-15.6 2.483-30.937 5.887-46.027 6.841-14.846 17.624-27.543 27.62-40.447 1.79 4.02 6.2 13.252 10.898 17.437 11.576 9.237 23.171 16.416 35.502 24.638 7.271 5.865 15.61 10.175 23.975 14.198 8.786 7.195 14.635 19.96 10.046 30.742-2.893 12.228-8.64 24.151-8.883 36.99.105 9.76-2.174 19.246-6.777 27.892-5.031 9.97-6.14 22.592-.038 32.348 1.42 6.674 10.008 1.935 8.317 8.214l.07 1.44c3.71 1.475 7.924.444 11.7-1.4.038.538 5.059-.871 7.653-2.584 7.64-5.52 16.69-8.502 19.27-18.835 5.104-14.086-2.881-27.884-2.972-42.02 2.436-10.845 4.77-21.923 3.044-33.082.48-10.086-4.97-18.765-8.005-27.964-2.255-8.426-2.84-17.126-5.376-25.494-3.797-15.289-10.333-30.57-23.159-40.732-13.114-11.757-30.815-17.777-48.465-17.67z"/>
  <path d="M168.948 42.894a74.602 74.602 0 0 0-17.462 2.164c-8.12 4.33-20.621 1.162-25.266 10.777-10.741 7.943-18.537 19.31-22.144 31.994-2.482 11.78-7.745 23.073-8.03 35.232-1.808 11.488-7.01 20.976-10.386 32.529-2.633 7.78-4.494 17.937-1.65 26.025 1.936 11.07 5.19 16.327 9.984 24.343 3.218 5.74 8.995 24.535-.32 27.108-.153 4.925 1.821 16.096 9.074 19.74 13.545 5.63 33.291-1.155 36.584-15.118 4.324-13.714 1.634-32.285-12.062-38.989-5.864-6.237-10.846-14.58-13.395-23.075-4.897-9.406-5.025-20.035-5.234-30.374-1.186-15.6 2.483-30.938 5.887-46.028 6.842-14.846 17.624-27.543 27.62-40.447 1.79 4.02 2.932 12.012 11.525 19.48 11.178 9.716 22.545 14.374 34.875 22.595 7.272 5.865 15.61 10.175 23.975 14.198 8.786 7.195 14.635 19.96 10.046 30.743-2.893 12.228-8.64 24.15-8.882 36.99.105 9.759-2.175 19.245-6.778 27.891-5.031 9.97-6.139 22.592-.038 32.348 1.42 6.674 10.008 1.936 8.317 8.215l.07 1.439c3.71 1.476 7.924.445 11.7-1.4.038.538 5.059-.87 7.654-2.584 7.639-5.52 16.69-8.501 19.27-18.835 5.103-14.085-2.882-27.884-2.973-42.02 2.436-10.845 4.77-21.923 3.044-33.082.48-10.086-4.97-18.765-8.005-27.964-2.255-8.427-2.84-17.126-5.376-25.494-3.797-15.289-10.333-30.57-23.158-40.731-13.115-11.758-30.816-17.778-48.466-17.67Zm1.73 2.036c1.23.006 2.462.027 3.697.056 6.365-.342 17.506 3.39 24.95 6.444 13.096 6.418 24.36 17.034 31.135 29.772 7.35 13.227 8.441 28.432 13.394 42.489-.74 2.534-5.592-10.161-9.008-12.72-3.052-.764 5.504 10.89 6.41 14.427 7.02 11.022 11.643 23.676 11.077 36.8-.283 3.681-2.556 24.607-3.406 12.723.3-11.867 1.387-24.75-3.761-35.648 1.38 12.709 1.406 25.534 1.429 38.33-.76 7.675 2.219 17.434 2.213 23.541 1.988 9.085 7.734 19.15 2.985 28.353-4.41 12.794-.057-15.666-2.89-4.508.577 11.273-8.871 19.186-17.987 24.094-.19.082-.326.148-.5.225a42.475 42.475 0 0 0 2.595-1.813c-.333-2.844-10.96 3.21-15.74 2.258-.653-2.801 8.106-12.082 5.73-18.402-.725 1.788-2.293 12.326-6.971 15.422-5.98-8.22-7.195-18.067-6.54-27.915-3.99 3.624-2.35 14.985.142 21.006 3.484 8.444-1.918 2.345-2.103-2.498-3.77-.226-3.683-11.127-1.508-17.045 2.736-9.67 11.308-16.636 12.76-26.688.796-11.99 1.22 4.472 5.401 6.72.294-8.07-3.692-17.871-1.808-26.716.037-11.946 7.89-22.033 8.37-33.882 2.11-10.805-3.606-22.09-14.051-26.48-8.329-3.696-17.274-6.142-24.405-12.04-3.953-2.608-10.38-6.208-2.41-4.36-12.05-4.686-23.664-10.933-33.268-19.59-5.338-5.301-9.351-9.304-11.349-16.794-.698-2.62-3.286-8.998-1.994-10.499 2.122-2.466 18.802-5.107 27.41-5.062zm-19.396 6.174c-1.185.014-1.006.332.127.552 2.168.422 6.256 1.809 8.351 2.844 4.265 2.106 11.293 7.884 11.293 7.884s-1.737-3.215-4.822-5.846c-2.234-1.905-4.554-2.733-6.604-3.608-2.645-1.13-7.753-1.812-7.753-1.812a9.515 9.515 0 0 0-.592-.014zm-16.217.288c1.66-.167-11.295 11.813-8.723 12.114 2.764-3.99 16.802-19.825 13.318-6.983-5.786 11.448-15.393 20.588-21.755 31.75-3.79 8.921-9.927 17.644-10.474 27.457 2.903 4.687-2.93 20.506-.932 29.192.736 5.728.9 13.32.667 20.753-.201 6.436-.833 12.753-.02 17.64.75 4.508.28 8.707 2.827 15.823 2.349 6.562 4.908 17.47-3.2 26.876-2.411 2.768-7.279 4.584-6.705 3.354 1.13-2.423 1.054-8.846.25-11.731-2.75-10.777-5.62-12.674-9.338-21.604-3.528-7.305-5.564-13.845-5.69-21.828.435-9.952-.203-13.649 4.215-22.419 3.261-8.54-.008 1.765-.757 5.321-1.744 4.741-2.708 19.715.306 19.395.419-4.448.114-9.748.9-14.62 1.21-7.5 3.785-14.653 6.057-21.314 1.256.958-4.42 25.488-2.112 25.016.373-.077 1.785-10.728 2.125-11.938 3.737-13.329 1.508-27.48 2.8-41.147 2.605-10.852 5.864-21.483 10.482-31.705 4.252-11.3 12.21-20.985 22.568-27.515 1.873-1.294 2.847-1.852 3.191-1.887zm39.85 7.61c.9 6.843 9.577 14.775 16.294 19.057l1.915 1.012c-5.862-5.612-14.48-11.724-18.21-20.068zm-1.066 7.503c7.219 11.794 17.641 22.01 29.6 29.304 1.408.707 2.795 1.46 4.258 2.057-11.14-10.569-23.685-19.792-33.858-31.361zm32.762 24.452c-.802-.06 4.1 6.228 6.821 8.28 9.541 10.182 21.748 18.89 26.1 32.633 3.942 9.264.587-4.149-.865-6.85-6.173-12.83-18.951-20.839-28.574-31.007-2.156-2.183-3.192-3.035-3.482-3.056zm14.755 29.091c1.387.035 5.63 5.68 6.038 9.055 3.497 14.244-4.426 27.584-7.32 41.104-1.264 8.03-2.303 15.182-3.365 24.006-.253 1.41-.496 2.838-1.078 4.165-.164-4.199.45-10.946.282-16.135-.886-9.93 2.938-19.231 6.191-28.385 2.064-2.032 3.06-6.605 4.232-12.752 2.359-6.276-3.772-15.852-5.401-20.09-.067-.686.1-.976.42-.968zm-126.161 15.39a.04.04 0 0 1 .026.002c.158.064.04 1.223-.582 4.186-.442 1.871-.991 3.741-1.87 5.465-1.51 1.577 1.827-9.507 2.426-9.652zm146.292 6.262a.238.238 0 0 0-.126.033c.475 15.239-5.94 29.752-4.84 45.01.15 9.379 2.803 17.91 6.899 24.952.519.797.537 1.928 1.238 2.636-1.956-8.821-4.46-17.652-5.254-26.728-2.288-10.032 1.979-19.76 2.689-29.738.894-4.354.659-16.127-.606-16.165zm-140.041 22.446c-1.342-.153-4.572 10.073-4.983 14.91-.642 7.559-.693 21.34 4.42 28.555 2.54 5.525 6.096 9.137 2.501.332-6.54-10.5-5.668-33.465-1.69-43.508-.05-.183-.134-.276-.248-.289zm133.103 6.317c-.044.015-.11.164-.202.53.185 1.837.394-.597.202-.53zm-124.985.933c.18-.005.387.068.621.23 3.442 9.238 7.748 18.122 12.618 26.624 5.857 8.403 3.84 20.275-5.777 28.548-7.646 7.49 1.068 1.833 4.245-1.74 7.797-6.307 10.07-16.097 6.506-23.178 1.377-1.19 8.797 9.894 10.03 14.14 2.275 11.776-4.367 24.87-16.688 28.676-2.865.761-5.898.607-8.835.526-8.07-.328-4.14-2.849.849-3.735 12.332-8.31-15.318 6.685-15.407-4.23-2.3-5.17 15.614-9.448 16.03-17.925 2.388-14.358-3.131-21.231-4.449-33.438-.506-3.553-1.88-14.438.257-14.498zm124.514 4.884c-1.512 3.778-.906 16.286.814 23.027.349-4.781-.273-15.449-.814-23.027zm-4.785 18.232c-4.405 4.374-1.327 16.64-.032 23.953 1.321 9.67-.31 19.4-5.993 27.527 6.29-2.558 10.19-14.98 8.734-23.327-.653-9.444-3.67-18.58-2.71-28.153zm-90.277 36.86c.107 3.485-2.339 10.86-7.726 15.528-4.4 3.812-11.376 5.333-15.452 5.465-6.993.226-9.906-1.26-14.324-5.104-8.467-6.86 3.113-3.605 6.06-.734 12.271 6.707 27.94-5.978 31.442-15.155z"/>
</svg>
