<svg xmlns="http://www.w3.org/2000/svg" width="1274.286" height="1565.714">
  <path fill="none" d="M0 0h1274.286v1565.714H0z" paint-order="stroke fill markers"/>
  <path class="hair" fill="#3b2516" d="M718.155 154.348c-51.73 10.022-46.283-8.217-71.915 1.275-11.79 1.017-25.556-8.407-44.14 2.67l-8.61 9.488c-7.578.533-12.897-2.304-19.033-3.927-16.192-4.284-35.728-4.208-54.25-4.187-11.113.015-22.061 1.568-32.265 6.52-24.38-2.398-38.899 49.184-57.05 32.332-4.703 11.392-5.256 7.372-4.814 15.536.931 17.196 16.898 13.248 28.085 20.88-8.652-2.35-36.51 3.293-45.832 3.165-66.44 28.803-55.41 70.428-92.958 115.345-18.895 21.59-87.83 58.65-62.524 115.43.054 2.617-.483 8.209-5.184 12.89-14.398 3.612-29.756 38.698-36.588 54.806-21.145 28.21 3.485 56.929 2.486 83.703 21.054 8.718 5.175 3.493-7.46 21.333l.712 1.174 1.702.076c.947-.254 1.828-.532 2.71-.81l-4.563 6.44c-9.736 2.37-17.185 8.552-20.454 27.296-8.221 19.099-11.173 61.56 17.407 67.155 7.879 1.756 10.525 1.468 10.281.205.172.05.34.09.518.148 2.567.853 5.687 2.797 8.04 7.529l.468.942c-.456 3.47-.063 11.39-3.98 8.565-23.506 23.938 23.82 40.248 39.835 39.942-3.779 21.08-51.355 6.05-53.92-18.19-15.843 27.383 28.05 32.3 35.98 47.444-17.005 24.055 14.75 63.123 33.647 61.41 33.612-10.53 31.737 39.486 63.41 41.332 1.842 4.804 3.13-4.975 6.216-1.334 25.5 9.97 48.4-9.578 68.657-18.666 13.181-15.597 38.584-7.212 32.394-24.999 16.147-22.543-23.106-24.352-10.289-32.332 24.903-6.119 7.004-75.188-5.99-56.605-1.932-1.794-4.361-3.353-7.227-4.016-.16-.035-.326-.06-.488-.09 6.037-16.73 4.441-36.66-7.997-44.616 1.878-8.552-7.984-22.515-13.434-24.68a1.334 1.334 0 0 0-.056-.767c-2.468-6.432-6.858-10.41-10.947-13.102a50.597 50.597 0 0 0-3.178-1.911c2.196-7.31-18.224-37.939-7.475-47.392 11.449-24.444 32.995-40.283 32.295-70.073 20.03-17.932 32.022-46.199 33.2-74.07-.884-27.947 9.722-51.687 8.366-80.998-16.536-26.684 12.712-38.596 5.311-66.998-15.608-13.993 6.997-40.509 22.445-58.97 1.875-9.896 13.376-32.074 29.775-37.027 19.632-7.59 43.466-12.994 57.846-28 5.183-3.446 9.794-6.893 13.001-9.533.291.03.581-.06.814-.25l2.868-2.268c.024.056.053.111.07.17 6.39-10.686 22.892-16.387 30.144-24.075 3.817 2.597 14.426 8.922 28.905 10.29 3.344 1.03 7.831 1.763 13.064 1.673 36.426 1.803 53.49 55.087 59.635 57.203 15.803 43.946 61.343 10.566 74.644 46.103 12.003 21.61 24.74 42.475 26.42 65.36 12.296 5.479 20.29 47.252 17.126 60.614 1.518 21.723-6.964 24.155 1.213 44.044-1.913 26.139 14.4 60.26 28.596 70.664 8.235 22.98-1.857 50.189 21.137 69.894-.714 13.513-15.973 37.683-34.813 48.77-17.453 17.23-44.018 31.245-44.76 58.664-6.04 20.353 2.402 47.08 12.433 58.665 19.958 4.22 39.46 39.657 9.947 31.999-9.122-5.029-13.72-6.362-15.308-5.656-2.868.318-13.607 1.94-23.14 8.835-3.422 1.138-7.563 4.425-11.843 10.896 8.002 39.67 20.586 45.14 54.486 49.485 13.119.287 28.016 7.608 36.79 6.245 9.842-3.668 15.162-16.654 22.579-16.92 12.838-.458 31.452-13.057 25.332-17.786 2.959-16.452 25.961-12.922 39.166-28.433 3.923-22.41 3.32-24.246-13.706-57.167 23.122 14.998 50.64.87 39.816-25.606 17.176-16.035 52.678-18.66 63.956-48.975 15.395-31.716 5.243-59.198-2.455-84.268 21.305-6.467 18.156-28.758 12.112-40.2-18.19-15.068-41.958-46.974-56.335-65.602 7.199-18.743 10.15-14.342 10.068-42.092-4.63-29.647-34.63-54.346-58.2-72.662-16.692-3.338-15.647-9.418-15.262-12.882 7.648-.155 20.09-9.893 24.68-24.576 5.703-18.25 2.233-43.031-3.018-53.564-20.499-9.523-26.26-44.489-41.624-44.071-24.526 32.553-17.41-18.975-55.768-49.649-9.91-29.828-38.59-39.884-65.867-49.173-21.699-7.888-46.661-22.94-76.068-15.437z"/>
  <path d="M521.359 157.773c-11.113.015-22.062 1.568-32.266 6.52-24.38-2.398-37.846 45.688-58.2 32.226-13.027 6.39-3.98 33.064 6.634 36.415 5.824 1.38 12.064-.34 12.515-.926.477-.618-15.703-1.858-20.556-14.122-3.387-8.56-.215-18.156 3.785-15.53 3.59 2.354 9.733 2.601 12.792-.73 24.283-13.783 49.95-42.112 80.33-37.332 19.748-7.334 60.954-1.583 53.563 14.613-29.681-12.468-65.03-3.754-92.863 12.052-25.803 2.832-26.353 56.822-14.133 26.835 16.176-17.457 29.093-33.196 55.163-30.835 30.557-2.979 44.002-13.386 66.673 2.112 31.595 10.625-26.236 26.761-31.788 35.27-5.651 2.202-68.468 2.869-35.697 7.89 17.179 5.276 52.514-10.292 56.761 1.505 7.05-12.548 24.506-17.26 32.326-26.778-12.54-11.861-3.507-12.003 0-20-6.704-5.503-22.16-15.092-37.027-23.37-14.633-8.15-39.49-5.836-58.013-5.815zm168.86 11.406c-2.112-.016-1.156 1.424 8.239 5.78 11-.434-4.209-5.755-8.24-5.78zm104.664 6.533c19.454-.585 14.758 17.815 35.367 23.87-13.288-1.12-32.2-9.274-37.326-23.753.679-.06 1.332-.098 1.96-.117zm-174.213 7.815c-1.428.15-1.278 1.412 3.188 4.766 10.731-.04-.048-5.096-3.188-4.766zm22.895 1.125c-.868.054.033.99 5.16 3.64 7.21.393-3.252-3.76-5.16-3.64zM819.06 378.953c4.28-30.528-29.369-64.36-30.566-78.997 31.182 5.58-9.937-8.133 8.837-17.635 16.361-18.322 26.765-48.313 16.55-74.235-4.628 14.361-4.27 62.297-33.364 72.204-17.728 5.574-38.862-3.45-52.22-19.27-14.82-6.695 14.401 39.555 34.813 37.936-1.474 8.984-40.048-9.928-42.273-31.51-7.867-15.213-14.125-46.446-28.016-45.11 6.632-8.593-14.869-19.085-33.076-30.044-.25-.181-.447-.254-.602-.236-2.33.261 4.694 20.977-19.746 4.838-12.826-5.201 16.678 20.904 23.315 11.773 16.238-8.586 11.427 20.587-11.5 6.291-24.073-3.748-14.338 7 4.973 6.667 36.425 1.803 43.997 37.46 59.973 63.305 23.94 45.302 53.78 13.215 66.742 28.753 12.003 21.61 26.31 43.656 27.992 66.541l11.659 17.994c7.23 9.183 11.532 36.407 7.73 51.332 1.519 21.723-3.234 25.51 4.942 45.4-1.912 26.139 14.401 60.26 28.597 70.664 8.234 22.98-1.858 50.188 21.136 69.894-.713 13.512-15.972 37.684-34.813 48.769-17.453 17.23-44.017 31.246-44.76 58.665-6.04 20.353 2.403 47.08 12.434 58.665 19.958 4.22 39.459 39.657 9.946 31.999-35.972-11.655-5.613 13.5 9.947 13.333 13.73-10.339 45.57 3.118 40.192-34.564 1.077-14.345-4.612-47.538 24.388-41.398 2.326-11.207 16.763 9.216 2.56 23.669-25.964 20.739 11.129 58.344 11.15 67.94.621 6.47.337 12.527-10.325 16.64-4.36 1.681-16.878-4.738-20.364 1.928-8.789 16.801-35.526 21.378-45.974 13.054 4.288-14.801-34.265 10.037-18.924-17.13 15.934-31.183-4.594-15.227-15.663-.25 20.3 34.955-31.552-.596-19.26-19.983 12.644-5.595 26.007-22.877 22.3-26.68-3.262-3.348-22.372 5.503-30.318 17.516-17.379 10.93 2.497 33.434-.957 40.113 15.584 19.005 17.635 4.728 53.264 12.262 45.647 12.898 57.858 1.607 59.282-11.426 5.18.221 34.592-.162 36.467-23.041 5.117-17.65 12.995-1.618 29.339-21.721 6.495-7.99 15.199-14.147-6.036-52.134 23.121 14.998 43.928-7.758 33.104-34.235 17.176-16.036 52.679-18.66 63.956-48.975 15.395-31.715 10.15-55.842 2.452-80.912 28.496-23.965 13.473-44 3.483-52.905-17.632-15.716-33.6-37.13-46.282-58.132 7.199-18.743 3.819-12.463 3.737-40.213-4.629-29.647-16.324-39.092-39.896-57.408-14.317-9.778-19.374-26.028-1.7-52.204 4.688-18.805-.421-40.317-9.896-59.324-20.5-9.523-26.26-44.49-41.625-44.071-24.526 32.553-17.237-29.303-56.074-44.397-9.91-29.828-38.59-39.884-65.867-49.173-24.684-14.8-61.79-22.548-87.256-16.754-27.176 6.183-35.096-8.896-60.729.596-11.813 1.02-25.496-6.477-44.138 4.666-13.385 23.465 51.092-16.775 22.27 10.708 2.025 12.516 30.282-11.413 52.507-9.163 24.77 2.508 58.596-15.684 88.66-.47 12.64 6.396 33.176 13.967 19.384 19.002-1.832 2.824-2.85 7.362-1.184 14.785 17.26 25.464-50.418 33.188-15.653 35.136-15.422 3.978-44.1 3.366-17.832 7.67 25.04 10.711 38.666-28.761 40.212-37.002-12.596-34.004 17.474 3.978 27.455 4 31.706 13.493 23.966 55.693 15.44 81.997 14.345-11.99 11.317-40.957 11.81-59.331 15.536-14.494 45.875 29.639 46.558 44.89 21.022 14.472 18.138 50.697-6.102 24.237-18.444 11.314 52.2 43.236 34.43-.904-19.165-27.868 25.9 7.643 23.037 17.695 5.24 14.21-1.948 51.595-23.897 33.874-32.195-13.895 13.857 25.371 25.83 4.284 14.835-32.563 19.588 6.193 10.804 20.217-5.986 8.519-17.801 17.217-22.308 18.62-5.07 1.579-8.722-9.946-14.66-8.836-20.13 3.764-43.146 4.702-54.767 1.918-18.845-10.055-37.01-36.029-39.75-55.543 3.182-46.127-18.33.743-2.797 20.877 11.908 27.973 35.738 47.895 64.652 50.665 19.698 1.601 55.148-6.296 58.2 11.684 11.827 6.858 36.967 18.323 48.386 45.196 8.58 20.19 20.038 43.686 5.385 61.194-3.338 25.233 24.584 47.176 28.146 76.527 2.142 17.645-10.741 26.195-26.115 21.393 10.235 5.541 37.31 25.046 39.344 17.784 2.542-9.08 16.499 25.78 4.977 43.587 10.557 26.398-14.122 49.054-42.693 57.292-29.106 11.594-52.42 2.195-67.14-28.533-4.512 17.219-24.508 47.074-48.49 51.198 4.566 3.63-26.324 41.271-25.383 14.586.465-21.527 11.878-14.111 36.573-26.585 33.274-28.921-5.737-3.87-22.38 1.333-20.336 6.805-31.334 35.753-17.406 53.332 19.538 14.759 6.487 51.547-9.947 22.666-11.294-17.756-36.612-34.45-33.57-57.433.07-28.953 26.302-47.516 46.96-63.113 21.528-8.101 23.462-17.052 36.742-23.788 22.34-31.438-2.263-55.339-21.535-78.326-1.073-52.98 18.84-2.7 36.683 15.328 18.112 25.055 51.505 30.862 69 55.337 21.528 37.961-25.265 46.876-34.814 15.429-18.89 14.12 25.073 48.672 49.111 27.902 13.423-26.711 38.63-60.841 13.657-79.33-2.229-16.587-80.76-34.817-69.693-26.666 15.113 2.452 56.308 47.251 31.792 34.665-28.558-12.79-53.613-28.96-71.666-57.18-19.203-19.276 36.44-69.04 2.144-44.15-6.17-8.113 43.305-20.153 45.899-42.665 7.207-27.46-6.81-53.366-26.11-69.396-24.568-23.105-12.883 5.729 2.487 19.025 17.277 18.541 8.776 43.074-6.217 55.704.282 11.864-9.106-80.658-8.703-37.332 16.771 37.507-19.41 55.966-31.083 82.664 6.397 46.149-13.103-2.913-28.597-19.244-6.11-14.503-17.63-40.934 3.429-56.371 4.864-3.566 14.497-5.19 18.43-8.814 32.821-30.248 16.552-22.178-1.646-9.605-8.679 5.996-18.115 11.137-27.71 4.023-6.82-5.057-3.625-31.778-4.936-36.652-1.93-17.492-7.153-32.13-18.65-41.332zM628.3 198.995c-1.5.09-3.765 1.168-6.928 3.963 7.908 8.04 12.286-4.28 6.928-3.963zM408.33 238.1c-17.44 5.085-33.76 14.552-44.674 28.321-72.395 111.806-36.976 79.313-101.497 132.57-22.35 18.45-26.096 46.327-8.81 70.626.538 6.93 10.728-1.715 7.418-5.76-8.222-17.212-17.351-27.334-6.248-46.739 116.046-104.188 53.849-78.133 117.7-145.817 27.654-29.314 68.79-34.196 67.628-32.344 17.89 12.026 24.585-6.084 14.316-4.023-14.185-2.396-30.444-1.32-45.832 3.166zm169.929-1.814c-1.733-.08-8.278 2.904-13.393 6.062-13.62 13.183-29.497 14.516-46.69 23.973-19.161-7.33 24.526-28.48 38.778-28.697-2.875-2.12-28.054 3.642-42.717 7.226-2.208 26.818-19.226-10.825-19.684 16.15-7.569 30.408-28 7.76-27.841-7.876-4.54 6.004-18.354 16.803-11.946 16.5-.339-1.597 42.129 12.165 19.182 17.905 4.797 25.264-34.382 47.51-50.265 70.091-17.661 1.834-20.626 61.799-8.703 32 15.138 9.06 15.475-21.965 24.192-40.723 6.523 2.062 16.369 52.886-9.935 64.01-10.799 15.41 9.773 29.767-4.31 50.814-27.508 30.703 6.123 13.422 8.703-7.437 13.958-29.607.11 9.89 5.595 14-3.98 31.657-41.624 37.8-67.761 31.332-45.766-12.89 8.87 19.065 27.975 10.296 30.499-21.703 47.023 10.54 30.461 36.554.823 18.018-18.725 14.739-32.326 27.814-23.164 17.17-40.958 11.843-61.778-6.382-17.967-21.862 2.43-44.41 16.537-58.178-19.026-7.022-40.026 34.04-26.872 53.256 16.743 16.984 27.953 35.956 44.335 30.97 21.76-2.532 43.249 4.11 20.905 28.333-21.235 17.382-41.78 67.031-11.777 85.33 20.89 8.745-14.26-36.05-.843-47.85 11.449-24.444 32.995-40.283 32.295-70.073 20.031-17.932 32.022-46.199 33.2-74.07-.884-27.947 9.722-51.687 8.366-80.998-16.536-26.684 12.712-38.596 5.311-66.998-15.608-13.993 6.998-40.509 22.446-58.97 1.874-9.896 13.375-32.074 29.774-37.027 19.632-7.59 43.465-12.994 57.846-28 10.25-6.816 12.469-9.268 10.94-9.337zm-111.547 16.838c1.474-1.95 1.985-3.402.488-3.795-.33 1.188-.475 2.47-.488 3.795zm240.915 6.635c.99-.04 2.882 2.415 5.75 9.864-5.743 2.38-7.928-9.778-5.75-9.864zm109.39 4.867c-.56.05-1.152.7-1.687 2.33 5.953 8.518 4.116-2.546 1.688-2.33zm-384.14 6.312c-5.576-.563-35.443 12.221-33.875 17.88 7.193 2.635 17.895-6.962 25.925-9.862 8.595-5.534 10.132-7.798 7.95-8.018zm-62.265 45.595c-4.815-.192-26.93 39.714-24.014 51.754-12.971 8.862-22.973 42.99-7.092 25.983-5.276-47.287 21.077 26.392 5.778 8.82 4.407 13.046 26.177 30.864 47.316 38.528 4.004 4.048 25.15-.87 20.603-7.427-29.936 3.471-51.72-24.588-60.39-49.905 6.626-20.082 2.373-40.319 17.408-58.665 1.721-6.385 1.618-9.039.39-9.088zm580.715 2.158c.344-.13.825 1.624 1.437 6.727-2.188 18.222-2.668-6.264-1.437-6.727zm-525.11 48.799c.713.103.617 1.727-1.29 6.13-10.284 6.932-.852-6.44 1.29-6.13zm-100.04 2.14c-3.682-.143-6.774 2.378 1.77 7.99 6.184-5.04 1.912-7.847-1.77-7.99zm-27.775 25.815c-1.822.335-8.423 7.852-12.727 18.468 1.62 7.696 3.113-5.607 4.973-4.294 7.696-10.35 9.17-14.435 7.754-14.174zm29.546 18.174c-4.777 20.77-15.923 32-34.814 44.605 18.203-5.295 45.438-19.314 34.814-44.605zm-44.121 5.989c-1.182-.305-3.125 2.733-5.612 12.677 7.121 4.852 8.211-12.006 5.612-12.677zm131.345 2.286c-1.693.14-3.666 1.817-5.165 6.39 11.98 2.943 9.49-6.746 5.165-6.39zm420.904 36.55c.356-.078 8.761 5.488 9.394 8.521-1.183 5.671-9.17 19.336-11.076 15.499-1.734-3.492 1.076-23.89 1.682-24.02zm-586.32 23.003c-14.975.45-31.516 38.237-38.68 55.129-21.145 28.21 3.484 56.928 2.486 83.703 21.054 8.718 5.175 3.492-7.46 21.332l.711 1.175 1.703.076c40.532-10.896 20.652-42.925 4.616-67.55-.502-4.192 24.583 30.466 8.222-4.032-2.048-31.308 6-73.392 37.429-84.768-2.876-3.644-5.918-5.158-9.026-5.065zm107.942 3.607c-6.863.081-9.499 1.973 2.576 7.229l2.797.958 7.15.375c29.077-2.27.577-8.717-12.523-8.562zm41.884.484c-1.152.08-2.651.484-4.495 1.412 7.99 4.02 9.488-1.757 4.495-1.412zm-121.137 2.068c-1.038.133-2.766 1.856-5.204 6.583 6.012 3.128 7.859-6.922 5.204-6.583zm-15.918 3.294c-.807-.02-2.23 1.654-4.205 6.716 4.789 1.572 5.982-6.673 4.205-6.716zm51.744.05c-22.346 18.103-61.5 45.777-36.989 77.946 19.167 15.133-19.456-29.13 1.62-37.387 6.752-11.725 49.035-39.796 35.369-40.559zm-42.499 12.253c-3.302.218-11.549 9.061-14.694 22.413-13.905 17.785-15.88 54.387-1.12 65.193 16.444 1.397 27.06 23.71 47.123 26.804 14.448 5.62.854-23.893-9.947-21.333-30.438-8.119-39.551-49.965-27.353-75.997 8.138-12.204 8.56-17.25 5.991-17.08zm46.163 4.723c-1.937.112-4.67 1.589-7.394 5.69 12.058.431 11.655-5.934 7.394-5.69zm-71.629 2.563c-1.066.045-2.902 1.674-5.391 6.4 6.356 1.036 7.737-6.503 5.391-6.4zm144.29 14.182c-2.41.326-6.12 4.19-10.429 14.814 14.753.861 15.736-15.533 10.43-14.814zm-160.56 16.153c-.67-.157-1.956 1.483-4.041 6.698 3.418 5.837 5.75-6.296 4.04-6.698zm654.553 6.536c.675-.146 1.624 1.123 2.854 4.922-4.182 14.167-5.262-4.4-2.854-4.922zm-632.661 4.779c.34-.183.814 2.287 1.42 9.476-2.163 25.673-2.637-8.824-1.42-9.476zm761.33-1.307c-23.968-54.472 14.414 7.889 18.587 12.794-7.749-1.642-20.585-12.695-18.586-12.794zm-788.103 8.072c-.222.27-.06 2.872.84 9.49 5.626 18.302-.05-10.456-.84-9.49zm802.098 8.854c.445.015 1.043.181 1.819.523 25.293 8.093 48.09 49.354 8.703 51.999-3.46 2.159-13.324 2.524-14.099-3.089 24.553-14.62-3.095-49.625 3.577-49.433zm-726.659 3.19c-2.415 8.894 12.632 40.313 32.327 43.999 42.346-2.266-34.273-22.555-32.327-43.999zm-10.918 8.547c-2.03-.167-.482 2.634 10.918 11.452 5.792-2.654-7.533-11.175-10.918-11.452zm623.692 57.57c-2.082.43 13.016 12.066 19.145 21.18 17.953 12.285-4.836-14.532-7.241-15.713-7.643-4.087-11.09-5.634-11.904-5.466zm-14.944.524c.349-.103.832 1.294 1.452 5.357-2.214 14.51-2.698-4.988-1.452-5.357zm-614.192 3.75c-1.568.066-4.13.773-7.916 2.24-23.758 22.34-50.249 50.535-21.414 82.625 20.325 22.184 3.107-16.168-1.554-24.481-9.286-19.024 43.654-60.92 30.884-60.384zm17.365 3.055c-2.076.108-6.358 3.714-10.95 13.512 12.31-6.36 13.986-13.67 10.95-13.512zm-85.677 2.752c-14.2 1.118-25.468 4.312-29.711 28.642-8.221 19.099-11.173 61.56 17.406 67.155 19.673 4.385 6.774-3.954-2.486-8.477-27.538-23.67-1.918-65.203 14.79-87.32zm696.163 2.982c-.746.249.112 3.468 4.267 12.098 14.646 13.143-2.027-12.846-4.267-12.098zm82.987 27.024c2.828-7.867-10.903-46.785-12.549-51.956-2.323-7.302 20.288.486 28.33 22.459 4.826 13.187.944 21.484-8.333 39.567-11.463 22.345-9.037-9.968-7.448-10.07zm-706.328-15.808c-.7-.046-1.711 1.077-3.067 4.268 4.066 10.948 5.563-4.11 3.067-4.268zm8.662.02c-4.284.066-10.56 29.657-3.026 37.582 10.362 21.34 34.254 23.758 50.976 28 8.523 1.312 22.62-12.512 0-10.667-18.913-4.539-58.56-9.694-45.032-45.207-.484-6.982-1.607-9.728-2.918-9.708zm630.357 17.33c-1.396-.079-1.974 3.822 1.022 15.59 5.902-4.266 1.305-15.458-1.022-15.59zm-634.537 44.967c-4.784-.592 22 38.765 37.21 29.95 6.833 6.46-17.735 45.905 6.528 60.67 8.099 6.396-.5-7.692-1.555-8.966-24.248-32.049 55.45-56.223 29.84-62.37-20.996 9.557-46.277 2.305-59.633-7.456-7.237-8.364-11.05-11.662-12.39-11.828zm104.906.993c-2.496.354-2.909 5.325 1.93 18.29 5.483 16.099 25.128 32.004 11.868 54.059-3.86-7.984-23.434 24.547-41.707 21.94 6.91 7.178 21.93.618 31.083-.636 23.611-10.735 32.186-55.698 11.867-68.696 2.082-9.482-10.276-25.634-15.041-24.957zm542.513 12.314c2.023-.15 4.577.44 7.723 1.977 21.61 6.185 45.447 36.203 15.894 46.605-9.707 2.19-26.141-1.16-19.624-14.606-10.36-10.821-14.915-33.167-3.993-33.976zM223.49 750.234c-1.478.447.333 13.618-4.546 10.099-23.507 23.938 23.82 40.247 39.835 39.941-3.779 21.08-51.355 6.05-53.92-18.19-15.843 27.383 28.05 32.3 35.98 47.445-17.006 24.055 14.75 63.123 33.646 61.41 33.613-10.531 31.738 39.486 63.41 41.331 1.843 4.805 3.13-4.974 6.217-1.333 25.5 9.97 48.4-9.579 68.657-18.666 21.584-7.07 41.875-13.473 32.394-25 16.147-22.543-23.106-24.352-10.289-32.332 25.857-6.352 5.57-80.59-7.46-54.092 12.354 10.36 4.19 38.589-18.081 49.368-9.987 10.766-36.268 19.508-38.764 17.724-24.27.412-33.353-36.685-52.567-41.57-11.576-7.996-27.356-27.026-11.811-38.761 21.388-16.504 5.12-14.244-9.85 4.667 2.166-24.003 11.837-23.19-8.179-28-29.417-30.441 4.4 9.816-7.81 30.333-12.082 22.8-.684 18.036 10.24 6.867-4.702 25.363 58.132 55.488 8.165 70.797 2.306 10.405-24.193 16.266-13.251 8.312-11.085 2.495-47.598-14.625-40.86-32.311 1.578-2.195 27.712-18.785 23.897-32-46.235 31.293 32.025-28.303-9.2-27.144 5.074-20.272 1.996-17.492-6.615-2.854-26.578 11.298-16.397-15.025-24.245-26-2.97-7.818-4.321-10.244-4.993-10.04zm62.016 130.35c1.38-.31 2.39-.91 2.848-1.867a39.614 39.614 0 0 0-2.848 1.867zM915.93 762.117c8.77-.234 35.015 17.65 11.12 23.162-2.054 5.247-12.075-15.595-9.767-14.946-6.705-5.846-5.34-8.11-1.353-8.216zm-626.581 11.775c1.02-.137 1.362 1.258-.479 5.813-7.282 2.207-1.765-5.51.479-5.813zm-.185 15.719c.356-.077.85.964 1.484 3.997-2.26 10.832-2.755-3.722-1.484-3.997zm623.939 6.675c26.036-10.514 35.55 6.917 41.09 17.1 6.788 12.478.9 37.578-35.053 33.494-13.084-.43-13.494-28.862-14.104-38.575.662-6.373 4.79-12.036 8.067-12.02zm-532.41 29.735c-.605.078-1.576 1.762-3.013 6.252 2.673 13.703 5.177-6.53 3.014-6.252zM794.085 840.5c1.714-.03 1.825.903-3.62 3.773-6.544-.976.764-3.72 3.62-3.773zm-374.376 8.666c1.999-.045 3.557 1.288 3.441 5.203-19.395 7.488-9.437-5.065-3.441-5.203zm32.465 4.357c-1.073-.156-2.728 1.305-4.867 5.989 6.54 5.357 7.608-5.592 4.867-5.99zm-37.795 7.676c20.772.546 24.852 38.154-4.371 36.406-28.934-.846-20.356-39.829 0-36a19.083 19.083 0 0 1 4.37-.405zm-83.177 1.36c12.908-.183 33.23 29.292 48.966 20.38 23.735 19.933 20.427 36.756-14.92 38.665-5.599 2.7-12.11.69-17.924.854-22.055-9.711-53.084-31.757-24.349-52.853 2.128-5.027 4.937-7 8.227-7.046zm104.15 1.635c1.153.08 2.652.484 4.496 1.412-7.99 4.02-9.489-1.757-4.495-1.412z"/>
</svg>
