<svg xmlns="http://www.w3.org/2000/svg" width="1278.065" height="1569.494" viewBox="0 0 338.155 415.262">
  <path fill="none" d="M.5.5h337.155v414.262H.5z" paint-order="stroke fill markers"/>
  <path class="hair" fill="#3b2516" fill-rule="evenodd" d="M69.24 160.085c-2.554-1.232-5.417-4.452-6.732-7.572-.596-1.416-1.319-2.301-1.888-2.314-.507-.011-1.216-.39-1.574-.841-.358-.452-1.591-.993-2.74-1.203-1.74-.318-2.057-.569-1.902-1.507.161-.977.636-1.152 3.58-1.321 4.245-.244 5.463-1.394 5.547-5.234.048-2.194-.171-2.766-1.514-3.947-.864-.76-1.99-1.513-2.503-1.673-7.012-2.183-8.679-2.86-9.86-4.004-.881-.854-1.374-1.904-1.353-2.882l.034-1.54 2.973.313c3.377.355 5.162-.302 6.1-2.247.377-.781.7-4.821.82-10.254.26-11.867.605-12.83 6.564-18.372 6.603-6.141 7.127-7.697 3.862-11.474-1.512-1.75-1.933-2.691-1.9-4.245.087-3.915 5.677-8.581 10.262-8.566l2.2.008-.17 2.069-.172 2.068 2.687-.198c3.552-.263 7.727-3.005 10.9-7.159 1.32-1.728 4.644-6.678 7.386-11 5.855-9.23 9.942-14.321 17.203-21.433 8.907-8.724 16.038-11.914 27.65-12.367 7.717-.302 8.132-.183 14.17 4.051 2.172 1.523 4.282 2.776 4.69 2.785.407.01 1.58-1.228 2.607-2.75 2.648-3.922 6.926-7.53 11.127-9.384 3.482-1.537 3.843-1.585 10.154-1.352 3.598.132 7.6.503 8.893.822 1.293.32 5.518.893 9.39 1.273 7.56.743 10.403 1.39 13.32 3.032 2.837 1.597 4 2.848 4.662 5.01.871 2.852 3.06 4.485 8.33 6.219 5.755 1.893 7.037 2.585 9.428 5.083 4.712 4.924 5.02 12.435.602 14.676-.693.351-1.263.79-1.267.977 0 .185 1.122.916 2.504 1.624 9.181 4.706 17.49 12.517 22.046 20.73 1.599 2.882 4.61 7.062 7.216 10.015 4.644 5.265 6.87 9.244 6.813 12.185-.036 1.901-1.858 6.743-3.145 8.36-1.253 1.574-2.46.42-3.665-3.502-.565-1.838-1.254-3.392-1.531-3.452-.278-.06-.72 2.641-.984 6.028-.264 3.376-.661 6.615-.882 7.199-.476 1.26-9.145 6.748-12.288 7.78-1.212.397-2.714.709-3.338.692-1.962-.052-6.569-2.66-7.528-4.26-.505-.844-1.603-2.375-2.44-3.402-2.398-2.944-4.73-7.062-6.143-10.844l-1.301-3.483-2.97-.744c-7.642-1.913-11.245-5.918-17.83-19.823-3.399-7.174-4.447-8.865-7.398-11.935-1.89-1.967-4.973-4.62-6.85-5.894-5.07-3.442-12.737-6.834-16.868-7.463-1.954-.297-6.394-.983-9.866-1.524l-6.314-.983-1.313 1.355c-2.474 2.554-4.62 3.011-14.72 3.135-7.418.09-9.724.3-11.12 1.006-2.642 1.336-13.063 11.585-16.637 16.36-4.25 5.683-7.773 12.113-9.953 18.171-1.51 4.2-1.914 6.285-2.421 12.512-.335 4.11-1.17 10.708-1.857 14.662-.719 4.135-1.31 9.876-1.391 13.51-.117 5.32-.367 6.943-1.567 10.273-1.725 4.788-5.185 10.152-8.074 12.516-2.764 2.263-9.41 5.49-11.222 5.45-.778-.017-3.308.289-5.62.679-5.677.957-10.285.786-12.909-.48z" paint-order="stroke fill markers"/>
  <path d="M236.98 99.47c7.441.691 12.956-12.077 2.516-8.135-8.92-4.016-15.947-11.48-17.404-21.445-4.316 5.383 4.82 18.595 13.002 20.843 3.003 3.582 12.879 1.446 4.264 4.955-10.881 2.807-18.478-8.16-21.85-16.952-5.187-9.945-8.462-21.307-17.532-28.631-4.644-4.722-10.79-7.182-17.378-7.354.267 1.84 14.865 3.622 17.572 10.109 3.62 3.036 12.912 16.832 3.426 6.901-8.87-6.492-19.414-10.495-30.521-9.29-1.226.041-2.15.1-2.84.172l-3.151.014c-.051 0-.101.008-.15.024-.08-.03-.17-.054-.27-.067-8.08 6.334-22.207-1.778-26.886 3.897-14.963 9.885-26.347 25.347-30.515 42.848-1.866 10.836 1.128 25.136-9.757 32.028-10.817 5.438 3.79 4.776 6.27-.58.403 12.153-5.834 24.971-17.213 30.199l-.525 1.075c.36 1.408 10.836-4.27 12.626-6.442 5.363-6.042 9.073-14.128 8.303-22.328-.322-10.511 3.869-20.629 3.255-31.406 3.075-17.467 14.663-32.186 28.376-42.867 6.168-3.612 18.033 1.829 25.485-3.52.752-.052 1.412-1.048 1.435-1.862l2.46-.012c3.667.925 13.93 2.078 16.44 2.386 11.476 4.249 23.629 11.266 27.979 23.38 4.01 9.494 9.711 21.58 21.54 21.977 0 .049 1.043.082 1.043.082zm8.737 17.325c-.44.678.609 2.068 3.698 3.616 7.38 4.56 15.666-4.895 19.628-6.153 2.108-6.186 1.37-10.377 1.483-13.23 1.099-6.556 2.263 14.495 7.066 3.82 7.448-12.07-7.068-18.284-11.064-27.2-5.033-10.828-14.973-18.713-25.57-23.76 9.783-4.566 2.744-17.581-5.217-19.902-5.924-2.183-11.473-2.186-12.242-9.115-7.281-8.035-18.964-5.12-28.407-7.851a70.174 70.174 0 0 0-6.965-.507 19.288 19.288 0 0 0-3.42-.318c-7.873-.024-14.897 4.827-19.045 11.504-2.282 7.447-10.342-7.73-17.36-4.34-10.577-1.626-21.556 2.898-29.303 9.901-7.039 7.056-14.035 14.129-18.786 22.973-5.38 7.552-10.228 19.79-21.337 19.114 5.775-10.932-19.689.11-10.545 8.897 7.61 7.121-8.308 11.17-9.36 18.713-3.975 8.236 5.355 28.541-11.03 22.575-1.484 11.336 16.49 5.267 15.554 15.297-.774 9.082-11.973.413-9 7.75.376-.109.77-.164 1.182-.156 1.647.033 3.532 1.036 5.266 3.26.052-.504.115-1.007.198-1.506.189-1.006.559-1.279-.307-.95-5.882.567 8.923-5.572 5.567-11.711-5.136-4.308-3.469-11.614-9.747-5.759-6.407-1.932-5.717-3.552.612-3.54 3.231-9.312 7.5 2.257 13.57-2.15-10.366-2.538-13.331-16.98-7.072-25.28 2.101-5.62 11.302-11.017 11.82-13.516-9.168-2.496-2.743-19.494 1.708-8.587 11.97 3.022 19.168-10.08 24.396-18.676 5.023-9.015 11.49-16.85 19.006-23.919 6.246-7.008 16.512-10.815 25.888-10.014 9.81-.919 19.355 12.21 24.956-1.08 4.383-4.696 10.57-5.981 16.652-5.785a40.77 40.77 0 0 1 2.594.169c9.528 1.402 20.657-.537 28.795 5.48 4.754 3.978-1.204 9.685 8.2 8.958 9.2-.58 22.306 14.612 8.774 17.958-4.631 3.43 11.547 6.345 13.672 10.704 9.485 4.185 12.32 19.982 18.664 22.774 5.3 3.256 9.92 9.496 7.12 15.87.435 4.626-11.099-15.754-8.854-3.945 2.713 10.013-4.408 22.332-15.774 20.466-2.083-.998-3.71-1.358-4.697-1.275-.188.017-.773.059-.967.426zM70.002 136.582c-5.553 9.71 10.057 20.887 18.73 14.733 8.4-7.52-11.04 3.486-13.921-4.32-3.735-2.469-3.155-7.051-4.809-10.413zm4.58 5.351c-3.382 8.604 19.845 5.912 5.309 4.047-2.53-.338-3.76-2.46-5.308-4.047z"/>
</svg>
