<svg xmlns="http://www.w3.org/2000/svg" width="1278.065" height="1569.494" viewBox="0 0 338.155 415.262">
  <path fill="none" d="M.5.5h337.155v414.262H.5z" paint-order="stroke fill markers"/>
  <path class="hair" fill="#3b2516" d="M190.863 38.719a23.541 23.541 0 0 0-5.948.741c-10.146 2.22-18.344 8.055-28.527 3.243-9.864-1.861-20.57-1.245-29.326 4.148-7.343 6.353-14.05 13.811-18.72 22.412-11.596 16.851-17.735 36.508-23.368 55.96-3.41 15.091-9.78 30.579-5.66 46.235.8 9.528 10.28 14.863 12.917 23.417 1.008 5.577 3.848 13.726-1.373 17.885 1.813 4.99 11.721-.426 16.319 1.486 2.952-5.603 5.405 3.423 9.553 4.44l.714.538c7.426.722 25.13-9.524 13.65-15.603-6.505 6.163-11.218-2.35-14.531-7.221-4.636-7.648-6.85-16.278-6.358-25.211-1.828-14.528 3.23-28.583 4.516-42.925 4.269-16.078 4.791-33.537 13.281-48.293 4.2-8.6 11.842-15.894 20.87-18.826 8.329-2.396 16.609 2.494 24.635.397 8.116 1.673 16.012-4.74 23.043 2.659 11.758 9.147 18.824 22.852 24.786 36.237 4.988 15.5 6.73 31.823 7.619 48.025-.104 8.088-.62 15.92-.529 23.907-1.931 9.331-5.566 18.33-11.845 25.655-4.54 8.32-13.902 10.589-22.616 10.831-1.448 9.568 11.176 9.671 17.762 7.377 8.63-2.387 15.317-8.25 24.027-8.19 2.289-.97 3.115-1.768 3.049-2.227 6.725.987 5.797-6.334 4.564-10.571 2.097-1.462 9.168-1.84 8.915-6.952 10.993.958-6.537-8.037.737-13.823 4.09-8.416 10.544-15.909 10.567-25.764.238-10.775-2.979-21.391-5.909-31.686-3.637-10.598-7.41-21.241-12.228-31.371-8.516-11.402-15.538-24.08-26.314-33.624-8.115-6.328-17.73-13.274-28.272-13.306z"/>
  <path d="M190.863 38.719a23.54 23.54 0 0 0-5.948.741c-10.146 2.22-18.344 8.055-28.527 3.243-9.864-1.861-20.57-1.245-29.326 4.148-7.343 6.353-14.05 13.811-18.72 22.412-11.596 16.851-17.735 36.508-23.368 55.96-3.41 15.091-9.78 30.579-5.66 46.235.8 9.528 10.28 14.863 12.917 23.417 1.008 5.577 3.848 13.726-1.373 17.885 1.813 4.99 11.721-.426 16.32 1.486 2.95-5.603 5.404 3.423 9.552 4.44l.714.538c7.426.722 25.13-9.524 13.65-15.603-6.505 6.163-11.218-2.35-14.531-7.221-4.636-7.648-6.85-16.278-6.358-25.211-1.828-14.528 3.23-28.583 4.516-42.925 4.269-16.078 4.791-33.537 13.281-48.293 4.2-8.6 11.842-15.894 20.87-18.826 8.329-2.396 16.609 2.494 24.635.397 8.116 1.673 16.012-4.74 23.044 2.659 11.757 9.147 18.823 22.852 24.785 36.237 4.988 15.5 6.73 31.823 7.62 48.025-.105 8.088-.621 15.92-.53 23.907-1.931 9.331-5.566 18.33-11.845 25.655-4.54 8.32-13.902 10.589-22.616 10.83-1.448 9.569 11.176 9.672 17.762 7.378 8.63-2.387 15.317-8.25 24.027-8.191 2.289-.97 3.116-1.767 3.05-2.226 6.724.987 5.796-6.334 4.563-10.571 2.097-1.462 9.169-1.84 8.916-6.952 10.993.958-6.538-8.037.736-13.823 4.09-8.416 10.544-15.91 10.567-25.764.239-10.775-2.979-21.391-5.908-31.686-3.638-10.598-7.412-21.241-12.23-31.371-8.515-11.402-15.537-24.08-26.312-33.624-8.116-6.328-17.732-13.274-28.273-13.306zm2.546 2.157a56.987 56.987 0 0 1 1.6.005c14.316 4.362 25.785 14.922 34.886 26.457 5.84 7.174 11.629 14.751 15.67 23.087 6.284 18.752 15.204 37.356 15.216 57.504-.151 14.096-10.897 24.473-16.348 36.678-.62 1.965-8.672 12.904-4.185 9.573.83-.678 3.444 9.554-1.504 11.48-.403-.538-2.538-.321-4.719 1.165-8.88 2.716.448-2.75 1.656-6.403-3.713-1.258-9.019 10.116-15.284 10.16-6.955 2.653-16.743 7.808-23.253 2.825-1.445-1.426-2.36-2.964-1.64-3.07 3.165-.466 17.44-.099 20.066-7.615 4.886-6.397 10.351-12.695 13.28-20.146 5.345-16.044 2.566-33.028.808-49.423-1.89-10.287-2.401-20.823-5.101-30.923-4.543-12.092-10.926-23.75-19.428-33.515-1.366-4.573-19.823-11.683-12.592-11.253 5.51 1.962 6.202 1.378.9-1.494-7.352-.221-15.432 5.37-23.69 3.965-9.011-1.695-18.324-1.197-27.504-1.003 3.41 2.71-5.557 5.264-7.525 8.944-10.553 11.539-15.615 26.716-19.045 41.693-3.223 8.769-3.452 18.08-4.952 27.183-3.181 11.345-3.779 23.159-3.127 34.886-.72 12.905 4.489 25.888 14.004 34.646 2.16 5.165 14.817 2.528 4.48 1.34 8.5-6.95 7.662 8.146-1.03 6.972-6.068 5.202-11.028-2.42-15.945-5.267-7.62-7.983-14.187-17-20.937-25.663-6.692-10.432-8.952-23.408-6.113-35.477 4.966-20.04 10.008-40.255 18.35-59.237 7.055-13.456 13.915-27.624 25.122-38.187 7.208-7.58 18.352-9.098 28.154-6.875 5.267-.472 15.785 9.97 16.74 2.392a53.811 53.811 0 0 1 22.99-5.404zm-4.217 2.826a18.65 18.65 0 0 0-1.574.086c-4.953.49-16.012 2.908-15.735 7.472 8.09-3.91 18.09-8.842 26.757-3.707 7.41 4.53 15.998 7.893 21.638 14.753 5.14 6.438-2.231-3.905-4.208-4.597-8.4-5.333-16.338-14.138-26.878-14.007zm-47.714.726c-4.703.086-10.764 3.91-13.388 8.458-11.77 14.42-18.069 32.277-21.931 50.277 4.852-14.082 9.49-28.583 17.138-41.398 4.734-7.167 9.717-16.776 19.592-17.241a7.815 7.815 0 0 0-1.411-.096zm7.376 1.008c-6.279-.024-12.335 4.626-16.225 9.557-8.326 11.92-14.997 25.33-18.93 39.39l.46-.49.833-1.509c7.033-15.33 12.533-33.564 27.852-42.745 8.32-3.517 16.286 1.822 23.772 4.896-.24-2.721-8.18-5.469-11.482-7.354-2.07-1.21-4.188-1.737-6.28-1.745zm40.011 2.842c-6.356-.001-13.73 1.93-16.406 5.104 7.638-3.186 17.509-5.405 24.917-.648 13.873 10.426 26.342 23.51 33.849 39.304 5.398 10.161 5.01 21.9 8.078 32.708 2.664 9.042-.46-6.506-.03-8.353-1.786-9.92 3.96 1.63 4.778 5.05-.393-4.654-3.426-15.964-7.05-22.22-4.577-10.189-8.148-21.274-16.85-28.85-7.054-9.087-15.607-17.104-26.311-21.625-1.495-.319-3.195-.47-4.975-.47zm34.515 37.439c-.058.044 3.566 7.113 3.782 10.267 3.505 9.842 3.424 20.422 6.401 30.399 2.384 11.04 3.959 22.294 4.561 33.544.401 8.712-1.426 17.197-5.176 25.034l-.658 1.488c6.501-7.863 7.275-18.282 6.931-28.055-.861-11.908-2.119-23.852-4.282-35.59-1.22-11.523-4.258-22.827-9.374-33.258-1.575-2.789-2.162-3.847-2.185-3.83zm8.411 23.926c.212.077.608 1.303.966 4.078.463 2.853.01 3.12-.395.471-.81-2.847-.843-4.647-.57-4.549zm2.249 4.162c-.023-.008-.054.1-.094.413.143 1.12.175-.384.094-.413zm16.556 1.526c-.323-.11.984 5.655 1.449 7.975 1.119 9.512 3.498 19.263 1.838 28.802.405-.267 1.57-3.567 1.728-4.827.634-9.421-.363-19.489-3.737-28.563-.775-2.4-1.151-3.344-1.278-3.387zM89.56 132.468c-.023.016-.054.101-.091.295.162.838.193-.367.09-.295zm158.355 1.83c-.13-.02-.258.11-.383.423-.392 6.041 1.959 10.584 1.19 16.456-1.853 10.77-2.658 22-7.654 31.945-5.521 10.05-13.394 19.213-23.888 24.12-7.083 2.97.572 1.584 3.51-.282 8.944-4.713 14.706-13.257 20.238-21.5 7.447-11.399 8.707-25.295 8.707-38.564.437-2.399-.666-12.447-1.72-12.599zm-158.72.677c-.25.09-2.2 7.363-2.614 10.094-4.202 14.021 1.412 28.55 8.674 40.522 4.154 5.044-1.542-5.719-1.918-6.62-6.563-12.164-9.497-26.766-4.825-40.098.617-2.868.78-3.933.682-3.898zm161.284 46.32c.49.012.744.616.584 2.087 5.116 4.5-1.52 4.348-4.398 8.201-6.395 3.341 1.455-10.345 3.814-10.288zM96.422 197.949c.19.02.448.402.796 1.262 1.787 2.691 11.528 11.472 8.558 11.22-4.74-3.272-1.824-2.204-2.146 1.199-3.066 1.654-4.695-1.985-7.563.03.634-.428-.8-13.833.355-13.711z"/>
</svg>
