<svg xmlns="http://www.w3.org/2000/svg" width="1274.286" height="1565.714">
  <path fill="none" d="M0 0h1274.286v1565.714H0z" paint-order="stroke fill markers"/>
  <path class="hair" fill="#3b2516" d="M653.636 135.297c-31.573-.074-63.302 6.7-93.184 17.23-42.559 7.015-74.445 36.617-105.383 64.08-34.2 32.875-58.36 76.203-74.7 120.477-17.841 40.006-25.168 82.665-29.708 125.72l8.373 16.954c36.62 62.3 36.586 71.744 44.518-7.139 12.18-55.64 27.528-112.247 56.318-161.867 18.438-34.957 50.511-61.877 88.043-72.729 36.48 1.44 75.265 4.126 108.351-10.586 42.875-2.662 76.359-.063 117.463 4.797 12.322 14.625 29.525 55.554 54.957 72.09 29.58 30.442 33.266 75.423 43.268 115 6.213 25.229 6.12 40.324 2.848 65.594-.1.273-.135.565-.104.853v.014c.186 1.636 2.23 2.268 3.307 1.024 33.508-37.704 39.118-52.744 41.855-77.02.01.045.017.089.025.133l6.227-19.86c-9.244-34.94-18.883-69.894-36.065-101.908-21.053-38.605-45.082-80.636-83.043-104.347-31.172-2.957-54.744-36.58-89.418-37.754-20.817-7.448-42.346-10.704-63.949-10.754z"/>
  <path d="M350.449 462.91c4.54-43.055 12.08-85.82 29.922-125.827 16.339-44.273 40.498-87.6 74.698-120.475 30.938-27.464 62.825-57.067 105.384-64.082 50.328-17.736 105.89-24.81 157.132-6.476 34.673 1.175 58.245 34.797 89.418 37.754 37.96 23.71 61.99 65.742 83.043 104.347 17.182 32.014 26.82 66.969 36.064 101.909l-6.226 19.859c-7.337-40.63-18.148-79.1-35.076-116.531-21.882-31.164-36.19-57.622-63.767-84.805-34.534-35.52-48.173 20.702-25.529 44.357 28.539 39.292 70.917 70.05 85.471 118.674 8.492 16.007 25.446 66.624 6.21 24.62-9.552-19.482-44.006-87.418-25.572-32.205 14.454 42.085 23.344 88.631 18.833 133.09l-7.285.19c3.41-25.572 2.43-50.551-3.855-76.068-10.001-39.577-11.049-86.476-40.629-116.918-25.432-16.536-42.635-57.465-54.957-72.09-41.104-4.86-74.59-7.458-117.464-4.796-33.086 14.712-71.871 12.025-108.352 10.585-37.531 10.852-69.604 37.772-88.042 72.728-28.79 49.621-42.613 107.075-54.793 162.715-3.468 23.348-4.225 45.784-.331 68.597l-7.58-9.451c2.594-48.348 3.357-94.139 20.841-139.707 18.074-64.45 52.783-129.883 115.56-160.058-41.7-18.99-64.032 51.626-69.908 50.351 5.114-43.865 41.793-66.01 81.685-72.5 55.107 2.346 110.569 12.422 165.774 7.826-36.29-42.87-101.418-51.431-153.164-37.533-72.515 25.647-121.616 91.745-155.005 158.187-11.172 22.216-26.154 51.028-34.393 78.524-8.175 27.28-9.646 53.295-10.86 62.945zm493.967-178.563c-10.338-20.966-51.41-57.007-43.776-69.072 20.555 22.056 40.652 47.397 49.908 76.517zm-464.949 90.226c29.773-73.332 76.013-142.342 141.897-187.469 67.077-28.95 146.788-36.21 215.45-8.066 14.498 13.81 63.001 43.949 43.918 5.24-38.98-29.545-89.884-43.096-138.542-43.432-43.95 6.395-88.714 16.61-128.45 36.838-35.504 28.057-74.116 55.7-93.908 97.914-21.608 36.115-37.157 75.653-48.289 116.152 3.5-5.261 5.172-11.527 7.924-17.177zm237.186-143.172c47.446-6.582-39.667-7.03-52.53-10.702-19.775-4.58-50.23 6.46-11.894 7.266 21.122 4.35 42.977 3.527 64.424 3.436zm151.081-8.195c5.514-30.256-58.515-49.747-90.606-51.179-16.135-2.55-51.09-4.05-14.238 3.159 41.873 7.327 57.374 65.235 104.844 48.02z"/>
</svg>
