<svg xmlns="http://www.w3.org/2000/svg" width="1278.714" height="1568.173" viewBox="0 0 338.326 414.913">
  <path fill="none" d="M0 .651h337.155v414.262H0z" paint-order="stroke fill markers"/>
  <path class="hair" fill="#3b2516" d="M182.02 32.578c-20.904 5.319-31.276 5.25-44.914 9.066-9.31 5.435-17.596 13.153-25.226 21.245-14.367 20.82-25.59 44.878-30.29 70.968-4.899 14.98 4.657 31.388-2.927 45.545-2.754 12.69 2.805 26.838-2.498 38.676-7.912 8.788-6.797 26.894 5.375 29.731 1.63 3.766-10.457 12.133-9.225 20.344.912 11.87 7.438 6.805 14.762 8.07-9.679-8.95 7.37-7.482 10.95-12.057-.372 11.17 12.672 18.237 17.645 6.29 8.488-11.613-9.492-7.573-7.089-17.685 9.788-6.929 12.452-22.592 4.136-32.758-11.89-7.506-12.71-23.016-9.464-36.497-4.073-12.603 2.665-25.904 1.62-39.395 3.816-15.451 8.33-30.836 14.498-45.372 5.918-12.163 8.986-28.609 21.334-34.486 9.38 1.975 20.172-7.39 28.417-1.086 4.4 10.654 5.617 22.964 11.403 33.033 1.291 6.006 11.456 11.917 9.228 6.225 6.652 2.666 12.867 7.499 18.759 11.436 1.965-.194 11.424 2.202 7.13-2.344 1.7 1.05 5.88 3.746 7.821 7.289 5.473 12.957 14.033 24.839 15.377 39.521 1.059 10.803-8.106 19.549-5.888 30.826 7.479 9.25-5.55 14.382-6.624 24.403-5.73 12.455 3.966 24.037 6.298 33.674-12.243 2.303-17.658 24.116-4.848 29.955 1.436.711 3.01 1.222 4.599.912 5.662-6.22 11.06-6.34 18.458-5.168-1.831-5.628 3.037-6.398 7.137-11.062 7.154-5.893.178-13.296-1.046-18.245 6.513-9.835 4.417 11.564 6.741 3.849-1.118-10.327-4.483-20.235-2.982-30.451 6.138-9.532-3.166-16.042-1.961-24.856 5.977-10.6-2.198-21.433-.166-32.754 2.977-19.939-2.89-39.631-9.743-57.732-7.102-24.205-23.088-43.237-40.763-58.203-8.117-6.852-15.903-10.754-26.033-10.907z"/>
  <path d="M182.02 32.578c-3.376-.05-17.57 2.556-20.965 3.932-7.386 1.862-13.597-.489-23.949 5.134-9.31 5.435-17.596 13.153-25.226 21.245-14.367 20.82-25.59 44.878-30.29 70.968-4.899 14.98 4.657 31.388-2.927 45.545-2.754 12.69 2.805 26.838-2.498 38.676-7.912 8.788-6.797 26.894 5.375 29.731 1.63 3.766-10.457 12.133-9.225 20.344.912 11.87 7.438 6.805 14.762 8.07-9.679-8.95 7.37-7.482 10.95-12.057-.372 11.17 12.672 18.237 17.645 6.29 8.488-11.613-9.492-7.573-7.089-17.685 9.788-6.929 12.452-22.592 4.136-32.758-11.89-7.506-12.71-23.016-9.464-36.497-4.073-12.603 2.665-25.904 1.62-39.395 3.816-15.451 8.33-30.836 14.498-45.372 5.918-12.163 8.986-28.609 21.334-34.486 9.38 1.975 20.172-7.39 28.417-1.086 4.4 10.654 5.617 22.964 11.403 33.033 1.291 6.006 12.343 13.44 9.228 6.225 6.652 2.666 12.867 7.499 18.759 11.436 1.965-.194 11.424 2.202 7.13-2.344 1.7 1.05 5.88 3.746 7.821 7.289 5.473 12.957 14.033 24.839 15.377 39.521 1.059 10.803-8.106 19.549-5.888 30.826 7.479 9.25-5.55 14.382-6.624 24.403-5.73 12.455 3.966 24.037 6.298 33.674-12.243 2.303-17.658 24.116-4.848 29.955 1.436.711 3.01 1.222 4.599.912 5.662-6.22 11.06-6.34 18.458-5.168-1.831-5.628 3.037-6.398 7.137-11.062 7.154-5.893.178-13.296-1.046-18.245 6.513-9.835 4.417 11.564 6.741 3.849-1.118-10.327-4.483-20.235-2.982-30.451 6.138-9.532-3.166-16.042-1.961-24.856 5.977-10.6-2.198-21.433-.166-32.754 2.977-19.939-2.89-39.631-9.743-57.732-7.102-24.205-23.088-43.237-40.763-58.203-8.117-6.852-15.903-10.754-26.033-10.907zm-.396 3.116c17.331.686 31.377 13.6 43.108 27.256 19.381 21.73 28.47 52.296 33.07 82.058.274 3.126-1.066 19.947-2.645 14.69-.482-12.809-2.353-.805-.857 4.854 3.778 10.097 8.821 27.396-4.85 31.31-3.761-1.207 8.783-13.565 2.493-20.223-6.646-11.5-.899 1.2-.443 6.885-2.687 11.943-6.449-3.18-5.837-8.075-1.443 2.706 2.965 15.335-4.272 7.867-.834-7.229-4.988-1.842-1.556 1.584 7.772 2.18 10.67 15.387-.343 10.949-10.588-8.599-.682-21.74 1.151-31.725.175-3.881 3.235-7.874-3.873-18.987-5.38-12.22-10.456-22.219-16.664-34.053 3.623 9.908-4.676-5.953-5.283.93.03.02.2.124.253.158 2.007 4.902-6.34-1.317-7.922-1.795 1.723 10.736-8.996-14.81-7.82-7.797 6.537 12.127-4.014-.914-4.81-6.2-3.603-11.619-2.293 4.592 1.577 7.373-1.773-1.577-7.439-2.225-8.492-6.973-4.4-12.784-1.601 3.422-.64 6.011-8.946-10.266-11.444-22.645-15.132-35.983-5.017-16.507-18.402-1.75-28.825-4.256-13.119 1.784-17.188 18.231-22.04 29.745-8.028 14.5-12.245 31.005-17.034 47.098-3.672 12.24-12.762 25.052-6.594 38.319 10.455 11.24-11.061 1.605-7.693-6.692 4.01-9.902 2.035-21.46 6.308-31.357-2.756 4.16-8.04 15.241-10.504 22.818-.5-7.18-.743-22.63 2.973-32.143-4.89 8.092-5.006 18.32-4.903 27.762-.163 15.95-2.165-6.025-1.334-11.272 1.529-19.514 7.849-38.265 16.153-55.322 10.396-20.445 24.7-40.177 44.663-48.802 5.403-1.077 14.028-2.595 17.315-2.382 3.509.226 14.13-3.914 21.302-3.63zm-21.49 6.134c-1.362-.155-16.46 10.755-13.046 15.877 2.799 1.227 3.2-4.478 5.26-5.995 2.817-3.35 8.318-9.82 7.785-9.882zm3.693 10.167c-1.301.053-2.674.583-4.104 1.733 8.377-.728 14.565 9.098 16.688 17.32l.132.215c.536-2.138-4.763-19.591-12.716-19.268zm36.543 34.047c-.869 1.613 4.837 12.652 7.702 17.134 4.712 6.88-7.494-15.966-7.702-17.134zm30.684 22.826c-1.25 1.648 6.512 16.527 6.755 24.073l.469 2.247c1.252-1.494-2.742-20.177-7.224-26.32zM101.33 150.93c.808.11 2.75 15.752-1.475 19.524-7.338 5.154-.154-16.11 1.298-19.2.047-.23.108-.333.177-.324zm-10.947 2.532c2.095 11.136-5.295 22.222-10.14 31.662l-.603.64c.811-11.196 6.71-22.065 10.743-32.302zm156.707 5.426c-1.12-.171-4.606 12.137-6.585 15.91 5.867-1.461 5.955-10.028 6.852-15.433-.06-.308-.15-.46-.267-.477zM87.993 176.572c2.993.09 7.624 6.522 3.633 10.49l-1.232 1.878c-2.856 9.524-4.812-2.261-4.282-6.025-.805-4.698.313-6.39 1.881-6.343zm7.641 6.3c9.053 5.292-.936 19.888 6.02 27.245-.763 3.805-4.673-4.142-5.632-4.905-8.365-6.044-3.173-14.75-.388-22.34zm-13.104 1.139c2.137.234 5.106 18.276 12.244 22.308-4.574 1.091-18.53-12.588-12.244-22.308zm171.883 13.277c3.273-.05 9.121 11.14 5.286 16.245-2.105 2.809-4.375-2.365-6.05-3.389-7.01.55-6.654-12.316-.142-6.122 2.498 11.05 4.082.898-1.026-3.033.168-2.618.93-3.686 1.932-3.7zm-8.86 1.009c.916.069 1.62.702 1.925 2.084-11.762 12.292 8.197 24.284 2.493 36.412-8.137 3.776-11.544-16.126-13.242-22.667-.903-1.696-.866-3.766-.271-5.844-2.752 6.665-6.891 14.093-8.741 20.566-1.705 2.263-.99-3.494-.977-4.304.687-9.955 5.105-20.712 12.384-26.16-.062 2.212-.722 4.725-1.694 7.403 2.023-4.128 5.771-7.668 8.123-7.49zm-8.123 7.49c-.4.817-.732 1.656-.972 2.495.35-.845.675-1.677.972-2.495zm-156.85-6.1c2.034-.142 6.154 4.424 4.98 9.065.016 7.011-4.266-.57-4.798-2.723-1.874-4.477-1.404-6.257-.183-6.342zm8.763 7.592c3.74-.074 3.544 12.868-2.534 13.697-9.896 11.4 2.09-8.964.695-12.795.69-.615 1.304-.891 1.839-.902zm157.747 1.454c.109.075.129.752-.04 2.469-1.88 4.688-.351-2.737.04-2.47zm-152.193 2.546c11.59 7.226 1.038 23.325-8.73 24.36-1.045.461-1.35 1.91-1.901 2.838-6.774-8.601 8.898-17.755 10.631-27.198zm-13.782.028c.462.004.993.246 1.613.788-2.581 3.984 1.767 27.856-7.143 19.142-5.335 2.287 9.495 7.716 9.589 13.258-9.688 3.155-14.86-9.766-10.731-19.218 3.6-2.35 3.442-13.998 6.672-13.97zm167.662.582c8.472.197 15.315 19.933 8 28.565l-1.032.26-1.368.372c4.05-9.31-9.38-18.88-6.425-29.154.277-.035.551-.049.825-.043zm-146.894 1.762c.206-.014.707.494 1.49 1.938l-.016.552c-1.346-.998-1.818-2.468-1.474-2.49zm133.037 4.043c.995-.173 3.89 7.725 4.747 11.447-2.547-.546-3.779-3.565-4.694-5.99-.554-3.873-.473-5.384-.053-5.457zm-130.765.61c.286.072.32 1.467-.173 5.163-5.077 11.175-.847-5.424.173-5.164zm4.566.846c.438.018 1.214.625 2.471 2.006 9.05 10.096 3.997 24.52-5.137 31.53-7.537 5.607.405 21.187 5.112 14.506-8.84 3.19-7.212-17.714-2.926-6.006 7.794-2.062 10.007 8.629 2.21 11.622-1.76 1.027-3.943 1.426-5.806.47-7.853-8.828.137-22.996 4.095-32.234 5.113-4.94-2.384-21.993-.02-21.894zm123.408 1.746c3.258 8.31 13.406 15.018 13.411 25.652-2.158-.55-4.17-1.65-6.157-2.72-9.087-2.584-14.966-14.672-7.254-22.932zm-126.524 3.392c1.932-.27 3.084 7.52 2.918 11.578-1.697 6.6-8.812-3.881-5.514-6.852.963-3.281 1.84-4.62 2.596-4.726zm-8.988 7.79c6.736.71 12.646 10.67 6.252 18.053-2.009 3.71-2.08-6.896-3.825-7.549-5.592-1.06-11.004-7.711-2.427-10.504zm-8.506 6.067c2.598-.059 9.395 6.179 10.977 9.135.526 3.142-9.191-2.27-11.032-4.255-1.439-3.527-1.125-4.854.055-4.88zm164.682.289c.654-.065.253.782-2.583 3.437-7.638 2.855.914-3.27 2.583-3.437zm-2.223 7.182c3.676.01 9.29 3.115 8.983 8.564-.139 6.089-7.736-3.033-10.345-2.622-3.183-4.087-1.496-5.95 1.362-5.942zm-12.29.135a5.893 5.893 0 0 1 2.315.529c9.3 10.205-8.94 9.988-14.45 10.934-.64 1.131-3.467 1.771-2.493-.591 3.74-3.82 9.207-10.991 14.628-10.872zm-149.93 1.065c13.955 6.035-14.72 14.455-6.733 25.822-2.932 3.096-6.786.073-7.26-3.883-.974-9.633 8.77-16.062 13.993-21.94zm8.77 5.399c4.194-.206 1.289 17.966-7.093 13.262-11.765 3.25-.459-6.752 3.035-9.678 1.744-2.511 3.09-3.537 4.058-3.584zm150.59 1.438c4.015-.04-.486 9.27-1.998 12.494-5.547 2.453.172-9.823.466-12.164.61-.221 1.117-.326 1.532-.33zm-145.576.705c.097-.004.209.006.339.032.302 3.17-1.788.03-.339-.032zm149.542 1.441c7.957 1.323.14 10.097-3.969 11.242-1.95-3.664 8.095-6.162 3.969-11.242zm-11.86 2.003c.278.022.06.708-1.219 2.451 4.25-4.862 6.186 1.037 3.383 4.883.769 2.707-2.931 1.354-2.697-.191-5.579-1.295-.297-7.208.534-7.143zm-7.492.852c1.978-.018 5.96 7.961 7.657 11.056-3.684 3.567-7.655-2.119-8.768-5.787-.202-3.828.276-5.262 1.111-5.27zm-5.819 1.765c2.312 1.07 7.53 9.639 9.12 14.567-7.512 6.296-18.732-9.467-9.12-14.567zm-126.672 1.868c1.09 3.828-.968.104 0 0zm144.418 5.565c.152-.048.49.392 1.11 1.708.171 4.882-1.654-1.534-1.11-1.708z"/>
</svg>
