<?xml version="1.0" encoding="UTF-8" standalone="no"?>
<!-- Created with Inkscape (http://www.inkscape.org/) -->

<svg
   xmlns:dc="http://purl.org/dc/elements/1.1/"
   xmlns:cc="http://creativecommons.org/ns#"
   xmlns:rdf="http://www.w3.org/1999/02/22-rdf-syntax-ns#"
   xmlns:svg="http://www.w3.org/2000/svg"
   xmlns="http://www.w3.org/2000/svg"
   xmlns:sodipodi="http://sodipodi.sourceforge.net/DTD/sodipodi-0.dtd"
   xmlns:inkscape="http://www.inkscape.org/namespaces/inkscape"
   width="338.15475mm"
   height="415.26193mm"
   viewBox="0 0 338.15475 415.26193"
   version="1.1"
   id="svg8"
   inkscape:version="0.92.3 (2405546, 2018-03-11)"
   sodipodi:docname="Fronthair01.svg">
  <defs
     id="defs2" />
  <sodipodi:namedview
     id="base"
     pagecolor="#ffffff"
     bordercolor="#666666"
     borderopacity="1.0"
     inkscape:pageopacity="0.0"
     inkscape:pageshadow="2"
     inkscape:zoom="0.35"
     inkscape:cx="951.51681"
     inkscape:cy="963.23887"
     inkscape:document-units="mm"
     inkscape:current-layer="layer1"
     showgrid="false"
     inkscape:window-width="1920"
     inkscape:window-height="1001"
     inkscape:window-x="-9"
     inkscape:window-y="-9"
     inkscape:window-maximized="1"
     inkscape:snap-global="true"
     fit-margin-top="0"
     fit-margin-left="0"
     fit-margin-right="0"
     fit-margin-bottom="0" />
  <metadata
     id="metadata5">
    <rdf:RDF>
      <cc:Work
         rdf:about="">
        <dc:format>image/svg+xml</dc:format>
        <dc:type
           rdf:resource="http://purl.org/dc/dcmitype/StillImage" />
        <dc:title />
      </cc:Work>
    </rdf:RDF>
  </metadata>
  <g
     inkscape:label="Ebene 1"
     inkscape:groupmode="layer"
     id="layer1"
     transform="translate(1354.4108,-270.58325)"
     style="display:inline">
    <rect
       style="opacity:1;fill:none;fill-opacity:1;fill-rule:evenodd;stroke:none;stroke-width:0.99999988;stroke-linecap:round;stroke-linejoin:miter;stroke-miterlimit:4;stroke-dasharray:none;stroke-dashoffset:0;stroke-opacity:1;paint-order:stroke fill markers"
       id="rect1307-6"
       width="337.15475"
       height="414.26193"
       x="-1353.9108"
       y="271.08325"
       inkscape:label="Frame" />
    <path
       style="display:inline;opacity:1;fill:#3b2516;fill-opacity:1;fill-rule:evenodd;stroke:none;stroke-width:1;stroke-linecap:round;stroke-linejoin:miter;stroke-miterlimit:4;stroke-dasharray:none;stroke-dashoffset:0;stroke-opacity:1;paint-order:stroke fill markers"
       d="m -1285.1708,430.66784 c -2.5545,-1.23197 -5.4171,-4.45181 -6.7316,-7.57169 -0.5965,-1.41578 -1.3194,-2.30138 -1.8887,-2.31391 -0.5072,-0.0112 -1.2154,-0.38982 -1.5736,-0.84145 -0.3584,-0.45159 -1.5914,-0.99267 -2.74,-1.20239 -1.7403,-0.31769 -2.0575,-0.56908 -1.9024,-1.50741 0.1614,-0.97692 0.636,-1.15201 3.5812,-1.32116 4.2437,-0.24373 5.4619,-1.39322 5.5464,-5.23391 0.048,-2.19328 -0.1714,-2.76573 -1.5143,-3.94717 -0.8639,-0.76 -1.9902,-1.51241 -2.5028,-1.67206 -7.0126,-2.1833 -8.6788,-2.85997 -9.8608,-4.00481 -0.8809,-0.85324 -1.3738,-1.90347 -1.3523,-2.88166 l 0.034,-1.53911 2.9729,0.31254 c 3.3766,0.35498 5.1618,-0.30275 6.1,-2.24743 0.3771,-0.7814 0.6999,-4.82133 0.8194,-10.25401 0.2612,-11.86675 0.6053,-12.82978 6.5642,-18.37168 6.6038,-6.14165 7.1273,-7.69698 3.8626,-11.47442 -1.5126,-1.75034 -1.9336,-2.69095 -1.8994,-4.2446 0.086,-3.91544 5.6758,-8.5816 10.261,-8.56581 l 2.2004,0.008 -0.1709,2.06848 -0.1711,2.06849 2.6871,-0.19863 c 3.552,-0.26258 7.727,-3.00452 10.9001,-7.15869 1.3201,-1.72839 4.6435,-6.67838 7.3852,-11 5.8552,-9.22925 9.9423,-14.3211 17.2031,-21.43271 8.9077,-8.72456 16.0384,-11.91392 27.6511,-12.36755 7.7161,-0.30142 8.131,-0.18279 14.1698,4.05142 2.1716,1.52271 4.2816,2.77591 4.6888,2.78487 0.4072,0.009 1.5807,-1.22836 2.6079,-2.74961 2.648,-3.92228 6.9256,-7.53004 11.1266,-9.38431 3.4824,-1.53716 3.8435,-1.58526 10.1538,-1.35255 3.5987,0.13272 7.6008,0.5029 8.8935,0.82265 1.2928,0.31974 5.5181,0.89265 9.3896,1.27313 7.5597,0.74296 10.4032,1.39018 13.3194,3.03173 2.8376,1.5973 4.0011,2.84746 4.6623,5.00954 0.872,2.85179 3.06,4.4852 8.3306,6.21914 5.7545,1.89313 7.0373,2.58468 9.4278,5.08283 4.7124,4.92455 5.0207,12.43521 0.6025,14.67616 -0.6932,0.35154 -1.2636,0.7911 -1.2677,0.97679 0,0.18568 1.1227,0.91677 2.5039,1.62464 9.1819,4.70557 17.4895,12.51712 22.0463,20.72976 1.599,2.88198 4.6108,7.06209 7.2161,10.01537 4.6445,5.26476 6.8691,9.24321 6.8133,12.1847 -0.036,1.90115 -1.8578,6.74265 -3.1456,8.36004 -1.2531,1.57372 -2.46,0.4205 -3.665,-3.50198 -0.5648,-1.83847 -1.2537,-3.3921 -1.5308,-3.45251 -0.2781,-0.0606 -0.7192,2.64168 -0.9842,6.02826 -0.264,3.37598 -0.6607,6.61535 -0.8814,7.19861 -0.4767,1.25988 -9.1455,6.74816 -12.2882,7.77978 -1.2118,0.3978 -2.7142,0.7097 -3.3385,0.69308 -1.9611,-0.0522 -6.5682,-2.6599 -7.5273,-4.26063 -0.5056,-0.84374 -1.6037,-2.3745 -2.4403,-3.40165 -2.3977,-2.94388 -4.7304,-7.06182 -6.1433,-10.84459 l -1.3008,-3.48274 -2.97,-0.74361 c -7.642,-1.91337 -11.2445,-5.9185 -17.8307,-19.82334 -3.3981,-7.17398 -4.4459,-8.86462 -7.3968,-11.93462 -1.8909,-1.96717 -4.9736,-4.61936 -6.8506,-5.89377 -5.07,-3.44239 -12.7372,-6.8347 -16.868,-7.4631 -1.9537,-0.29722 -6.3935,-0.98299 -9.8662,-1.52397 l -6.314,-0.98357 -1.3129,1.35544 c -2.4732,2.5536 -4.6198,3.01074 -14.7194,3.13469 -7.4179,0.091 -9.7246,0.29967 -11.1203,1.00578 -2.6416,1.33624 -13.0633,11.58559 -16.6365,16.36122 -4.2514,5.68195 -7.7737,12.11236 -9.9532,18.17052 -1.5108,4.19941 -1.9144,6.28498 -2.4213,12.51143 -0.3345,4.10957 -1.1703,10.7077 -1.8574,14.66249 -0.7184,4.13501 -1.3093,9.87554 -1.3907,13.50915 -0.1171,5.31978 -0.3668,6.94382 -1.5666,10.27312 -1.7255,4.78804 -5.1857,10.15187 -8.0746,12.51648 -2.764,2.26244 -9.4094,5.49011 -11.2215,5.45033 -0.7781,-0.0171 -3.3077,0.28814 -5.6211,0.67829 -5.6757,0.9571 -10.2839,0.78586 -12.908,-0.47973 z"
       id="path1304"
       inkscape:connector-curvature="0"
       inkscape:label="Vorderhaar" />
    <path
       id="path1024-5"
       style="display:inline;fill:#000000;stroke-width:1"
       d="m -1117.4306,370.05237 c 7.4411,0.69201 12.9562,-12.07575 2.5153,-8.13371 -8.9196,-4.01642 -15.9463,-11.48089 -17.4035,-21.4453 -4.3158,5.38316 4.8204,18.59441 13.0015,20.84287 3.0033,3.58242 12.8792,1.44571 4.2649,4.9547 -10.8814,2.8077 -18.4783,-8.16033 -21.85,-16.95213 -5.1873,-9.94483 -8.4625,-21.30664 -17.5328,-28.63083 -4.644,-4.72187 -10.7897,-7.18211 -17.3772,-7.35378 0.2664,1.84101 14.8645,3.62174 17.5714,10.10894 3.6207,3.03574 12.9123,16.83234 3.4265,6.90147 -8.8701,-6.49196 -19.4143,-10.4957 -30.5215,-9.29095 -1.2259,0.0416 -2.1497,0.10075 -2.84,0.17215 l -3.1512,0.0149 c -0.051,-1.2e-4 -0.1007,0.008 -0.1489,0.0231 -0.08,-0.0303 -0.1706,-0.0532 -0.2704,-0.067 -8.0802,6.33448 -22.2078,-1.77739 -26.8865,3.89791 -14.963,9.88422 -26.3472,25.34704 -30.5144,42.84734 -1.8669,10.83655 1.1278,25.13594 -9.7572,32.02775 -10.8174,5.43808 3.789,4.77661 6.2697,-0.57943 0.4035,12.15255 -5.8343,24.97096 -17.2125,30.19877 l -0.5254,1.07496 c 0.3606,1.40785 10.8363,-4.27009 12.6262,-6.44217 5.3625,-6.04136 9.0732,-14.12808 8.3031,-22.32777 -0.3219,-10.51137 3.8683,-20.6287 3.2551,-31.40588 3.0747,-17.46691 14.6629,-32.18591 28.3759,-42.86701 6.1675,-3.61201 18.033,1.82894 25.4842,-3.51992 0.7523,-0.0522 1.4128,-1.04774 1.4355,-1.86228 l 2.4591,-0.0121 c 3.6676,0.92578 13.9309,2.07835 16.4414,2.38604 11.4752,4.24922 23.6284,11.26619 27.9784,23.37965 4.0107,9.49423 9.7113,21.58068 21.541,21.97778 -10e-4,0.0484 1.0423,0.0819 1.0423,0.0819 z m 8.7369,17.32607 c -0.4401,0.6783 0.6085,2.06778 3.6979,3.6159 7.3808,4.5591 15.6659,-4.89501 19.6284,-6.15313 2.1072,-6.18635 1.369,-10.3768 1.4821,-13.2292 1.0993,-6.55671 2.2634,14.49428 7.0666,3.81875 7.4476,-12.06879 -7.0679,-18.28319 -11.0639,-27.19933 -5.0329,-10.82865 -14.9736,-18.71307 -25.5701,-23.76032 9.7832,-4.56618 2.7436,-17.58096 -5.2173,-19.90136 -5.9241,-2.18337 -11.4729,-2.18659 -12.2414,-9.1155 -7.2818,-8.03465 -18.9642,-5.12092 -28.4075,-7.85139 -2.3106,-0.28844 -4.6417,-0.44939 -6.9653,-0.50635 -1.1533,-0.21132 -2.295,-0.31465 -3.4195,-0.3182 v 3e-5 c -7.8733,-0.024 -14.8973,4.82731 -19.0448,11.50441 -2.2828,7.447 -10.3425,-7.72959 -17.3598,-4.34044 -10.5778,-1.62586 -21.5561,2.89792 -29.3038,9.90108 -7.0387,7.05635 -14.035,14.12852 -18.786,22.97264 -5.38,7.55233 -10.2282,19.78991 -21.3372,19.11426 5.7759,-10.93189 -19.6884,0.10923 -10.5449,8.89669 7.6102,7.12143 -8.3075,11.16993 -9.3593,18.71315 -3.9754,8.23628 5.355,28.54128 -11.0301,22.5748 -1.4841,11.33633 16.4893,5.26764 15.5541,15.29752 -0.7745,9.08163 -11.9732,0.413 -8.9996,7.74908 0.3752,-0.1083 0.7701,-0.16341 1.1809,-0.15542 1.6476,0.0333 3.5326,1.03612 5.2661,3.26066 0.052,-0.5048 0.1152,-1.00799 0.1986,-1.507 0.1883,-1.00576 0.5587,-1.27822 -0.3078,-0.94961 v 0 c -5.882,0.5666 8.923,-5.57201 5.5672,-11.71115 -5.1358,-4.30773 -3.4687,-11.61423 -9.7468,-5.75869 -6.4073,-1.93235 -5.7168,-3.55251 0.6123,-3.53962 3.2311,-9.31227 7.5,2.25651 13.5707,-2.14979 -10.3667,-2.53882 -13.3319,-16.98129 -7.0728,-25.28064 2.1013,-5.62035 11.3019,-11.01722 11.82,-13.5165 -9.1679,-2.49521 -2.7435,-19.49373 1.7082,-8.58618 11.9688,3.02124 19.1677,-10.07951 24.3952,-18.67633 5.0233,-9.01517 11.4911,-16.85023 19.0068,-23.91886 6.2454,-7.00863 16.5115,-10.81481 25.8872,-10.01454 9.8107,-0.91857 19.3551,12.21051 24.9569,-1.07887 4.3822,-4.69631 10.5693,-5.98174 16.6513,-5.78603 v 4e-5 c 0.8688,0.0281 1.7357,0.0859 2.5946,0.16876 9.528,1.40272 20.6563,-0.53674 28.7947,5.48016 4.7539,3.97851 -1.2037,9.68492 8.2002,8.95883 9.1989,-0.58089 22.3062,14.61184 8.7734,17.95705 -4.6309,3.43123 11.5469,6.34548 13.6728,10.70491 9.4842,4.18487 12.3203,19.98171 18.6639,22.77353 5.2996,3.25555 9.9194,9.49568 7.1203,15.86964 0.4345,4.62673 -11.0992,-15.75344 -8.8548,-3.94443 2.7135,10.01253 -4.408,22.33141 -15.7737,20.46536 -2.0832,-0.99752 -3.7108,-1.35781 -4.6973,-1.27414 -0.1878,0.0165 -0.7725,0.0584 -0.9667,0.42577 z m -175.7148,19.78678 c -5.5533,9.70958 10.0564,20.88672 18.7292,14.7332 8.4001,-7.5201 -11.0399,3.48614 -13.9207,-4.32005 -3.7348,-2.46865 -3.1552,-7.05135 -4.8085,-10.41315 z m 4.5802,5.35137 c -3.3822,8.60344 19.844,5.91173 5.3083,4.04677 -2.5289,-0.33812 -3.7605,-2.45997 -5.3083,-4.04677 z"
       inkscape:connector-curvature="0"
       sodipodi:nodetypes="cccccccccccccccccccccccccccccccccccccccccccccccccccccccccccccccccccccccccccccccccccccccccccc"
       inkscape:label="Kontur_Vorderhaar" />
  </g>
</svg>
