<svg xmlns="http://www.w3.org/2000/svg" width="1274.286" height="1565.714">
  <path fill="none" d="M0 0h1274.286v1565.714H0z" paint-order="stroke fill markers"/>
  <path class="hair" fill="#3b2516" d="M350.673 461.07c-2.5 21.895-4.173 43.925-6.002 65.8-5.905 53.37 6.596 105.692 9.107 158.78 6.481 50.844-13.601 98.926-18.605 148.78 5.004-2.1 9.953-11.917 11.588-10.604 6.16 4.95-9.005 40.411-7.406 61.528 6.082 52.713 18.537 114.327 47.024 159.393 28.945 54.777 46.313 81.812 77.172 110.247 13.282 9.99 22.46-22.188 23.74-31.274 2.669-46.901 15.67-86.694 29.105-131.867 12.455-66.665 13.49-145.436-10.127-210.483-24.724-50.955-51.643-100.96-76.012-152.125-19.713-41.954-32.402-87.75-29.31-134.178-18.716-13.572-37.127-30.328-50.274-33.998zm569.672-83.085-5.623 11.309c.18.75.346 1.503.523 2.254a1.733 1.733 0 0 0-.273-.016c-.758.022-1.373.526-1.424 1.168-6.074 10.309-15.845 8.07-35.383 70.084-.293.272-.408.565-.408.844l-4.147 8.342c-.044 38.433-10.431 76.832-21.675 113.359-20.223 69.39-67.778 126.407-90.645 194.588-21.98 37.783-23.25 83.213-12.35 124.451 2.69 45.97 28.959 84.323 49.165 123.75 29.67 25.426 31.718 73.957 55.453 97.014 5.232-58.75 19.713 34.625 47.658 21.85 24.69-28.745 37.009-66.545 52.416-100.946 6.768-38.74 22.705-7.91 36.236 9.34 21.454 23.658 21.888-.94 6.979-15.946-32.931-35.55-9.124-70.182 3.908-107.974 19.087-67.813-5.032-137.152-24.9-201.805-8.239-56.091-40.099-107.44-38.752-164.879 5.913-46.046 1.457-92.01-3.631-137.857-4.504-16.218-8.639-32.628-13.127-48.93z"/>
  <path d="m920.345 377.985-4.185 11.309c7.299 39.604 13.085 82.86 12.066 124.685 4.793 52.65-12.658 103.454-11.803 155.977-5.976 64.887-1.934 130.183 12.584 193.719 3.15 42.554 35.703 88.305 20.119 128.304-23.689-11.178-30.928-56.382-46.658-81.722-6.542 2.597 23.457 68.71 39.783 92.047-22.448 24.775 3.942 6.188 12.94 11.794-10.799 40.351-25.953 82.408-51.37 116.169-28.257 25.162-53.817-61.611-47.271-85.272-2.09-32.272-.226-97.15-11.195-110.799 3.665 57.726 3.317 115.796 2.777 173.565-16.946-39.429-23.32-82.688-25.236-125.272-9.745-33.154 2.462-84.333-1.444-107.623-12.036 37.662-8.821 79.623-4.246 118.69-5.874 11.754 14.52 72.661.377 49.984-20.6-30.844-39.554-63.914-50.469-99.588-18.38-46.987-32.98-99.292-12.003-146.7 11.751-47.727 49.427-88.058 72.955-130.349 18.167-41.13 38.21-83.05 44.658-127.994 7.643-26.174 9.52-53.219 7.441-80.125l-6.555 13.186c-.044 38.433-10.431 76.832-21.675 113.359-20.223 69.39-75.927 127.366-98.795 195.547-21.979 37.783-15.025 69.316-9.623 111.628 5.954 46.636 32.376 98.193 54.588 135.614 29.67 25.426 31.718 73.957 55.453 97.014 5.232-58.75 19.713 34.625 47.658 21.85 24.69-28.745 37.009-66.545 52.416-100.946 6.768-38.74 22.705-7.91 36.236 9.34 21.454 23.658 21.888-.94 6.979-15.946-32.931-35.55-9.124-70.182 3.908-107.974 19.087-67.813-5.032-137.152-24.9-201.805-8.239-56.091-40.099-107.44-38.752-164.879 5.913-46.046 1.457-92.01-3.631-137.857-4.211-20.79-7.71-47.137-13.127-48.93zM350.673 461.07c-2.5 21.896-4.173 43.926-6.002 65.8-5.905 53.371 6.596 105.693 9.107 158.78 6.481 50.845-13.601 98.927-18.605 148.781 6.743-2.831 11.045-8.84 12.074-5.772 2.611 7.787-9.343 37.527-7.892 56.696 6.082 52.713 19.016 125.353 47.503 170.42 25.217 41.556 28.895 72.586 70.94 103.056 26.226 9.03 31.264-28.058 32.543-37.144 15.89-51.986 18.043-87.372 31.479-132.545 12.455-66.664 14.675-136.962-8.941-202.008-24.724-50.955-58.253-106.723-82.622-157.888-19.713-41.954-25.632-82.096-22.541-128.524l-6.77-5.654c-5.568 38.538-13.477 72.149-12.449 111.145 9.379 62.383 2.108 127.674-25.861 184.607-5.065 7.984-9.82 16.371-16.055 23.514 14.667-42.932 22.034-88.252 18.277-133.633-.64-45.535-16.072-89.242-11.433-134.982-.555-27.592 3.247-54.592 6.196-82.002zm46.117 106.047c10.133 37.266 26.418 72.437 37.442 109.473 7.299 62.548 11.047 126.882-3.125 188.882-14.524 57.345 5.436 145.353 20.47 200.792-4.052 2.774-38.708-40.405-57.118-73.838-15.278-27.747-31.83-63.92-37.424-91.893-4.538-22.695-5.082-40.09.848-58.194 7.568-41.221 35.904-75.223 37.029-119.212 14.117-51.58-.281-103.897 1.878-156.01zm534.606 43.557c1.78-.004 4.05 5.115 6.726 18.173 19.091 42.637 25.925 88.755 37.783 133.532 10.343 39.873 28.374 80.07 23.594 122.015-2.14 40.552-11.757 87.34-44.723 114.084-18.14 16.062 4.179-9.246 3.172-13.172 33.553-49.141 27.394-112.241 17.034-167.712-16.884-46.24-30.762-93.325-42.375-141.157-7.616-11.076-7.028-65.75-1.211-65.763zm-7.204 73.617c15.737 47.064 28.711 95.181 46.508 141.549 7.645 42.64 9.202 88.448-6.484 129.734-4.778 21.375-9.683-22.51-12.57-26.107-13.593-81.045-40.127-162.338-27.454-245.176zm-481.501 1.148c13.53 12.548 43.797 80.895 62.524 111.98 17.446 62.74 20.357 127.975 7.618 191.07-14.423 47.25-23.002 91.297-32.315 139.408-.54 19.22-11.644 24.158-17.445 19.457-51.358-41.612-53.455-72.615-76.391-115.958-14.193-33.019-37.783-111.852-38.507-139.642 8.833 64.091 93.567 199.006 108.942 185.45 5.743-16.867-8.308-38.685-7.02-51.806 7.057-29.415 10.246-77.828 22.996-99.54 15.234-46.36 11.968-85.002 1.305-131.692-15.526-49.891-7.273 13.286-3.553 32.281 15.061 59.503-19.438 113.102-23.932 174.88-11.687-43.053-17.919-88.614-9.133-132.882 14.93-60.088 9.982-122.041 4.91-183.006zm443.251 6.073c-17.62 67.136-20.21 139.7-9.556 208.923 1.324 43.229 18.177 82.97 28.389 124.31l.802.976-.271-4.582c-11.977-51.27-20.92-103.266-23.92-155.944-7.968-57.892 2.355-116.062 4.556-173.683zm78.62 308.974c6.068-.174 20.553 30.098 24.867 40.42 3.555 15.763-19.165-28.756-27.576-32.008-.03-5.929 1.01-8.363 2.709-8.412z"/>
</svg>
