<svg xmlns="http://www.w3.org/2000/svg" width="1278.714" height="1568.173" viewBox="0 0 338.326 414.913">
  <path fill="none" d="M0 .651h337.155v414.262H0z" paint-order="stroke fill markers"/>
  <path class="hair" fill="#3b2516" d="M218.344 181.18c-.56-.006-1.127.036-1.698.125-2.283.353-4.62 1.452-6.695 3.242-4.152 3.58-7.162 9.944-6.94 18.777l.025-.004c-1.787 10.371-8.131 17.207-2.153 27.97 4.458 9.001 13.68 16.813 13.37 27.064 1.049 6.942-4.321 11.881-6.53 17.986-9.804 12.343-10.13 30.444-2.811 44.164 3.044 14.238 16.496 21.093 29.589 23.663 2.2.474 4.464.686 6.716.602 9.008 1.666 1.757-6.678 7.455-8.115-1.332-6.074-4.077-8.965-7.813-14.647-.814-15.197 4.04-29.808 10.456-43.346 3.882-12.319 5.25-25.627 3.243-38.44.801-7.597-5.732-18.736-4.194-22.998-7.85-2.571-1.786-8.682-9.825-11.02-3.53-2.065-15.787-24.087-18.166-24.044-1.235-.642-2.605-.965-4.03-.98z"/>
  <path d="M222.25 182.306c-7.196 2.04 10.962 11.37 8.199 17.934 1.269 11.454 12.904 16.945 14.975 28.238 3.333 10.33 1.789 1.107.412-4.427 9.813 13.46 8.49 31.734 2.35 46.462-2.863 12.374-14.967 20.927-14.341 34.41-1.09 9.174 5.212 25.086 8.98 28.376-2.593-10.185.11-3.464 3.522.89-1.45 7.66-18.302-6.088-18.896-5.06-3.824 1.533 6.324 7.315 11.603 9.23 14.542 5.439-6.996 2.946-11.868.084-5.31-1.164-22.57-14.877-15.203-13.443-8.333-10.228-11.268-24.249-7.862-36.986 1.338 1.258.554 17.135 7.31 21.611 2.83 1.157-6.994-16.79-3.605-22.362-.222-12.303 11.38-21.493 8.899-34.153 1.154-13.95-10.223-24.423-11.196-37.864-1.398 11.983 9.02 21.128 9.831 32.814-2.185-.714-11.244-15.101-13.2-21.4-2.557-9.994 4.19-16.921 1.213-25.489-1.131 11.683-8.861 18.705-2.46 30.23 4.458 9.001 13.681 16.813 13.37 27.064 1.05 6.942-4.32 11.881-6.53 17.986-9.803 12.342-10.129 30.444-2.81 44.163 3.044 14.239 16.496 21.094 29.588 23.664 2.201.474 4.464.686 6.716.602 9.008 1.666 1.758-6.679 7.456-8.115-1.332-6.075-4.077-8.965-7.814-14.647-.813-15.197 4.04-29.809 10.456-43.347 3.882-12.318 5.25-25.626 3.244-38.44.801-7.596-5.732-18.735-4.194-22.997-7.851-2.571-1.786-8.682-9.825-11.02-3.615-2.114-16.374-25.144-18.32-24.008zm11.056 19.325c.99.1 7.544 9.303 10.316 11.246.152 2.424-7.45-4.08-8.364-6.2-1.876-3.73-2.34-5.085-1.952-5.046zm9.218 14.72c.737.068 2.066 1.288 3.771 4.74-4.427-.79-5.179-4.867-3.771-4.74zm7.092 6.842c.057.016.19.29.437.984.494 3.706-.684-1.055-.437-.984zm-35.33 3.984c6.94 11.398 6.076 25.669 3.595 38.254-1.007 5.124 2.14-3.436 2.528-4.088 3.195-10.713.264-29.52-6.123-34.166zm36.882 44.819c-4.866 12.217-12.298 23.734-13.1 37.267-.844 8.67-1.63-3.675-1.087-5.71-.179-12.004 9.295-22.567 14.187-31.557z"/>
</svg>
