<?xml version="1.0" encoding="UTF-8" standalone="no"?>
<!-- Created with Inkscape (http://www.inkscape.org/) -->

<svg
   xmlns:dc="http://purl.org/dc/elements/1.1/"
   xmlns:cc="http://creativecommons.org/ns#"
   xmlns:rdf="http://www.w3.org/1999/02/22-rdf-syntax-ns#"
   xmlns:svg="http://www.w3.org/2000/svg"
   xmlns="http://www.w3.org/2000/svg"
   xmlns:sodipodi="http://sodipodi.sourceforge.net/DTD/sodipodi-0.dtd"
   xmlns:inkscape="http://www.inkscape.org/namespaces/inkscape"
   version="1.1"
   id="svg2"
   width="1274.2856"
   height="1565.7144"
   viewBox="0 0 1274.2856 1565.7144"
   sodipodi:docname="Hair03.svg"
   inkscape:version="0.92.3 (2405546, 2018-03-11)"
   inkscape:label="Ebene">
  <metadata
     id="metadata8">
    <rdf:RDF>
      <cc:Work
         rdf:about="">
        <dc:format>image/svg+xml</dc:format>
        <dc:type
           rdf:resource="http://purl.org/dc/dcmitype/StillImage" />
        <dc:title></dc:title>
      </cc:Work>
    </rdf:RDF>
  </metadata>
  <defs
     id="defs6" />
  <sodipodi:namedview
     pagecolor="#ffffff"
     bordercolor="#666666"
     borderopacity="1"
     objecttolerance="10"
     gridtolerance="10"
     guidetolerance="10"
     inkscape:pageopacity="0"
     inkscape:pageshadow="2"
     inkscape:window-width="1920"
     inkscape:window-height="1001"
     id="namedview4"
     showgrid="false"
     inkscape:zoom="0.36875"
     inkscape:cx="806.78782"
     inkscape:cy="521.68027"
     inkscape:window-x="-9"
     inkscape:window-y="-9"
     inkscape:window-maximized="1"
     inkscape:current-layer="svg2"
     fit-margin-top="0"
     fit-margin-left="0"
     fit-margin-right="0"
     fit-margin-bottom="0" />
  <rect
     style="display:inline;opacity:1;fill:none;fill-opacity:1;fill-rule:evenodd;stroke:none;stroke-width:3.77952719;stroke-linecap:round;stroke-linejoin:miter;stroke-miterlimit:4;stroke-dasharray:none;stroke-dashoffset:0;stroke-opacity:1;paint-order:stroke fill markers"
     id="rect1307"
     width="1274.2856"
     height="1565.7144"
     x="0"
     y="0"
     inkscape:label="Frame" />
  <path
     id="path1160"
     style="fill:#ffe680;fill-opacity:1"
     d="m 350.67291,461.06915 c -2.4992,21.89591 -4.1726,43.92625 -6.002,65.80078 -5.9047,53.37031 6.5958,105.69176 9.1075,158.7793 6.4808,50.84496 -13.6018,98.92667 -18.6055,148.78124 5.0039,-2.10136 9.9529,-11.91759 11.5879,-10.60403 6.1604,4.94925 -9.0044,40.41086 -7.4063,61.52786 6.0825,52.71228 18.5375,114.32645 47.0242,159.3927 28.9457,54.7766 46.313,81.8121 77.1722,110.2474 13.2817,9.989 22.4599,-22.1886 23.7392,-31.2748 2.6695,-46.9007 15.6702,-86.6936 29.106,-131.86689 12.4551,-66.66428 13.489,-145.43602 -10.1275,-210.48278 -24.7236,-50.95488 -51.6428,-100.96017 -76.0117,-152.125 -19.7125,-41.95404 -32.4018,-87.75028 -29.3106,-134.17774 -18.715,-13.57266 -37.1266,-30.32841 -50.2734,-33.99804 z m 569.6719,-83.08399 -5.6231,11.3086 c 0.1804,0.74993 0.3465,1.50313 0.5235,2.2539 -0.089,-0.0115 -0.1796,-0.0183 -0.2735,-0.0156 -0.7573,0.0216 -1.3728,0.52601 -1.4238,1.16797 -6.0744,10.30874 -15.8446,8.07013 -35.3828,70.08398 -0.2931,0.27199 -0.4086,0.56472 -0.4082,0.84375 l -4.1465,8.3418 c -0.044,38.43386 -10.4317,76.83251 -21.6758,113.35937 -20.2227,69.38962 -67.7773,126.40742 -90.6445,194.58789 -21.9792,37.78337 -23.2505,83.21291 -12.3496,124.45117 2.69,45.97037 28.9584,84.32286 49.164,123.74991 29.6714,25.4264 31.7186,73.9572 55.4532,97.0138 5.2325,-58.7492 19.7137,34.625 47.6582,21.8496 24.6892,-28.7442 37.0087,-66.5443 52.416,-100.9454 6.7677,-38.7397 22.7049,-7.9104 36.2363,9.3398 21.45329,23.6579 21.88799,-0.9398 6.9785,-15.9453 -32.9309,-35.5497 -9.1233,-70.18198 3.90819,-107.97451 19.0867,-67.81312 -5.03149,-137.15179 -24.90039,-201.80469 -8.2382,-56.09142 -40.0985,-107.44029 -38.7519,-164.87891 5.9129,-46.04666 1.4574,-92.01041 -3.6309,-137.85742 -4.5038,-16.21768 -8.6387,-32.62773 -13.1269,-48.92969 z"
     inkscape:label="Haar"
     inkscape:connector-curvature="0"
     sodipodi:nodetypes="ccccscccccccccccccccccccccccccccccccc" />
  <path
     inkscape:connector-curvature="0"
     style="fill:#000000"
     d="m 920.34481,377.98516 -4.1849,11.3086 c 7.2988,39.60392 13.0853,82.86063 12.0657,124.68554 4.7929,52.65016 -12.658,103.4542 -11.8027,155.97657 -5.9758,64.88696 -1.9341,130.18324 12.584,193.71875 3.151,42.55403 35.7031,88.3057 20.1191,128.30473 -23.6886,-11.17855 -30.928,-56.38268 -46.6582,-81.7227 -6.5417,2.59753 23.4575,68.71057 39.7832,92.04685 -22.4479,24.7752 3.9416,6.1888 12.9395,11.7949 -10.7981,40.3506 -25.9525,82.4073 -51.3692,116.1682 -28.2571,25.162 -53.8175,-61.6108 -47.2715,-85.2716 -2.0903,-32.2717 -0.2257,-97.15031 -11.1953,-110.7989 3.6656,57.72575 3.3173,115.7961 2.7774,173.5645 -16.9457,-39.4281 -23.3205,-82.6876 -25.2363,-125.27153 -9.7442,-33.15437 2.4622,-84.33338 -1.4434,-107.62305 -12.0365,37.66248 -8.8216,79.62286 -4.2461,118.68943 -5.8738,11.75475 14.5197,72.66175 0.3769,49.98445 -20.6,-30.8439 -39.5536,-63.91382 -50.4687,-99.58794 -18.3812,-46.98736 -32.9809,-99.29151 -12.0032,-146.69941 11.7512,-47.72709 49.4268,-88.05818 72.9544,-130.34942 18.1676,-41.13049 38.2105,-83.04942 44.6582,-127.99414 7.6433,-26.17448 9.521,-53.21858 7.4414,-80.125 l -6.5547,13.18555 c -0.044,38.43386 -10.4317,76.83251 -21.6758,113.35937 -20.2227,69.38962 -75.927,127.36621 -98.7942,195.54668 -21.9792,37.78337 -15.0254,69.31669 -9.6236,111.62797 5.954,46.63664 32.3757,98.19368 54.5877,135.61434 29.6714,25.4265 31.7186,73.9573 55.4532,97.0139 5.2325,-58.7492 19.7137,34.625 47.6582,21.8496 24.6892,-28.7442 37.0087,-66.5443 52.416,-100.9454 6.7677,-38.7398 22.7049,-7.9104 36.2363,9.3398 21.45329,23.6579 21.88799,-0.9398 6.9785,-15.9453 -32.9309,-35.5498 -9.1233,-70.1821 3.90819,-107.97463 19.0867,-67.81312 -5.03149,-137.15179 -24.90039,-201.80469 -8.2382,-56.09142 -40.0985,-107.44029 -38.7519,-164.87891 5.9129,-46.04666 1.4574,-92.01041 -3.6309,-137.85742 -4.2111,-20.78963 -7.7098,-47.13727 -13.1269,-48.92969 z m -569.6719,83.08399 c -2.4992,21.89591 -4.1726,43.92625 -6.002,65.80078 -5.9047,53.37031 6.5958,105.69177 9.1075,158.7793 6.4808,50.84496 -13.6018,98.92666 -18.6055,148.78124 6.7431,-2.83173 11.0455,-8.84088 12.0743,-5.77261 2.6112,7.78754 -9.3434,37.52742 -7.8927,56.69644 6.0825,52.71228 19.0169,125.3525 47.5036,170.4189 25.2169,41.5563 28.8944,72.5872 70.94,103.0564 26.2254,9.0302 31.2635,-28.0576 32.5428,-37.1438 15.8899,-51.9854 18.0432,-87.3717 31.479,-132.54495 12.4551,-66.66428 14.6754,-136.96145 -8.9411,-202.00821 -24.7236,-50.95488 -58.253,-106.72288 -82.6219,-157.88771 -19.7125,-41.95404 -25.6323,-82.09599 -22.5411,-128.52345 l -6.7695,-5.65429 c -5.5684,38.53825 -13.4778,72.14832 -12.4492,111.14454 9.3788,62.38355 2.1081,127.67379 -25.8613,184.60742 -5.0651,7.98382 -9.819,16.37132 -16.0547,23.51367 14.6671,-42.93133 22.0341,-88.25185 18.2773,-133.63281 -0.6405,-45.53535 -16.0723,-89.24189 -11.4336,-134.98243 -0.5548,-27.59166 3.2469,-54.59143 6.1958,-82.00152 z m 46.1172,106.04687 c 10.1329,37.26635 26.4178,72.43663 37.4414,109.47266 7.299,62.54782 11.0471,126.8819 -3.125,188.88281 -14.5234,57.34466 5.4363,145.35281 20.4713,200.79131 -4.0525,2.7745 -38.7092,-40.4049 -57.1186,-73.83816 -15.2779,-27.74621 -31.8302,-63.91894 -37.4238,-91.89288 -4.538,-22.69428 -5.0822,-40.08905 0.848,-58.19362 7.5675,-41.22153 35.904,-75.2231 37.0281,-119.21235 14.1179,-51.57955 -0.2807,-103.89726 1.8789,-156.00977 z m 534.6055,43.55664 c 1.7807,-0.004 4.0511,5.1149 6.7265,18.17383 19.0912,42.63664 25.9253,88.75422 37.7832,133.53125 10.3426,39.87295 28.37409,80.07075 23.5938,122.01563 -2.1409,40.55169 -11.7574,87.33968 -44.7227,114.08398 -18.14,16.06135 4.1785,-9.2461 3.1719,-13.17188 33.553,-49.14153 27.3936,-112.2415 17.0332,-167.71289 -16.8835,-46.23924 -30.7614,-93.32429 -42.375,-141.15625 -7.616,-11.07658 -7.028,-65.74993 -1.2109,-65.76367 z m -7.2032,73.61719 c 15.7362,47.06374 28.7109,95.1812 46.5078,141.54883 7.6446,42.64073 9.2018,88.44856 -6.4843,129.73437 -4.7781,21.37485 -9.6826,-22.51017 -12.5703,-26.10742 -13.5929,-81.04437 -40.1269,-162.33755 -27.4532,-245.17578 z m -481.5019,1.14844 c 13.5304,12.54802 43.7975,80.8952 62.5242,111.9795 17.4465,62.73979 20.3572,127.97522 7.6186,191.07072 -14.4234,47.24999 -23.0025,91.29629 -32.315,139.40739 -0.5395,19.2197 -11.6444,24.1577 -17.4454,19.4575 -51.3576,-41.6122 -53.4553,-72.6155 -76.3914,-115.9585 -14.1921,-33.01878 -37.7828,-111.85202 -38.5067,-139.64216 8.8332,64.09139 93.5674,199.00586 108.942,185.44956 5.7433,-16.8665 -8.3082,-38.6844 -7.0201,-51.8051 7.0568,-29.41525 10.2465,-77.82778 22.9961,-99.54094 15.2341,-46.35947 11.968,-85.00156 1.3047,-131.69141 -15.526,-49.8911 -7.2725,13.28619 -3.5527,32.28125 15.0612,59.50299 -19.4376,113.10233 -23.9317,174.8808 -11.6872,-43.05374 -17.9189,-88.61501 -9.1328,-132.88275 14.9306,-60.08814 9.9821,-122.04153 4.9102,-183.00586 z m 443.2519,6.07226 c -17.6211,67.13627 -20.2095,139.70128 -9.5566,208.92383 1.3246,43.22824 18.1768,82.97035 28.3887,124.31052 l 0.8027,0.9746 -0.2715,-4.582 c -11.9768,-51.26989 -20.9192,-103.2656 -23.9199,-155.94335 -7.9682,-57.89205 2.3551,-116.06173 4.5566,-173.6836 z m 78.6192,308.97455 c 6.0684,-0.1739 20.5538,30.0982 24.8672,40.42 3.5549,15.763 -19.165,-28.7566 -27.5762,-32.0079 -0.029,-5.9291 1.0098,-8.3634 2.709,-8.4121 z"
     id="path817-0-5-0"
     inkscape:label="Kontur_Haar"
     sodipodi:nodetypes="cccccccccccccccccccccccccscccccccccccccccsccccccccccccccccccccssccccccccccccccccccccccsccccccccccccccacccccc" />
</svg>
