<?xml version="1.0" encoding="UTF-8" standalone="no"?>
<!-- Created with Inkscape (http://www.inkscape.org/) -->

<svg
   xmlns:dc="http://purl.org/dc/elements/1.1/"
   xmlns:cc="http://creativecommons.org/ns#"
   xmlns:rdf="http://www.w3.org/1999/02/22-rdf-syntax-ns#"
   xmlns:svg="http://www.w3.org/2000/svg"
   xmlns="http://www.w3.org/2000/svg"
   xmlns:sodipodi="http://sodipodi.sourceforge.net/DTD/sodipodi-0.dtd"
   xmlns:inkscape="http://www.inkscape.org/namespaces/inkscape"
   width="338.15475mm"
   height="415.26193mm"
   viewBox="0 0 338.15475 415.26193"
   version="1.1"
   id="svg8"
   inkscape:version="0.92.3 (2405546, 2018-03-11)"
   sodipodi:docname="Nose01.svg">
  <defs
     id="defs2" />
  <sodipodi:namedview
     id="base"
     pagecolor="#ffffff"
     bordercolor="#666666"
     borderopacity="1.0"
     inkscape:pageopacity="0.0"
     inkscape:pageshadow="2"
     inkscape:zoom="0.49497474"
     inkscape:cx="252.01513"
     inkscape:cy="902.69633"
     inkscape:document-units="mm"
     inkscape:current-layer="layer1"
     showgrid="false"
     inkscape:window-width="1920"
     inkscape:window-height="1001"
     inkscape:window-x="-9"
     inkscape:window-y="-9"
     inkscape:window-maximized="1"
     inkscape:snap-global="true"
     fit-margin-top="0"
     fit-margin-left="0"
     fit-margin-right="0"
     fit-margin-bottom="0" />
  <metadata
     id="metadata5">
    <rdf:RDF>
      <cc:Work
         rdf:about="">
        <dc:format>image/svg+xml</dc:format>
        <dc:type
           rdf:resource="http://purl.org/dc/dcmitype/StillImage" />
        <dc:title></dc:title>
      </cc:Work>
    </rdf:RDF>
  </metadata>
  <g
     inkscape:label="Ebene 1"
     inkscape:groupmode="layer"
     id="layer1"
     transform="translate(1354.4108,-270.58325)"
     style="display:inline">
    <rect
       style="opacity:1;fill:none;fill-opacity:1;fill-rule:evenodd;stroke:none;stroke-width:0.99999988;stroke-linecap:round;stroke-linejoin:miter;stroke-miterlimit:4;stroke-dasharray:none;stroke-dashoffset:0;stroke-opacity:1;paint-order:stroke fill markers"
       id="rect1307-6"
       width="337.15475"
       height="414.26193"
       x="-1353.9108"
       y="271.08325"
       inkscape:label="Frame" />
    <path
       id="path1447"
       style="fill:#000000;stroke-width:1"
       d="m -1180.2351,414.1212 c -0.2502,0.0112 0.084,0.57946 1.2839,2.2545 0.9556,1.33382 1.8268,2.43318 1.9358,2.44357 0.4364,0.0408 0.1912,-1.45784 -0.4174,-2.55074 -0.6151,-1.10462 -1.3365,-1.67935 -2.6603,-2.11991 -0.059,-0.0196 -0.1063,-0.0289 -0.142,-0.0274 z m 7.983,5.08616 c -0.2891,-0.006 -0.1018,0.666 0.7445,1.87202 0.771,1.09893 0.8288,1.3346 0.7638,3.12952 -0.083,2.28891 -0.5071,3.00295 -2.3607,3.97359 -0.6669,0.34921 -1.422,0.80265 -1.6783,1.00767 -0.4412,0.35297 -0.4417,0.39169 0,0.72773 0.9948,0.76155 3.1308,0.24692 4.3972,-1.05896 2.2223,-2.29165 2.0775,-5.22962 -0.4109,-8.33821 -0.715,-0.89325 -1.2281,-1.30846 -1.453,-1.31336 z m -29.4488,1.74242 c -0.1047,-0.0126 -0.277,0.1 -0.4951,0.37315 -1.2191,1.52668 -1.5958,4.30309 -0.8798,6.48413 0.7438,2.26602 2.3935,3.33617 4.9304,3.19901 1.2642,-0.0683 1.7552,0.0185 2.283,0.40484 0.7415,0.5426 3.0703,1.58762 4.3025,1.9307 2.4395,0.67919 8.9501,0.23021 11.3904,-0.78564 2.1929,-0.91291 6.8622,-4.66901 6.8686,-5.52531 0,-0.56115 -0.01,-0.55931 -0.5972,0.0779 -0.9325,1.00875 -2.0004,1.62497 -4.7495,2.74145 -3.4316,1.39363 -6.4141,1.85638 -10.4754,1.62505 -3.7198,-0.21184 -4.6546,-0.56201 -7.1922,-2.69209 -1.7292,-1.45149 -2.5575,-1.61898 -2.2946,-0.46455 0.1218,0.5348 0.045,0.62697 -0.5139,0.61467 -1.2136,-0.0267 -2.4786,-0.8837 -3.0023,-2.03391 -0.394,-0.86544 -0.4553,-1.40929 -0.3015,-2.67068 0.1063,-0.871 0.3714,-1.91796 0.5893,-2.32698 0.2986,-0.56029 0.3117,-0.9305 0.1373,-0.95167 z"
       inkscape:connector-curvature="0"
       inkscape:label="Kontur_Nase" />
  </g>
</svg>
