<svg xmlns="http://www.w3.org/2000/svg" width="1278.065" height="1569.494" viewBox="0 0 338.155 415.262">
  <path fill="none" d="M0 .005h338.667v415.256H0z" paint-order="fill markers stroke"/>
  <path d="M174.96 145.74c.955 1.333 1.826 2.433 1.935 2.443.437.04.192-1.458-.417-2.55-.615-1.105-1.497-11.871-2.82-12.312 0 0 .293 10.823 1.302 12.418zm6.17 2.831c-.29-.006-.102.666.744 1.872.771 1.099.829 1.335.764 3.13-.083 2.288-.507 3.003-2.36 3.973-.668.35-1.423.803-1.68 1.008-.44.353-.44.392 0 .728.996.761 3.132.246 4.398-1.06 2.222-2.291 2.078-5.229-.41-8.338-.716-.893-1.229-1.308-1.454-1.313zm-28.39 1.742c-.106-.012-.278.1-.496.374-1.219 1.526-1.596 4.303-.88 6.484.744 2.266 2.394 3.336 4.93 3.199 1.265-.069 1.756.018 2.284.405.741.542 2.54 1.587 3.773 1.93 2.44.68 8.95.23 11.39-.785 2.193-.913 4.316-4.438 4.322-5.294 0-.561-.01-.56-.597.078-.932 1.008-1.967 1.989-4.716 3.105-3.432 1.394-3.9 1.261-7.962 1.03-3.72-.212-4.126-.562-6.663-2.692-1.73-1.452-2.558-1.62-2.295-.465.122.535.045.627-.514.615-1.213-.027-2.478-.884-3.002-2.034-.394-.866-.455-1.41-.301-2.67.106-.872.371-1.919.589-2.328.298-.56.312-.93.137-.951z"/>
</svg>
