<svg xmlns="http://www.w3.org/2000/svg" width="1278.065" height="1569.494" viewBox="0 0 338.155 415.262">
  <path fill="none" d="M.5.5h337.155v414.262H.5z" paint-order="stroke fill markers"/>
  <path d="M178.776 153.029a.133.133 0 0 0-.125.045.27.27 0 0 0-.05.138c-.029.217.062.568.228.797.575 1.555 1.643 2.98 1.691 4.66.01.522-.243.923-.553 1.303-.31.38-.674.736-.87 1.164a.037.037 0 0 0 0 .01.037.037 0 0 0 0 .008c0 .04 0 .098.013.154.013.057.045.117.113.14a.037.037 0 0 0 .018.001c1.066-.247 1.973-1.06 2.483-2.02v-.003c.338-.51.346-1.06.217-1.596-.13-.537-.397-1.064-.612-1.537a.037.037 0 0 0 0-.002c-.58-1.055-1.075-2.322-2.191-2.951-.152-.199-.264-.294-.361-.31zm-18.96.238a.467.467 0 0 0-.222.106.037.037 0 0 0-.01.004.037.037 0 0 0 0 .006.037.037 0 0 0 0 .01c-.122.413-.363.74-.619 1.064-.255.324-.527.645-.7 1.05-.487 1.064-1.36 2.159-1.085 3.427.118 1.162.603 2.374 1.701 2.945a.197.197 0 0 0 .043.053c.026.022.06.045.1.07.08.049.185.103.305.156.24.107.536.214.799.281.131.034.254.057.357.067.103.009.186.007.246-.026a.123.123 0 0 0 .062-.078c.01-.034 0-.07-.016-.11-.035-.078-.113-.173-.246-.298a.037.037 0 0 0 0-.002.037.037 0 0 0-.01-.006c-1.21-.528-1.936-1.818-2.123-3.088v-.006c.01-1.458.75-2.793 1.305-4.123v-.008c.082-.127.182-.407.248-.695.034-.146.059-.293.064-.42.01-.127 0-.234-.053-.307a.16.16 0 0 0-.15-.072zm16.946 6.533a2.241 2.241 0 0 0-.283.045c-.398.085-.861.255-1.068.297a.037.037 0 0 0 0 .002c-1.456.394-2.71 1.253-4.106 1.75-1.938.392-3.954-.13-5.74-.908v.004c-.752-.47-1.583-.806-2.474-.887l-.01-.002a1.138 1.138 0 0 0-.18-.05c-.05-.009-.087-.01-.12.003a.089.089 0 0 0-.05.08c0 .032.012.063.029.096.067.132.23.31.324.44a.037.037 0 0 0 0 .006.037.037 0 0 0 0 .002c1.365 1.165 3.009 1.937 4.547 2.828a.037.037 0 0 0 .01.004c.226.123.46.241.71.314a.037.037 0 0 0 0 .002c1.56.276 3.183-.187 4.553-.922a.037.037 0 0 0 0-.002c1.422-.914 2.888-1.771 4.254-2.775a.037.037 0 0 0 .01-.004.037.037 0 0 0 0-.006.037.037 0 0 0 .01-.014.268.268 0 0 0-.035-.199.266.266 0 0 0-.164-.094.813.813 0 0 0-.234-.01z"/>
</svg>
