<?xml version="1.0" encoding="UTF-8" standalone="no"?>
<!-- Created with Inkscape (http://www.inkscape.org/) -->

<svg
   xmlns:dc="http://purl.org/dc/elements/1.1/"
   xmlns:cc="http://creativecommons.org/ns#"
   xmlns:rdf="http://www.w3.org/1999/02/22-rdf-syntax-ns#"
   xmlns:svg="http://www.w3.org/2000/svg"
   xmlns="http://www.w3.org/2000/svg"
   xmlns:sodipodi="http://sodipodi.sourceforge.net/DTD/sodipodi-0.dtd"
   xmlns:inkscape="http://www.inkscape.org/namespaces/inkscape"
   width="338.15475mm"
   height="415.26193mm"
   viewBox="0 0 338.15475 415.26193"
   version="1.1"
   id="svg8"
   inkscape:version="0.92.3 (2405546, 2018-03-11)"
   sodipodi:docname="Nose05.svg">
  <defs
     id="defs2" />
  <sodipodi:namedview
     id="base"
     pagecolor="#ffffff"
     bordercolor="#666666"
     borderopacity="1.0"
     inkscape:pageopacity="0.0"
     inkscape:pageshadow="2"
     inkscape:zoom="0.49497474"
     inkscape:cx="59.771666"
     inkscape:cy="717.63915"
     inkscape:document-units="mm"
     inkscape:current-layer="layer1"
     showgrid="false"
     inkscape:window-width="1920"
     inkscape:window-height="1001"
     inkscape:window-x="-9"
     inkscape:window-y="-9"
     inkscape:window-maximized="1"
     inkscape:snap-global="true"
     fit-margin-top="0"
     fit-margin-left="0"
     fit-margin-right="0"
     fit-margin-bottom="0" />
  <metadata
     id="metadata5">
    <rdf:RDF>
      <cc:Work
         rdf:about="">
        <dc:format>image/svg+xml</dc:format>
        <dc:type
           rdf:resource="http://purl.org/dc/dcmitype/StillImage" />
        <dc:title />
      </cc:Work>
    </rdf:RDF>
  </metadata>
  <g
     inkscape:label="Ebene 1"
     inkscape:groupmode="layer"
     id="layer1"
     transform="translate(1027.0834,-13.766026)">
    <rect
       style="opacity:1;fill:none;fill-opacity:1;fill-rule:evenodd;stroke:none;stroke-width:0.99999988;stroke-linecap:round;stroke-linejoin:miter;stroke-miterlimit:4;stroke-dasharray:none;stroke-dashoffset:0;stroke-opacity:1;paint-order:stroke fill markers"
       id="rect1307-4"
       width="337.15475"
       height="414.26193"
       x="-1026.5834"
       y="14.266026"
       inkscape:label="Fram" />
    <path
       style="fill:#000000;stroke-width:0.99999994"
       d="m -860.48912,176.81842 c -1.11225,-0.29553 -2.26294,-0.78071 -3.11356,-1.42472 -1.83428,-1.21496 -3.72207,-2.66895 -5.86326,-2.62256 -1.33308,0.13251 -2.66336,0.56531 -4.01057,0.11414 -1.01042,-0.52796 -2.03227,-1.48098 -2.21586,-2.57402 -0.21491,-1.27946 -0.43606,-2.76241 0.0955,-3.97196 0.48727,-1.10876 1.39205,-1.8246 2.51288,-2.33114 1.18042,-0.51821 2.49959,-0.0384 3.61504,-0.0766 -0.028,-0.18951 0.40968,-1.77248 0.51118,-0.6032 -0.10666,0.96069 0.18352,2.32825 -1.06955,1.26822 -1.33836,-0.35148 -2.65624,-0.11139 -3.62906,0.94404 -0.69942,0.50304 -1.05768,1.4034 -1.15882,2.12352 -0.0845,0.60171 -0.0385,1.04504 0.1389,1.82245 0.24444,1.07109 0.58489,2.08041 1.82057,2.38617 1.31709,0.36735 2.36218,-0.40501 3.29029,-1.08586 1.26338,-0.79909 2.29653,-0.74107 3.71263,1.24867 0.45006,0.63237 0.76713,0.70975 1.601,1.31903 0.86396,0.63127 2.14082,1.44178 3.00398,1.70089 3.51538,1.0553 7.65056,-0.30444 10.19151,-2.60547 0.7351,-0.73997 0.78532,-1.9432 1.81385,-2.36788 1.00543,-0.5149 2.11554,0.0975 2.96527,0.52222 0.99083,0.85833 2.56476,1.64468 3.62311,0.77747 1.1219,-0.91928 1.48741,-2.66574 1.22311,-4.07258 -0.2187,-1.16413 -1.1853,-2.01039 -2.3201,-2.55739 -1.25532,-0.648 -2.37402,-0.36366 -3.59422,0.0204 -0.96154,0.26599 -0.15491,-0.99807 -0.33433,-1.97272 -0.14958,-0.57468 0.23087,-1.97537 0.20097,-0.57706 0.29181,0.83742 -0.0619,2.09818 1.14962,1.50499 1.39299,-0.41489 2.91129,-0.35057 4.01299,0.56679 0.94521,0.72064 1.42944,1.5891 1.95451,2.61508 0.69268,1.35352 -0.0678,2.97287 -0.64556,4.23825 -0.6063,1.32777 -1.87885,1.48242 -3.15563,1.5185 -1.24903,0.0353 -1.82379,-0.92713 -3.06805,-0.68388 -1.17368,0.19327 -2.15554,0.7519 -3.14912,1.33295 -2.24511,2.33058 -5.2588,3.28658 -8.28985,3.62762 -0.59916,-0.0955 -1.25924,0.10787 -1.81935,-0.12433 z"
       id="path1433"
       inkscape:connector-curvature="0"
       sodipodi:nodetypes="ccccsscccccssccssscccssccccccsssccccc"
       inkscape:label="Nose" />
  </g>
</svg>
