<?xml version="1.0" encoding="UTF-8" standalone="no"?>
<!-- Created with Inkscape (http://www.inkscape.org/) -->

<svg
   xmlns:dc="http://purl.org/dc/elements/1.1/"
   xmlns:cc="http://creativecommons.org/ns#"
   xmlns:rdf="http://www.w3.org/1999/02/22-rdf-syntax-ns#"
   xmlns:svg="http://www.w3.org/2000/svg"
   xmlns="http://www.w3.org/2000/svg"
   xmlns:sodipodi="http://sodipodi.sourceforge.net/DTD/sodipodi-0.dtd"
   xmlns:inkscape="http://www.inkscape.org/namespaces/inkscape"
   width="338.15475mm"
   height="415.26193mm"
   viewBox="0 0 338.15475 415.26193"
   version="1.1"
   id="svg8"
   inkscape:version="0.92.3 (2405546, 2018-03-11)"
   sodipodi:docname="Nose02.svg">
  <defs
     id="defs2" />
  <sodipodi:namedview
     id="base"
     pagecolor="#ffffff"
     bordercolor="#666666"
     borderopacity="1.0"
     inkscape:pageopacity="0.0"
     inkscape:pageshadow="2"
     inkscape:zoom="0.49497475"
     inkscape:cx="391.70987"
     inkscape:cy="920.32895"
     inkscape:document-units="mm"
     inkscape:current-layer="layer1"
     showgrid="false"
     inkscape:window-width="1920"
     inkscape:window-height="1001"
     inkscape:window-x="-9"
     inkscape:window-y="-9"
     inkscape:window-maximized="1"
     inkscape:snap-global="true"
     showguides="true"
     fit-margin-top="0"
     fit-margin-left="0"
     fit-margin-right="0"
     fit-margin-bottom="0" />
  <metadata
     id="metadata5">
    <rdf:RDF>
      <cc:Work
         rdf:about="">
        <dc:format>image/svg+xml</dc:format>
        <dc:type
           rdf:resource="http://purl.org/dc/dcmitype/StillImage" />
        <dc:title></dc:title>
      </cc:Work>
    </rdf:RDF>
  </metadata>
  <g
     inkscape:label="Ebene 1"
     inkscape:groupmode="layer"
     id="layer1"
     transform="translate(1355.1667,-269.28568)">
    <rect
       style="opacity:1;fill:none;fill-opacity:1;fill-rule:evenodd;stroke:none;stroke-width:0.99999988;stroke-linecap:round;stroke-linejoin:miter;stroke-miterlimit:4;stroke-dasharray:none;stroke-dashoffset:0;stroke-opacity:1;paint-order:stroke fill markers"
       id="rect1307"
       width="337.15475"
       height="414.26193"
       x="-1354.6667"
       y="269.78568"
       inkscape:label="Frame" />
    <path
       sodipodi:type="inkscape:offset"
       inkscape:radius="0.0373087"
       inkscape:original="M -1176.5293 422.50195 C -1176.5555 422.70487 -1176.4641 423.06291 -1176.3027 423.28125 C -1175.7303 424.82861 -1174.6584 426.25684 -1174.6094 427.95312 C -1174.5873 429.02277 -1175.651 429.59861 -1176.0371 430.4375 C -1176.0307 430.52231 -1176.0427 430.66147 -1175.9355 430.69727 C -1174.8817 430.45257 -1173.9812 429.64597 -1173.4766 428.69336 C -1172.8094 427.69031 -1173.4417 426.5432 -1173.8711 425.59375 C -1174.4533 424.53429 -1174.9471 423.2744 -1176.0527 422.6543 C -1176.3594 422.25207 -1176.503 422.29904 -1176.5293 422.50195 z M -1195.2324 422.64453 C -1195.2844 422.56536 -1195.3837 422.563 -1195.5508 422.6875 C -1195.7992 423.53069 -1196.5278 424.00946 -1196.8711 424.80859 C -1197.3602 425.87873 -1198.2226 426.96374 -1197.9512 428.21094 C -1197.8348 429.3688 -1197.3527 430.57049 -1196.2656 431.13281 C -1196.1648 431.39463 -1193.6103 432.29419 -1194.6621 431.30664 C -1195.8892 430.77146 -1196.6198 429.46507 -1196.8066 428.18359 C -1196.8007 426.70796 -1196.0508 425.36448 -1195.4961 424.0332 C -1195.346 423.80519 -1195.0764 422.88204 -1195.2324 422.64453 z M -1178.6797 429.16797 C -1179.0734 429.25215 -1179.5325 429.42129 -1179.748 429.46484 C -1181.1977 429.85688 -1182.4526 430.71762 -1183.8555 431.2168 C -1185.8049 431.61094 -1187.8298 431.08642 -1189.6191 430.30664 C -1190.3699 429.83802 -1191.1982 429.50313 -1192.0859 429.42383 C -1192.6985 429.20719 -1192.2397 429.66915 -1192.0488 429.93359 C -1190.6888 431.09459 -1189.0458 431.86618 -1187.5059 432.75781 L -1187.5059 432.75586 C -1187.2765 432.88097 -1187.0408 433.00112 -1186.7891 433.07422 C -1185.2403 433.34843 -1183.6254 432.88869 -1182.2598 432.15625 C -1180.8374 431.24097 -1179.3717 430.38492 -1178.0078 429.38281 C -1177.9587 429.08535 -1178.2859 429.08379 -1178.6797 429.16797 z "
       style="fill:#000000;stroke-width:1"
       id="path3012"
       d="m -1176.3906,422.31445 c -0.05,-0.008 -0.096,0.01 -0.125,0.0449 -0.029,0.0352 -0.044,0.0838 -0.051,0.13867 -0.028,0.21698 0.063,0.568 0.2285,0.79687 0.5751,1.55457 1.6429,2.97897 1.6914,4.66016 0.01,0.52135 -0.2435,0.92295 -0.5527,1.30273 -0.3096,0.38027 -0.674,0.73574 -0.8711,1.16407 a 0.03731243,0.03731243 0 0 0 -0,0.01 0.03731243,0.03731243 0 0 0 0,0.008 c 0,0.0391 10e-4,0.098 0.014,0.1543 0.013,0.0563 0.045,0.11604 0.1132,0.13867 a 0.03731243,0.03731243 0 0 0 0.018,0.002 0.03731243,0.03731243 0 0 0 0,0 c 1.0654,-0.2474 1.9729,-1.06006 2.4824,-2.01954 l 0,-0.004 c 0.3379,-0.51046 0.3463,-1.0602 0.2168,-1.59571 -0.1298,-0.5368 -0.3971,-1.0635 -0.6113,-1.53711 a 0.03731243,0.03731243 0 0 0 0,-0.002 c -0.5794,-1.05437 -1.0755,-2.32164 -2.1914,-2.95117 -0.1522,-0.19831 -0.2637,-0.29396 -0.3613,-0.31055 z m -18.961,0.23828 c -0.063,0.006 -0.1342,0.041 -0.2207,0.10547 a 0.03731243,0.03731243 0 0 0 -0.01,0.004 0.03731243,0.03731243 0 0 0 -0,0.006 0.03731243,0.03731243 0 0 0 -0,0.01 c -0.122,0.41395 -0.3635,0.74008 -0.6192,1.06446 -0.2556,0.32438 -0.5268,0.6449 -0.7011,1.05078 h 0 c -0.4862,1.06373 -1.3598,2.15814 -1.084,3.42578 0.1177,1.16296 0.6028,2.37487 1.7012,2.94531 0.011,0.0185 0.023,0.0356 0.043,0.0527 0.026,0.0227 0.06,0.0458 0.1,0.0703 0.08,0.0491 0.185,0.10293 0.3047,0.15625 0.2392,0.10664 0.5363,0.2135 0.7988,0.28125 0.1312,0.0339 0.2542,0.057 0.3574,0.0664 0.1032,0.009 0.186,0.007 0.2461,-0.0254 0.03,-0.0163 0.054,-0.0442 0.062,-0.0781 0.01,-0.0339 0,-0.07 -0.016,-0.10938 -0.035,-0.0786 -0.1129,-0.17377 -0.2461,-0.29882 a 0.03731243,0.03731243 0 0 0 -0,-0.002 0.03731243,0.03731243 0 0 0 -0.01,-0.006 c -1.2099,-0.52767 -1.9364,-1.81838 -2.123,-3.08789 v -0.004 c -10e-5,-6.3e-4 1e-4,-0.001 0,-0.002 0.01,-1.45787 0.7499,-2.7934 1.3047,-4.12304 l 0,-0.008 c 0.082,-0.12739 0.1816,-0.40729 0.248,-0.69532 0.034,-0.14602 0.059,-0.29298 0.064,-0.41992 0.01,-0.12694 -0,-0.23387 -0.053,-0.30664 -0.032,-0.0485 -0.087,-0.0784 -0.1504,-0.0723 z m 16.9473,6.53321 c -0.088,0.007 -0.1837,0.0237 -0.2832,0.0449 -0.3979,0.0851 -0.8612,0.255 -1.0684,0.29687 a 0.03731243,0.03731243 0 0 0 -0,0.002 c -1.4563,0.39383 -2.7104,1.25278 -4.1055,1.75 -1.9382,0.39187 -3.9547,-0.1301 -5.7402,-0.90821 l 0,0.004 c -0.7522,-0.46951 -1.5827,-0.80548 -2.4746,-0.88672 l -0.01,-0.002 c -0.073,-0.0256 -0.1326,-0.043 -0.1797,-0.0508 -0.049,-0.008 -0.087,-0.01 -0.1192,0.004 -0.032,0.0134 -0.051,0.0486 -0.051,0.0801 4e-4,0.0315 0.012,0.0628 0.029,0.0957 0.067,0.13156 0.231,0.31038 0.3242,0.43946 a 0.03731243,0.03731243 0 0 0 0,0.006 0.03731243,0.03731243 0 0 0 0,0.002 c 1.3651,1.16533 3.0089,1.93759 4.5469,2.82813 a 0.03731243,0.03731243 0 0 0 0,0 0.03731243,0.03731243 0 0 0 0.01,0.004 c 10e-4,5.5e-4 0,-5.5e-4 0,0 0.226,0.12293 0.4596,0.24144 0.711,0.31446 a 0.03731243,0.03731243 0 0 0 0,0.002 c 1.5602,0.27623 3.182,-0.18672 4.5527,-0.92188 a 0.03731243,0.03731243 0 0 0 0,-0.002 c 1.4215,-0.9147 2.8879,-1.77173 4.2539,-2.77539 a 0.03731243,0.03731243 0 0 0 0.01,-0.004 0.03731243,0.03731243 0 0 0 0,-0.006 0.03731243,0.03731243 0 0 0 0.01,-0.0137 c 0.013,-0.0809 0,-0.14901 -0.035,-0.19922 -0.037,-0.0502 -0.096,-0.079 -0.164,-0.0937 -0.068,-0.0147 -0.1468,-0.0171 -0.2344,-0.01 z"
       inkscape:label="Kontur_Nase" />
  </g>
</svg>
