<svg xmlns="http://www.w3.org/2000/svg" width="1278.065" height="1569.494" viewBox="0 0 338.155 415.262">
  <path fill="none" d="M.5.5h337.155v414.262H.5z" paint-order="stroke fill markers"/>
  <path d="M166.594 163.052c-1.112-.295-2.263-.78-3.113-1.424-1.835-1.215-3.722-2.67-5.864-2.623-1.333.133-2.663.565-4.01.114-1.01-.528-2.032-1.48-2.216-2.574-.215-1.28-.436-2.762.096-3.972.487-1.108 1.392-1.824 2.512-2.33 1.18-.52 2.5-.04 3.615-.077-.028-.19.41-1.773.512-.604-.107.961.183 2.329-1.07 1.269-1.338-.352-2.656-.112-3.629.944-.7.503-1.058 1.403-1.159 2.123-.084.602-.038 1.045.14 1.823.244 1.07.584 2.08 1.82 2.386 1.317.367 2.362-.405 3.29-1.086 1.263-.8 2.296-.741 3.713 1.249.45.632.767.71 1.6 1.319.865.63 2.141 1.441 3.005 1.7 3.515 1.056 7.65-.304 10.191-2.605.735-.74.785-1.943 1.814-2.368 1.005-.515 2.115.098 2.965.522.991.859 2.565 1.645 3.623.778 1.122-.92 1.488-2.666 1.223-4.073-.218-1.164-1.185-2.01-2.32-2.557-1.255-.648-2.374-.364-3.594.02-.961.266-.155-.998-.334-1.972-.15-.575.23-1.976.2-.578.293.838-.061 2.099 1.15 1.505 1.393-.414 2.912-.35 4.013.567.946.72 1.43 1.59 1.955 2.615.693 1.354-.068 2.973-.646 4.239-.606 1.327-1.879 1.482-3.155 1.518-1.25.035-1.824-.927-3.068-.684-1.174.193-2.156.752-3.15 1.333-2.245 2.33-5.258 3.287-8.29 3.628-.599-.096-1.259.108-1.819-.125z"/>
</svg>
