<svg xmlns="http://www.w3.org/2000/svg" width="1274.286" height="1565.714" viewBox="0 0 337.155 414.262">
  <path fill="none" d="M0 0h337.155v414.262H0z" paint-order="stroke fill markers"/>
  <path d="M156.897 149.712a.974.974 0 0 0-.33.014c-.69.074-1.192.487-1.578.992-.388.507-.673 1.111-.953 1.602 0 .003-.01.005-.01.008-1.208 2.512-2.32 5.27-2.162 8.14v.028c.413 1.561 1.964 2.596 3.46 2.912l.01.002c1.015.132 2.095.27 3.135.057a.134.134 0 0 0 .096-.184c-.074-.174-.24-.268-.418-.318a2.899 2.899 0 0 0-.592-.082c-.421-.028-.87-.051-1.115-.21l-.022-.011c-.528-.216-1.133-.452-1.619-.783-.485-.33-.848-.746-.934-1.342v-.004c-.279-2.388.348-4.805 1.206-7.043v-.014c.502-.96.784-2.13 1.634-2.7.657-.607.907-.945.178-1.064zm22.566.227c-.01 0-.02.003-.029.006-.17.06-.295.122-.388.197a.417.417 0 0 0-.166.278c.317.308.637.282 1.314 1.193.873 1.733 1.442 3.648 1.575 5.586v.01c.217 1.449-.247 3.22-1.311 4.158-.44.388-1.106.528-1.783.506a4.63 4.63 0 0 1-1.35-.268c.553-.089 1.116-.174 1.658-.384a.133.133 0 0 0 .062-.053c.249-.385.318-.727.23-1.01-.086-.283-.32-.482-.6-.607-.56-.25-1.337-.242-1.895-.02-1.129.409-2.133 1.085-3.174 1.617-.01.003-.011.006-.016.01-1.495 1.052-3.363 1.301-5.102 1.92a.134.134 0 0 0-.086.102l-.01.043c-.01.06.021.12.076.144l.06.028a.134.134 0 0 0 .057.011c1.562-.018 3.144-.339 4.551-1.048l.01-.002v-.002c.392-.161.962-.404 1.483-.569.107-.033.189-.043.289-.068-.01.026-.024.049-.022.074a.25.25 0 0 0 .053.143.8.8 0 0 0 .23.207c.376.247 1.025.47 1.477.502 1.378.574 2.987.403 4.197-.479v-.004c1.102-.664 2.123-1.744 2.049-3.158v-.004c-.035-2.194.01-4.531-1.02-6.584v-.002c-.248-.476-.519-1.057-.89-1.541-.372-.484-.855-.875-1.51-.932h-.027zm-19.927 10.72a5.601 5.601 0 0 0-1.096.007c-.353.043-.678.136-.9.344-.223.207-.315.535-.21.94.01.034.03.063.058.081.997.64 2.236.656 3.343.633.01 0 .017 0 .025-.002 1.208-.247 2.379.191 3.551.584 0 .002.01.003.014.004a5.25 5.25 0 0 0 1.104.119.53.53 0 0 0 .135-.023c.04-.014.099-.039.125-.11.026-.07-.01-.137-.033-.17a.365.365 0 0 0-.086-.076 1.65 1.65 0 0 0-.24-.133c-.382-.18-.996-.392-1.208-.472-1.23-.45-2.379-1.159-3.64-1.61l-.025-.008c-.23-.032-.557-.079-.914-.107z"/>
</svg>
