<svg xmlns="http://www.w3.org/2000/svg" width="1278.065" height="1569.494" viewBox="0 0 338.155 415.262">
  <path fill="none" d="M.5.5h337.155v414.262H.5z" paint-order="stroke fill markers"/>
  <path d="M180.722 150.68a.296.296 0 0 0-.254.079.663.663 0 0 0-.14.211 2.563 2.563 0 0 0-.162.607c-.074.454-.093.963-.026 1.287.14 1.812-.522 3.58-1.545 5.067v.004c-2.474 2.775-5.688 4.943-9.252 6.034-.011.002-.012.004-.017.007-1.36.611-2.676.144-4.11-.299-1.33-.41-2.61-1.287-3.715-2.136-1.797-1.585-3.893-3.027-4.83-5.244 0-.011-.01-.021-.018-.03-.449-.606-.436-1.418-.355-2.23.081-.81.246-1.604-.036-2.184a.146.146 0 0 0-.248-.025c-1.404 1.8-1.513 4.423-.374 6.39 0 .004.011.008.011.01.125.18.198.32.225.405.012.037.01.058.01.068 0-.002-.044.017-.149 0a2.537 2.537 0 0 1-.466-.143l-.018-.004c-1.012-.26-2.147-.497-3.129-.932-.979-.434-1.8-1.056-2.23-2.096-.063-.351-.182-.61-.339-.774-.16-.17-.37-.244-.557-.184-.187.06-.318.244-.35.479-.034.234.018.528.18.874.446 1.994 2.26 3.172 4.186 3.36 3.178.627 5.92 2.45 8.664 4.144 0 .003.011.007.013.009 1.375.66 2.607 1.713 4.144 2.073 1.384.324 2.477.174 3.79-.068 3.406-.931 6.266-3.155 8.82-4.722 0-.002.011-.004.013-.007 1.453-1.069 3.367-.908 5.117-1.472v-.002c.598-.212 1.317-.324 1.984-.55.666-.225 1.29-.574 1.656-1.263.974-1.253 1.064-2.822.733-4.298-.18-.746-.11-1.032-.457-1.216-.18-.095-.41-.104-.575.036-.165.14-.24.386-.23.738v.028c.201.917.1 1.954-.294 2.823s-1.075 1.566-2.037 1.836c-.552.12-1.25.442-1.894.658-.323.109-.631.19-.886.21a.82.82 0 0 1-.49-.092c.81-2.123.678-4.49.15-6.645v-.009a2.739 2.739 0 0 0-.227-.558c-.077-.13-.157-.227-.284-.254z"/>
</svg>
