<svg xmlns="http://www.w3.org/2000/svg" width="1274.286" height="1565.714">
  <path fill="none" d="M0 0h1274.286v1565.714H0z" paint-order="stroke fill markers"/>
  <path d="M629.105 616.13c-4.95-1.328-11.7-3.396-15-4.596-6.177-2.246-8.22-2.273-26.5-.342-4.724.498-5.905.26-8.371-1.686-3.922-3.096-5.63-7.694-5.625-15.148 0-5.252.479-6.997 2.896-10.64 2.593-3.909 8.531-10.142 9.662-10.142 1.435 0-.132 3.819-4.062 9.894-3.591 5.551-4.5 7.841-4.5 11.34 0 4.808.924 6.379 5.654 9.61 3.715 2.539 6.775 2.71 11.692.656 1.974-.825 5.19-1.5 7.148-1.5h3.557l-1.525-2.95c-2.81-5.434-1.704-5.423 5.543.053 10.777 8.143 18.816 10.147 35.981 8.969 13.886-.953 18.96-3.141 28.059-12.1 7.885-7.763 10.2-8.001 5.833-.6l-2.057 3.488 4.459.669c5.838.875 7.706.185 12.514-4.622 4.887-4.887 5.747-8.205 3.63-14.008-.881-2.42-2.303-6.336-3.158-8.703-1.907-5.28-.946-6.61 2.165-2.995 3.16 3.672 6.464 12.852 6.717 18.667.183 4.222-.245 5.336-3.657 9.5-7.054 8.608-10.344 9.902-20.746 8.161-4.328-.724-5.441-.42-14.366 3.922-8.833 4.296-13.488 5.695-23.443 7.042-2.016.273-7.317-.55-12.5-1.94z"/>
</svg>
