<svg xmlns="http://www.w3.org/2000/svg" width="1278.065" height="1569.494" viewBox="0 0 338.155 415.262">
  <path fill="none" d="M.5.5h337.155v414.262H.5z" paint-order="stroke fill markers"/>
  <path d="M155.135 151.355c-1.908 2.285-2.994 6.163-2.733 8.36.204 1.721 1.671 3.132 2.914 3.484.927.263 2.62.122 2.958-.512-.074-.174-.263-.156-.541-.094-.18.04-.684.1-.895.086-1.273-.063-1.347-.406-2.04-.859-.484-.33-.847-.745-.932-1.341v-.004c-.28-2.388.347-4.805 1.205-7.043v-.014c.502-.96.89-1.997 1.634-2.7.662-.624.738-.796.091-.918-.722.051-1.254 1.05-1.661 1.555zm24.329-1.474c-.01 0-.02.003-.03.006a1.29 1.29 0 0 0-.388.197.418.418 0 0 0-.166.278c.316.308.637.282 1.314 1.193.873 1.733 1.442 3.648 1.575 5.586v.01c.217 1.449-.247 3.22-1.311 4.158-.44.388-1.2.65-1.783.728-1.05.139-1.764-.999-2.1-1.314-1.611-1.515-3.513-1.61-4.254-.147-.1.5-1.083.922-1.297.998-.568.204-.927.232-1.531.322-.88.132-1.543.123-2.43.045-.292-.025-.654-.264-.8-.037-.062.094.126.196.23.254.658.365 1.491.433 2.265.46a7.787 7.787 0 0 0 2.39-.318c.495-.142 1.066-.269 1.414-.609 1.714.162 3.125.19 3.675.392.376.247 1.191.604 1.643.636 1.57.377 1.89.143 2.973-.613v-.004c1.102-.663 2.124-1.743 2.049-3.157v-.004c-.035-2.195.011-4.532-1.02-6.585v-.002c-.248-.476-.52-1.057-.89-1.54-.372-.484-.855-.876-1.51-.932h-.019zm-16.746 9.847c-.15 0-.302.012-.447.03-.252.031-.507.086-.744.136-.01.003-.011.007-.02.01-1.025.571-1.305 1.507-2.305 2.052-.278.182-.717.503-.387.619.182-.026.042.042.223-.019.953-.36 1.601-.232 2.242-.265.01 0 .011.003.02.003 1.305.038 2.525-.69 2.922-.647.144.016.29-.196.337-.317.126-.324-.354-.699-.667-1.129-.18-.262-.445-.38-.731-.434-.153-.031-.311-.031-.443-.038z"/>
</svg>
