<?xml version="1.0" encoding="UTF-8" standalone="no"?>
<!-- Created with Inkscape (http://www.inkscape.org/) -->

<svg
   xmlns:dc="http://purl.org/dc/elements/1.1/"
   xmlns:cc="http://creativecommons.org/ns#"
   xmlns:rdf="http://www.w3.org/1999/02/22-rdf-syntax-ns#"
   xmlns:svg="http://www.w3.org/2000/svg"
   xmlns="http://www.w3.org/2000/svg"
   xmlns:sodipodi="http://sodipodi.sourceforge.net/DTD/sodipodi-0.dtd"
   xmlns:inkscape="http://www.inkscape.org/namespaces/inkscape"
   width="338.15475mm"
   height="415.26193mm"
   viewBox="0 0 338.15475 415.26193"
   version="1.1"
   id="svg8"
   inkscape:version="0.92.3 (2405546, 2018-03-11)"
   sodipodi:docname="Nose04.svg">
  <defs
     id="defs2" />
  <sodipodi:namedview
     id="base"
     pagecolor="#ffffff"
     bordercolor="#666666"
     borderopacity="1.0"
     inkscape:pageopacity="0.0"
     inkscape:pageshadow="2"
     inkscape:zoom="0.49497475"
     inkscape:cx="303.74962"
     inkscape:cy="1000.2592"
     inkscape:document-units="mm"
     inkscape:current-layer="layer1"
     showgrid="false"
     inkscape:window-width="1920"
     inkscape:window-height="1001"
     inkscape:window-x="-9"
     inkscape:window-y="-9"
     inkscape:window-maximized="1"
     inkscape:snap-global="true"
     showguides="true"
     fit-margin-top="0"
     fit-margin-left="0"
     fit-margin-right="0"
     fit-margin-bottom="0" />
  <metadata
     id="metadata5">
    <rdf:RDF>
      <cc:Work
         rdf:about="">
        <dc:format>image/svg+xml</dc:format>
        <dc:type
           rdf:resource="http://purl.org/dc/dcmitype/StillImage" />
        <dc:title />
      </cc:Work>
    </rdf:RDF>
  </metadata>
  <g
     inkscape:label="Ebene 1"
     inkscape:groupmode="layer"
     id="layer1"
     transform="translate(1355.1667,-269.28568)">
    <rect
       style="opacity:1;fill:none;fill-opacity:1;fill-rule:evenodd;stroke:none;stroke-width:0.99999988;stroke-linecap:round;stroke-linejoin:miter;stroke-miterlimit:4;stroke-dasharray:none;stroke-dashoffset:0;stroke-opacity:1;paint-order:stroke fill markers"
       id="rect1307"
       width="337.15475"
       height="414.26193"
       x="-1354.6667"
       y="269.78568"
       inkscape:label="Frame" />
    <path
       style="fill:#000000;stroke-width:0.99999988"
       d="m -1174.4446,419.9652 c -0.095,-0.0202 -0.1937,0.0217 -0.2543,0.0791 -0.06,0.0574 -0.1017,0.1297 -0.1389,0.21159 -0.073,0.16379 -0.1245,0.37589 -0.1624,0.60698 -0.074,0.45396 -0.093,0.96299 -0.026,1.28663 0.1393,1.81181 -0.5221,3.57941 -1.5452,5.06745 -9e-4,10e-4 0,0.003 0,0.004 -2.4742,2.77521 -5.6883,4.94311 -9.2523,6.03349 -0.011,0.002 -0.012,0.004 -0.017,0.007 -1.3607,0.61135 -2.6757,0.14474 -4.1104,-0.29831 -1.33,-0.41067 -2.6104,-1.28773 -3.7141,-2.13604 -1.7975,-1.5851 -3.8934,-3.02717 -4.8303,-5.24484 0,-0.0109 -0.011,-0.0207 -0.018,-0.0299 -0.4491,-0.60541 -0.4358,-1.4181 -0.3547,-2.22916 0.081,-0.81107 0.2459,-1.60444 -0.036,-2.18429 -0.047,-0.0984 -0.1817,-0.1123 -0.248,-0.0256 -1.4045,1.80069 -1.5134,4.42301 -0.374,6.39041 0,0.004 0.011,0.008 0.011,0.0109 0.1248,0.17949 0.1977,0.31917 0.2244,0.40394 0.012,0.0376 0.011,0.0577 0.011,0.0684 -6e-4,-0.002 -0.045,0.0171 -0.1496,0 -0.1126,-0.0184 -0.2714,-0.0676 -0.4659,-0.1432 -0.011,-0.002 -0.012,-0.003 -0.018,-0.004 -1.0127,-0.2608 -2.1474,-0.49708 -3.1289,-0.93185 -0.9795,-0.43388 -1.8012,-1.05627 -2.2313,-2.09666 -0.062,-0.35088 -0.1814,-0.60927 -0.3377,-0.77368 -0.1607,-0.16904 -0.3712,-0.24409 -0.5578,-0.18381 -0.1866,0.0603 -0.3174,0.2443 -0.3505,0.47875 -0.033,0.23445 0.019,0.52802 0.1816,0.87414 0.4453,1.99415 2.2584,3.17211 4.1848,3.35977 3.1785,0.62746 5.9213,2.45087 8.6645,4.14416 0,0.003 0.011,0.007 0.013,0.009 1.3754,0.65986 2.6067,1.71338 4.1438,2.07324 1.3841,0.32401 2.4774,0.17339 3.7897,-0.0685 3.4064,-0.93069 6.2667,-3.15486 8.8209,-4.72132 0,-0.002 0.011,-0.004 0.013,-0.007 1.453,-1.06914 3.367,-0.90829 5.1166,-1.47257 v -0.002 c 0.598,-0.21184 1.3168,-0.32384 1.9834,-0.54929 0.6666,-0.22543 1.2899,-0.57461 1.6563,-1.26311 0.9746,-1.25362 1.0643,-2.82223 0.7332,-4.29804 -0.1798,-0.74592 -0.1094,-1.03182 -0.4574,-1.2161 -0.18,-0.0952 -0.4103,-0.10373 -0.5749,0.0363 -0.1647,0.14004 -0.2405,0.38531 -0.2288,0.73736 -8e-4,0.009 -8e-4,0.0186 0,0.0278 0.2001,0.91767 0.1,1.95453 -0.295,2.82332 -0.3942,0.86878 -1.0748,1.56565 -2.0368,1.83591 -0.5519,0.12044 -1.2497,0.44193 -1.8936,0.65827 -0.3237,0.10877 -0.6316,0.1899 -0.8869,0.20946 -0.2108,0.0161 -0.3668,-0.0206 -0.4895,-0.0919 0.8096,-2.12223 0.6784,-4.48999 0.1496,-6.64475 10e-5,-0.003 10e-5,-0.005 0,-0.009 -0.077,-0.24717 -0.1499,-0.42714 -0.2265,-0.55783 -0.077,-0.13069 -0.157,-0.22731 -0.2843,-0.25433 z"
       id="path1024-0"
       inkscape:connector-curvature="0"
       sodipodi:nodetypes="cccccccccsccccccccccccccccccccccscccccccccccccccccccscc"
       inkscape:label="Kontur_Nase" />
  </g>
</svg>
