<svg xmlns="http://www.w3.org/2000/svg" width="1278.065" height="1569.494" viewBox="0 0 338.155 415.262">
  <path fill="none" d="M.5.5h337.155v414.262H.5z" paint-order="stroke fill markers"/>
  <path d="M174.176 143.538c-.25.011.084.58 1.284 2.254.955 1.334 1.826 2.434 1.935 2.444.437.04.192-1.458-.417-2.55-.615-1.105-1.337-1.68-2.66-2.12a.422.422 0 0 0-.142-.028zm7.983 5.086c-.29-.006-.102.666.744 1.872.771 1.1.829 1.335.764 3.13-.083 2.289-.507 3.003-2.36 3.973-.668.35-1.423.803-1.679 1.008-.441.353-.442.392 0 .728.995.761 3.13.247 4.397-1.06 2.222-2.291 2.078-5.229-.41-8.338-.716-.893-1.229-1.308-1.454-1.313zm-29.45 1.743c-.104-.013-.276.1-.494.373-1.22 1.526-1.596 4.303-.88 6.484.744 2.266 2.393 3.336 4.93 3.199 1.265-.068 1.756.018 2.283.405.742.542 3.07 1.587 4.303 1.93 2.44.68 8.95.23 11.39-.785 2.193-.913 6.862-4.67 6.869-5.526 0-.56-.01-.559-.597.078-.933 1.01-2 1.625-4.75 2.742-3.431 1.393-6.414 1.856-10.475 1.625-3.72-.212-4.655-.562-7.192-2.692-1.73-1.452-2.558-1.62-2.295-.465.122.535.045.627-.514.615-1.214-.027-2.479-.884-3.002-2.034-.394-.866-.456-1.41-.302-2.67.107-.872.372-1.919.59-2.328.298-.56.311-.93.137-.951z"/>
</svg>
