<?xml version="1.0" encoding="UTF-8" standalone="no"?>
<!-- Created with Inkscape (http://www.inkscape.org/) -->

<svg
   xmlns:dc="http://purl.org/dc/elements/1.1/"
   xmlns:cc="http://creativecommons.org/ns#"
   xmlns:rdf="http://www.w3.org/1999/02/22-rdf-syntax-ns#"
   xmlns:svg="http://www.w3.org/2000/svg"
   xmlns="http://www.w3.org/2000/svg"
   xmlns:sodipodi="http://sodipodi.sourceforge.net/DTD/sodipodi-0.dtd"
   xmlns:inkscape="http://www.inkscape.org/namespaces/inkscape"
   width="338.15475mm"
   height="415.26193mm"
   viewBox="0 0 338.15475 415.26193"
   version="1.1"
   id="svg8"
   inkscape:version="0.92.3 (2405546, 2018-03-11)"
   sodipodi:docname="Mouth02.svg">
  <defs
     id="defs2" />
  <sodipodi:namedview
     id="base"
     pagecolor="#ffffff"
     bordercolor="#666666"
     borderopacity="1.0"
     inkscape:pageopacity="0.0"
     inkscape:pageshadow="2"
     inkscape:zoom="0.49497475"
     inkscape:cx="633.98125"
     inkscape:cy="905.73619"
     inkscape:document-units="mm"
     inkscape:current-layer="layer1"
     showgrid="false"
     inkscape:window-width="1920"
     inkscape:window-height="1001"
     inkscape:window-x="-9"
     inkscape:window-y="-9"
     inkscape:window-maximized="1"
     inkscape:snap-global="true"
     showguides="true"
     fit-margin-top="0"
     fit-margin-left="0"
     fit-margin-right="0"
     fit-margin-bottom="0" />
  <metadata
     id="metadata5">
    <rdf:RDF>
      <cc:Work
         rdf:about="">
        <dc:format>image/svg+xml</dc:format>
        <dc:type
           rdf:resource="http://purl.org/dc/dcmitype/StillImage" />
        <dc:title></dc:title>
      </cc:Work>
    </rdf:RDF>
  </metadata>
  <g
     inkscape:label="Ebene 1"
     inkscape:groupmode="layer"
     id="layer1"
     transform="translate(1355.1667,-269.28568)">
    <rect
       style="opacity:1;fill:none;fill-opacity:1;fill-rule:evenodd;stroke:none;stroke-width:0.99999988;stroke-linecap:round;stroke-linejoin:miter;stroke-miterlimit:4;stroke-dasharray:none;stroke-dashoffset:0;stroke-opacity:1;paint-order:stroke fill markers"
       id="rect1307"
       width="337.15475"
       height="414.26193"
       x="-1354.6667"
       y="269.78568"
       inkscape:label="Frame" />
    <path
       style="fill:#de8787;stroke-width:1"
       d="m -1185.7241,451.19298 c 2.1857,-0.39743 5.5807,-0.87584 6.1206,-0.86251 0.3112,0.008 0.7927,0.0326 1.07,0.0554 1.0651,0.0875 5.4635,-0.48173 7.7252,-0.99983 2.2461,-0.5145 2.3243,-0.54951 1.5431,-0.69065 -0.4526,-0.0818 -2.3968,-0.44732 -4.3204,-0.81235 -1.9237,-0.36502 -3.8217,-0.66666 -4.2177,-0.67032 -0.8514,-0.008 -2.9466,0.31848 -5.2738,0.82135 -1.5052,0.32525 -1.7948,0.33188 -2.8804,0.0659 -1.9534,-0.47872 -10.9674,-0.35291 -15.3974,0.2149 -2.2225,0.28486 -3.9805,0.4044 -4.8348,0.32873 -0.7384,-0.0654 -1.8517,-0.0445 -2.4741,0.0465 l -1.1315,0.16536 1.4401,0.33825 c 0.7921,0.18603 2.4586,0.43222 3.7033,0.54708 6.6296,0.61174 8.0157,0.71517 10.184,0.75988 1.3013,0.0268 2.7523,0.13719 3.2246,0.24523 0.4804,0.10991 0.9367,0.11837 1.0359,0.0192 0.099,-0.0992 0.6272,-0.002 1.1987,0.22152 1.1342,0.44277 1.7663,0.4825 3.2846,0.20644 z"
       id="path2990"
       inkscape:connector-curvature="0"
       inkscape:label="Oberlippe" />
    <path
       style="fill:#e9afaf;stroke-width:1"
       d="m -1182.2266,455.2119 c 1.1316,-0.1425 3.122,-0.54256 4.4233,-0.88902 1.3013,-0.34645 2.8861,-0.76625 3.5219,-0.93286 1.1146,-0.29213 5.4062,-2.44082 5.6442,-2.8259 0.1591,-0.25738 -0.075,-0.239 -1.6713,0.13119 -0.7576,0.1757 -2.453,0.40274 -3.7675,0.50452 -1.3145,0.1018 -2.9918,0.27877 -3.7273,0.39329 -6.677,1.03958 -7.3941,1.10922 -9.9935,0.97025 -1.7183,-0.0919 -3.0032,-0.27626 -3.8035,-0.5459 -0.7223,-0.2433 -1.7704,-0.40917 -2.604,-0.4121 -0.7673,-0.002 -1.7655,-0.0965 -2.2182,-0.20837 -0.4526,-0.11191 -1.9473,-0.20199 -3.3216,-0.20017 -1.3843,0.002 -3.2194,-0.13461 -4.1147,-0.30593 -0.8888,-0.17008 -1.6621,-0.30925 -1.7183,-0.30927 -0.056,-2e-5 0.3473,0.31953 0.8967,0.71009 1.3233,0.94091 3.6527,1.89285 6.3035,2.57612 1.188,0.30625 2.3917,0.66836 2.6746,0.80467 0.2828,0.13632 1.5789,0.41968 2.8802,0.6297 2.6321,0.42479 6.7865,0.38938 10.5955,-0.0903 z"
       id="path2988"
       inkscape:connector-curvature="0"
       inkscape:label="Unterlippe" />
    <path
       id="path2271"
       style="fill:#000000;stroke-width:1"
       d="m -1185.7241,451.1929 c 2.1857,-0.39743 5.5807,-0.87584 6.1206,-0.86251 0.3112,0.008 0.7927,0.0326 1.07,0.0554 1.0651,0.0875 5.4635,-0.48173 7.7252,-0.99983 2.2461,-0.5145 2.3243,-0.54951 1.5431,-0.69065 -0.4526,-0.0818 -2.3968,-0.44732 -4.3204,-0.81235 -1.9237,-0.36502 -3.8217,-0.66666 -4.2177,-0.67032 -0.8514,-0.008 -2.9466,0.31848 -5.2738,0.82135 -1.5052,0.32525 -1.7948,0.33188 -2.8804,0.0659 -1.9534,-0.47872 -10.9674,-0.35291 -15.3974,0.2149 -2.2225,0.28486 -3.9805,0.4044 -4.8348,0.32873 -0.7384,-0.0654 -1.8517,-0.0445 -2.4741,0.0465 l -1.1315,0.16536 1.4401,0.33825 c 0.7921,0.18603 2.4586,0.43222 3.7033,0.54708 6.6296,0.61174 8.0157,0.71517 10.184,0.75988 1.3013,0.0268 2.7523,0.13719 3.2246,0.24523 0.4804,0.10991 0.9367,0.11837 1.0359,0.0192 0.099,-0.0992 0.6272,-0.002 1.1987,0.22152 1.1342,0.44277 1.7663,0.4825 3.2846,0.20644 z m 3.4975,4.01892 c 1.1316,-0.1425 3.122,-0.54256 4.4233,-0.88902 1.3013,-0.34645 2.8861,-0.76625 3.5219,-0.93286 1.1146,-0.29213 5.4062,-2.44082 5.6442,-2.8259 0.1591,-0.25738 -0.075,-0.239 -1.6713,0.13119 -0.7576,0.1757 -2.453,0.40274 -3.7675,0.50452 -1.3145,0.1018 -2.9918,0.27877 -3.7273,0.39329 -6.677,1.03958 -7.3941,1.10922 -9.9935,0.97025 -1.7183,-0.0919 -3.0032,-0.27626 -3.8035,-0.5459 -0.7223,-0.2433 -1.7704,-0.40917 -2.604,-0.4121 -0.7673,-0.002 -1.7655,-0.0965 -2.2182,-0.20837 -0.4526,-0.11191 -1.9473,-0.20199 -3.3216,-0.20017 -1.3843,0.002 -3.2194,-0.13461 -4.1147,-0.30593 -0.8888,-0.17008 -1.6621,-0.30925 -1.7183,-0.30927 -0.056,-2e-5 0.3473,0.31953 0.8967,0.71009 1.3233,0.94091 3.6527,1.89285 6.3035,2.57612 1.188,0.30625 2.3917,0.66836 2.6746,0.80467 0.2828,0.13632 1.5789,0.41968 2.8802,0.6297 2.6321,0.42479 6.7865,0.38938 10.5955,-0.0903 z m -6.3025,1.85717 c -0.053,-0.0529 -1.3413,-0.23982 -2.8631,-0.41548 -2.2729,-0.26234 -6.4847,-1.1339 -6.9906,-1.44655 -0.068,-0.0424 -0.8591,-0.27303 -1.7568,-0.51255 -0.8976,-0.23953 -2.0486,-0.68268 -2.5578,-0.9848 -0.5092,-0.30211 -1.2832,-0.71296 -1.7201,-0.91299 -0.4367,-0.20003 -1.28,-0.80771 -1.8738,-1.3504 -0.9244,-0.84485 -1.4166,-1.09661 -3.4237,-1.75112 -1.2893,-0.42043 -2.872,-0.85034 -3.5172,-0.95535 -1.4469,-0.2355 -2.0615,-0.54765 -1.9706,-1.001 0.059,-0.29331 0.3356,-0.34362 1.8126,-0.32957 0.9588,0.009 1.9454,0.12485 2.1926,0.25717 0.7153,0.38294 3.4099,0.28169 7.387,-0.27757 2.0267,-0.28498 4.7033,-0.56572 5.948,-0.62387 1.2447,-0.0582 2.9908,-0.24159 3.8803,-0.40766 2.1688,-0.40494 3.526,-0.38055 6.0979,0.10953 2.6852,0.51165 4.0372,0.51795 5.9849,0.0279 2.0916,-0.52626 4.6028,-0.69586 6.3993,-0.43218 0.8266,0.12135 2.6603,0.39497 4.0748,0.60804 5.946,0.89572 9.619,0.99468 13.54,0.36483 1.5478,-0.24863 2.1988,-0.11199 2.1988,0.4615 0,0.40479 -2.3793,0.9782 -5.1434,1.23951 -3.3667,0.31831 -3.211,0.2667 -4.6684,1.54705 -0.7448,0.65435 -2.0432,1.49714 -3.0467,1.97761 -0.9619,0.46052 -2.4571,1.19842 -3.3228,1.63979 -1.5258,0.77786 -3.3433,1.27697 -7.0669,1.94065 -0.9053,0.16135 -1.8311,0.3847 -2.0574,0.49633 -0.9631,0.47507 -7.189,1.07907 -7.5369,0.73119 z"
       inkscape:connector-curvature="0"
       inkscape:label="Kontur_Mund" />
  </g>
</svg>
