<svg xmlns="http://www.w3.org/2000/svg" width="1278.714" height="1568.173" viewBox="0 0 338.326 414.913">
  <path fill="none" d="M0 .65h337.155v414.263H0z" paint-order="stroke fill markers"/>
  <path class="mouth" fill="#e9afaf" d="M173.287 174.274a7.433 7.433 0 0 0-1.712.163c-4.537 1.04-5.634 1.835-7.233 1.21-1.21-.474 3.115-1-7.745-1.168-1.26-.019-21.275 1.475-18.897 2.624 2.223.64 10.355.844 16.81 1.301 4.928.35 6.51 1.288 8.298 2.02 1.427.567 4.262-.63 5.895.031 1.967-.073 3.823-.6 5.985-1.234 2.641-.775 3.388-.77 7.61-.886 1.497-.045 3.198-.014 4.938-.07-2.19.33-4.605.628-6.115.727-2.369.154-3.714-.112-6.147.672-2.014.662-4.671 1.701-7.407 1.83-1.07.346-1.03.047-3.32-.492-1.367-.321-2.778-.78-3.309-1.078-.776-.435-2.138-.345-5.005-.512-1.963-.114-4.459-.353-5.547-.53-3.752-.61-8.197-.673-11.689-1.446-.112 2.206 7.76 4.523 9.467 6.251 7.081 2.746 13.14 3.735 20.153 3.397 5.08-.36 9.768-.777 12.21-1.65 4.01-1.454 8.46-4.15 12.497-7.131.334-.287.144-.566-.13-.761 1.285-.355 2.484-.877 3.518-1.65-5.267.41-11.61-1.671-17.084-1.31-2.248.132-4.255-.297-6.04-.308zm23.125 1.619h.001z"/>
  <path fill="#d35f5f" d="M196.413 175.892c-3.792 2.831-9.798 2.313-14.114 2.443-4.223.115-4.97.112-7.612.886-2.161.633-4.017 1.162-5.984 1.234-1.633-.661-4.468.536-5.895-.03-1.788-.733-3.37-1.672-8.298-2.02-6.455-.458-14.587-.662-16.81-1.302-2.378-1.15 17.637-2.643 18.896-2.624 10.861.169 6.536.695 7.746 1.168 1.599.625 2.696-.17 7.232-1.21 2.188-.5 4.757.322 7.754.144 5.474-.36 11.818 1.72 17.085 1.311z" opacity=".4"/>
  <path d="M203.542 165.939a.503.503 0 0 0-.438.165c-.248.285-.163.465.405.862 1.354.947 4.625 4.15 5.184 5.41.717 1.618-.837 2.966-1.577 4.74-.288.69-.616 1.64-.729 2.11-.125.522-.1.858.061.862.482.01 1.814-1.777 2.337-3.135 2.692-3.041.928-6.908-2.508-9.104-1.265-1.236-2.179-1.875-2.735-1.91zm-74.573 2.694a.46.46 0 0 0-.108.019c-.18.055-1.036 1.09-1.902 2.296-1.49 2.075-2.636 2.81-2.667 4.31-.053 2.58 2.47 4.733 4.425 5.634 1.68.775 1.93.631-.307-2.01-1.478-1.746-2.165-2.101-2.22-3.696-.056-1.632 1.068-2.396 1.984-3.843.921-1.455 1.278-2.72.795-2.71zm70.749 5.774c-.149-.013-.371.011-.703.061-4.512.679-5.653.508-9.247.276-5.949-1.633-14.866-1.862-19.435-.843-1.864.788-4.755 1.497-6 .64-1.737-.904-2.616-1.36-10.507-.847-3.57.233-13.109 2.378-17.847 1.651-1.277-.324-2.148-.18-2.16.356-.01.37 1.319 1.297 2.374 1.658.341.117 1.73.75 3.085 2.056 3.115 2.076 5.759 3.643 9.616 5.263 3.857 1.62 9.36 2.657 15.07 2.694 1.164-.118 4.134.043 7.045.04 7.606-.094 14.836-3.097 19.424-6.555 2.578-1.963 4.298-2.846 7.433-4.222 1.006-.22 2.119-1.145 2.133-1.772.01-.302-.034-.433-.281-.456zm-4.095 1.89-.788.342c-.434.189-1.237.397-1.787.462-.549.065-.894.152-1.188.271-1.303.53-5.415.476-9.703.594-4.223.116-5.159-.04-7.8.735-3.35 1.06-3.976 1.149-7.417 1.436-.736.064-3.344-.629-3.99-.894-1.788-.732-3.512-1.01-8.44-1.359-6.455-.457-12.555-.17-14.778-.809-1.652-.475-2.185-.485-1.334-.452 6.482-.186 10.857-1.183 14.797-1.553 6.14-.174 9.937.529 11.147 1.002 3.698.544 2.937-.034 6.363-1.03 2.187-.5 5.626-.283 8.623-.46 3.9-.232 8.41 1.3 9.822 1.497.29.04 2.927.166 3.934.352zm-56.162 1.861c.217.01 1.035.168 1.976.384 1.077.248 3.652-.043 5.031.129 1.38.171 2.83.032 3.918.21s3.584.417 5.547.531c2.867.167 3.757.313 4.533.748.53.298 2.083.804 3.451 1.126 2.29.538 3.335.649 4.406.302 2.64-.36 4.714-.769 6.699-1.404 2.433-.784 3.73-.508 6.1-.663 3-.196 9.582-.654 10.848-1.098.14-.05.243-.08.305-.089.185-.023-.779.529-1.401 1.063-.54.463-.9.624-2.474 1.573-3.1 1.871-4.504 2.2-7.873 3.405-2.442.874-6.988 1.62-12.068 1.981-3.26.231-9.432-.064-10.278-.367-4.488-.438-9.78-2.341-12.873-4.158-1.502-.873-6.09-3.488-5.902-3.668.005-.005.024-.006.055-.005z"/>
</svg>
