<svg xmlns="http://www.w3.org/2000/svg" width="1278.065" height="1569.494">
  <path fill="none" d="M0 3.78h1274.286v1565.714H0z" paint-order="fill markers stroke"/>
  <path class="mouth" fill="#e9afaf" d="M584.654 645.125c-.454.005-.808.019-1.049.043-19.669 1.986-26.526 2.942-39.224 5.473-8.098 1.613-13.171 1.525-15.524 1.56l-7.752 1.502 6.174 1.596c6.884 3.051 10.192 3.224 45.326 3.002 29.56-.187 35.919.018 38 1.23 3.299 1.92 18.952 5.9 21.5 5.465 1.1-.187 4.475-.78 7.5-1.314 3.025-.535 7.75-1.254 10.5-1.598 2.75-.344 7.925-1.34 11.5-2.213 5.06-1.236 12.93-1.632 35.5-1.785 25.207-.171 30.273-.471 38.735-2.295 14.705-3.17 17.817-8.13-.268-6.916-7.13.478-16.725 1.323-21.601.768-18.403-2.097-33.657-3.067-48.024-3.053-15.369.015-16.107 1.804-25.654 6.369-1.535.642-6.594.172-7.543-.041-.355-.516-3.12-1.952-6.145-3.191-4.248-1.741-9.368-2.556-22.5-3.582-8.18-.64-16.268-1.056-19.45-1.02zM742.648 664.1l-3.015 3.488c-1.659 1.918-4.217 5.627-5.684 8.242-2.891 5.155-6.337 8.185-13.344 11.738-2.475 1.255-5.497 3.06-6.716 4.012-3.173 2.477-32.518 11.652-44.784 14.002-8.734 1.673-46.121 2.796-59.5 1.787-19.125-1.443-37.03-6.797-47-14.055-2.475-1.801-8.325-7.24-13-12.087-4.675-4.847-10.75-10.431-13.5-12.409l-5-3.593 2.842 3.73c1.564 2.052 5.389 7.339 8.5 11.75 3.112 4.411 7.356 10.42 9.432 13.352 3.564 5.034 7.458 8.833 14.828 14.472 1.917 1.467 9.08 4.163 17.803 6.7 12.775 3.715 19.287 5.108 31.595 6.753 3.261.436 15.369.011 36.5-1.28 7.425-.455 16.65-1.596 20.5-2.536 16.506-4.03 23.361-6.093 29.096-8.758 3.353-1.558 6.547-2.832 7.096-2.832 2.086 0 13.954-8.43 17.226-12.236 5.845-6.799 11.267-15.97 13.747-23.252l2.378-6.988z"/>
  <path fill="#fff" d="M645.605 703.505c23.08-2.916 30.835-4.22 37.858-6.364 4.203-1.283 11.48-3.494 16.172-4.913 7.626-2.306 20.328-8.943 27.265-14.247 2.518-1.925 14.147-19.297 13.41-20.033-.219-.22-2.155.381-4.302 1.334-3.482 1.546-7.235 1.7-34.81 1.425-28.406-.283-31.843-.13-42.5 1.888-6.376 1.208-13.29 2.823-15.363 3.588-2.074.766-4.96 1.393-6.414 1.393-3.083 0-17.755-2.533-27.816-4.802-6.984-1.575-21.036-1.913-57.64-1.387-8.053.115-15.478-.103-16.5-.486-1.023-.383 4.183 5.243 11.57 12.5 13.08 12.856 13.754 13.356 26 19.293 13.816 6.699 18.504 7.842 42.07 10.26 17.417 1.786 20.75 1.846 31 .55z"/>
  <path fill="#d35f5f" d="M639.605 663.682c3.025-.535 7.75-1.254 10.5-1.598 2.75-.343 7.925-1.34 11.5-2.213 5.059-1.236 12.929-1.632 35.5-1.785 25.206-.172 30.273-.472 38.735-2.296 14.705-3.17 17.817-8.127-.268-6.914-7.13.478-16.726 1.322-21.602.766-18.403-2.096-33.656-3.066-48.023-3.052-15.369.015-16.107 1.805-25.654 6.37-1.535.642-6.594.171-7.543-.042-.355-.515-3.12-1.951-6.145-3.19-4.249-1.742-9.368-2.557-22.5-3.584-9.35-.731-18.575-1.17-20.5-.976-19.67 1.986-26.525 2.943-39.224 5.474-8.097 1.613-13.172 1.524-15.524 1.56l-7.752 1.502 6.174 1.595c6.883 3.052 10.191 3.223 45.326 3.001 29.558-.187 35.918.02 38 1.232 3.298 1.92 18.951 5.898 21.5 5.464 1.1-.188 4.475-.779 7.5-1.314z" opacity=".4"/>
  <path d="M776.005 660.254c-.285-1.035-.004-5.11.622-9.056 1.487-9.37-.552-17.658-5.676-23.061-1.897-2-5.483-5.76-7.97-8.356-4.433-4.63-4.503-6.417-.18-4.617 4.093 1.703 15.737 13.19 17.574 17.334 3.883 8.763 3.301 19.362-1.437 26.166-2.204 3.166-2.462 3.305-2.933 1.59zm-275.72 10.57c-1.768-3.692-4.75-15.408-4.902-19.259-.174-4.418.18-5.266 5.78-13.824 3.014-4.607 5.815-7.527 9.476-9.878 2.858-1.837 5.395-3.003 5.638-2.593.243.41-2.673 5.399-6.48 11.086-3.807 5.687-7.372 11.669-7.922 13.294-1.206 3.564-.784 12.286.92 19.047.945 3.745.912 4.86-.133 4.579-.76-.204-1.83-1.307-2.377-2.451zm148.848-10.28c20.694-4.097 33.451-2.35 47.972-2.459 25.206-.17 30.273-2.471 38.735-4.295 10.213-1.644 8.515-2.152-.028-2.517-7.139-.306-16.966-1.075-21.842-1.63-18.403-2.097-20.952-1.224-35.319-1.21-15.369.015-25.845-.462-35.392 4.103-2.518 1.204-10.135.924-10.509.382-.355-.515-3.12-.993-6.145-2.232-8.146-1.667-26.584-2.794-43-1.518-19.67 1.986-26.525.943-39.224 3.474-.306-.1-21.572-.711-17.102 2.657 6.883 3.052 10.191 3.223 45.326 3.001 29.558-.187 35.918.02 38 1.231 3.298 1.92 15.955 3.899 24.077 3.764 4.903-.08 12.154-2.345 14.45-2.752zm-3.528 42.96c23.08-2.915 30.835-4.218 37.858-6.363 4.203-1.283 11.48-3.494 16.172-4.913 7.626-2.306 20.328-8.943 27.265-14.247 2.518-1.925 14.147-19.297 13.41-20.033-.219-.22-2.155.381-4.302 1.334-3.482 1.546-8.082 3.87-35.657 3.595-28.406-.284-30.02.107-40.813 1.179-8.86.88-18.712 3.62-27.171 3.76-7.82.069-13.2-.773-23.262-3.042-6.984-1.575-21.036-1.914-57.64-1.387-8.053.115-15.478-2.103-16.5-2.486-1.023-.383 4.183 5.243 11.57 12.5 13.08 12.856 13.754 13.356 26 19.293 13.816 6.699 18.504 7.842 42.07 10.26 17.417 1.786 20.75 1.845 31 .55zm7 17.197c7.425-.454 16.65-1.595 20.5-2.535 16.505-4.03 23.362-6.093 29.097-8.758 3.353-1.558 6.546-2.832 7.095-2.832 2.086 0 13.955-8.43 17.227-12.236 5.844-6.798 11.265-15.969 13.745-23.252l2.379-6.988-3.016 3.488c-1.659 1.918-4.216 5.627-5.683 8.242-2.891 5.155-6.337 8.186-13.344 11.739-2.475 1.255-5.498 3.06-6.717 4.012-3.172 2.476-32.518 11.65-44.783 14-8.735 1.674-46.122 2.797-59.5 1.787-19.126-1.443-37.03-6.796-47-14.054-2.475-1.801-8.325-7.241-13-12.088-4.675-4.847-10.75-10.43-13.5-12.407l-5-3.595 2.842 3.73c1.564 2.052 5.389 7.34 8.5 11.751a11795.98 11795.98 0 0 0 9.432 13.35c3.564 5.035 7.457 8.836 14.828 14.475 1.916 1.466 9.08 4.162 17.802 6.699 12.775 3.716 19.288 5.107 31.596 6.753 3.26.435 15.368.01 36.5-1.281zm-52.28 3.552c-12.694-3.296-22.892-4.09-34.407-10.245-3.607-2.017-8.074-5.655-10.537-8.58-2.352-2.794-6-7.123-8.108-9.621-2.108-2.499-3.51-3.775-7.051-9.052-2.824-6.92-14.623-18.789-16.512-24.65-1.63-5.062-5.488-7.013-.367-10.03 3.018-1.776 10.687-3.29 14.262-3.652 3.575-.363 8.838-.869 15.884-1.581 12.485-1.263 16.496-2.607 36.616-2.594 22.342.013 22.007 1.718 37.605 2.17l8.68 2.25 5.302-.34c3.135-.2 4.68-2.514 10.76-3.013 7.857-.646 35.768-4.16 56.653-1.738 14.45 1.676 31.155 1.286 38.007 3.44 11.807 1.848 9.2 6.32 7.012 8.142-2.74 3.542-5.182 3.1-8.085 11.277-5.475 15.422-11.3 24.94-20.71 33.839-2.953 2.794-7.363 6.092-9.797 7.328-2.435 1.237-5.49 3.078-6.788 4.092-3.121 2.437-29.07 10.881-33.44 10.881-1.885 0-5.75.441-8.591.98-2.841.539-11.115 1.197-18.387 1.463-7.271.266-19.071.707-26.221.978-6.813.022-16-.244-21.78-1.744z"/>
</svg>
