<svg xmlns="http://www.w3.org/2000/svg" width="1278.065" height="1569.494" viewBox="0 0 338.155 415.262">
  <path fill="none" d="M.5.5h337.155v414.262H.5z" paint-order="stroke fill markers"/>
  <path class="mouth" fill="#e9afaf" d="m196.11 172.548-1.856.144c-1.02.079-2.093.111-2.383.071-1.413-.196-8.144-.152-12.043.08-2.997.178-5.377.489-7.565.99-4.536 1.039-5.822 1.126-7.42.501-1.211-.473-2.225-.527-13.085-.696-6.475-.1-12.132-.116-12.57-.035-.716.132-.608.2 1.043.676 2.224.64 8.324 1.41 14.78 1.867 4.927.35 6.651.627 8.438 1.36.647.264 1.507.39 2.243.326.656-.057 2.385-.148 3.841-.201 1.967-.073 3.398-.318 5.56-.952 2.641-.774 3.341-.864 7.564-.98 4.288-.118 8.4-.594 9.703-1.123.294-.12.955-.385 1.469-.589.514-.204 1.237-.611 1.608-.905zm-56.149 2.813c-.031 0-.05 0-.055.006-.188.18 4.4 3.853 5.903 4.726.925.538 2.21 1.373 2.854 1.856 1.639 1.227 6.006 3.184 7.239 3.243.564.027 1.32.154 1.682.284.846.304 8.115.431 11.375.2 5.08-.36 9.626-1.107 12.068-1.981 3.369-1.206 5.02-2.173 7.754-4.546 1.315-1.14 2.832-2.452 3.373-2.915.622-.534.806-.72.62-.696a1.82 1.82 0 0 0-.305.088c-1.265.444-7.847 1.431-10.848 1.627-2.369.155-3.666.409-6.1 1.193-2.27.732-3.515.988-4.69.965-.88-.018-2.124.138-2.764.345-1.07.347-1.36.33-3.65-.208-1.368-.322-2.92-.829-3.452-1.126-.775-.435-1.665-.582-4.533-.748-1.962-.114-4.458-.353-5.546-.53a143.766 143.766 0 0 0-4.485-.637c-1.379-.171-3.388-.514-4.464-.761-.942-.217-1.759-.375-1.976-.385z"/>
  <path fill="#d35f5f" d="m196.11 172.548-.673.534c-.37.294-1.094.701-1.608.905-.514.204-1.175.47-1.469.589-1.303.53-5.415 1.005-9.703 1.123-4.223.116-4.923.206-7.564.98-2.162.634-3.593.879-5.56.951-1.456.054-3.185.145-3.841.202-.736.063-1.596-.062-2.243-.327-1.787-.732-3.51-1.01-8.439-1.359-6.455-.457-12.555-1.228-14.779-1.867-1.651-.475-1.759-.545-1.043-.676.438-.08 6.095-.065 12.57.036 10.86.168 11.874.222 13.084.695 1.599.625 2.885.538 7.421-.501 2.188-.5 4.568-.812 7.565-.99 3.9-.232 10.63-.276 12.043-.08.29.04 1.363.008 2.383-.071z" opacity=".4"/>
  <path d="M204.041 163.142a.502.502 0 0 0-.437.165c-.247.286-.163.466.404.863 1.355.946 3.09 2.947 3.648 4.207.718 1.618.7 4.168-.04 5.942-.288.69-.616 1.64-.729 2.11-.125.522-.1.858.061.862.482.01 1.815-1.777 2.337-3.135 1.043-2.71-.06-6.71-2.508-9.104-1.265-1.236-2.179-1.874-2.735-1.91zm-74.572 3.223a.457.457 0 0 0-.108.02c-.18.055-1.036 1.089-1.902 2.296-1.49 2.074-1.577 2.28-1.608 3.781-.053 2.58 1.412 5.262 3.366 6.163 1.68.774 1.67.44-.073-2.344-1.213-1.94-1.341-2.297-1.396-3.892-.056-1.632.01-1.867.926-3.314.921-1.454 1.279-2.72.795-2.71zm70.748 4.717c-.148-.014-.37.01-.702.06-4.512.68-7.07.82-10.665.589-6.279-.405-12.39-.059-16.958.96-4.062.907-5.53.921-6.776.065-.697-.479-5.956-.63-13.86-.398-6.395.188-13.332.029-14.777-.338-1.277-.324-2.149-.18-2.16.355-.01.37 1.319 1.298 2.374 1.659.341.116 1.73 1.28 3.086 2.585 2.37 2.28 6.132 5.415 6.51 5.424.1.002.637.383 1.192.847 1.495 1.249 5.135 3.096 7.823 3.97 1.3.424 2.483.813 2.627.865.544.197 2.995.188 5.036-.018 1.163-.117 4.497-.216 7.408-.22 6.908-.008 8.262-.204 12.134-1.76 2.778-1.115 4.735-2.465 8.377-5.777 1.467-1.334 2.77-2.423 2.897-2.42.127.003.57-.502.984-1.123.928-1.39 2.678-2.896 3.599-3.097 1.006-.22 2.12-1.146 2.133-1.773.01-.302-.034-.432-.282-.455zm-4.107 1.466-.673.534c-.37.294-1.094.701-1.608.905-.514.204-1.175.47-1.469.589-1.303.53-5.415 1.005-9.703 1.123-4.223.116-4.923.206-7.564.98-2.162.634-3.593.879-5.56.951-1.456.054-3.185.145-3.841.202-.736.063-1.596-.062-2.243-.327-1.787-.732-3.51-1.01-8.439-1.359-6.455-.457-12.555-1.228-14.779-1.867-1.651-.475-1.759-.545-1.043-.676.438-.08 6.095-.065 12.57.036 10.86.168 11.874.222 13.084.695 1.599.625 2.885.538 7.421-.501 2.188-.5 4.568-.812 7.565-.99 3.9-.232 10.63-.276 12.043-.08.29.04 1.363.008 2.383-.071zm-3.335 2.99c.185-.024 0 .162-.621.696-.54.463-2.058 1.775-3.373 2.915-2.734 2.373-4.385 3.34-7.754 4.546-2.442.874-6.989 1.62-12.068 1.981-3.26.232-10.53.103-11.375-.2-.361-.13-1.118-.257-1.683-.284-1.232-.059-5.6-2.016-7.237-3.243-.645-.483-1.93-1.318-2.855-1.856-1.503-.873-6.09-4.547-5.903-4.726.041-.04.955.131 2.031.379 1.077.247 3.085.59 4.464.761 1.38.172 3.398.458 4.485.636 1.088.178 3.584.417 5.546.53 2.868.167 3.758.314 4.534.749.53.297 2.084.804 3.451 1.126 2.29.538 2.58.554 3.65.208.64-.207 1.883-.363 2.763-.345 1.176.023 2.42-.233 4.692-.965 2.433-.784 3.73-1.038 6.1-1.192 3-.196 9.582-1.184 10.848-1.628.14-.05.243-.08.305-.088z"/>
</svg>
