<svg xmlns="http://www.w3.org/2000/svg" width="1278.065" height="1569.494" viewBox="0 0 338.155 415.262">
  <path fill="none" d="M.5.5h337.155v414.262H.5z" paint-order="stroke fill markers"/>
  <path class="mouth" fill="#e9afaf" d="M181.84 177.701c-1.921-.026-4.18.229-4.477.226-.851-.008-2.946.318-5.273.821-1.505.326-1.795.332-2.88.066-1.954-.478-10.968-.352-15.398.215-2.223.285-3.83.17-4.835.329-.738-.065-2.067.33-2.675.492l-.93.25 1.652.573c.792.186 2.435-.05 3.68.065 6.63.612 7.826.432 9.995.477 1.301.027 4.456 1.173 4.928 1.28 1.982.089 2.254-.31 3.815-.588 2.39-.282 5.078-.533 7.76-.807 1.064.088 4.895-.482 7.156-1 2.246-.514 3.6-.738 2.82-.88-.193-.577-1.689-1.014-3.612-1.379-.481-.091-1.085-.13-1.725-.14zm4.512 3.408c-.238.019-.696.116-1.494.3-.758.176-2.453.403-3.767.505-1.315.102-2.992.279-3.728.393-6.677 1.04-7.393 1.11-9.993.97-1.718-.091-3.003-.275-3.804-.545-.722-.243-1.77-.41-2.604-.412-.767-.002-1.765-.097-2.218-.209-.452-.112-1.947-.201-3.321-.2-1.368-.532-3.454-.502-4.349-.673-.889-.17-1.428.058-1.484.058-.056 0 .347.32.896.71 1.324.94 2.718 1.135 5.369 1.818 1.188.307 3.326.368 3.61.504.282.137 1.578.42 2.88.63 2.632.425 6.786.39 10.595-.09 1.132-.143 3.122-.543 4.423-.889 1.302-.346 4.557-.332 5.193-.499 1.114-.292 3.736-1.817 3.974-2.202.08-.128.06-.188-.178-.17z"/>
  <path fill="#d35f5f" d="M169.443 181.907c2.389-.282 5.077-.533 7.758-.807 1.065.088 4.896-.482 7.157-1 2.247-.514 3.6-.738 2.82-.88-.193-.577-1.689-1.014-3.612-1.379-1.924-.365-5.807.09-6.203.086-.851-.008-2.946.318-5.273.821-1.506.326-1.795.332-2.88.066-1.954-.478-10.968-.353-15.398.215-2.223.285-3.83.17-4.835.329-.738-.066-2.067.33-2.675.492l-.93.249 1.652.574c.792.186 2.435-.05 3.68.066 6.63.611 7.827.431 9.995.476 1.301.027 4.456 1.173 4.928 1.28 1.982.089 2.254-.31 3.816-.588z" opacity=".4"/>
  <path d="M169.443 181.907c2.389-.282 4.375-.466 7.19-.807 1.065.088 5.464-.482 7.725-1 2.247-.514 3.033-.974 2.252-1.116-.452-.081-1.924-.4-3.848-.765-1.923-.365-5.003-.288-5.399-.292-.851-.008-2.946.318-5.273.821-1.506.326-1.795.332-2.88.066-1.954-.479-10.968-.353-15.398.215-2.223.285-3.377.242-5.052.48-.758.106-1.706.12-2.257.425-.314.172-.792.245.309.503.792.186 3.516-.097 4.761.018 6.63.612 6.966.56 9.126.76 1.727.16 3.81.115 5.292.653 1.134.443 1.933.315 3.452.04zm3.497 2.96c1.132-.142 3.122-.542 4.423-.888 1.302-.347 4.19-.666 4.825-.833 1.115-.292 3.574-1.483 3.812-1.868.16-.257.455-.239-1.142.132-.757.175-2.453.402-3.767.504-1.315.102-2.992.279-3.728.393-6.677 1.04-7.394 1.11-9.993.97-1.718-.091-3.003-.276-3.804-.545-.722-.244-1.77-.41-2.604-.412-.767-.002-1.765-.097-2.218-.209-.452-.112-1.947-.202-3.321-.2-1.77-.225-4.314-.375-5.85-.626 1.595 1.401 5.398 1.78 7.217 2.239 1.188.306 2.392.668 2.674.804.283.137 1.58.42 2.88.63 2.633.425 6.787.39 10.596-.09zm-9.533 1.359c-2.708-.532-8.377-1.353-10.831-2.51-1.642-.773-3.577-1.088-4.887-2.218-.84-.16-.23.095-2.237-.56-1.671-.326-.414-1.756.726-1.934 1.046.053 3.34-.743 5.178-.9 2.027-.286 4.703-.567 5.948-.625 1.245-.058 2.99-.241 3.88-.407 2.17-.405 3.526-.381 6.098.11 2.686.51 4.038.517 5.985.027 2.092-.526 4.603-.696 6.4-.432.826.121 4.691.49 6.106.702 2.497.33 2.097.644 3.316.88.64.124 1.29.705.862 1.087-.909.814-1.006.9-1.944 1.469-1.522 2.061-2.343 1.935-4.107 2.809-1.526.778-3.519.907-7.2 1.773-4.316 1.017-9.505 1.462-13.293.729z"/>
</svg>
