<svg xmlns="http://www.w3.org/2000/svg" width="1278.065" height="1569.494" viewBox="0 0 338.155 415.262">
  <path fill="none" d="M0 0h337.155v414.262H0z" paint-order="stroke fill markers"/>
  <path fill="#fff" d="M170.816 185.077c6.107-.771 8.159-1.116 10.017-1.683 1.112-.34 3.037-.925 4.279-1.3 2.018-.61 3.908-3.903 5.744-5.307.666-.51 6.044-4.25 5.85-4.444-.059-.058-1.269-.354-1.837-.102-.92.276-2.302-.023-9.608.587-7.49.625-8.16.891-10.98 1.425-1.687.32-3.517.747-4.065.95-.549.202-1.313.368-1.697.368-.816 0-4.13-1.013-6.793-1.613-1.848-.417-6.133-.164-15.818-.024-2.13.03-4.095-.028-4.365-.129-.27-.101 1.107 1.387 3.06 3.308 3.462 3.4 3.64 3.533 6.88 5.104 3.656 1.772 4.896 2.075 11.131 2.714 4.608.473 5.49.489 8.202.146z"/>
  <path class="mouth" fill="#e9afaf" d="M197.125 169.543c-2.158.033-7.01.892-8.22.754-4.87-.555-9.006.091-12.807.095-2.457.255-5.2.204-7.72 2.293-3.638-1.763-5.907-1.923-8.275-2.11-2.473-.194-5.181-.455-5.69-.403-5.205.525-7.019-.28-10.379.39-2.142.427-6.72.028-7.342.037l1.184.772.794.352c1.82.808 3.536.924 12.832.865 7.82-.05 9.503.525 10.054.845.873.508 6.425 1.536 7.1 1.421 2.064-1.353 4.182-.908 6.494-1.467 1.339-.327 3.32-.815 9.292-.856 6.67-.045 8.01-.125 10.249-.607 3.89-.839 6.725-2.19 2.828-2.377a6.319 6.319 0 0 0-.394-.004zm-.42 2.8s-.122.105-.184.156c.083-.062.15-.118.184-.157zm-.184.156c-.993.742-5.213 2.992-5.571 3.63-4.306 2.532-10.482 7.88-14.247 8.694-2.31.443-11.647.914-15.175.52-4.873-.542-8.122-3.304-11.633-4.474-.655-.477-3.242-1.585-4.479-2.867-1.236-1.283-2.844-1.579-3.571-2.102l-1.323-.951.752.987c.413.543 1.425 1.942 2.249 3.109.823 1.167 3.836 2.473 4.385 3.249.943 1.332 2.115.66 4.065 2.152.507.388 2.71 2.353 5.017 3.025 3.38.983 2.765 2.06 6.021 2.495.863.116 3.594.57 9.185.228 1.965-.12 4.878-.989 5.896-1.238 6.077-2.423 10.95-7.394 15.51-12.713.617-1.77 2.466-3.37 2.92-3.744z"/>
  <path fill="#c83737" d="M175.15 173.388c1.339-.328 3.32-.816 9.292-.857 6.67-.045 8.01-.125 10.25-.607 3.89-.839 6.724-2.19 2.827-2.377-1.889-.09-7.324.897-8.614.75-4.87-.555-9.005.09-12.806.095-2.458.255-5.2.205-7.72 2.293-3.64-1.762-5.908-1.923-8.276-2.11-2.473-.194-5.181-.455-5.69-.403-5.205.525-7.019-.28-10.379.39-2.142.426-6.72.027-7.342.037l1.184.773.794.352c1.82.807 3.536.922 12.832.864 7.82-.05 9.503.525 10.054.845.873.508 6.425 1.537 7.1 1.422 2.064-1.354 4.182-.909 6.494-1.467z" opacity=".4"/>
  <path d="M199.805 160.43c-.422.005-.172.491.742 1.375.684.661 1.67 1.619 2.193 2.128 1.41 1.376 2.034 3.546 1.737 6.039-.125 1.05-.158 2.13-.072 2.4.142.45.209.41.76-.45 1.182-1.848 1.228-4.655.111-6.932-.528-1.078-3.724-3.995-4.824-4.403-.29-.108-.506-.16-.647-.158zm-64.577 1.435c-.182.007-.755.342-1.382.816-.918.695-1.597 1.522-2.299 2.798-1.303 2.372-1.38 2.603-1.244 3.765.118 1.013 1.143 4.043 1.685 4.981.168.29.472.56.676.599.282.052.268-.243-.057-1.211-.587-1.75-.875-4.041-.63-5.006.112-.44.931-2.09 1.82-3.668.889-1.578 1.557-2.953 1.485-3.056-.01-.013-.027-.019-.053-.018zm64.295 6.564c-.688.01-1.535.083-2.362.135-1.496.001-5.63.388-9.477.26-6-.198-13.854.908-15.818 1.454-.515.142-2.178.652-2.88 1.097l-.675.96-.889-.838c-.854-1.062-5.378-1.565-11.29-1.569-4.108-.016-13.011.245-19.973-.28-.945-.325-1.129-.321-1.479.029-.481.48-.379.905.306 1.27 2.07 1.122 4.438 4.175 7.638 7.205 3.194 3.025 7.217 6.025 10.623 7.717 4.926 2.448 8.596 5.588 14.423 5.301 2.604-.097 4.816-.255 8.311-.81 7.61-2.655 9.37-5.582 16.014-11.684 1.559-1.937 6.518-8.13 7.782-8.528 1.99-1.463 1.258-1.742-.254-1.719zm-2.793 1.548c.73.007-.145.416-2.039 1.417-2.239.483-3.58.563-10.248.608-5.972.04-8.055.674-9.393 1.001-.946.232-2.315.495-3.043.586-.727.091-1.304.458-2.105.6-.56.103-.87.074-1.547.265-.675.115-2.855-.796-4.011-1.163-.608-.192-5.021-.753-12.842-.704-9.296.06-11.011-.585-12.832-1.393l-.794-.352c2.073-.03 4.048.485 6.158.248 3.316-.372 4.985.476 10.19-.05.509-.05 3.071-.085 5.545.109 3.475.272 4.896.826 6.02 1.287.8.328 2.207.305 2.506.397.167.051 1.848-.572 2.514-.89 2.526-1.209 5.462-1.435 9.529-1.439 3.801-.004 4.361-.211 9.294-.074 1.298.036 3.18.028 5.052-.23 1.05-.146 1.714-.226 2.046-.223zm-2.694 2.71c.255-.002.128.362.175.409.195.195-7.796 4.813-8.462 5.323-3.307 2.475-3.525 3.83-7.562 4.975-1.858.567-1.264.912-7.37 1.683-2.713.343-4.583.257-6.821-.146-3.44-.618-6.25-1.67-9.907-3.442-4.266-2.038-9.653-3.333-12.546-7.684.27.101 2.235.16 4.365.129 9.686-.14 15.671.28 17.519.697 2.662.6 4.276.94 5.091.94.385 0 1.149-.166 1.697-.368.55-.203 2.379-.63 4.066-.95 2.82-.534 3.736-.696 11.245-1.028 7.166-.317 7.206-.475 8.265-.472a.642.642 0 0 1 .245-.067zm.24 1.82c.055.001.093.023.11.071.021.126-.27.592-1.462 1.655-3.414 3.042-8.805 10.13-17.477 12.723-4.571 1.13-5.117.835-9.365.868-4.573-.63-7.411-2.647-11.854-5.252-4.467-2.619-9.497-5.573-12.954-8.636l-.752-.987 1.323.95c3.282 2.412 7.786 5.164 11.922 6.723 2.638 1.92 7.7 3.142 11.78 3.611 2.934.338 6.53-.164 8.841-.607 4.676-.942 5.095-1.742 9.26-4.103 3.086-2.983 5.83-3.316 8.371-5.71.707-.308 1.88-1.317 2.258-1.307z"/>
</svg>
