<svg xmlns="http://www.w3.org/2000/svg" width="1278.065" height="1569.494" viewBox="0 0 338.155 415.262">
  <path fill="none" d="M.5.5h337.155v414.262H.5z" paint-order="stroke fill markers"/>
  <path class="mouth" fill="#e9afaf" d="M187.782 177.198c-3.041-.05-10.072.732-10.419.73-.851-.009-4.004.317-6.332.82-1.505.326-1.794.332-2.88.066-1.953-.478-11.704-1.675-16.134-1.108-2.223.285-3.981.405-4.835.33-1.985-.143-7.21 1.369-.68 1.898 2.494.44 3.744.767 4.202.804 6.63.612 7.826.432 9.995.477 1.301.027 2.752.137 3.224.245.82.088 1.561-.018 2.235.241 1.134.443 1.766.482 3.284.206 2.186-.397 5.582-.876 6.121-.862.312.008.793.032 1.07.055 1.065.088 10.708-1.049 12.97-1.567 2.246-.514 3.6-.738 2.819-.88-.193-.577-1.689-1.014-3.612-1.379a6.575 6.575 0 0 0-1.028-.076zm-41.54 3.167c-.056 0 .347.32.897.71 1.323.941 6.065 3.654 8.716 4.337 1.188.306 3.326.367 3.61.504.282.136 1.578.42 2.88.63 2.632.425 6.786.389 10.595-.09 1.132-.143 3.122-.543 4.423-.89 1.302-.346 7.732-2.448 8.368-2.615 1.114-.292 3.736-1.817 3.974-2.202.159-.257-.076-.239-1.672.131-.758.176-5.628.932-6.942 1.034-1.315.102-2.992.279-3.728.393-6.677 1.04-7.393 1.11-9.993.97-1.718-.091-3.003-.275-3.804-.545-.722-.243-1.77-.41-2.604-.412-.767-.002-1.765-.097-2.218-.209-.452-.112-1.947-.73-3.321-.729-1.368-.532-5.041-.502-5.937-.674-.888-.17-3.188-.343-3.244-.343z"/>
  <path fill="#d35f5f" d="M169.443 181.907c2.185-.397 5.58-.876 6.12-.862.311.008.793.032 1.07.055 1.065.088 10.708-1.049 12.97-1.567 2.246-.514 3.6-.738 2.819-.88-.193-.577-1.688-1.014-3.612-1.379-1.924-.365-11.05.657-11.447.653-.851-.008-4.004.318-6.332.821-1.505.326-1.794.332-2.88.066-1.953-.478-11.705-1.676-16.135-1.108-2.222.285-3.98.405-4.834.329-1.985-.142-7.21 1.37-.68 1.899 2.494.44 3.744.767 4.202.805 6.63.611 7.827.431 9.995.476 1.301.027 2.752.137 3.224.245.82.088 1.561-.018 2.235.24 1.134.444 1.766.483 3.285.207z" opacity=".4"/>
  <path d="M194.158 165.933c-1.083 1.14 5.494 4.656 7.03 7.681.664 1.31-.407 4.737-1.348 7.096.183 2.034 2.714-2.383 2.444-3.463.076-1.15.406-2.613 0-3.72-1.108-2.112-6.248-6.789-8.126-7.594zm-55.722 2.123c-1.703 1.714-6.138 6.691-5.406 9.368.017 1.773 2.7 5.219 3.893 4.016-.723-1.317-2.401-3.1-2.854-4.553-.302-.971.335-1.56.722-2.631.37-1.068 4.21-5.112 3.645-6.2zm38.968 8.603c-1.358.032-3.888.22-5.195.55-1.948.49-3.3.484-5.985-.028-2.36-.301-2.777-.41-4.772-.176-.899.104-3.137.115-4.382.173-1.244.059-6.333.111-8.36.396-1.839.159-3.966.094-5.012.042-1.14.177-3.89.584-1.203 1.974.537.287 1.346.395 1.853.504 1.548.935 6.183 3.607 7.699 4.028.898.24 2.023.699 2.09.741.507.313 7.365 2.243 9.637 2.505 3.81.401 5.086.228 10.353-.42.227-.111 1.767-.287 2.672-.449 3.724-.663 9.28-2.527 10.806-3.305 1.256-.643 2.777-1.758 4.373-3.009.65-.406 3.23-2.633.848-2.923-1.218-.236-.852.017-3.349-.312-1.414-.213-8.984-.052-9.81-.173a13.689 13.689 0 0 0-2.263-.118zm6.884.915c.913-.006 1.698.025 2.179.116 1.923.365 4.631.316 5.084.398.78.141-1.242.968-3.489 1.483-2.261.518-10.364 1.617-11.429 1.53a23.118 23.118 0 0 0-1.07-.056c-.54-.014-3.935.465-6.12.862-1.519.276-2.151.237-3.285-.206-.674-.259-1.414-.153-2.235-.24-.472-.109-1.923-.22-3.224-.246-2.169-.045-5.142-.677-11.772-1.289-2.79-.3-4.89-.729-5.07-1.05-.48-.282 1.421-.408 2.474-.365.94.04 2.67.028 5.002-.162 4.451-.363 14.865-.013 16.818.465 1.086.266 1.375.26 2.88-.066 2.328-.503 5.48-.829 6.332-.82.297.002 4.188-.338 6.925-.354zm5.504 3.006c.105-.019-.008.04-.087.17-.238.384-2.698 1.575-3.812 1.867-.636.166-6.283 2.112-7.585 2.458-1.3.346-4.236.746-5.368.889-3.181.401-6.879.346-10.595.053-4.123-1.086-4.799-.922-7.633-1.992-1.885-.76-4.19-1.35-5.613-2.348-.549-.39-2.397-1.186-2.341-1.186.056 0 2.074.415 2.963.585.895.171 1.671.308 3.056.306 1.374-.002 5.515.617 5.967.73.453.111 1.451.206 2.218.208.834.003 1.882.168 2.604.411.8.27 2.086.455 3.804.547 2.6.139 3.316.069 9.993-.97.736-.115 2.413-.292 3.728-.394 1.314-.102 6.714-.858 7.472-1.034.798-.185 1.123-.282 1.229-.3z"/>
</svg>
