<svg xmlns="http://www.w3.org/2000/svg" width="1278.065" height="1569.494" viewBox="0 0 338.155 415.262">
  <path fill="none" d="M.5.5h337.155v414.262H.5z" paint-order="stroke fill markers"/>
  <path class="mouth" fill="#e9afaf" d="M177.363 177.927c-.851-.008-2.946.318-5.273.821-1.505.326-1.795.332-2.88.066-1.954-.478-10.968-.352-15.398.215-2.223.285-3.98.405-4.835.329-.738-.065-1.852-.044-2.474.047l-1.132.165 1.44.338c.793.186 2.46.432 3.704.547 6.63.612 7.915 1.05 10.083 1.094 3.056-.273 5.959 1.356 8.844.358 2.186-.397 5.582-.876 6.121-.862.312.008.793.032 1.07.055 1.065.088 5.464-.482 7.725-1 2.246-.514 2.325-.55 1.543-.69a924.36 924.36 0 0 1-4.32-.813c-1.924-.365-3.822-.666-4.218-.67zm8.989 3.182c-.238.019-.696.116-1.494.3-.758.176-2.453.403-3.767.505-1.315.102-2.992.279-3.728.393-6.677 1.04-7.393 1.11-9.993.97-1.718-.091-3.003-.275-3.804-.545-.722-.243-1.77-.41-2.604-.412-.767-.002-1.765-.097-2.218-.209-.452-.112-1.947-.201-3.321-.2-1.385.002-3.22-.134-4.115-.306-.889-.17-1.662-.31-1.718-.31-.056 0 .347.32.896.71 1.324.942 3.653 1.894 6.304 2.577 1.188.306 2.391.668 2.674.805.283.136 1.58.42 2.88.63 2.633.424 6.787.389 10.596-.09 1.132-.143 3.122-.543 4.423-.89 1.302-.346 2.886-.766 3.522-.932 1.115-.293 5.407-2.442 5.645-2.827.08-.128.06-.188-.178-.17z"/>
  <path fill="#d35f5f" d="M169.443 181.907c2.185-.397 5.58-.876 6.12-.862.311.008.793.032 1.07.055 1.065.088 5.464-.482 7.725-1 2.247-.514 2.325-.55 1.544-.69a922.29 922.29 0 0 1-4.32-.813c-1.925-.365-3.823-.666-4.219-.67-.851-.008-2.946.319-5.273.821-1.506.326-1.795.332-2.88.066-1.954-.478-10.968-.353-15.398.215-2.223.285-3.98.405-4.835.329-.738-.065-1.852-.045-2.474.046l-1.132.166 1.44.338c.793.186 2.46.432 3.704.547 6.63.612 7.915 1.05 10.084 1.094 3.055-.273 5.958 1.356 8.844.358z" opacity=".4"/>
  <path d="M169.443 181.907c2.185-.397 5.58-.876 6.12-.862.311.008.793.032 1.07.055 1.065.088 5.464-.482 7.725-1 2.247-.514 2.325-.55 1.544-.69a922.29 922.29 0 0 1-4.32-.813c-1.925-.365-3.823-.666-4.219-.67-.851-.008-2.946.318-5.273.821-1.506.326-1.795.332-2.88.066-1.954-.479-10.968-.353-15.398.215-2.223.285-3.98.405-4.835.329-.738-.066-1.852-.045-2.474.046l-1.132.166 1.44.338c.793.186 2.46.432 3.704.547 6.63.612 8.016.715 10.184.76 1.301.027 2.752.137 3.224.245 1.983.088 3.09.925 5.52.447zm3.497 4.02c1.132-.143 3.122-.543 4.423-.89 1.302-.346 2.887-.766 3.522-.933 1.115-.292 5.407-2.44 5.645-2.826.159-.257-.075-.239-1.672.132-.757.175-2.453.402-3.767.504-1.315.102-2.992.279-3.728.393-6.677 1.04-7.394 1.11-9.993.97-1.718-.091-3.003-.276-3.804-.545-.722-.244-1.77-.41-2.604-.412-.767-.002-1.765-.097-2.218-.209-.452-.112-1.947-.202-3.321-.2-1.385.002-3.22-.135-4.115-.306-.889-.17-1.662-.31-1.718-.31-.056 0 .347.32.896.711 1.324.94 3.653 1.893 6.304 2.576 1.188.306 2.392.668 2.674.805.283.136 1.58.42 2.88.63 2.633.424 6.787.389 10.596-.09zm-9.165 1.44c-2.273-.262-6.485-1.133-6.991-1.446-.068-.042-.86-.273-1.757-.512-.897-.24-2.048-.683-2.558-.985a22.434 22.434 0 0 0-1.72-.913c-.436-.2-1.28-.808-1.874-1.35-.924-.845-1.416-1.097-3.423-1.752-1.29-.42-2.872-.85-3.517-.955-1.447-.235-2.062-.548-1.971-1 .059-.294.336-.345 1.813-.33.958.008 1.945.124 2.192.257.715.383 3.41.281 7.387-.278 2.027-.285 4.703-.566 5.948-.624 1.245-.058 2.99-.241 3.88-.407 2.17-.405 3.526-.381 6.098.11 2.686.51 4.038.517 5.985.027 2.092-.526 4.603-.696 6.4-.432.826.121 2.66.395 4.074.608 5.946.896 9.62.995 13.54.365 1.548-.249 2.2-.112 2.2.461 0 .405-2.38.978-5.144 1.24-3.367.318-3.211.266-4.669 1.547-.744.654-2.043 1.497-3.046 1.977-.962.46-2.457 1.199-3.323 1.64-1.526.778-3.343 1.277-7.067 1.94-4.198 1.3-8.743 1.252-12.457.813z"/>
</svg>
