<?xml version="1.0" encoding="UTF-8" standalone="no"?>
<!-- Created with Inkscape (http://www.inkscape.org/) -->

<svg
   xmlns:dc="http://purl.org/dc/elements/1.1/"
   xmlns:cc="http://creativecommons.org/ns#"
   xmlns:rdf="http://www.w3.org/1999/02/22-rdf-syntax-ns#"
   xmlns:svg="http://www.w3.org/2000/svg"
   xmlns="http://www.w3.org/2000/svg"
   xmlns:sodipodi="http://sodipodi.sourceforge.net/DTD/sodipodi-0.dtd"
   xmlns:inkscape="http://www.inkscape.org/namespaces/inkscape"
   width="338.15475mm"
   height="415.26193mm"
   viewBox="0 0 338.15475 415.26193"
   version="1.1"
   id="svg8"
   inkscape:version="0.92.3 (2405546, 2018-03-11)"
   sodipodi:docname="Mouth01.svg">
  <defs
     id="defs2" />
  <sodipodi:namedview
     id="base"
     pagecolor="#ffffff"
     bordercolor="#666666"
     borderopacity="1.0"
     inkscape:pageopacity="0.0"
     inkscape:pageshadow="2"
     inkscape:zoom="0.69999999"
     inkscape:cx="720.92378"
     inkscape:cy="899.01353"
     inkscape:document-units="mm"
     inkscape:current-layer="layer1"
     showgrid="false"
     inkscape:window-width="1920"
     inkscape:window-height="1001"
     inkscape:window-x="-9"
     inkscape:window-y="-9"
     inkscape:window-maximized="1"
     inkscape:snap-global="true"
     fit-margin-top="0"
     fit-margin-left="0"
     fit-margin-right="0"
     fit-margin-bottom="0" />
  <metadata
     id="metadata5">
    <rdf:RDF>
      <cc:Work
         rdf:about="">
        <dc:format>image/svg+xml</dc:format>
        <dc:type
           rdf:resource="http://purl.org/dc/dcmitype/StillImage" />
        <dc:title></dc:title>
      </cc:Work>
    </rdf:RDF>
  </metadata>
  <g
     inkscape:label="Ebene 1"
     inkscape:groupmode="layer"
     id="layer1"
     transform="translate(1354.4108,-270.58325)"
     style="display:inline">
    <rect
       style="opacity:1;fill:none;fill-opacity:1;fill-rule:evenodd;stroke:none;stroke-width:0.99999988;stroke-linecap:round;stroke-linejoin:miter;stroke-miterlimit:4;stroke-dasharray:none;stroke-dashoffset:0;stroke-opacity:1;paint-order:stroke fill markers"
       id="rect1307-6"
       width="337.15475"
       height="414.26193"
       x="-1353.9108"
       y="271.08325"
       inkscape:label="Frame" />
    <path
       style="fill:#b38585;fill-opacity:1;stroke-width:1"
       d="m -1161.636,446.12124 c 0.1853,-0.0237 10e-4,0.16221 -0.6211,0.69601 -0.5402,0.46292 -2.0577,1.77506 -3.3723,2.91547 -2.7347,2.37244 -4.3854,3.33986 -7.7541,4.54541 -2.4425,0.87412 -6.9889,1.62082 -12.068,1.98129 -3.2603,0.23141 -10.5295,0.1033 -11.3754,-0.20028 -0.3611,-0.12955 -1.1181,-0.25719 -1.6825,-0.28411 -1.2325,-0.0588 -5.5995,-2.01564 -7.2379,-3.24309 -0.6444,-0.48272 -1.9292,-1.31752 -2.8548,-1.8554 -1.5029,-0.87339 -6.0905,-4.54698 -5.9027,-4.72661 0.041,-0.0392 0.9549,0.13161 2.0313,0.37911 1.0763,0.2475 3.0851,0.58998 4.4641,0.76144 1.379,0.17147 3.3973,0.45767 4.485,0.63577 1.0878,0.1781 3.5835,0.41702 5.546,0.53093 2.8675,0.16641 3.7576,0.31322 4.5332,0.74796 0.5307,0.29755 2.0839,0.80416 3.4518,1.12577 2.2897,0.53839 2.5793,0.55461 3.6498,0.20804 0.6395,-0.20707 1.883,-0.36233 2.7631,-0.34494 1.176,0.0229 2.4199,-0.23271 4.6914,-0.96464 2.4331,-0.78403 3.7307,-1.0379 6.0997,-1.1926 3.0003,-0.19594 9.5824,-1.18319 10.8481,-1.62721 0.1409,-0.0494 0.2436,-0.0804 0.3053,-0.0884 z"
       id="path1461-4"
       inkscape:connector-curvature="0"
       inkscape:label="Unterlippe" />
    <path
       style="fill:#a16a6a;fill-opacity:1;stroke-width:1"
       d="m -1158.3008,443.13104 -0.6734,0.53411 c -0.3704,0.29384 -1.0939,0.70119 -1.6078,0.90535 -0.514,0.20417 -1.1748,0.46909 -1.4685,0.58847 -1.3029,0.52943 -5.4153,1.00555 -9.7035,1.12308 -4.2225,0.11574 -4.9225,0.20635 -7.564,0.9805 -2.1618,0.63351 -3.5924,0.87837 -5.5594,0.9512 -1.4568,0.054 -3.1856,0.1444 -3.8419,0.20128 -0.7353,0.0636 -1.5958,-0.0615 -2.2423,-0.32642 -1.7871,-0.73226 -3.5111,-1.00995 -8.4388,-1.35909 -6.455,-0.45733 -12.5557,-1.2284 -14.7791,-1.86769 -1.6517,-0.47488 -1.759,-0.54414 -1.0437,-0.67581 0.4384,-0.0807 6.0949,-0.0646 12.5699,0.0358 10.8606,0.16844 11.8745,0.22216 13.0848,0.69533 1.5987,0.62495 2.8846,0.53795 7.4211,-0.50086 2.1876,-0.50091 4.5675,-0.81245 7.5643,-0.9903 3.8996,-0.23138 10.6305,-0.27586 12.0432,-0.0797 0.2902,0.0403 1.3627,0.008 2.3834,-0.0711 z"
       id="path1459-0"
       inkscape:connector-curvature="0"
       inkscape:label="Oberlippe" />
    <path
       id="path1453"
       style="fill:#000000;stroke-width:1"
       d="m -1150.3694,433.7256 c -0.1856,-0.0121 -0.3314,0.043 -0.4373,0.16507 -0.2476,0.28531 -0.1636,0.4653 0.4043,0.86227 1.3542,0.94663 3.0889,2.94707 3.6476,4.20715 0.7175,1.61781 0.7001,4.16821 -0.04,5.9418 -0.2882,0.69045 -0.6159,1.64038 -0.7287,2.11096 -0.1249,0.52132 -0.1011,0.85788 0.061,0.86145 0.4821,0.0106 1.8142,-1.77698 2.3366,-3.13519 1.0427,-2.71075 -0.059,-6.70999 -2.5081,-9.10388 -1.2646,-1.2361 -2.1785,-1.87401 -2.7352,-1.90963 z m -74.5723,3.223 c -0.032,0.002 -0.068,0.007 -0.1079,0.0193 -0.1802,0.0557 -1.0362,1.08899 -1.9026,2.29602 -1.4892,2.07482 -1.577,2.28075 -1.6081,3.7813 -0.053,2.57989 1.4121,5.26184 3.3668,6.16306 1.6791,0.77417 1.6688,0.44059 -0.073,-2.34413 -1.2135,-1.94013 -1.3413,-2.29678 -1.3962,-3.89191 -0.056,-1.6317 0.01,-1.86649 0.9258,-3.31355 0.9212,-1.45441 1.2786,-2.71976 0.7952,-2.71014 z m 70.7483,4.71648 c -0.1484,-0.0139 -0.3708,0.0111 -0.7022,0.0611 -4.5119,0.67857 -7.0708,0.81921 -10.665,0.58763 -6.2791,-0.40456 -12.3902,-0.0581 -16.9586,0.96133 -4.0616,0.90631 -5.5301,0.92033 -6.7758,0.0643 -0.697,-0.47895 -5.9554,-0.62987 -13.8594,-0.39809 -6.3956,0.18755 -13.332,0.0287 -14.7771,-0.33826 -1.277,-0.32416 -2.1489,-0.18073 -2.1607,0.35563 -0.01,0.37036 1.3193,1.2975 2.3748,1.65823 0.3408,0.11649 1.7291,1.27963 3.0852,2.58519 2.3696,2.28104 6.132,5.41552 6.5108,5.42386 0.1001,0.002 0.6363,0.38349 1.1919,0.84755 1.4946,1.24825 5.1342,3.09536 7.8226,3.97029 1.3007,0.42331 2.483,0.8124 2.6274,0.86471 0.5434,0.19661 2.9948,0.18801 5.0354,-0.0179 1.1632,-0.11739 4.4971,-0.21653 7.4083,-0.21996 6.9081,-0.008 8.2618,-0.20432 12.1344,-1.75962 2.778,-1.11568 4.7349,-2.46588 8.3763,-5.77745 1.4668,-1.334 2.7707,-2.42319 2.8977,-2.42039 0.1269,0.003 0.5698,-0.50225 0.984,-1.12273 0.9277,-1.38965 2.6777,-2.89593 3.5986,-3.09759 1.0058,-0.22028 2.1191,-1.14567 2.1329,-1.77251 0.01,-0.30205 -0.034,-0.43237 -0.2815,-0.45537 z m -4.1074,1.46596 -0.6734,0.53411 c -0.3704,0.29384 -1.0939,0.70119 -1.6078,0.90535 -0.514,0.20417 -1.1748,0.46909 -1.4685,0.58847 -1.3029,0.52943 -5.4153,1.00555 -9.7035,1.12308 -4.2225,0.11574 -4.9225,0.20635 -7.564,0.9805 -2.1618,0.63351 -3.5924,0.87837 -5.5594,0.9512 -1.4568,0.054 -3.1856,0.1444 -3.8419,0.20128 -0.7353,0.0636 -1.5958,-0.0615 -2.2423,-0.32642 -1.7871,-0.73226 -3.5111,-1.00995 -8.4388,-1.35909 -6.455,-0.45733 -12.5557,-1.2284 -14.7791,-1.86769 -1.6517,-0.47488 -1.759,-0.54414 -1.0437,-0.67581 0.4384,-0.0807 6.0949,-0.0646 12.5699,0.0358 10.8606,0.16844 11.8745,0.22216 13.0848,0.69533 1.5987,0.62495 2.8846,0.53795 7.4211,-0.50086 2.1876,-0.50091 4.5675,-0.81245 7.5643,-0.9903 3.8996,-0.23138 10.6305,-0.27586 12.0432,-0.0797 0.2902,0.0403 1.3627,0.008 2.3834,-0.0711 z m -3.3352,2.9902 c 0.1853,-0.0237 10e-4,0.16221 -0.6211,0.69601 -0.5402,0.46292 -2.0577,1.77506 -3.3723,2.91547 -2.7347,2.37244 -4.3854,3.33986 -7.7541,4.54541 -2.4425,0.87412 -6.9889,1.62082 -12.068,1.98129 -3.2603,0.23141 -10.5295,0.1033 -11.3754,-0.20028 -0.3611,-0.12955 -1.1181,-0.25719 -1.6825,-0.28411 -1.2325,-0.0588 -5.5995,-2.01564 -7.2379,-3.24309 -0.6444,-0.48272 -1.9292,-1.31752 -2.8548,-1.8554 -1.5029,-0.87339 -6.0905,-4.54698 -5.9027,-4.72661 0.041,-0.0392 0.9549,0.13161 2.0313,0.37911 1.0763,0.2475 3.0851,0.58998 4.4641,0.76144 1.379,0.17147 3.3973,0.45767 4.485,0.63577 1.0878,0.1781 3.5835,0.41702 5.546,0.53093 2.8675,0.16641 3.7576,0.31322 4.5332,0.74796 0.5307,0.29755 2.0839,0.80416 3.4518,1.12577 2.2897,0.53839 2.5793,0.55461 3.6498,0.20804 0.6395,-0.20707 1.883,-0.36233 2.7631,-0.34494 1.176,0.0229 2.4199,-0.23271 4.6914,-0.96464 2.4331,-0.78403 3.7307,-1.0379 6.0997,-1.1926 3.0003,-0.19594 9.5824,-1.18319 10.8481,-1.62721 0.1409,-0.0494 0.2436,-0.0804 0.3053,-0.0884 z"
       inkscape:connector-curvature="0"
       inkscape:label="Kontur_Mund" />
  </g>
</svg>
