<svg xmlns="http://www.w3.org/2000/svg" width="1274.286" height="1565.714">
  <path fill="none" d="M0 0h1274.286v1565.714H0z" paint-order="stroke fill markers"/>
  <path class="mouth" fill="#e9afaf" d="M584.654 645.125c-.454.005-.808.019-1.049.043-19.669 1.986-26.526 2.942-39.224 5.473-8.098 1.613-16.648 2.964-19 3l-4.276.062 3 1.33c6.884 3.052 13.366 3.49 48.5 3.268 29.56-.187 35.919.018 38 1.23 3.299 1.92 18.952 5.9 21.5 5.465 1.1-.187 4.475-.78 7.5-1.314 3.025-.535 7.75-1.254 10.5-1.598 2.75-.344 7.925-1.34 11.5-2.213 5.06-1.236 12.93-1.632 35.5-1.785 25.207-.171 30.273-.471 38.735-2.295 14.705-3.17 14.702-3.813-.028-4.518-7.137-.341-16.965-1.075-21.841-1.63-18.403-2.097-33.657-3.067-48.024-3.053-15.369.015-18.65.619-28.197 5.183-2.518 1.204-4.627 1.687-5 1.145-.355-.516-3.12-1.952-6.145-3.191-4.248-1.741-9.368-2.556-22.5-3.582-8.18-.64-16.268-1.056-19.45-1.02zM742.648 666.1l-3.015 3.488c-1.659 1.918-4.217 5.627-5.684 8.242-2.891 5.155-6.337 8.185-13.344 11.738-2.475 1.255-5.497 3.06-6.716 4.012-3.173 2.477-32.518 11.652-44.784 14.002-8.734 1.673-46.121 2.796-59.5 1.787-19.125-1.443-37.03-6.797-47-14.055-2.475-1.801-8.325-7.24-13-12.087-4.675-4.847-10.75-10.431-13.5-12.409l-5-3.593 2.842 3.73c1.564 2.052 5.389 7.339 8.5 11.75 3.112 4.411 7.356 10.42 9.432 13.352 3.564 5.034 7.458 8.833 14.828 14.472 1.917 1.467 9.08 4.163 17.803 6.7 12.775 3.715 19.287 5.108 31.595 6.753 3.261.436 15.369.011 36.5-1.28 7.425-.455 16.65-1.596 20.5-2.536 16.506-4.03 23.361-6.093 29.096-8.758 3.353-1.558 6.547-2.832 7.096-2.832 2.086 0 13.954-8.43 17.226-12.236 5.845-6.799 11.267-15.97 13.747-23.252l2.378-6.988z"/>
  <path fill="#fff" d="M645.605 705.505c23.08-2.916 30.835-4.22 37.858-6.364 4.203-1.283 11.48-3.494 16.172-4.913 7.626-2.306 20.328-8.943 27.265-14.247 2.518-1.925 14.147-19.297 13.41-20.033-.219-.22-2.155.381-4.302 1.334-3.482 1.546-7.235 1.7-34.81 1.425-28.406-.283-31.843-.13-42.5 1.888-6.376 1.208-13.29 2.823-15.363 3.588-2.074.766-4.96 1.393-6.414 1.393-3.083 0-17.755-2.533-27.816-4.802-6.984-1.575-21.036-1.913-57.64-1.387-8.053.115-15.478-.103-16.5-.486-1.023-.383 4.183 5.243 11.57 12.5 13.08 12.856 13.754 13.356 26 19.293 13.816 6.699 18.504 7.842 42.07 10.26 17.417 1.786 20.75 1.846 31 .55z"/>
  <path fill="#d35f5f" d="M639.605 663.682c3.025-.535 7.75-1.254 10.5-1.598 2.75-.343 7.925-1.34 11.5-2.213 5.059-1.236 12.929-1.632 35.5-1.785 25.206-.172 30.273-.472 38.735-2.296 14.705-3.17 14.701-3.813-.028-4.517-7.137-.342-16.966-1.075-21.842-1.63-18.403-2.097-33.656-3.067-48.023-3.053-15.369.015-18.65.619-28.197 5.183-2.518 1.204-4.627 1.687-5 1.145-.355-.515-3.12-1.951-6.145-3.19-4.249-1.742-9.368-2.557-22.5-3.584-9.35-.731-18.575-1.17-20.5-.976-19.67 1.986-26.525 2.943-39.224 5.474-8.097 1.613-16.647 2.963-19 2.998l-4.276.064 3 1.33c6.883 3.051 13.365 3.488 48.5 3.266 29.558-.187 35.918.02 38 1.232 3.298 1.92 18.951 5.898 21.5 5.464 1.1-.188 4.475-.779 7.5-1.314z" opacity=".4"/>
  <path d="M769.605 661.803c0-1.073 1.35-4.928 3-8.567 3.918-8.641 4.148-17.173.639-23.74-1.298-2.431-3.76-7.008-5.469-10.17-3.049-5.64-2.642-7.381 1.05-4.5 3.494 2.727 11.678 16.889 12.35 21.372 1.422 9.48-1.948 19.545-8.32 24.85-2.964 2.468-3.25 2.534-3.25.755zm-263.192 11.023c-2.666-3.107-8.588-13.647-9.734-17.327-1.315-4.22-1.193-5.131 1.992-14.85 1.714-5.232 3.66-8.779 6.586-12 2.283-2.515 4.43-4.3 4.772-3.968.34.333-1.18 5.908-3.38 12.388-2.2 6.481-4.09 13.184-4.198 14.895-.24 3.755 2.432 12.069 5.834 18.156 1.884 3.37 2.142 4.456 1.06 4.456-.786 0-2.106-.788-2.932-1.75zm133.192-9.144c3.025-.535 7.75-1.254 10.5-1.598 2.75-.343 7.925-1.34 11.5-2.213 5.059-1.236 12.929-1.632 35.5-1.786 25.206-.17 30.273-.471 38.735-2.295 14.705-3.17 14.701-3.813-.028-4.517-7.137-.342-16.966-1.075-21.842-1.63-18.403-2.097-33.656-3.067-48.023-3.053-15.369.015-18.65.618-28.197 5.183-2.518 1.204-4.627 1.687-5 1.145-.355-.515-3.12-1.951-6.145-3.19-4.249-1.742-9.368-2.557-22.5-3.584-9.35-.731-18.575-1.17-20.5-.976-19.67 1.986-26.525 2.943-39.224 5.474-8.097 1.613-16.647 2.963-19 2.998l-4.276.064 3 1.33c6.883 3.051 13.365 3.488 48.5 3.266 29.558-.187 35.918.02 38 1.231 3.298 1.92 18.951 5.9 21.5 5.465 1.1-.188 4.475-.78 7.5-1.314zm6 41.823c23.08-2.916 30.835-4.22 37.858-6.364 4.203-1.283 11.48-3.494 16.172-4.913 7.626-2.306 20.328-8.943 27.265-14.247 2.518-1.925 14.147-19.297 13.41-20.033-.219-.22-2.155.381-4.302 1.334-3.482 1.546-7.235 1.7-34.81 1.425-28.406-.283-31.843-.13-42.5 1.888-6.376 1.208-13.29 2.823-15.363 3.588-2.074.766-4.96 1.393-6.414 1.393-3.083 0-17.755-2.533-27.816-4.802-6.984-1.575-21.036-1.914-57.64-1.387-8.053.115-15.478-.103-16.5-.486-1.023-.383 4.183 5.243 11.57 12.5 13.08 12.856 13.754 13.356 26 19.293 13.816 6.699 18.504 7.842 42.07 10.26 17.417 1.786 20.75 1.845 31 .55zm7 17.196c7.425-.454 16.65-1.595 20.5-2.535 16.505-4.03 23.362-6.093 29.097-8.758 3.353-1.558 6.546-2.832 7.095-2.832 2.086 0 13.955-8.43 17.227-12.236 5.844-6.798 11.265-15.969 13.745-23.252l2.379-6.988-3.016 3.488c-1.659 1.918-4.216 5.627-5.683 8.242-2.891 5.155-6.337 8.186-13.344 11.739-2.475 1.255-5.498 3.06-6.717 4.012-3.172 2.476-32.518 11.65-44.783 14-8.735 1.674-46.122 2.797-59.5 1.787-19.126-1.443-37.03-6.796-47-14.054-2.475-1.801-8.325-7.241-13-12.088-4.675-4.847-10.75-10.43-13.5-12.407l-5-3.595 2.842 3.73c1.564 2.052 5.389 7.34 8.5 11.751a11795.98 11795.98 0 0 0 9.432 13.35c3.564 5.035 7.457 8.836 14.828 14.475 1.916 1.466 9.08 4.162 17.802 6.699 12.775 3.716 19.288 5.107 31.596 6.753 3.26.435 15.368.01 36.5-1.281zm-51.938 3.63c-12.615-2.696-23.234-4.168-34.75-10.323-3.606-2.017-8.073-5.655-10.536-8.58-2.352-2.794-6-7.123-8.108-9.621-2.108-2.499-6.73-8.86-10.272-14.137-15.251-22.724-16.486-24.086-26.817-29.574-2.59-1.375-2.977-2.98-1.158-4.799 1.323-1.322 2.02-1.335 5.592-.105 3.516 1.212 4.938 1.207 10.283-.03 3.412-.79 9.129-1.732 12.704-2.095 3.575-.362 12.125-2.048 19-3.746 11.976-2.957 13.38-3.086 33.5-3.073 22.342.013 24.874.392 39.642 5.93l6.643 2.49 4.823-3.058c2.652-1.683 6.413-3.501 8.357-4.041 7.426-2.063 38.5-1.015 59.535 2.007 14.398 2.07 33.193 4.006 38.846 4.003 3.215-.002 8.302-.717 11.303-1.59 6.16-1.79 8.35-1.389 8.35 1.53 0 2.152-2.687 3.816-9.764 6.044-4.779 1.505-8.898 6.696-11.8 14.873-5.476 15.422-11.3 24.94-20.71 33.839-2.954 2.794-7.364 6.091-9.798 7.328-2.435 1.236-5.49 3.077-6.788 4.091-3.121 2.438-29.07 10.882-33.44 10.882-1.885 0-5.75.44-8.591.98-2.841.538-11.115 1.197-18.387 1.463-7.271.266-19.071.706-26.221.978-9.646.367-16.234-.554-21.438-1.666z"/>
</svg>
