<?xml version="1.0" encoding="UTF-8" standalone="no"?>
<!-- Created with Inkscape (http://www.inkscape.org/) -->

<svg
   xmlns:dc="http://purl.org/dc/elements/1.1/"
   xmlns:cc="http://creativecommons.org/ns#"
   xmlns:rdf="http://www.w3.org/1999/02/22-rdf-syntax-ns#"
   xmlns:svg="http://www.w3.org/2000/svg"
   xmlns="http://www.w3.org/2000/svg"
   xmlns:sodipodi="http://sodipodi.sourceforge.net/DTD/sodipodi-0.dtd"
   xmlns:inkscape="http://www.inkscape.org/namespaces/inkscape"
   width="338.15475mm"
   height="415.26193mm"
   viewBox="0 0 338.15475 415.26193"
   version="1.1"
   id="svg8"
   inkscape:version="0.92.3 (2405546, 2018-03-11)"
   sodipodi:docname="Mouth04.svg">
  <defs
     id="defs2" />
  <sodipodi:namedview
     id="base"
     pagecolor="#ffffff"
     bordercolor="#666666"
     borderopacity="1.0"
     inkscape:pageopacity="0.0"
     inkscape:pageshadow="2"
     inkscape:zoom="1.4"
     inkscape:cx="567.53711"
     inkscape:cy="956.64686"
     inkscape:document-units="mm"
     inkscape:current-layer="layer1"
     showgrid="false"
     inkscape:window-width="1920"
     inkscape:window-height="1001"
     inkscape:window-x="-9"
     inkscape:window-y="-9"
     inkscape:window-maximized="1"
     inkscape:snap-global="true"
     showguides="true"
     fit-margin-top="0"
     fit-margin-left="0"
     fit-margin-right="0"
     fit-margin-bottom="0" />
  <metadata
     id="metadata5">
    <rdf:RDF>
      <cc:Work
         rdf:about="">
        <dc:format>image/svg+xml</dc:format>
        <dc:type
           rdf:resource="http://purl.org/dc/dcmitype/StillImage" />
        <dc:title />
      </cc:Work>
    </rdf:RDF>
  </metadata>
  <g
     inkscape:label="Ebene 1"
     inkscape:groupmode="layer"
     id="layer1"
     transform="translate(1355.1667,-269.28568)">
    <rect
       style="opacity:1;fill:none;fill-opacity:1;fill-rule:evenodd;stroke:none;stroke-width:0.99999988;stroke-linecap:round;stroke-linejoin:miter;stroke-miterlimit:4;stroke-dasharray:none;stroke-dashoffset:0;stroke-opacity:1;paint-order:stroke fill markers"
       id="rect1307"
       width="337.15475"
       height="414.26193"
       x="-1354.6667"
       y="269.78568"
       inkscape:label="Frame" />
    <path
       style="fill:#c88e8e;fill-opacity:1;stroke-width:1"
       d="m -1185.7241,451.19298 c 2.1857,-0.39743 5.5807,-0.87584 6.1206,-0.86251 0.3112,0.008 0.7927,0.0326 1.07,0.0554 1.0651,0.0875 5.4635,-0.48173 7.7252,-0.99983 2.2461,-0.5145 3.6,-0.7385 2.8188,-0.87964 -0.1927,-0.57789 -1.6881,-1.01428 -3.6117,-1.37931 -1.9237,-0.36502 -5.8061,0.0893 -6.2021,0.0856 -0.8514,-0.008 -2.9466,0.31848 -5.2738,0.82135 -1.5052,0.32525 -1.7948,0.33188 -2.8804,0.0659 -1.9534,-0.47872 -10.9674,-0.35291 -15.3974,0.2149 -2.2225,0.28486 -3.9805,0.4044 -4.8348,0.32873 -0.7384,-0.0654 -1.8517,0.48467 -2.4741,0.57567 l -1.1315,0.16536 1.6527,0.57449 c 0.7921,0.18603 2.435,-0.0497 3.6797,0.0651 6.6296,0.61174 7.8267,0.43169 9.995,0.4764 1.3013,0.0268 2.7523,0.13719 3.2246,0.24523 0.4804,0.10991 0.9367,0.11837 1.0359,0.0192 0.099,-0.0992 0.6272,-0.002 1.1987,0.22152 1.1342,0.44277 1.7663,0.4825 3.2846,0.20644 z"
       id="path2990"
       inkscape:connector-curvature="0"
       inkscape:label="Oberlippe"
       sodipodi:nodetypes="cccccccscccccccccccc" />
    <path
       style="fill:#e4bfbf;fill-opacity:1;stroke-width:1"
       d="m -1182.2266,454.15357 c 1.1316,-0.1425 3.122,-0.54256 4.4233,-0.88902 1.3013,-0.34645 4.5565,-0.33194 5.1923,-0.49855 1.1146,-0.29213 3.7358,-1.8168 3.9738,-2.20188 0.1591,-0.25738 -0.075,-0.239 -1.6713,0.13119 -0.7576,0.1757 -2.453,0.40274 -3.7675,0.50452 -1.3145,0.1018 -2.9918,0.27877 -3.7273,0.39329 -6.677,1.03958 -7.3941,1.10922 -9.9935,0.97025 -1.7183,-0.0919 -3.0032,-0.27626 -3.8035,-0.5459 -0.7223,-0.2433 -1.7704,-0.40917 -2.604,-0.4121 -0.7673,-0.002 -1.7655,-0.0965 -2.2182,-0.20837 -0.4526,-0.11191 -1.9473,-0.20199 -3.3216,-0.20017 -1.3676,-0.53254 -3.4533,-0.50211 -4.3486,-0.67343 -0.8888,-0.17008 -1.4282,0.0583 -1.4844,0.0582 -0.056,-2e-5 0.3473,0.31953 0.8967,0.71009 1.3233,0.94091 2.7173,1.1352 5.3681,1.81847 1.188,0.30625 3.3271,0.36768 3.61,0.50399 0.2828,0.13632 1.5789,0.41968 2.8802,0.6297 2.6321,0.42479 6.7865,0.38938 10.5955,-0.0903 z"
       id="path2988"
       inkscape:connector-curvature="0"
       inkscape:label="Unterlippe"
       sodipodi:nodetypes="cccccccccccccccccccc" />
    <path
       id="path2271"
       style="fill:#000000;stroke-width:1"
       d="m -1185.7241,451.1929 c 2.1857,-0.39743 5.5807,-0.87584 6.1206,-0.86251 0.3112,0.008 0.7927,0.0326 1.07,0.0554 1.0651,0.0875 5.4635,-0.48173 7.7252,-0.99983 2.2461,-0.5145 3.033,-0.97473 2.2518,-1.11587 -0.4526,-0.0818 -1.9243,-0.40008 -3.8479,-0.76511 -1.9237,-0.36502 -5.0029,-0.28868 -5.3989,-0.29234 -0.8514,-0.008 -2.9466,0.31848 -5.2738,0.82135 -1.5052,0.32525 -1.7948,0.33188 -2.8804,0.0659 -1.9534,-0.47872 -10.9674,-0.35291 -15.3974,0.2149 -2.2225,0.28486 -3.9805,0.4044 -4.8348,0.32873 -0.7384,-0.0654 -1.8517,0.48467 -2.4741,0.57567 -0.1403,0.32932 -0.7923,0.24503 0.3086,0.50361 0.7921,0.18603 3.5169,-0.0969 4.7616,0.0179 6.6296,0.61174 6.9574,0.71517 9.1257,0.75988 1.3013,0.0268 2.7523,0.13719 3.2246,0.24523 0.4804,0.10991 0.9367,0.11837 1.0359,0.0192 0.099,-0.0992 0.6272,-0.002 1.1987,0.22152 1.1342,0.44277 1.7663,0.4825 3.2846,0.20644 z m 3.4975,2.96059 c 1.1316,-0.1425 3.122,-0.54256 4.4233,-0.88902 1.3013,-0.34645 4.189,-0.66602 4.8248,-0.83263 1.1146,-0.29213 3.5741,-1.48272 3.8121,-1.8678 0.1591,-0.25738 0.4542,-0.239 -1.1421,0.13119 -0.7576,0.1757 -2.453,0.40274 -3.7675,0.50452 -1.3145,0.1018 -2.9918,0.27877 -3.7273,0.39329 -6.677,1.03958 -7.3941,1.10922 -9.9935,0.97025 -1.7183,-0.0919 -3.0032,-0.27626 -3.8035,-0.5459 -0.7223,-0.2433 -1.7704,-0.40917 -2.604,-0.4121 -0.7673,-0.002 -1.7655,-0.0965 -2.2182,-0.20837 -0.4526,-0.11191 -1.9473,-0.20199 -3.3216,-0.20017 -1.3843,0.002 -2.1611,-0.13461 -3.0564,-0.30593 -0.8888,-0.17008 -1.6621,-0.30925 -1.7183,-0.30927 -0.056,-2e-5 0.3473,0.31953 0.8967,0.71009 0.6674,0.47457 0.6367,0.044 1.4613,0.48826 0.8103,0.43658 2.4701,0.69089 3.7839,1.02953 1.188,0.30625 2.3917,0.66836 2.6746,0.80467 0.2828,0.13632 1.5789,0.41968 2.8802,0.6297 2.6321,0.42479 6.7865,0.38938 10.5955,-0.0903 z m -6.3025,1.85717 c -0.053,-0.0529 -1.3413,-0.23982 -2.8631,-0.41548 -2.2729,-0.26234 -6.4847,-1.1339 -6.9906,-1.44655 -0.068,-0.0424 -0.8591,-0.27303 -1.7568,-0.51255 -0.8976,-0.23953 -1.7754,-0.34859 -2.2846,-0.65071 -0.5092,-0.30211 -0.8489,-0.37887 -1.2858,-0.5789 -0.4367,-0.20003 -0.9292,-0.4176 -1.523,-0.96025 -0.9244,-0.84485 -2.4749,-0.56744 -4.482,-1.22195 -1.6707,-0.32644 -0.2482,-2.08711 0.8916,-2.26499 1.046,0.0522 3.1739,-0.41214 5.0128,-0.5705 2.0267,-0.28498 4.7033,-0.56572 5.948,-0.62387 1.2447,-0.0582 2.9908,-0.24159 3.8803,-0.40766 2.1688,-0.40494 3.526,-0.38055 6.0979,0.10953 2.6852,0.51165 4.0372,0.51795 5.9849,0.0279 2.0916,-0.52626 4.6028,-0.69586 6.3993,-0.43218 0.8266,0.12135 4.6919,0.48946 6.1064,0.70253 2.497,0.32876 2.0975,0.64361 3.3158,0.87983 0.6409,0.12428 1.2302,1.2818 1.2302,1.85529 -1.1367,0.44364 -1.107,-0.0691 -2.0444,0.4998 -1.2645,0.51261 -1.1786,1.78062 -2.1821,2.26109 -0.9619,0.46052 -1.3265,0.30713 -2.1922,0.7485 -1.5258,0.77786 -3.9447,1.10993 -7.6683,1.77361 -0.9053,0.16135 -1.8311,0.3847 -2.0574,0.49633 -0.9631,0.47507 -7.189,1.07907 -7.5369,0.73119 z"
       inkscape:connector-curvature="0"
       inkscape:label="Kontur_Mund"
       sodipodi:nodetypes="cccccccsccsccccccccccccccccccccccccscccccccccccccccccccccscccccccc" />
  </g>
</svg>
