<?xml version="1.0" encoding="UTF-8" standalone="no"?>
<!-- Created with Inkscape (http://www.inkscape.org/) -->

<svg
   xmlns:dc="http://purl.org/dc/elements/1.1/"
   xmlns:cc="http://creativecommons.org/ns#"
   xmlns:rdf="http://www.w3.org/1999/02/22-rdf-syntax-ns#"
   xmlns:svg="http://www.w3.org/2000/svg"
   xmlns="http://www.w3.org/2000/svg"
   xmlns:sodipodi="http://sodipodi.sourceforge.net/DTD/sodipodi-0.dtd"
   xmlns:inkscape="http://www.inkscape.org/namespaces/inkscape"
   version="1.1"
   id="svg2"
   width="1274.2856"
   height="1565.7144"
   viewBox="0 0 1274.2856 1565.7144"
   sodipodi:docname="Mouth03.svg"
   inkscape:version="0.92.3 (2405546, 2018-03-11)"
   inkscape:label="Ebene">
  <metadata
     id="metadata8">
    <rdf:RDF>
      <cc:Work
         rdf:about="">
        <dc:format>image/svg+xml</dc:format>
        <dc:type
           rdf:resource="http://purl.org/dc/dcmitype/StillImage" />
        <dc:title></dc:title>
      </cc:Work>
    </rdf:RDF>
  </metadata>
  <defs
     id="defs6" />
  <sodipodi:namedview
     pagecolor="#ffffff"
     bordercolor="#666666"
     borderopacity="1"
     objecttolerance="10"
     gridtolerance="10"
     guidetolerance="10"
     inkscape:pageopacity="0"
     inkscape:pageshadow="2"
     inkscape:window-width="1920"
     inkscape:window-height="1001"
     id="namedview4"
     showgrid="false"
     inkscape:zoom="0.13037281"
     inkscape:cx="226.2937"
     inkscape:cy="-624.87178"
     inkscape:window-x="-9"
     inkscape:window-y="-9"
     inkscape:window-maximized="1"
     inkscape:current-layer="svg2"
     fit-margin-top="0"
     fit-margin-left="0"
     fit-margin-right="0"
     fit-margin-bottom="0" />
  <rect
     style="display:inline;opacity:1;fill:none;fill-opacity:1;fill-rule:evenodd;stroke:none;stroke-width:3.77952719;stroke-linecap:round;stroke-linejoin:miter;stroke-miterlimit:4;stroke-dasharray:none;stroke-dashoffset:0;stroke-opacity:1;paint-order:stroke fill markers"
     id="rect1307"
     width="1274.2856"
     height="1565.7144"
     x="0"
     y="0"
     inkscape:label="Frame" />
  <path
     style="fill:#de8787"
     d="m 639.6049,657.68206 c 3.025,-0.53487 7.75,-1.25378 10.5,-1.59756 2.75,-0.34378 7.925,-1.33988 11.5,-2.21354 5.059,-1.23634 12.9289,-1.63215 35.5,-1.78544 25.2063,-0.17119 30.2735,-0.47145 38.735,-2.29521 14.7051,-3.16953 14.7011,-3.81293 -0.028,-4.51746 -7.1372,-0.34139 -16.966,-1.0752 -21.8419,-1.63068 -18.4027,-2.09654 -33.656,-3.06587 -48.0225,-3.05179 -15.3692,0.0151 -18.6502,0.61815 -28.1973,5.183 -2.5181,1.20401 -4.6267,1.68681 -5,1.1448 -0.355,-0.51551 -3.1204,-1.9515 -6.1454,-3.19108 -4.2485,-1.74096 -9.3682,-2.55628 -22.5,-3.58315 -9.35,-0.73115 -18.575,-1.17032 -20.5,-0.97594 -19.6692,1.98611 -26.5248,2.94281 -39.2234,5.47355 -8.0979,1.61385 -16.6479,2.96305 -19,2.99822 l -4.2766,0.064 3,1.33005 c 6.8832,3.05165 13.3652,3.48819 48.5,3.26627 29.5586,-0.1867 35.9184,0.0194 38,1.23141 3.2983,1.92047 18.9516,5.8987 21.5,5.46414 1.1,-0.18758 4.475,-0.77868 7.5,-1.31355 z"
     id="path916"
     inkscape:label="Oberlippe"
     inkscape:connector-curvature="0" />
  <path
     style="fill:#ffffff"
     d="m 645.6049,699.50473 c 23.0799,-2.91529 30.8354,-4.21891 37.8577,-6.36349 4.2032,-1.28367 11.4808,-3.4947 16.1723,-4.9134 7.6262,-2.30613 20.3278,-8.9432 27.2652,-14.24702 2.5181,-1.92519 14.1465,-19.29665 13.41,-20.03309 -0.219,-0.21898 -2.1547,0.38164 -4.3017,1.33471 -3.4827,1.54606 -7.2354,1.69965 -34.8096,1.42477 -28.4065,-0.28319 -31.8437,-0.13051 -42.5,1.88789 -6.3766,1.2078 -13.2905,2.82256 -15.3641,3.58836 -2.0737,0.76581 -4.9599,1.39237 -6.4138,1.39237 -3.0827,0 -17.7546,-2.5329 -27.816,-4.80205 -6.984,-1.5751 -21.0355,-1.91327 -57.6406,-1.38717 -8.0523,0.11573 -15.4773,-0.10281 -16.5,-0.48564 -1.0227,-0.38283 4.1838,5.2426 11.5699,12.50095 13.0811,12.85487 13.7552,13.35502 26,19.2918 13.8172,6.69916 18.5044,7.84223 42.0707,10.25982 17.4167,1.78673 20.7492,1.84598 31,0.55119 z"
     id="path914"
     inkscape:label="Mund"
     inkscape:connector-curvature="0" />
  <path
     style="fill:#e9afaf"
     d="m 652.6049,716.70055 c 7.425,-0.45396 16.65,-1.59445 20.5,-2.53441 16.5051,-4.02967 23.3616,-6.09341 29.0968,-8.75787 3.3533,-1.55784 6.546,-2.83244 7.095,-2.83244 2.0866,0 13.9551,-8.42972 17.2271,-12.23568 5.8445,-6.79838 11.2656,-15.96912 13.7449,-23.25203 l 2.3788,-6.98772 -3.0156,3.48772 c -1.6586,1.91824 -4.2157,5.62716 -5.6826,8.24204 -2.8915,5.15467 -6.3374,8.18592 -13.3444,11.73883 -2.475,1.25496 -5.4975,3.06034 -6.7166,4.01197 -3.1727,2.47643 -32.5181,11.65049 -44.7834,14.00032 -8.7347,1.67341 -46.1215,2.79632 -59.5,1.78707 -19.1259,-1.44282 -37.0299,-6.79654 -47,-14.05413 -2.475,-1.80163 -8.325,-7.24123 -13,-12.088 -4.675,-4.84676 -10.75,-10.43001 -13.5,-12.40722 l -5,-3.59492 2.8425,3.73043 c 1.5634,2.05174 5.3884,7.33953 8.5,11.75066 3.1116,4.41113 7.3558,10.41895 9.4314,13.35072 3.5645,5.03463 7.4576,8.83483 14.8278,14.47397 1.9167,1.46655 9.0804,4.16222 17.8028,6.69915 12.775,3.71563 19.2872,5.10743 31.5955,6.7526 3.2609,0.43586 15.3681,0.0109 36.5,-1.28106 z"
     id="path912"
     inkscape:label="Unterlippe"
     inkscape:connector-curvature="0" />
  <path
     id="path855"
     style="fill:#000000"
     d="m 769.6049,655.803 c 0,-1.07282 1.35,-4.92794 3,-8.56694 3.9182,-8.64145 4.1479,-17.17259 0.6391,-23.74079 -1.2985,-2.43071 -3.7596,-7.00698 -5.469,-10.16948 -3.0485,-5.63983 -2.6424,-7.38117 1.0493,-4.5 3.4949,2.72753 11.6789,16.8892 12.3513,21.37269 1.4214,9.47877 -1.9489,19.54405 -8.3207,24.84916 -2.9644,2.46814 -3.25,2.53452 -3.25,0.75536 z m -263.1917,11.02279 c -2.6663,-3.1072 -8.5878,-13.64694 -9.7343,-17.32632 -1.3154,-4.22127 -1.1933,-5.13191 1.9919,-14.8506 1.7147,-5.232 3.6611,-8.77842 6.5858,-12 2.2834,-2.51519 4.4308,-4.30067 4.772,-3.96773 0.3412,0.33294 -1.1797,5.90766 -3.3797,12.38826 -2.2,6.48061 -4.0891,13.1832 -4.1981,14.89466 -0.239,3.75536 2.4326,12.06899 5.8346,18.1557 1.8839,3.3707 2.1421,4.45603 1.06,4.45603 -0.7868,0 -2.1063,-0.7875 -2.9322,-1.75 z m 133.1917,-9.14377 c 3.025,-0.53487 7.75,-1.25378 10.5,-1.59756 2.75,-0.34378 7.925,-1.33988 11.5,-2.21354 5.059,-1.23634 12.9289,-1.63215 35.5,-1.78544 25.2063,-0.17119 30.2735,-0.47145 38.735,-2.29521 14.7051,-3.16953 14.7011,-3.81293 -0.028,-4.51746 -7.1372,-0.34139 -16.966,-1.0752 -21.8419,-1.63068 -18.4027,-2.09654 -33.656,-3.06587 -48.0225,-3.05179 -15.3692,0.0151 -18.6502,0.61815 -28.1973,5.183 -2.5181,1.20401 -4.6267,1.68681 -5,1.1448 -0.355,-0.51551 -3.1204,-1.9515 -6.1454,-3.19108 -4.2485,-1.74096 -9.3682,-2.55628 -22.5,-3.58315 -9.35,-0.73115 -18.575,-1.17032 -20.5,-0.97594 -19.6691,1.98611 -26.5248,2.94281 -39.2234,5.47355 -8.0979,1.61385 -16.6479,2.96305 -19,2.99822 l -4.2766,0.064 3,1.33005 c 6.8832,3.05165 13.3652,3.48819 48.5,3.26627 29.5586,-0.1867 35.9184,0.0194 38,1.23141 3.2983,1.92047 18.9516,5.8987 21.5,5.46414 1.1,-0.18758 4.475,-0.77868 7.5,-1.31355 z m 6,41.82267 c 23.0799,-2.91529 30.8354,-4.21891 37.8577,-6.36349 4.2033,-1.28367 11.4808,-3.4947 16.1723,-4.9134 7.6262,-2.30613 20.3278,-8.9432 27.2652,-14.24702 2.5181,-1.92519 14.1465,-19.29665 13.41,-20.03309 -0.2189,-0.21898 -2.1547,0.38164 -4.3017,1.33471 -3.4827,1.54606 -7.2353,1.69965 -34.8096,1.42477 -28.4065,-0.28319 -31.8437,-0.13051 -42.5,1.88789 -6.3766,1.2078 -13.2905,2.82256 -15.3641,3.58836 -2.0737,0.76581 -4.9598,1.39237 -6.4138,1.39237 -3.0827,0 -17.7546,-2.5329 -27.816,-4.80205 -6.984,-1.5751 -21.0355,-1.91327 -57.6406,-1.38717 -8.0523,0.11573 -15.4773,-0.10281 -16.5,-0.48564 -1.0227,-0.38283 4.1838,5.2426 11.5699,12.50095 13.0811,12.85487 13.7552,13.35502 26,19.2918 13.8172,6.69916 18.5044,7.84223 42.0707,10.25982 17.4167,1.78673 20.7493,1.84598 31,0.55119 z m 7,17.19582 c 7.425,-0.45396 16.65,-1.59445 20.5,-2.53441 16.5051,-4.02967 23.3616,-6.09341 29.0968,-8.75787 3.3533,-1.55784 6.546,-2.83244 7.095,-2.83244 2.0866,0 13.9552,-8.42972 17.2271,-12.23568 5.8445,-6.79838 11.2656,-15.96912 13.7449,-23.25203 l 2.3788,-6.98772 -3.0156,3.48772 c -1.6586,1.91824 -4.2157,5.62716 -5.6826,8.24204 -2.8915,5.15467 -6.3374,8.18592 -13.3444,11.73883 -2.475,1.25496 -5.4975,3.06034 -6.7166,4.01197 -3.1726,2.47643 -32.5181,11.65049 -44.7834,14.00032 -8.7347,1.67341 -46.1215,2.79632 -59.5,1.78707 -19.1259,-1.44282 -37.0299,-6.79654 -47,-14.05413 -2.475,-1.80163 -8.325,-7.24123 -13,-12.088 -4.675,-4.84676 -10.75,-10.43001 -13.5,-12.40722 l -5,-3.59492 2.8425,3.73043 c 1.5634,2.05174 5.3884,7.33953 8.5,11.75066 3.1116,4.41113 7.3558,10.41895 9.4315,13.35072 3.5644,5.03463 7.4575,8.83483 14.8277,14.47397 1.9167,1.46655 9.0804,4.16222 17.8028,6.69915 12.775,3.71563 19.2872,5.10743 31.5955,6.7526 3.2609,0.43586 15.3681,0.0109 36.5,-1.28106 z m -50.5,4.23003 c -3.85,-0.8584 -7.2872,-2.02203 -7.6382,-2.58585 -0.351,-0.56382 -1.1351,-0.71805 -1.7423,-0.34273 -1.8798,1.16178 -20.2084,-4.30376 -26.8065,-7.99363 -3.6069,-2.01711 -8.0743,-5.65493 -10.5373,-8.58061 -2.3516,-2.79342 -6.0002,-7.12297 -8.1079,-9.62122 -2.1077,-2.49826 -6.7298,-8.85968 -10.2714,-14.1365 -15.2515,-22.72397 -16.4868,-24.08626 -26.8174,-29.57378 -2.5894,-1.37546 -2.9765,-2.98012 -1.1575,-4.79906 1.3222,-1.32218 2.0201,-1.33529 5.5911,-0.105 3.516,1.21138 4.9381,1.20722 10.2838,-0.0301 3.412,-0.78972 9.1286,-1.73248 12.7036,-2.09502 3.575,-0.36254 12.125,-2.04816 19,-3.74583 11.9764,-2.95739 13.3796,-3.08613 33.5,-3.07371 22.3424,0.0138 24.8736,0.39243 39.6423,5.93019 l 6.6423,2.49064 4.8232,-3.05877 c 2.6527,-1.68232 6.4137,-3.50063 8.3577,-4.0407 7.4251,-2.06277 38.4996,-1.01489 59.5345,2.00758 14.3982,2.06885 33.193,4.00531 38.8461,4.00238 3.2153,-0.002 8.3019,-0.71696 11.3034,-1.58953 6.1595,-1.79061 8.3505,-1.38931 8.3505,1.52943 0,2.15242 -2.6883,3.81644 -9.7651,6.04438 -4.7786,1.50442 -8.8981,6.69634 -11.8007,14.87268 -5.4749,15.42212 -11.2994,24.93935 -20.7092,33.83874 -2.9544,2.79422 -7.3637,6.09194 -9.7984,7.32828 -2.4346,1.23633 -5.4889,3.07744 -6.7872,4.09136 -3.1217,2.43783 -29.0707,10.88163 -33.4408,10.88163 -1.8841,0 -5.75,0.44081 -8.5909,0.97957 -2.8408,0.53876 -11.1148,1.1973 -18.3864,1.46343 -7.2717,0.26612 -19.0713,0.7063 -26.2213,0.97817 -9.6458,0.36676 -14.8061,0.0916 -20,-1.06642 z"
     inkscape:label="Kontur_Mund"
     inkscape:connector-curvature="0" />
</svg>
