<svg xmlns="http://www.w3.org/2000/svg" width="1278.714" height="1568.173" viewBox="0 0 338.326 414.913">
  <path fill="none" d="M1.172 0h337.155v414.262H1.172z" paint-order="stroke fill markers"/>
  <path class="glasses_frame" fill="black" d="M128.272 151.148c-4.044-.843-6.609-2.81-8.52-6.277-1.888-3.425-3.195-6.961-4.244-10.874-.734-2.736-1.282-7.256-2.402-7.983-.697-.207-2.172.342-3.444.945-2.033.963-2.316.337-2.573-1.276-.083-.521 1.03-.978 1.938-1.046 4.315-.325-1.149-3.751 3.176-4.723 3.187-.715 5.732-3.794 8.95-3.923 10.63-.426 20.886-1.317 30.95-1.134 14.847 1.252 31.325-.775 44.003-.547 5.937.135 12.005.288 18.237 1.243 3.15.483 6.065.813 8.981 1.438 2.108.451 4.546-.546 3.582 3.077-1.343.378-1.043 1.645.385 3.757.94 1.39 1.19 2.108 2.192 3.127 1.699 1.728-.102 2.51-.586 2.504-.547-.007-1.345-1.162-1.8-1.77-1.223-1.637-.839-1.825-1.594-2.67-3.161.084-1.863 4.48-2.856 7.404-1.19 3.506-1.518 7.509-3.533 10.743-2.281 3.663-5.815 5.536-9.788 6.883-3.9 1.32-7.782 1.222-11.811 1.596-3.587.334-8.727.532-11.93-1.303-3.045-1.744-5.128-3.438-6.56-6.928-2.284-5.57-3.991-10.486-4.334-15.172-.18-2.451-.053-2.438-.437-2.9-.825-.995-1.535.024-5.047-.019-1.756-.021-3.431-.688-4.227.003-.353.698-.515 2.11-.7 3.927-.476 4.684-1.808 9.24-3.446 13.67-1.204 3.256-4.118 6.104-6.669 7.021-2.152.774-3.61 1.282-6.075 1.599-6.89.885-13.877.848-19.818-.392zm20.142-1.548c4.166-.706 8.097-2.353 10.364-6.439 2.199-3.961 2.6-8.44 3.221-12.572.545-3.628.07-4.885-.563-7.069-.448-1.542-1.392-4.033-2.489-4.914-3.076-2.474-6.894-1.843-10.507-1.844-9.508 0-15.293.79-22.682 1.013-4.209.127-5.66.881-8.175 3.503-2.816 2.937-1.314 6.845-.372 10.962 1.209 5.28 2.784 12.202 7.48 15.527 7.465 4.315 16.144 3.053 23.723 1.833zm54.623-.412c3.99-.518 7.707-.898 10.856-3.222 2.11-1.558 3.795-3.54 4.449-6.278 1.005-4.214 2.894-8.542 2.261-12.97-.551-3.858-1.653-7.363-5.79-8.35-7.456-1.034-14.328-.887-21.353-1.303-3.488-.23-6.929-.674-10.365.487-4.173 1.41-5.648 5.412-5.933 9.478-.295 4.223.806 8.635 2.145 12.39 1.206 3.38 1.838 3.824 3.379 6.223 1.679 2.614 4.621 3.824 7.583 4.26 4.205.033 9.05-.236 12.768-.715zm-29.398-31.926c-3.795.418-9.967-.132-11.366.278-1.144.335.82 4.03 1.888 5.2 1.064 1.166 10.238 1.413 10.827-.21 2.695-5.346 4.18-5.748-1.349-5.268z"/>
  <path class="glasses" fill="#fff" d="M203.037 149.188c3.99-.518 7.707-.898 10.856-3.222 2.11-1.558 3.795-3.54 4.449-6.278 1.005-4.214 2.894-8.542 2.261-12.97-.551-3.858-1.653-7.363-5.79-8.35-7.456-1.034-14.328-.887-21.353-1.303-3.488-.23-6.929-.674-10.365.487-4.173 1.41-5.648 5.412-5.933 9.478-.295 4.223.806 8.635 2.145 12.39 1.206 3.38 1.838 3.824 3.379 6.223 1.679 2.614 4.621 3.824 7.583 4.26 4.205.033 9.05-.236 12.768-.715zm-54.623.412c4.166-.706 8.097-2.353 10.364-6.439 2.199-3.961 2.6-8.44 3.221-12.572.545-3.628.07-4.885-.563-7.069-.448-1.542-1.392-4.033-2.489-4.914-3.076-2.474-6.894-1.843-10.507-1.844-9.508 0-15.293.79-22.682 1.013-4.209.127-5.66.881-8.175 3.503-2.816 2.937-1.314 6.845-.372 10.962 1.209 5.28 2.784 12.202 7.48 15.527 7.465 4.315 16.144 3.053 23.723 1.833z" opacity=".1"/>
</svg>
