<svg xmlns="http://www.w3.org/2000/svg" width="1278.065" height="1569.494" viewBox="0 0 338.155 415.262">
  <path fill="none" d="M0 1h337.155v414.262H0z" paint-order="stroke fill markers"/>
  <path class="glasses_frame" fill="black" fill-rule="evenodd" d="M206.07 119.154c-5.358.03-10.722.403-16.053.93-4.72.465-12.908.374-14.055 2.233a1.797 1.797 0 0 0-.066.12c-.865.424-2.283 1.083-3.248 1.314-3.04.726-6.285.662-9.376.195-.929-.14-2.288-.545-3.28-.86a1.969 1.969 0 0 0-.162-.343c-1.132-1.869-9.32-1.843-14.037-2.347-7.102-.758-14.264-1.245-21.402-1.008-5.83.194-12.059-.005-17.623 1.745-.332.09-.617.259-.85.5l-.019-.002c-.595-.11-1.468-.133-2.022.11-.42.183-.638.403-.677.86-.131 1.554-.24 3.54.032 5.151.057.339.178.653.516.71.934.154 1.46.25 2.13.105.648 5.035 1.114 10.138 2.774 14.9.508 1.457 1.01 3.128 2.25 4.048 4.104 3.048 9.908 2.673 14.986 3.26 6.097.703 12.31.964 18.41.288 2.403-.266 5.09-.287 7.052-1.698 1.553-1.116 2.24-3.125 3.05-4.857 2.082-4.46 3.562-8.817 4.605-13.628.147-.677.343-1.461.535-2.275 1.112-.509 2.09-1.19 5.475-1.134 0 0 4.915-.216 7.337.123 1.275.179 3.515.905 3.958 1.05.15.647.297 1.27.412 1.817 1.004 4.82 2.449 9.187 4.495 13.664.795 1.739 1.468 3.753 3.01 4.88 1.953 1.428 4.638 1.47 7.04 1.756 6.094.725 12.308.514 18.41-.141 5.084-.546 10.884-.124 15.013-3.14 1.246-.91 1.762-2.576 2.282-4.03 1.671-4.675 2.189-9.837 2.862-14.854.604.102 1.117.007 1.982-.137.339-.056.46-.37.516-.709.272-1.612.164-3.597.032-5.151-.039-.458-.257-.677-.677-.86-.49-.216-1.222-.217-1.799-.14a2 2 0 0 0-.855-.468c-5.55-1.795-11.778-1.644-17.606-1.885-1.784-.073-3.57-.101-5.356-.092zm1.065 1.78c1.248.005 2.495.03 3.74.078 5.428.212 10.269.624 15.435 2.251 1.077.292 1.358 1.197 1.3 3.15-.17 5.683-.306 11.214-2.29 16.619-.485 1.324-.967 2.841-2.13 3.672-3.848 2.75-9.25 2.374-13.985 2.878-5.683.604-11.471.804-17.146.153-2.236-.257-4.737-.293-6.553-1.59-1.436-1.025-2.059-2.858-2.797-4.44-1.9-4.074-3.24-8.049-4.169-12.435-.489-2.307.344-5.657 1.266-7.116 1.07-1.694 6.733-1.921 11.13-2.352 5.379-.526 10.794-.89 16.2-.868zm-78.466.175c5.406.023 10.817.43 16.191.999 4.394.465 10.054.738 11.111 2.441.91 1.466 1.716 4.822 1.209 7.125-.965 4.379-2.336 8.344-4.269 12.402-.75 1.576-1.389 3.404-2.832 4.418-1.827 1.282-4.328 1.297-6.566 1.536-5.68.606-11.466.36-17.144-.29-4.73-.542-10.135-.208-13.962-2.99-1.155-.84-1.625-2.361-2.1-3.69-1.94-5.42-2.032-10.951-2.156-16.636-.043-1.953.245-2.856 1.324-3.139 5.18-1.586 10.024-1.959 15.453-2.127 1.246-.038 2.494-.054 3.741-.049z" paint-order="fill markers stroke"/>
  <path class="glasses" fill="#fff" fill-rule="evenodd" d="M128.67 121.11c5.405.022 10.816.428 16.19.998 4.394.465 10.054.738 11.111 2.441.91 1.466 1.716 4.822 1.209 7.125-.965 4.379-2.336 8.344-4.269 12.402-.75 1.576-1.389 3.404-2.832 4.418-1.827 1.282-4.328 1.297-6.566 1.536-5.68.606-11.466.36-17.144-.29-4.73-.542-10.135-.208-13.962-2.99-1.155-.84-1.625-2.361-2.1-3.69-1.94-5.42-2.032-10.951-2.156-16.636-.043-1.953.245-2.856 1.324-3.139 5.18-1.586 10.024-1.959 15.453-2.127 1.246-.038 2.494-.054 3.741-.049zm78.465-.176c1.248.005 2.495.03 3.74.078 5.428.212 10.269.624 15.435 2.251 1.077.292 1.358 1.197 1.3 3.15-.17 5.683-.306 11.214-2.29 16.619-.485 1.324-.967 2.841-2.13 3.672-3.848 2.75-9.25 2.374-13.985 2.878-5.683.604-11.471.804-17.146.153-2.236-.257-4.737-.293-6.553-1.59-1.436-1.025-2.059-2.858-2.797-4.44-1.9-4.074-3.24-8.049-4.169-12.435-.489-2.307.344-5.657 1.266-7.116 1.07-1.694 6.733-1.921 11.13-2.352 5.379-.526 10.794-.89 16.2-.868z" opacity=".1" paint-order="fill markers stroke"/>
</svg>
