<svg xmlns="http://www.w3.org/2000/svg" width="1278.065" height="1569.494" viewBox="0 0 338.155 415.262">
  <path fill="none" d="M0 1h337.155v414.262H0z" paint-order="stroke fill markers"/>
  <path class="glasses_frame" fill="black" fill-rule="evenodd" d="M202.328 110.418c-1.435.081-2.874.078-4.3.215-3.312.316-6.735.598-9.801 1.89-2.637 1.113-5.1 2.806-7.05 4.901-.641.69-1.042 1.068-1.484 1.907-.821.022-2.005.38-2.85.228-3.495-.187-4.772-1.164-8.024-1.252-5.666.485-7.319 1.804-11.5 1.408a8.645 8.645 0 0 0-.991-1.325c-1.95-2.095-4.413-3.788-7.05-4.9-3.066-1.293-6.489-1.575-9.8-1.891-2.853-.273-5.748-.301-8.598 0-2.593.273-5.196.753-7.652 1.633-2.521.904-5.033 2.036-7.135 3.697-1.515 1.196-1.99 3.668-3.783 4.384-1.898.76-4.086.149-6.104.475-.557.09-1.076.377-1.548.687-.423.279-.938.557-1.117 1.032-.193.512-.194 1.226.172 1.634.724.807 2.125.437 3.18.687 1.671.397 3.292-.06 4.987.214.425.069 1.014-.245 1.29.086.733.876.363 2.91.687 5.932.325 3.022-.222 8.375 1.204 12.208.954 2.563 2.644 4.935 4.729 6.706 3.253 2.763 7.337 4.74 11.52 5.588 4.36.884 9.08.64 13.325-.688 3.636-1.137 7.31-3.064 9.716-6.018 1.692-2.078 3.444-6.523 3.444-6.523 1.777-1.256 2.636-6.41 2.869-8.67.126-1.224-.56-1.322-.315-2.549.399-1.997.624-4.015.277-5.986-.2-1.136-.995-2.083-1.547-3.095a25 25 0 0 1-.294-.558c.55.167 1.18.173 1.749.258 3.444.348 5.11-1.1 8.42-.973 2.593.35 7.284.999 9.45.346-.552.998-1.328 1.934-1.525 3.056-.347 1.971-.122 3.989.278 5.986.245 1.227-.441 1.325-.315 2.548.232 2.261 1.09 7.415 2.868 8.671 0 0 1.752 4.445 3.445 6.523 2.405 2.954 6.079 4.881 9.714 6.018 4.246 1.328 8.967 1.572 13.326.688 4.183-.848 8.268-2.825 11.52-5.588 2.085-1.77 3.775-4.143 4.729-6.706 1.426-3.833 1.093-9.136 1.392-12.16.3-3.026.034-5.449.5-5.98.283-.325.863-.018 1.289-.086 1.695-.273 3.316.183 4.986-.214 1.056-.25 2.457.12 3.181-.687.366-.408.365-1.122.172-1.634-.179-.475-.694-.753-1.118-1.031-.471-.31-.99-.598-1.547-.688-2.018-.326-4.206.284-6.104-.475-1.793-.716-2.268-3.188-3.783-4.384-2.102-1.66-4.614-2.793-7.136-3.697-2.455-.88-5.057-1.36-7.65-1.633-1.426-.15-1.943-.349-4.298-.215zm.984 2.251c.848-.002 1.696.032 2.54.113 3.01.288 5.998 1.11 8.769 2.321 1.617.707 3.102 1.722 4.47 2.837.959.78 1.607 1.9 2.579 2.665.444.35.382.647.7 1.114.537 1.492.486 3.072.544 4.429.11 2.561.013 4.726-.126 7.181-.128 2.243-.273 4.498-.688 6.706-.319 1.695-.548 3.474-1.376 4.986-.926 1.691-2.396 3.055-3.869 4.299-1.84 1.554-3.873 2.96-6.104 3.869-3.201 1.304-6.688 2.122-10.144 2.15-2.687.02-5.372-.667-7.91-1.548-2.07-.72-4.075-1.718-5.846-3.01-1.473-1.074-2.862-2.347-3.868-3.868-.887-1.34-1.531-2.887-1.806-4.47-.123-.707.145-1.435.086-2.15-.22-2.683-1.301-5.238-1.634-7.91-.24-1.935-.67-3.94-.258-5.846.388-1.791 1.467-3.382 2.493-4.9 1.366-2.019 2.763-4.188 4.815-5.502 2.642-1.692 5.94-2.112 9.027-2.665 2.503-.45 5.06-.793 7.605-.801zm-69.12.965c2.547.008 5.104.353 7.607.801 3.088.554 6.385.974 9.027 2.665 2.052 1.315 3.449 3.484 4.814 5.503 1.027 1.518 2.105 3.109 2.493 4.9.413 1.907-.017 3.91-.258 5.846-.333 2.672-1.413 5.227-1.633 7.91-.06.715.208 1.443.086 2.15-.275 1.583-.918 3.13-1.805 4.47-1.007 1.52-2.396 2.793-3.869 3.868-1.77 1.292-3.776 2.29-5.846 3.01-2.538.88-5.223 1.568-7.91 1.547-3.456-.027-6.943-.846-10.144-2.15-2.231-.908-4.264-2.314-6.105-3.868-1.472-1.244-2.942-2.608-3.868-4.299-.828-1.512-1.057-3.292-1.376-4.986-.415-2.208-.586-4.461-.687-6.706-.112-2.462 0-4.581-.127-7.394-.022-.497-.261-1.054.29-2.814.371-1.252.118-1.982.954-2.516.972-.765 1.621-1.884 2.58-2.665 1.368-1.115 2.853-2.13 4.47-2.837 2.77-1.211 5.76-2.033 8.77-2.321.843-.08 1.69-.116 2.538-.114z" paint-order="fill markers stroke"/>
  <path class="glasses" fill="#fff" fill-rule="evenodd" d="M134.193 113.634c2.546.008 5.103.353 7.605.801 3.089.554 6.386.974 9.028 2.665 2.052 1.315 3.449 3.484 4.814 5.503 1.027 1.518 2.105 3.109 2.493 4.9.413 1.907-.017 3.91-.258 5.846-.333 2.672-1.413 5.227-1.633 7.91-.06.715.208 1.443.086 2.15-.275 1.583-.918 3.13-1.805 4.47-1.007 1.52-2.396 2.793-3.869 3.868-1.77 1.292-3.776 2.29-5.846 3.01-2.538.88-5.223 1.568-7.91 1.547-3.456-.027-6.943-.846-10.144-2.15-2.231-.908-4.264-2.314-6.105-3.868-1.472-1.244-2.942-2.608-3.868-4.299-.828-1.512-1.057-3.292-1.376-4.986-.415-2.208-.586-4.461-.687-6.706-.112-2.462 0-4.581-.127-7.394-.022-.497-.261-1.054.29-2.814.371-1.252.118-1.982.954-2.516.972-.765 1.621-1.884 2.58-2.665 1.368-1.115 2.853-2.13 4.47-2.837 2.77-1.211 5.76-2.033 8.77-2.321.843-.08 1.69-.116 2.538-.114zm69.119-.965c.848-.002 1.696.032 2.54.113 3.01.288 5.998 1.11 8.769 2.321 1.617.707 3.102 1.722 4.47 2.837.959.78 1.607 1.9 2.579 2.665.444.35.382.647.7 1.114.537 1.492.486 3.072.544 4.429.11 2.561.013 4.726-.126 7.181-.128 2.243-.273 4.498-.688 6.706-.319 1.695-.548 3.474-1.376 4.986-.926 1.691-2.396 3.055-3.869 4.299-1.84 1.554-3.873 2.96-6.104 3.869-3.201 1.304-6.688 2.122-10.144 2.15-2.687.02-5.372-.667-7.91-1.548-2.07-.72-4.075-1.718-5.846-3.01-1.473-1.074-2.862-2.347-3.868-3.868-.887-1.34-1.531-2.887-1.806-4.47-.123-.707.145-1.435.086-2.15-.22-2.683-1.301-5.238-1.634-7.91-.24-1.935-.67-3.94-.258-5.846.388-1.791 1.467-3.382 2.493-4.9 1.366-2.019 2.763-4.188 4.815-5.502 2.642-1.692 5.94-2.112 9.027-2.665 2.503-.45 5.06-.793 7.605-.801z" opacity=".1" paint-order="fill markers stroke"/>
</svg>
