<svg xmlns="http://www.w3.org/2000/svg" width="1278.065" height="1569.494">
  <path fill="none" d="M4 3.78h1274.286v1565.714H4z" paint-order="fill markers stroke"/>
  <path class="glasses_frame" fill="black" fill-rule="evenodd" d="M425.061 474.706c5.989-6.336 14.816-9.58 23.126-12.217 19.43-6.169 40.265-7.756 60.65-7.854 20.801-.1 39.578 1.72 59.538 7.574 10.236 3.003 22.573 9.416 30.162 16.913 4.628 4.571 8.563 7.958 9.786 14.347 1.92 10.036-.248 20.604-2.618 30.543-2.801 11.744-6.87 23.527-13.527 33.598-4.197 6.35-9.893 11.805-16.144 16.145-6.042 4.194-13.027 7.05-20.072 9.163-12.69 3.804-26.052 5.236-39.27 6.108-12.92.853-26.026 1.026-38.834-.872-9.111-1.35-19.027-2.2-26.617-7.418-8.653-5.95-14.146-15.875-18.762-25.307-7.369-15.056-11.75-31.766-13.527-48.434-.772-7.244-.457-14.749 1.31-21.817.93-3.725 2.161-7.681 4.799-10.472zm428.562 2.527c-5.989-6.336-14.816-9.58-23.125-12.217-19.43-6.169-40.266-7.756-60.651-7.854-20.8-.1-42 1.563-61.96 7.417-10.237 3.003-21.209 6.466-28.798 13.963-4.628 4.571-7.505 11.065-8.727 17.454-1.92 10.036.247 20.603 2.618 30.543 2.8 11.744 6.87 23.527 13.526 33.598 4.197 6.349 9.893 11.804 16.145 16.145 6.041 4.194 13.026 7.05 20.071 9.163 12.69 3.804 26.052 5.236 39.27 6.108 12.92.853 26.027 1.026 38.835-.872 9.11-1.35 19.027-2.2 26.616-7.418 8.654-5.95 14.146-15.875 18.763-25.308 7.368-15.055 11.75-31.765 13.526-48.433.773-7.244.457-14.749-1.309-21.817-.93-3.725-2.162-7.681-4.8-10.472zm29.235-9.6c-13.91-11.523-34.947-9.445-52.797-12.217-19.61-3.045-39.496-4.805-59.342-4.8-19.7.006-39.702.402-58.905 4.8-11.4 2.611-21.899 8.23-32.725 12.654-8.504 3.475-16.392 8.697-25.308 10.908-8.922 2.213-18.415 3.648-27.49 2.182-7.013-1.133-13.172-5.338-19.634-8.29-9.585-4.379-18.478-10.31-28.362-13.963-12.11-4.475-24.74-7.807-37.525-9.6-10.23-1.434-20.65-1-30.98-.872-16.457.205-32.942.855-49.306 2.618-13.48 1.452-26.865 3.808-40.143 6.545-2.937.605-6.172.612-8.727 2.182-2.46 1.51-4.148 4.093-5.672 6.545-1.584 2.546-2.824 5.367-3.491 8.29-1.943 8.519-3.407 17.698-1.309 26.18 1.096 4.431 4.878 7.73 6.981 11.781 8.82 16.986 13.337 36.182 23.563 52.36 4.08 6.455 9.077 12.44 14.835 17.454 2.86 2.491 6.119 4.602 9.6 6.109 5.924 2.565 12.377 3.848 18.762 4.8 12.672 1.888 25.597 2.287 38.398 1.745 15.68-.664 31.413-2.5 46.688-6.109 7.341-1.734 15.285-4.675 21.252-9.29 7.052-5.455 11.979-10.4 16.837-17.875 5.628-8.661 9.656-19.675 14.707-28.686 4.994-8.908 5.277-21.47 13.527-27.49 3.207-2.339 7.811-1.7 11.781-1.744 3.518-.04 7.128.216 10.472 1.309 2.847.93 5.914 2.081 7.854 4.363 7.51 8.833 7.162 22.092 11.781 32.725 4.95 11.396 8.705 23.928 17.017 33.162 3.023 3.358 7.278 5.45 11.345 7.418 10.352 5.005 21.514 8.355 32.725 10.908 10.15 2.311 20.6 3.152 30.98 3.927 12.622.943 25.364 2.098 37.962.873 8.746-.85 17.585-2.409 25.744-5.673 5.998-2.4 11.958-5.522 16.58-10.035 5.803-5.666 9.571-13.202 13.09-20.508 5.07-10.526 6.468-22.546 11.345-33.162 2.395-5.213 4.335-11.144 8.727-14.835 2.854-2.399 8.118-1.037 10.472-3.927 2.975-3.653 1.646-9.283 2.182-13.963.68-5.94 2.325-11.998 1.309-17.89-.675-3.915-1.74-8.374-4.8-10.908z" paint-order="fill markers stroke"/>
  <path class="glasses" fill="#fff" fill-rule="evenodd" d="M425.061 474.706c5.989-6.336 14.816-9.58 23.126-12.217 19.43-6.169 40.265-7.756 60.65-7.854 20.801-.1 39.578 1.72 59.538 7.574 10.236 3.003 22.573 9.416 30.162 16.913 4.628 4.571 8.563 7.958 9.786 14.347 1.92 10.036-.248 20.604-2.618 30.543-2.801 11.744-6.87 23.527-13.527 33.598-4.197 6.35-9.893 11.805-16.144 16.145-6.042 4.194-13.027 7.05-20.072 9.163-12.69 3.804-26.052 5.236-39.27 6.108-12.92.853-26.026 1.026-38.834-.872-9.111-1.35-19.027-2.2-26.617-7.418-8.653-5.95-14.146-15.875-18.762-25.307-7.369-15.056-11.75-31.766-13.527-48.434-.772-7.244-.457-14.749 1.31-21.817.93-3.725 2.161-7.681 4.799-10.472zM853.623 477.233c-5.989-6.336-14.816-9.58-23.125-12.217-19.43-6.169-40.266-7.756-60.651-7.854-20.8-.1-42 1.563-61.96 7.417-10.237 3.003-21.209 6.466-28.798 13.963-4.628 4.571-7.505 11.065-8.727 17.454-1.92 10.036.247 20.603 2.618 30.543 2.8 11.744 6.87 23.527 13.526 33.598 4.197 6.349 9.893 11.804 16.145 16.145 6.041 4.194 13.026 7.05 20.071 9.163 12.69 3.804 26.052 5.236 39.27 6.108 12.92.853 26.027 1.026 38.835-.872 9.11-1.35 19.027-2.2 26.616-7.418 8.654-5.95 14.146-15.875 18.763-25.308 7.368-15.055 11.75-31.765 13.526-48.433.773-7.244.457-14.749-1.309-21.817-.93-3.725-2.162-7.681-4.8-10.472z" opacity=".1" paint-order="fill markers stroke"/>
</svg>
