<svg xmlns="http://www.w3.org/2000/svg" width="1278.065" height="1569.494" viewBox="0 0 338.155 415.262">
  <path fill="none" d="M0 1h337.155v414.262H0z" paint-order="stroke fill markers"/>
  <path class="glasses_frame" fill="black" fill-rule="evenodd" d="M138.836 113.716c-9.16 0-16.927 4.923-20.17 12.33a19.976 19.976 0 0 0-1.104 3.343h-1.041l-.245-.84-.492-.606-7.863.27s-1.091.029-1.58.258c-.27.128-.48.401-.587.68-.531 1.39-.268 2.59.218 3.915.07.192.223.372.41.456 1 .45 1.904.361 2.95.34 2.263-.044 6.586-.561 6.586-.561l.715-.842.134-.81v-.019h.382c-.097.776-.15 1.553-.15 2.316 0 11.173 9.777 20.231 21.837 20.231 9.49 0 17.562-5.609 20.574-13.442h.001c.167-.058.328-.14.465-.228.594-.38.98-1.069 1.207-1.736a5.8 5.8 0 0 0 .152-3.093c-.08-.351-.33-.82-.567-1.213a18.85 18.85 0 0 0-1.034-6.695c.626-.172 4.246-1.15 6.253-1.37 2.112-.23 4.25-.185 6.365 0 1.244.11 3.604.55 4.573.737a18.859 18.859 0 0 0-1.255 7.543 2.44 2.44 0 0 0-.14.399 5.8 5.8 0 0 0 .151 3.093c.176.518.45 1.047.841 1.437 2.644 8.417 11.03 14.568 20.97 14.568 12.06 0 21.838-9.058 21.838-20.23 0-1.193-.132-2.419-.362-3.62h1.152l.135.808.714.843s4.23.307 6.493.238c1.021-.032 2.271.316 3.244-.159a.815.815 0 0 0 .386-.447c.485-1.337.515-2.769.041-4.053a.863.863 0 0 0-.386-.463c-.505-.264-1.782-.205-1.782-.205l-7.862-.27-.492.607-.25.86h-1.949a19.253 19.253 0 0 0-.75-2.04c-3.243-7.407-11.01-12.33-20.17-12.33-9.082 0-16.867 5.137-20.16 12.444-.21-.04-3.454-.673-4.98-.816-2.2-.206-4.42-.257-6.622-.076-2.069.17-5.791.982-6.527 1.145-3.226-7.44-11.08-12.697-20.266-12.697zm-.16 1.239c6.846 0 12.13 2.278 15.968 6.972 2.647 3.238 5.012 7.592 5.052 11.967-.34.138-.759.34-.952.576-.513.63-.525 1.543-.68 2.34-.143.744-.35 1.515-.226 2.263.09.541.196 1.225.61 1.562-2.927 7.494-10.674 12.85-19.773 12.85-5.586 0-10.06-1.793-13.825-5.085-4.06-3.551-6.775-8.81-6.776-14.392 0-10.756 8.99-19.053 20.601-19.053zm58.877 0c11.611 0 20.601 8.297 20.601 19.053 0 5.582-2.715 10.84-6.776 14.392-3.765 3.292-8.239 5.084-13.825 5.084-9.267 0-17.129-5.558-19.927-13.27a.82.82 0 0 0 .445-.08c.538-.283.656-1.06.755-1.66.123-.748-.083-1.52-.227-2.264-.154-.797-.165-1.71-.679-2.34-.305-.373-1.171-.668-1.36-.729.283-4.168 2.528-8.584 5.025-11.637 3.838-4.694 9.121-6.55 15.968-6.55z" paint-order="fill markers stroke"/>
  <path class="glasses" fill="#fff" fill-rule="evenodd" d="M197.553 114.955c11.611 0 20.601 8.297 20.601 19.053 0 5.582-2.715 10.84-6.776 14.392-3.765 3.292-8.239 5.084-13.825 5.084-9.267 0-17.129-5.558-19.927-13.27a.82.82 0 0 0 .445-.08c.538-.283.656-1.06.755-1.66.123-.748-.083-1.52-.227-2.264-.154-.797-.165-1.71-.679-2.34-.305-.373-1.171-.668-1.36-.729.283-4.168 2.528-8.584 5.025-11.637 3.838-4.694 9.121-6.55 15.968-6.55zm-58.878 0c6.847 0 12.13 2.278 15.969 6.972 2.647 3.238 5.012 7.592 5.052 11.967-.34.138-.759.34-.952.576-.513.63-.525 1.543-.68 2.34-.143.744-.35 1.515-.226 2.263.09.541.196 1.225.61 1.562-2.927 7.494-10.674 12.85-19.773 12.85-5.586 0-10.06-1.793-13.825-5.085-4.06-3.551-6.775-8.81-6.776-14.392 0-10.756 8.99-19.053 20.601-19.053z" opacity=".1" paint-order="fill markers stroke"/>
</svg>
