<svg xmlns="http://www.w3.org/2000/svg" width="1278.065" height="1569.494" viewBox="0 0 338.155 415.262">
  <path fill="none" d="M.5.5h337.155v414.262H.5z" paint-order="stroke fill markers"/>
  <path class="glasses_frame" fill="black" d="M141.15 121.014c3.495-.2 6.614 1.133 9.307 3.24 2.692 2.107 4.939 4.99 6.628 7.82a.454.454 0 0 0 .14.146c1.022.68 1.174 1.377 1.008 2.275-.166.899-.757 1.95-1.352 2.947-.595.998-1.208 1.913-1.315 2.816-.053.451.077.95.45 1.28.26.231.631.363 1.06.459-1.931 5.74-7.476 10.465-13.325 12.427-.01.002-.019.006-.028.01-9.011 3.662-19.817-1.135-24.875-8.989a.358.358 0 0 0-.023-.03c-2.245-2.908-3.81-6.735-4.058-10.486-.246-3.744.801-7.39 3.756-10.093 6.31-4.622 14.95-3.58 22.616-3.82.003 0 .008 0 .011-.002zm56.15-1.145c3.369-.11 6.808.1 10.156.078h.007c3.162-.06 6.519.638 9.238 2.183 2.717 1.544 4.798 3.906 5.515 7.245 1.763 11.363-7.616 22.29-18.476 24.733-3.469.75-7.182 1.22-10.503.057a.425.425 0 0 0-.091-.02c-6.735-.884-11.233-6.17-14.288-11.942.614-.313 1.067-.742 1.17-1.3.135-.714-.107-1.45-.45-2.206-.668-1.467-1.786-3.066-2.232-4.28 1.56-5.25 5.387-10.05 10.269-12.748 3.034-1.676 6.758-1.693 9.684-1.8zm-62.909-.59c-4.055.037-8.108.41-12.06 1.275-2.407.798-3.986 1.329-5.697 2.262-1.575.859-3.232 1.557-4.506 3.73a.396.396 0 0 0-.03.056c-.157.38-.399 1.144-.399 1.144-3.172-.744-4.318-1.867-5.598-2.013-2.186-.25-2.896 1.045-.806 2.56 1.835 1.33 5.942 2.508 5.976 2.928.32 3.993 1.946 8.011 3.217 11.635.005.012.01.025.016.036 3.093 6.807 9.669 11.9 16.684 14.135a20.433 20.433 0 0 0 4.624.807c8.607.688 17.003-3.693 21.562-10.962l.01-.013c3.615-4.99 3.048-11.272 2.423-15.862 2.402.39 4.964.006 7.53-.289 2.783-.32 5.55-.497 8.096.511a.455.455 0 0 0 .612-.527c-.307-1.313-1.297-2.14-2.539-2.545-1.242-.405-2.759-.456-4.36-.346-3.172.216-6.677 1.085-8.77 1.436-2.12-.19-3.96-2.286-6.05-4.511-2.097-2.235-4.483-4.563-7.87-4.697-3.965-.482-8.017-.785-12.064-.75zm70.662-1.268c-1.958.013-3.888.08-5.705.068-6.668-.06-13.275 1.789-18.428 6.597-3.776 3.522-6.509 8.58-5.838 13.091l.002.005c1.54 9.651 9.907 17.339 19.498 18.609 7.074.946 14.612-.675 20.263-5.21a.388.388 0 0 0 .028-.023c5.504-5.137 10.008-12.387 9.982-20.188.432.003.884-.07 1.373-.215a9.358 9.358 0 0 0 1.968-.834c.268-.158 4.697-2.013 4.87-2.206 1.355-1.254 2.88-4.141-.44-3.226-.89.216-6.538 2.401-7.972 2.156-2.55-.947-2.285-1.935-3.387-3.361-3.892-5.04-10.341-5.303-16.214-5.263z"/>
  <path class="glasses" fill="#fff" d="M141.15 121.014c3.495-.2 6.614 1.133 9.307 3.24 2.692 2.107 4.939 4.99 6.628 7.82a.454.454 0 0 0 .14.146c1.022.68 1.174 1.377 1.008 2.275-.166.899-.757 1.95-1.352 2.947-.595.998-1.208 1.913-1.315 2.816-.053.451.077.95.45 1.28.26.231.631.363 1.06.459-1.931 5.74-7.476 10.465-13.325 12.427-.01.002-.019.006-.028.01-9.011 3.662-19.817-1.135-24.875-8.989a.358.358 0 0 0-.023-.03c-2.245-2.908-3.81-6.735-4.058-10.486-.246-3.744.801-7.39 3.756-10.093 6.31-4.622 14.95-3.58 22.616-3.82.003 0 .008 0 .011-.002zm56.15-1.145c3.369-.11 6.808.1 10.156.078h.007c3.162-.06 6.519.638 9.238 2.183 2.717 1.544 4.798 3.906 5.515 7.245 1.763 11.363-7.616 22.29-18.476 24.733-3.469.75-7.182 1.22-10.503.057a.425.425 0 0 0-.091-.02c-6.735-.884-11.233-6.17-14.288-11.942.614-.313 1.067-.742 1.17-1.3.135-.714-.107-1.45-.45-2.206-.668-1.467-1.786-3.066-2.232-4.28 1.56-5.25 5.387-10.05 10.269-12.748 3.034-1.676 6.758-1.693 9.684-1.8z" opacity=".1"/>
</svg>
