<svg xmlns="http://www.w3.org/2000/svg" width="1278.065" height="1569.494" viewBox="0 0 338.155 415.262">
  <path class="glasses_frame" fill="black" fill-rule="evenodd" d="M-1152.367 387.835c-8.425 0-17.826 1.792-22.502 7.345-1.08 1.282-1.821 2.935-2.248 4.743-3.376-1.714-6.455-2.352-9.289-2.192-2.827.16-5.411 1.111-7.808 2.564-.376-1.9-1.072-3.641-2.154-4.98-4.563-5.646-14.077-7.345-22.502-7.345-7.097 0-17.079.639-21.75 5.343-1.626 1.637-2.563 3.523-3.059 5.565-1.183.014-3.214.093-3.619.474-.57.536-.864 1.652-.618 2.015.261.386 2.407.26 3.832.13-.192 2.47.064 5.095.41 7.741.68 5.226 2.644 10.172 6.18 13.822 3.534 3.65 8.64 5.975 15.465 5.975 12.185 0 21.966-6.53 26.134-15.84.37-.595.683-1.382.882-2.225 0-.021.01-.042.013-.062.123-.37.24-.743.346-1.12.721-2.556.985-5.596.615-8.402 4.728-2.863 9.941-3.445 16.705-.383-.468 2.874-.193 6.019.751 8.65.106.377.223.75.346 1.12 0 .02.01.04.013.061.2.843.511 1.63.882 2.225 4.168 9.31 13.949 15.84 26.134 15.84 6.825 0 11.931-2.324 15.466-5.974 3.535-3.65 5.5-8.596 6.18-13.822.398-3.054.678-6.08.286-8.87 1.413.118 3.33.207 3.576-.154.246-.364-.048-1.479-.618-2.015-.4-.376-2.383-.458-3.573-.473a11.34 11.34 0 0 0-2.725-4.414c-4.672-4.703-14.654-5.342-21.75-5.342zm0 1.013c7.02 0 15.952 1.008 20.16 5.246 3.844 3.87 4.4 9.057 3.642 14.879-.66 5.06-1.947 9.182-5.294 12.638-3.346 3.456-8.752 6.275-15.35 6.275-11.056 0-20.077-5.793-24.49-13.91.629-.457.787-2.073.375-3.824-.467-1.984-1.494-3.44-2.295-3.25-.195.047-.364.191-.499.424-.731-4.097-.133-8.824 2.036-11.509 4.185-5.178 13.431-6.969 21.715-6.969zm-66.503.136c8.284 0 17.53 1.79 21.715 6.969 1.73 2.947 2.604 7.509 2.036 11.508-.135-.232-.304-.377-.499-.424-.8-.189-1.828 1.267-2.295 3.25-.412 1.752-.253 3.367.375 3.824-4.413 8.117-13.434 13.91-24.49 13.91-6.598 0-12.004-2.818-15.35-6.274-3.347-3.456-4.635-7.58-5.294-12.639-.603-5.354-.604-10.477 3.04-14.945 3.776-4.628 13.741-5.18 20.762-5.18z"  transform="translate(1354.41 -270.583)"/>
  <path fill="none" d="M0 1h337.155v414.262H0z" paint-order="stroke fill markers"/>
  <path fill="#fff" class="glasses" fill-rule="evenodd" d="M-1218.87 388.984c8.284 0 17.53 1.79 21.715 6.969 1.73 2.947 2.604 7.509 2.036 11.508-.135-.232-.304-.377-.499-.424-.8-.189-1.828 1.267-2.295 3.25-.412 1.752-.253 3.367.375 3.824-4.413 8.117-13.434 13.91-24.49 13.91-6.598 0-12.004-2.818-15.35-6.274-3.347-3.456-4.635-7.58-5.294-12.639-.603-5.354-.604-10.477 3.04-14.945 3.776-4.628 13.741-5.18 20.762-5.18zm66.503-.136c7.02 0 15.952 1.008 20.16 5.246 3.844 3.87 4.4 9.057 3.642 14.879-.66 5.06-1.947 9.182-5.294 12.638-3.346 3.456-8.752 6.275-15.35 6.275-11.056 0-20.077-5.793-24.49-13.91.629-.457.787-2.073.375-3.824-.467-1.984-1.494-3.44-2.295-3.25-.195.047-.364.191-.499.424-.731-4.097-.133-8.824 2.036-11.509 4.185-5.178 13.431-6.969 21.715-6.969z" opacity=".1" transform="translate(1354.41 -270.583)"/>
</svg>
