<svg xmlns="http://www.w3.org/2000/svg" width="1278.065" height="1569.494" viewBox="0 0 338.155 415.262">
  <path fill="none" d="M0 1h337.155v414.262H0z" paint-order="stroke fill markers"/>
  <path class="glasses_frame" fill="black" fill-rule="evenodd" d="M198.049 113.058c6.41-.45 15.37-.032 20.65 2.556 1.777.904 2.808 1.797 3.933 3.442a14.893 14.893 0 0 1 2.164 4.917c.563 2.362.576 4.854.393 7.276-.441 5.724-2.87 11.229-6.195 15.34-1.488 1.815-3.794 3.997-5.802 5.212-8.504 4.503-16.002 4.404-23.698.393-5.752-2.85-11.2-8.53-12.291-14.848-.397-2.642-.318-8.118.295-10.718.697-2.958 1.286-3.777 3.163-6.166 1.78-2.266 4.832-3.836 7.457-5.027 3.12-1.417 6.533-1.93 9.931-2.377zm-85.45 6.391c1.226-1.604 3.376-2.696 5.21-3.54 6.993-2.709 16.485-3.078 23.207-1.77 7.551 1.668 9.632 2.522 14.414 7.82 1.341 1.484 1.84 4.679 2.008 6.635.734 4.002-.824 15.415-4.523 19.568-4.94 5.587-10.102 7.504-17.012 7.572-4 .023-8.19-1.423-11.8-3.147-5.884-2.904-8.734-7.222-11.8-13.373-1.235-2.478-1.862-6.377-1.77-9.145.09-2.66.095-4.504.59-6.686.31-1.366.625-2.821 1.475-3.934zm-9.932-2.36 5.801-.688 5.409-1.573c7.12-2.268 15.27-3.756 22.026-3.344 8.916.688 13.89 2.64 21.24 7.867 0 0 7.168-1.705 10.816-1.672 3.26.03 9.637 1.672 9.637 1.672s5.699-4.306 8.948-5.703c3.476-1.495 7.256-2.306 11.013-2.754 8.495-1.035 16.671.78 24.289 2.655 2.116.52 6.293 1.77 6.293 1.77l4.13.394.491 3.048-5.211 2.655s.48 3.865.393 5.802c-.317 5.893-1.628 10.5-3.933 15.93 0 0-2.592 4.491-4.327 6.391-5.1 5.713-9.887 6.962-16.913 7.572-2.255.192-4.563.136-6.785-.295-2.798-.543-5.555-1.496-8.063-2.852-6.54-3.635-10.958-8.642-12.882-15.438-.952-3.482-.821-7.223-.491-10.817.132-1.44.983-4.779.983-4.779-6.61-3.085-11.077-2.094-16.028-.393 0 0 .497 4.412.491 6.352.882 6.36-1.279 17.019-7.374 23.01-2.725 2.495-6.236 4.272-9.834 5.113-4.724 1.105-9.837.846-14.553-.295-9.506-2.709-16.55-10.723-19.076-19.666-.857-3.113-.766-6.415-.984-9.637-.066-.981.1-4.867.1-4.867l-4.032-1.78-1.545-.988z" paint-order="fill markers stroke"/>
  <path class="glasses" fill="#fff" fill-rule="evenodd" d="M112.598 119.45c1.227-1.605 3.377-2.697 5.212-3.54 6.992-2.71 16.484-3.08 23.206-1.77 7.551 1.667 9.632 2.521 14.414 7.818 1.341 1.485 1.84 4.68 2.008 6.636.734 4.002-.824 15.415-4.523 19.568-4.94 5.587-10.102 7.504-17.012 7.572-4 .023-8.19-1.423-11.8-3.147-5.884-2.904-8.734-7.222-11.8-13.373-1.235-2.478-1.862-6.377-1.77-9.145.09-2.66.095-4.504.59-6.686.31-1.366.625-2.821 1.475-3.934zm85.451-6.392c6.41-.45 15.37-.032 20.65 2.556 1.777.904 2.808 1.797 3.933 3.442a14.893 14.893 0 0 1 2.164 4.917c.563 2.362.576 4.854.393 7.276-.441 5.724-2.87 11.229-6.195 15.34-1.488 1.815-3.794 3.997-5.802 5.212-8.504 4.503-16.002 4.404-23.698.393-5.752-2.85-11.2-8.53-12.291-14.848-.397-2.642-.318-8.118.295-10.718.697-2.958 1.286-3.777 3.163-6.166 1.78-2.266 4.832-3.836 7.457-5.027 3.12-1.417 6.533-1.93 9.931-2.377z" opacity=".1" paint-order="fill markers stroke"/>
</svg>
