<?xml version="1.0" encoding="UTF-8" standalone="no"?>
<!-- Created with Inkscape (http://www.inkscape.org/) -->

<svg
   xmlns:dc="http://purl.org/dc/elements/1.1/"
   xmlns:cc="http://creativecommons.org/ns#"
   xmlns:rdf="http://www.w3.org/1999/02/22-rdf-syntax-ns#"
   xmlns:svg="http://www.w3.org/2000/svg"
   xmlns="http://www.w3.org/2000/svg"
   xmlns:sodipodi="http://sodipodi.sourceforge.net/DTD/sodipodi-0.dtd"
   xmlns:inkscape="http://www.inkscape.org/namespaces/inkscape"
   width="338.32648mm"
   height="414.91257mm"
   viewBox="0 0 338.32648 414.91257"
   version="1.1"
   id="svg8"
   inkscape:version="0.92.3 (2405546, 2018-03-11)"
   sodipodi:docname="Glasses02.svg">
  <defs
     id="defs2">
    <inkscape:path-effect
       effect="skeletal"
       id="path-effect1081"
       is_visible="true"
       pattern="M 0,5 C 0,2.24 2.24,0 5,0 7.76,0 10,2.24 10,5 10,7.76 7.76,10 5,10 2.24,10 0,7.76 0,5 Z"
       copytype="single_stretched"
       prop_scale="0.26458333"
       scale_y_rel="false"
       spacing="0"
       normal_offset="0"
       tang_offset="0"
       prop_units="false"
       vertical_pattern="false"
       fuse_tolerance="0" />
    <inkscape:path-effect
       effect="simplify"
       id="path-effect1079"
       is_visible="true"
       steps="1"
       threshold="0.016469"
       smooth_angles="360"
       helper_size="0"
       simplify_individual_paths="false"
       simplify_just_coalesce="false"
       simplifyindividualpaths="false"
       simplifyJustCoalesce="false" />
    <inkscape:path-effect
       effect="skeletal"
       id="path-effect975"
       is_visible="true"
       pattern="m 0.04724703,5.4252232 c 0,-2.7599999 2.23999997,-4.9999999 4.99999997,-4.9999999 2.76,0 4.999999,2.24 4.999999,4.9999999 0,2.7599995 -2.239999,4.9999998 -4.999999,4.9999998 -2.76,0 -4.99999997,-2.2400003 -4.99999997,-4.9999998 z"
       copytype="single_stretched"
       prop_scale="0.26458333"
       scale_y_rel="false"
       spacing="0"
       normal_offset="0"
       tang_offset="0"
       prop_units="false"
       vertical_pattern="false"
       fuse_tolerance="0" />
    <inkscape:path-effect
       effect="bspline"
       id="path-effect973"
       is_visible="true"
       weight="33.333333"
       steps="2"
       helper_size="0"
       apply_no_weight="true"
       apply_with_weight="true"
       only_selected="false" />
    <inkscape:path-effect
       effect="simplify"
       id="path-effect971"
       is_visible="true"
       steps="1"
       threshold="0.000408163"
       smooth_angles="360"
       helper_size="0"
       simplify_individual_paths="false"
       simplify_just_coalesce="false"
       simplifyindividualpaths="false"
       simplifyJustCoalesce="false" />
    <inkscape:path-effect
       effect="skeletal"
       id="path-effect964"
       is_visible="true"
       pattern="M 0,5 C 0,2.24 2.24,0 5,0 7.76,0 10,2.24 10,5 10,7.76 7.76,10 5,10 2.24,10 0,7.76 0,5 Z"
       copytype="single_stretched"
       prop_scale="0.26458333"
       scale_y_rel="false"
       spacing="0"
       normal_offset="0"
       tang_offset="0"
       prop_units="false"
       vertical_pattern="false"
       fuse_tolerance="0" />
    <inkscape:path-effect
       effect="bspline"
       id="path-effect962"
       is_visible="true"
       weight="33.333333"
       steps="2"
       helper_size="0"
       apply_no_weight="true"
       apply_with_weight="true"
       only_selected="false" />
    <inkscape:path-effect
       effect="simplify"
       id="path-effect960"
       is_visible="true"
       steps="1"
       threshold="0.000408163"
       smooth_angles="360"
       helper_size="0"
       simplify_individual_paths="false"
       simplify_just_coalesce="false"
       simplifyindividualpaths="false"
       simplifyJustCoalesce="false" />
    <inkscape:path-effect
       effect="skeletal"
       id="path-effect956"
       is_visible="true"
       pattern="M 0,5 C 0,2.24 2.24,0 5,0 7.76,0 10,2.24 10,5 10,7.76 7.76,10 5,10 2.24,10 0,7.76 0,5 Z"
       copytype="single_stretched"
       prop_scale="0.26458333"
       scale_y_rel="false"
       spacing="0"
       normal_offset="0"
       tang_offset="0"
       prop_units="false"
       vertical_pattern="false"
       fuse_tolerance="0" />
    <inkscape:path-effect
       effect="bspline"
       id="path-effect954"
       is_visible="true"
       weight="33.333333"
       steps="2"
       helper_size="0"
       apply_no_weight="true"
       apply_with_weight="true"
       only_selected="false" />
    <inkscape:path-effect
       effect="simplify"
       id="path-effect952"
       is_visible="true"
       steps="1"
       threshold="0.000408163"
       smooth_angles="360"
       helper_size="0"
       simplify_individual_paths="false"
       simplify_just_coalesce="false"
       simplifyindividualpaths="false"
       simplifyJustCoalesce="false" />
    <inkscape:path-effect
       effect="bspline"
       id="path-effect879"
       is_visible="true"
       weight="33.333333"
       steps="2"
       helper_size="0"
       apply_no_weight="true"
       apply_with_weight="true"
       only_selected="false" />
    <inkscape:path-effect
       effect="simplify"
       id="path-effect877"
       is_visible="true"
       steps="1"
       threshold="0.000408163"
       smooth_angles="360"
       helper_size="0"
       simplify_individual_paths="false"
       simplify_just_coalesce="false"
       simplifyindividualpaths="false"
       simplifyJustCoalesce="false" />
    <inkscape:path-effect
       effect="simplify"
       id="path-effect873"
       is_visible="true"
       steps="1"
       threshold="0.000408163"
       smooth_angles="360"
       helper_size="0"
       simplify_individual_paths="false"
       simplify_just_coalesce="false"
       simplifyindividualpaths="false"
       simplifyJustCoalesce="false" />
  </defs>
  <sodipodi:namedview
     id="base"
     pagecolor="#ffffff"
     bordercolor="#666666"
     borderopacity="1.0"
     inkscape:pageopacity="0.0"
     inkscape:pageshadow="2"
     inkscape:zoom="0.69999999"
     inkscape:cx="-134.99028"
     inkscape:cy="1073.5002"
     inkscape:document-units="mm"
     inkscape:current-layer="layer1"
     showgrid="false"
     inkscape:window-width="1920"
     inkscape:window-height="1001"
     inkscape:window-x="-9"
     inkscape:window-y="-9"
     inkscape:window-maximized="1"
     inkscape:snap-global="false"
     fit-margin-top="0"
     fit-margin-left="0"
     fit-margin-right="0"
     fit-margin-bottom="0" />
  <metadata
     id="metadata5">
    <rdf:RDF>
      <cc:Work
         rdf:about="">
        <dc:format>image/svg+xml</dc:format>
        <dc:type
           rdf:resource="http://purl.org/dc/dcmitype/StillImage" />
        <dc:title />
      </cc:Work>
    </rdf:RDF>
  </metadata>
  <g
     inkscape:label="Ebene 1"
     inkscape:groupmode="layer"
     id="layer1"
     transform="translate(645.68791,-12.765045)">
    <rect
       style="opacity:1;fill:none;fill-opacity:1;fill-rule:evenodd;stroke:none;stroke-width:0.99999988;stroke-linecap:round;stroke-linejoin:miter;stroke-miterlimit:4;stroke-dasharray:none;stroke-dashoffset:0;stroke-opacity:1;paint-order:stroke fill markers"
       id="rect1307-4-6"
       width="337.15475"
       height="414.26193"
       x="-644.51617"
       y="12.765045"
       inkscape:label="Frame" />
    <path
       style="fill:#000000;stroke-width:0.26458332"
       d="m -517.0383,164.33852 c -3.83923,-0.42688 -6.98654,-3.23588 -8.89749,-6.70258 -1.88795,-3.42502 -2.33565,-7.30096 -4.24445,-10.87359 -1.44282,-2.70047 -0.97374,-10.42042 -5.84555,-7.03864 -2.68336,1.86265 -3.55373,-2.1023 -0.63479,-2.32211 4.31423,-0.32487 -1.14931,-3.75064 3.17588,-4.72217 3.18698,-0.71588 5.73214,-3.79462 8.9501,-3.92348 10.63016,-0.42564 20.88616,-1.31695 30.95,-1.1339 2.23443,0.0406 5.19936,-0.40387 6.94648,-0.0215 2.32297,0.50838 5.18045,0.4664 7.7062,0.17279 1.24433,-0.14465 4.00748,0.3615 5.92849,0.14812 2.04291,-0.22694 3.60874,0.33959 5.50412,0.24939 7.06013,-0.33599 10.24082,-1.27139 17.9176,-1.09613 5.93666,0.13555 12.00445,0.2879 18.23697,1.24363 3.14934,0.48294 6.0653,0.81286 8.9811,1.43758 2.10746,0.45153 4.54526,-0.54574 3.58193,3.07707 -1.34343,0.378 -1.57027,2.12164 0.385,3.75686 1.43593,1.2009 1.09609,2.3918 2.09748,3.4105 2.29636,2.33605 -0.54263,2.78868 -2.29154,0.45007 -1.22356,-1.63611 -0.46087,-2.69832 -1.59385,-2.6685 -3.1615,0.0832 -1.86366,4.47835 -2.85613,7.40267 -1.18998,3.50627 -1.51848,7.50917 -3.53302,10.74356 -2.28124,3.66255 -5.81511,5.5363 -9.78805,6.88241 -3.89953,1.32123 -7.84883,1.02157 -11.81125,1.59687 -3.5653,0.51763 -8.05855,1.19929 -11.26145,-0.63506 -3.04521,-1.74403 -6.12713,-4.08761 -7.51135,-7.59613 -1.20445,-3.05289 -1.85251,-5.26271 -2.43438,-8.45397 -0.42916,-2.35371 -2.02784,-4.54214 -1.61693,-6.71778 0.45616,-2.41533 -0.0532,-2.43837 -0.43703,-2.90118 -0.82455,-0.99432 -1.53515,0.0246 -5.04667,-0.0182 -3.10687,-0.0377 -3.74628,0.74409 -4.17106,4.92241 -0.47618,4.68398 -2.94189,8.90855 -4.58,13.33873 -1.20424,3.25682 -3.83489,6.01048 -6.38542,6.92751 -2.15177,0.77366 -3.59156,1.49824 -6.07536,1.59869 -6.64561,0.26876 -13.77995,0.0849 -19.34558,-0.53398 z m 23.9458,-0.80174 c 0.49823,-1.02976 -0.77681,1.60549 0,0 z m -4.18159,-1.17182 c 4.16604,-0.70575 8.09705,-2.35256 10.36468,-6.4387 2.19836,-3.96132 2.09851,-8.34255 3.5212,-12.27181 0.75737,-2.09174 0.0709,-4.88508 -0.56295,-7.06845 -0.44783,-1.54241 -1.69311,-4.33349 -2.78938,-5.215 -3.07627,-2.4736 -6.99505,-1.94366 -10.60779,-1.9438 -9.50821,-4.3e-4 -16.66206,1.52464 -24.05114,1.7479 -4.20933,0.12717 -3.3538,0.95136 -6.30453,2.73444 -4.00914,2.42269 -2.00061,7.55584 -0.77248,11.09588 1.77491,5.11618 2.24858,11.39965 6.94432,14.72451 7.46611,4.31558 16.67962,3.85486 24.25807,2.63503 z m 44.18349,0.2695 c 3.51866,0.14787 6.88776,-0.22013 10.43962,-0.68133 3.98956,-0.51803 7.70735,-0.89787 10.85584,-3.2223 2.11024,-1.55793 3.79554,-3.54049 4.44882,-6.2778 1.00578,-4.21439 2.89415,-8.54188 2.26143,-12.97066 -0.55103,-3.85708 -1.65337,-7.36202 -5.79044,-8.3493 -7.45581,-1.03386 -14.32783,-0.88725 -21.35263,-1.30323 -3.48808,-0.23032 -6.92875,-0.67378 -10.36449,0.48682 -4.17335,1.40978 -5.64894,5.4123 -5.93332,9.47792 -0.29543,4.22365 0.80626,8.63588 2.14533,12.38964 1.20586,3.38029 1.83785,3.82452 3.37842,6.22368 1.6788,2.61443 4.62115,3.82403 7.58357,4.25966 0.78667,0.11567 1.55162,-0.0657 2.32785,-0.0332 z m -35.74085,-2.11564 c -0.15234,-0.53496 0.19467,0.68358 0,0 z m 0.43062,0.0972 c 0.0607,-0.59297 -0.0505,0.49313 0,0 z m 0.43061,-0.38426 c -0.15235,-0.53497 0.19466,0.68358 0,0 z m 17.00256,-24.8022 c 0.86714,-2.3895 4.27488,-5.99298 -1.08084,-5.40284 -3.79551,0.41822 -10.68993,-0.98725 -11.33266,0.87958 -0.45105,1.31011 0.9871,3.16094 2.22137,4.49775 1.07097,1.15996 9.60353,1.64744 10.19213,0.0255 z"
       id="path4522"
       inkscape:connector-curvature="0"
       sodipodi:nodetypes="ssssssssssssssscssssssssssssssssssssccssssssssccssssssccssssssssssssscssssc"
       inkscape:label="Brille" />
  </g>
</svg>
