<svg xmlns="http://www.w3.org/2000/svg" width="1278.065" height="1569.494">
  <path fill="none" d="M0 3.78h1274.286v1565.714H0z" paint-order="fill markers stroke"/>
  <path class="glasses_frame" fill="black" fill-rule="evenodd" d="M757.545 433.902c-6.474-.032-12.942.135-19.336 1.032-12.786 1.792-27.415 5.124-39.525 9.6-9.885 3.652-21.715 8.649-29.92 16.644-3.995 3.893-7.645 8.64-9.469 12.348-11.51-2.929-24.838-5.615-41.63.424-2.942-3.347-6.844-8.94-11.211-12.4-9-7.13-20.275-12.991-30.16-16.644-12.11-4.475-26.738-7.807-39.524-9.6-10.231-1.434-20.651-.999-30.98-.87-16.458.204-32.942.854-49.306 2.617-13.48 1.452-30.866 3.807-44.144 6.545-2.937.605-6.172.612-8.727 2.181-2.46 1.511-6.147 4.094-7.672 6.545-1.583 2.547-2.823 5.368-3.49 8.291-1.943 8.52 1.916 13.223 4.014 21.705 1.096 4.432 5.555 16.205 7.658 20.256 8.82 16.986 15.558 37.085 27.088 52.361 19.193 25.43 48.825 31.29 80.555 30.827 15.786-.23 57.611-5.612 80.326-34.672 6.361-8.139 12.294-18.065 16.674-28.008 4.822-10.946 10.36-34.355 10.36-34.355 11.903-8.262 24.258-7.54 38.392-1.127 0 0 4.534 22.24 8.695 32.736 4.266 10.76 10.085 22.297 16.504 30.55 21.693 27.89 63.876 34.39 80.496 34.5 31.732.213 50.175.197 77.673-29.3 13.051-14 21.15-36.9 29.97-53.887 2.103-4.051 6.562-15.823 7.658-20.254 2.098-8.482 5.956-13.188 4.013-21.707-.666-2.923-1.907-5.743-3.49-8.289-1.524-2.452-5.212-5.034-7.672-6.545-2.555-1.57-5.79-1.576-8.726-2.181-13.279-2.738-30.665-5.095-44.145-6.547-16.364-1.763-32.847-2.413-49.305-2.617-3.873-.049-7.76-.14-11.644-.159zm12.596 8.358c20.385.098 39.063 1.604 60.65 5.855 9.748 2.399 23.647 4.085 29.635 10.42 2.638 2.79 3.36 4.544 4.29 8.27 1.767 7.068-1.544 21.216-3.333 29.816-1.777 16.668-12.625 34.973-21.628 49.112-18.886 29.658-49.298 34.896-77.468 32.92-17.18-1.575-57.189-8.645-74.368-33.62-6.657-10.072-11.845-19.65-14.646-31.394-2.37-9.94-4.537-20.509-2.617-30.545 1.223-6.389 3-11.093 7.628-15.664 7.59-7.498 22.083-14.592 32.32-17.594 19.96-5.854 38.736-7.676 59.537-7.576zm-265.303.375c20.8-.1 39.577 1.72 59.537 7.574 10.237 3.003 24.61 10.578 32.2 18.075 4.627 4.571 6.525 8.796 7.747 15.185 1.92 10.036-.246 20.603-2.617 30.543-2.8 11.743-10.87 23.526-17.527 33.597-17.18 24.975-54.306 29.844-71.487 31.418-28.17 1.977-61.802-6.822-78.484-31.904-9.283-13.957-18.834-33.46-20.611-50.127-1.79-8.6-5.1-22.75-3.334-29.818.93-3.726 2.16-7.68 4.799-10.471 5.988-6.336 19.379-5.82 29.127-8.219 21.587-4.25 40.264-5.755 60.65-5.853z" opacity=".99" paint-order="fill markers stroke"/>
  <path class="glasses" fill="#fff" fill-rule="evenodd" d="M770.14 442.26c-20.8-.1-39.577 1.722-59.536 7.576-10.237 3.002-24.731 10.096-32.32 17.594-4.628 4.57-6.405 9.275-7.628 15.664-1.92 10.036.247 20.605 2.617 30.545 2.801 11.743 7.99 21.323 14.647 31.394 17.179 24.975 57.187 32.045 74.367 33.62 28.17 1.976 58.582-3.263 77.467-32.92 9.003-14.14 19.852-32.444 21.629-49.112 1.79-8.6 5.1-22.748 3.334-29.816-.931-3.726-1.653-5.48-4.291-8.27-5.99-6.336-19.887-8.021-29.635-10.42-21.587-4.25-40.265-5.757-60.65-5.855zm-265.302.375c-20.386.098-39.063 1.602-60.65 5.853-9.748 2.399-23.139 1.883-29.127 8.219-2.638 2.79-3.869 6.745-4.8 10.47-1.765 7.069 1.545 21.219 3.335 29.82 1.777 16.667 11.328 36.169 20.611 50.126 16.682 25.082 50.314 33.88 78.484 31.904 17.18-1.574 54.308-6.443 71.487-31.418 6.657-10.071 14.726-21.854 17.527-33.597 2.37-9.94 4.538-20.507 2.617-30.543-1.222-6.389-3.12-10.615-7.748-15.186-7.59-7.497-21.962-15.071-32.199-18.074-19.96-5.854-38.737-7.674-59.537-7.574z" opacity=".1" paint-order="fill markers stroke"/>
</svg>
