<?xml version="1.0" encoding="UTF-8" standalone="no"?>
<!-- Created with Inkscape (http://www.inkscape.org/) -->

<svg
   xmlns:dc="http://purl.org/dc/elements/1.1/"
   xmlns:cc="http://creativecommons.org/ns#"
   xmlns:rdf="http://www.w3.org/1999/02/22-rdf-syntax-ns#"
   xmlns:svg="http://www.w3.org/2000/svg"
   xmlns="http://www.w3.org/2000/svg"
   xmlns:sodipodi="http://sodipodi.sourceforge.net/DTD/sodipodi-0.dtd"
   xmlns:inkscape="http://www.inkscape.org/namespaces/inkscape"
   width="338.15475mm"
   height="415.26193mm"
   viewBox="0 0 338.15475 415.26193"
   version="1.1"
   id="svg8"
   inkscape:version="0.92.3 (2405546, 2018-03-11)"
   sodipodi:docname="Glasses01.svg">
  <defs
     id="defs2" />
  <sodipodi:namedview
     id="base"
     pagecolor="#ffffff"
     bordercolor="#666666"
     borderopacity="1.0"
     inkscape:pageopacity="0.0"
     inkscape:pageshadow="2"
     inkscape:zoom="0.49497475"
     inkscape:cx="565.29088"
     inkscape:cy="738.05086"
     inkscape:document-units="mm"
     inkscape:current-layer="layer1"
     showgrid="false"
     inkscape:window-width="1920"
     inkscape:window-height="1001"
     inkscape:window-x="-9"
     inkscape:window-y="-9"
     inkscape:window-maximized="1"
     inkscape:snap-global="true"
     showguides="true"
     fit-margin-top="0"
     fit-margin-left="0"
     fit-margin-right="0"
     fit-margin-bottom="0" />
  <metadata
     id="metadata5">
    <rdf:RDF>
      <cc:Work
         rdf:about="">
        <dc:format>image/svg+xml</dc:format>
        <dc:type
           rdf:resource="http://purl.org/dc/dcmitype/StillImage" />
        <dc:title></dc:title>
      </cc:Work>
    </rdf:RDF>
  </metadata>
  <g
     inkscape:label="Ebene 1"
     inkscape:groupmode="layer"
     id="layer1"
     transform="translate(1355.1667,-269.28568)">
    <rect
       style="opacity:1;fill:none;fill-opacity:1;fill-rule:evenodd;stroke:none;stroke-width:0.99999988;stroke-linecap:round;stroke-linejoin:miter;stroke-miterlimit:4;stroke-dasharray:none;stroke-dashoffset:0;stroke-opacity:1;paint-order:stroke fill markers"
       id="rect1307"
       width="337.15475"
       height="414.26193"
       x="-1354.6667"
       y="269.78568"
       inkscape:label="Frame" />
    <path
       transform="matrix(1.1730727,0,0,1.1730727,-1446.0834,172.95617)"
       style="display:inline;fill:#000000;stroke-width:0.85246211;enable-background:new"
       d="m 252.30273,182.7168 c -1.66869,0.0113 -3.31432,0.0688 -4.86328,0.0586 -5.68397,-0.0516 -11.6724,1.17352 -15.70898,5.62305 -3.53888,2.61833 -5.54841,7.3137 -4.97656,11.16015 6.6e-4,10e-4 0.001,0.003 0.002,0.004 1.31189,8.22726 8.44523,14.78083 16.62109,15.86328 6.03046,0.80655 12.45577,-0.57493 17.27344,-4.4414 0.008,-0.006 0.0159,-0.0127 0.0234,-0.0195 4.69235,-4.37869 8.53166,-10.55892 8.50976,-17.20898 0.36837,0.002 0.75354,-0.0594 1.16993,-0.18359 0.60337,-0.17991 1.22033,-0.44197 1.67773,-0.71094 0.2287,-0.13449 4.0044,-1.71641 4.15093,-1.8802 1.15587,-1.06942 2.45569,-3.53037 -0.37368,-2.75062 -0.75954,0.18448 -5.57366,2.04722 -6.79678,1.83786 -1.22312,-0.20936 -2.31674,-0.83971 -2.80664,-2.71094 -0.0147,-0.0568 -0.0421,-0.10958 -0.0801,-0.1543 -3.52973,-4.12444 -8.81566,-4.5201 -13.82227,-4.48632 z m -60.23632,1.08203 c -3.45722,0.0304 -6.91203,0.34821 -10.28125,1.08594 -0.0579,0.013 -0.11199,0.0391 -0.15821,0.0762 -1.6138,1.28935 -3.12666,1.61759 -4.58398,2.08008 -1.45733,0.46249 -2.86889,1.09905 -3.95508,2.95117 -0.01,0.0156 -0.0181,0.0319 -0.0254,0.0488 -0.13397,0.32382 -0.34016,0.97471 -0.34016,0.97471 -2.70456,-0.63393 -3.68092,-1.59155 -4.77237,-1.71616 -1.86329,-0.21272 -2.46845,0.89133 -0.68668,2.18279 1.56415,1.13373 5.06506,2.13743 5.09377,2.49566 0.27287,3.40428 1.65913,6.82951 2.74255,9.91846 0.004,0.0106 0.009,0.021 0.0137,0.0312 2.63653,5.80206 8.24236,10.14325 14.22266,12.04883 0.002,6.8e-4 0.004,0.001 0.006,0.002 1.28194,0.38471 2.60703,0.60374 3.93554,0.68554 7.33686,0.5868 14.49494,-3.14708 18.38086,-9.34375 l 0.008,-0.0117 c 3.08195,-4.25394 2.59917,-9.60827 2.0664,-13.52148 2.04702,0.33309 4.23107,0.005 6.41797,-0.24609 2.37338,-0.27303 4.73223,-0.42425 6.90234,0.43554 0.29148,0.11594 0.59299,-0.14379 0.52149,-0.44922 -0.26144,-1.11919 -1.10556,-1.8248 -2.16406,-2.16992 -1.05851,-0.34512 -2.35208,-0.3882 -3.7168,-0.29492 -2.70372,0.1848 -5.69222,0.92531 -7.47656,1.22461 -1.80749,-0.16297 -3.37581,-1.94894 -5.15625,-3.8457 -1.78809,-1.90491 -3.82265,-3.88936 -6.70899,-4.00391 -3.38045,-0.41111 -6.83509,-0.66898 -10.28515,-0.63867 z m 53.62695,0.50195 c 2.87208,-0.094 5.80414,0.0849 8.6582,0.0664 0.002,2e-5 0.004,2e-5 0.006,0 2.69567,-0.0515 5.55674,0.54426 7.875,1.86133 2.31604,1.3158 4.09029,3.32983 4.70117,6.17578 1.50249,9.6871 -6.49261,19.00092 -15.75,21.08398 -2.95699,0.64013 -6.12264,1.04041 -8.95312,0.0488 -0.0254,-0.009 -0.0515,-0.0144 -0.0781,-0.0176 -5.74122,-0.75314 -9.57539,-5.25961 -12.17968,-10.17969 0.52359,-0.26671 0.90913,-0.63249 0.99804,-1.10742 0.11402,-0.60907 -0.0919,-1.23677 -0.38476,-1.88086 -0.56883,-1.25091 -1.52249,-2.61422 -1.90235,-3.64844 1.32925,-4.47576 4.85219,-8.14994 8.75391,-10.86718 2.60516,-1.07654 5.39799,-1.44167 8.25586,-1.53516 z m -47.86524,0.97656 c 2.97913,-0.1711 5.6384,0.96543 7.9336,2.76172 2.2952,1.7963 4.21051,4.25303 5.65039,6.66602 0.0298,0.0501 0.0705,0.0928 0.11914,0.125 0.87135,0.57939 1.00076,1.17366 0.85937,1.93945 -0.14138,0.76579 -0.6452,1.66126 -1.15234,2.51172 -0.50714,0.85046 -1.03033,1.63052 -1.12109,2.40039 -0.0454,0.38494 0.0654,0.81045 0.38281,1.0918 0.22213,0.1969 0.53899,0.30892 0.9043,0.39062 -1.64612,4.89396 -6.37309,8.92153 -11.35938,10.59375 -0.008,0.002 -0.0157,0.005 -0.0234,0.008 -7.68187,3.12195 -16.89322,-0.96722 -21.20507,-7.6621 -0.006,-0.009 -0.0127,-0.0172 -0.0195,-0.0254 -1.91355,-2.47906 -3.24854,-5.7418 -3.45899,-8.93945 -0.21006,-3.19179 0.68277,-6.30024 3.20117,-8.60351 5.3795,-3.94006 12.74456,-3.05189 19.2793,-3.25586 0.003,-6.2e-4 0.007,-0.001 0.01,-0.002 z"
       id="path6112"
       inkscape:connector-curvature="0"
       sodipodi:nodetypes="cccccccccccccsccccccccccssssccccccccccccscscccccccccccccccccccccccscccccccccccc"
       inkscape:label="Kontur_Brille" />
  </g>
</svg>
