<svg xmlns="http://www.w3.org/2000/svg" width="1278.714" height="1568.173" viewBox="0 0 338.326 414.913">
  <path fill="none" d="M0 .651h337.155v414.262H0z" paint-order="stroke fill markers"/>
  <path class="hair" fill="#502d16" d="M160.469 43.628c-8.207.055-16.281 1.645-23.229 6.671-10.162 8.942-20.637 18.433-27.27 30.564-8.684 18.906-16.717 40.026-12.93 61.172.15.625 5.63 19.265 8.164 26.83 1.093 7.207 5.9 18.403 12.774 23.715.572.357 1.436.516 2.208.39l-.01.019c.051.026.375.231.824.52a71.997 71.997 0 0 0 8.139 4.535 78.17 78.17 0 0 0 22.217 6.732c18.583 2.722 44.195-.382 73.298-22.943h.001c1.502-.858 3.124-3.377 4.525-4.222 8.772-5.72 16.23-14.538 17.28-25.35.962-16.628-.936-33.387-5.19-49.473-4.008-18.953-16.85-34.626-32.127-45.903-1.251-3.692-9.49-7.893-12.158-8.654-2.798-1.578-19.237-2.758-23.653-3.7-4.23-.54-8.564-.932-12.863-.903z"/>
  <path d="M160.664 43.674c-8.207.056-16.28 1.646-23.228 6.672-10.163 8.942-20.637 18.433-27.27 30.564-8.685 18.905-16.718 40.026-12.93 61.172.37 1.54 2.51 1.686 2.684-.049-3.1-18.787 1.67-38.259 10.173-55.088 4.902-11.354 12.366-22.659 22.71-29.677 10.775-10.788 19.071-12.8 31.094-12.314 1.496-.7 4.8.126 7.2 1.167 3.187-.012 9.595.515 15.364 1.23 3.369 1.477 6.13 2.326 10.102 1.216.477.468 1.797 1.357 4.33 2.785 8.894 3.9-3.873 1.435 3.118 4.091 10.472 4.954 16.907 15.298 24.222 23.864 7.964 9.412 11.243 21.308 13.554 33.154 1.789 12.098 1.685 24.534 2.962 36.736.81 14.687-13.803 22.308-20.915 32.97 1.758.107 3.817-3.47 5.542-4.509 8.771-5.721 16.229-14.539 17.279-25.35.963-16.628-.935-33.388-5.189-49.474-4.008-18.952-16.85-34.626-32.127-45.903-1.252-3.692-9.49-7.892-12.158-8.654-2.799-1.577-19.237-2.758-23.654-3.699-4.229-.54-8.564-.932-12.863-.904zm-55.393 124.274c.784 7.134 5.716 19.124 12.903 24.68 1.19.74 3.647.638 3.898-1.143-9.703-4.74-11.545-15.31-16.801-23.537z"/>
</svg>
