<svg xmlns="http://www.w3.org/2000/svg" width="1278.065" height="1569.494">
  <path fill="none" d="M0 0h1278.065v1569.494H0z" paint-order="fill markers stroke"/>
  <path class="hair" fill="#502d16" d="M785.243 915.388c-8.328-12.481 18.788-13.315 15.287-27.738 2.842-15.433-9.573-26.731-18.071-37.744-7.556-11.653-13.308-24.52-18.166-37.455-2.279-15.557 3.814-30.777 6.309-45.957 4.025-15.879 11.053-31.931 24.593-41.909 10.722-12.898 12.821-31.26 25.84-42.543 13.451-15.162 17.393-36.154 31.358-50.957 6.874-6.133 17.067-17.512 26.646-11.703 7.732 9.231 13.3 20.135 21.385 29.193 18.27 23.247 46.681 38.11 58.914 66.062 2.94 13.912 2.887 29.512-2.166 43.167-10.41 27.464-17.515 56.365-31.854 82.244-9.901 18.156-22.808 36.596-42.23 45.237-11.855 8.39-27.445 9.805-37.962 20.374-14.956 6.936-32.05 6.115-47.477 11.458-4.165.498-8.69.488-12.406-1.73z"/>
  <path d="M785.243 915.388c-8.328-12.481 18.788-13.315 15.287-27.738 2.842-15.433-9.573-26.731-18.071-37.744-7.556-11.653-13.308-24.52-18.166-37.455-2.279-15.557 3.814-30.777 6.309-45.957 4.025-15.879 11.053-31.931 24.593-41.909 10.722-12.898 12.821-31.26 25.84-42.543 13.451-15.162 17.393-36.154 31.358-50.957 6.874-6.133 17.067-17.512 26.646-11.703 7.732 9.231 13.3 20.135 21.385 29.193 18.27 23.247 46.681 38.11 58.914 66.062 2.94 13.912 2.887 29.512-2.166 43.167-10.41 27.464-17.515 56.365-31.854 82.244-9.901 18.156-22.808 36.596-42.23 45.237-11.855 8.39-27.445 9.805-37.962 20.374-14.956 6.936-32.05 6.115-47.477 11.458-4.165.498-8.69.488-12.406-1.73zm43.907-13.037c16.187-1.95 26.946-18.36 28.963-33.383-1.44-12.201-5.132-24.122-8.155-35.993-5.173-12.839-16.315-21.89-27.735-28.972-17.028-16.027-15.79-41.916-12.393-63.152.868-5.387 2.045-21.56-1.402-20.959-6.702 18.39-17.184 38.845-8.873 58.471 7.28 29.162 35.296 46.64 45.622 74.157 2.573 6.08-.293 23.623-3.057 21.24 4.081-14.777-1.406-30.072-11.911-40.724-11.744-10.188-23.915-20.606-29.932-35.401-2.192-4.488-9.61-22.9-6.758-9.118 4.798 16.561 14.232 31.447 19.78 47.68-4.934-5.452-8.327-15.405-12.419-22.682-4.229-10.24-12.43-19.14-12.099-30.771-.994-12.812.571-25.74-1.341-38.494-12.422 19.57-11.717 43.535-14.374 65.724 5.262 19.293 14.33 37.94 28.934 51.885 10.153 11.634 9.634 28.484 2.575 41.154 5.283 5.368 17.572-.355 24.575-.662zm51.737-26.512c24.118-10.2 36.112-35.224 45.897-57.885 6.06-11.348 9.36-23.808 13.768-35.75 8.307-20.457 13.783-43.635 8.433-65.498-8.84-23.13-32.193-35.494-46.603-54.632-8.424-10.099-15.922-20.949-22.668-32.23-1.237 13.107 10.895 23.366 16.633 34.396 10.837 15.68 22.816 32.293 23.891 52.02-5.754-4.554-6.016-19.298-11.623-26.96-7.554-15.242-18.835-28.212-28.138-42.285-4.337-6.905-2.793-30.844-14.568-18.254-17.772 12.693-25.102 33.876-32.763 53.333-8.564 23.435-6.041 49.071-1.703 73.118-8.856-14.537-5.785-32.734-9.95-48.338-5.064 15.778-3.333 32.82-6.598 48.981 1.486 15.335.963 34.792 15.19 44.411 9.065 5.369 16.102 17.528 22.564 22.388 9.487-9.692 11.389-24.418 16.692-36.534.44-5.918 4.547-11.386 4.563-1.72 5.579 3.932 7.481-16.207 10.161-21.925 4.075-15.058 4.013-31.244-.43-46.058 9.358 7.811 8.811 21.583 9.177 32.84-.744 21.414-10.06 41.277-18.747 60.456-3.201 10.357-16.527 15.04-16.48 26.21 1.868 16.578 18.043 7.033 26.588 1.955 13.515-7.462 22.538-20.285 31.246-32.527 7.788-5.6-4.349 11.68-5.741 14.442-10.214 15.943-24.744 30.696-43.747 35.168-.39 7.846-4.428 32.268 8.694 23.957l6.262-3.079zm-1.738-57.574c15.318-14.662 29.145-30.853 41.524-48.06-3.721 15.756-16.512 27.173-26.25 39.427-4.37 5.643-19.443 19.018-21.033 14.444 1.624-2.225 3.902-3.808 5.759-5.81zm-87.983-80.34c-2.85-.33 2.046 6.092 0 0z"/>
</svg>
