<svg xmlns="http://www.w3.org/2000/svg" width="1278.065" height="1569.494" viewBox="0 0 338.155 415.262">
  <path fill="none" d="M.5.5h337.155v414.262H.5z" paint-order="stroke fill markers"/>
  <path class="hair" fill="#502d16" d="M172.566 36.063c-9.328-.037-19.385 1.525-24.735 9.764-6.34.169-16.01 7.07-21.558 13.592-5.517 8.534-12.229 16.195-17.217 25.048-5.114 10.815-7.438 23.12-7.11 35.126.752 10.042-10.822 18.704-11.244 35.416.785 9.998 5.171 15.397 9.337 24.316 3.972 8.503 4.857 12.587 4.88 22.02.023 8.803 5.712 16.102 5.037 25.45.687 9.71 5.822 17.51 7.736 26.944 3.713 4.246 2.177 9.054 3.295 13.07-2.533.165-13.188 6.863-10.543 12.387-3.681 6.332 1.82 13.173 8.964 15.837 1.141-.011 2.244.906 3.293-.507 9.496 1.989 17.087-7.581 13.967-17.242-5.354-6.781-5.232-16.213 2.21-21.447 8.482-8.521-.753-19.074.454-28.032-1.847-10.83.11-22.99-6.743-31.458-6.96-8.604-9.867-16.796-15.015-26.1-3.465-2.794-4.699-6.266-5.292-10.002 5.446-26.873 14.836-45.074 25.974-56.192 11.91-11.888 25.806-15.713 39.183-13.445 26.755 4.534 51.467 33.628 53.022 72.135a.5.5 0 0 0 .093.295c-7.38 5.766-11.79 17.412-11.643 27.276 5.139 7.491-4.42 15.27.757 21.99 4.764 6.947-2.744 14.866 1.325 22.437 3.97 6.174 6.716 13.876 8.84 20.112-.53 3.812-10.22 8.418-9.384 15.796-.8 5.692-6.006 2.134-4.99 4.793 7.522 4.491 11.525 12.866 20.498 15.613 7.986 1.647 9.283-9.048 12.936-13.609 4.136-9.146-13.834-15.75-6.444-22.219 5.534-3.195 8.114-9.696 8.935-15.728 2.855-7.497-4.857-14.555-3.808-19.609 6.075-7.001-1.332-17.011 2.142-22.932 6.034-7.885.457-19.233-4.45-26.035 5.165-6.417.25-16.323 3.002-23.918 1-10.57 1.269-21.961-4.129-31.51-6.26-9.593-7.837-21.155-12.833-31.315-3.8-11.385-11.954-20.417-19.023-29.84-8.946-9.092-20.754-16.156-33.446-18.059a116.45 116.45 0 0 0-6.274-.218z"/>
  <path d="M172.566 36.063c-9.328-.036-19.385 1.525-24.735 9.764-6.341.169-16.01 7.07-21.558 13.592-5.517 8.534-12.229 16.195-17.217 25.048-5.115 10.815-7.438 23.12-7.11 35.126.752 10.042-10.822 18.704-11.244 35.416.785 9.998 5.171 15.397 9.337 24.316 3.972 8.503 4.857 12.587 4.88 22.02.022 8.803 5.712 16.102 5.036 25.45.688 9.71 5.823 17.51 7.737 26.944 3.713 4.245 2.177 9.054 3.295 13.07-2.533.165-13.188 6.864-10.543 12.387-3.681 6.332 1.82 13.173 8.964 15.837 1.142-.011 2.245.906 3.293-.507 9.496 1.989 17.087-7.581 13.967-17.242-5.354-6.781-5.232-16.213 2.21-21.447 8.482-8.52-.753-19.075.454-28.032-1.847-10.83.11-22.99-6.743-31.458-6.96-8.604-9.867-16.796-15.015-26.1-8.727-7.038-3.317-18.371-9.096-27.413.2-11.22 2.34-22.571 5.366-33.418 4.738-11.497 9.944-23.308 18.51-32.434 7.154-11.08 29.787-12.082 17.693-30.142 6.305-10.386 20.002-8.943 30.427-8.588 10.173 2.7 20.175 7.561 28.132 14.553 6.849 8.659 14.096 17.326 18.931 27.294 4.536 8.94 6.577 18.804 10.385 27.89 5.398 10.383 9.458 21.47 8.318 33.4.615 12.379-5.117-2.086-4.105-6.3 1.36-10.493-4.32-19.695-7.752-29.14-2.284-10.006-2.339.204.027 4.112 3.983 9.291 6.3 19.214 5.489 29.375 3.66 7.666 9.29 20.312 2.48 28.812-5.646 12.59-4.432-4.936-11.42-5.525-7.624 5.65-12.198 17.546-12.048 27.59 5.139 7.492-4.42 15.271.757 21.992 4.765 6.947-2.745 14.865 1.324 22.436 3.971 6.174 6.717 13.875 8.84 20.111-.528 3.812-10.22 8.42-9.383 15.797-.8 5.693-6.006 2.134-4.99 4.794 7.522 4.49 11.525 12.866 20.497 15.612 7.987 1.648 9.284-9.048 12.937-13.61 4.136-9.145-13.834-15.75-6.444-22.218 5.534-3.195 8.114-9.696 8.935-15.727 2.855-7.498-4.857-14.556-3.808-19.61 6.075-7-1.332-17.012 2.142-22.932 6.033-7.885.457-19.234-4.45-26.035 5.165-6.417.25-16.323 3.002-23.918 1-10.57 1.269-21.96-4.129-31.51-6.26-9.593-7.837-21.155-12.833-31.315-3.8-11.385-11.955-20.417-19.023-29.839-8.946-9.093-20.754-16.157-33.446-18.06-2.008-.116-4.122-.21-6.274-.218zm8.661 8.587c1.073 2.342 17.904 7.05 22.453 13.902 12.596 8.263 18.85 22.413 26.627 34.76l1.26 1.522.583.573c-3.86-10.97-10.348-20.843-17.518-29.856-9.684-8.84-19.93-18.901-33.405-20.9zm-14.66 3.329c-3.465-.01-6.815.737-9.305 2.689 4.197 2.357 18.106-3.119 25.22 2.504-2.266-2.404-9.3-5.176-15.915-5.193zm-21.512.561c.544-.007 1.094.029 1.651.11 12.457 7.795-.562 17.373-8.902 21.514-10.118 5.997-16.048 16.78-21.066 27.105-5.958 10.915-8.154 23.248-9.98 35.463-.23.212-.344 5.14-1.01.978-1.056-10.948-2.362-22.269.786-33.043 1.902-14.033 11.185-25 18.545-36.463 5.162-5.954 11.822-15.562 19.976-15.664zm.37.913c-10.587 4.614-17.248 15.376-23.824 24.52 2.868-2.788 5.022-6.241 7.872-9.06 3.537-5.692 15.276-12.68 15.951-15.46zm5.497 1.455c.043.003.095.01.158.023.668.987-.8-.058-.158-.023zm82.583 66.837c-1.041.444.688 16.21 1.546 22.18 2.685-4.825-.837-15.638-1.546-22.18zM102.69 133.113c.528.03 1.132 1.142 1.83 3.874 2.802 9.676 9.111 21.352 1.892 30.69l-.756 1.88-.476 1.423c-3.144-1.727-10.678-4.283-11.654-16.725 1.484-13.588 7.278-21.25 9.164-21.142zm128.802 30.935c.678 2.921-7.071 10.36-6.253 16.17.306 14.738 2.75-5.232 5.603-9.917 4.566-9.992 3.541 3.147.381 7.117-1.203 13.655 1.8-2.915 4.26-6.705 3.447 9.887-3.507 17.928-11.397 22.537-.169-.673-2.173 3.28-1.903.942-1.922-10.954 3.36-21.761 9.309-30.144zm-120.779 1.832c4.968 1.904 12.001 16.779 9.204 24.207-4.54 8.892-2.32-6.607-3.77-8.79-1.648-6.445-2.162-6.6-1.31.144 1.186 12.479-2.883-.688-4.111-5.738-3.418-1.452.977 13.288 4.295 15.989-5.48-2.348-10.494-18.3-4.308-25.812zm-8.915 6.928c1.26-.053 5.06 6.39 4.515 9.89.894 3.609-4.137-4.516-4.236-5.64-.891-3.048-.811-4.228-.28-4.25zm142.394 1.43c.327-.024.812.448 1.355 1.263a4.592 4.592 0 0 0-1.453-1.24.29.29 0 0 1 .098-.024zm-1.544 1.617c1.879.162 5.675 12.204 1.084 15.554-.068 3.346 5.123-8.78 2.516-14.715 2.99 5.649 6.492 19.316-3.096 22.189-.832.607-1.62 1.295-2.514 1.813.669-5.91-7.414-12.859-2.367-19.17-.65-8.776 4.669-2.544 3.62 2.535-2.792 11.001 4.94-4.087.099-7.489.16-.521.39-.74.658-.717zm-7.684 15.7c1.458-.115-4.98 10.312-4.77 13.55.4 13.005 2.364-6.948 5.974-10.881 4.747 6.563-3.27 16.955-8.837 22.558-3.761 2.636-4.296-3.403-5.983-5.401-1.86-6.848 2.191-13.968 7.443-18.076-1.215 3.075-5.413 15.122-2.161 22.192-.447-3.834.758-15.454 4.934-20.977 1.966-2.075 2.992-2.933 3.4-2.965zm-109.048.559c.555-.048 5.227 6.282 6.042 9.126 3.82 7.083-2.544 14.273-7.714 18.612-4.205.8-3.822-13.489-5.032-18.008.133-12.806 4.001 5.509 2.203 9.53 3.66-2.024 2.635-13.457-.125-18.096 6.37-4.274 8.47 14.483 4.216 19.303 2.17 1.123 6.142-12.142 2.51-16.253-1.834-3.037-2.334-4.194-2.1-4.214zm-15.71.315c.55.024 1.205.494 1.96 1.55-1.274 7.34-1.985 16.473 5.655 21.294.975 3.385-4.752-4.064-5.525-4.566-4.964-1.86-5.46-18.42-2.09-18.278zm6.553 1.343c.052.013.128.08.235.236-.226.692-.46-.289-.235-.236zm-2.537 2.66c1.209-.048 2.98 13.682 3.038 16.048.904 2.774-.61.211-.596-.143-3.033-3.954-3.822-8.575-3.162-13.363.192-1.787.44-2.532.72-2.543zm130.51 5.339c6.317 3.124-.083 17.475-3.355 23.964-1.621 3.443-1.115-.146-1.206-1.17.608-4.628-7.376-19.999-.558-11.984 1.651 9.583 3.415.673.328-3.798-.378-12.022 6.885 7.96 1.505 11.366 4.855-2.297 3.101-14.142 3.285-18.378zm-133.376 12.31c2.785 5.314 3.394 14.237 7.333 18.615-6.052-.294-7.182-12.52-7.333-18.615zm122.632.339c.326.01.734.136 1.24.4 4.92 9.448 1.358 18.214-8.309 21.217-4.318.385-3.968-8.601-3.827-11.959 2.403-8.99 3.044-.687 1.525 3.689 3.397 8.89 1.087-.663 1.98-4.619 3.485-10.73 7.226-1.748 6.7 5.06 4.533 2.335-3.15-13.897.691-13.788zm-100.577.956c3.698.111 4.138 14.441 1.122 18.504-7.853 10.782 2.277-8.22-1.324-12.242-1.884 4.226-2.259 16.541-5.563 23.21-2.767-3.224-1.196-12.728.787-17.99-3.978-.477-5.316 11.3-4.128 16.511-5.139-4.95-2.532-19.512 5.237-24.204 1.542-2.736 2.834-3.82 3.87-3.789zm-18.023 2.354c1.868-.024 6.384 4.683 5.49 7.764-2.12 9.347-3.006 1.177-5.087-2.918-1.633-3.522-1.381-4.833-.403-4.846zm129.49 7.66c1.267.009 4.426 4.1 3.393 7.868.822 5.9-.572 12.008-4.317 16.616-6.203 7.942-9.55-9.371-6.779-13.54 1.988-11.708 4.856.402 3.679 5.55-2.525 12.655 5.492-3.925 2.082-8.53-3.428-10.552 5.466.169 3.001 6.026-3.066 11.686 3.31-5.117-.335-9.375-1.552-3.341-1.436-4.62-.725-4.615zm-10.663 8.86c-.48 1.352-.542 13.308-.712 16.204-7.995 3.577-3.754-21.195-4.447-9.412 1.531 14.268-.502-4.125 5.159-6.791zm-119.55.957c1.22.015 5.016 4.323 5.09 7.078 3.445 6.123-3.499-.93-3.985-2.728-1.678-3.188-1.745-4.358-1.105-4.35zm22.855.014c4.284 8.237 1.077 18.76-6.652 23.787-5.088-3.06-.278-13.745 2.888-18.634 4.6-.76-2.66 12.92-3.103 16.76 5.784-4.51 5.095-14.96 6.867-21.913zm-14.374 13.75c1.193-.052 3.598 2.557 2.33 5.953.895 2.803-1.346-1.24-1.512-1.51-1.883-3.127-1.634-4.408-.818-4.443zm-3.397.178c1.444.04 5.735 10.158 8.017 13.153-5.405-.838-6.545-8.607-8.267-13.022.07-.092.153-.134.25-.131zm117.62 3.369c1.034-.036 1.399.698-.286 2.97-8.37 1.516-2.164-2.885.286-2.97zm-2.37 5.47c5.919.108 8.281 11.858 5.732 16.379-7.937 4.351 1.996 5.143 3.19-.17-.455-11.918 5.64 2.08 1.193 6.237-7.04.314-1.153 3.977-5.103 8.016-1.206.49-8.88.854-5.126-1.986-5.5-1.826-9.607-8.447-16.077-11.179 3.206-.907 5.855-17.371 13.852-16.776.831-.373 1.612-.535 2.34-.521zm-104.378 6.52c1.684.023.772 2.406-2.445 4.105-2.054 3.543-10.423-7.137-.744-2.864 1.472-.897 2.53-1.25 3.189-1.24zm-9.325 3.189c.396 1.091.923 1.867 1.963 2.796 7.423.015 13.858 5.332 11.125 14.015-5.98 8.66-2.18-1.26-1.748-5.555-2.292-6.658-2.31-2.839-1.707 1.632-4.227 3.072.372 11.987-4.645 11.025-4.219-3.735-3.694-.375-6.936-.114-10.904-2.226 2.042-6.324.273-9.975-8.12 8.347-7.651-4.273-3.954-8.968 1.794-2.913 4.449-4.763 5.63-4.856z"/>
</svg>
