<?xml version="1.0" encoding="UTF-8" standalone="no"?>
<!-- Created with Inkscape (http://www.inkscape.org/) -->

<svg
   xmlns:dc="http://purl.org/dc/elements/1.1/"
   xmlns:cc="http://creativecommons.org/ns#"
   xmlns:rdf="http://www.w3.org/1999/02/22-rdf-syntax-ns#"
   xmlns:svg="http://www.w3.org/2000/svg"
   xmlns="http://www.w3.org/2000/svg"
   xmlns:sodipodi="http://sodipodi.sourceforge.net/DTD/sodipodi-0.dtd"
   xmlns:inkscape="http://www.inkscape.org/namespaces/inkscape"
   width="338.15475mm"
   height="415.26193mm"
   viewBox="0 0 338.15475 415.26193"
   version="1.1"
   id="svg8"
   inkscape:version="0.92.3 (2405546, 2018-03-11)"
   sodipodi:docname="Backhair06.svg">
  <defs
     id="defs2" />
  <sodipodi:namedview
     id="base"
     pagecolor="#ffffff"
     bordercolor="#666666"
     borderopacity="1.0"
     inkscape:pageopacity="0.0"
     inkscape:pageshadow="2"
     inkscape:zoom="0.69999999"
     inkscape:cx="810.90844"
     inkscape:cy="1013.2889"
     inkscape:document-units="mm"
     inkscape:current-layer="layer1"
     showgrid="false"
     inkscape:window-width="1920"
     inkscape:window-height="1001"
     inkscape:window-x="-9"
     inkscape:window-y="-9"
     inkscape:window-maximized="1"
     inkscape:snap-global="true"
     fit-margin-top="0"
     fit-margin-left="0"
     fit-margin-right="0"
     fit-margin-bottom="0" />
  <metadata
     id="metadata5">
    <rdf:RDF>
      <cc:Work
         rdf:about="">
        <dc:format>image/svg+xml</dc:format>
        <dc:type
           rdf:resource="http://purl.org/dc/dcmitype/StillImage" />
        <dc:title />
      </cc:Work>
    </rdf:RDF>
  </metadata>
  <g
     inkscape:label="Ebene 1"
     inkscape:groupmode="layer"
     id="layer1"
     transform="translate(1027.0834,-13.766026)">
    <rect
       style="opacity:1;fill:none;fill-opacity:1;fill-rule:evenodd;stroke:none;stroke-width:0.99999988;stroke-linecap:round;stroke-linejoin:miter;stroke-miterlimit:4;stroke-dasharray:none;stroke-dashoffset:0;stroke-opacity:1;paint-order:stroke fill markers"
       id="rect1307-4"
       width="337.15475"
       height="414.26193"
       x="-1026.5834"
       y="14.266026"
       inkscape:label="Frame" />
    <path
       style="fill:#241c1c;stroke-width:1"
       d="m -805.18819,173.86875 c -0.66899,-0.005 -1.32188,0.0907 -1.90026,0.22122 -3.92696,0.88721 -7.35256,3.99657 -10.29648,8.29857 -2.94393,4.302 -5.4173,9.82243 -7.39326,15.65397 -3.86562,11.40834 -5.83115,23.97037 -5.51744,30.96865 -0.50751,1.82876 -0.70625,5.38585 0.11212,7.02009 2.86272,7.02497 0.68371,11.03216 -1.31734,17.69674 4.44649,5.87737 1.18489,15.79436 9.89591,17.32008 1.57305,0.37617 3.30414,0.43901 4.83982,-0.13701 2.48926,-5.96721 9.64132,-0.92261 11.26505,-7.34496 -7.01048,-3.86069 0.65243,-8.79265 6.20896,-6.88109 9.83016,-1.2914 8.91152,-15.05572 2.18277,-19.80824 1.03021,-3.03454 9.09798,-7.95935 7.79287,-13.8409 -0.95501,-7.68577 -12.81773,-8.65064 -8.08584,-17.28072 -3.29713,-8.11202 -3.33357,-16.86826 -2.69095,-25.22453 -0.0166,0.033 -0.0309,0.0661 -0.0473,0.0992 0.0166,-2.83804 -0.70266,-4.59267 -1.83052,-5.61359 -0.75441,-0.68289 -1.64793,-1.00243 -2.54598,-1.10709 -0.2245,-0.0261 -0.44911,-0.0389 -0.67212,-0.0404 z m -104.70859,13.16829 c -0.41767,-0.01 -0.84038,0.0217 -1.25853,0.0966 -0.83631,0.1502 -1.65422,0.4767 -2.38404,0.99647 -1.36606,0.97291 -2.38393,2.63523 -2.57736,4.9913 -0.97869,4.18532 -2.26205,10.37245 -0.3712,14.71529 -6.04579,4.23229 -7.7033,10.80415 -5.62703,17.24186 -5.78082,-1.52718 -3.6247,7.31296 -0.83952,10.65471 -0.7267,1.82112 -10.27648,6.0922 -6.35347,12.70991 5.40206,2.90992 0.72059,5.13757 5.66989,8.14461 -5.35564,1.43195 1.23726,13.89962 7.55171,13.71335 5.71066,-4.43304 6.92883,2.11165 12.40452,3.09604 6.58127,1.8261 6.30234,-3.08994 1.35019,-5.4148 -2.75429,-8.898 6.48648,-2.23398 10.76384,-1.52958 7.16965,1.21522 -0.5143,-2.68096 1.93114,-5.6958 7.79485,-6.36328 4.28132,-15.24399 -2.25052,-20.85851 1.41407,-2.77176 5.22894,-8.11811 2.49915,-11.20924 a 0.48211785,0.48211785 0 0 0 -0.10016,-0.18984 c -0.50001,-0.61364 -0.8815,-1.09454 -1.11505,-1.50815 -0.23355,-0.41359 -0.32815,-0.74176 -0.30292,-1.15092 0.42036,-6.82073 -0.176,-15.55646 -2.78362,-23.06767 -2.60764,-7.5112 -7.27822,-13.84464 -14.97789,-15.58421 -0.39882,-0.09 -0.81149,-0.14158 -1.22913,-0.15148 z"
       id="path2135"
       inkscape:connector-curvature="0"
       inkscape:label="Füllung_Hinterhaar" />
    <path
       style="fill:#000000;stroke-width:1"
       d="m -903.68184,273.39719 c -5.4757,-0.98436 -6.69396,-7.52913 -12.40464,-3.09607 -6.31444,0.18627 -12.90743,-12.28136 -7.55179,-13.71331 -4.94931,-3.00706 -0.2678,-5.23484 -5.66985,-8.14477 -3.92302,-6.61771 5.62719,-10.88872 6.35386,-12.70987 -2.78518,-3.34174 -4.94174,-12.18164 0.83908,-10.65447 -2.07626,-6.43769 -0.41876,-13.00994 5.62703,-17.24221 -2.26197,-5.19519 0.0236,-13.06973 0.88902,-16.94351 1.06645,7.13186 -0.27037,14.66825 1.47247,21.7825 -4.90363,4.30789 -0.35268,14.57573 2.62984,14.86002 -0.37939,-12.41645 5.29427,7.92199 -2.59304,4.84196 4.42356,-6.04415 -8.72938,4.28951 -5.06628,-0.46765 4.58487,-0.0924 6.68143,-8.02021 1.79417,-1.53549 -7.66668,0.14197 6.17103,-2.62596 -0.062,-6.83609 -3.48985,-4.26107 6.6251,-19.69576 -1.91165,-10.30928 -5.64877,3.24732 1.17855,10.30207 -2.06071,14.17643 -5.27612,-1.37655 -1.18051,4.76496 -0.68864,6.87728 2.98363,3.43292 11.17867,-4.53221 4.57301,2.09706 -7.43571,-0.1556 -15.2807,10.66049 -7.25863,13.72235 3.4202,-2.96464 -1.53566,7.18992 4.09788,7.31726 2.88489,-2.88164 4.28077,-3.98863 2.2445,1.05982 -3.7497,1.92566 -7.51443,-0.74101 -4.12576,3.8855 0.56716,7.15732 15.24279,9.26382 10.74358,0.0968 4.1417,-5.17627 -0.40069,-9.64857 -0.94791,-14.74803 3.02067,5.91137 6.01709,11.22007 2.53778,17.61957 -1.18727,6.64232 16.10953,9.59217 6.17284,2.95972 1.18174,-4.95779 0.0423,-9.19056 0.17873,-13.78125 -2.04405,5.9788 12.17627,13.43471 5.42648,5.18676 0.49538,-5.52864 -1.8189,-3.13241 -0.22274,0.21601 -2.8139,-0.95071 -1.96588,-13.2085 0.23733,-6.71746 0.40614,-3.34571 -3.85251,-8.89097 0.89767,-3.6033 -0.98651,3.63815 2.14226,16.29484 4.91711,13.20803 3.98979,-6.76438 10.45883,-14.64059 0.88366,-20.94662 -3.95898,-4.55709 4.08602,-9.08364 0.86541,-14.28103 5.28151,2.71863 0.58151,9.17964 -1.02289,12.32449 6.53184,5.61452 10.04502,14.49523 2.25015,20.85852 -2.44543,3.01485 5.23869,6.91116 -1.93098,5.69592 -4.27735,-0.70439 -13.51804,-7.36853 -10.76376,1.52945 4.95216,2.32487 5.23094,7.24104 -1.35033,5.41491 z m 82.07681,-2.34911 c -8.71103,-1.52573 -5.44929,-11.44262 -9.89579,-17.32 2.00105,-6.66459 4.17993,-10.67222 1.31719,-17.69719 -1.58934,-3.17377 0.6538,-13.61765 1.55521,-4.51854 1.83408,4.06565 7.7869,9.5141 0.77509,4.31134 -2.30511,1.7984 7.03292,8.76558 10.4827,7.12385 8.83178,-2.82018 -5.90325,-13.16129 -3.07316,-15.7332 2.25566,5.32475 14.11422,15.58321 2.47908,17.91489 -6.49235,-1.90576 -13.20591,4.76548 -10.21394,11.07496 3.06534,-7.83073 2.50626,0.6475 3.36172,-1.16422 2.39418,-9.75822 12.6424,-6.46309 19.44073,-4.852 3.85053,-1.36473 -3.27373,-8.6475 2.97098,-3.3975 0.42056,11.96148 -18.15142,-3.75684 -19.9259,8.90837 -0.22574,2.77266 4.85456,5.51452 -1.26511,4.3252 -8.15387,-3.3214 3.50593,6.67871 6.16542,-0.0984 -1.18953,6.48905 -14.32475,0.6588 -5.60255,5.88317 -7.46461,4.91312 12.60488,4.38709 9.07658,-3.47184 1.76225,4.82874 9.19162,2.21957 3.65374,-0.67459 0.32567,-7.79397 4.46022,-7.48307 10.89485,-7.24578 10.55618,-0.26797 3.49738,-20.4219 -2.59928,-15.96166 6.08944,2.36036 2.46033,15.7914 0.67638,12.70452 6.78229,-3.30516 -9.19544,-13.04894 -0.83831,-9.04815 2.85598,3.08179 5.27395,6.92665 2.03861,0.5126 -9.16772,-6.71825 6.60571,-8.7517 7.28632,-15.0156 6.17775,-8.93516 -10.40351,-12.61302 -11.84316,-20.9613 -1.46878,-5.00299 0.4049,-12.0128 0.96383,-2.93027 3.83827,11.08942 -1.02175,-12.55515 2.60788,-1.63574 -0.78054,3.2615 0.58291,13.31113 2.02632,4.83965 -1.60298,-8.54698 -5.34543,-17.81714 -1.00253,-26.39002 -0.64262,8.35627 -0.60631,17.11254 2.69082,25.22454 -4.73188,8.63008 7.13092,9.59494 8.08592,17.28071 1.30514,5.88157 -6.76252,10.80642 -7.79272,13.84095 6.72875,4.75252 7.64726,18.51686 -2.18289,19.80826 -5.55654,-1.91154 -13.21959,3.02015 -6.20912,6.88082 -1.62372,6.42236 -8.77576,1.37795 -11.26503,7.34518 -1.53568,0.57601 -3.26686,0.51316 -4.83988,0.13701 z m -2.86202,-27.75329 c -0.13752,-3.50385 -6.93465,-1.76835 -1.53426,0.48781 z m -93.86444,20.6861 c -7.04496,-3.61591 6.3191,0.0265 2.93304,-7.49497 -4.30542,-9.16215 7.32905,7.7951 -2.93304,7.49497 z m 99.37278,-1.47035 c 0.46054,-1.01812 0.16795,1.0249 0,0 z m -74.04433,-4.89938 c 2.51226,-1.78826 4.36235,-8.37095 4.8922,-8.39202 2.02871,3.5774 -3.66748,8.52169 -4.8922,8.39202 z m -24.20713,-7.72699 c -6.63968,-9.9699 11.8697,-10.84661 11.92303,-20.01185 -1.36545,-3.52583 -6.57488,-12.42749 -3.42345,-13.88494 1.1399,7.84689 10.17869,16.82897 -0.23154,22.77641 -5.3199,1.55296 -10.30251,5.37249 -8.26804,11.12038 z m 11.68323,-1.60501 c -9.53911,-8.27205 13.83103,-8.35348 7.55102,-18.45411 2.11468,-3.33073 4.22268,10.58617 -1.72781,11.02073 -0.19494,3.34394 -4.6064,-1.80582 -4.23855,3.57055 4.11897,4.7993 -5.53949,-5.08814 -2.19937,2.30713 0.90903,0.41094 3.62777,3.24742 0.61471,1.5557 z m -21.06597,-2.3437 c -3.09088,-3.79265 6.72285,-8.13394 1.31598,-2.33785 -1.49694,0.81741 3.2022,4.99575 -1.31598,2.33785 z m 119.5874,-6.75763 c -3.51787,-4.67963 -1.9126,-10.15697 -6.64343,-14.1288 1.48513,-5.50853 8.60138,-8.05325 2.71584,-13.44507 4.38285,1.65783 10.0869,13.14289 1.35824,16.72087 6.80865,2.82253 9.27839,-10.35139 8.36689,-11.59234 8.27984,9.61193 -12.98458,12.91827 -4.93221,22.7364 l -0.12521,0.21724 -0.74011,-0.50829 z m -0.59189,-13.96332 c 3.2068,-4.08127 0.12107,-10.04345 -2.81117,-3.21044 -2.32597,2.8348 -0.17311,8.50519 2.81117,3.21044 z m -13.38067,11.77219 c -4.43124,-0.22529 -8.86579,-15.09447 -4.21625,-5.37545 0.36908,2.0899 11.5275,7.87881 4.21625,5.37545 z m 18.77654,-6.22317 c 0.0915,-0.91165 10.14993,-6.21756 7.70591,-11.13559 5.36267,4.92481 -2.62235,11.6267 -7.70591,11.13559 z m -1.3349,-15.44435 c -4.55601,-2.01698 -3.91897,-16.14789 -1.73708,-4.92964 -0.33786,1.14246 4.08002,5.83637 1.73708,4.92964 z"
       id="path826-1"
       inkscape:connector-curvature="0"
       sodipodi:nodetypes="cccccccccccccccccccccccccccccccccccccccccccccccccccccccccccccccccccccccccccccccccccccccccccccccccccccccccccccccccccccccccc"
       inkscape:label="Kontur_Hinterhaar" />
  </g>
</svg>
