<svg xmlns="http://www.w3.org/2000/svg" width="1278.065" height="1569.494" viewBox="0 0 338.155 415.262">
  <path fill="none" d="M0 0h338.667v415.256H0z" paint-order="fill markers stroke"/>
  <path class="hair" fill="#502d16" d="M219.361 69.634c-1.055-1.191-2.057 1.58-2.057 1.58-.146.607-.888 3.337-1.673 6.15-2.227 7.983-2.277 25.536-.083 34.204 2.805 11.08 5.787 17.829 9.566 21.854.299.319.555.646.74.94.091.146.166.282.22.42a.824.824 0 0 1 .059.366c0 .008 0 .005.018.026.056.074.179.201.346.345.335.287.846.65 1.428 1.018 1.165.733 2.635 1.488 3.6 1.79 1.78.556 3.228.707 4.129.537.45-.084.75-.242.924-.426.174-.184.258-.399.238-.749-.027-.454-.01-.866.062-1.201.033-.168.074-.316.155-.462.08-.147.254-.362.554-.362 0 0 .093-.622.551-2.46-.335-2.54-.613-5.927-.613-7.616v-.001c-.01-7.994-1.579-19.207-3.761-29.213-1.091-5.002-2.336-9.705-3.61-13.555-1.274-3.85-2.597-6.856-3.757-8.397-2.295-3.048-5.202-4.754-7.032-4.788zm-102.693 3.09c-2.101-.014-4.618 1.058-5.987 3.09-.27.402-.548.766-.787 1.04-.12.138-.229.253-.335.347a1.192 1.192 0 0 1-.17.129c-.067.04-.138.098-.32.098.135 0 .148-.05.112-.016a1.558 1.558 0 0 0-.188.25c-.16.254-.365.663-.587 1.178-.443 1.031-.962 2.498-1.482 4.167-1.039 3.338-2.082 7.497-2.586 10.706-.325 2.074-.855 5.427-1.178 7.452-.32 2.005-.796 5.78-1.05 8.355-.258 2.602-.76 6.436-1.124 8.562-.667 3.896-.75 8.849-.382 13.145.184 2.148.481 4.134.867 5.736.387 1.603.885 2.828 1.357 3.399a4.472 4.472 0 0 0 2.124 1.378c.365.101.7.126.937.087.236-.039.354-.118.425-.233.134-.215.25-.253.394-.336.144-.083.316-.164.514-.248.396-.167.894-.34 1.418-.487 2.3-.644 3.496-1.55 6.056-4.632.59-.71 1.266-1.435 1.888-2.04.621-.605 1.166-1.081 1.596-1.335 2.868-1.69 4.927-5.805 5.928-11.983 1-6.179.951-14.374-.24-24.088-1.583-12.921-1.839-14.597-2.633-17.257-.416-1.393-.87-3.197-1.024-4.092-.138-.798-.548-1.357-1.165-1.753-.617-.397-1.453-.613-2.38-.619z"/>
  <path d="M233.413 107.693c-.411.111-.582 8.524-.143 9.668.137.355.437.527.67.384.525-.325.163-8.498-.442-9.96-.03-.07-.057-.1-.086-.092zm-3.87-13.186c-.141.072-.017 1.69.427 4.675.37 2.517.566 4.995.438 5.507-.128.512-.099 1.067.066 1.233.618.62.526-5.762-.127-8.692-.422-1.9-.696-2.779-.806-2.723zM218.91 69.044c-1.254-.023-2.198.59-2.518 1.936-.135.562-.885 3.323-1.669 6.134-2.272 8.148-2.316 25.632-.086 34.443 2.813 11.113 5.806 17.933 9.678 22.057.56.598.965 1.242.9 1.432-.188.544 3.624 2.946 5.712 3.599 3.645 1.14 5.998.697 5.893-1.108-.05-.843.089-1.534.306-1.534.412-1.555.874-2.277 1.01-2.984-.334-2.52-.61-5.92-.61-7.557-.018-16.108-6.3-44.908-11.222-51.445-2.355-3.128-5.304-4.934-7.394-4.973zm-.078 2.177c.508.011 1.204.056 2.157.104 1.383.07 1.942.542 4.11 3.466 2.132 2.877 3.3 6.105 5.276 14.592.97 4.163 2.132 8.504 2.582 9.647.722 1.833 1.213 4.968 2.49 15.912.284 2.44.22 22.26-.074 22.514-5.113 4.422-14.978-9.023-19.361-26.391-1.467-5.812-1.696-7.246-.982-6.142.583.904.521-.484-.149-3.333-.3-1.27-.411-2.56-.25-2.863.163-.303.397-4.324.52-8.935.197-7.424.342-8.781 1.269-11.86.575-1.912 1.054-4.218 1.054-5.125 0-1.354-.165-1.62 1.358-1.586zM116.74 72.663c-2.258-.015-2.356-.774-3.828 1.41-.522.775-2.478 1.203-3.773 3.294-.527.852-4.172 10.19-5.19 16.678-.326 2.074-.856 5.426-1.179 7.45-.323 2.025-.797 5.797-1.053 8.384-.255 2.586-.76 6.424-1.12 8.528-1.353 7.908-.325 19.91 1.942 22.654 1.248 1.512 3.626 2.174 4.24 1.182.12-.194 1.045-.585 2.057-.868 2.375-.666 3.709-1.68 6.288-4.783 1.155-1.39 2.668-2.863 3.363-3.272 6.128-3.61 8.301-17.039 5.913-36.528-1.584-12.922-1.847-14.647-2.65-17.333-.41-1.375-.866-3.192-1.01-4.038-.318-1.843-2.008-2.744-4-2.758zm4.138 10.343c.242 2.427.623 4.753.847 5.17.223.418.6 2.482.836 4.586.237 2.105.72 6.034 1.076 8.733 1.336 10.15-.258 21.186-3.91 27.067-1.75 2.819-9.694 10.775-11.186 11.203-3.326.954-5.284.224-5.886-2.194-.823-3.302-.9-8.797-.107-7.654.308.444.36.048.19-1.43-.524-4.564-.638-15.165-.153-14.212.895 1.758 1.056.89.848-4.553-.212-5.553.016-7.845.734-7.4.227.14.397-.355.397-1.157 0-.771.298-3.037.664-5.035.365-1.997.718-4.552.785-5.676.14-2.386.894-5.914 1.395-6.527.192-.234.561-1.226.823-2.204 3.397-11.115 11.767-7.09 12.647 1.283zm108.664 11.5c-.14.073-.016 1.69.428 4.676.37 2.517.566 4.995.438 5.507-.128.512-.099 1.067.066 1.233.618.62.526-5.762-.127-8.692-.422-1.9-.696-2.779-.806-2.723zm3.87 13.187c-.41.111-.581 8.524-.142 9.668.137.355.437.527.67.384.525-.325.163-8.498-.442-9.96-.03-.07-.057-.1-.086-.092z"/>
</svg>
