<svg xmlns="http://www.w3.org/2000/svg" width="1278.065" height="1569.494" viewBox="0 0 338.155 415.262">
  <path fill="none" d="M0 .005h338.667v415.256H0z" paint-order="fill markers stroke"/>
  <path class="hair" fill="#502d16" d="M219.361 69.64c-1.056-1.192-2.057 1.579-2.057 1.579-.146.607-.889 3.337-1.673 6.15-2.227 7.984-2.277 25.536-.083 34.205 2.805 11.08 5.787 17.828 9.566 21.853.299.32.555.647.74.94.091.146.166.282.22.421a.824.824 0 0 1 .059.366c0 .008 0 .005.018.025.056.074.179.202.346.345.335.287.846.651 1.428 1.018 1.165.734 2.635 1.488 3.6 1.79 1.78.557 3.228.707 4.129.538.45-.085.75-.243.924-.427.174-.183.258-.399.238-.748-.027-.455-.01-.867.062-1.202.033-.167.074-.315.155-.462.08-.147.254-.362.554-.362 0 0 .093-.621.551-2.459-.335-2.54-.613-5.928-.613-7.617-.01-7.994-1.579-19.208-3.761-29.213-1.091-5.003-2.336-9.706-3.61-13.555-1.274-3.85-2.597-6.857-3.757-8.398-2.295-3.048-5.202-4.754-7.032-4.788zm-102.693 3.09c-2.101-.015-4.618 1.057-5.987 3.09-.27.401-.548.765-.787 1.04-.12.138-.229.252-.335.346a1.192 1.192 0 0 1-.17.13c-.067.04-.138.097-.32.097.135 0 .148-.05.112-.015a1.558 1.558 0 0 0-.188.25c-.16.254-.365.662-.587 1.178-.443 1.03-.962 2.497-1.482 4.166-1.039 3.338-2.082 7.498-2.586 10.706-.325 2.074-.855 5.427-1.179 7.452-.32 2.006-.795 5.781-1.05 8.356-.257 2.601-.76 6.436-1.123 8.561-.667 3.896-.75 8.85-.382 13.146.184 2.148.48 4.133.867 5.736.387 1.602.885 2.827 1.357 3.398a4.472 4.472 0 0 0 2.124 1.378c.365.102.7.126.936.087.237-.038.355-.118.426-.232.133-.216.249-.254.394-.337.144-.082.316-.164.514-.247.396-.167.894-.34 1.418-.487 2.3-.645 3.496-1.55 6.056-4.632.59-.71 1.266-1.435 1.887-2.04.622-.606 1.167-1.082 1.597-1.335 2.868-1.69 4.927-5.806 5.928-11.984 1-6.178.951-14.373-.24-24.088-1.583-12.921-1.839-14.596-2.633-17.257-.416-1.392-.87-3.196-1.024-4.091-.138-.799-.548-1.357-1.165-1.754s-1.453-.612-2.38-.618z"/>
  <path d="M233.413 107.699c-.411.11-.582 8.523-.143 9.667.136.355.437.528.67.385.525-.325.163-8.498-.442-9.96-.03-.07-.057-.1-.086-.093zm-3.871-13.187c-.14.072-.016 1.69.428 4.675.37 2.517.566 4.996.438 5.508-.128.512-.1 1.066.066 1.232.618.62.526-5.762-.127-8.692-.422-1.899-.696-2.778-.806-2.723zM218.91 69.05c-1.254-.023-2.198.59-2.518 1.937-.135.562-.885 3.322-1.669 6.134-2.272 8.147-2.316 25.631-.086 34.443 2.813 11.112 5.806 17.933 9.678 22.057.56.597.965 1.242.9 1.431-.188.544 3.624 2.946 5.711 3.6 3.646 1.14 5.999.697 5.894-1.108-.05-.844.089-1.534.306-1.534.411-1.556.873-2.277 1.009-2.985-.333-2.52-.609-5.92-.609-7.557-.019-16.108-6.3-44.908-11.222-51.445-2.355-3.128-5.305-4.934-7.394-4.972zm-.078 2.178c.507.01 1.204.055 2.157.104 1.383.07 1.942.541 4.11 3.465 2.132 2.877 3.3 6.106 5.276 14.592.97 4.163 2.131 8.505 2.582 9.648.722 1.833 1.213 4.968 2.49 15.912.284 2.439.22 22.26-.074 22.514-5.114 4.422-14.978-9.024-19.361-26.392-1.467-5.811-1.696-7.245-.983-6.141.584.904.522-.484-.148-3.334-.3-1.27-.412-2.559-.25-2.862.163-.304.397-4.325.52-8.936.196-7.424.342-8.781 1.268-11.86.576-1.911 1.055-4.217 1.055-5.125 0-1.354-.166-1.619 1.357-1.585zM116.74 72.669c-2.258-.016-2.356-.775-3.829 1.41-.522.775-1.074 2.301-3.772 3.294-.94.345-4.172 10.189-5.19 16.677-.326 2.074-.856 5.427-1.179 7.45-.323 2.025-.797 5.798-1.053 8.384-.256 2.587-.76 6.425-1.12 8.528-1.353 7.908-.325 19.91 1.942 22.655 1.248 1.511 3.626 2.174 4.24 1.181.12-.194 1.045-.585 2.056-.868 2.376-.665 3.71-1.68 6.289-4.783 1.155-1.39 2.668-2.862 3.363-3.271 6.128-3.611 8.301-17.04 5.913-36.528-1.584-12.922-1.848-14.648-2.65-17.333-.41-1.376-.866-3.193-1.011-4.038-.317-1.844-2.007-2.745-4-2.758zm-.11 1.562c2.538.074 3.618 2.464 4.248 8.78.242 2.427.623 4.753.846 5.17.224.418.6 2.482.837 4.586.236 2.105.72 6.035 1.076 8.734 1.336 10.15-.258 21.186-3.91 27.067-1.75 2.818-9.694 10.775-11.186 11.203-3.327.953-5.284.223-5.886-2.195-.823-3.302-.9-8.797-.107-7.653.307.444.36.048.19-1.431-.524-4.564-.638-15.165-.153-14.211.895 1.757 1.056.89.848-4.553-.212-5.554.016-7.845.734-7.401.227.14.397-.355.397-1.157 0-.77.298-3.037.664-5.034.365-1.998.718-4.552.784-5.677.141-2.385.895-5.914 1.396-6.526.191-.234.561-1.226.823-2.205.824-3.085 1.376-1.735.037 2.574-.475 2.448-.648 4.352-.446 4.88.378.986.22 1.41 1.428-3.835 3.508-8.829 2.67-10.35 6.199-11.01.425-.079.817-.116 1.18-.106zm112.912 20.281c-.14.072-.016 1.69.428 4.675.37 2.517.566 4.996.438 5.508-.128.512-.1 1.066.066 1.232.618.62.526-5.762-.127-8.692-.422-1.899-.696-2.778-.806-2.723zm3.87 13.187c-.41.11-.581 8.523-.142 9.667.136.355.437.528.67.385.525-.325.163-8.498-.442-9.96-.03-.07-.057-.1-.086-.093z"/>
</svg>
