<svg xmlns="http://www.w3.org/2000/svg" width="1278.065" height="1569.494" viewBox="0 0 338.155 415.262">
  <path fill="none" d="M.5.5h337.155v414.262H.5z" paint-order="stroke fill markers"/>
  <path class="hair" fill="#502d16" d="M169.649 71.753c-27.924.15-53.64 13.966-78.908 32.272l-.67-.091c-3.262 5.535-16.91 11.676-7.353 18.418 8.619.427-1.284 6.925-1.281 10.869 2.702 4.016-1.142 9.98 3.576 11.965-.149 4.973-6.11 13.792 3.032 16.146 6.258-1.626 5.19 4.669 9.89 6.915 1.26 4.793 9.201 6.447 7.585 10.642-7.312-1.58-3.386 6.675 1.685 7.483.978.205 1.991.302 2.998.266 44.317 23.33 79.762 20.008 110.072 1.82 0 .34 0 .678.016 1.006.375 2.263 2.504 1.677 5.281 1.608-.971 1.52-1.528 5.042 1.024 6.091 1.745.527 3.657-.325 4.786-1.692.913-6.724 10.647-3.876 10.488-10.9 8.03 1.49 7.366-16.678 1.674-9.449-9.225 1.123-1.65-7.352 3.3-5.078 3.396-6.807 11.115.251 15.336-6.29 7.181-4.81-1.072-10.945.83-15.863 10.618-2.067 3.191-14.494-.726-19.995.218-.156.327-.466.09-.737-33.91-40.74-64.334-55.558-92.726-55.406z"/>
  <path d="M169.643 71.812c-27.924.15-53.64 13.966-78.908 32.272l-.67-.092c-3.262 5.535-16.91 11.676-7.353 18.419 8.618.426-1.284 6.924-1.282 10.868 2.703 4.016-1.141 9.98 3.576 11.966-.148 4.973-6.109 13.792 3.033 16.145 6.258-1.626 5.19 4.67 9.89 6.915 1.26 4.793 9.2 6.447 7.585 10.643-7.312-1.58-3.386 6.674 1.684 7.483.978.205 1.992.302 2.999.265 44.317 23.33 79.762 20.008 110.071 1.821 0 .339.01.678.016 1.005.376 2.263 2.505 1.677 5.282 1.608-.972 1.52-1.528 5.042 1.023 6.092 1.745.527 3.658-.326 4.787-1.692.913-6.724 10.647-3.877 10.487-10.9 8.03 1.49 7.367-16.678 1.675-9.45-9.225 1.123-1.65-7.351 3.3-5.078 3.396-6.807 11.115.251 15.336-6.29 7.181-4.809-1.072-10.945.83-15.863 10.618-2.067 3.19-14.494-.726-19.994.218-.157.327-.467.09-.737-33.91-40.742-64.334-55.558-92.726-55.406zM92.167 104.28c24.935-17.955 50.212-31.322 77.482-31.468 27.943-.15 57.943 14.34 91.597 54.625l-1.068-.146c2.51 2.627 5.892 7.95 3.158 12.424 4.718-5.794 4.494 6.161-.152 6.578-5.625.588 3.427 10.802-4.018 13.352-7.994-3.387 1.383 6.311 3.07-.08 1.324-7.39 3.341-.447-.64 1.87-2.626 6.243-9.734 3.715-12.399 1.908 1.192 7.995-8.178 2.025-8.475 6.188-7.988-2.293-1.564 10.186 3.393 7.04 5.008-5.785.987 9.23-4.154 6.966-2.502-2.839-4.387-7.078-2.53-.664 8.021 5.318-3.633 4.028-5.295 8.194-2.35-2.6-2.454 7.366-4.842 3.092.1-2.256-.177-3.33-.581-3.64-.348-.66-1.484-1.622-1.913-1.888-6.21-1.485-.546-15.722 4.697-18.048 4.05-1.19 1.405-6.541 4.39-9.534-1.49.85-1.223 2.873-4.612 7.584-6.83 3.178-8.856 11.724-9.003 18.718-29.883 18.138-64.588 21.735-108.32-.868.174-.037.348-.076.52-.123 1.659-1.323 2.487-2.105 2.721-2.54.938-1.03 1.41-2.296 1.513-3.688.11-1.47-.177-3.087-.71-4.802-1.052-3.374-3.076-7.145-5.135-10.893-.337-1.886-2.174-7.06.612-8.2-2.837-7.192-4.215-15.08-3.713-23.017.265-8.845 1.47-16.046 3.44-21.846-6.11 8.443-6.046 11.204-4.154 30.652.415 3.233-1.18 10.661 3.1 11.721-.386 4.186-3.043 4.86-1.155 9.545.433.541.772.941 1.042 1.234.01.038.023.075.043.11 2.092 3.805 4.141 7.621 5.172 10.932.516 1.656.774 3.181.675 4.505-.097 1.288-.515 2.379-1.375 3.285-2.32.143-9.592 2.564-11.324-1.364 5.701-.23 3.854-7.086 3.65-11.565-3.16 7.372-6.55-1.972-10.226-5.246-1.083-6.307-3.907-4.212-8.973-5.682-8.413-3.457 2.728-12.221.294-13.214-1.579-2.056-4.85-6.525.372-6.807-4.95-.984-6.067-8.414-1.683-11.428 1.48-1.297 4.808-11.964.403-7.674-11.004 1.395-1.952-11.36 2.553-14.165m163.951 27.311c0-.06-.257 4.443-2.227 6.08-1.462 6.688-14.861-2.445-7.88 3.51 4.036 2.106 8.834-2.377 10.074-5.979-.025-2.612.033-3.583.034-3.61zm-164.794 5.942a9.778 9.778 0 0 0-.43.014c.593.117 1.24.143 1.94.057a16.17 16.17 0 0 0-1.046-.066 10.432 10.432 0 0 0-.464-.005zm174.563.25c-.243.297-.498.64-.766 1.035a7.48 7.48 0 0 0 .766-1.036zm-5.403 2.616c-2.171 2.474-3.677 5.209-3.186 9.098 1.696 6.193-12.434 4.746-7.06 6.648 9.655 1.714 7.41-10.541 10.246-15.746zm-7.575 1.55c-.447.037-1.33.727-2.596 1.909 4.29 6.665-10.872 1.57-5.712 5.75 2.933.61 8.854.221 7.791-4.283.901-2.284 1.072-3.315.6-3.376a.39.39 0 0 0-.083 0zm-150.645 3.193c-.36.013-.356.522.343 1.738 6.696 4.527-4.625 12.03-4.487 6.642 1.921-8.87-5.917 3.214 1.001 3.256 1.912 1.606 5.096-.614 6.087-2.373 4.302-3.023-1.655-9.308-2.944-9.263z"/>
</svg>
