<svg xmlns="http://www.w3.org/2000/svg" width="1278.714" height="1568.173" viewBox="0 0 338.326 414.913">
  <path fill="none" d="M0 .651h337.155v414.262H0z" paint-order="stroke fill markers"/>
  <path class="hair" fill="#502d16" d="M159.94 48.92c-8.207.055-16.281-.472-23.229 4.554-10.162 8.942-20.108 15.258-26.741 27.389-8.684 18.906-16.717 40.026-12.93 61.172.15.625 5.63 19.265 8.164 26.83 1.093 7.207 5.9 18.403 12.774 23.715.572.357 1.436.516 2.208.39l-.01.019c.051.026.375.231.824.52a71.997 71.997 0 0 0 8.139 4.535 78.17 78.17 0 0 0 22.217 6.732c14.003 2.05 31.999.792 52.471-9.606-.592 2.423-.892 5.145-.817 8.154l.026-.004c-1.787 10.371-8.132 17.207-2.153 27.97 4.458 9.001 13.68 16.813 13.37 27.064 1.049 6.942-4.322 11.881-6.53 17.986-9.804 12.342-10.13 30.444-2.811 44.163 3.044 14.239 16.496 21.094 29.588 23.664 2.202.474 4.465.686 6.717.602 9.007 1.666 1.757-6.679 7.455-8.115-1.332-6.074-4.077-8.965-7.813-14.647-.814-15.197 4.039-29.809 10.455-43.346 3.882-12.319 5.25-25.627 3.244-38.441.801-7.596-5.732-18.736-4.194-22.997-7.85-2.571-1.786-8.682-9.825-11.021-3.171-1.854-13.374-19.793-17.146-23.403.42-.318.84-.64 1.261-.966h.001c1.502-.858 3.124-3.377 4.525-4.222 8.772-5.72 16.23-14.538 17.28-25.35.962-16.628-.936-33.387-5.19-49.473-4.008-18.953-16.85-34.626-32.127-45.903-1.251-3.692-9.49-7.893-12.158-8.654-2.798-1.578-22.213 1.72-26.536 1.866-4.228-.54-6.21-1.206-10.51-1.178z"/>
  <path d="M156.43 47.908c-8.206.055-14.164.057-21.111 5.084-10.162 8.941-18.52 15.787-25.153 27.917-8.685 18.906-16.718 40.027-12.93 61.173.37 1.54 2.51 1.687 2.684-.049-3.1-18.787 1.67-38.26 10.173-55.088 4.902-11.354 10.25-20.013 20.594-27.03 10.775-10.789 15.583-10.788 27.606-10.303 1.497-.698 9.79.892 12.19 1.933 3.186-.013 13.47-3.775 19.239-3.06 3.368 1.477 2.868 1.192 6.84.082.478.468 1.798 1.357 4.33 2.785 8.895 3.9-3.872 1.434 3.12 4.091 10.471 4.954 16.906 15.298 24.22 23.864 7.965 9.412 11.244 21.308 13.555 33.154 1.789 12.098 1.685 24.533 2.962 36.736.81 14.686-13.803 22.308-20.915 32.97 1.758.107 3.817-3.47 5.542-4.51 8.771-5.72 16.229-14.537 17.279-25.35.962-16.627-.935-33.386-5.189-49.472-4.008-18.953-16.85-34.627-32.127-45.904-1.252-3.692-9.49-7.893-12.158-8.654-2.799-1.577-21.127-.405-25.874 1.205-4.23-.54-10.577-1.603-14.876-1.574zm-51.16 120.04c.785 7.134 5.717 19.124 12.904 24.679 1.19.742 3.648.639 3.898-1.142-9.703-4.739-11.545-15.31-16.801-23.537zm117.193 14.321a.33.33 0 0 0-.214.037c-7.195 2.04 10.963 11.37 8.2 17.934 1.268 11.454 12.904 16.945 14.975 28.238 3.333 10.33 1.789 1.107.412-4.427 9.813 13.46 8.49 31.734 2.35 46.462-2.863 12.373-14.967 20.926-14.341 34.41-1.09 9.174 5.212 25.087 8.98 28.377-2.593-10.186.109-3.465 3.522.89-1.45 7.658-18.302-6.089-18.895-5.062-3.825 1.534 6.323 7.316 11.602 9.232 14.542 5.438-6.996 2.945-11.868.083-5.31-1.164-22.57-14.877-15.203-13.444-8.333-10.228-11.268-24.248-7.862-36.985 1.339 1.258.554 17.135 7.311 21.611 2.83 1.157-6.995-16.79-3.606-22.361-.222-12.304 11.38-21.494 8.9-34.154 1.153-13.95-10.224-24.422-11.197-37.864-1.397 11.983 9.02 21.129 9.831 32.814-2.185-.714-11.244-15.101-13.2-21.4-2.558-9.994 4.19-16.921 1.213-25.489-1.13 11.683-8.861 18.705-2.46 30.23 4.459 9.001 13.68 16.813 13.37 27.064 1.05 6.942-4.321 11.881-6.53 17.986-9.803 12.343-10.129 30.444-2.81 44.164 3.044 14.238 16.496 21.093 29.588 23.663 2.202.474 4.464.686 6.716.602 9.008 1.666 1.757-6.678 7.456-8.115-1.332-6.074-4.077-8.965-7.813-14.647-.814-15.197 4.038-29.809 10.455-43.346 3.882-12.319 5.25-25.627 3.244-38.44.801-7.597-5.732-18.736-4.194-22.998-7.851-2.571-1.786-8.682-9.825-11.021-3.502-2.047-15.585-23.724-18.107-24.044zm10.843 19.362c.99.1 7.544 9.304 10.316 11.246.152 2.424-7.45-4.08-8.364-6.2-1.876-3.73-2.34-5.085-1.952-5.046zm9.092 14.72a.659.659 0 0 1 .126 0c.737.068 2.066 1.288 3.771 4.74-4.288-.765-5.128-4.616-3.897-4.74zm7.218 6.842c.057.016.19.29.437.983.495 3.707-.684-1.054-.437-.983zm-35.33 3.984c6.94 11.398 6.077 25.669 3.595 38.254-1.007 5.124 2.14-3.437 2.528-4.088 3.194-10.714.264-29.52-6.123-34.166zm36.882 44.819c-4.866 12.217-12.298 23.734-13.1 37.267-.845 8.67-1.63-3.675-1.087-5.71-.179-12.004 9.295-22.567 14.187-31.557z"/>
</svg>
