<svg xmlns="http://www.w3.org/2000/svg" width="1278.065" height="1569.494">
  <path fill="none" d="M0 0h1278.065v1569.494H0z" paint-order="fill markers stroke"/>
  <path class="hair" fill="#502d16" d="M874.906 992.204c-17.86-17.343-37.925-32.332-54.237-51.327-25.285-4.086-49.26-14.84-65.844-35.127-25.713-25.33-34.866-66.55-25.003-100.892 11.812-25.504 34.96-43.445 50.972-66.29 31.573-33.44 72.424-125.93 89.42-174.963-.308-71.731 26.95-72.064 37.883-63.611 7.66 43.158 2.355 180.364 40.348 215.027 23.57 38.528 18.167 86.424 39.614 125.907 12.578 27.111 12.727 59.235-4.595 84.204-16.52 23.331-38.212 48.887-68.272 52.397-10.37 10.175-24.774 24.91-40.286 14.675zm-492.833 27.563c-21.328-16.892-51.311-24.284-63.554-50.838-26.933-30.063-40.444-71.231-34.242-111.367-3.011-28.429-4.77-57.266 5.784-84.686 11.674-32.508 33.83-59.527 53.11-87.56 11.26-25.635 17.97-54.58 29.512-79.107 1.403-4.388 1.525-90.102 6.687-94.614 4.719-4.124 24.063 10.185 23.805 46.549-.279 39.128 22.616 88.468 30.868 101.01 17.194 26.274 43.596 46.117 54.727 76.398 15.315 22.416 35.148 42.157 40.701 70.344 14.97 35.848-5.53 74.706-30.09 100.512-23.876 16.272-52.315 25.7-71.41 48.324-34.053 12.796-7.081 70.604-45.898 65.035z"/>
  <path d="M379.395 604.133c-.132 11.45-14.672 52.212-22.915 62.298-9.698 33.864-37.786 58.236-52.095 90.147-12.513 22.024-19.389 50.033-13.474 74.524 2.726-9.677 36.436-56.484 18.82-24.19-9.95 22.892-21.463 45.77-20.346 71.403-1.93 31.965 10.847 63.35 33.448 85.948 13.241 26.044 43.512 30.885 64.233 47.607l4.052.267 3.406-1.937c3.123-29.648 8.471-60.098 21.397-87.616 11.786-25.59 25.545-50.721 33.157-77.897 4.503-34.178 1.343-69.003-1.62-103.056 10.835 35.353 11.831 73.83 7.46 110.39-8.88 28.48-26.71 52.988-35.982 81.459-2.737 11.284-18.922 48.894-.95 21.256 14.41-21.567 35.613-29.778 51.688-37.075 26.247-14.013 44.568-37.215 55.245-64.833 10.552-27.866-5.824-59.059-16.774-84.924-21.668-25.698-35.745-57.983-60.852-81.36-13.188-18.866-30.941-44.804-39.265-75.714l-.373-8.041c10.926 7.772 18.784 44.809 26.388 56.365 17.194 26.274 43.596 46.117 54.727 76.398 15.315 22.416 35.148 42.157 40.701 70.344 14.97 35.848-5.53 74.706-30.09 100.512-23.876 16.272-52.315 25.7-71.41 48.324-34.053 12.796-7.081 70.605-45.898 65.035-21.328-16.892-51.311-24.284-63.554-50.838-26.933-30.063-40.444-71.231-34.241-111.367-3.012-28.429-4.771-57.266 5.783-84.686 11.674-32.508 33.83-59.527 53.11-87.56 11.26-25.635 17.97-54.58 29.512-79.107l3.433-101.631c9.019 2.808 8.035 7.356 6.892 11.932zm-3.34 299.061c-18.013-41.171-9.533-89.913 12.575-127.958 11.633-20.032 13.667-61.292 17.812-71.318.079 33.629-10.706 65.698-24.82 95.798-11.224 33.641-6.076 69.91-.459 104.007.566 3.16-5.31 2.662-5.108-.528zM308.86 775.017c8.676-38.842 37.405-69.382 49.73-107.074 5.978-17.2 9.347-19.116 3.124.371-10.04 39.643-37.583 71.187-51.612 109.096l-.882-.284zm55.781-25.557c7.09-24.467 15.83-49.361 24.489-72.91-1.552 26.027-11.535 56.815-24.11 76.284zm-4.79-8.232c9.213-25.805 18.43-51.63 25.423-78.166-.943 27.72-12.217 54.804-25.297 78.882zm517.553-159.341c-18.386 30.52-67.778 138.603-94.798 162.962-18.409 22.186-40.33 42.309-53.003 68.606.085 37.11 8.028 79.247 42.069 100.238 9.114 8.521 50.936 29.714 30.036 3.05-12.133-25.525-27.642-49.208-37.292-75.727-6.622-13.15-7.302-50.584-.022-17.711 1.494 11.516 7.198-48.067 9.338-18.343-3.814 45.13 17.874 88.447 44.586 123.277 19.654 21.755 42.953 44.582 64.936 61.24l4.875-1.374c31.473-10.98 30.965-49.496 32.179-77.313 4.317-19.596-13.637-34.528-14.6-53.776-4.31-35.36.687-71.656-7.967-106.45 16.958 24.313 8.563 57.167 11.175 85.327-3.946 25.412 19.443 50.335 15.993 70.838 2.563 18.69-5.67 51.817-.684 60.95 29.45-12.197 52.201-39.3 63.004-68.72 3.227-28.943-4.427-57.117-15.53-83.64-.22 13.438-8.425 51.102-8.089 17.474-.308-43.432-1.968-90.948-31.01-126.038-19.303-32.417-34.706-155.043-26.025-195.14l5.573-9.143c1.897 75.362 8.134 177.207 36.297 212.548 23.57 38.528 18.167 86.424 39.614 125.907 12.578 27.111 12.728 59.235-4.595 84.204-16.52 23.331-38.212 48.887-68.272 52.397-10.37 10.175-24.774 24.91-40.286 14.675-17.86-17.343-37.925-32.332-54.237-51.327-25.285-4.086-49.26-14.84-65.844-35.127-25.713-25.33-34.866-66.55-25.003-100.892 11.812-25.504 34.96-43.445 50.972-66.29 31.573-33.44 50.444-96.366 74.559-134.89zm18.763 261.617c-10.584-25.48-22.053-55.472-11.487-82.717-4.835 26.6 13.566 65.666 11.487 82.717zm-61.043-28.569c2.291-13.926 4.7-22.263-4.66-13.988 7.972-28.604 6.956-61.905-6.292-88.66 11.66 5.885 17.654 42.75 17.002 61.452 2.671 7.22-.944 57.606-6.05 41.196zm52.792-107.579c-10.212-26.162-19.86-56.434-10.08-84.038 2.857 31.213 5.865 62.885 15.115 92.958-2.97-1.831-2.424-7.006-5.035-8.92z"/>
</svg>
