<svg xmlns="http://www.w3.org/2000/svg" width="1278.065" height="1569.494" viewBox="0 0 338.155 415.262">
  <path fill="none" d="M.5.5h337.155v414.262H.5z" paint-order="stroke fill markers"/>
  <path class="hair" fill="#502d16" d="M221.895 160.103a8.429 8.429 0 0 0-1.9.22c-3.927.888-7.353 3.998-10.297 8.3-2.943 4.302-5.417 9.822-7.393 15.653-3.865 11.409-5.83 23.97-5.517 30.97-.508 1.828-.706 5.385.112 7.02 2.863 7.024.684 11.031-1.317 17.696 4.446 5.877 1.184 15.794 9.895 17.32 1.574.376 3.305.44 4.84-.137 2.49-5.967 9.642-.923 11.265-7.345-7.01-3.86.653-8.793 6.21-6.881 9.83-1.291 8.91-15.056 2.182-19.808 1.03-3.035 9.098-7.96 7.793-13.841-.955-7.686-12.818-8.65-8.086-17.28-3.297-8.113-3.333-16.87-2.69-25.225l-.048.099c.016-2.838-.703-4.593-1.83-5.614-.755-.683-1.649-1.002-2.547-1.107a6.181 6.181 0 0 0-.672-.04zM117.187 173.27c-.418-.01-.84.022-1.259.097a5.896 5.896 0 0 0-2.384.996c-1.366.973-2.384 2.635-2.577 4.991-.979 4.186-2.262 10.373-.372 14.716-6.045 4.232-7.703 10.804-5.627 17.242-5.78-1.528-3.624 7.312-.84 10.654-.726 1.821-10.276 6.092-6.353 12.71 5.403 2.91.721 5.138 5.67 8.145-5.355 1.432 1.238 13.9 7.552 13.713 5.71-4.433 6.929 2.112 12.405 3.096 6.58 1.826 6.302-3.09 1.35-5.415-2.755-8.898 6.486-2.234 10.764-1.53 7.17 1.216-.515-2.68 1.93-5.695 7.796-6.363 4.282-15.244-2.25-20.859 1.414-2.771 5.23-8.118 2.5-11.209a.482.482 0 0 0-.1-.19c-.5-.613-.882-1.094-1.116-1.508-.233-.413-.328-.742-.303-1.15.42-6.821-.176-15.557-2.783-23.068-2.608-7.512-7.279-13.845-14.978-15.585a6.265 6.265 0 0 0-1.23-.151z"/>
  <path d="M123.402 259.631c-5.476-.984-6.694-7.529-12.405-3.096-6.315.186-12.908-12.281-7.552-13.713-4.95-3.007-.268-5.235-5.67-8.145-3.923-6.618 5.627-10.889 6.354-12.71-2.785-3.342-4.942-12.181.84-10.654-2.077-6.438-.42-13.01 5.626-17.243-2.262-5.195.024-13.07.89-16.943 1.066 7.132-.271 14.668 1.472 21.782-4.904 4.308-.353 14.576 2.63 14.86-.38-12.416 5.294 7.922-2.593 4.842 4.423-6.044-8.73 4.29-5.067-.467 4.585-.093 6.682-8.02 1.794-1.536-7.666.142 6.171-2.626-.062-6.836-3.49-4.26 6.626-19.696-1.911-10.31-5.649 3.248 1.178 10.303-2.06 14.177-5.277-1.376-1.181 4.765-.69 6.878 2.984 3.433 11.18-4.533 4.573 2.097-7.435-.156-15.28 10.66-7.258 13.722 3.42-2.965-1.536 7.19 4.098 7.317 2.885-2.881 4.28-3.988 2.244 1.06-3.75 1.926-7.514-.74-4.126 3.886.568 7.157 15.243 9.263 10.744.096 4.142-5.176-.4-9.648-.948-14.748 3.02 5.912 6.017 11.22 2.538 17.62-1.187 6.642 16.11 9.592 6.173 2.96 1.181-4.958.042-9.19.178-13.782-2.044 5.98 12.177 13.435 5.427 5.187.495-5.528-1.819-3.132-.223.216-2.814-.95-1.966-13.208.238-6.717.406-3.346-3.853-8.891.897-3.604-.986 3.639 2.142 16.295 4.917 13.208 3.99-6.764 10.46-14.64.884-20.946-3.959-4.557 4.086-9.084.865-14.281 5.282 2.718.582 9.18-1.023 12.324 6.532 5.615 10.046 14.496 2.25 20.859-2.445 3.015 5.24 6.911-1.93 5.696-4.278-.705-13.518-7.369-10.764 1.53 4.952 2.324 5.23 7.24-1.35 5.414zm82.076-2.349c-8.71-1.526-5.449-11.443-9.895-17.32 2-6.665 4.18-10.672 1.317-17.697-1.59-3.174.654-13.618 1.555-4.519 1.834 4.066 7.787 9.514.775 4.312-2.305 1.798 7.033 8.765 10.483 7.124 8.832-2.82-5.903-13.162-3.073-15.734 2.255 5.325 14.114 15.584 2.479 17.915-6.493-1.906-13.206 4.766-10.214 11.075 3.065-7.83 2.506.648 3.361-1.164 2.395-9.758 12.643-6.463 19.441-4.852 3.85-1.365-3.274-8.648 2.971-3.398.42 11.962-18.151-3.756-19.926 8.909-.225 2.772 4.855 5.514-1.265 4.325-8.154-3.321 3.506 6.679 6.166-.098-1.19 6.489-14.325.658-5.603 5.883-7.465 4.913 12.605 4.387 9.077-3.472 1.762 4.829 9.191 2.22 3.653-.675.326-7.794 4.46-7.483 10.895-7.245 10.556-.268 3.498-20.422-2.6-15.962 6.09 2.36 2.461 15.791.677 12.704 6.783-3.305-9.195-13.049-.838-9.048 2.856 3.082 5.274 6.927 2.039.513-9.168-6.718 6.605-8.752 7.286-15.016 6.178-8.935-10.404-12.613-11.843-20.961-1.469-5.003.405-12.013.964-2.93 3.838 11.09-1.022-12.555 2.607-1.636-.78 3.261.583 13.311 2.027 4.84-1.603-8.547-5.346-17.818-1.003-26.39-.642 8.356-.606 17.112 2.691 25.224-4.732 8.63 7.131 9.595 8.086 17.28 1.305 5.882-6.763 10.807-7.793 13.842 6.729 4.752 7.648 18.517-2.183 19.808-5.556-1.911-13.22 3.02-6.209 6.88-1.623 6.423-8.775 1.379-11.265 7.346-1.535.576-3.267.513-4.84.137zm-2.862-27.753c-.137-3.504-6.934-1.769-1.534.488zm-93.864 20.686c-7.045-3.616 6.319.026 2.933-7.495-4.305-9.162 7.329 7.795-2.933 7.495zm99.373-1.47c.46-1.019.168 1.024 0 0zm-74.045-4.9c2.513-1.788 4.363-8.37 4.893-8.392 2.028 3.578-3.668 8.522-4.893 8.392zm-24.207-7.727c-6.64-9.97 11.87-10.846 11.923-20.012-1.365-3.526-6.575-12.427-3.423-13.885 1.14 7.847 10.178 16.83-.232 22.777-5.32 1.553-10.302 5.372-8.268 11.12zm11.683-1.605c-9.539-8.272 13.831-8.353 7.551-18.454 2.115-3.33 4.223 10.586-1.727 11.02-.195 3.345-4.607-1.805-4.239 3.571 4.12 4.8-5.54-5.088-2.2 2.307.91.411 3.629 3.248.615 1.556zm-21.066-2.344c-3.09-3.792 6.723-8.134 1.316-2.337-1.496.817 3.203 4.995-1.316 2.337zm119.588-6.757c-3.518-4.68-1.913-10.157-6.644-14.129 1.486-5.509 8.602-8.053 2.716-13.445 4.383 1.658 10.087 13.143 1.359 16.72 6.808 2.823 9.278-10.35 8.366-11.592 8.28 9.612-12.984 12.919-4.932 22.737l-.125.217-.74-.508zm-.592-13.964c3.207-4.08.121-10.043-2.811-3.21-2.326 2.835-.173 8.505 2.811 3.21zm-13.38 11.773c-4.432-.226-8.866-15.095-4.217-5.376.37 2.09 11.528 7.879 4.216 5.376zm18.776-6.223c.091-.912 10.15-6.218 7.706-11.136 5.362 4.925-2.623 11.627-7.706 11.136zm-1.335-15.445c-4.556-2.017-3.919-16.148-1.737-4.93-.338 1.143 4.08 5.837 1.737 4.93z"/>
</svg>
