<?xml version="1.0" encoding="UTF-8" standalone="no"?>
<!-- Created with Inkscape (http://www.inkscape.org/) -->

<svg
   xmlns:dc="http://purl.org/dc/elements/1.1/"
   xmlns:cc="http://creativecommons.org/ns#"
   xmlns:rdf="http://www.w3.org/1999/02/22-rdf-syntax-ns#"
   xmlns:svg="http://www.w3.org/2000/svg"
   xmlns="http://www.w3.org/2000/svg"
   xmlns:sodipodi="http://sodipodi.sourceforge.net/DTD/sodipodi-0.dtd"
   xmlns:inkscape="http://www.inkscape.org/namespaces/inkscape"
   width="338.15475mm"
   height="415.26193mm"
   viewBox="0 0 338.15475 415.26193"
   version="1.1"
   id="svg8"
   inkscape:version="0.92.3 (2405546, 2018-03-11)"
   sodipodi:docname="Backhair04.svg">
  <defs
     id="defs2" />
  <sodipodi:namedview
     id="base"
     pagecolor="#ffffff"
     bordercolor="#666666"
     borderopacity="1.0"
     inkscape:pageopacity="0.0"
     inkscape:pageshadow="2"
     inkscape:zoom="0.49497475"
     inkscape:cx="36.744879"
     inkscape:cy="782.96606"
     inkscape:document-units="mm"
     inkscape:current-layer="layer1"
     showgrid="false"
     inkscape:window-width="1920"
     inkscape:window-height="1001"
     inkscape:window-x="-9"
     inkscape:window-y="-9"
     inkscape:window-maximized="1"
     inkscape:snap-global="true"
     showguides="true"
     fit-margin-top="0"
     fit-margin-left="0"
     fit-margin-right="0"
     fit-margin-bottom="0" />
  <metadata
     id="metadata5">
    <rdf:RDF>
      <cc:Work
         rdf:about="">
        <dc:format>image/svg+xml</dc:format>
        <dc:type
           rdf:resource="http://purl.org/dc/dcmitype/StillImage" />
        <dc:title />
      </cc:Work>
    </rdf:RDF>
  </metadata>
  <g
     inkscape:label="Ebene 1"
     inkscape:groupmode="layer"
     id="layer1"
     transform="translate(1355.1667,-269.28568)">
    <rect
       style="opacity:1;fill:none;fill-opacity:1;fill-rule:evenodd;stroke:none;stroke-width:0.99999988;stroke-linecap:round;stroke-linejoin:miter;stroke-miterlimit:4;stroke-dasharray:none;stroke-dashoffset:0;stroke-opacity:1;paint-order:stroke fill markers"
       id="rect1307"
       width="337.15475"
       height="414.26193"
       x="-1354.6667"
       y="269.78568"
       inkscape:label="Frame" />
    <path
       style="fill:#aa4400;fill-opacity:1;stroke-width:1"
       d="m -1185.5179,341.03911 c -27.9233,0.14976 -53.6397,13.9659 -78.9078,32.27193 l -0.6692,-0.0915 c -3.2626,5.53505 -16.9102,11.67575 -7.3536,18.41852 8.6185,0.42647 -1.2839,6.92439 -1.2816,10.86859 2.7022,4.01598 -1.1415,9.98057 3.576,11.96516 -0.1481,4.97307 -6.1093,13.79235 3.0329,16.14578 6.2575,-1.6262 5.1897,4.66901 9.8904,6.91482 1.2597,4.79336 9.2001,6.44709 7.5845,10.64276 -7.3119,-1.58065 -3.3865,6.67439 1.6842,7.48275 0.978,0.20522 1.9919,0.30203 2.9982,0.26562 44.3172,23.32923 79.7626,20.00772 110.0719,1.82108 0,0.33824 0,0.67735 0.016,1.0051 0.3757,2.26285 2.5046,1.67687 5.2813,1.60766 -0.9714,1.51988 -1.5281,5.04191 1.0237,6.09161 1.7449,0.52703 3.6576,-0.32533 4.7868,-1.69188 0.9125,-6.72412 10.647,-3.87642 10.4872,-10.90063 8.0301,1.4905 7.3664,-16.67768 1.6748,-9.44852 -9.2251,1.12229 -1.6508,-7.35185 3.3001,-5.07876 3.3957,-6.80694 11.1146,0.25153 15.3355,-6.28953 7.1812,-4.80931 -1.0716,-10.94532 0.8294,-15.86312 10.6186,-2.06693 3.1915,-14.49403 -0.725,-19.99464 0.2173,-0.1562 0.3266,-0.46627 0.089,-0.73691 -33.9093,-40.74125 -64.333,-55.55819 -92.7251,-55.40592 z"
       id="path1365"
       inkscape:connector-curvature="0"
       inkscape:label="Hinterhaar" />
    <path
       style="fill:#000000;stroke-width:1"
       d="m -1185.5241,341.09751 c -27.9233,0.14976 -53.6397,13.9659 -78.9078,32.27193 l -0.6693,-0.0915 c -3.2626,5.53505 -16.9101,11.67575 -7.3535,18.41852 8.6185,0.42647 -1.2839,6.92439 -1.2816,10.86859 2.7022,4.01598 -1.1415,9.98057 3.576,11.96516 -0.1481,4.97307 -6.1093,13.79235 3.0329,16.14578 6.2575,-1.6262 5.1897,4.66901 9.8904,6.91482 1.2597,4.79336 9.2001,6.44709 7.5845,10.64276 -7.3119,-1.58065 -3.3865,6.67439 1.6842,7.48275 0.978,0.20522 1.9918,0.30203 2.9982,0.26562 44.3172,23.32923 79.7626,20.00772 110.0719,1.82108 0,0.33824 0.01,0.67735 0.016,1.0051 0.3757,2.26285 2.5046,1.67687 5.2813,1.60766 -0.9714,1.51988 -1.5281,5.04191 1.0237,6.09161 1.7449,0.52703 3.6576,-0.32533 4.7868,-1.69188 0.9125,-6.72412 10.647,-3.87642 10.4872,-10.90063 8.0301,1.4905 7.3663,-16.67768 1.6748,-9.44852 -9.2252,1.12229 -1.6508,-7.35185 3.3001,-5.07876 3.3957,-6.80694 11.1146,0.25153 15.3355,-6.28953 7.1812,-4.80931 -1.0716,-10.94532 0.8294,-15.86312 10.6186,-2.06693 3.1915,-14.49403 -0.725,-19.99464 0.2173,-0.1562 0.3266,-0.46627 0.089,-0.73691 -33.9093,-40.74125 -64.333,-55.55819 -92.7251,-55.40592 z m -77.4754,32.4683 c 24.9346,-17.95528 50.2121,-31.32211 77.4816,-31.46836 v 0 c 27.9429,-0.14986 57.9437,14.34099 91.5975,54.62509 l -1.0681,-0.14625 c 2.5096,2.62768 5.892,7.94961 3.1574,12.42457 4.7184,-5.79466 4.4948,6.16111 -0.1514,6.57737 -5.625,0.588 3.427,10.80266 -4.0184,13.35216 -7.9935,-3.3868 1.3829,6.31125 3.0706,-0.0801 1.3235,-7.38952 3.3406,-0.44614 -0.6397,1.86966 -2.6265,6.24326 -9.7349,3.71525 -12.3993,1.90841 1.192,7.99485 -8.1787,2.02571 -8.4754,6.18877 -7.9879,-2.29369 -1.5642,10.18527 3.3931,7.03884 5.0076,-5.78381 0.9873,9.23031 -4.1538,6.96702 -2.5023,-2.83901 -4.3874,-7.07784 -2.5301,-0.66404 8.0211,5.31741 -3.6336,4.02729 -5.2952,8.1933 -2.3507,-2.599 -2.4536,7.3667 -4.8421,3.09283 0.1003,-2.25619 -0.177,-3.32986 -0.5809,-3.6406 -0.3481,-0.66039 -1.4839,-1.62142 -1.9125,-1.88826 -6.2113,-1.48462 -0.546,-15.7215 4.6968,-18.048 4.05,-1.1894 1.4046,-6.54073 4.39,-9.53378 -1.4911,0.84979 -1.2236,2.8728 -4.6122,7.58403 -6.8296,3.17844 -8.8559,11.72441 -9.0035,18.71772 -29.8826,18.13882 -64.5877,21.73593 -108.3195,-0.86713 0.1742,-0.0374 0.3484,-0.076 0.5204,-0.1235 1.6582,-1.32276 2.4861,-2.10511 2.7207,-2.53938 0.9377,-1.03 1.409,-2.29611 1.5126,-3.68867 0.1098,-1.47073 -0.1765,-3.08669 -0.7106,-4.80177 -1.0507,-3.3745 -3.0748,-7.14519 -5.1345,-10.89339 -0.3368,-1.88534 -2.1741,-7.05924 0.6128,-8.20054 -2.8373,-7.19152 -4.2158,-15.07928 -3.7139,-23.01565 0.2654,-8.84516 1.47,-16.04614 3.4401,-21.84621 -6.1096,8.44224 -6.0455,11.20423 -4.1533,30.65136 0.4151,3.23351 -1.181,10.66178 3.0991,11.72177 -0.3855,4.18557 -3.0429,4.85941 -1.154,9.54412 0.4329,0.54163 0.7714,0.94165 1.0413,1.23403 0.01,0.0387 0.023,0.0758 0.043,0.11007 2.0923,3.80522 4.1413,7.62185 5.1723,10.93267 0.5155,1.65536 0.7736,3.1809 0.6754,4.50463 -0.097,1.28809 -0.5155,2.37906 -1.3756,3.28507 -2.32,0.14305 -9.5916,2.5639 -11.3234,-1.36374 5.7006,-0.23008 3.8533,-7.0863 3.6499,-11.56518 -3.1595,7.37181 -6.5509,-1.97167 -10.2262,-5.24568 -1.0829,-6.30776 -3.9072,-4.21216 -8.9731,-5.68234 -8.4127,-3.45711 2.7284,-12.22116 0.2935,-13.21418 -1.5784,-2.05543 -4.8497,-6.52513 0.3726,-6.80734 -4.9506,-0.98311 -6.0669,-8.41328 -1.6836,-11.4272 1.4796,-1.29771 4.8081,-11.96471 0.4031,-7.67447 -11.0036,1.3948 -1.9514,-11.35892 2.5538,-14.16503 m 163.9507,27.31151 c 0,-0.0611 -0.2573,4.44287 -2.2267,6.07922 -1.4622,6.68866 -14.8615,-2.44406 -7.8801,3.51038 4.0356,2.10574 8.834,-2.37731 10.0738,-5.97845 -0.025,-2.61238 0.033,-3.58339 0.034,-3.61115 z m -164.7946,5.94176 c -0.1489,0.002 -0.2917,0.006 -0.4289,0.0139 0.5926,0.11736 1.2394,0.1431 1.9389,0.0568 -0.3745,-0.0353 -0.7225,-0.0567 -1.0454,-0.0661 v -5.3e-4 c -0.1611,-0.005 -0.3156,-0.006 -0.4646,-0.004 z m 174.563,0.24908 c -0.2424,0.29756 -0.4972,0.64045 -0.7658,1.03559 0.2983,-0.33967 0.5518,-0.68543 0.7658,-1.03559 z m -5.4022,2.61689 c -2.1718,2.47355 -3.6778,5.20898 -3.1864,9.09816 1.6957,6.19234 -12.4336,4.74612 -7.0605,6.64817 9.6558,1.71376 7.4102,-10.54157 10.2469,-15.74633 z m -7.5753,1.54926 c -0.4473,0.0373 -1.3295,0.72719 -2.5957,1.90945 4.2902,6.66536 -10.872,1.57034 -5.7123,5.75003 2.9329,0.60969 8.8544,0.22168 7.7913,-4.28242 0.901,-2.28432 1.0712,-3.31509 0.6004,-3.37603 -0.026,-0.003 -0.054,-0.004 -0.084,-0.001 z m -150.645,3.19412 c -0.361,0.0128 -0.3558,0.52173 0.3426,1.73736 6.6964,4.52751 -4.6246,12.02938 -4.4871,6.64249 1.9216,-8.87107 -5.917,3.21339 1.0015,3.25613 1.9124,1.60535 5.0958,-0.61394 6.0865,-2.37298 4.3027,-3.02379 -1.6541,-9.30822 -2.9435,-9.263 z"
       id="path990"
       inkscape:connector-curvature="0"
       sodipodi:nodetypes="cccccccccccccccccccccccsccccccccccccccccccccccccccccccccccccccccccccccccccccccccccccccccccccccccccccccccccc"
       inkscape:label="Kontur_Hinterhaar" />
  </g>
</svg>
