<?xml version="1.0" encoding="UTF-8" standalone="no"?>
<!-- Created with Inkscape (http://www.inkscape.org/) -->

<svg
   xmlns:dc="http://purl.org/dc/elements/1.1/"
   xmlns:cc="http://creativecommons.org/ns#"
   xmlns:rdf="http://www.w3.org/1999/02/22-rdf-syntax-ns#"
   xmlns:svg="http://www.w3.org/2000/svg"
   xmlns="http://www.w3.org/2000/svg"
   xmlns:sodipodi="http://sodipodi.sourceforge.net/DTD/sodipodi-0.dtd"
   xmlns:inkscape="http://www.inkscape.org/namespaces/inkscape"
   width="338.15475mm"
   height="415.26193mm"
   viewBox="0 0 338.15475 415.26193"
   version="1.1"
   id="svg8"
   inkscape:version="0.92.3 (2405546, 2018-03-11)"
   sodipodi:docname="Backhair01.svg">
  <defs
     id="defs2" />
  <sodipodi:namedview
     id="base"
     pagecolor="#ffffff"
     bordercolor="#666666"
     borderopacity="1.0"
     inkscape:pageopacity="0.0"
     inkscape:pageshadow="2"
     inkscape:zoom="0.49497475"
     inkscape:cx="507.3263"
     inkscape:cy="961.90876"
     inkscape:document-units="mm"
     inkscape:current-layer="layer1"
     showgrid="false"
     inkscape:window-width="1920"
     inkscape:window-height="1001"
     inkscape:window-x="-9"
     inkscape:window-y="-9"
     inkscape:window-maximized="1"
     inkscape:snap-global="true"
     fit-margin-top="0"
     fit-margin-left="0"
     fit-margin-right="0"
     fit-margin-bottom="0" />
  <metadata
     id="metadata5">
    <rdf:RDF>
      <cc:Work
         rdf:about="">
        <dc:format>image/svg+xml</dc:format>
        <dc:type
           rdf:resource="http://purl.org/dc/dcmitype/StillImage" />
        <dc:title></dc:title>
      </cc:Work>
    </rdf:RDF>
  </metadata>
  <g
     inkscape:label="Ebene 1"
     inkscape:groupmode="layer"
     id="layer1"
     transform="translate(1354.4108,-270.58325)"
     style="display:inline">
    <rect
       style="opacity:1;fill:none;fill-opacity:1;fill-rule:evenodd;stroke:none;stroke-width:0.99999988;stroke-linecap:round;stroke-linejoin:miter;stroke-miterlimit:4;stroke-dasharray:none;stroke-dashoffset:0;stroke-opacity:1;paint-order:stroke fill markers"
       id="rect1307-6"
       width="337.15475"
       height="414.26193"
       x="-1353.9108"
       y="271.08325"
       inkscape:label="Frame" />
    <path
       style="display:inline;fill:#3b2516;fill-opacity:1;stroke-width:1"
       d="m -1169.7046,286.77831 c -7.8736,-0.0245 -14.8981,4.82646 -19.0458,11.50386 -2.2828,7.447 -10.343,-7.7296 -17.3603,-4.34046 -10.5776,-1.62585 -21.5561,2.89793 -29.3037,9.90109 -7.0386,7.05636 -14.0349,14.12853 -18.7861,22.97265 -5.3799,7.55233 -10.2281,19.78989 -21.3371,19.11427 5.776,-10.9319 -19.6884,0.10923 -10.545,8.89666 7.6102,7.12157 -8.3074,11.16996 -9.3593,18.71318 -3.9754,8.23627 5.3551,28.54127 -11.03,22.57477 -1.4842,11.33633 16.4898,5.26818 15.5545,15.29806 -0.8174,9.58455 -13.2577,-0.61406 -8.3818,9.1097 8.0582,3.52541 0.1331,18.90749 11.0955,23.38693 2.3879,3.23733 4.1246,7.99526 4.5859,12.23595 -1.3801,11.56369 8.9091,24.42256 21.106,22.96942 11.0032,-6.05046 -15.7206,-8.82586 -7.6203,-19.9677 3.2045,12.80166 17.7206,20.66199 30.2791,16.79809 -1.3097,9.07939 -23.4489,-1.38603 -12.1929,9.96189 7.2489,5.87924 17.1546,1.26808 24.0158,0.37405 3.1689,3.13379 8.1243,1.05539 9.0977,-0.68002 20.5079,1.6794 41.2588,4.497 60.8032,-3.70905 0.059,-0.0236 0.1125,-0.0582 0.1583,-0.10198 4.9996,4.776 10.1799,-5.81709 14.5,1.35761 8.9024,2.73048 21.0239,1.72955 26.2123,-7.0606 -2.088,0.0511 -21.4829,5.87177 -9.578,1.59778 8.6504,-3.05037 11.9701,-18.8296 12.5217,-21.3495 3.3874,4.72196 -2.0191,22.71892 6.3681,10.5219 5.0084,-5.02686 -3.5623,-18.88955 -0.3019,-18.57487 6.9219,3.70192 21.474,-7.42652 16.8062,-12.28559 -2.2588,7.00821 -21.1496,8.64813 -10.9112,0.576 9.4095,-0.6717 5.3688,-13.16178 14.9072,-12.14856 10.4553,-8.31698 14.6394,-24.12127 7.5156,-35.92897 -6.2099,-5.0501 -5.0321,-9.84989 -3.9543,-16.88336 1.0993,-6.55671 2.2634,14.49481 7.0666,3.81927 7.4477,-12.06879 -7.0683,-18.28369 -11.0644,-27.19987 -5.0329,-10.82863 -14.9729,-18.71303 -25.5695,-23.76028 9.7833,-4.5662 2.7435,-17.58098 -5.2174,-19.90137 -5.9241,-2.18338 -11.4729,-2.18658 -12.2413,-9.11549 -7.282,-8.03466 -18.9648,-5.12095 -28.408,-7.85142 -2.3106,-0.28844 -4.6413,-0.44938 -6.9649,-0.50634 -1.1535,-0.21138 -2.2957,-0.31421 -3.4205,-0.3177 z"
       id="path1231"
       inkscape:connector-curvature="0"
       inkscape:label="Hinterhaar" />
    <path
       id="path1229-4"
       style="fill:#000000;stroke-width:1"
       d="m -1166.223,289.79242 c 0.8689,0.0281 1.7352,0.086 2.5942,0.16875 9.528,1.40272 20.6567,-0.53621 28.7952,5.48069 4.7538,3.9785 -1.2038,9.68491 8.2001,8.95883 9.199,-0.58089 22.3063,14.61132 8.7734,17.95653 -4.6308,3.43123 11.5465,6.34548 13.6723,10.7049 9.4842,4.18487 12.3208,19.9817 18.6645,22.77353 5.2996,3.25558 9.9193,9.49621 7.1202,15.87017 0.4345,4.62673 -11.0992,-15.75397 -8.8548,-3.94494 2.7135,10.01251 -4.4079,22.33194 -15.7736,20.46587 -6.0812,-2.91204 -8.2866,-0.4011 -1.9642,2.76713 7.3809,4.55907 15.666,-4.89454 19.6285,-6.15264 7.5881,8.24492 9.2407,21.67111 1.8944,30.6209 -2.669,7.40031 -15.7488,11.69203 -17.0618,1.16218 -5.683,-0.15079 1.9757,9.34815 3.983,11.18426 -1.2032,9.00381 -12.4135,1.76754 -11.0932,10.86067 -0.6417,5.41215 -8.3635,-3.69074 -4.7197,3.14374 3.1734,5.13874 19.586,2.72628 6.1372,4.33948 -4.5304,-0.26547 -10.8538,-3.8488 -4.9429,2.90363 2.9101,4.5023 2.4417,10.09434 1.5177,15.16843 0.3375,-6.65332 -7.9047,-18.77272 -7.7755,-6.81834 0.1726,7.14067 -5.2611,13.19419 -10.6401,17.21289 -6.3248,5.27877 -11.6208,-4.64185 -16.084,-2.51411 -2.9957,7.02151 17.431,11.60181 3.2786,9.09085 -6.3232,-3.19361 -10.6059,-3.35984 -17.001,-0.004 -0.09,-0.16962 -0.27,-0.27242 -0.462,-0.26447 v 0 c -0.062,0.003 -0.1232,0.0163 -0.1802,0.041 -19.2503,8.08257 -39.8225,5.31163 -60.3803,3.63153 -0.4146,-0.57568 -1.7845,-0.87305 -4.5691,-0.45412 -8.3678,3.10512 1.1467,-9.15714 -5.2309,-4.03935 -2.4599,9.35918 -19.3918,6.40202 -21.5419,3.50227 13.7902,3.03984 16.3179,-14.75206 9.4355,-23.11696 0.1615,4.15677 -11.8641,6.51333 -17.5326,3.29435 -0.8315,4.18015 15.3326,2.10762 17.9208,0.57431 6.7555,9.81873 -6.9338,10.49151 -13.2945,8.88374 -9.2053,-2.33806 -14.1341,-12.28299 -16.1001,-19.89074 -8.3388,7.17133 -2.2522,20.34064 7.7755,22.29038 -9.2716,2.4068 -21.2803,-8.82888 -19.5983,-19.46945 1.2188,-4.64069 5.7074,-15.1815 -0.3821,-5.60632 -3.1502,0.99185 -3.7622,-7.08879 1.9206,-4.69192 -10.7027,-4.21534 -15.1175,-16.04042 -12.9871,-26.12206 -7.1801,0.94797 8.5137,-5.35551 5.0698,-11.65591 -5.1358,-4.30776 -3.4688,-11.61373 -9.7469,-5.75819 -6.4073,-1.93235 -5.7167,-3.55251 0.6124,-3.53962 3.231,-9.31227 7.5,2.25651 13.5707,-2.14979 -10.3668,-2.53881 -13.332,-16.98183 -7.0728,-25.28118 2.1013,-5.62032 11.3019,-11.01669 11.8199,-13.51597 -9.168,-2.4952 -2.7435,-19.49371 1.7082,-8.58618 11.9688,3.02124 19.1677,-10.08002 24.3953,-18.67684 5.0232,-9.01517 11.4906,-16.85024 19.0063,-23.91887 6.2455,-7.00863 16.5119,-10.81429 25.8876,-10.01402 9.8107,-0.91857 19.3547,12.21052 24.9564,-1.07888 4.3822,-4.69631 10.5698,-5.9822 16.6518,-5.78653 z m -3.4816,-3.01411 c -7.8736,-0.0245 -14.8981,4.82646 -19.0458,11.50386 -2.2828,7.447 -10.343,-7.7296 -17.3603,-4.34046 -10.5776,-1.62585 -21.5561,2.89793 -29.3037,9.90109 -7.0386,7.05636 -14.0349,14.12853 -18.7861,22.97265 -5.3799,7.55233 -10.2281,19.78989 -21.3371,19.11427 5.776,-10.9319 -19.6884,0.10923 -10.545,8.89666 7.6102,7.12157 -8.3074,11.16996 -9.3593,18.71318 -3.9754,8.23627 5.3551,28.54128 -11.03,22.57478 -1.4842,11.33633 16.4898,5.26818 15.5545,15.29806 -0.8174,9.58455 -13.2577,-0.61406 -8.3818,9.1097 8.0582,3.52541 0.1331,18.90749 11.0955,23.38693 2.3879,3.23733 4.1246,7.99526 4.5859,12.23595 -1.3801,11.56369 8.9091,24.42255 21.106,22.96941 2.6407,-0.58021 6.1956,-2.57716 5.5554,-3.22693 -3.4495,-3.50135 -19.873,-7.52867 -13.1757,-16.74076 3.2045,12.80166 17.7206,20.66199 30.2791,16.79809 -1.3097,9.07939 -23.4489,-1.38603 -12.1929,9.96189 7.2489,5.87924 17.1546,1.26808 24.0158,0.37405 3.1689,3.13379 8.1243,1.05539 9.0977,-0.68002 20.5079,1.6794 41.2588,4.497 60.8032,-3.70905 0.059,-0.0236 0.1125,-0.0582 0.1583,-0.10198 4.9996,4.776 10.1799,-5.81709 14.5,1.35761 8.9024,2.73048 21.0239,1.72955 26.2123,-7.0606 -2.088,0.0511 -21.4829,5.87177 -9.578,1.59778 8.6504,-3.05037 11.9701,-18.8296 12.5217,-21.3495 3.3874,4.72196 -2.0191,22.71892 6.3681,10.5219 5.0084,-5.02686 -3.5623,-18.88955 -0.3019,-18.57487 6.9219,3.70192 21.474,-7.42652 16.8062,-12.28559 -2.2588,7.00821 -21.1496,8.64813 -10.9112,0.576 9.4095,-0.6717 5.3688,-13.16178 14.9072,-12.14856 10.4553,-8.31698 14.6394,-24.12127 7.5156,-35.92898 -6.2099,-5.0501 -5.0321,-9.84989 -3.9543,-16.88336 1.0993,-6.55671 2.2634,14.49481 7.0666,3.81927 7.4477,-12.06879 -7.0683,-18.28369 -11.0644,-27.19987 -5.0329,-10.82863 -14.9729,-18.71303 -25.5695,-23.76028 9.7833,-4.5662 2.7435,-17.58098 -5.2174,-19.90137 -5.9241,-2.18338 -11.4729,-2.18658 -12.2413,-9.11549 -7.282,-8.03466 -18.9648,-5.12095 -28.408,-7.85142 -2.3106,-0.28844 -4.6413,-0.44938 -6.9649,-0.50634 -1.1535,-0.21138 -2.2957,-0.31421 -3.4205,-0.3177 z"
       inkscape:connector-curvature="0"
       inkscape:label="Kontur_Hinterhaar"
       sodipodi:nodetypes="cccccccccccccccccccccccccccccccccccccccccccccccccccccccccccccccccccccscccccccccccccccccccccccccc" />
  </g>
</svg>
