<?xml version="1.0" encoding="UTF-8" standalone="no"?>
<!-- Created with Inkscape (http://www.inkscape.org/) -->

<svg
   xmlns:dc="http://purl.org/dc/elements/1.1/"
   xmlns:cc="http://creativecommons.org/ns#"
   xmlns:rdf="http://www.w3.org/1999/02/22-rdf-syntax-ns#"
   xmlns:svg="http://www.w3.org/2000/svg"
   xmlns="http://www.w3.org/2000/svg"
   xmlns:sodipodi="http://sodipodi.sourceforge.net/DTD/sodipodi-0.dtd"
   xmlns:inkscape="http://www.inkscape.org/namespaces/inkscape"
   width="338.15475mm"
   height="415.26193mm"
   viewBox="0 0 338.15475 415.26193"
   version="1.1"
   id="svg864"
   inkscape:version="0.92.3 (2405546, 2018-03-11)"
   sodipodi:docname="Backhair07.svg">
  <defs
     id="defs858" />
  <sodipodi:namedview
     id="base"
     pagecolor="#ffffff"
     bordercolor="#666666"
     borderopacity="1.0"
     inkscape:pageopacity="0.0"
     inkscape:pageshadow="2"
     inkscape:zoom="0.49497475"
     inkscape:cx="834.64145"
     inkscape:cy="949.0168"
     inkscape:document-units="mm"
     inkscape:current-layer="layer1"
     showgrid="false"
     fit-margin-top="0"
     fit-margin-left="0"
     fit-margin-right="0"
     fit-margin-bottom="0"
     inkscape:window-width="1920"
     inkscape:window-height="1001"
     inkscape:window-x="-9"
     inkscape:window-y="-9"
     inkscape:window-maximized="1" />
  <metadata
     id="metadata861">
    <rdf:RDF>
      <cc:Work
         rdf:about="">
        <dc:format>image/svg+xml</dc:format>
        <dc:type
           rdf:resource="http://purl.org/dc/dcmitype/StillImage" />
        <dc:title></dc:title>
      </cc:Work>
    </rdf:RDF>
  </metadata>
  <g
     inkscape:label="Ebene 1"
     inkscape:groupmode="layer"
     id="layer1"
     transform="translate(389.05954,5.8809661)">
    <rect
       style="opacity:1;fill:none;fill-opacity:1;fill-rule:evenodd;stroke:none;stroke-width:0.99999988;stroke-linecap:round;stroke-linejoin:miter;stroke-miterlimit:4;stroke-dasharray:none;stroke-dashoffset:0;stroke-opacity:1;paint-order:stroke fill markers"
       id="rect1307"
       width="337.15475"
       height="414.26193"
       x="-388.55954"
       y="-5.3809662"
       inkscape:label="Frame" />
    <path
       style="display:inline;fill:#784421;fill-opacity:1;stroke-width:0.99999994"
       d="m -216.49377,30.181839 c -9.3274,-0.0365 -19.3847,1.5254 -24.7344,9.76376 -6.3411,0.169328 -16.0102,7.07059 -21.5579,13.59194 -5.5179,8.534558 -12.229,16.195271 -17.217,25.048071 -5.1149,10.81554 -7.4385,23.12088 -7.1102,35.12601 0.7518,10.0425 -10.8227,18.7044 -11.2443,35.41646 0.7847,9.99802 5.1712,15.39737 9.3375,24.31635 3.9718,8.5027 4.8567,12.5867 4.8803,22.01984 0.022,8.80271 5.7113,16.10161 5.0358,25.45064 0.6877,9.70883 5.8224,17.50973 7.7365,26.94305 3.7128,4.24558 2.1772,9.05359 3.2949,13.07053 -2.5333,0.1643 -13.188,6.86289 -10.5425,12.38633 -3.6819,6.33196 1.8194,13.17279 8.9638,15.83675 1.1412,-0.0109 2.2441,0.90646 3.2928,-0.50695 9.496,1.98904 17.0868,-7.58063 13.9671,-17.24183 -5.3537,-6.78098 -5.2318,-16.2132 2.2097,-21.44676 8.4823,-8.52096 -0.7528,-19.0744 0.4542,-28.03189 -1.8474,-10.82945 0.1095,-22.99023 -6.7427,-31.45854 -6.9613,-8.60308 -9.8673,-16.79522 -15.0156,-26.09919 -3.4647,-2.79431 -4.6987,-6.26655 -5.2917,-10.00249 5.4458,-26.87328 14.8357,-45.07426 25.9736,-56.19139 11.9112,-11.88889 25.8062,-15.71302 39.1837,-13.4457 26.7551,4.53467 51.4668,33.62791 53.0216,72.13513 a 0.50005001,0.50005001 0 0 0 0.093,0.29509 c -7.3794,5.76633 -11.7901,17.41178 -11.6432,27.27584 5.1392,7.49128 -4.4207,15.27024 0.757,21.9909 4.7646,6.94663 -2.744,14.86479 1.325,22.43584 3.971,6.17432 6.7165,13.8761 8.8403,20.11196 -0.5293,3.81214 -10.2204,8.41894 -9.3839,15.79595 -0.8,5.6928 -6.0065,2.13408 -4.9904,4.79398 7.5227,4.49057 11.5256,12.866 20.4979,15.61249 7.9863,1.64745 9.2836,-9.04775 12.9367,-13.60895 4.1352,-9.14557 -13.8348,-15.75039 -6.444,-22.21882 5.5337,-3.19519 8.1137,-9.69669 8.9343,-15.72773 2.8552,-7.49779 -4.8563,-14.55545 -3.8075,-19.60912 6.0744,-7.00138 -1.3318,-17.01183 2.142,-22.93247 6.0336,-7.88498 0.4568,-19.23338 -4.4504,-26.03508 5.1653,-6.41699 0.2508,-16.32265 3.0019,-23.91741 0.9994,-10.57095 1.269,-21.9615 -4.1285,-31.5097 -6.2611,-9.59361 -7.8369,-21.15608 -12.8327,-31.31542 -3.8008,-11.38505 -11.9549,-20.41758 -19.0232,-29.839501 -8.9464,-9.09256 -20.7542,-16.156591 -33.4465,-18.059371 -2.0079,-0.116261 -4.1217,-0.209658 -6.274,-0.21807 z"
       id="path1141"
       inkscape:connector-curvature="0"
       inkscape:label="Füllung_Hinterhaar" />
    <path
       style="display:inline;fill:#000000;stroke-width:0.99999994"
       d="m -216.49367,30.182088 c -9.3274,-0.0365 -19.3851,1.525201 -24.7348,9.763551 -6.3411,0.169339 -16.0099,7.07072 -21.5576,13.592051 -5.5179,8.534558 -12.2292,16.19525 -17.2172,25.04805 -5.1149,10.81554 -7.4385,23.12084 -7.1102,35.12598 0.7518,10.0425 -10.8225,18.70432 -11.244,35.41636 0.7847,9.99804 5.171,15.39739 9.3373,24.31635 3.9718,8.50272 4.8565,12.58668 4.8801,22.01982 0.022,8.80273 5.7114,16.10169 5.0359,25.4507 0.6877,9.70883 5.8224,17.50963 7.7365,26.94296 3.7128,4.24557 2.1773,9.05376 3.295,13.07068 -2.5333,0.16431 -13.1879,6.86298 -10.5424,12.38639 -3.6819,6.33199 1.8195,13.17287 8.9639,15.83685 v 0 c 1.1412,-0.0109 2.2442,0.90612 3.2929,-0.50729 9.496,1.98904 17.0864,-7.58057 13.9667,-17.24178 -5.3537,-6.78098 -5.2316,-16.21299 2.2099,-21.44655 8.4823,-8.52097 -0.7528,-19.07468 0.4543,-28.03217 -1.8474,-10.82945 0.1094,-22.99019 -6.7428,-31.4585 -6.9613,-8.60309 -9.8673,-16.79507 -15.0156,-26.09902 -8.7272,-7.03857 -3.3165,-18.37154 -9.096,-27.41341 0.2011,-11.22091 2.3395,-22.57136 5.366,-33.4176 4.7379,-11.49737 9.9442,-23.30895 18.5111,-32.43483 7.1531,-11.079288 29.78592,-12.082028 17.6917,-30.142141 6.3059,-10.385481 20.002,-8.942329 30.427,-8.587438 10.1732,2.699758 20.1758,7.560908 28.1328,14.552488 6.8483,8.659122 14.0952,17.326512 18.9308,27.294661 4.5361,8.93924 6.5769,18.80331 10.385,27.88929 5.3982,10.38344 9.4574,21.47075 8.3182,33.40075 0.6142,12.37872 -5.1171,-2.0865 -4.105,-6.30034 1.3599,-10.49296 -4.3207,-19.69538 -7.7522,-29.13957 -2.2844,-10.00592 -2.3388,0.2036 0.027,4.11199 3.9827,9.29064 6.2995,19.21338 5.4888,29.37429 3.6598,7.66602 9.29,20.31252 2.4795,28.81198 -5.6456,12.59055 -4.4317,-4.93534 -11.4188,-5.52417 -7.6244,5.65008 -12.1986,17.54596 -12.0491,27.59041 5.1392,7.49126 -4.4203,15.27046 0.7574,21.99115 4.7646,6.94663 -2.7445,14.86458 1.3245,22.43565 3.971,6.17432 6.7166,13.87584 8.8404,20.1117 -0.5293,3.81214 -10.2205,8.41935 -9.384,15.79636 -0.8,5.6928 -6.0063,2.134 -4.9902,4.79393 7.5227,4.49054 11.5255,12.86606 20.4978,15.61256 7.9863,1.64743 9.2839,-9.04816 12.937,-13.60937 4.1352,-9.14553 -13.8349,-15.7502 -6.4441,-22.21862 5.5337,-3.19519 8.1138,-9.69661 8.9344,-15.72764 2.8552,-7.49778 -4.8564,-14.55528 -3.8076,-19.60896 6.0744,-7.00139 -1.3321,-17.01232 2.1417,-22.93295 6.0336,-7.88499 0.4571,-19.23317 -4.4501,-26.03487 5.1653,-6.41699 0.2509,-16.32269 3.002,-23.91747 0.9994,-10.57093 1.2691,-21.96121 -4.1284,-31.50943 -6.2611,-9.5936 -7.8372,-21.15633 -12.8331,-31.31566 -3.8007,-11.38506 -11.9549,-20.417341 -19.0232,-29.83927 -8.9464,-9.092549 -20.754,-16.15658 -33.4463,-18.059361 -2.0079,-0.11626 -4.1217,-0.209931 -6.2741,-0.21836 z m 8.6616,8.587441 c 1.0722,2.34166 17.9032,7.050238 22.453,13.901449 12.5956,8.26276 18.849,22.413002 26.6265,34.760652 l 1.2605,1.52093 0.5828,0.57323 c -3.8604,-10.96991 -10.3486,-20.84279 -17.5178,-29.856101 -9.6849,-8.83937 -19.9313,-18.90099 -33.405,-20.90016 z m -14.6603,3.328091 c -3.465,-0.009 -6.8152,0.737838 -9.3054,2.689288 4.197,2.357311 18.106,-3.11853 25.2211,2.503652 -2.2668,-2.403901 -9.3005,-5.175862 -15.9157,-5.19294 z m -21.5117,0.561408 c 0.5437,-0.007 1.0937,0.0289 1.6506,0.110559 12.4574,7.79463 -0.5619,17.372372 -8.9018,21.512983 -10.1181,5.99767 -16.0487,16.78115 -21.0666,27.1054 -5.9577,10.91517 -8.1538,23.24771 -9.9791,35.46265 -0.23,0.21213 -0.3445,5.14039 -1.0102,0.97818 -1.0566,-10.94742 -2.3619,-22.26841 0.7857,-33.04268 1.9023,-14.03269 11.1847,-25.00091 18.5453,-36.46311 5.1612,-5.95367 11.8221,-15.562032 19.9761,-15.663982 z m 0.3688,0.913109 c -10.5865,4.614281 -17.2472,15.376112 -23.8233,24.520773 2.8679,-2.78845 5.0217,-6.241951 7.8718,-9.060171 3.5376,-5.692651 15.2761,-12.681421 15.9515,-15.460602 z m 5.4978,1.45497 c 0.043,0.003 0.095,0.01 0.1578,0.02281 0.6678,0.987071 -0.7998,-0.0582 -0.1578,-0.02281 z m 82.5832,66.836553 c -1.0417,0.44469 0.6877,16.20974 1.546,22.18041 2.6848,-4.82459 -0.8368,-15.63828 -1.546,-22.18041 z m -130.8157,15.36823 c 0.528,0.0305 1.132,1.14183 1.8297,3.87448 2.8032,9.67528 9.1121,21.35131 1.8931,30.69051 l -0.7561,1.87947 -0.4763,1.42266 c -3.1439,-1.72694 -10.6781,-4.28317 -11.6541,-16.72527 1.4842,-13.58799 7.2782,-21.25064 9.1637,-21.14185 z m 128.8021,30.93486 c 0.6783,2.92147 -7.0709,10.35942 -6.2531,16.17031 0.3062,14.73804 2.7508,-5.23243 5.603,-9.91731 4.5662,-9.99214 3.5419,3.147 0.3814,7.11747 -1.2028,13.65515 1.8003,-2.91471 4.2599,-6.70481 3.4469,9.88647 -3.5071,17.9281 -11.3971,22.53711 -0.1684,-0.67381 -2.1726,3.27887 -1.9027,0.94132 -1.9222,-10.9539 3.3595,-21.761 9.3086,-30.14409 z m -120.7785,1.83213 c 4.9674,1.90417 12.0012,16.77882 9.2039,24.20683 -4.5401,8.892 -2.3199,-6.60621 -3.7697,-8.78901 -1.6485,-6.44532 -2.1628,-6.60132 -1.3103,0.14377 1.1862,12.47819 -2.8835,-0.68874 -4.1113,-5.73801 -3.4179,-1.45288 0.977,13.28713 4.2951,15.98836 -5.4805,-2.34785 -10.4939,-18.29914 -4.3077,-25.81194 z m -8.9154,6.92773 c 1.2605,-0.0528 5.0595,6.38972 4.5156,9.89137 0.8934,3.60799 -4.1372,-4.51692 -4.2366,-5.6402 -0.8909,-3.04857 -0.8111,-4.22884 -0.279,-4.25117 z m 142.3945,1.42949 c 0.3272,-0.0233 0.812,0.44844 1.3545,1.26388 -0.3892,-0.50133 -0.8673,-0.92358 -1.4524,-1.24021 0.029,-0.0132 0.064,-0.0213 0.098,-0.0236 z m -1.5442,1.61785 c 1.8788,0.16255 5.6747,12.20373 1.0836,15.55432 -0.068,3.34581 5.1237,-8.77973 2.5165,-14.71536 2.9906,5.64917 6.4922,19.31614 -3.0961,22.18907 -0.8316,0.607 -1.6205,1.29521 -2.5145,1.81303 0.6691,-5.91006 -7.414,-12.85857 -2.3664,-19.17038 -0.6505,-8.77573 4.6687,-2.54342 3.6207,2.53506 -2.7926,11.0013 4.9396,-4.08658 0.098,-7.48826 0.1601,-0.52161 0.3898,-0.74069 0.6582,-0.71748 z m -7.6836,15.69992 c 1.4571,-0.11493 -4.9813,10.31199 -4.7712,13.5511 0.4007,13.00375 2.3646,-6.94853 5.9748,-10.88229 4.7467,6.56289 -3.2696,16.95584 -8.8372,22.55804 -3.7612,2.6362 -4.2957,-3.40258 -5.9831,-5.40089 -1.8592,-6.84827 2.1917,-13.96769 7.4437,-18.07618 -1.2157,3.07513 -5.4139,15.12288 -2.1619,22.19224 -0.4464,-3.83366 0.7586,-15.45338 4.9348,-20.97702 1.9653,-2.07442 2.9921,-2.93283 3.4001,-2.965 z m -109.0482,0.55868 c 0.5544,-0.0477 5.2269,6.28257 6.0414,9.12659 3.8201,7.08315 -2.5441,14.27252 -7.7136,18.61212 -4.2049,0.79985 -3.8224,-13.48907 -5.032,-18.00792 0.1332,-12.80615 4.0011,5.50833 2.2034,9.52922 3.6598,-2.02336 2.6346,-13.45692 -0.1254,-18.09574 6.3706,-4.27338 8.4692,14.48357 4.2161,19.30322 2.1702,1.12294 6.142,-12.14229 2.5104,-16.25315 -1.8345,-3.03679 -2.3344,-4.19415 -2.1003,-4.21434 z m -15.7112,0.31575 c 0.5513,0.0234 1.2059,0.49398 1.9617,1.5496 -1.2745,7.34065 -1.9861,16.473 5.654,21.29368 0.9749,3.38593 -4.7521,-4.06347 -5.5252,-4.566 -4.964,-1.85883 -5.4593,-18.42038 -2.0905,-18.27728 z m 6.5541,1.34306 c 0.052,0.0122 0.1281,0.0797 0.2344,0.23522 -0.226,0.69197 -0.4592,-0.28836 -0.2344,-0.23522 z m -2.5375,2.65881 c 1.2091,-0.0476 2.9804,13.6832 3.0385,16.04931 0.9041,2.77403 -0.6098,0.2108 -0.5959,-0.14376 -3.0335,-3.95338 -3.8227,-8.57436 -3.162,-13.36232 0.1913,-1.78755 0.4404,-2.53223 0.7194,-2.54323 z m 130.5096,5.33948 c 6.3177,3.12472 -0.082,17.47574 -3.3547,23.9643 -1.6207,3.44318 -1.1143,-0.14601 -1.2059,-1.16971 0.6081,-4.62859 -7.376,-19.99908 -0.558,-11.98376 1.6517,9.58272 3.4153,0.67208 0.3285,-3.79849 -0.3777,-12.02238 6.885,7.95918 1.5045,11.3659 4.855,-2.29655 3.1016,-14.14223 3.2856,-18.37824 z m -133.3755,12.31039 c 2.7853,5.3142 3.3945,14.23745 7.3331,18.61486 -6.0523,-0.29415 -7.1822,-12.51947 -7.3331,-18.61486 z m 122.6325,0.33896 c 0.3255,0.01 0.7336,0.13567 1.2389,0.40083 4.9212,9.44718 1.3592,18.2131 -8.3078,21.21588 -4.318,0.38491 -3.9687,-8.60065 -3.827,-11.95827 2.4023,-8.99034 3.0432,-0.68693 1.5248,3.68839 3.3965,8.88952 1.0869,-0.66327 1.9795,-4.61834 3.4854,-10.73023 7.2264,-1.74796 6.7006,5.06009 4.5328,2.3345 -3.1504,-13.89727 0.691,-13.78858 z m -100.5772,0.95636 c 3.6981,0.11066 4.138,14.44071 1.1215,18.50338 -7.8521,10.78236 2.2777,-8.22065 -1.324,-12.24128 -1.8834,4.22517 -2.2584,16.54059 -5.5621,23.20864 -2.7671,-3.22295 -1.1968,-12.72733 0.7866,-17.98883 -3.978,-0.47717 -5.3161,11.29961 -4.1284,16.51108 -5.1382,-4.95032 -2.5321,-19.51279 5.2377,-24.20408 1.5421,-2.73612 2.8333,-3.81994 3.8687,-3.78891 z m -18.0232,2.35395 c 1.8677,-0.0239 6.3843,4.68257 5.4902,7.76353 -2.1201,9.34687 -3.0061,1.17696 -5.0866,-2.91816 -1.6336,-3.52207 -1.3818,-4.83279 -0.4036,-4.84537 z m 129.4896,7.65977 c 1.2679,0.009 4.427,4.09955 3.3932,7.86817 0.8222,5.8992 -0.5714,12.00747 -4.3171,16.61529 -6.2024,7.94282 -9.5501,-9.37062 -6.7782,-13.53973 1.9873,-11.70731 4.8555,0.40193 3.6783,5.54964 -2.5243,12.65585 5.4924,-3.92404 2.0819,-8.53012 -3.428,-10.55134 5.4661,0.16938 3.0019,6.02646 -3.0664,11.68582 3.3104,-5.11703 -0.335,-9.37455 -1.5529,-3.34127 -1.4365,-4.62026 -0.725,-4.61516 z m -10.6628,8.86089 c -0.4803,1.35156 -0.5412,13.30698 -0.7112,16.20355 -7.995,3.57642 -3.7543,-21.19527 -4.4478,-9.41276 1.5316,14.26821 -0.5012,-4.12493 5.159,-6.79079 z m -119.55,0.95588 c 1.2208,0.0151 5.016,4.32368 5.0903,7.07789 3.445,6.12357 -3.499,-0.9288 -3.9851,-2.72752 -1.6776,-3.18831 -1.7447,-4.35829 -1.1052,-4.35037 z m 22.855,0.0141 c 4.2842,8.23671 1.077,18.76005 -6.6515,23.78689 -5.0877,-3.0592 -0.2781,-13.74462 2.8876,-18.63352 4.5994,-0.76044 -2.6597,12.92026 -3.1023,16.76044 5.7836,-4.51 5.095,-14.96139 6.8662,-21.91381 z m -14.3736,13.74992 c 1.1931,-0.0516 3.5979,2.5575 2.3299,5.95322 0.8946,2.80272 -1.3463,-1.23986 -1.5122,-1.50957 -1.8828,-3.1272 -1.634,-4.40832 -0.8177,-4.44365 z m -3.3974,0.17791 c 1.4446,0.0397 5.7358,10.15848 8.0177,13.15346 -5.4057,-0.83866 -6.5453,-8.6073 -8.2675,-13.02198 0.07,-0.092 0.1534,-0.13415 0.2498,-0.13148 z m 117.6199,3.369 c 1.0343,-0.036 1.399,0.6979 -0.2858,2.97092 -8.3693,1.51527 -2.1638,-2.88589 0.2858,-2.97092 z m -2.3694,5.47003 c 5.9188,0.10865 8.2811,11.85854 5.7323,16.37916 -7.9377,4.35126 1.996,5.14284 3.1903,-0.16968 -0.456,-11.91829 5.6392,2.07968 1.1927,6.2371 -7.0399,0.31414 -1.1539,3.97627 -5.1037,8.01558 -1.2062,0.4908 -8.8804,0.85408 -5.1258,-1.98551 -5.5007,-1.82631 -9.6067,-8.44751 -16.0769,-11.17936 3.2055,-0.90721 5.8553,-17.37127 13.8516,-16.7759 0.8317,-0.37274 1.6125,-0.53472 2.3395,-0.52139 z m -104.3785,6.521 c 1.6848,0.0226 0.7719,2.40506 -2.4446,4.10469 -2.0541,3.54287 -10.4231,-7.13729 -0.744,-2.86489 1.4724,-0.89619 2.5293,-1.24863 3.1886,-1.2398 z m -9.3244,3.1882 c 0.3956,1.09127 0.9227,1.86748 1.9629,2.7964 7.4228,0.0143 13.8578,5.33154 11.1251,14.0143 -5.9795,8.66023 -2.1799,-1.25977 -1.7486,-5.55424 -2.2914,-6.65808 -2.3089,-2.83912 -1.7063,1.63107 -4.2269,3.0724 0.3715,11.98772 -4.6451,11.02559 -4.2191,-3.73486 -3.6944,-0.37513 -6.9359,-0.11417 -10.9048,-2.22586 2.0417,-6.32415 0.2723,-9.97511 -8.119,8.34763 -7.6509,-4.27273 -3.9541,-8.96736 1.7948,-2.91391 4.449,-4.76314 5.6297,-4.85648 z"
       id="path912-0-0"
       inkscape:connector-curvature="0"
       sodipodi:nodetypes="ccccccccccccccccccsccccccccccccccccccccccccccccccccccccccccccccccccccccccccccccccccccccccccccccccccccccccccccccccccccccccccccscccccccscccccccscccccccccccccccccccccccccccccccccccccccccccccccccccccccccccccccccccccccccccccccccccccccccccccccccccc"
       inkscape:label="Kontur_Hinterhaar" />
  </g>
</svg>
