<svg xmlns="http://www.w3.org/2000/svg" width="1278.065" height="1569.494" viewBox="0 0 338.155 415.262">
  <path fill="none" d="M.5.5h337.155v414.262H.5z" paint-order="stroke fill markers"/>
  <path class="hair" fill="#3b2516" d="M184.706 16.195c-7.873-.024-14.898 4.827-19.046 11.504-2.282 7.447-10.343-7.73-17.36-4.34-10.577-1.626-21.556 2.897-29.304 9.9-7.038 7.057-14.034 14.13-18.786 22.973-5.38 7.553-10.228 19.79-21.337 19.114 5.776-10.931-19.688.11-10.545 8.897 7.61 7.122-8.307 11.17-9.36 18.713-3.974 8.237 5.356 28.542-11.03 22.575-1.483 11.336 16.49 5.268 15.555 15.298-.817 9.585-13.257-.614-8.381 9.11 8.058 3.525.133 18.907 11.095 23.387 2.388 3.237 4.125 7.995 4.586 12.236-1.38 11.563 8.91 24.422 21.106 22.97 11.003-6.051-15.72-8.827-7.62-19.969 3.204 12.802 17.72 20.662 30.279 16.799-1.31 9.079-23.45-1.387-12.193 9.961 7.249 5.88 17.155 1.268 24.016.374 3.169 3.134 8.124 1.056 9.097-.68 20.508 1.68 41.26 4.497 60.804-3.709a.495.495 0 0 0 .158-.102c5 4.776 10.18-5.817 14.5 1.358 8.902 2.73 21.024 1.73 26.212-7.06-2.088.05-21.483 5.871-9.578 1.597 8.65-3.05 11.97-18.83 12.522-21.35 3.387 4.723-2.02 22.72 6.368 10.523 5.008-5.027-3.562-18.89-.302-18.575 6.922 3.702 21.474-7.427 16.806-12.286-2.258 7.008-21.15 8.648-10.91.576 9.409-.672 5.368-13.162 14.906-12.148 10.456-8.317 14.64-24.122 7.516-35.93-6.21-5.05-5.032-9.85-3.954-16.883 1.099-6.556 2.263 14.495 7.066 3.82 7.448-12.07-7.068-18.284-11.064-27.2-5.033-10.829-14.973-18.713-25.57-23.76 9.784-4.567 2.744-17.582-5.217-19.902-5.924-2.183-11.473-2.187-12.241-9.115-7.282-8.035-18.965-5.121-28.408-7.852a70.166 70.166 0 0 0-6.965-.506 19.286 19.286 0 0 0-3.42-.318z"/>
  <path d="M188.188 19.21c.869.027 1.735.085 2.594.168 9.528 1.403 20.657-.536 28.795 5.48 4.754 3.98-1.204 9.686 8.2 8.96 9.2-.581 22.307 14.61 8.774 17.956-4.631 3.431 11.546 6.345 13.672 10.705 9.484 4.185 12.32 19.982 18.665 22.773 5.3 3.256 9.919 9.497 7.12 15.87.434 4.627-11.1-15.753-8.855-3.944 2.713 10.012-4.408 22.332-15.774 20.465-6.08-2.912-8.286-.4-1.964 2.768 7.381 4.559 15.666-4.895 19.629-6.153 7.588 8.245 9.24 21.671 1.894 30.62-2.669 7.401-15.749 11.693-17.062 1.163-5.683-.15 1.976 9.348 3.983 11.184-1.203 9.004-12.413 1.768-11.093 10.861-.642 5.412-8.363-3.69-4.72 3.144 3.174 5.138 19.586 2.726 6.138 4.34-4.53-.266-10.854-3.85-4.943 2.903 2.91 4.502 2.441 10.094 1.517 15.168.338-6.653-7.904-18.772-7.775-6.818.172 7.14-5.261 13.194-10.64 17.213-6.325 5.279-11.621-4.642-16.084-2.514-2.996 7.021 17.43 11.602 3.278 9.09-6.323-3.193-10.606-3.36-17-.003a.5.5 0 0 0-.463-.265.515.515 0 0 0-.18.041c-19.25 8.083-39.822 5.312-60.38 3.632-.415-.576-1.785-.873-4.57-.454-8.367 3.105 1.147-9.158-5.23-4.04-2.46 9.36-19.392 6.402-21.542 3.502 13.79 3.04 16.318-14.752 9.435-23.117.162 4.157-11.864 6.514-17.532 3.295-.832 4.18 15.332 2.107 17.92.574 6.756 9.819-6.933 10.492-13.294 8.884-9.205-2.338-14.134-12.283-16.1-19.89-8.339 7.17-2.252 20.34 7.776 22.29-9.272 2.406-21.28-8.83-19.599-19.47 1.219-4.64 5.708-15.181-.382-5.606-3.15.992-3.762-7.09 1.92-4.692-10.702-4.216-15.117-16.04-12.986-26.122-7.18.948 8.513-5.356 5.07-11.656-5.136-4.308-3.47-11.614-9.747-5.758-6.408-1.933-5.717-3.553.612-3.54 3.23-9.312 7.5 2.257 13.57-2.15-10.366-2.539-13.331-16.982-7.072-25.28 2.101-5.621 11.302-11.018 11.82-13.517-9.168-2.495-2.744-19.494 1.708-8.586 11.969 3.021 19.168-10.08 24.395-18.677 5.023-9.015 11.49-16.85 19.007-23.919 6.245-7.008 16.511-10.814 25.887-10.014 9.81-.918 19.355 12.21 24.957-1.079 4.382-4.696 10.57-5.982 16.651-5.786zm-3.482-3.015c-7.873-.024-14.898 4.827-19.046 11.504-2.282 7.447-10.343-7.73-17.36-4.34-10.577-1.626-21.556 2.897-29.304 9.9-7.038 7.057-14.034 14.13-18.786 22.973-5.38 7.553-10.228 19.79-21.337 19.114 5.776-10.931-19.688.11-10.545 8.897 7.61 7.122-8.307 11.17-9.36 18.713-3.974 8.237 5.356 28.542-11.03 22.575-1.483 11.336 16.49 5.268 15.555 15.298-.817 9.585-13.257-.614-8.381 9.11 8.058 3.525.133 18.907 11.095 23.387 2.388 3.237 4.125 7.995 4.586 12.236-1.38 11.563 8.91 24.422 21.106 22.97 2.64-.581 6.196-2.578 5.555-3.228-3.45-3.501-19.873-7.528-13.175-16.74 3.204 12.801 17.72 20.661 30.279 16.798-1.31 9.079-23.45-1.386-12.193 9.961 7.249 5.88 17.155 1.269 24.016.374 3.169 3.134 8.124 1.056 9.097-.68 20.508 1.68 41.26 4.497 60.804-3.709a.495.495 0 0 0 .158-.102c5 4.776 10.18-5.817 14.5 1.358 8.902 2.73 21.024 1.73 26.212-7.06-2.088.05-21.483 5.871-9.578 1.597 8.65-3.05 11.97-18.83 12.522-21.35 3.387 4.723-2.02 22.72 6.368 10.523 5.008-5.027-3.562-18.89-.302-18.575 6.922 3.702 21.474-7.427 16.806-12.286-2.258 7.008-21.15 8.648-10.91.576 9.409-.672 5.368-13.162 14.906-12.148 10.456-8.317 14.64-24.122 7.516-35.93-6.21-5.05-5.032-9.85-3.954-16.883 1.099-6.556 2.263 14.495 7.066 3.82 7.448-12.07-7.068-18.284-11.064-27.2-5.033-10.829-14.973-18.713-25.57-23.76 9.784-4.567 2.744-17.582-5.217-19.902-5.924-2.183-11.473-2.187-12.241-9.115-7.282-8.035-18.965-5.121-28.408-7.852a70.166 70.166 0 0 0-6.965-.506 19.286 19.286 0 0 0-3.42-.318z"/>
</svg>
