<svg xmlns="http://www.w3.org/2000/svg" width="1278.065" height="1569.494" viewBox="0 0 338.155 415.262">
  <g paint-order="stroke fill markers">
    <path fill="none" d="M.5.5h337.155v414.262H.5z"/>
    <path class="hair" fill="#502d16" fill-rule="evenodd" d="M138.089 208.094c-1.225.819-2.151 2.012-3.827 2.267.027-2.09-1.544-2.582-2.41-3.78-19.677 9.648-23.392-30.03-23.623-36.285C83.153 32.6 243.594-13.054 236.66 164.526c-2.345 18.161-10.11 28.005-24.054 40.357-4.58 2.28-8.574 4.803-16.036 5.88-22.694 10.95-40.734 4.681-58.482-2.67z"/>
    <path fill="none" stroke="#000" stroke-linecap="round" d="M137.961 208.131c-1.225.82-2.15 2.012-3.827 2.268.027-2.09-1.543-2.583-2.41-3.78-19.677 9.647-23.391-30.03-23.623-36.286-25.076-137.696 135.366-183.35 128.432-5.77-2.345 18.162-10.109 28.005-24.054 40.358-4.579 2.279-8.573 4.802-16.036 5.88-22.694 10.949-40.734 4.68-58.482-2.67z"/>
  </g>
</svg>
