<?xml version="1.0" encoding="UTF-8" standalone="no"?>
<!-- Created with Inkscape (http://www.inkscape.org/) -->

<svg
   xmlns:dc="http://purl.org/dc/elements/1.1/"
   xmlns:cc="http://creativecommons.org/ns#"
   xmlns:rdf="http://www.w3.org/1999/02/22-rdf-syntax-ns#"
   xmlns:svg="http://www.w3.org/2000/svg"
   xmlns="http://www.w3.org/2000/svg"
   xmlns:sodipodi="http://sodipodi.sourceforge.net/DTD/sodipodi-0.dtd"
   xmlns:inkscape="http://www.inkscape.org/namespaces/inkscape"
   width="338.15475mm"
   height="415.26193mm"
   viewBox="0 0 338.15475 415.26193"
   version="1.1"
   id="svg8"
   inkscape:version="0.92.3 (2405546, 2018-03-11)"
   sodipodi:docname="Eyes02.svg">
  <defs
     id="defs2" />
  <sodipodi:namedview
     id="base"
     pagecolor="#ffffff"
     bordercolor="#666666"
     borderopacity="1.0"
     inkscape:pageopacity="0.0"
     inkscape:pageshadow="2"
     inkscape:zoom="0.49497475"
     inkscape:cx="290.52939"
     inkscape:cy="717.84781"
     inkscape:document-units="mm"
     inkscape:current-layer="layer1"
     showgrid="false"
     inkscape:window-width="1920"
     inkscape:window-height="1001"
     inkscape:window-x="-9"
     inkscape:window-y="-9"
     inkscape:window-maximized="1"
     inkscape:snap-global="true"
     showguides="true"
     fit-margin-top="0"
     fit-margin-left="0"
     fit-margin-right="0"
     fit-margin-bottom="0" />
  <metadata
     id="metadata5">
    <rdf:RDF>
      <cc:Work
         rdf:about="">
        <dc:format>image/svg+xml</dc:format>
        <dc:type
           rdf:resource="http://purl.org/dc/dcmitype/StillImage" />
        <dc:title />
      </cc:Work>
    </rdf:RDF>
  </metadata>
  <g
     inkscape:label="Ebene 1"
     inkscape:groupmode="layer"
     id="layer1"
     transform="translate(1355.1667,-269.28568)">
    <rect
       style="opacity:1;fill:none;fill-opacity:1;fill-rule:evenodd;stroke:none;stroke-width:0.99999988;stroke-linecap:round;stroke-linejoin:miter;stroke-miterlimit:4;stroke-dasharray:none;stroke-dashoffset:0;stroke-opacity:1;paint-order:stroke fill markers"
       id="rect1307"
       width="337.15475"
       height="414.26193"
       x="-1354.6667"
       y="269.78568"
       inkscape:label="Frame" />
    <path
       style="opacity:1;fill:#ffffff;fill-opacity:1;fill-rule:evenodd;stroke:none;stroke-width:1;stroke-linecap:round;stroke-linejoin:miter;stroke-miterlimit:4;stroke-dasharray:none;stroke-dashoffset:0;stroke-opacity:1;paint-order:stroke fill markers"
       d="m -1151.154,393.48155 -6.7599,-1.43816 -5.1806,0.97723 -2.267,2.59522 -6.9051,6.16753 -0.4101,0.99304 c 0.3518,4.07367 4.3826,3.93887 5.2176,4.63033 l 3.814,0.546 10.1291,0.29427 5.6595,-1.06075 2.6885,-1.70007 c 1.7285,-1.44566 3.0568,-3.02474 2.6669,-5.17656 l -1.0157,-2.09998 -1.709,-1.51277 z m -61.3688,-0.82475 -13.413,2.5509 -4.7398,7.251 0.022,1.73351 c 1.1565,1.08067 2.1244,2.57062 4.7728,2.82245 l 12.0427,0.711 10.8686,-1.21622 c 1.9759,-1.31432 3.6818,-2.79674 3.0488,-5.10491 l -5.9939,-5.44396 -3.1957,-2.20976 z"
       id="path1580"
       inkscape:connector-curvature="0"
       inkscape:label="Füllung_Augen"
       sodipodi:nodetypes="cccccccccccccccccccccccccc" />
    <path
       style="fill:#a7ac93;fill-opacity:1;stroke-width:1"
       d="m -1156.801,392.56859 c -2.4788,0.0217 -5.2782,0.66697 -6.9815,2.4877 -2.2014,2.81371 -1.8653,7.31232 0.8366,9.6914 1.6198,2.26276 4.479,3.32945 7.1903,2.72697 0.3421,-0.0598 0.6813,-0.13728 1.0159,-0.22996 4.7087,-1.22454 8.0976,-6.95988 6.0539,-11.54142 -1.5042,-2.58075 -4.9499,-2.83686 -7.6243,-3.13056 -0.162,-0.004 -0.3257,-0.006 -0.4909,-0.004 z m -59.6651,0.82992 c -2.5814,0.14119 -5.7095,0.54085 -7.1097,2.98742 -1.9283,2.53821 -0.1723,5.77341 1.6532,7.81141 2.4142,2.29175 6.2945,3.00704 9.4035,1.90014 l 0.4754,-0.21136 c 3.5949,-1.50846 5.8978,-6.18463 4.1367,-9.80974 -1.8386,-2.77667 -5.5916,-2.6632 -8.5591,-2.67787 z"
       id="path3072"
       inkscape:connector-curvature="0"
       inkscape:label="Pupillen" />
    <path
       style="fill:#000000;stroke-width:3.77952766"
       d="m 745.69922,447.04688 c -3.67295,-0.008 -7.00112,0.16012 -9.25977,0.53906 -6.81713,1.14433 -18.87449,7.01819 -24.85937,12.11133 -5.59446,4.7608 -6.55961,6.6007 -1.92969,3.67773 1.68189,-1.06163 6.07933,-3.42025 9.77344,-5.24414 3.69373,-1.82393 7.38315,-3.68091 8.19726,-4.125 0.81487,-0.44413 5.48234,-1.50125 10.37305,-2.35156 10.39484,-1.80734 18.67848,-1.24638 31.63281,2.14258 10.14048,2.65285 13.90528,4.56169 24.73438,12.54492 5.04718,3.7203 9.27611,6.79972 9.40234,6.84375 0.86211,0.30274 -1.76282,-3.15189 -3.95117,-5.19922 -7.28693,-6.81948 -21.07047,-14.76404 -32.57422,-18.77344 -3.70809,-1.29241 -13.45881,-2.15037 -21.53906,-2.16601 z m -218.35156,2.20117 c -3.89594,3.7e-4 -7.82642,0.53442 -12.8086,1.59961 -15.09241,3.22677 -23.77756,7.04597 -32.26562,14.1875 -3.99572,3.36242 -9.52783,11.292 -9.4375,13.52929 0,0.3772 2.43787,-1.92602 5.38476,-5.11718 8.0058,-8.66862 17.05148,-13.48116 34.08203,-18.13282 8.72353,-2.38276 12.97445,-2.60979 22.46485,-1.19726 9.08674,1.35246 14.48037,3.09554 32.99023,10.66015 10.00895,4.09059 10.57499,4.23471 7.98828,2.03907 -6.35981,-5.39864 -24.493,-13.48892 -35.79492,-15.97071 -4.84686,-1.06416 -8.70795,-1.59803 -12.60351,-1.59765 z m 227.4375,7.47461 c -1.05789,0.0151 -2.25476,0.10259 -3.74805,0.22656 -11.25165,0.93286 -16.50385,2.7493 -29.22461,10.10547 -5.59861,3.2375 -14.83542,10.83844 -23.10352,19.01367 -2.9057,2.87259 -6.52278,6.13794 -8.04101,7.25781 -1.85159,1.36528 -2.79304,2.72911 -2.85352,4.13672 -0.0491,1.1545 -0.75317,2.82691 -1.55859,3.7168 -0.80655,0.88985 -1.22134,1.85874 -0.92578,2.15429 0.82696,0.82681 5.87638,-1.85889 10.86914,-5.78125 2.47937,-1.94793 4.7982,-3.54101 5.15234,-3.54101 0.35528,0 3.80088,-3.00502 7.66016,-6.67774 2.40443,-2.28799 5.21083,-4.63752 7.49805,-6.33007 -0.82206,5.08235 -0.5167,10.65871 -0.56446,15.34765 1.64093,11.8182 10.69585,21.65284 21.5625,26.29297 -10.70541,-0.4087 -28.97954,-2.98438 -41.28906,-5.93555 -1.2635,-0.30274 -0.3838,0.57742 2.39453,2.4004 6.20372,4.06888 15.50778,6.54512 34.31055,9.13281 6.63609,0.91324 31.76192,0.55849 37.5,-0.5293 12.03968,-2.28249 15.13699,-3.47675 19.60742,-7.5625 2.38224,-2.17689 4.33008,-4.28097 4.33008,-4.67578 0,-0.4467 -0.22759,-0.67933 -0.66602,-0.70117 -0.96604,-0.048 -2.95971,0.92056 -5.83593,2.85742 -2.50319,1.68567 -6.745,3.52651 -10.25391,4.45117 -5.12286,1.3499 -7.42037,1.49173 -16.96289,1.03711 11.54162,-3.8646 20.84233,-13.86883 24.18164,-25.69336 0.74575,-4.24354 1.44442,-9.58457 0.95703,-14.46289 1.95221,0.51621 4.87468,3.0433 15.74414,13.14844 2.42306,2.25286 5.80293,5.03541 7.50977,6.18359 3.26929,2.19901 6.88696,2.77649 6.84765,1.0918 0,-0.5486 -3.42656,-4.74689 -7.58593,-9.32813 -4.89525,-5.39115 -7.42246,-8.77751 -7.16016,-9.60156 0.53442,-1.68332 -6.02584,-7.98002 -14.75391,-14.16015 -9.60491,-6.80081 -13.13432,-8.68256 -21.46289,-11.45118 -5.02148,-1.66892 -6.9592,-2.18095 -10.13476,-2.12304 z m -225.45704,2.96875 c -0.55586,0.005 -1.11419,0.0215 -1.67382,0.0508 -9.53764,0.10053 -17.36295,2.86455 -25.25196,5.87695 -3.92844,1.49998 -16.04757,9.07226 -17.73437,10.56445 -0.71773,0.63493 -2.0262,2.11843 -2.29492,3.45313 -0.26835,1.33478 -1.80442,3.12879 -3.03125,4.29492 -2.45405,2.33216 -5.74414,9.35495 -5.74414,11.01953 0,1.23991 -7.81198,11.82617 -8.7168,11.82617 -1.00611,0 -4.83984,3.83393 -4.83984,4.83985 0,1.10804 2.86821,0.66468 7.97851,-1.23438 4.55887,-1.69436 5.64415,-2.70075 9.94336,-9.22656 1.93247,-2.93299 5.50745,-7.03599 7.94336,-9.11719 2.36493,-2.02021 5.47159,-5.31971 7.06445,-7.47656 -0.44098,3.80616 -0.16347,7.87753 0.14258,11.33789 2.17069,10.28722 10.87917,17.95465 19.30078,23.67188 -8.17506,-0.19765 -15.10751,-0.50316 -17.66406,-0.92579 -11.18967,-1.84966 -11.01683,-1.84979 -10.07422,-0.0879 1.97896,3.69838 10.47243,5.27025 35.60742,6.5918 8.3384,0.43835 16.05673,0.941 17.1543,1.11523 2.89058,0.45929 19.71773,-0.3496 23.98633,-1.15234 2.00239,-0.37644 7.84132,-2.6805 12.97656,-5.12109 5.13524,-2.44063 9.87109,-4.4375 10.52344,-4.4375 0.65197,0 1.18555,-0.53903 1.18555,-1.19727 0,-0.79162 -0.97132,-1.18776 -2.22461,-1.1875 -1.25292,3e-4 -2.78752,0.39768 -3.91797,1.18946 -1.88221,1.31788 -12.58614,3.58253 -16.9961,3.59765 -1.53562,0.008 -4.40996,0.48444 -6.38476,1.06641 -1.39639,0.41147 -7.87889,0.63983 -15.98047,0.73437 1.61344,-0.47181 3.20026,-0.97687 4.74023,-1.50195 10.82835,-6.83293 16.71518,-20.1096 15.82813,-32.75586 -0.48536,-1.99681 -1.22808,-3.93804 -2.16406,-5.77539 8.01279,5.11735 15.04608,10.1667 17.76953,12.82031 8.448,8.23268 11.72464,11.04102 12.8789,11.04102 2.03792,0 1.39718,-1.92025 -1.61132,-4.83203 -1.56246,-1.51231 -4.62391,-5.52683 -6.80469,-8.92383 -4.88429,-7.60861 -13.83822,-15.10379 -25.89453,-21.67578 -9.69839,-5.80164 -17.68153,-8.53056 -26.01954,-8.46289 z m 203.31055,12.50195 c 0.60484,-0.0467 0.1007,0.7746 -1.80078,3.59961 -2.41852,3.59372 -2.70312,4.59011 -2.70312,9.49023 0,10.1593 3.30326,15.69557 12.76757,21.40039 1.94986,1.17547 4.13416,1.68347 7.23828,1.68555 6.77405,0.008 11.17935,-1.85922 15.7129,-6.65234 6.8931,-7.28867 8.25648,-15.86417 3.91796,-24.63086 -1.03937,-2.10063 -1.83516,-3.82032 -1.76562,-3.82032 0.78614,0 11.87161,5.98329 13.94922,7.5293 0.55512,0.41316 1.20601,0.77721 1.86328,1.09961 4.27633,16.47923 -7.88118,35.25583 -24.29883,39.52539 -1.26463,0.35029 -2.54687,0.64313 -3.83984,0.86914 -1.02192,0.22708 -2.04833,0.37514 -3.07617,0.47852 -2.23783,-0.0525 -4.31025,-0.0853 -6.1211,-0.0918 -7.08982,-0.93602 -13.68671,-4.69798 -17.97851,-10.69336 -9.40943,-8.2852 -11.22067,-23.36668 -4.93946,-34.00586 1.86158,-0.95478 3.94808,-2.10766 5.21289,-2.89453 1.66715,-1.03725 3.87035,-2.20363 4.89649,-2.59375 0.43748,-0.16632 0.76323,-0.27935 0.96484,-0.29492 z m -188.56055,0.27344 c 1.27446,0 7.71226,2.76605 10.67579,4.58593 0.11532,0.0708 0.22664,0.14391 0.34179,0.21485 0.52119,0.60292 1.01599,1.24583 1.47657,1.9414 6.65612,13.70117 -2.04775,31.37491 -15.63477,37.07618 l -1.79688,0.79882 c -11.75055,4.18356 -26.41648,1.4801 -35.54101,-7.18164 -6.87181,-7.67172 -13.47763,-19.83059 -6.33008,-29.40625 0.10721,-0.0244 0.21477,-0.0488 0.3125,-0.0488 0.89991,0 2.69499,-0.54914 3.99024,-1.21875 l 2.35351,-1.2168 v 6.20508 c 0,4.86259 0.41724,7.06663 1.89844,10.19336 4.68094,9.87235 15.52325,15.17656 25.22266,12.33984 3.91407,-1.14478 10.91803,-6.81338 14.26367,-11.54297 2.58104,-3.64789 2.83398,-4.47047 2.83398,-9.60156 0,-4.70249 -0.3463,-6.22099 -2.19336,-9.375 -1.21247,-2.07009 -2.05711,-3.76367 -1.87305,-3.76367 z"
       transform="matrix(0.26458333,0,0,0.26458333,-1355.1667,269.28568)"
       id="path3050"
       inkscape:connector-curvature="0"
       inkscape:label="Kontur_Augen" />
    <path
       id="path2998"
       style="fill:#ffffff;stroke-width:0.99999994"
       d="m -1158.5785,397.56154 c 0.3395,-0.2885 1.2314,-0.91739 1.6668,-1.40413 0.8731,-0.97597 1.1214,-1.23288 0.5849,-1.76938 -0.2791,-0.27906 -0.598,-0.33225 -1.459,-0.24339 -1.4086,0.14538 -2.0523,0.57668 -2.6002,1.74221 -0.5468,1.16331 -0.4009,1.42975 -0.067,1.7712 0.6288,0.64306 1.3904,0.31484 1.8745,-0.0965 z m -59.3093,0.27413 c 0.8244,-0.35894 2.7644,-2.02085 2.9159,-2.49793 0.1646,-0.51827 -0.2077,-1.19202 -0.7543,-1.36551 -0.239,-0.0759 -0.901,-0.0261 -1.4709,0.11066 -1.9226,0.46123 -3.1674,2.53147 -2.1787,3.62381 0.4103,0.45346 0.6874,0.47748 1.488,0.12901 z"
       inkscape:connector-curvature="0"
       sodipodi:nodetypes="cccccsscccccccc"
       inkscape:label="Glanzlicht" />
  </g>
</svg>
