<svg xmlns="http://www.w3.org/2000/svg" width="1278.065" height="1569.494" viewBox="0 0 338.155 415.262">
  <path fill="none" d="M.5.5h337.155v414.262H.5z" paint-order="stroke fill markers"/>
  <path fill="#fff" fill-rule="evenodd" d="M120.749 127.681s.974 4.54 2.292 6.552c.737 1.124 3.246 3.02 3.246 3.02l5.323.806 16.025-1.256 1.182-1.728c1.093-1.919 1.18-4.707.7-7.985l-5.19-1.963-10.915-.51zm95.345-.6-2.723 6.686c-.482 1.495-1.475 2.393-2.816 2.885l-5.323.806-16.024-1.255-1.183-1.729c-.442-2.494-.949-4.937-.699-7.985l5.19-1.963 10.915-.51z" paint-order="stroke fill markers"/>
  <path class="eyes" fill="#a7ac93" d="M196.772 137.233c-4.162-.345-6.394-4.977-5.951-8.789-.124-3.958 3.43-5.512 6.913-5.036 3.796.108 7.816-.2 11.385 1.274 2.31 1.959 2.26 5.815.972 8.377-1.347 3.76-5.894 4.463-9.383 4.214-1.307-.038-2.649.254-3.936-.04zm-63.377 1.066c-4.354-.354-7.345-4.295-7.2-8.539-.836-4.365 3.78-5.825 7.217-5.746 3.221-.145 6.492-.154 9.678.357 2.619 1.924 2.591 6.038 1.557 8.872-1.23 3.126-4.623 4.521-7.719 4.957-1.125.392-2.374.234-3.533.099z"/>
  <path d="M200.357 122.925c-.977 0-1.843.07-3.083.21-1.594.179-3.527.464-4.294.632-.767.169-1.761.38-2.208.469-1.267.253-2.884.902-3.211 1.289-.346.408-.423 1.56-.118 1.758.115.075.58-.198 1.034-.606.678-.61 1.79-1.058 3.253-1.33-.603.79-.95 1.817-.91 3.097-.355 3.062 1.017 6.65 3.726 8.124-1.566-.055-2.897-.12-3.603-.19l-1.735-.175-.399-1.031c-.273-.708-.536-1.034-.838-1.041-.557-.013-.557.218 0 1.353.906 1.84.573 1.752 8.463 2.234 9.04.552 10.567.526 12.53-.218 2.249-.852 2.579-1.264.695-.87-.947.2-2.377.272-3.918.2l-.048-.001c1.96-.571 3.66-1.71 4.398-3.77.932-1.853 1.215-4.381.427-6.38.504.2 1.054.435 1.682.718 1.065.48 2.07.876 2.234.88.404.009.371.26-.212 1.669-.637 1.534-1.003 3.18-.851 3.822.28 1.182.92.232 2.438-3.61.224-.567.587-1.287.807-1.6.757-1.078.666-1.42-.568-2.14-.627-.366-1.372-.673-1.655-.682-.284-.01-1.214-.303-2.067-.65-3.54-1.444-4.225-1.606-8.228-1.946-1.679-.143-2.765-.214-3.741-.215zm-65.016.411a42.982 42.982 0 0 0-3.064.095c-2.593.177-3.573.36-5.8 1.084-7.531 2.448-7.587 2.474-7.369 3.437.077.342.335.812.574 1.045.239.233.427.55.427.704-.004.154.464 1.303 1.039 2.554.575 1.25 1.165 2.28 1.31 2.286.743.034.567-1.568-.48-4.351-.542-1.444-.562-1.682-.14-1.672.173.004 1.334-.44 2.582-.988.786-.345 1.556-.64 2.275-.884-.52.813-.744 1.84-.5 3.114-.101 2.965 1.33 5.78 3.684 7.33-2.22-.023-3.027-.09-3.693-.233-1.57-.34-.895.203 1.156.93 1.59.563 1.933.6 5.286.566.318-.003.698-.014 1.063-.022 1.05.121 2.155.22 3.168-.112a96.213 96.213 0 0 0 2.6-.148c1.783-.135 4.285-.291 5.559-.348 1.273-.056 2.49-.189 2.702-.294.432-.212 1.634-2.13 1.645-2.626.004-.175-.19-.323-.432-.327-.303-.008-.58.308-.891 1.019-.367.836-.583 1.047-1.149 1.126-.765.107-3.2.234-5.823.33 1.572-.8 2.9-1.992 3.576-3.708.849-2.323 1.019-5.505-.39-7.637 1.899.164 3.408.692 4.204 1.489.617.618.73.656 1.05.351.319-.305.32-.424.012-1.113-.279-.62-.586-.852-1.579-1.19-3.315-1.127-8.086-1.791-12.602-1.807zm59.878 1.651-.173.547c-.4 1.273-.494 3.001-.223 4.067.396 1.554 1.924 3.107 3.62 3.68 1.573.53 1.878.54 3.427.12 2.718-.738 4.438-3.294 4.238-6.3l-.104-1.559 1.097.161c.771.114 1.502.29 2.35.578.647 1.18.76 2.723.192 4.238-.092 3.337-2.504 5.673-5.816 5.797a8.803 8.803 0 0 1-1.773.403c-.182-.003-.44-.011-.589-.012a254.652 254.652 0 0 1-3.49-.045c-2.646-.402-5.224-1.815-6.13-4.416-.772-2.266-.714-5.395.984-7.065.256-.03.518-.056.79-.076zm-52.9.555c.182-.002.458.003.725.008.3.375.555.82.797 1.27 1.85 3.928-.711 8.664-4.58 10.192-1.433.042-2.826.075-3.944.08-1.549.005-2.751.007-3.793.005-1.681-.613-3.086-1.758-3.761-3.656-1.063-2.125-1.3-5.502.43-7.241.784-.195 1.42-.284 1.784-.223.48.08.504.18.395 1.654-.098 1.32-.026 1.767.452 2.803 1.331 2.893 4.44 4.173 7.527 3.1 1.212-.421 2.658-1.601 3.21-2.62.636-1.176.651-3.378.033-4.996-.105-.278-.038-.366.725-.376z"/>
  <path fill="#fff" d="M199.617 128.93c1.461-.652 2.089-2.362 1.263-3.44-.366-.478-1.899-.644-2.775-.302-1.603.626-2.09 2.965-.774 3.72.801.46 1.292.465 2.286.021zm-63.018-.47c1.84-1.817 1.8-3.253-.09-3.298-1.414-.033-2.55.454-3.007 1.288-.667 1.218-.458 2.165.613 2.784.838.484 1.383.314 2.485-.773z"/>
</svg>
