<svg xmlns="http://www.w3.org/2000/svg" width="1278.065" height="1569.494" viewBox="0 0 338.155 415.262">
  <path fill="none" d="M.5.5h337.155v414.262H.5z" paint-order="stroke fill markers"/>
  <path fill="#fff" fill-rule="evenodd" d="m202.79 120.55-4.832-.008-6.06 2.546-3.791 4-1.146 1.4-2.345 3.955.868 3.207 3.408.134 11.76-2.005h8.887l2.872.802 1.805-2.338-1.805-5.28-4.787-3.91zm-66 1.653-10.322 3.358-3.942 7.416 1.403 2.34 3.383 1.578 15.442-1.599 7.434.955 1.203-4.075-.826-2.163-4.923-4.801z" paint-order="stroke fill markers"/>
  <path class="eyes" fill="#a7ac93" d="M195.15 134.59c3.112-.667 6.475.072 9.443-1.167 3.27-2.033 3.573-6.263 3.031-9.701-.962-3.635-5.746-2.501-8.596-3.018-3.727.037-7.028 2.377-9.675 4.812-3.087 2.57.242 6.174 2.194 8.27.658 1.785 2.168.918 3.603.805zm-61.966 1.072c2.805-.972 6.157-.642 8.7-2.03 2.525-1.631 3.402-6.427 1.486-8.755-4.394-2.064-9.698-1.662-13.884.637-2.132 1.451-5.838 3.864-4.174 6.966 1.543 2.788 4.737 4.581 7.872 3.182z"/>
  <path d="M198.774 117.142a13.666 13.666 0 0 0-1.512.033c-.763.067-1.962.397-2.663.732-.702.335-1.985.932-2.852 1.327-1.735.79-5.202 3.609-6.155 5.005-.335.49-.77 1.04-.966 1.22-.352.327-1.44 2.102-1.445 2.363-.011.453.645-.005 1.283-.898 1.517-2.119 3.147-3.865 4.096-4.385.537-.295 1.522-.987 2.19-1.538 1.472-1.214 4.864-2.505 6.934-2.638 2.073-.134 6.354.443 8.894 1.198 2.141.636 4.458 1.91 7.458 4.097.818.597 1.538 1.216 1.6 1.376.166.439 1.205.652 1.214.25.018-.777-5.988-5.36-8.01-6.113l-2.543-.947c-1.448-.54-5.03-1.025-7.523-1.082zm2.392 2.528c-.282-.003-.565.007-.851.028-1.846.131-5.991 1.145-6.661 1.629-.222.16-1.025.586-1.783.947-1.292.616-4.21 3.349-5.995 5.616-.673.854-1.267 2.536-1.612 4.565-.177 1.04-.143 1.248.203 1.256.454.009 1.444-1.718 1.729-3.015.097-.443.367-1.08.6-1.414.033-.045.11-.138.165-.206.633 2.174 2.16 4.19 4.2 5.37-1.163.32-2.058.671-2.318.954-.221.24-.766.284-2.008.164-1.43-.138-1.733-.098-1.883.249-.105.24.012.621.279.91.614.668 2.217.685 4.095.045 4.305-1.468 10.235-2.251 16.102-2.127 3.713.08 4.44.16 5.523.624 1.104.473 1.292.492 1.65.17.558-.503.061-1.048-1.344-1.47-.562-.17-2.5-.291-4.877-.361.723-.44 1.261-1.138 1.48-2.26.568-1.91 1.044-4.123.776-6.164 1.995 1.416 3.228 2.86 4.157 4.773.544 1.12.985 2.227.98 2.46-.014.56.662.802 1.394.502.676-.278 3.144-2.199 3.15-2.453 0-.094-.406-.389-.906-.656s-1.185-.783-1.522-1.147c-4.187-4.522-5.472-5.636-7.98-6.914-2.844-1.45-4.771-2.055-6.743-2.075zm-64.04-1.8c-1.365-.017-2.558.152-4.036.526-2.422.614-3.908 1.316-4.239 2-.295.614-.27.638.68.653.542.01 1.48-.195 2.082-.453 2.625-1.123 7.316-1.17 11.62-.114 2.329.57 3.204 1.044 5.626 3.045 1.399 1.156 2.276 2.156 3.098 3.532.707 1.186 1.323 1.925 1.608 1.933.775.021.553-.891-.624-2.563-3.187-4.524-8.123-7.67-13.075-8.333-1.04-.14-1.921-.217-2.74-.227zm66.155 4.35c.208.015 1.415.606 2.806 1.377.589.327 1.126.646 1.626.964.405 3.114-.05 6.732-3.12 8.529a9.243 9.243 0 0 1-1.577.452c-3.636-.03-7.383.05-8.82.266-.72.108-1.43.248-2.095.401-.22-.162-.408-.406-.554-.777-1.43-1.445-3.592-3.648-3.44-5.674 1.323-1.464 3.143-3.37 3.264-3.367.072.002.039.595-.074 1.32-.272 1.737.119 3.127 1.259 4.476 1.125 1.331 2.676 2.321 4.287 2.734 1.042.268 1.398.244 2.65-.17 1.812-.6 3.019-1.63 3.942-3.367.658-1.239.71-1.538.619-3.562-.126-1.117-.282-2.832-.773-3.602zm-66.68-1.2c-.996-.021-1.921.137-3.846.589-5.294 1.242-7.11 2.448-10.105 6.71-.816 1.161-1.629 2.724-1.993 3.835-.338 1.03-.724 1.283-.726 1.337 0 .055.562.7 1.119.66.917.097 1.555 1.355 2.115 1.627 1.123 1.542.925.573 1.025-2.389.012-.357.025-.66.04-.937.603 1.656 2.038 3.153 3.483 3.875-.989.45-1.544 1.068-1.08 1.377.422.28.01.33 3.178-.376 6.272-1.393 8.127-1.548 13.34-1.117 4.002.332 4.914.487 5.759.977.999.58 1.006.581 1.4.067.47-.614.79-1.66.575-1.884-.084-.087-.51-.02-.947.15-.662.257-1.022.227-2.159-.178-1.092-.39-3.136-.695-5.058-.815.794-.437 1.424-1.114 1.761-2.202.851-1.834 1.6-4.204.923-6.139a43.516 43.516 0 0 1 2.232 1.595s1.445 1.188 1.975 1.822c.539.646 1.126 1.907 1.126 1.907-.027 1.237-.176 1.136.927 1.93 1.39.113.554-1.974.469-2.343-.369-1.576-.66-2.125-1.88-3.534-1.586-1.831-4.173-3.92-5.931-4.789-1.392-.688-4.211-1.396-6.661-1.674a11.801 11.801 0 0 0-1.06-.079zm3.303 2.936a10.6 10.6 0 0 1 2.918.687c.203.104.415.222.63.342 1.805 2.363.92 7.04-1.568 8.646-.968.529-2.054.808-3.182 1.005-4.43.475-7.911.926-9.466 1.231-1.632-.537-3.046-1.8-3.925-3.388-.911-1.7.236-3.54 1.445-4.704-.125 1.869.937 4.593 3.133 5.873 1.224.714 1.633.813 3.4.82 1.924.008 2.089-.043 3.889-1.183 1.393-.883 2.035-1.488 2.485-2.341.856-1.623 1.044-3.376.577-5.381-.2-.855-.32-1.34-.336-1.607zm63.123 13.169a46.353 46.353 0 0 0-2.2 0c-4.265.085-5.968.45-5.276 1.131.095.094.183.17.195.17.012 0 .919-.158 2.015-.35 1.306-.23 2.966-.305 4.818-.217 2.972.142 3.706-.01 2.447-.505-.314-.124-.984-.2-2-.23zm-62.23 1.382c-2.334-.024-4.972.471-5.202 1.141-.142.413-.067.412 2.188-.014 1.023-.193 2.783-.333 3.91-.31 2.086.04 2.729-.274 1.238-.606-.61-.136-1.355-.202-2.133-.21z"/>
  <path fill="#fff" d="M134.322 123.927c.703.388.296.968-.921 2.219-1.102 1.132-1.699 1.448-2.414 1.276-1.165-.279-1.361-.853-.738-2.032 1.137-.902 2.628-1.54 4.073-1.463zm63.77-1.515c.414.005.716.103.795.325.173.481-.058 1.217-.38 1.21-.116-.003-.718.4-1.34.896-1.062.85-1.64.995-2.727.685-.516-.147-.566-.551-.186-1.488.334-.825 2.595-1.644 3.838-1.628z"/>
</svg>
