<svg xmlns="http://www.w3.org/2000/svg" width="1278.714" height="1568.173" viewBox="0 0 338.326 414.913">
  <path fill="none" d="M1.172 0h337.155v414.262H1.172z" paint-order="stroke fill markers"/>
  <path fill="#fff" fill-rule="evenodd" d="M123.047 128.38s-.143 3.907 1.095 5.97c.692 1.152 4.778 1.07 4.778 1.07l5.105.571 11.286-1.65 5.012-.431c1.167-1.874.013-1.93-.34-5.225l-4.802-4.697-8.831-1.359c-4.435 1.916-10.495 1.606-13.303 5.752zm86.388-3.784 4.323 2.868c-.387 1.523.727 6.379-2.615 6.548l-5.995 1.187-15.792-1.632-2.29-.014c-.599-2.46-.286-2.078-.228-5.136l4.802-5.321 10.795-.53z" paint-order="stroke fill markers"/>
  <path class="eyes" fill="#a7ac93" d="M194.802 134.098c-1.62-.729-1.416-1.804-2.41-5.95-.124-3.958 3.507-6.373 7.114-5.67 3.796.108 4.541.033 8.11 1.508 2.31 1.958 3.264 4.545 1.975 7.107-1.347 3.76-5.894 4.463-9.383 4.214-1.884.07-3.906-.534-5.406-1.209zm-59.271 2.274c-4.314-.687-8.775-1.299-8.304-5.519-.253-2.251-.012-4.653.982-5.958.955-1.255 2.626-1.46 4.303-1.292 3.223.103 5.86-.518 8.942-.772 2.463 2.12 3.51 8.434 1.4 11.481-.976.548-1.498 1.437-4.618 1.634-1.152.304-1.56.65-2.705.426z"/>
  <path fill="#fff" d="M201.271 127.483c1.462-.652 2.09-2.362 1.263-3.44-.365-.477-1.898-.643-2.775-.3-1.602.625-2.09 2.964-.774 3.719.802.46 1.292.464 2.286.021zm-64.63.257c1.605-1.657 1.328-3.845-.564-3.89-1.412-.032-2.55.455-3.006 1.288-.667 1.218-.458 2.165.613 2.784 1.32.427 1.94.867 2.957-.182z"/>
  <path d="M196.769 118.713c-4.41-.008-9.204 1.807-11.581 5.845-.642 2.598 2.615-2.617 4.269-3.306 3.726-1.553 6.098-1.688 9.322-1.558 5.14.207 10.764 1.4 15.314 3.916 2.504 3.08 1.224-.63-1.324-1.855-4.805-2.312-10.676-3.033-16-3.042zm-55.033.58c-5.388-.62-11.213 1.093-16.341 2.902-1.417.5-5.427 2.976-4.193 3.572 3.17-3.096 7.802-3.996 11.96-5.038 5.233-.98 11.239-1.047 15.778 2.101 1.651.663 3.258 3.928 3.817 4.088-.751-2.87-3.18-5.244-5.886-6.247-1.656-.69-3.37-1.068-5.135-1.377zm53.829 2.513c-3.35.059-6.66 1.911-8.057 5.021-.76 1.013-1.474 5.103-.143 1.975 1.31-2.37 3.639-4.964 6.832-5.057-2.766 2.56-3.49 6.815-1.06 9.452.395.41-3.159-.63-5.112-.246-2.818.251-.734.748.344.808 4.71.34 8.989 2.471 13.94 2.303 3.923-.133 8.318-.27 11.74-2.635.851-2.51-2.552-.008-5.85.836.948-1.247 2.21-3.498 2.35-5.595.086-1.282.177-2.416-.985-3.921.918.048 1.967 1.105 3.041 1.904 1.076.483 2.92 3.887 1.92.861-2.392-4.105-7.493-5.383-11.923-5.647a55.894 55.894 0 0 0-7.037-.059zm-54.077.255c-4.955.203-10.17.125-14.9 2.29-1.799.824-5.368 3.864-4.209 4.886.541-1.636 3.477-3.273 4.457-3.487-.231.549-.327 1.285-.504 2.974-.234 2.243.812 4.566 1.67 5.753-1.944.346-4.502-2.184-5.606-1.06 2.654 2.806 6.632 2.259 10.173 2.818 3.698.584 7.831-.032 11.363-1.049 2.214-.814 5.154-.49 6.975-.924-1.784-1.734-6.468-.35-7.36-.602 2.7-2.636 1.396-8.366-1.224-10.259 2.907.211 6.238 3.254 6.877 5.659.884 1.82 1.368 2.256.773-.162-1.371-4.14-4.535-6.953-8.485-6.837zm55.74 1.566c-2.244 2.622-1.037 5.817 2.377 7.043 3.418 1.227 7.138-1.897 6.167-5.454-.193-.707-.322-1.07-.47-1.374.747.01 2.079.252 2.638.596.968.914 1.172 1.917 1.279 3.21.185 2.25-1.27 5.029-2.727 6.718-.564.209-1.155.182-1.703.277-3.096.114-8.028-.015-9.454-.733-.762-.683-.694-.693-1.12-1.2-2.322-3.266-1.159-6.889 1.407-8.935.595-.06 1.004-.132 1.607-.148zm3.27.182c4.463.074.138 5.616-1.655 2.43-.898-1.448.062-2.557 1.655-2.43zm-59.292-.028c1.086.833 2.742 2.502 2.541 6.649-.075 1.535-1.033 2.494-1.917 3.462-1.83.838-4.434 1.365-6.418 1.477-1.959.11-4.347-.404-5.905-1-.79-1.063-1.303-2.265-1.696-3.706-.476-1.75-.252-4.183.579-5.553.903-.363 1.496-.56 2.574-.648-1.72 1.98.168 6.549 4 6.544 3.19-.004 6.411-2.882 4.493-6.01-.305-.497-.936-1.18-.936-1.18.593-.059 1.462-.174 2.685-.035zm-5.9.562c5.635.844-2.599 6.195-1.864.93.332-.692 1.153-.956 1.864-.93zm53.362 12.152c.428 1.95 5.26 2.45 6.534 1.476-2.225-.386-4.46-.481-6.534-1.476zm-40.554.668c-1.917 1.187-5.059.757-6.554 1.72 1.82.361 6.223.269 6.554-1.72z"/>
</svg>
