<?xml version="1.0" encoding="UTF-8" standalone="no"?>
<!-- Created with Inkscape (http://www.inkscape.org/) -->

<svg
   xmlns:dc="http://purl.org/dc/elements/1.1/"
   xmlns:cc="http://creativecommons.org/ns#"
   xmlns:rdf="http://www.w3.org/1999/02/22-rdf-syntax-ns#"
   xmlns:svg="http://www.w3.org/2000/svg"
   xmlns="http://www.w3.org/2000/svg"
   xmlns:sodipodi="http://sodipodi.sourceforge.net/DTD/sodipodi-0.dtd"
   xmlns:inkscape="http://www.inkscape.org/namespaces/inkscape"
   width="338.15475mm"
   height="415.26193mm"
   viewBox="0 0 338.15475 415.26193"
   version="1.1"
   id="svg8"
   inkscape:version="0.92.3 (2405546, 2018-03-11)"
   sodipodi:docname="Eyes.svg">
  <defs
     id="defs2" />
  <sodipodi:namedview
     id="base"
     pagecolor="#ffffff"
     bordercolor="#666666"
     borderopacity="1.0"
     inkscape:pageopacity="0.0"
     inkscape:pageshadow="2"
     inkscape:zoom="1.4"
     inkscape:cx="639.57903"
     inkscape:cy="1056.7882"
     inkscape:document-units="mm"
     inkscape:current-layer="layer1"
     showgrid="false"
     inkscape:window-width="1920"
     inkscape:window-height="1001"
     inkscape:window-x="-9"
     inkscape:window-y="-9"
     inkscape:window-maximized="1"
     inkscape:snap-global="true"
     fit-margin-top="0"
     fit-margin-left="0"
     fit-margin-right="0"
     fit-margin-bottom="0" />
  <metadata
     id="metadata5">
    <rdf:RDF>
      <cc:Work
         rdf:about="">
        <dc:format>image/svg+xml</dc:format>
        <dc:type
           rdf:resource="http://purl.org/dc/dcmitype/StillImage" />
        <dc:title></dc:title>
      </cc:Work>
    </rdf:RDF>
  </metadata>
  <g
     inkscape:label="Ebene 1"
     inkscape:groupmode="layer"
     id="layer1"
     transform="translate(1354.4108,-270.58325)"
     style="display:inline">
    <rect
       style="opacity:1;fill:none;fill-opacity:1;fill-rule:evenodd;stroke:none;stroke-width:0.99999988;stroke-linecap:round;stroke-linejoin:miter;stroke-miterlimit:4;stroke-dasharray:none;stroke-dashoffset:0;stroke-opacity:1;paint-order:stroke fill markers"
       id="rect1307-6"
       width="337.15475"
       height="414.26193"
       x="-1353.9108"
       y="271.08325"
       inkscape:label="Frame" />
    <path
       style="display:inline;opacity:1;fill:#ffffff;fill-opacity:1;fill-rule:evenodd;stroke:none;stroke-width:1;stroke-linecap:round;stroke-linejoin:miter;stroke-miterlimit:4;stroke-dasharray:none;stroke-dashoffset:0;stroke-opacity:1;paint-order:stroke fill markers"
       d="m -1151.621,391.13276 -4.8315,-0.008 -6.06,2.54695 -3.7916,4.00045 -1.1457,1.39994 -2.3455,3.95428 0.8686,3.20704 3.4076,0.13382 11.76,-2.00451 h 8.8868 l 2.8727,0.80151 1.8045,-2.33836 -1.8045,-5.27876 -4.7873,-3.91036 z m -65.9998,1.65365 -10.3219,3.35743 -3.9424,7.41659 1.4035,2.33887 3.3828,1.57871 15.4424,-1.59835 7.4337,0.95499 1.203,-4.07572 -0.8263,-2.16265 -4.9232,-4.80126 z"
       id="path1580"
       inkscape:connector-curvature="0"
       inkscape:label="Füllung_Augen"
       sodipodi:nodetypes="cccccccccccccccccccccccccc" />
    <path
       id="path1162-7"
       style="display:inline;fill:#6c5d53;fill-opacity:1;stroke-width:1"
       d="m -1159.2612,405.1741 c 3.1123,-0.66786 6.4753,0.0711 9.4434,-1.16803 3.2703,-2.03308 3.5731,-6.2628 3.031,-9.70129 -0.9624,-3.63473 -5.7462,-2.5008 -8.5957,-3.0177 -3.7276,0.0367 -7.0286,2.37687 -9.6752,4.81258 -3.0872,2.56874 0.2415,6.17313 2.1941,8.27045 0.658,1.78444 2.1678,0.91698 3.6024,0.80399 z m -61.9661,1.0714 c 2.8053,-0.97214 6.1577,-0.64245 8.7004,-2.03061 2.5253,-1.63103 3.4016,-6.42689 1.4859,-8.75419 -4.3939,-2.06485 -9.6974,-1.66219 -13.8834,0.63635 -2.1329,1.45163 -5.8389,3.86385 -4.1747,6.9659 1.5432,2.78827 4.7376,4.58171 7.8718,3.18255 z"
       inkscape:connector-curvature="0"
       inkscape:label="Pupille"
       sodipodi:nodetypes="ccccccccccccc" />
    <path
       id="path885-8-3"
       style="display:inline;fill:#000000;stroke-width:0.99999994"
       d="m -1155.6366,387.72514 c -0.5751,-0.0148 -1.0926,-0.004 -1.5121,0.0333 -0.7632,0.0672 -1.9618,0.39654 -2.6636,0.73177 -0.7019,0.33525 -1.9848,0.93215 -2.8512,1.32658 -1.7358,0.79027 -5.2027,3.60926 -6.1554,5.00511 -0.3346,0.49022 -0.7692,1.03975 -0.9657,1.2212 -0.3527,0.32574 -1.4396,2.10157 -1.4457,2.36197 -0.011,0.45344 0.6453,-0.005 1.2838,-0.89749 1.5162,-2.11936 3.1462,-3.86485 4.0955,-4.3858 0.5368,-0.29459 1.5225,-0.98638 2.1904,-1.53727 1.4721,-1.21414 4.864,-2.50494 6.9338,-2.63839 2.0726,-0.13366 6.3535,0.44284 8.894,1.19777 2.1412,0.63629 4.4584,1.9098 7.4575,4.09741 0.8188,0.59729 1.5387,1.21633 1.5996,1.37597 0.1673,0.43887 1.2056,0.65235 1.215,0.24986 0.018,-0.77691 -5.9877,-5.3607 -8.0094,-6.11312 -0.5333,-0.19851 -1.6778,-0.62477 -2.5436,-0.9471 -1.4485,-0.53926 -5.0303,-1.02448 -7.5229,-1.08184 z m 2.3914,2.52853 c -0.2817,-0.003 -0.5645,0.007 -0.8509,0.0271 -1.8462,0.1315 -5.991,1.14509 -6.661,1.62899 -0.222,0.16039 -1.0246,0.58675 -1.7832,0.94795 -1.292,0.61519 -4.2095,3.34821 -5.9949,5.61539 -0.6727,0.85418 -1.2665,2.53622 -1.6115,4.56472 -0.177,1.04045 -0.1435,1.24891 0.2027,1.25608 0.4537,0.009 1.4441,-1.71787 1.7287,-3.01466 0.097,-0.44311 0.3678,-1.07928 0.6011,-1.41356 0.032,-0.0459 0.11,-0.13813 0.1646,-0.2067 0.6324,2.17449 2.1601,4.19064 4.1997,5.37033 -1.1633,0.31982 -2.0576,0.67119 -2.3183,0.9539 -0.2209,0.23944 -0.7654,0.28386 -2.0073,0.16414 -1.43,-0.13786 -1.7331,-0.0979 -1.8837,0.24843 -0.1045,0.24011 0.012,0.62152 0.279,0.91137 0.6141,0.66742 2.2172,0.68446 4.0958,0.044 4.3047,-1.46762 10.2346,-2.25139 16.1013,-2.12704 3.7136,0.0798 4.4407,0.16068 5.5233,0.62411 1.1041,0.47266 1.2924,0.49188 1.6491,0.17081 0.5593,-0.5037 0.062,-1.04852 -1.3432,-1.47134 -0.5615,-0.16896 -2.4994,-0.2905 -4.8772,-0.36072 0.7236,-0.44004 1.2616,-1.13792 1.481,-2.25911 0.5676,-1.90996 1.0433,-4.12322 0.7749,-6.16464 1.9955,1.41625 3.2282,2.85969 4.1578,4.77317 0.5439,1.11936 0.9843,2.22648 0.9788,2.46037 -0.013,0.55864 0.6626,0.80157 1.3943,0.50111 0.6768,-0.27798 3.1444,-2.19864 3.1504,-2.45214 0,-0.0942 -0.4055,-0.38938 -0.9058,-0.6564 -0.5003,-0.26704 -1.1852,-0.78323 -1.5218,-1.14674 -4.1871,-4.52226 -5.4726,-5.63613 -7.9802,-6.91452 -2.8446,-1.45014 -4.7714,-2.05518 -6.7435,-2.0744 z m -64.0395,-1.80097 c -1.365,-0.0168 -2.5585,0.15223 -4.0361,0.52679 -2.4216,0.61382 -3.9083,1.31533 -4.2386,2.00009 -0.2959,0.61319 -0.2703,0.63791 0.6793,0.65281 0.5425,0.009 1.4795,-0.19514 2.0822,-0.45298 2.6253,-1.12328 7.3158,-1.16922 11.6201,-0.11431 2.3289,0.57082 3.204,1.04434 5.6255,3.04476 1.3992,1.15597 2.2763,2.15591 3.098,3.53237 0.7078,1.18572 1.3231,1.92466 1.6089,1.93293 0.775,0.0211 0.5525,-0.89086 -0.6249,-2.56254 -3.1866,-4.52479 -8.1222,-7.67084 -13.0742,-8.33366 -1.0406,-0.13928 -1.9213,-0.21623 -2.7402,-0.22626 z m 66.1545,4.35098 c 0.2079,0.0146 1.4157,0.6056 2.806,1.37664 0.589,0.32666 1.1265,0.64618 1.6263,0.96411 0.4048,3.11349 -0.049,6.73213 -3.1199,8.52843 -0.5146,0.20212 -1.0418,0.3454 -1.5768,0.45222 -3.636,-0.0291 -7.3837,0.0511 -8.8202,0.26626 -0.7203,0.10786 -1.4302,0.2475 -2.0955,0.40111 -0.2189,-0.16191 -0.408,-0.40611 -0.5535,-0.7775 -1.4292,-1.44439 -3.5922,-3.648 -3.4406,-5.67364 1.324,-1.46374 3.1432,-3.3696 3.2644,-3.36709 0.072,0.002 0.039,0.59512 -0.074,1.31944 -0.2721,1.73738 0.119,3.12795 1.2588,4.47677 1.1249,1.33109 2.6765,2.32084 4.2873,2.73411 1.0416,0.26726 1.3982,0.24396 2.6504,-0.17077 1.8119,-0.60008 3.0183,-1.63025 3.9415,-3.36668 0.6585,-1.2385 0.7107,-1.53734 0.6188,-3.56145 -0.1253,-1.11774 -0.2814,-2.83195 -0.773,-3.60196 z m -66.6788,-1.19966 c -0.9966,-0.0219 -1.9223,0.13619 -3.8472,0.58779 -5.2938,1.24198 -7.1099,2.44813 -10.1051,6.71062 -0.8157,1.16086 -1.6281,2.72406 -1.9922,3.83437 -0.3381,1.03106 -0.7248,1.28395 -0.7259,1.33794 0,0.0541 0.562,0.69978 1.1182,0.66008 0.9174,0.0968 1.5549,1.35469 2.1149,1.6261 1.1239,1.54279 0.9252,0.57356 1.0254,-2.38863 0.012,-0.35686 0.025,-0.65916 0.04,-0.93731 0.6029,1.65637 2.0384,3.15329 3.4833,3.87532 -0.9892,0.44916 -1.5442,1.0675 -1.0801,1.37648 0.4222,0.28106 0.01,0.32954 3.1783,-0.3751 6.2718,-1.39376 8.1266,-1.5488 13.3387,-1.11697 4.0028,0.33163 4.9152,0.48629 5.7599,0.97704 0.999,0.58039 1.006,0.58075 1.3998,0.0665 0.4699,-0.61373 0.7896,-1.65999 0.5754,-1.88381 -0.084,-0.0875 -0.51,-0.0202 -0.9471,0.14973 -0.662,0.25724 -1.0225,0.22758 -2.1588,-0.17778 -1.0925,-0.3898 -3.136,-0.69497 -5.0579,-0.81532 0.7935,-0.43699 1.424,-1.1139 1.7609,-2.20196 0.851,-1.83385 1.5997,-4.20394 0.9229,-6.13842 0.7154,0.47687 1.4625,1.00783 2.232,1.59411 0,0 1.4449,1.18839 1.9748,1.82294 0.5389,0.64535 1.1258,1.90604 1.1258,1.90604 -0.027,1.23753 -0.1755,1.13619 0.927,1.9312 1.3911,0.11238 0.5543,-1.97506 0.4692,-2.34357 -0.3686,-1.57618 -0.6609,-2.12551 -1.8807,-3.53453 -1.585,-1.83089 -4.1723,-3.91964 -5.9303,-4.78823 -1.3925,-0.688 -4.2113,-1.39671 -6.661,-1.67402 -0.3876,-0.0438 -0.7277,-0.0715 -1.0599,-0.0792 z m 3.3019,2.93521 c 0.9901,0.0938 1.967,0.31062 2.9182,0.68708 0.2026,0.10429 0.4151,0.2217 0.6293,0.34156 1.8055,2.36383 0.9204,7.03993 -1.5673,8.64666 -0.9681,0.52852 -2.0544,0.80741 -3.1824,1.00458 -4.4287,0.47495 -7.9107,0.92574 -9.4655,1.23117 -1.6325,-0.53722 -3.0462,-1.80081 -3.9246,-3.38775 -0.9119,-1.69995 0.2357,-3.53999 1.445,-4.7041 -0.1258,1.86874 0.937,4.59306 3.1327,5.87327 1.2238,0.71353 1.6327,0.81217 3.4002,0.81916 1.9236,0.008 2.0887,-0.0426 3.8882,-1.18284 1.3937,-0.88316 2.0359,-1.48816 2.4856,-2.34109 0.8555,-1.62268 1.0434,-3.37527 0.5764,-5.38104 -0.199,-0.85438 -0.3199,-1.34013 -0.3358,-1.60666 z m 63.1228,13.1686 c -0.6094,-0.0173 -1.3433,-0.0171 -2.1999,1.8e-4 -4.2651,0.0857 -5.9679,0.45063 -5.2755,1.13146 0.095,0.0933 0.1825,0.16976 0.1946,0.16988 0.012,1.5e-4 0.919,-0.15769 2.0152,-0.35076 1.3063,-0.23013 2.9662,-0.30467 4.8179,-0.21634 2.9725,0.14175 3.7059,-0.01 2.4473,-0.50523 -0.3141,-0.12376 -0.9839,-0.20037 -1.9996,-0.22917 z m -62.2289,1.38289 c -2.3346,-0.0242 -4.9725,0.47084 -5.2028,1.14049 -0.1421,0.41314 -0.067,0.4123 2.1883,-0.0138 1.0231,-0.19327 2.7828,-0.33272 3.9104,-0.31089 2.0859,0.0409 2.7284,-0.27293 1.2373,-0.60546 -0.6103,-0.13611 -1.355,-0.20222 -2.1332,-0.2103 z"
       inkscape:connector-curvature="0"
       sodipodi:nodetypes="ccccccccccccccccccccccccccccccccccccccccccccccccccccccccccccccccccccccccccccccccsccccccccccccccccccccscccccccccccccccccccccccccccccccccccccc"
       inkscape:label="Kontur_Augen" />
    <path
       id="path1561"
       style="fill:#ffffff;stroke-width:1"
       d="m -1220.0886,394.51055 c 0.7024,0.388 0.2962,0.96787 -0.9214,2.21873 -1.1022,1.13225 -1.6986,1.44771 -2.4141,1.27629 -1.1644,-0.2789 -1.3612,-0.85327 -0.7375,-2.03273 1.1363,-0.9017 2.6279,-1.54019 4.073,-1.46229 z m 63.7696,-1.51513 c 0.4145,0.005 0.7157,0.10318 0.7951,0.32455 0.1727,0.48152 -0.058,1.21753 -0.3797,1.21045 -0.1161,-0.003 -0.7186,0.4005 -1.3393,0.89628 -1.0629,0.84902 -1.6402,0.9942 -2.7277,0.68428 -0.5159,-0.14702 -0.5665,-0.55095 -0.1864,-1.48808 0.3346,-0.82496 2.5948,-1.64328 3.838,-1.62748 z"
       inkscape:connector-curvature="0"
       inkscape:label="Glanzlicht"
       sodipodi:nodetypes="cccccccccccc" />
  </g>
</svg>
