<?xml version="1.0" encoding="UTF-8" standalone="no"?>
<!-- Created with Inkscape (http://www.inkscape.org/) -->

<svg
   xmlns:dc="http://purl.org/dc/elements/1.1/"
   xmlns:cc="http://creativecommons.org/ns#"
   xmlns:rdf="http://www.w3.org/1999/02/22-rdf-syntax-ns#"
   xmlns:svg="http://www.w3.org/2000/svg"
   xmlns="http://www.w3.org/2000/svg"
   xmlns:sodipodi="http://sodipodi.sourceforge.net/DTD/sodipodi-0.dtd"
   xmlns:inkscape="http://www.inkscape.org/namespaces/inkscape"
   version="1.1"
   id="svg2"
   width="1274.2856"
   height="1565.7144"
   viewBox="0 0 1274.2856 1565.7144"
   sodipodi:docname="Eyes06.svg"
   inkscape:version="0.92.3 (2405546, 2018-03-11)"
   inkscape:label="Ebene">
  <metadata
     id="metadata8">
    <rdf:RDF>
      <cc:Work
         rdf:about="">
        <dc:format>image/svg+xml</dc:format>
        <dc:type
           rdf:resource="http://purl.org/dc/dcmitype/StillImage" />
        <dc:title></dc:title>
      </cc:Work>
    </rdf:RDF>
  </metadata>
  <defs
     id="defs6" />
  <sodipodi:namedview
     pagecolor="#ffffff"
     bordercolor="#666666"
     borderopacity="1"
     objecttolerance="10"
     gridtolerance="10"
     guidetolerance="10"
     inkscape:pageopacity="0"
     inkscape:pageshadow="2"
     inkscape:window-width="1920"
     inkscape:window-height="1001"
     id="namedview4"
     showgrid="false"
     inkscape:zoom="0.36875"
     inkscape:cx="401.09892"
     inkscape:cy="776.39174"
     inkscape:window-x="-9"
     inkscape:window-y="-9"
     inkscape:window-maximized="1"
     inkscape:current-layer="svg2"
     fit-margin-top="0"
     fit-margin-left="0"
     fit-margin-right="0"
     fit-margin-bottom="0"
     inkscape:snap-page="true" />
  <rect
     style="opacity:1;fill:none;fill-opacity:1;fill-rule:evenodd;stroke:none;stroke-width:3.77952719;stroke-linecap:round;stroke-linejoin:miter;stroke-miterlimit:4;stroke-dasharray:none;stroke-dashoffset:0;stroke-opacity:1;paint-order:stroke fill markers"
     id="rect1307"
     width="1274.2856"
     height="1565.7144"
     x="0"
     y="-1.6689301e-006"
     inkscape:label="Frame" />
  <path
     style="fill:#a7ac93;fill-opacity:1;stroke-width:3.77952766"
     d="m 753.35032,459.2573 c -2.7942,-0.0265 -5.4376,0.19502 -7.5968,0.70163 -2.6733,0.62766 -8.3705,1.73673 -12.6614,2.4647 -4.2909,0.72805 -8.5709,1.7986 -9.5093,2.37963 -1.1399,0.70549 -2.4756,3.53518 -4.0237,8.51622 -2.0886,6.71709 -2.2787,8.27131 -1.9151,15.6138 0.5174,10.44094 1.1301,12.92863 4.6288,18.75443 2.1415,3.56734 4.1367,5.57866 7.8894,7.95598 5.4863,3.47554 11.2395,5.48164 14.4499,5.0363 1.1281,-0.15685 3.5304,-0.50616 5.3363,-0.77568 3.767,-0.56182 12.8919,-5.23702 16.3759,-8.39145 3.885,-3.51776 10.5483,-13.53143 10.58,-15.92708 0,-0.572 0.5666,-2.06854 1.2352,-3.32588 3.1121,-5.85018 -2.3403,-26.89326 -7.6694,-29.60303 -4.0921,-2.08033 -10.9727,-3.33967 -17.1198,-3.39957 z m -228.07065,8.92214 v 0 c -1.92151,-0.0151 -4.08491,-0.0151 -6.52875,-0.0113 l -18.02684,0.0265 -5.21008,2.46028 c -3.569,1.6845 -5.49165,3.1423 -6.10356,4.63075 -0.49171,1.19505 -1.14028,6.84514 -1.43962,12.55506 -0.54009,10.25424 -0.51628,10.46393 2.0417,17.03725 3.52328,9.05979 9.94545,15.79634 18.17008,19.06182 6.89273,2.7366 11.93235,3.05079 15.45714,0.96404 1.41619,-0.83849 3.94318,-1.75298 5.61373,-2.03104 2.41814,-0.40233 4.25197,-1.7966 8.97902,-6.82829 3.39704,-3.61481 6.84208,-8.26295 8.04851,-10.85631 1.92869,-4.14335 2.84409,-5.80502 2.5285,-13.1133 -0.35528,-8.26379 -3.08674,-15.41828 -5.81896,-19.29143 -2.67704,-3.79457 -4.26255,-4.50693 -17.71087,-4.60577 z"
     id="path1287"
     inkscape:connector-curvature="0"
     inkscape:label="Füllung_Pupille"
     sodipodi:nodetypes="cccccccccccscccccccccccccccccccc" />
  <path
     style="fill:#000000;stroke-width:3.77952766"
     d="m 753.22822,457.75444 c -22.0433,-0.25096 -31.9328,1.72838 -34.0936,6.82307 -6.4992,15.32262 -7.1331,19.38864 -4.8687,31.21406 2.3331,12.18818 8.1343,20.37955 18.2876,25.81565 v 0 c 2.7696,1.48252 4.8665,1.85045 11.0657,1.94298 6.9781,0.10356 8.2291,-0.1372 14.2567,-2.72621 7.8172,-3.35747 15.5611,-9.7073 18.4392,-15.12023 6.6679,-12.53393 6.8788,-27.6175 0.559,-39.43291 -4.4258,-8.27285 -4.5007,-8.29901 -23.6443,-8.51637 z m 0.1248,1.50289 c 6.147,0.0586 13.0276,1.31925 17.1197,3.39958 5.3292,2.7098 10.7811,23.75285 7.6694,29.60303 -0.6686,1.25734 -1.2253,2.75392 -1.2351,3.32587 -0.038,2.39562 -6.6951,12.40929 -10.58,15.92708 -3.484,3.15444 -12.6089,7.8296 -16.3764,8.39158 -1.8054,0.26948 -4.2077,0.61889 -5.3359,0.77552 -3.2103,0.44534 -8.9635,-1.56072 -14.4499,-5.03626 -3.7527,-2.37732 -5.7479,-4.38864 -7.8894,-7.95595 -3.4987,-5.82587 -4.1117,-8.31356 -4.6291,-18.75446 -0.3629,-7.34253 -0.1739,-8.89675 1.9151,-15.6138 1.548,-4.98108 2.8841,-7.81073 4.024,-8.51622 0.9385,-0.58103 5.218,-1.65158 9.5089,-2.37963 4.2909,-0.72801 9.9886,-1.83704 12.6618,-2.46467 2.1593,-0.50687 4.8027,-0.72816 7.5969,-0.70167 z m -231.42314,6.4845 c -9.46243,-0.0669 -21.10526,0.89099 -31.19282,2.70252 -3.89783,0.69981 -5.08422,2.58266 -6.17159,9.7909 -0.81033,5.37271 -0.76082,7.99015 0.27968,14.85369 1.97481,13.02528 4.18054,17.82762 12.25096,26.6775 4.95723,5.43515 9.1064,8.10406 12.86136,8.27304 1.69814,0.0767 4.19149,0.39595 5.53927,0.71002 v 0 c 3.39553,0.79121 10.16391,-0.0503 13.13197,-1.63245 1.36139,-0.72589 3.45638,-1.50504 4.65676,-1.73352 2.63017,-0.50048 11.86205,-11.16098 15.3823,-17.76317 2.15962,-4.04912 2.24617,-3.91824 2.87849,-11.88699 0.52875,-6.66184 -0.86854,-12.80671 -4.24668,-18.53772 -2.19175,-4.64201 -4.52825,-8.68093 -5.19118,-8.97566 -0.66255,-0.29404 -4.70854,-1.0752 -8.99074,-1.73571 -3.04857,-0.4704 -6.89953,-0.71221 -11.20063,-0.74264 z m 3.35244,2.43765 c 13.44831,0.0986 15.03383,0.8112 17.71087,4.6058 2.73222,3.87315 4.69984,11.60482 5.05663,19.86864 0.3137,7.30825 0.16252,8.39271 -1.76618,12.53609 -1.20642,2.59336 -4.65184,7.2415 -8.04888,10.85628 -4.72706,5.03172 -6.5605,6.42599 -8.97865,6.82832 -1.67055,0.27817 -4.19792,1.19251 -5.61373,2.031 v 0 c -3.52479,2.08679 -8.56441,1.7726 -15.45751,-0.96404 -8.22463,-3.2654 -14.64643,-10.00203 -18.1697,-19.06179 -2.55685,-6.57331 -2.5818,-6.78292 -2.0417,-17.03712 0.29858,-5.70996 0.9479,-11.36013 1.43962,-12.55518 0.61153,-1.48838 2.53455,-2.94633 6.10356,-4.63075 l 5.21008,-2.46032 18.02683,-0.0265 c 2.44309,-0.002 4.60725,-0.003 6.52876,0.0113 z"
     id="path1265"
     inkscape:connector-curvature="0"
     inkscape:label="Kontur_Pupille"
     sodipodi:nodetypes="ccsccccccccccccccccccccccccccccccccccscccccccccccccccccccccc" />
  <path
     style="display:inline;fill:#000000;stroke-width:3.77952766"
     d="m 733.47192,448.15323 c -2.8241,-0.10885 -6.0813,0.5969 -11.0521,2.21061 -8.4011,2.72738 -14.3116,6.2931 -21.3834,12.89726 -4.7751,4.45947 -8.8188,11.07515 -8.8634,14.46675 0,1.20491 1.7114,-0.19767 6.2948,-5.12379 8.0787,-8.68211 14.0171,-13.15219 23.6156,-17.77191 7.4204,-3.57128 8.8562,-4.44786 14.6007,-4.02709 6.4483,0.47248 7.5156,-0.48706 2.6173,-2.35321 -1.6595,-0.6322 -4.1348,-0.23319 -5.8295,-0.29858 z m 19.7805,7.72207 c -1.7435,-0.0227 -3.4628,-0.008 -5.1428,0.0495 -14.8191,0.8818 -35.0834,4.47515 -43.6596,17.08309 -2.8444,4.51763 -4.9625,12.52959 -5.6413,21.3332 -0.6618,8.57866 -0.2494,13.38202 1.0851,12.57196 0.8001,-0.48597 1.5186,-3.95728 2.5765,-12.45377 0.3976,-3.18932 1.132,-6.54048 1.6347,-7.44654 0.5027,-0.90611 1.8996,-3.68871 3.1026,-6.18282 1.2026,-2.49407 2.6521,-5.12137 3.2213,-5.83975 3.0433,-3.84461 23.4512,-12.16433 32.3263,-13.17845 l 4.1023,-0.46897 -3.298,1.53672 c -5.2986,2.46939 -8.2341,5.43141 -11.1704,11.27395 -2.4193,4.79494 -2.7198,6.11437 -2.4953,10.62505 0.3024,6.07601 3.3971,13.38214 7.4612,17.60799 1.9767,2.05493 3.9401,3.08421 7.3258,3.84272 4.5207,1.01306 4.7475,0.97387 10.0993,-1.74966 4.8068,-2.44622 5.8031,-3.37731 8.1672,-7.6447 3.3827,-6.10511 4.049,-10.08521 2.9851,-17.82599 -1.095,-7.96701 -4.978,-14.33703 -9.5263,-15.6274 -2.6147,-0.74188 -2.0425,-0.84926 4.3642,-0.83066 8.253,0.0227 13.5507,1.27392 21.1143,4.98119 4.4289,2.17077 5.4739,3.13897 7.5659,7.01556 2.8097,5.20531 6.4214,15.37889 7.3224,20.62533 0.3742,2.18328 0.2306,5.76563 -0.359,9.00144 -0.9018,4.93602 -0.8553,5.46818 0.5692,6.55249 v 0 c 2.1377,1.62716 3.9949,1.50595 5.7218,-0.37606 0.8043,-0.87636 2.4015,-1.69489 3.5497,-1.81962 1.7454,-0.18935 6.2389,0.1115 6.5923,-1.14013 -4.6632,-6.96163 -7.3096,-12.36318 -9.6325,-19.48373 -2.3637,-7.37114 -4.5645,-12.67665 -6.4781,-15.611 -1.6872,-2.5875 -1.7874,-3.13565 -0.7544,-4.1543 0.8655,-0.85372 2.0723,-1.36139 1.2185,-1.96022 -1.9034,-1.33553 -4.3907,-3.1045 -9.106,-4.78065 -9.2561,-3.27802 -22.636,-5.36194 -34.8412,-5.52593 z m -226.58831,-0.73433 c -3.79464,-0.0654 -3.8245,0.11037 -3.83357,0.79548 0,1.115 1.87691,1.59103 10.61707,2.67126 14.34331,1.77248 23.2029,8.19881 31.25405,22.6704 2.09537,3.76615 4.31244,6.85334 4.92737,6.86147 1.37688,0.0189 1.37764,-0.17764 0.0378,-5.63067 -2.16945,-8.72088 -8.11086,-15.97667 -17.88888,-21.84967 -6.84775,-4.1127 -10.56453,-5.1193 -19.90866,-5.38545 -2.24013,-0.0635 -3.92353,-0.11112 -5.18854,-0.13229 z m -3.12604,8.5152 c -2.01903,-0.0264 -4.19225,-6e-4 -6.54614,0.0711 -17.39755,0.53038 -20.24315,0.79593 -27.3018,2.54646 -5.24409,1.30049 -22.89449,8.68365 -24.46639,10.23382 -0.23434,0.23018 0.78311,1.44431 2.25978,2.69844 l 2.68686,2.28018 -1.84214,4.51268 c -1.01291,2.48183 -2.78476,7.29944 -3.93676,10.70691 -1.15275,3.40744 -3.58223,8.91156 -5.4017,12.23109 -3.64195,6.64645 -3.89934,7.55973 -2.12825,7.58316 3.04819,0.0401 9.32221,3.10598 12.42595,6.07045 4.96744,4.74471 8.18797,4.00317 4.39824,-1.01196 -1.008,-1.33312 -1.71061,-4.05438 -2.01676,-7.81221 -0.43691,-5.36107 -0.23433,-6.38963 2.87774,-14.57889 2.05795,-5.4184 5.13373,-11.44596 7.98916,-15.65843 l 4.64164,-6.85073 8.28321,-2.74632 c 4.55509,-1.51056 8.51074,-2.50617 8.79459,-2.21299 0.28346,0.29329 -0.26079,1.5998 -1.20189,2.9043 -2.50281,3.46103 -4.52372,9.07317 -5.00486,13.89729 -0.98872,9.90493 5.45008,21.18433 13.63087,23.88208 3.38759,1.117 12.05216,0.0151 16.25197,-2.06483 3.4405,-1.70427 7.2514,-6.56236 7.82551,-9.97463 0.29103,-1.71719 0.69052,-4.11379 0.89499,-5.32539 0.2041,-1.21149 -0.44485,-5.82834 -1.44151,-10.2604 -1.61764,-7.19622 -2.18948,-8.46471 -5.33971,-11.8628 l -3.52668,-3.80538 5.4686,0.60627 c 7.85423,0.87197 11.97543,2.67814 16.38123,7.17986 3.79653,3.87938 7.78166,10.26436 8.98809,14.39969 0.3326,1.14531 0.86929,2.27226 1.18942,2.50454 0.32126,0.23207 1.09719,2.08589 1.72989,4.11935 1.16636,3.75194 3.07011,5.56108 3.1045,2.95019 0,-0.78626 -1.61008,-5.97313 -3.60113,-11.52605 -3.10904,-8.67402 -4.20624,-10.72672 -7.79452,-14.57125 -7.59912,-8.13967 -14.14111,-10.92994 -28.272,-11.1159 z m 260.96505,55.18878 c -0.6066,-0.0559 -1.7964,0.37039 -3.6431,1.24392 -3.1502,1.49015 -5.7936,1.77116 -20.0413,2.14144 -9.0263,0.23471 -19.1826,0.83599 -22.5687,1.33538 -8.9851,1.32454 -24.2763,0.44058 -27.5773,-1.59409 -2.1521,-1.32627 -2.8082,-1.41622 -3.8862,-0.53408 -2.7783,2.27301 -0.4282,5.24073 3.5819,4.5256 1.1244,-0.20031 2.9616,0.0507 4.0823,0.55495 1.3183,0.59539 5.9365,0.79518 13.1021,0.56772 10.9504,-0.34771 23.8208,-0.26003 38.0969,0.26117 6.1583,0.22488 8.1789,-0.0507 12.2842,-1.67308 3.2319,-1.27729 5.3454,-2.70101 6.178,-4.1599 0.9872,-1.73125 1.1713,-2.59748 0.3904,-2.66895 z m -226.15863,5.29871 c -0.95773,-0.0813 -2.69518,0.53102 -5.8371,2.00047 l -5.64888,2.64177 -19.6698,0.39897 c -10.81814,0.21921 -22.992,0.73296 -27.05348,1.14206 -4.0611,0.40913 -9.38116,0.72612 -11.8216,0.70091 -4.71837,-0.0435 -4.9047,0.54909 -0.67087,2.13853 1.43546,0.53885 3.34753,0.84552 4.25083,0.68206 1.85197,-0.33525 8.16643,-0.34772 23.91345,-0.0457 5.93953,0.11263 13.68567,-0.14023 17.21462,-0.56538 3.52781,-0.42531 9.23301,-1.03975 12.67805,-1.36506 9.01417,-0.85111 15.97077,-4.71345 13.36592,-7.42182 -0.1663,-0.17537 -0.40139,-0.27968 -0.72114,-0.30652 z"
     id="path1210"
     inkscape:connector-curvature="0"
     sodipodi:nodetypes="cccccccccccccccccccccccccccccccccccccccccccscccccccccccccccccccccccccccccccccccccccccccccccccccccccccccccccccccccccccccccc"
     inkscape:label="Kontur_Augen" />
  <path
     id="path1200-3"
     style="fill:#ffffff;stroke-width:3.77952766"
     d="m 746.58502,477.61155 c 1.4831,-0.77877 5.7679,-8.84481 5.7955,-10.90983 0.038,-1.70759 -2.6982,-3.93899 -4.8378,-3.96726 -2.2216,-0.0302 -5.0373,2.40968 -7.7495,6.7138 -1.8989,3.01361 -1.8033,5.20585 0.3174,7.26131 1.9646,1.90318 4.0199,2.18959 6.4729,0.90198 z m -227.99813,3.74986 c 2.28359,-7.26259 2.27036,-7.61926 -0.39345,-10.66428 -2.13468,-2.9735 -2.48504,-2.39697 -5.49166,-0.80727 -4.25839,2.25094 -7.07792,6.40778 -7.13197,10.51386 -0.0605,4.5617 2.10029,6.543 7.20681,6.61046 4.87597,0.6855 4.46929,-1.38636 5.81027,-5.65277 z"
     inkscape:connector-curvature="0"
     inkscape:label="Glanzlicht"
     sodipodi:nodetypes="cssccccccscc" />
</svg>
