<svg xmlns="http://www.w3.org/2000/svg" width="1274.286" height="1565.714">
  <path fill="none" d="M0 0h1274.286v1565.714H0z" paint-order="stroke fill markers"/>
  <path fill="#fff" fill-rule="evenodd" d="M467.679 499.766s-2.235 12.393 2.444 20.19c2.614 4.354 15.176 10.988 15.176 10.988l24.038.299 41.76-2.288c3.845-3.473 9.28-3.794 10.856-12.02 1.57-8.197.388-15.26-1.115-20.933l-8.316-19.11-45.413-9.71c-16.762 7.241-28.82 16.914-39.43 32.584zm319.895-34.133 14.811 28.467c-1.46 5.753-.016 18.447-12.593 22.881-5.288 1.865-11.919 5.183-19.948 6.353l-59.684 1.12-4.08-3.442c-7.315-6.174-5.656-11.753-5.44-23.31l5.1-20.96c22.15-12.78 28.105-13.826 43.68-18.447z" paint-order="stroke fill markers"/>
  <path class="eyes" fill="#a7ac93" d="M753.35 459.257c-2.794-.026-5.437.195-7.596.702-2.674.628-8.371 1.737-12.662 2.465-4.29.728-8.57 1.798-9.51 2.38-1.14.705-2.475 3.534-4.023 8.515-2.088 6.718-2.279 8.272-1.915 15.614.517 10.441 1.13 12.929 4.629 18.755 2.141 3.567 4.137 5.578 7.89 7.956 5.486 3.475 11.239 5.481 14.45 5.036 1.127-.157 3.53-.506 5.335-.776 3.767-.562 12.892-5.237 16.376-8.391 3.885-3.518 10.549-13.532 10.58-15.927 0-.572.567-2.069 1.236-3.326 3.112-5.85-2.34-26.893-7.67-29.603-4.092-2.08-10.973-3.34-17.12-3.4zm-228.07 8.922a714.863 714.863 0 0 0-6.53-.01l-18.026.026-5.21 2.46c-3.569 1.684-5.492 3.142-6.104 4.63-.491 1.196-1.14 6.846-1.44 12.556-.54 10.254-.515 10.464 2.043 17.037 3.523 9.06 9.945 15.796 18.17 19.062 6.892 2.736 11.932 3.05 15.457.964 1.416-.839 3.943-1.753 5.613-2.031 2.419-.403 4.252-1.797 8.98-6.828 3.397-3.615 6.842-8.263 8.048-10.857 1.929-4.143 2.844-5.805 2.529-13.113-.356-8.264-3.087-15.418-5.82-19.292-2.676-3.794-4.262-4.506-17.71-4.605z"/>
  <path d="M736.4 448.09c-1.038.012-2.08.095-2.927.062-2.824-.109-6.082.598-11.053 2.211-8.401 2.728-14.311 6.295-21.383 12.899-4.775 4.46-8.819 11.075-8.863 14.467 0 1.204 1.711-.2 6.295-5.125 8.078-8.683 14.016-13.152 23.615-17.772 7.42-3.571 8.855-4.448 14.6-4.027 6.448.472 7.515-.488 2.617-2.354-.83-.316-1.863-.374-2.9-.361zm-211.935 7.05c-1.61.055-1.628.282-1.635.796 0 1.115 1.877 1.591 10.617 2.671 14.344 1.773 23.203 8.199 31.254 22.67 2.096 3.766 4.313 6.854 4.928 6.862 1.377.019 1.377-.176.037-5.63-2.17-8.72-8.11-15.976-17.889-21.849-6.847-4.113-10.564-5.12-19.908-5.387-2.24-.063-3.922-.111-5.187-.132h-.018a46.054 46.054 0 0 0-2.2 0zm226.191.73c-.858.007-1.707.025-2.547.054-14.819.882-35.084 4.476-43.66 17.084-2.844 4.517-4.962 12.53-5.64 21.334-.662 8.578-.249 13.38 1.086 12.57.8-.486 1.518-3.957 2.576-12.453.397-3.19 1.132-6.54 1.634-7.445.503-.906 1.899-3.69 3.102-6.184 1.203-2.494 2.653-5.121 3.223-5.84.86-1.087 3.134-2.534 6.117-4.07-4.022 10.397-4.196 14.873-2.281 24.871 2.333 12.188 8.133 20.38 18.287 25.816 2.053 1.1 3.745 1.583 7.006 1.8-.49.053-.957.107-1.309.16-8.985 1.324-24.277.438-27.578-1.596-2.152-1.327-2.807-1.416-3.885-.534-2.778 2.274-.428 5.241 3.582 4.526 1.125-.2 2.961.05 4.082.555 1.318.595 5.936.795 13.102.568 10.95-.348 23.821-.26 38.097.262 6.159.225 8.178-.052 12.284-1.674 3.231-1.277 5.345-2.701 6.177-4.16.987-1.73 1.171-2.595.393-2.668h-.002c-.607-.055-1.798.371-3.643 1.244-3.15 1.49-5.793 1.77-20.04 2.14a414.38 414.38 0 0 0-7.112.25c1.172-.4 2.474-.928 4.168-1.656 7.817-3.357 15.561-9.708 18.44-15.12 6.667-12.535 6.88-27.617.56-39.433-.242-.451-.437-.789-.656-1.193a60.248 60.248 0 0 1 5.666 2.453c4.429 2.171 5.474 3.14 7.566 7.016 2.81 5.205 6.421 15.378 7.322 20.625.375 2.183.23 5.766-.359 9.002-.902 4.936-.856 5.468.568 6.553 2.138 1.627 3.996 1.507 5.723-.375.804-.877 2.4-1.696 3.549-1.82 1.745-.19 6.24.11 6.594-1.141-4.664-6.962-7.31-12.362-9.633-19.483-2.364-7.37-4.565-12.677-6.479-15.611-1.687-2.588-1.787-3.136-.754-4.154.866-.854 2.073-1.363 1.22-1.961-1.904-1.336-4.393-3.105-9.108-4.782-9.256-3.278-22.635-5.361-34.84-5.525h-.002c-.872-.011-1.738-.014-2.596-.006zm-3.799 5.472-3.298 1.537c-5.299 2.47-8.234 5.433-11.17 11.275-2.42 4.795-2.719 6.115-2.494 10.625.302 6.076 3.396 13.382 7.46 17.608 1.977 2.055 3.94 3.083 7.327 3.842 4.52 1.013 4.745.975 10.097-1.749 4.807-2.446 5.804-3.379 8.168-7.646 3.383-6.105 4.049-10.083 2.985-17.824-1.095-7.967-4.977-14.339-9.526-15.63-2.614-.741-2.043-.848 4.364-.83 4.222.012 7.672.353 11.046 1.173 4.843 5.093 9.176 23.18 6.327 28.537-.669 1.257-1.227 2.754-1.237 3.326-.038 2.396-6.695 12.41-10.58 15.928-3.484 3.154-12.607 7.828-16.375 8.39-1.805.27-4.208.62-5.336.776-3.21.445-8.965-1.56-14.45-5.035-3.754-2.378-5.748-4.39-7.89-7.957-3.498-5.826-4.111-8.314-4.629-18.754-.362-7.343-.174-8.897 1.915-15.614.566-1.824 1.106-3.355 1.617-4.603 7.293-3.229 16.395-6.312 21.578-6.904l4.101-.471zm-226.466 2.312c-1.09.012-2.222.037-3.399.073-17.397.53-20.244.796-27.303 2.546-5.244 1.3-22.892 8.685-24.464 10.235-.235.23.783 1.443 2.26 2.697l2.685 2.281-1.842 4.512c-1.013 2.482-2.785 7.3-3.937 10.707-1.153 3.408-3.581 8.913-5.4 12.233-3.643 6.646-3.9 7.558-2.13 7.582 3.049.04 9.322 3.105 12.426 6.07 4.968 4.745 8.188 4.003 4.399-1.012-1.008-1.333-1.71-4.055-2.016-7.812-.437-5.361-.235-6.39 2.877-14.578 2.058-5.419 5.133-11.446 7.988-15.659l1.67-2.463c-.383 3.691-.2 6.482.64 12.024 1.976 13.025 4.18 17.826 12.25 26.676 4.958 5.435 9.107 8.104 12.862 8.273 1.698.077 4.191.397 5.54.711 3.395.791 10.164-.05 13.132-1.633 1.361-.726 3.456-1.506 4.656-1.734 2.63-.5 11.863-11.16 15.383-17.762 2.16-4.049 2.247-3.92 2.879-11.889.529-6.661-.87-12.806-4.248-18.537-.349-.737-.697-1.414-1.045-2.11a28.765 28.765 0 0 1 1.94 1.81c3.796 3.879 7.781 10.265 8.988 14.4.332 1.145.869 2.272 1.19 2.504.32.232 1.097 2.086 1.73 4.119 1.166 3.752 3.069 5.562 3.103 2.951 0-.786-1.608-5.972-3.6-11.525-3.109-8.674-4.206-10.728-7.794-14.573-7.6-8.14-14.143-10.929-28.274-11.115-1.01-.013-2.056-.014-3.146-.002zm5.953 5.455 5.468.606c4.833.536 8.25 1.43 11.192 3.084 2.727 3.877 4.69 11.6 5.047 19.855.313 7.309.16 8.392-1.768 12.535-1.206 2.594-4.652 7.243-8.049 10.858-4.727 5.032-6.56 6.426-8.978 6.828-1.67.278-4.198 1.193-5.613 2.031-3.525 2.087-8.564 1.772-15.457-.965-8.225-3.265-14.647-10.002-18.17-19.062-2.557-6.573-2.583-6.783-2.043-17.037.258-4.948.781-9.84 1.236-11.838l6.252-2.072c4.555-1.51 8.511-2.506 8.795-2.213.283.293-.262 1.6-1.203 2.904-2.503 3.461-4.523 9.074-5.004 13.898-.989 9.905 5.45 21.184 13.63 23.881 3.388 1.117 12.053.016 16.253-2.064 3.44-1.704 7.252-6.562 7.826-9.975.29-1.717.69-4.114.894-5.326.204-1.211-.444-5.828-1.441-10.26-1.618-7.196-2.19-8.465-5.34-11.863l-3.527-3.805zm32 55.036c-.958-.082-2.694.53-5.836 2l-5.649 2.64-19.67.4c-10.818.22-22.993.732-27.054 1.141-4.061.41-9.38.727-11.82.701-4.719-.043-4.906.55-.672 2.139 1.435.539 3.348.845 4.252.682 1.852-.336 8.165-.347 23.912-.045 5.94.112 13.686-.14 17.214-.565 3.528-.425 9.233-1.04 12.678-1.365 9.014-.851 15.972-4.713 13.367-7.422-.166-.175-.403-.28-.722-.306z"/>
  <path fill="#fff" d="M746.585 477.612c1.483-.78 5.768-8.845 5.796-10.91.038-1.708-2.699-3.94-4.838-3.968-2.222-.03-5.038 2.41-7.75 6.714-1.899 3.014-1.803 5.206.318 7.262 1.964 1.903 4.02 2.19 6.473.902zm-227.998 3.75c2.283-7.263 2.27-7.62-.394-10.665-2.134-2.973-2.485-2.397-5.491-.807-4.259 2.25-7.078 6.408-7.132 10.514-.06 4.561 2.1 6.543 7.207 6.61 4.876.686 4.469-1.386 5.81-5.653z"/>
</svg>
