<svg xmlns="http://www.w3.org/2000/svg" width="1278.065" height="1569.494" viewBox="0 0 338.155 415.262">
  <path fill="none" d="M0 0h337.155v414.262H0z" paint-order="stroke fill markers"/>
  <path fill="#fff" fill-rule="evenodd" d="M123.766 129.609s-.143 1.592 1.095 3.655c.691 1.152 2.43 2.156 2.43 2.156l5.562.571 7.435-.587c2.267 1.402 6.591-2.046 9.335-2.911 0 0 1.425-2.137.228-3.24l-6.267-4.557-8.406-2.067c-4.435 1.916-8.605 2.834-11.412 6.98zm84.497-5.013 3.889 4.806c-.387 1.522.927 3.74-2.414 3.908l-5.762 1.89-8.026-.245-6.997-1.388-1.474-.64c-.599-2.46-1.436-.917-1.379-3.975l5.538-4.253 9.625-2.134z" paint-order="stroke fill markers"/>
  <path class="eyes" fill="#a7ac93" d="M196.336 134.499c-1.62-.729-2.92-1.67-3.913-5.816 1.647-4.058 2.973-5.806 5.911-6.206 3.796.109 3.172-.133 6.741 1.342 2.31 1.958 2.795 4.88 1.507 7.44-1.347 3.76-4.057 4.297-7.546 4.048-.815-.03-1.2-.133-2.7-.808zm-66.879-4.45c.023-4.415-1.537-6.79 1.883-6.446 3.838-.974 6.428.403 9.51.149 2.462 2.12 3.084 5.717.643 10.182-.975.548-1.309 1.815-4.429 2.012-5.797 1.336-6.526-2.216-7.607-5.896z"/>
  <path d="M206.931 138.091c-1.555.073-2.943 1.03-4.545.892-1.696.136-3.24-.584-4.931-.483-2.091-.235-4.042-1.065-6.086-1.498-1.173-.656-.923.46.076.506 2.442 1.302 5.106 2.449 7.933 2.314 1.555-.046 7.854-.277 7.553-1.73zm-5.021-1.775c1.61-.35 3.25-.49 4.882-.77 1.118-.191 1.99-.68 2.95-1.237.72-.594 2.99-1.324 1.935-2.406-1.309.285-2.639.985-3.79 1.744-.58.381-3.125 1.344-2.912.895.072-.151.644-.764 1.181-1.255 1.103-1.19 1.773-3.618 1.591-4.828-.196-1.308-.513-2.422-.589-3.02-.046-.364 1.553.395 2.44 1.191.881 1.008 2.746 3.745 2.746 3.745 1.676-.065.7-1.028.147-2.308-.519-1.123-1.3-2.302-2.351-2.974-2.67-1.958-5.393-3.164-8.431-3.462-5.114-.5-10.308 2.273-14.179 5.192-.845.964-1.89 1.892-2.34 3.084 1.282-.15 1.999-1.593 3.072-2.254 1.08-.567 3.393-2.304 4.606-2.198-1.014 1.816-1.086 4.526-.045 6.163.597.939 1.733 2.245 3.127 3.337-1.72-.19-5.237-1.21-6.663-2.05-.956-.931-2.604-2.075-3.855-1.035-.73 1.4 1.68-.115 2.048 1.058 1.12 1.15 2.815 1.361 4.226 2.01 1.044.632 2.23.756 3.403.993 2.219.518 4.546.966 6.8.385zm-3.503-1.931c-2.045-.6-3.511-2.297-4.626-4.019-.766-1.475-.322-3.388.768-4.568 1.059-.943 2-1.346 3.214-1.996 1.308-.376 2.69-.297 4.03-.178 1.419.359 3.437.95 3.912 2.252.518 1.42.662 3.294.185 4.859-.482 1.584-1.721 2.707-3.096 3.365-1.322.632-3.01.84-4.387.285zm4.396-3.1c1.167-1.05 1.498-3.007 1.054-4.446-.582-1.596-2.323-2.067-3.828-2.287-1.667-.21-3.245 1.345-3.549 2.827-.282 1.375.019 3.284 1.995 3.71 1.343.288 2.773.528 4.12.276l.208-.08zm12.346-5.138c-.612-1.346-2.25-2.506-3.08-3.714-1.074-1.076-2.526-1.398-3.794-2.18-1.324-.623-2.232-.816-3.67-.928-1.567-.28-3.155-.457-4.743-.352-.34-.113-4.036.184-6.248.928-2.969.999-3.747 3.203-2.168 1.898 1.579-1.306 7.777-2.758 11.732-2.048 1.728.31 3.653.879 5.049 1.501 1.34.598 2.645 1.517 3.605 2.677.613 1.216 1.79 1.873 2.808 2.69.331.205.516-.198.509-.472zm-85.842 12.394c1.555.073 2.943 1.029 4.545.891 1.696.136 3.24-.584 4.932-.483 2.09-.234 4.041-1.064 6.086-1.498 1.172-.655.922.46-.076.506-2.443 1.302-5.107 2.449-7.934 2.314-1.555-.045-7.853-.277-7.553-1.73zm5.021-1.776c-1.61-.349-3.25-.49-4.882-.77-1.118-.191-1.99-.68-2.95-1.237-.719-.593-2.99-1.323-1.935-2.406 1.309.286 2.639.986 3.791 1.745.579.38 3.124 1.343 2.91.894-.071-.15-.643-.764-1.18-1.254-1.103-1.191-1.773-3.619-1.591-4.828.196-1.309.513-2.423.589-3.021.046-.363-1.553.395-2.44 1.192-.881 1.007-2.746 3.745-2.746 3.745-1.676-.065-.7-1.028-.147-2.309.519-1.122 1.3-2.302 2.351-2.974 2.67-1.957 5.394-3.164 8.431-3.461 5.114-.5 10.308 2.272 14.179 5.191.845.964 1.89 1.893 2.34 3.084-1.282-.15-1.998-1.593-3.072-2.254-1.08-.566-3.393-2.303-4.606-2.198 1.014 1.816 1.086 4.526.045 6.164-.597.938-1.733 2.244-3.127 3.336 1.72-.19 5.237-1.21 6.663-2.05.956-.93 2.604-2.075 3.855-1.035.73 1.401-1.68-.114-2.047 1.058-1.12 1.15-2.816 1.361-4.227 2.01-1.044.632-2.229.757-3.402.994-2.22.517-4.547.965-6.802.384zm3.503-1.93c2.045-.6 3.511-2.297 4.626-4.02.766-1.474.322-3.388-.768-4.568-1.059-.943-2-1.345-3.214-1.996-1.308-.375-2.689-.297-4.029-.178-1.42.36-3.438.95-3.913 2.252-.518 1.42-.661 3.294-.185 4.86.482 1.583 1.721 2.707 3.096 3.364 1.323.632 3.01.84 4.387.285zm-4.396-3.1c-1.167-1.05-1.498-3.008-1.054-4.446.582-1.596 2.323-2.068 3.828-2.288 1.667-.21 3.245 1.345 3.55 2.827.281 1.375-.02 3.285-1.996 3.71-1.342.289-2.772.528-4.12.277l-.208-.08zm-12.346-5.139c.612-1.346 2.25-2.506 3.08-3.714 1.074-1.076 2.526-1.398 3.795-2.18 1.323-.622 2.231-.816 3.67-.928 1.566-.279 3.154-.457 4.742-.352.34-.113 4.037.185 6.249.929 2.968.998 3.746 3.202 2.167 1.897-1.578-1.305-7.776-2.758-11.732-2.048-1.728.31-3.653.879-5.049 1.502-1.34.598-2.645 1.517-3.605 2.676-.613 1.216-1.79 1.874-2.808 2.69-.331.205-.516-.197-.509-.472z"/>
  <path fill="#fff" d="M200.525 127.767c1.461-.652 2.089-2.362 1.263-3.44-.366-.477-1.899-.644-2.775-.301-1.603.625-2.09 2.965-.774 3.72.801.46 1.292.464 2.286.02zm-64.63.256c1.604-1.657 1.328-3.844-.564-3.889-1.413-.033-2.55.454-3.006 1.288-.667 1.218-.459 2.165.613 2.784 1.32.427 1.94.866 2.956-.183z"/>
</svg>
