<?xml version="1.0" encoding="UTF-8" standalone="no"?>
<!-- Created with Inkscape (http://www.inkscape.org/) -->

<svg
   xmlns:dc="http://purl.org/dc/elements/1.1/"
   xmlns:cc="http://creativecommons.org/ns#"
   xmlns:rdf="http://www.w3.org/1999/02/22-rdf-syntax-ns#"
   xmlns:svg="http://www.w3.org/2000/svg"
   xmlns="http://www.w3.org/2000/svg"
   xmlns:sodipodi="http://sodipodi.sourceforge.net/DTD/sodipodi-0.dtd"
   xmlns:inkscape="http://www.inkscape.org/namespaces/inkscape"
   width="338.32648mm"
   height="414.91257mm"
   viewBox="0 0 338.32648 414.91257"
   version="1.1"
   id="svg8"
   inkscape:version="0.92.3 (2405546, 2018-03-11)"
   sodipodi:docname="Eyes05.svg">
  <defs
     id="defs2">
    <inkscape:path-effect
       effect="skeletal"
       id="path-effect1081"
       is_visible="true"
       pattern="M 0,5 C 0,2.24 2.24,0 5,0 7.76,0 10,2.24 10,5 10,7.76 7.76,10 5,10 2.24,10 0,7.76 0,5 Z"
       copytype="single_stretched"
       prop_scale="0.26458333"
       scale_y_rel="false"
       spacing="0"
       normal_offset="0"
       tang_offset="0"
       prop_units="false"
       vertical_pattern="false"
       fuse_tolerance="0" />
    <inkscape:path-effect
       effect="simplify"
       id="path-effect1079"
       is_visible="true"
       steps="1"
       threshold="0.016469"
       smooth_angles="360"
       helper_size="0"
       simplify_individual_paths="false"
       simplify_just_coalesce="false"
       simplifyindividualpaths="false"
       simplifyJustCoalesce="false" />
    <inkscape:path-effect
       effect="skeletal"
       id="path-effect975"
       is_visible="true"
       pattern="m 0.04724703,5.4252232 c 0,-2.7599999 2.23999997,-4.9999999 4.99999997,-4.9999999 2.76,0 4.999999,2.24 4.999999,4.9999999 0,2.7599995 -2.239999,4.9999998 -4.999999,4.9999998 -2.76,0 -4.99999997,-2.2400003 -4.99999997,-4.9999998 z"
       copytype="single_stretched"
       prop_scale="0.26458333"
       scale_y_rel="false"
       spacing="0"
       normal_offset="0"
       tang_offset="0"
       prop_units="false"
       vertical_pattern="false"
       fuse_tolerance="0" />
    <inkscape:path-effect
       effect="bspline"
       id="path-effect973"
       is_visible="true"
       weight="33.333333"
       steps="2"
       helper_size="0"
       apply_no_weight="true"
       apply_with_weight="true"
       only_selected="false" />
    <inkscape:path-effect
       effect="simplify"
       id="path-effect971"
       is_visible="true"
       steps="1"
       threshold="0.000408163"
       smooth_angles="360"
       helper_size="0"
       simplify_individual_paths="false"
       simplify_just_coalesce="false"
       simplifyindividualpaths="false"
       simplifyJustCoalesce="false" />
    <inkscape:path-effect
       effect="skeletal"
       id="path-effect964"
       is_visible="true"
       pattern="M 0,5 C 0,2.24 2.24,0 5,0 7.76,0 10,2.24 10,5 10,7.76 7.76,10 5,10 2.24,10 0,7.76 0,5 Z"
       copytype="single_stretched"
       prop_scale="0.26458333"
       scale_y_rel="false"
       spacing="0"
       normal_offset="0"
       tang_offset="0"
       prop_units="false"
       vertical_pattern="false"
       fuse_tolerance="0" />
    <inkscape:path-effect
       effect="bspline"
       id="path-effect962"
       is_visible="true"
       weight="33.333333"
       steps="2"
       helper_size="0"
       apply_no_weight="true"
       apply_with_weight="true"
       only_selected="false" />
    <inkscape:path-effect
       effect="simplify"
       id="path-effect960"
       is_visible="true"
       steps="1"
       threshold="0.000408163"
       smooth_angles="360"
       helper_size="0"
       simplify_individual_paths="false"
       simplify_just_coalesce="false"
       simplifyindividualpaths="false"
       simplifyJustCoalesce="false" />
    <inkscape:path-effect
       effect="skeletal"
       id="path-effect956"
       is_visible="true"
       pattern="M 0,5 C 0,2.24 2.24,0 5,0 7.76,0 10,2.24 10,5 10,7.76 7.76,10 5,10 2.24,10 0,7.76 0,5 Z"
       copytype="single_stretched"
       prop_scale="0.26458333"
       scale_y_rel="false"
       spacing="0"
       normal_offset="0"
       tang_offset="0"
       prop_units="false"
       vertical_pattern="false"
       fuse_tolerance="0" />
    <inkscape:path-effect
       effect="bspline"
       id="path-effect954"
       is_visible="true"
       weight="33.333333"
       steps="2"
       helper_size="0"
       apply_no_weight="true"
       apply_with_weight="true"
       only_selected="false" />
    <inkscape:path-effect
       effect="simplify"
       id="path-effect952"
       is_visible="true"
       steps="1"
       threshold="0.000408163"
       smooth_angles="360"
       helper_size="0"
       simplify_individual_paths="false"
       simplify_just_coalesce="false"
       simplifyindividualpaths="false"
       simplifyJustCoalesce="false" />
    <inkscape:path-effect
       effect="bspline"
       id="path-effect879"
       is_visible="true"
       weight="33.333333"
       steps="2"
       helper_size="0"
       apply_no_weight="true"
       apply_with_weight="true"
       only_selected="false" />
    <inkscape:path-effect
       effect="simplify"
       id="path-effect877"
       is_visible="true"
       steps="1"
       threshold="0.000408163"
       smooth_angles="360"
       helper_size="0"
       simplify_individual_paths="false"
       simplify_just_coalesce="false"
       simplifyindividualpaths="false"
       simplifyJustCoalesce="false" />
    <inkscape:path-effect
       effect="simplify"
       id="path-effect873"
       is_visible="true"
       steps="1"
       threshold="0.000408163"
       smooth_angles="360"
       helper_size="0"
       simplify_individual_paths="false"
       simplify_just_coalesce="false"
       simplifyindividualpaths="false"
       simplifyJustCoalesce="false" />
  </defs>
  <sodipodi:namedview
     id="base"
     pagecolor="#ffffff"
     bordercolor="#666666"
     borderopacity="1.0"
     inkscape:pageopacity="0.0"
     inkscape:pageshadow="2"
     inkscape:zoom="0.35"
     inkscape:cx="969.34251"
     inkscape:cy="826.29892"
     inkscape:document-units="mm"
     inkscape:current-layer="layer1"
     showgrid="false"
     inkscape:window-width="1920"
     inkscape:window-height="1001"
     inkscape:window-x="-9"
     inkscape:window-y="-9"
     inkscape:window-maximized="1"
     inkscape:snap-global="false"
     fit-margin-top="0"
     fit-margin-left="0"
     fit-margin-right="0"
     fit-margin-bottom="0" />
  <metadata
     id="metadata5">
    <rdf:RDF>
      <cc:Work
         rdf:about="">
        <dc:format>image/svg+xml</dc:format>
        <dc:type
           rdf:resource="http://purl.org/dc/dcmitype/StillImage" />
        <dc:title />
      </cc:Work>
    </rdf:RDF>
  </metadata>
  <g
     inkscape:label="Ebene 1"
     inkscape:groupmode="layer"
     id="layer1"
     transform="translate(645.68791,-12.765045)">
    <rect
       style="opacity:1;fill:none;fill-opacity:1;fill-rule:evenodd;stroke:none;stroke-width:0.99999988;stroke-linecap:round;stroke-linejoin:miter;stroke-miterlimit:4;stroke-dasharray:none;stroke-dashoffset:0;stroke-opacity:1;paint-order:stroke fill markers"
       id="rect1307-4-6"
       width="337.15475"
       height="414.26193"
       x="-644.51617"
       y="12.765045"
       inkscape:label="Frame" />
    <path
       sodipodi:nodetypes="cscccccccccccccccccc"
       inkscape:label="Füllung_Augen"
       inkscape:connector-curvature="0"
       d="m -522.64056,141.14563 c 0,0 -0.1429,3.90687 1.095,5.96986 0.6918,1.15184 4.7777,1.06863 4.7777,1.06863 l 5.1045,0.5723 11.2868,-1.65082 5.0113,-0.43051 c 1.1676,-1.87449 0.013,-1.93012 -0.3399,-5.22485 l -4.8014,-4.69751 -8.8313,-1.35832 c -4.435,1.91601 -10.4954,1.60531 -13.3027,5.75122 z m 86.3878,-3.78413 4.3224,2.86792 c -0.3861,1.52238 0.727,6.37862 -2.6144,6.54743 l -5.9954,1.18741 -15.7915,-1.63184 -2.29,-0.0139 c -0.5992,-2.46099 -0.2859,-2.0782 -0.2287,-5.1362 l 4.8024,-5.32142 10.79458,-0.53067 z"
       style="display:inline;opacity:1;fill:#ffffff;fill-opacity:1;fill-rule:evenodd;stroke:none;stroke-width:1;stroke-linecap:round;stroke-linejoin:miter;stroke-miterlimit:4;stroke-dasharray:none;stroke-dashoffset:0;stroke-opacity:1;paint-order:stroke fill markers"
       id="path1484-1" />
    <path
       sodipodi:nodetypes="scccccscccccccc"
       inkscape:label="Pupille"
       inkscape:connector-curvature="0"
       d="m -450.88616,146.86305 c -1.6197,-0.72888 -1.4159,-1.80366 -2.4096,-5.94912 -0.1242,-3.9584 3.5072,-6.37427 7.1137,-5.67145 3.7961,0.10823 4.5414,0.034 8.111,1.50818 2.3101,1.95845 3.2628,4.54553 1.9743,7.10712 -1.3473,3.76002 -5.8941,4.46319 -9.3834,4.21436 -1.8837,0.0692 -3.906,-0.53407 -5.406,-1.20909 z m -59.2709,2.274 c -4.3138,-0.68749 -8.7744,-1.29856 -8.3036,-5.519 -0.4971,-4.41629 1.8644,-7.59366 5.2843,-7.24983 3.2231,0.10304 5.8612,-0.51835 8.9422,-0.77254 2.463,2.11979 3.5102,8.43404 1.3995,11.48159 -0.9749,0.54779 -1.4972,1.43716 -4.6173,1.63345 -1.152,0.30454 -1.5607,0.65066 -2.7051,0.4263 z"
       style="display:inline;fill:#483737;stroke-width:1"
       id="path1456" />
    <path
       sodipodi:nodetypes="ccccccscccs"
       inkscape:label="Glanzlicht"
       inkscape:connector-curvature="0"
       d="m -444.41676,140.24817 c 1.4614,-0.65183 2.089,-2.36175 1.263,-3.44034 -0.3652,-0.47677 -1.8986,-0.64287 -2.775,-0.30061 -1.6024,0.62567 -2.0892,2.965 -0.774,3.71979 0.8015,0.45998 1.292,0.46451 2.286,0.0212 z m -64.6303,0.25644 c 1.6051,-1.65659 1.3282,-3.84435 -0.5635,-3.88885 -1.4128,-0.0331 -2.55,0.45379 -3.0063,1.28744 -0.6667,1.2183 -0.4581,2.16486 0.6131,2.78401 1.3198,0.4269 1.9402,0.86643 2.9567,-0.1826 z"
       style="display:inline;fill:#ffffff;stroke-width:1"
       id="path1435" />
    <path
       style="display:inline;fill:#000000;stroke-width:1"
       d="m -450.19936,131.66097 c -1.0297,0.14569 -2.0372,0.46157 -3.0792,0.58626 -1.3264,0.62501 -2.8224,0.84929 -4.0659,1.65049 -1.0154,0.67347 -1.8975,1.46659 -2.7559,2.31191 -0.5964,0.88183 -1.8741,2.16343 -1.3984,3.16547 l 0.042,-0.0927 c 0.5601,-1.10331 1.0909,-2.29706 2.1514,-3.0338 1.0248,-0.88379 2.0144,-1.8616 3.2682,-2.37181 1.2817,-0.56157 2.6175,-1.06654 4.0301,-1.17572 1.2839,-0.4285 2.6688,-0.148 3.9889,-0.37571 0.7613,-0.032 2.3673,0.0378 2.5915,-0.29737 -1.5767,-0.29448 -3.1795,-0.26593 -4.773,-0.36699 z m -54.0862,0.62638 c -1.594,0.0912 -3.1967,0.0523 -4.7753,0.33709 0.2222,0.33652 1.8292,0.27665 2.5903,0.31335 1.3187,0.23586 2.7047,-0.0356 3.986,0.40074 1.4119,0.11784 2.7446,0.63054 4.0228,1.19999 1.2506,0.51791 2.2347,1.50233 3.254,2.39241 1.056,0.74326 1.5794,1.93974 2.1327,3.04648 l 0.041,0.0929 c 0.4819,-0.9991 -0.7874,-2.28799 -1.3784,-3.17347 -0.8531,-0.85059 -1.7303,-1.64913 -2.7416,-2.32883 -1.2386,-0.80885 -2.7336,-1.04236 -4.0561,-1.67552 -1.0412,-0.13111 -2.0468,-0.45317 -3.0756,-0.6052 z m 54.1626,2.44952 c -1.1094,0.0426 -2.209,0.26555 -3.2459,0.66621 -1.4109,0.16012 -2.4096,1.24785 -3.3806,2.10695 -1.1083,0.88119 -1.4368,2.2792 -2.0775,3.47399 0.133,0.50329 -0.7044,2.09393 -0.1459,1.92874 0.4166,-1.2959 1.3845,-2.25856 1.9352,-3.43358 0.5825,-1.0628 1.5845,-1.79977 2.574,-2.47956 0.7535,-0.27749 2.4454,-0.67666 2.737,-0.20596 -0.7122,1.03573 -1.4003,2.08642 -1.7559,3.32607 -0.2164,1.38179 -0.2566,2.85735 0.1624,4.2047 0.028,0.76193 2.063,1.93913 0.4571,1.57857 -1.2913,-0.48549 -2.7112,-0.50443 -4.0742,-0.42143 -0.8628,0.58589 -2.2511,-0.18332 -2.8573,0.85999 0.03,1.05747 1.736,-0.21811 2.476,0.18253 1.3143,0.28249 2.6915,0.23214 3.9474,0.69338 1.469,0.22053 2.8376,0.6595 4.2672,1.06612 2.6737,0.56547 5.0306,0.4264 7.6466,0.0583 1.8267,-0.10674 3.6807,-0.0632 5.464,-0.50823 1.2913,-0.30584 2.7316,-0.46663 3.8019,-1.2877 0.7667,-0.24586 1.6148,-1.63094 0.152,-1.34589 -1.2737,1.04107 -2.9158,1.34554 -4.4823,1.71322 -0.7839,0.35563 -1.7299,-0.17168 -0.6164,-0.73162 0.9025,-1.2023 1.4951,-2.69085 1.5358,-4.20688 0.4913,-1.03229 -0.1989,-2.94337 0.1308,-3.457 1.3057,0.34447 2.6674,0.81858 3.5738,1.83538 0.154,0.54201 1.2454,2.23764 1.0922,0.77503 -0.415,-1.2111 -1.3022,-2.23584 -2.2496,-3.06491 -1.2233,-0.68924 -2.4412,-1.382 -3.7666,-1.86948 -1.3688,-0.70958 -2.8586,-1.05032 -4.3868,-1.18934 -1.2661,-0.0219 -2.4875,-0.27006 -3.7553,-0.12732 -1.3534,-0.0981 -2.6943,0.008 -4.0486,-0.1221 -0.3699,-0.026 -0.741,-0.0323 -1.1108,-0.0181 z m -54.2579,0.62585 c -0.3697,-0.0162 -0.7408,-0.013 -1.1109,0.0107 -1.3551,0.1213 -2.6948,0.008 -4.0488,0.0977 -1.2669,-0.15058 -2.4904,0.09 -3.7566,0.10416 -1.529,0.1296 -3.0208,0.46118 -4.394,1.16232 -1.3283,0.47932 -2.5504,1.16405 -3.7779,1.84575 -0.9525,0.82322 -1.8455,1.84303 -2.268,3.05156 -0.162,1.46164 0.9391,-0.22727 1.0965,-0.76834 0.9127,-1.0112 2.2772,-1.47743 3.5851,-1.81386 0.3263,0.51565 -0.3755,2.42296 0.1094,3.45826 0.031,1.51626 0.6153,3.00844 1.5104,4.21627 1.1101,0.56679 0.1603,1.08772 -0.6214,0.72729 -1.5642,-0.37733 -3.2044,-0.69189 -4.4716,-1.74079 -1.4611,-0.29405 -0.621,1.09626 0.1442,1.34683 1.0652,0.82764 2.504,0.99779 3.7933,1.31156 1.7806,0.45599 3.6347,0.42387 5.4608,0.54185 2.6136,0.38422 4.9702,0.53784 7.6474,-0.0112 1.432,-0.39782 2.8033,-0.82887 4.2737,-1.04035 1.2586,-0.45351 2.635,-0.39419 3.951,-0.66859 0.7425,-0.39607 2.4409,0.89001 2.4775,-0.16726 -0.5997,-1.04703 -1.9927,-0.28689 -2.8518,-0.87807 -1.3625,-0.0914 -2.7831,-0.0807 -4.0773,0.39684 -1.6081,0.35066 0.4346,-0.81396 0.4673,-1.57571 0.4276,-1.34473 0.396,-2.82053 0.1883,-4.20361 -0.3479,-1.24182 -1.0295,-2.29724 -1.7354,-3.33734 0.2945,-0.46886 1.9845,-0.0588 2.7362,0.22333 0.9853,0.68587 1.9828,1.42849 2.5587,2.49485 0.5434,1.17839 1.5049,2.14746 1.9135,3.44591 0.5574,0.16862 -0.2701,-1.42766 -0.134,-1.93012 -0.6333,-1.19871 -0.9533,-2.59821 -2.0561,-3.48619 -0.9657,-0.86507 -1.9572,-1.9594 -3.367,-2.1282 -1.0346,-0.40705 -2.1332,-0.63638 -3.2423,-0.6857 z m 56.0633,0.81688 c 0.3054,0.002 0.4803,0.13564 0.3383,0.55495 -0.9454,1.04478 -0.8764,2.56861 -0.6888,3.87628 0.4285,1.06911 1.6514,1.60912 2.5617,2.18634 1.471,0.34466 3.121,0.78132 4.4175,-0.28128 1.2005,-0.70475 1.7237,-2.06121 1.7644,-3.39223 0.2521,-0.82725 -1.0627,-2.98109 0.6891,-2.11234 0.9737,0.44821 2.4132,0.27691 2.4265,1.73947 0.4235,1.09191 0.4042,2.21476 0.2355,3.38287 -0.2357,1.31428 -0.8067,2.65038 -1.6933,3.6706 -0.7286,0.95819 -1.8294,1.78408 -3.1007,1.57101 -1.5496,0.0456 -3.1615,0.2743 -4.6752,0.1501 l -5e-4,2e-5 c -1.5409,-0.0752 -2.9829,-0.5146 -4.3139,-1.25983 -1.2093,-0.40302 -1.763,-1.75313 -2.2609,-2.85165 -0.4654,-1.20358 -0.123,-2.5957 0.3237,-3.7396 0.4949,-1.17329 1.1612,-2.40808 2.2284,-3.13452 0.3677,-0.005 1.2386,-0.3643 1.7476,-0.36018 z m 3.1279,0.39438 c 1.0405,-0.022 2.0387,0.50069 2.0207,1.73698 -0.069,1.33699 -1.9187,1.74327 -2.9817,1.53232 -1.0824,-0.84486 -1.7172,-3.08676 0.2458,-3.16952 0.2326,-0.061 0.4751,-0.0947 0.7152,-0.0997 z m -61.0049,0.22034 c 0.5091,-0.001 1.3777,0.36372 1.7453,0.37094 1.0627,0.73299 1.7209,1.97131 2.2086,3.14763 0.4397,1.14662 0.7735,2.54133 0.3006,3.74203 -0.5046,1.09544 -1.0661,2.44163 -2.2779,2.8372 -1.3355,0.73702 -2.7807,1.16807 -4.322,1.23374 -1.5145,0.11489 -3.1253,-0.12378 -4.6746,-0.17889 -1.2726,0.20524 -2.3677,-0.6279 -3.0904,-1.59056 -0.8804,-1.02565 -1.4436,-2.36475 -1.6713,-3.68045 -0.161,-1.1691 -0.1728,-2.29254 0.2573,-3.38182 0.023,-1.46243 1.4601,-1.28182 2.4366,-1.72402 1.7571,-0.85795 0.4292,1.28775 0.6761,2.11653 0.033,1.33125 0.548,2.69094 1.7441,3.40306 1.29,1.07055 2.942,0.64402 4.4152,0.30843 0.9138,-0.57159 2.1404,-1.10405 2.5755,-2.1705 0.1956,-1.30649 0.2736,-2.8299 -0.6654,-3.88047 -0.1395,-0.42017 0.042,-0.55196 0.3423,-0.55283 z m -4.1869,0.31394 c 0.2401,0.007 0.4824,0.0422 0.7145,0.10473 1.9626,0.0949 1.3135,2.33225 0.2259,3.17043 -1.0643,0.2044 -2.9112,-0.21275 -2.9722,-1.55013 -0.01,-1.23636 0.9915,-1.75334 2.0318,-1.72499 z m 53.3618,12.15171 c -0.4485,0.0859 0.139,1.05237 0.7838,1.05888 1.1515,0.6134 2.4737,0.80057 3.7644,0.88903 0.6567,-0.0427 1.3805,0.0371 1.995,-0.18766 0.6111,-0.47656 -1.6549,-0.5235 -2.2279,-0.6123 -1.3195,-0.11866 -2.6593,-0.4069 -3.8273,-1.04416 -0.2257,-0.0966 -0.3845,-0.12365 -0.488,-0.10383 z m -40.554,0.66803 c -0.1034,-0.0205 -0.2618,0.005 -0.4882,0.10032 -1.1719,0.63007 -2.5138,0.91003 -3.8341,1.02057 -0.5735,0.0853 -2.8398,0.11826 -2.2316,0.59857 0.6131,0.22849 1.3378,0.15375 1.9942,0.20046 1.2913,-0.0805 2.6141,-0.26009 3.7693,-0.8664 0.6454,-0.002 1.2384,-0.96485 0.7904,-1.05351 z"
       id="path1108"
       inkscape:connector-curvature="0"
       inkscape:label="Kontur_Augen"
       sodipodi:nodetypes="ccccccccccccccccccccccccccccccccccccccccccccccccccccccccccccccccccccccccccccccccccccccccccccccccccccccccccccccccccccccccccccccccccccccccccccccccccccccccccccc" />
  </g>
</svg>
