<svg xmlns="http://www.w3.org/2000/svg" width="1274.286" height="1565.714">
  <path fill="none" d="M0 0h1274.286v1565.714H0z" paint-order="stroke fill markers"/>
  <path fill="#fff" fill-rule="evenodd" d="m766.219 471.206-20.586-5.13c-9.609 1.895-16.696 4.506-26.823 9.205l-10.864 17.07-6.324 13.22c-3.918 10.811-1.427 16.85 3.697 16.707l16.28-5.733 41.419-1.406 25.857 3.706s5.122-2.65 7.243-4.557c2.538-2.282 6.34-8.04 6.34-8.04l-2.072-12.629-15.533-11.486zm-226.982-2.811-52.123 5.712-23.31 31.18c-2.62 10.435 8.054 10.58 12.335 15.332 4.88-1.509 10.838-6.743 20.847-5.791l39.917-.857 28.696 5.766c6.79.965 9.627-2.74 7.234-11.464l-8.471-16.928-7.94-10.78z" paint-order="stroke fill markers"/>
  <path fill="#fff" d="M518.426 469.182c2.476 1.41 1.007 3.45-3.376 7.836-3.967 3.968-6.1 5.06-8.632 4.418-4.122-1.045-4.794-3.093-2.524-7.253 4.077-3.148 9.404-5.345 14.532-5.001zm226.52-2.388c1.471.038 2.536.4 2.808 1.19.59 1.717-.261 4.32-1.406 4.28-.412-.015-2.57 1.388-4.797 3.12-3.815 2.965-5.871 3.453-9.719 2.302-1.825-.547-1.985-1.983-.592-5.293 1.227-2.914 9.292-5.714 13.705-5.6z"/>
  <path class="eyes" fill="#a7ac93" fill-rule="evenodd" d="M712.677 497.704c0 4.922 4.049 7.306 7.41 11.165 6.005 6.893 16.327 5.36 28.293 5.36 10.777 0 24.194 1.21 30.382-4.563 4.529-4.225 4.367-12.099 4.367-17.894 0-13.714-15.13-24.83-33.794-24.83-8.79 0-20.616 2.974-26.627 7.016-6.752 4.54-10.031 16.491-10.031 23.746zm-159.616-.31c0 4.922-3.594 7.306-6.578 11.164-5.331 6.894-14.494 5.361-25.116 5.361-9.567 0-21.478 1.21-26.971-4.563-4.02-4.225-3.877-12.099-3.877-17.894 0-13.714 13.431-24.83 30-24.83 7.803 0 18.3 2.974 23.637 7.015 5.994 4.54 8.905 16.492 8.905 23.747z" paint-order="stroke fill markers"/>
  <path d="M728.605 529.738c-1.375-.194-3.135-.873-3.911-1.508-1.125-.92-.413-1.289 3.5-1.817 8.025-1.082 25.067-.921 28.096.266l2.815 1.103-2.5 1.056c-2.373 1.002-22.674 1.655-28 .9zm-213.5-1.572c-2.138-.962-2.569-1.505-1.5-1.888 2.71-.97 19.39-1.555 27.845-.975 7.603.52 8.156.7 6.687 2.17-2.19 2.19-28.482 2.743-33.032.693zm53.633-5.665c-2.938-1.176-14.494-3.7-23.133-5.054-3.575-.56-15.05-1.009-25.5-.998-15.29.016-20.66.404-27.5 1.986-4.675 1.081-10.75 2.244-13.5 2.583l-5 .618 2.536-2.28c2.114-1.9 6.786-3.793 15.864-6.426 1.085-.315.932-.906-.683-2.63-1.145-1.223-3.027-4.432-4.182-7.131-1.699-3.972-1.973-6.021-1.438-10.75.364-3.214.266-5.841-.218-5.838-3.673.02-21.566 19.281-25.474 27.42-2.186 4.554-3.922 4.475-2.745-.123 1.296-5.066 2.742-11.601 2.796-12.638.024-.46-1.644-.735-3.706-.61-8.776.528-9.763-1.087-2.5-4.089 2.612-1.08 5.425-2.41 6.25-2.955.825-.546 3.525-2.073 6-3.393 5.46-2.914 9.138-6.687 7.183-7.369-2.492-.87-6.503-4.922-5.876-5.937.346-.559 3.835-1.285 7.755-1.613 4.748-.398 9.18-1.553 13.282-3.462 3.386-1.576 8.315-3.463 10.955-4.194 3.548-.983 5.183-2.074 6.275-4.186 1.721-3.327 1.464-3.286 7.926-1.292 2.75.848 9.527 1.916 15.06 2.372 8.972.74 11.03 1.302 19 5.196 11.107 5.426 13.425 8.313 19.832 24.697 2.611 6.676 5.166 12.398 5.678 12.714 1.133.7 1.234 2.457.14 2.457-.433 0-2.513-3.263-4.621-7.25-4.193-7.93-13.5-21.61-16.22-23.843-1.558-1.278-1.651-1.177-1.016 1.093 3.144 11.223 3.28 22.016.33 26.158a787.55 787.55 0 0 1-3.262 4.537c-1.574 2.17-1.509 2.22 5.743 4.393 4.035 1.208 9.017 3.039 11.072 4.068 3.682 1.843 3.766 1.841 5.75-.143 2.734-2.733 7.014-2.71 7.014.038 0 1.395-1.109 2.514-3.468 3.5-1.907.797-3.595 1.42-3.75 1.385-.155-.034-1.347-.49-2.65-1.01zm-46.133-12.356c5.775-.038 12.635.296 15.245.741 4.627.79 4.834.715 8.248-3 4.954-5.39 5.94-8.997 4.587-16.77-1.742-10.006-3.385-13.045-8.062-14.916-5.55-2.22-6.152-2.107-4.993.94 1.843 4.849 1.187 13.83-1.275 17.446-4.105 6.032-6.714 7.255-15.734 7.379 0 0-5.637-.02-8.135-1.076-1.954-.825-4.375-3.436-4.375-3.436-3.563-3.765-4.612-5.769-5.652-10.805-1.385-6.706-1.404-6.715-8.31-4.089-2.236.85-2.57 1.605-2.76 6.242-.367 9.011.018 12.49 1.768 15.941 3.314 6.54 3.993 6.892 11.847 6.146 3.905-.37 11.826-.705 17.6-.743zm174.75 12.396c-.963-.585-1.75-1.942-1.75-3.015 0-2.71 4.33-2.585 6.926.201 1.694 1.818 2.25 1.948 3.588.837.87-.722 4.994-2.518 9.164-3.99l7.58-2.675-3.558-2.2c-3.551-2.194-8.7-10.634-8.7-14.26 0-4.265-2.248-2.327-6.032 5.2-2.252 4.48-4.324 7.914-4.605 7.633-.28-.28.144-1.79.945-3.353.8-1.564 2.917-7.118 4.704-12.343 4.889-14.299 8.418-19.184 16.964-23.488 7.468-3.761 19.046-6.958 21.908-6.049.945.3 5.07-.346 9.167-1.435 9.464-2.517 9.79-2.506 10.507.346.551 2.197 4.04 4.626 6.642 4.626.609 0 3.625 1.193 6.703 2.652 6.835 3.239 14.357 5.32 19.288 5.336 5.102.016 5.408 1.278 1.204 4.97-3.536 3.105-3.567 3.195-1.747 5.207 1.019 1.126 3.652 2.952 5.852 4.058 2.2 1.105 4.675 2.57 5.5 3.256.825.686 3.637 2.045 6.25 3.02 2.77 1.033 4.75 2.398 4.75 3.274 0 1.235-1.158 1.408-6.532.976-5.731-.46-6.468-.323-6.014 1.113.284.901.918 3.663 1.409 6.138.49 2.475 1.231 5.4 1.648 6.5 1.36 3.593-5.283-4.765-8.47-10.66-1.684-3.111-5.644-8.022-8.801-10.91l-5.74-5.254-.555 7.412c-.55 7.37-1.53 10.205-5.123 14.833-2.246 2.894-1.856 3.335 4.871 5.517 4.805 1.559 10.902 5.3 10.041 6.161-.468.468-16.47-2.317-17.708-3.083-.505-.312-8.007-1.247-16.67-2.077-17.315-1.66-25.375-1.004-45.577 3.707-11.765 2.742-15.837 3.154-18.03 1.82zm80.737-16.94c3.483-6.915 4.35-12.3 2.87-17.824-.517-1.929-4.374-4.611-11.486-7.989-.347-.164-.953 2.308-1.348 5.495-1.163 9.384-2.71 12.006-8.734 14.81-9.036 4.208-20.529 2.954-26.329-2.87-4.283-4.302-5.18-10.746-2.457-17.656 1.832-4.648 1.848-4.99.232-4.981-3.73.02-11.95 4.792-13.993 8.122-2.858 4.658-3.772 11.902-2.208 17.49 2.394 8.55 10.239 11.31 30.966 10.893 7.425-.149 15.75.064 18.5.473 10.516 1.566 10.108 1.74 13.987-5.963zm-77.903-22.525c.83-5.532 4.939-17.842 7.011-21.006 2.579-3.934 10.525-7.455 20.247-8.97 21.56-3.362 42.145-2.736 52.19 1.585 8.952 3.851 20.785 14.407 18.599 16.593-.772.772-7.519-3.508-12.212-7.746-6.027-5.443-13.216-7.747-26.584-8.52-16.509-.954-36.494 2.635-48.49 8.71-2.715 1.373-7.206 9.528-9.558 17.354-1.338 4.454-1.649 4.97-1.203 2zm-126.985 1.393a428.59 428.59 0 0 1-1.645-5.393c-1.478-4.936-4.737-11.255-7.356-14.263-3.887-4.464-31.16-11.26-45.024-11.22-10.67.032-22.924 1.758-28.01 3.947-2.715 1.168-6.833 3.872-9.15 6.009-3.955 3.645-12.414 8.754-12.414 7.497 0-4.303 10.394-13.141 20.109-17.1 10.514-4.283 34.65-5.306 50.89-2.157 3.026.586 7.124 1.165 9.107 1.286 4.881.297 13.862 5.29 16.443 9.143 2.288 3.414 8.826 22.316 8.003 23.139-.278.278-.706-.122-.953-.888z"/>
  <path fill="#fff" d="M519.907 484.405c2.309-1.194 4.873-2.477 5.698-2.852 2.276-1.034 2.33-4.369.103-6.384-2.999-2.714-11.416-1.396-12.978 2.03-1.495 3.283-1.421 4.509.432 7.154 1.897 2.709 1.61 2.707 6.745.052zm229.27.576c2.982-1.748 4.428-3.273 4.428-4.671 0-5.838-8.888-7.937-13.61-3.215-3.213 3.212-2.934 7.409.61 9.193 3.357 1.69 3.494 1.669 8.572-1.307z"/>
</svg>
