<svg xmlns="http://www.w3.org/2000/svg" width="1278.714" height="1568.173" viewBox="0 0 338.326 414.913">
  <path fill="none" d="M1.172 0h337.155v414.262H1.172z" paint-order="stroke fill markers"/>
  <path fill="#fff" fill-rule="evenodd" d="M123.125 128.113s-.126 3.272 1.346 5.335c.78 1.094 4.978 1.57 4.978 1.57l5.105-.096 11.32-1.016 4.978-.363c1.167-1.875.013-1.563-.34-4.858l-4.801-4.697-8.832-1.359c-4.435 1.916-10.946 1.338-13.753 5.484zm86.84-3.517 4.322 2.868c-.386 1.523.493 5.277-2.849 5.445l-5.794.987-15.759-.83-2.557-.214c-.733-1.76-.453-1.01-.396-4.067l5.237-5.69 10.795-.53z" paint-order="stroke fill markers"/>
  <path class="eyes" fill="#a7ac93" d="M196.087 133.614c-1.62-.73-2.172-1.32-3.166-5.465-.124-3.959 3.508-6.374 7.114-5.672 3.796.109 4.341-.634 7.91.84 2.31 1.959 2.001 4.349 1.448 7.211-1.56 2.98-5.126 3.45-8.616 3.202-1.883.07-3.19.559-4.69-.116zm-68.378-3.21c-.497-4.416 1.912-7.145 5.332-6.8 3.223.102 5.86-.52 8.942-.773 2.463 2.12 3.226 8.835.113 11.398-.975.547-.946.668-4.066.865-1.152.304-3.599.1-4.743-.125-2.62-.72-4.158-1.415-5.578-4.565z"/>
  <path fill="#fff" d="M202.344 127.554c1.461-.652 1.545-2.433.72-3.511-.366-.477-1.9-.643-2.776-.3-1.602.625-2.089 2.964-.774 3.719 1.157.605 1.53.233 2.83.092zm-65.174.186c1.605-1.657 1.328-3.845-.563-3.89-1.413-.032-2.55.455-3.007 1.288-.666 1.218-.458 2.165.613 2.784 1.32.427 1.94.867 2.957-.182z"/>
  <path d="M202.106 121.397c-2.374-.014-4.808.155-7.13.437-.928.102-2.08.153-3.176.419-1.36.404-2.41 1.971-3.325 2.89-1.05.95-1.64 2.387-2.227 3.609-.225.47-1.023 1.959-.446 1.883.877-1.389 3.463-4.457 5.046-6.035.735-.325 2.398-.83 2.719-.38-.645 1.08-.737 2.142-1.013 3.402-.129 1.392-.065 2.203.556 3.548.224.484.724 1.432 1.293 1.747.12.066-.902.016-1.392-.062-1.32-.403-2.516-.317-3.874-.46-1.17-.122-2.633-.396-3.172.684.055.35 4.757.185 6.464.845 1.48.127 2.67.632 4.152.536 2.887-.188 5.43.246 7.967.105 1.817-.222 3.67-.296 5.421-.853 1.27-.387 2.696-.64 3.712-1.527.75-.294 1.51-1.73.067-1.353-1.205 1.12-2.734 1.452-4.274 1.919-.55.166-1.903.229-1.76.134.324-.217.697-.617 1.066-.984.653-.68 1.213-2.059 1.223-3.684.012-2.019-.48-3.337-.184-3.87 1.325.261 2.193 1.408 3.162 2.365.132.375 1.685 1.896 2.197 1.96.1.013.597-.011.524-.297-.081-.32-.499-.763-.78-1.142-.763-1.029-1.703-2.395-2.7-3.163-1.158-.805-1.478-1.118-3.356-2.01-2.075-.451-4.387-.648-6.76-.663zm-65.342.852c-2.992-.006-5.95.246-8.527.883-1.853.945-2.163 1.267-3.297 2.105-.976.796-2.169 1.954-2.626 3.15-.078.556-.055.978.275.819.535-.258 1.32-1.11 1.426-1.442.942-.984 2.396-2.191 3.713-2.49-.306 1.085-.62 1.732-.566 3.75.044 1.605.402 3.035 1.394 4.192.338.395.744.689 1.075.896.145.091-1.128-.126-1.683-.277-1.553-.422-3.09-.71-4.327-1.795-1.452-.337-.652 1.078.105 1.35 1.041.858 2.474 1.07 3.754 1.42 1.767.508 3.62.53 5.443.7 2.54.069 5.07-.438 7.96-.333 1.486.055 2.66-.484 4.136-.653 1.688-.708 6.392-.677 6.437-1.029-.569-1.064-2.023-.748-3.19-.592-1.354.181-2.552.129-3.86.569-.487.092-1.506.172-1.389.102.56-.33 1.033-.764 1.243-1.253.583-1.363.608-2.705.44-4.093-.312-1.251-.434-2.31-1.11-3.371.309-.46 1.986-.001 2.73.302 1.627 1.533 4.299 4.526 5.215 5.89.58.059-.26-1.407-.5-1.87-.62-1.205-1.252-2.625-2.328-3.544-.94-.893-2.034-2.43-3.406-2.795-1.102-.235-2.256-.252-3.187-.329a59.63 59.63 0 0 0-5.35-.262zm70.01 1.556c1.022.157 1.467 0 1.804 1.423.271 1.14.545 2.185.451 3.362-.152 1.326-.28 1.683-1.174 2.697-.775.88-1.775 1.496-3.266 1.81-1.543.145-3.062-.064-4.58-.067-1.543-.003-2.917.519-4.22-.12-.727-.556-1.596-1.52-2.163-2.585-.22-1.356-.287-2.054.086-3.224.42-1.202.478-2.446 1.497-3.238.366-.028 1.18-.15 1.869-.26.38-.061.769-.278.225.322-.877 1.102-.712 2.618-.442 3.912.496 1.04 1.75 1.5 2.696 2.02 1.49.25 3.164.581 4.39-.562 1.154-.779 1.479-2.167 1.546-3.497.032-.615-.176-1.828-.311-2.2.327-.017 1.037.122 1.592.207zm-5.284.182c.802.016 1.76.31 1.795 1.613.016 1.339-1.804 1.86-2.878 1.718-1.288-.959-1.223-3.16.751-3.324.105-.007.217-.01.332-.007zm-61.888.278c.077-.015.271.05.462.074.691.091 1.508.19 1.876.207 1.04.763 1.134 2.005 1.587 3.195.407 1.159.107 2.02-.074 3.382-.536 1.08-1.344 1.806-2.055 2.382-1.284.677-2.439.294-3.98.34-1.519.046-3.333.392-4.88.293-1.499-.273-1.902-.34-2.714-1.276-.85-1.051-1.376-1.876-1.565-3.198-.127-1.173-.109-2.258.25-3.373.127-.392.25-.69.444-.886.497-.5.912-.657 1.674-.767.659-.096 1.554-.245 1.476-.092-.184.36-.64 1.756-.59 2.38.107 1.328.739 2.456 1.846 3.3 1.334 1.015 2.977.93 4.405.435 1.018-.354 2.171-1.042 2.637-2.095.233-1.3.355-2.821-.553-3.899-.28-.292-.322-.386-.246-.402zm-3.606.582c1.978.108 2.106 2.306.846 3.3-1.07.174-2.904-.296-2.927-1.635-.002-1.49 1.239-1.696 2.081-1.665zm75.162 10.73c-1.339.379-14.975 2.517-19.94.773-.246-.021-.404.003-.496.055-.352-.285.463.955 1.077.758 1.786 1.184 16.32.473 17.417-.533.655-.058 2.054-.66 1.942-1.053zm-84.814 1.132c-.1.397 1.315.958 1.972.997 1.124.975 15.673 1.272 17.425.038.62.18 1.399-1.083 1.055-.789-.094-.048-.253-.068-.497-.04-4.914 1.884-18.605.134-19.955-.206z"/>
</svg>
