<svg xmlns="http://www.w3.org/2000/svg" width="1278.065" height="1569.494" viewBox="0 0 338.155 415.262">
  <path fill="none" d="M.5.5h337.155v414.262H.5z" paint-order="stroke fill markers"/>
  <path fill="#fff" fill-rule="evenodd" d="m204.013 124.196-6.76-1.438-5.18.977-2.268 2.595-6.905 6.168-.41.993c.352 4.073 4.383 3.939 5.218 4.63l3.814.546 10.129.294 5.66-1.06 2.688-1.7c1.728-1.446 3.057-3.025 2.667-5.177l-1.016-2.1-1.71-1.513zm-61.37-.825-13.412 2.551-4.74 7.251.022 1.734c1.157 1.08 2.124 2.57 4.773 2.822l12.043.711 10.868-1.216c1.976-1.315 3.682-2.797 3.049-5.105l-5.994-5.444-3.196-2.21z" paint-order="stroke fill markers"/>
  <path class="eyes" fill="#a7ac93" d="M198.366 123.283c-2.48.022-5.278.667-6.982 2.488-2.201 2.813-1.865 7.312.837 9.691 1.62 2.263 4.479 3.33 7.19 2.727.342-.06.681-.137 1.016-.23 4.709-1.225 8.098-6.96 6.054-11.541-1.504-2.581-4.95-2.837-7.624-3.131-.162-.004-.326-.006-.491-.004zm-59.665.83c-2.582.141-5.71.54-7.11 2.987-1.928 2.538-.172 5.774 1.653 7.812 2.414 2.291 6.295 3.007 9.404 1.9l.475-.212c3.595-1.508 5.898-6.184 4.137-9.81-1.839-2.776-5.592-2.663-8.56-2.677z"/>
  <path d="M197.3 118.281c-.972-.002-1.853.043-2.45.143-1.804.303-4.994 1.857-6.578 3.204-1.48 1.26-1.735 1.747-.51.973.445-.28 1.608-.905 2.586-1.387.977-.483 1.953-.974 2.168-1.092.216-.117 1.45-.397 2.745-.622 2.75-.478 4.942-.33 8.37.567 2.682.702 3.679 1.207 6.544 3.32 1.335.984 2.454 1.798 2.487 1.81.229.08-.466-.834-1.045-1.376-1.928-1.804-5.575-3.906-8.619-4.967-.98-.342-3.56-.569-5.698-.573zm-57.773.583c-1.03 0-2.07.14-3.389.423-3.993.854-6.29 1.864-8.536 3.754-1.058.89-2.521 2.987-2.497 3.58 0 .099.645-.51 1.424-1.355 2.118-2.293 4.512-3.567 9.018-4.797 2.308-.63 3.433-.69 5.944-.317 2.404.358 3.83.819 8.728 2.82 2.648 1.083 2.798 1.12 2.114.54-1.683-1.429-6.48-3.57-9.47-4.226-1.283-.281-2.305-.423-3.336-.422zm60.177 1.977c-.28.004-.597.027-.992.06-2.977.247-4.367.728-7.732 2.674-1.482.856-3.926 2.868-6.113 5.03-.77.76-1.726 1.625-2.128 1.92-.49.362-.739.723-.755 1.095-.013.306-.199.748-.412.984-.214.235-.323.492-.245.57.219.219 1.555-.492 2.876-1.53.656-.515 1.27-.937 1.363-.937.094 0 1.006-.795 2.027-1.767a22.375 22.375 0 0 1 1.984-1.674c-.218 1.344-.137 2.82-.15 4.06.434 3.127 2.83 5.73 5.705 6.957-2.832-.108-7.667-.79-10.924-1.57-.334-.08-.102.152.633.635 1.642 1.076 4.104 1.731 9.078 2.416 1.756.242 8.404.148 9.922-.14 3.186-.604 4.005-.92 5.188-2 .63-.577 1.146-1.134 1.146-1.238 0-.118-.06-.18-.176-.186-.256-.012-.784.244-1.545.756-.662.446-1.784.934-2.713 1.178-1.355.357-1.963.395-4.488.275 3.054-1.023 5.515-3.67 6.398-6.798.198-1.123.383-2.536.254-3.827.516.137 1.29.805 4.165 3.479.641.596 1.536 1.332 1.987 1.636.865.582 1.822.734 1.812.289 0-.145-.907-1.256-2.007-2.468-1.295-1.427-1.964-2.323-1.895-2.54.142-.446-1.594-2.112-3.903-3.747-2.542-1.8-3.475-2.298-5.679-3.03-1.329-.442-1.841-.577-2.681-.562zm-59.653.786c-.147.001-.294.005-.442.013-2.524.027-4.594.758-6.682 1.555-1.04.397-4.246 2.4-4.692 2.795-.19.168-.536.56-.607.914-.071.353-.478.828-.802 1.136-.65.617-1.52 2.475-1.52 2.916 0 .328-2.067 3.129-2.306 3.129-.266 0-1.28 1.014-1.28 1.28 0 .294.758.176 2.11-.326 1.206-.449 1.494-.715 2.631-2.441.511-.776 1.457-1.862 2.102-2.413.625-.534 1.447-1.407 1.869-1.978-.117 1.007-.043 2.084.038 3 .574 2.722 2.878 4.75 5.106 6.263-2.163-.052-3.997-.133-4.673-.245-2.961-.49-2.915-.49-2.666-.023.524.978 2.771 1.394 9.421 1.744 2.206.116 4.249.249 4.539.295.765.122 5.217-.092 6.346-.305.53-.1 2.075-.709 3.434-1.355 1.358-.645 2.611-1.174 2.784-1.174a.316.316 0 0 0 .314-.317c0-.209-.257-.314-.589-.314-.331 0-.737.105-1.036.315-.498.349-3.33.948-4.497.952-.407.002-1.167.128-1.69.282-.37.109-2.084.17-4.228.194.427-.125.847-.258 1.254-.397 2.865-1.808 4.423-5.32 4.188-8.667a7.043 7.043 0 0 0-.572-1.528c2.12 1.354 3.98 2.69 4.701 3.392 2.235 2.178 3.102 2.921 3.408 2.921.539 0 .37-.508-.427-1.278-.413-.4-1.223-1.462-1.8-2.361-1.292-2.013-3.661-3.996-6.851-5.735-2.566-1.535-4.679-2.257-6.885-2.24zm53.793 3.307c.16-.012.027.205-.476.953-.64.95-.716 1.214-.716 2.51 0 2.689.874 4.154 3.378 5.663.516.311 1.094.445 1.916.446 1.792.002 2.957-.492 4.157-1.76 1.824-1.929 2.184-4.197 1.037-6.517-.275-.556-.486-1.01-.468-1.01.208 0 3.141 1.582 3.691 1.991.147.11.32.206.493.291 1.132 4.36-2.085 9.328-6.429 10.458-.335.093-.674.17-1.016.23-.27.06-.542.1-.814.127a83.254 83.254 0 0 0-1.62-.025c-1.875-.247-3.62-1.243-4.756-2.829-2.49-2.192-2.969-6.182-1.307-8.997a21.823 21.823 0 0 0 1.38-.766c.44-.275 1.023-.583 1.295-.686a1.15 1.15 0 0 1 .255-.079zm-49.89.073c.337 0 2.04.732 2.825 1.213l.09.057c.138.16.269.33.39.514 1.762 3.625-.541 8.301-4.136 9.81l-.475.21c-3.11 1.108-6.99.392-9.404-1.9-1.818-2.03-3.566-5.246-1.675-7.78a.39.39 0 0 1 .083-.013c.238 0 .713-.145 1.056-.322l.622-.322v1.642c0 1.286.11 1.87.503 2.697 1.238 2.612 4.107 4.015 6.673 3.265 1.036-.303 2.889-1.803 3.774-3.054.683-.966.75-1.183.75-2.54 0-1.245-.092-1.647-.58-2.481-.321-.548-.545-.996-.496-.996z"/>
  <path fill="#fff" d="M196.588 128.276c.34-.289 1.232-.918 1.667-1.404.873-.976 1.121-1.233.585-1.77-.28-.279-.598-.332-1.46-.243-1.408.145-2.051.577-2.6 1.742-.546 1.163-.4 1.43-.066 1.771.628.643 1.39.315 1.874-.096zm-59.31.274c.825-.359 2.765-2.02 2.917-2.498.164-.518-.208-1.192-.755-1.365-.239-.076-.9-.027-1.47.11-1.923.461-3.168 2.532-2.18 3.624.411.453.688.477 1.489.129z"/>
</svg>
