<?xml version="1.0" encoding="UTF-8" standalone="no"?>
<!-- Created with Inkscape (http://www.inkscape.org/) -->

<svg
   xmlns:dc="http://purl.org/dc/elements/1.1/"
   xmlns:cc="http://creativecommons.org/ns#"
   xmlns:rdf="http://www.w3.org/1999/02/22-rdf-syntax-ns#"
   xmlns:svg="http://www.w3.org/2000/svg"
   xmlns="http://www.w3.org/2000/svg"
   xmlns:sodipodi="http://sodipodi.sourceforge.net/DTD/sodipodi-0.dtd"
   xmlns:inkscape="http://www.inkscape.org/namespaces/inkscape"
   width="338.15475mm"
   height="415.26193mm"
   viewBox="0 0 338.15475 415.26193"
   version="1.1"
   id="svg8"
   inkscape:version="0.92.3 (2405546, 2018-03-11)"
   sodipodi:docname="Eyes04.svg">
  <defs
     id="defs2" />
  <sodipodi:namedview
     id="base"
     pagecolor="#ffffff"
     bordercolor="#666666"
     borderopacity="1.0"
     inkscape:pageopacity="0.0"
     inkscape:pageshadow="2"
     inkscape:zoom="0.49497475"
     inkscape:cx="487.59738"
     inkscape:cy="850.75658"
     inkscape:document-units="mm"
     inkscape:current-layer="layer1"
     showgrid="false"
     inkscape:window-width="1920"
     inkscape:window-height="1001"
     inkscape:window-x="-9"
     inkscape:window-y="-9"
     inkscape:window-maximized="1"
     inkscape:snap-global="true"
     showguides="true"
     fit-margin-top="0"
     fit-margin-left="0"
     fit-margin-right="0"
     fit-margin-bottom="0" />
  <metadata
     id="metadata5">
    <rdf:RDF>
      <cc:Work
         rdf:about="">
        <dc:format>image/svg+xml</dc:format>
        <dc:type
           rdf:resource="http://purl.org/dc/dcmitype/StillImage" />
        <dc:title />
      </cc:Work>
    </rdf:RDF>
  </metadata>
  <g
     inkscape:label="Ebene 1"
     inkscape:groupmode="layer"
     id="layer1"
     transform="translate(1355.1667,-269.28568)">
    <rect
       style="opacity:1;fill:none;fill-opacity:1;fill-rule:evenodd;stroke:none;stroke-width:0.99999988;stroke-linecap:round;stroke-linejoin:miter;stroke-miterlimit:4;stroke-dasharray:none;stroke-dashoffset:0;stroke-opacity:1;paint-order:stroke fill markers"
       id="rect1307"
       width="337.15475"
       height="414.26193"
       x="-1354.6667"
       y="269.78568"
       inkscape:label="Frame" />
    <path
       id="path1484-1"
       style="opacity:1;fill:#ffffff;fill-opacity:1;fill-rule:evenodd;stroke:none;stroke-width:1;stroke-linecap:round;stroke-linejoin:miter;stroke-miterlimit:4;stroke-dasharray:none;stroke-dashoffset:0;stroke-opacity:1;paint-order:stroke fill markers"
       d="m -1234.418,396.96699 c 0,0 0.974,4.53904 2.2927,6.55205 0.7363,1.12391 3.2456,3.01916 3.2456,3.01916 l 5.3234,0.80658 16.0245,-1.25567 1.1821,-1.72862 c 1.0934,-1.91871 1.1803,-4.70653 0.6991,-7.98496 l -5.1889,-1.96264 -10.9155,-0.51083 z m 96.9325,-0.60077 -2.7229,6.68648 c -0.4814,1.49497 -1.4746,2.39264 -2.8155,2.88473 l -5.3233,0.80658 -16.0245,-1.25566 -1.1821,-1.72863 c -0.4427,-2.49391 -0.9494,-4.93667 -0.6991,-7.98496 l 5.189,-1.96264 10.9154,-0.51083 z"
       inkscape:connector-curvature="0"
       inkscape:label="Füllung_Augen"
       sodipodi:nodetypes="cscccccccccccccccccc" />
    <path
       id="path1456"
       style="fill:#483737;stroke-width:1"
       d="m -1156.8075,406.51903 c -4.1616,-0.34514 -6.3938,-4.97748 -5.9509,-8.78885 -0.1242,-3.9584 3.4302,-5.51225 6.9132,-5.03669 3.7961,0.10823 7.8155,-0.19988 11.3851,1.27432 2.3101,1.95845 2.2605,5.81506 0.972,8.37665 -1.3473,3.76002 -5.8941,4.46319 -9.3834,4.21436 -1.3069,-0.0378 -2.6484,0.25394 -3.936,-0.0398 z m -64.964,1.06531 c -4.3539,-0.35344 -7.3449,-4.29434 -7.2003,-8.53849 -0.8355,-4.36494 3.7806,-5.82562 7.2168,-5.74603 3.2215,-0.14534 6.4922,-0.15446 9.6781,0.35723 2.6189,1.92393 2.5916,6.03773 1.5569,8.87121 -1.2306,3.12685 -4.6229,4.5215 -7.7186,4.95735 -1.1252,0.39231 -2.3746,0.23431 -3.5329,0.0987 z"
       inkscape:connector-curvature="0"
       inkscape:label="Pupille"
       sodipodi:nodetypes="cccccccccccccccc" />
    <path
       style="fill:#000000;stroke-width:3.77952766"
       d="m 763.25391,464.59961 c -3.69052,-0.003 -6.96548,0.26085 -11.65039,0.78906 -6.02608,0.67937 -13.33044,1.75581 -16.23047,2.39258 -2.90003,0.63666 -6.6555,1.43359 -8.34571,1.77148 -4.78979,0.95759 -10.89779,3.40929 -12.13672,4.8711 -1.30809,1.54405 -1.59882,5.895 -0.44531,6.64648 0.43616,0.28335 2.19501,-0.74795 3.91016,-2.29101 2.56032,-2.30326 6.76494,-3.99858 12.29492,-5.0293 -2.2789,2.98583 -3.58938,6.86851 -3.4375,11.70898 -1.34457,11.57066 3.83893,25.13571 14.08008,30.70508 -5.92038,-0.20937 -10.95149,-0.45477 -13.61719,-0.72265 l -6.56055,-0.66016 -1.50585,-3.89648 c -1.03371,-2.67512 -2.02612,-3.90714 -3.16602,-3.9336 -2.10822,-0.0495 -2.10747,0.82647 0,5.11328 3.42085,6.95645 2.1639,6.62407 31.98437,8.44532 34.1692,2.08675 39.9401,1.98555 47.35743,-0.82422 8.49902,-3.21956 9.74563,-4.77932 2.625,-3.28516 -3.5777,0.75156 -8.98346,1.02565 -14.80469,0.75391 -0.0543,-0.003 -0.12881,-0.003 -0.18359,-0.006 7.40502,-2.15791 13.83272,-6.46282 16.62304,-14.25 3.52139,-7.00067 4.59193,-16.55715 1.61524,-24.11328 1.90421,0.76034 3.98286,1.6464 6.35546,2.71484 4.02634,1.81315 7.82623,3.31288 8.44532,3.32422 1.52428,0.0359 1.40218,0.98588 -0.80469,6.30859 -2.4051,5.79979 -3.78789,12.02057 -3.21484,14.44727 1.05738,4.46556 3.47908,0.87805 9.21289,-13.64258 0.84661,-2.14382 2.2189,-4.86629 3.05078,-6.04883 2.86299,-4.07278 2.5194,-5.36946 -2.14453,-8.08789 -2.37128,-1.38236 -5.18783,-2.54411 -6.25782,-2.57812 -1.06998,-0.0364 -4.58547,-1.1436 -7.81054,-2.45899 -13.37953,-5.45578 -15.96941,-6.06825 -31.09961,-7.35351 -6.34262,-0.53775 -10.44815,-0.80727 -14.13867,-0.81055 z m -251.72852,1.55273 c -3.9386,-0.0136 -7.82584,0.10294 -11.58203,0.35938 -9.79918,0.66905 -13.5026,1.3615 -21.92188,4.09766 -28.46211,9.24895 -28.67241,9.3476 -27.8496,12.99023 0.2914,1.29022 1.26812,3.06783 2.16992,3.94922 0.90179,0.88135 1.61328,2.07814 1.61328,2.66015 -0.0147,0.58194 1.75217,4.92556 3.92578,9.65235 h 0.002 c 2.17361,4.72683 4.40081,8.61417 4.94922,8.64062 2.8097,0.12934 2.14246,-5.92571 -1.81055,-16.44531 -2.05115,-5.45775 -2.12539,-6.35729 -0.52929,-6.31836 0.65083,0.0153 5.04096,-1.66594 9.75781,-3.73633 2.96761,-1.30265 5.8807,-2.41793 8.59766,-3.33984 -1.96894,3.07423 -2.81301,6.95071 -1.89063,11.76953 -0.38176,11.20519 5.02368,21.8455 13.92383,27.70117 -8.39079,-0.0852 -11.44178,-0.33522 -13.95703,-0.8789 -5.93121,-1.2821 -3.38198,0.76822 4.36719,3.51367 6.00755,2.12923 7.30727,2.26762 19.97851,2.14062 1.20234,-0.012 2.63857,-0.0505 4.01953,-0.082 3.96868,0.45826 8.14595,0.83188 11.97266,-0.42187 3.64334,-0.16914 7.15,-0.35828 9.82422,-0.56055 6.74343,-0.51016 16.19811,-1.10053 21.01172,-1.31445 4.81285,-0.21377 9.4098,-0.71475 10.21484,-1.11133 1.63162,-0.80349 6.17522,-8.05363 6.2168,-9.92578 0.0155,-0.66032 -0.71893,-1.22317 -1.63282,-1.23828 -1.14633,-0.0269 -2.1903,1.16541 -3.36914,3.85156 -1.38746,3.16146 -2.20214,3.95998 -4.33984,4.25781 -2.89365,0.40275 -12.09529,0.88405 -22.00977,1.25 5.9421,-3.02529 10.9638,-7.53057 13.51758,-14.01953 3.20572,-8.77871 3.84847,-20.80583 -1.47461,-28.86328 7.17532,0.62114 12.88002,2.61493 15.88672,5.62695 2.33499,2.33843 2.76157,2.47998 3.96875,1.32813 1.20681,-1.15189 1.21204,-1.60359 0.0449,-4.20508 -1.05184,-2.34765 -2.21215,-3.22253 -5.96484,-4.49805 -12.52975,-4.25904 -30.56359,-6.77126 -47.63086,-6.83008 z m 232.30859,6.24024 -0.65039,2.06836 c -1.51181,4.8082 -1.86989,11.34201 -0.84375,15.36914 1.49632,5.87542 7.26936,11.74179 13.6836,13.90625 5.94293,2.00549 7.09473,2.04693 12.94922,0.45703 10.27237,-2.78948 16.7743,-12.45198 16.01953,-23.80859 l -0.39258,-5.89454 4.14258,0.60938 c 2.91741,0.42973 5.67794,1.09582 8.88086,2.18359 2.44891,4.46063 2.87842,10.29156 0.72851,16.01563 -0.3496,12.6127 -9.4638,21.44125 -21.98047,21.91211 -2.18389,0.74978 -4.43005,1.23816 -6.70312,1.52148 -0.6885,-0.0102 -1.66414,-0.0408 -2.22461,-0.043 -4.41836,-0.0242 -8.86651,-0.0866 -13.19336,-0.16992 -9.99708,-1.52183 -19.74218,-6.86133 -23.16406,-16.69336 -2.92128,-8.56261 -2.70028,-20.38967 3.71679,-26.70117 0.96838,-0.11077 1.95727,-0.21114 2.98829,-0.28711 z m -205.93359,2.09765 c 0.68701,-0.009 1.72829,0.0122 2.74023,0.0312 1.12981,1.41726 2.09424,3.09696 3.01172,4.79493 6.99296,14.85046 -2.68848,32.75064 -17.31445,38.52343 -5.41185,0.15973 -10.67863,0.28412 -14.90234,0.30078 -5.85415,0.023 -10.39966,0.0291 -14.33594,0.0215 -6.35519,-2.3169 -11.66532,-6.64319 -14.2168,-13.81836 -4.01711,-8.02981 -4.91451,-20.79445 1.625,-27.36719 2.96327,-0.73654 5.36896,-1.07236 6.74414,-0.84375 1.81418,0.30168 1.90529,0.68258 1.49219,6.25391 -0.36926,4.98625 -0.0962,6.67729 1.70703,10.59375 5.03358,10.93179 16.78491,15.76997 28.45117,11.71484 4.58041,-1.59197 10.04526,-6.0526 12.12891,-9.90039 2.40567,-4.44476 2.46314,-12.76809 0.12891,-18.88476 -0.39969,-1.04845 -0.14638,-1.38219 2.74023,-1.41993 z"
       transform="matrix(0.26458333,0,0,0.26458333,-1355.1667,269.28568)"
       id="path1465"
       inkscape:connector-curvature="0"
       inkscape:label="Kontur_Augen" />
    <path
       id="path1435"
       style="fill:#ffffff;stroke-width:1"
       d="m -1153.9626,398.21513 c 1.4614,-0.65183 2.089,-2.36175 1.263,-3.44034 -0.3652,-0.47677 -1.8986,-0.64287 -2.775,-0.30061 -1.6024,0.62567 -2.0892,2.965 -0.774,3.71979 0.8015,0.45998 1.292,0.46451 2.286,0.0212 z m -64.605,-0.46888 c 1.8407,-1.81757 1.8007,-3.25376 -0.091,-3.29826 -1.4128,-0.0331 -2.55,0.45379 -3.0063,1.28744 -0.6667,1.2183 -0.4581,2.16486 0.6131,2.78401 0.838,0.48428 1.3835,0.3146 2.485,-0.77319 z"
       inkscape:connector-curvature="0"
       inkscape:label="Glanzlicht"
       sodipodi:nodetypes="cccccccccccc" />
  </g>
</svg>
