<?xml version="1.0" encoding="UTF-8" standalone="no"?>
<!-- Created with Inkscape (http://www.inkscape.org/) -->

<svg
   xmlns:dc="http://purl.org/dc/elements/1.1/"
   xmlns:cc="http://creativecommons.org/ns#"
   xmlns:rdf="http://www.w3.org/1999/02/22-rdf-syntax-ns#"
   xmlns:svg="http://www.w3.org/2000/svg"
   xmlns="http://www.w3.org/2000/svg"
   xmlns:sodipodi="http://sodipodi.sourceforge.net/DTD/sodipodi-0.dtd"
   xmlns:inkscape="http://www.inkscape.org/namespaces/inkscape"
   version="1.1"
   id="svg2"
   width="1274.2856"
   height="1565.7144"
   viewBox="0 0 1274.2856 1565.7144"
   sodipodi:docname="Eyes03.svg"
   inkscape:version="0.92.3 (2405546, 2018-03-11)"
   inkscape:label="Ebene">
  <metadata
     id="metadata8">
    <rdf:RDF>
      <cc:Work
         rdf:about="">
        <dc:format>image/svg+xml</dc:format>
        <dc:type
           rdf:resource="http://purl.org/dc/dcmitype/StillImage" />
        <dc:title></dc:title>
      </cc:Work>
    </rdf:RDF>
  </metadata>
  <defs
     id="defs6" />
  <sodipodi:namedview
     pagecolor="#ffffff"
     bordercolor="#666666"
     borderopacity="1"
     objecttolerance="10"
     gridtolerance="10"
     guidetolerance="10"
     inkscape:pageopacity="0"
     inkscape:pageshadow="2"
     inkscape:window-width="1920"
     inkscape:window-height="1001"
     id="namedview4"
     showgrid="false"
     inkscape:zoom="0.52149125"
     inkscape:cx="301.03078"
     inkscape:cy="891.03398"
     inkscape:window-x="-9"
     inkscape:window-y="-9"
     inkscape:window-maximized="1"
     inkscape:current-layer="svg2"
     fit-margin-top="0"
     fit-margin-left="0"
     fit-margin-right="0"
     fit-margin-bottom="0" />
  <rect
     style="display:inline;opacity:1;fill:none;fill-opacity:1;fill-rule:evenodd;stroke:none;stroke-width:3.77952719;stroke-linecap:round;stroke-linejoin:miter;stroke-miterlimit:4;stroke-dasharray:none;stroke-dashoffset:0;stroke-opacity:1;paint-order:stroke fill markers"
     id="rect1307"
     width="1274.2856"
     height="1565.7144"
     x="0"
     y="0"
     inkscape:label="Frame" />
  <path
     style="opacity:1;fill:#ffffff;fill-opacity:1;fill-rule:evenodd;stroke:none;stroke-width:3.77952766;stroke-linecap:round;stroke-linejoin:miter;stroke-miterlimit:4;stroke-dasharray:none;stroke-dashoffset:0;stroke-opacity:1;paint-order:stroke fill markers"
     d="m 766.2186,471.20631 -20.5857,-5.12987 c -9.6086,1.89452 -16.6958,4.50569 -26.8226,9.20434 l -10.8648,17.06943 -6.3233,13.22051 c -3.9185,10.81174 -1.4271,16.84977 3.6971,16.70751 l 16.2795,-5.73299 41.4188,-1.40594 25.8578,3.70573 c 0,0 5.122,-2.64991 7.243,-4.5572 2.5378,-2.28201 6.339,-8.04034 6.339,-8.04034 l -2.0712,-12.62821 -15.5333,-11.48632 z m -226.9815,-2.81147 -52.1235,5.71264 -23.3104,31.17955 c -2.6198,10.43512 8.0548,10.57989 12.3356,15.33212 4.8795,-1.5088 10.8378,-6.74309 20.8475,-5.79129 l 39.9166,-0.85696 28.6959,5.76644 c 6.7901,0.96469 9.6269,-2.74044 7.2345,-11.46423 l -8.4713,-16.9285 -7.9409,-10.7792 z"
     id="path1580"
     inkscape:connector-curvature="0"
     inkscape:label="Füllung_Augen"
     sodipodi:nodetypes="cccccccccsccccccccccccccc" />
  <path
     id="path1561"
     style="fill:#ffffff;stroke-width:3.77952766"
     d="m 518.4259,469.18192 c 2.4759,1.41079 1.0068,3.45086 -3.3759,7.83561 -3.967,3.96895 -6.0998,5.06116 -8.6324,4.41887 -4.122,-1.045 -4.7936,-3.09381 -2.5236,-7.25291 4.0773,-3.14865 9.4042,-5.34596 14.5319,-5.00157 z m 226.5195,-2.38836 c 1.4718,0.0382 2.5365,0.39976 2.8082,1.18976 0.5908,1.71799 -0.2608,4.32083 -1.4052,4.28054 -0.4123,-0.0151 -2.5705,1.38849 -4.7977,3.11989 -3.8143,2.96504 -5.8711,3.45351 -9.7183,2.30192 -1.8252,-0.54625 -1.9858,-1.98304 -0.5923,-5.29296 1.2269,-2.91375 9.2916,-5.71359 13.7053,-5.59915 z"
     inkscape:connector-curvature="0"
     inkscape:label="Glanzlicht"
     sodipodi:nodetypes="cccccccccccc" />
  <path
     id="path964-1"
     style="opacity:1;fill:#6cabbf;fill-opacity:1;fill-rule:evenodd;stroke:none;stroke-width:3.77952766;stroke-linecap:round;stroke-linejoin:miter;stroke-miterlimit:4;stroke-dasharray:none;stroke-dashoffset:0;stroke-opacity:1;paint-order:stroke fill markers"
     d="m 712.6765,497.70404 c 0,4.9217 4.049,7.30556 7.4106,11.16449 6.005,6.89336 16.3272,5.36094 28.2928,5.36094 10.7768,0 24.194,1.20881 30.382,-4.56378 4.5288,-4.22479 4.3669,-12.09866 4.3669,-17.89385 0,-13.71351 -15.1302,-24.83051 -33.7942,-24.83051 -8.7903,0 -20.6153,2.97443 -26.6264,7.0162 -6.7519,4.53992 -10.0317,16.49174 -10.0317,23.74651 z M 553.0614,497.394 c 0,4.9217 -3.5944,7.30556 -6.5786,11.16449 -5.3308,6.89336 -14.4941,5.36094 -25.1163,5.36094 -9.5668,0 -21.4776,1.20881 -26.9708,-4.56378 -4.0204,-4.22479 -3.8766,-12.09866 -3.8766,-17.89385 0,-13.71351 13.4314,-24.83051 30,-24.83051 7.8034,0 18.3007,2.97443 23.6369,7.0162 5.9939,4.53992 8.9054,16.49174 8.9054,23.74651 z"
     inkscape:label="Pupille"
     inkscape:connector-curvature="0" />
  <path
     id="path817"
     style="fill:#000000"
     d="m 728.6049,529.7383 c -1.375,-0.19478 -3.1351,-0.87353 -3.9114,-1.50833 -1.1243,-0.91941 -0.4124,-1.28891 3.5,-1.81657 8.0258,-1.08243 25.0672,-0.92147 28.0963,0.26537 l 2.8151,1.10299 -2.5,1.05588 c -2.3729,1.00222 -22.6735,1.65521 -28,0.90066 z m -213.5,-1.57184 c -2.1376,-0.96267 -2.5688,-1.50555 -1.5,-1.88846 2.7093,-0.97064 19.3893,-1.55495 27.8446,-0.97541 7.6035,0.52115 8.1565,0.70069 6.687,2.17067 -2.1899,2.19064 -28.4815,2.7424 -33.0316,0.6932 z m 53.633,-5.66511 c -2.9377,-1.17616 -14.4944,-3.70104 -23.133,-5.05403 -3.575,-0.55993 -15.05,-1.00919 -25.5,-0.99836 -15.2901,0.0158 -20.6597,0.40356 -27.5,1.98574 -4.675,1.08134 -10.75,2.24402 -13.5,2.58374 l -5,0.61766 2.5364,-2.28015 c 2.1134,-1.89985 6.7855,-3.79252 15.8634,-6.42624 1.0855,-0.31493 0.9322,-0.90546 -0.6826,-2.63002 -1.1454,-1.22314 -3.0271,-4.43216 -4.1817,-7.13115 -1.6992,-3.972 -1.9732,-6.02078 -1.4382,-10.75 0.3636,-3.21351 0.2654,-5.84052 -0.2181,-5.83779 -3.673,0.0207 -21.5662,19.28145 -25.4743,27.4212 -2.186,4.55295 -3.9216,4.47454 -2.7449,-0.12401 1.2964,-5.06617 2.7424,-11.60125 2.7965,-12.63814 0.024,-0.45979 -1.644,-0.73439 -3.7065,-0.61022 -8.7759,0.52835 -9.7632,-1.0861 -2.5,-4.08813 2.6125,-1.0798 5.425,-2.40979 6.25,-2.95554 0.825,-0.54576 3.525,-2.07265 6,-3.39311 5.4608,-2.91344 9.1385,-6.68639 7.1829,-7.36882 -2.4919,-0.86954 -6.5025,-4.92198 -5.8754,-5.93666 0.3453,-0.55882 3.8347,-1.28489 7.7541,-1.61348 4.7485,-0.39809 9.1803,-1.55325 13.2823,-3.46207 3.3859,-1.57555 8.3155,-3.46279 10.9547,-4.19386 3.5482,-0.9829 5.1834,-2.07349 6.2756,-4.18568 1.7209,-3.32772 1.4638,-3.28581 7.9258,-1.29226 2.75,0.84839 9.5273,1.91567 15.0608,2.37174 8.9713,0.73941 11.0287,1.30212 19,5.19664 11.1061,5.42613 13.424,8.31267 19.8314,24.69646 2.6111,6.67659 5.166,12.39795 5.6776,12.71413 1.1331,0.70031 1.2339,2.45685 0.141,2.45685 -0.434,0 -2.514,-3.2625 -4.6221,-7.25 -4.1924,-7.93006 -13.4991,-21.61045 -16.2202,-23.84274 -1.5573,-1.27763 -1.6508,-1.17698 -1.0151,1.09274 3.1437,11.2234 3.2794,22.01603 0.3289,26.15788 -0.9177,1.28817 -2.3851,3.32997 -3.261,4.53734 -1.5744,2.17025 -1.5091,2.22021 5.7431,4.39263 4.0346,1.20859 9.017,3.03929 11.0721,4.06825 3.682,1.84347 3.766,1.84139 5.75,-0.14264 2.7333,-2.73326 7.0135,-2.71033 7.0135,0.0376 0,1.39519 -1.1089,2.51434 -3.4679,3.5 -1.9073,0.79693 -3.5948,1.42045 -3.75,1.38558 -0.1551,-0.0349 -1.3472,-0.48983 -2.6491,-1.01105 z m -46.133,-12.35608 c 5.775,-0.0382 12.6355,0.29529 15.2455,0.74111 4.6265,0.79027 4.8333,0.71505 8.248,-3 4.954,-5.38973 5.9405,-8.9971 4.5868,-16.7711 -1.7424,-10.00537 -3.3849,-13.04408 -8.0622,-14.91556 -5.5494,-2.22046 -6.1522,-2.10685 -4.9933,0.94117 1.8431,4.84774 1.1868,13.82818 -1.2748,17.44507 -4.1054,6.03201 -6.7137,7.25522 -15.7339,7.37858 0,0 -5.6369,-0.0201 -8.1352,-1.07519 -1.9543,-0.82539 -4.3749,-3.43596 -4.3749,-3.43596 -3.5633,-3.76495 -4.6118,-5.76935 -5.6519,-10.80533 -1.3851,-6.70565 -1.4037,-6.71481 -8.31,-4.08904 -2.2365,0.85032 -2.5701,1.60501 -2.7595,6.24202 -0.3679,9.0113 0.017,12.48911 1.767,15.94101 3.3141,6.5392 3.9931,6.89147 11.8472,6.14637 3.9057,-0.37052 11.8262,-0.70494 17.6012,-0.74315 z m 174.75,12.39618 c -0.9625,-0.58577 -1.75,-1.94268 -1.75,-3.01535 0,-2.71074 4.3307,-2.58509 6.9263,0.20096 1.6934,1.81769 2.2497,1.94752 3.5876,0.83722 0.8708,-0.72272 4.9946,-2.51813 9.164,-3.98979 l 7.5807,-2.67574 -3.5588,-2.19945 c -3.5511,-2.19475 -8.6998,-10.63448 -8.6998,-14.26084 0,-4.26401 -2.2474,-2.32622 -6.032,5.20104 -2.2519,4.47879 -4.3241,7.9135 -4.6049,7.6327 -0.2808,-0.2808 0.1445,-1.78987 0.945,-3.35348 0.8006,-1.56361 2.9174,-7.11793 4.7039,-12.34293 4.889,-14.29833 8.4177,-19.18409 16.9645,-23.48817 7.4676,-3.76059 19.0452,-6.95712 21.9077,-6.0486 0.945,0.29996 5.0702,-0.34597 9.167,-1.43539 9.4641,-2.51666 9.7907,-2.50588 10.5067,0.34669 0.5512,2.19644 4.0396,4.62547 6.6427,4.62547 0.6085,0 3.6248,1.19354 6.7029,2.65231 6.8343,3.23892 14.3567,5.31997 19.2875,5.33582 5.1026,0.0164 5.4084,1.27844 1.204,4.96993 -3.5361,3.10468 -3.5664,3.19511 -1.7468,5.20715 1.0185,1.12619 3.6518,2.95216 5.8518,4.05771 2.2,1.10556 4.675,2.57109 5.5,3.25673 0.825,0.68565 3.6375,2.04435 6.25,3.01935 2.7697,1.03367 4.75,2.39851 4.75,3.27377 0,1.23504 -1.1575,1.40814 -6.5317,0.97675 -5.7314,-0.46006 -6.4682,-0.32369 -6.0143,1.11309 0.2846,0.90057 0.9185,3.66239 1.4087,6.13739 0.4901,2.475 1.2318,5.4 1.6481,6.5 1.3599,3.59369 -5.2822,-4.76469 -8.4702,-10.65885 -1.6834,-3.11237 -5.6437,-8.02261 -8.8007,-10.91165 l -5.7399,-5.2528 -0.5544,7.41165 c -0.5513,7.36942 -1.5307,10.20478 -5.1234,14.83297 -2.2461,2.89347 -1.8559,3.33537 4.8712,5.51733 4.8045,1.55834 10.9019,5.29941 10.0407,6.16053 -0.4684,0.46844 -16.4691,-2.31736 -17.708,-3.08307 -0.5051,-0.31217 -8.0067,-1.24676 -16.6701,-2.07687 -17.315,-1.65908 -25.3749,-1.00361 -45.5772,3.70657 -11.7644,2.74289 -15.8367,3.15395 -18.0288,1.81985 z m 80.7374,-16.9407 c 3.4822,-6.9147 4.3492,-12.2997 2.8696,-17.82367 -0.5166,-1.92869 -4.3739,-4.61137 -11.4864,-7.98869 -0.3461,-0.16437 -0.9525,2.30805 -1.3475,5.49427 -1.1634,9.38471 -2.7094,12.00652 -8.7337,14.81109 -9.0364,4.20692 -20.5291,2.95371 -26.3291,-2.87104 -4.2836,-4.30184 -5.1803,-10.74612 -2.4569,-17.65546 1.832,-4.64794 1.848,-4.99079 0.232,-4.98169 -3.7294,0.021 -11.9502,4.79292 -13.9935,8.12282 -2.8578,4.65724 -3.7722,11.90171 -2.2076,17.49001 2.3937,8.54931 10.2387,11.30896 30.9657,10.89277 7.425,-0.1491 15.75,0.0638 18.5,0.47316 10.5165,1.56536 10.1083,1.73938 13.9874,-5.96357 z m -77.9035,-22.52496 c 0.8299,-5.53207 4.9389,-17.84214 7.0116,-21.00542 2.5781,-3.93466 10.5243,-7.45561 20.2465,-8.97116 21.5597,-3.36084 42.1453,-2.73543 52.1897,1.58556 8.9528,3.85139 20.785,14.40766 18.5992,16.5935 -0.7719,0.77186 -7.5185,-3.50782 -12.2121,-7.74667 -6.0263,-5.4425 -13.216,-7.74658 -26.5837,-8.51935 -16.5087,-0.95434 -36.4938,2.63504 -48.4906,8.70903 -2.7142,1.3742 -7.2051,9.52903 -9.5572,17.35451 -1.3387,4.45398 -1.6488,4.96932 -1.2034,2 z m -126.9844,1.39313 c -0.2462,-0.76622 -0.9866,-3.19313 -1.6454,-5.39313 -1.4779,-4.93531 -4.7375,-11.25515 -7.3563,-14.26271 -3.8869,-4.46377 -31.1605,-11.26008 -45.024,-11.21952 -10.6706,0.0312 -22.9241,1.75765 -28.01,3.94643 -2.7149,1.1684 -6.8327,3.87247 -9.1506,6.00904 -3.9544,3.64507 -12.4132,8.75406 -12.4132,7.49742 0,-4.30341 10.3938,-13.14191 20.1088,-17.09979 10.5143,-4.28351 34.6495,-5.30686 50.8912,-2.15784 3.025,0.58651 7.1227,1.16525 9.1059,1.28609 4.8816,0.29745 13.8617,5.2904 16.4433,9.14261 2.2883,3.41445 8.8261,22.31633 8.0033,23.13907 -0.278,0.278 -0.7068,-0.12145 -0.953,-0.88767 z"
     inkscape:label="Kontur_Augen"
     inkscape:connector-curvature="0"
     sodipodi:nodetypes="ccssccccsscccccscccsccccccccscscccccccscccsccccccccscccccccccccssccccccccsccsccscsccccccscsccccssscccscccscccssccscccccscccccccssccssccssccccssccccs" />
  <path
     id="path950"
     style="fill:#ffffff"
     d="m 519.9068,484.40517 c 2.309,-1.19384 4.8731,-2.47729 5.6981,-2.85212 2.2764,-1.03425 2.33,-4.36864 0.1027,-6.38434 -2.9982,-2.71328 -11.4157,-1.39607 -12.9771,2.03069 -1.4957,3.28286 -1.4219,4.50836 0.4311,7.15388 1.8972,2.70856 1.6113,2.70636 6.7452,0.0519 z m 229.27,0.5756 c 2.9824,-1.74778 4.4281,-3.27289 4.4281,-4.67126 0,-5.83729 -8.888,-7.93658 -13.61,-3.2146 -3.2125,3.21246 -2.934,7.40901 0.61,9.19297 3.3567,1.68965 3.4941,1.6687 8.5719,-1.30711 z"
     inkscape:label="Glanzlicht"
     inkscape:connector-curvature="0" />
</svg>
