<svg xmlns="http://www.w3.org/2000/svg" width="1278.065" height="1569.494" viewBox="0 0 338.155 415.262">
  <path fill="none" d="M.5.5h337.155v414.262H.5z" paint-order="stroke fill markers"/>
  <path fill="#fff" fill-rule="evenodd" d="m202.344 124.84-6.025-1.283-4.617.871-4.73 2.76-5.156 4.273s.257 1.352.531 1.976c.168.381.671 1.054.671 1.054 1.311.609 2.871 1.005 3.615 1.622l4.663.781 9.574.43 4.934-1.293 7.327-1.82c1.54-1.288.777-2.086.777-2.086l-3.642-4.251-2.197-1.285zm-58.927-.736-15.28 3.074-3.55 5.662.798 1.124c1.03.963 3.872 1.554 6.233 1.778l10.627 1.792 11.05-2.135c1.606-.888 1.54-.681 2.501-1.848.424-.515.225-1.846.34-2.444l-2.335-2.876-7.295-3.742z" paint-order="stroke fill markers"/>
  <path class="eyes" fill="#a7ac93" d="M196.782 124.026c-2.21.019-4.728-.475-6.246 1.148-1.962 2.507-1.639 7.585.77 9.706 1.443 2.016 3.991 2.967 6.407 2.43.305-.053 2.33.097 2.628.015 4.196-1.092 6.596-6.929 4.775-11.012-1.34-2.3-5.513-2.022-7.897-2.284-.144-.004-.29-.005-.437-.004zm-56.35.74c-2.3.125-5.91-.508-7.157 1.672-1.719 2.262-.015 7.111 1.864 8.675 2.152 2.042 6.04 1.956 8.81.97l1.372.296c3.204-1.345 4.885-6.741 3.042-9.72-1.638-2.474-5.286-1.88-7.93-1.894z"/>
  <path d="M140.904 122.371a8.84 8.84 0 0 0-.43.025c-1.813.067-4.041.117-5.439.523-.488.141-.11.407-.628.62-.53.181-1.472.338-1.921.482-1.114.36-2.15 1.057-2.15 1.057.934-.001-2.635 1.256-3.607 2.241-.204.205.26-.062-.03.358-.581.842-2.486 2.972-2.628 3.218-.523.905.238.16-.222.689-.436.501-1.442 1.278-1.433 1.537.01.284 1.188.508 2.486-.014 1.158-.466 1.016-.68 1.949-1.899.476-.766.979-1.257 1.505-1.889 1.053-1.265 2.81-1.945 3.937-2.12-.087.98-.166 3.288-.064 4.174.626 2.625.608 2.56 1.994 4.164-1.104.002-3.67-1.171-5.385-1.676-1.546-.456-2.29-.246-2.602-.289-.636-.07-2.963.433-2.709.878.194.34.957-.17 2.579.293 2.794.798 9.183 2.818 13.293 2.925 2.143.056 4.127.132 4.41.17.745.098 4.828-.362 5.918-.597.511-.11 2.223-.603 3.525-1.264 1.3-.661 2.502-1.206 2.67-1.21a.304.304 0 0 0 .296-.316c-.01-.203-.257-.298-.579-.29-.322.01-.713.121-.997.332-.474.351-3.205 1.005-4.337 1.039-.394.012-1.129.154-1.631.317-.356.115-.276.218-2.354.297 3.17-2.467 3.5-5.357 3.303-7.904a6.845 6.845 0 0 0-.594-1.467c2.09 1.259 4.48 2.415 5.197 3.078 2.224 2.055 1.892 2.937 2.188 2.929.523-.014.695-.108.195-1.32-.411-.751-.766-1.25-1.348-2.108-1.305-1.919-4.112-3.919-7.25-5.523-2.275-1.067-4.961-1.506-7.107-1.46zm56.616 0c-2.145-.046-4.83.393-7.106 1.46-3.138 1.604-5.946 3.604-7.25 5.523-.583.857-.937 1.357-1.348 2.107-.5 1.213-.328 1.307.195 1.32.296.009-.036-.873 2.188-2.928.717-.663 3.106-1.819 5.197-3.078a6.833 6.833 0 0 0-.595 1.467c-.196 2.547.133 5.437 3.304 7.904-2.079-.08-1.999-.182-2.354-.297-.503-.163-1.237-.305-1.631-.317-1.132-.034-3.863-.688-4.337-1.039a1.847 1.847 0 0 0-.997-.331c-.322-.01-.57.086-.58.29 0 .168.13.31.297.314.167.004 1.37.55 2.67 1.21 1.301.662 3.013 1.155 3.525 1.265 1.09.235 5.173.695 5.918.597.282-.038 2.266-.114 4.41-.17 4.11-.107 10.498-2.127 13.292-2.925 1.623-.463 2.386.047 2.58-.293.253-.445-2.073-.949-2.709-.878-.312.043-1.056-.167-2.602.289-1.716.505-4.281 1.678-5.386 1.676 1.387-1.605 1.368-1.539 1.995-4.164.101-.886.023-3.194-.065-4.174 1.127.175 2.884.855 3.937 2.12.526.632 1.03 1.123 1.505 1.889.933 1.22.79 1.433 1.949 1.9 1.298.521 2.476.297 2.485.013.01-.259-.997-1.036-1.433-1.537-.46-.529.301.216-.221-.689-.143-.246-2.046-2.375-2.628-3.218-.29-.42.174-.153-.03-.358-.972-.985-4.541-2.242-3.606-2.241 0 0-1.036-.698-2.15-1.057-.45-.144-1.392-.3-1.921-.481-.519-.214-.141-.48-.629-.62-1.397-.407-3.626-.457-5.44-.524a9.685 9.685 0 0 0-.428-.025zm-51.899 3.19c.82.104 1.772.264 2.297.557l.089.053c.138.151.269.313.392.488 1.8 3.471-.221 8.047-2.982 9.282-2.585-.086-6.07-.009-8.185.126-.666.05-1.513-.464-2.057-.954-.68-.72-1.285-1.674-1.732-2.658-.746-1.642-.714-3.596.136-5.315 0 0 .22-.137.615-.331l.688-.1.042 1.593c.108 3.606 1.83 5.598 6.228 5.598 2.39 0 3.43-1.023 4.256-2.259.637-.954.856-2.426.872-3.283.015-.845-.164-2-.659-2.796zm47.182 0c-.494.798-.674 1.952-.66 2.797.017.857.236 2.33.874 3.283.826 1.236 1.866 2.259 4.255 2.259 4.398 0 6.12-1.992 6.229-5.598l.042-1.592.687.099c.396.194.614.331.614.331.851 1.719.883 3.673.137 5.315-.447.984-1.051 1.937-1.731 2.658-.544.49-1.392 1.004-2.059.954-2.113-.135-5.6-.212-8.184-.126-2.76-1.235-4.782-5.81-2.981-9.282.123-.175.254-.337.391-.488l.088-.053c.526-.293 1.478-.453 2.298-.556z"/>
  <path fill="#fff" d="M195.198 128.475c.302-.257 1.097-.817 1.485-1.251.778-.87 1-1.099.521-1.577-.248-.249-.533-.296-1.3-.217-1.255.13-1.829.514-2.317 1.553-.488 1.037-.358 1.274-.06 1.578.56.573 1.105-.057 1.67-.086zm-56.033.245c.735-.32 2.464-1.801 2.599-2.227.147-.461-.185-1.062-.672-1.217-.213-.067-.803-.023-1.311.1-1.714.41-2.823 2.255-1.942 3.229.366.404.613.425 1.326.115z"/>
</svg>
