<svg xmlns="http://www.w3.org/2000/svg" width="1278.065" height="1569.494" viewBox="0 0 338.155 415.262">
  <path fill="none" d="M.5.5h337.155v414.262H.5z" paint-order="stroke fill markers"/>
  <path class="hair" fill="#3b2516" d="M106.529 146.216c.144 4.893-.994 9.596-.19 14.555 2.872 4.726-.247 10.533 3.27 15.062 1.53 5.318-1.412 12.078 3.69 15.564 1.944 3.297 4.298 9.498 7.322 12.032 3.873 3.246 8.877 5.267 12.137 9.009 3.392 3.428 9.714 4.75 12.789 7.693 4.1 2.574 9.832 1.988 14.137 3.685 1.841.418 3.553.59 5.421.501 5.5-.238 9.867-.146 14.852-2.682 4.943-1.093 10.213-2.96 14.918-4.65 3.708-3.732 7.959-5.572 12.107-8.71 4.744-1.934 8.444-6.095 9.792-10.838 3.782-1.678 7.645-5.685 8.632-10.155 2.178-4.54 3.538-8.328 4.275-13.315 3.104-5.372.435-12.945 1.713-18.623-.336-2.118 2.808-10.336-.97-8.219-3.206 4.027-.498 15.97-4.888 19.464-2.978 3.54-6.527 6.907-8.229 11.223-1.551 3.207-4.092 3.432-7.666 4.366 0 0-2.583 1.687-4.21 3.157-.955.86-2.533 4.464-2.777 3.872-.668-1.625-2.262.128-3.761 1.62-1.63 1.624-3.77 2.937-4.548 4.915-1.275 4.198-4.973 4.974-8.76 6.705-3.57 2.88-7.665.862-10.728 3.91-4.675-1.441-9.485-.644-14.538-.323-1.658.226-3.753.52-5.029-.87-4.48-1.009-9.113-1.895-11.82-6.436-5.141 1.492-12.64-9.236-15.619-11.742-7.386-6.215-8.232-6.929-13.127-11.36-2.531-4.742-4.65-12.341-5.442-17.669-.708-3.647.727-9.702-2.753-11.74zm69.004 17.71c-3.54.015-5.169 4.591-7.339 2.107-5.114-.624-9.967-.12-14.751 1.264-3.136 2.069-.544-1.833-3.576-.982-5.03.652-8.798 2.552-13.561 3.835-5.653.186-5.22 3.727-5.497 7.102l4.326 4.473 1.107-.237 3.314-3.73c.339-.69 1.16-1.022 2.053-1.455 4.48-2.097 10.154-.826 15.196-2.015 3.38-1.545 5.812.891 9.404-.04 2.97-1.538 5.941 1.018 9.06-.896 4.818.036 8.766 1.396 13.371 2.082 4.427-.757 6.628.026 8.116 1.393 1.195 1.243 3.113 4.383 3.585 3.729l1.627-.948 2.332-4.207c-.633-3.092-2.404-4.82-3.613-7.772-3.815-1.454-4.415-.501-8.699-1.345-1.093.234-2.304.894-3.186 1.126-.236.062-5.198-1.018-8.058-1.448-.862-.765-4.22-2.041-5.211-2.037zm5.684 23.15c-1.519.012-4.995 1.878-5.458 2.048l-12.55.794-11.825-2.657a.5.5 0 0 0-.55.72l1.802 3.41a.5.5 0 0 0 .143.165c2.16 1.072 4.344 5.088 6.61 5.262 4.04.31 5.863-.132 8.022-.155.96-.01 2.362.76 3.411.523 1.328-.3 3.671-2.037 5.34-2.86.89-.439 1.493.219 1.86-.364l3.878-6.148c.113-.54-.176-.742-.683-.738z"/>
  <path d="M106.529 146.216c.144 4.893-1.595 9.746-.79 14.705 2.87 4.727-.844 12.216 2.672 16.745 1.53 5.318 2.15 11.076 5.362 17.066 1.945 3.297 2.07 6.684 5.757 8.09 2.916 4.127 9.968 6.933 13.228 10.674 3.392 3.428 9.714 3.693 12.789 6.635 4.1 2.574 9.156 2.89 13.46 4.587 1.842.418 3.78.214 5.648.125 5.5-.239 10.993-.109 15.978-2.645 4.943-1.093 9.575-2.885 14.28-4.575 3.708-3.731 8.597-5.646 12.745-8.786 4.744-1.933 7.768-6.657 9.116-11.4 3.782-1.678 7.645-5.685 8.632-10.155 2.178-4.54 4.453-9.288 5.19-14.275 2.405-5.332.895-11.732.798-17.663-.336-2.118 2.808-10.336-.97-8.22-3.206 4.027.023 14.81-4.368 18.304-2.977 3.54-7.047 8.068-8.749 12.384-1.804 3.326-2.975 1.631-6.612 3.6-1.927 1.043-5.463 3.052-6.455 4.135-.55.601-1.223 3.351-1.6 2.862-.687-.893-1.906-.03-3.428 1.4-1.678 1.575-3.182 2.423-5.008 5.933-2.174 4.179-6.246 4.905-8.618 6.705-3.572 2.88-7.666.862-10.729 3.91-4.675-1.441-9.485-.644-14.538-.323-1.658.226-3.753.52-5.029-.87-4.48-1.009-9.113-1.895-11.82-6.436-4.322-.648-7.515-3.262-9.81-6.519-2.565-3.64-2.77-2.456-4.942-5.243-1.37-1.544-4.809-4.583-7.41-6.965-3.122-2.014-5.558-4.135-7.239-6.131-2.531-4.742-3.695-10.998-4.487-16.326-.708-3.647.427-9.289-3.053-11.328zm124.04 2.27c.321.002-.32 3.6.269 4.038-.81 6.06.643 12.104.229 16.514-.174 1.842-1.032 3.536-1.943 4.608-1.614 5.228-3.817 10.41-6.024 15.445-2.067 3.887-7.284 5.82-8.66 10.307-2.134 4.879-6.566 6.843-10.94 9.071-1.435 2.544-13.684 3.844-7.109 5.659 1.093 1.137-4.922 3.25-6.767 3.74-4.508 2.313-9.892 3.08-14.694 3.1 1.637 3.09-6.75.647-8.854 1.851-2.498.437-4.994.628-7.211-.648-5.752-.149-10.783-2.743-15.504-5.033-3.09-2.824-11.64-3.108-12.292-7.364-4.63-1.84-10.068-6.526-13.185-9.917-2.687-3.923-4.807-10.855-5.845-14.6-1.569-4.767-.848-7.366-2.866-11.795-.106-5.096-2.547-11.128-2.118-16.2.554-1.87-.99-10.684.762-7.861 1.643 4.337-1.128 9.827 1.76 13.654 1.312 5.196 2.357 11.444 6.248 15.188 4.13 1.466 8.048 6.2 11.093 8.576 3.045 2.376 5.663 6.154 5.663 6.154 1.765 2.806 4.362 4.318 7.238 6 4.312.924 5.141 5.282 9.006 7.213 4.795-.167 9.71 1.879 14.766 1.132 2.22.684 4.729-.1 7.052.092 4.065 1.059 7.16-1.487 10.425-.84 3.382-1.763 6.903-4.132 9.89-5.474 2.458-3.609 5.036-5.321 7.495-9.244.137-.441 3.572-5 3.663-1.928.05 1.69 2.654-3.397 2.938-3.576 3.62-2.284 2.496-1.642 5.601-3.926 1.358-.355 4.17-1.364 5.911-2.49 2.922-4.291 4.321-7.98 8.71-11.656 4.2-3.448 3.803-13.3 4.568-18.344.403-1.048.617-1.447.724-1.446zm-65.651 15.69c-4.339-.07-7.38 1.56-11.714 2.816-3.136 2.068-.559-1.875-3.59-1.024-5.03.652-8.744 2.368-13.507 3.652-5.68.186-5.515 4.46-5.83 7.884l2.61 2.86c.794 2.31 1.382 2.27 3.74 1.559l2.455-2.543c.71-1.379 1.823-2.075 3.029-2.676 4.48-2.097 9.652-.697 14.694-1.887 3.38-1.544 5.812.891 9.404-.04 2.97-1.538 5.941 1.018 9.06-.896 4.818.036 7.739 1.092 12.344 1.778.325-.026 2.76.164 3.053.146 4.712-.296 4.248.703 6.09 1.022l2.497 4.076c1.877 2.368 2.671-1.128 4.358-3.83.113.14.532.108.658-.142l.457-.903c.335-.663-2.06-6.105-4.039-8.4-3.815-1.453-4.63-.678-8.914-1.522-2.371-.135-3.22.669-2.996 1.167-2.03-1.113-5.433-1.235-8.139-1.616-.862-.765-5.007-1.453-5.977-1.467-3.462-.051-3.242 3.57-8.352.083-.48-.059-.943-.09-1.391-.097zm9.724 1.195c1.32-.062 1.98 1.506 3.477 3.277-1.358-1.906 1.437-3.933 3.765-.645-4.527-2.344 6.42 5.732 2.192 1.179-3.18-3.187 1.53-.281 3.15.769-2.657-3.811 3.051-1.454 2.808-2.029-.307-1.31 2.57-1.358 6.649-.221 0 0 1.15.21 1.842.91 1.987-.787 3.937 3.41 4.607 5.192.028.155.048.28.07.41l-.093.02.22.926c.063 1.145.282 1.914-1.657.373-3.293-3.047-1.188.414.619 1.741l-1.95 3.283-.326-.202c-1.684-2.226-1.844-2.926-2.326-3.826l-1.501-1.07-.046.036-.017-.036c-1.794-1.189-7.101-2.986-6.763-2.409 2.739 3.265.767 2.116-1.374.481.885 1.62-.498 1.038-2.617-.143-.54 1.626-4.933.52-6.895-.784-1.348-.896-1.942-1.288-3.845-1.864-1.193-.36 1.01 1.647.095 2.273-.777.532-4.654.528-5.7-.017-4.161 1.504-8-.427-11.884.434-3.294-.258-8.17-.248-11.793 1.374-2.381-.12-3.96.56-6.335 2.818l-2.056 2.416c-3.344 2.24.105-2.225-1.042-2.711-.212-.045-.697.35-1.632 1.467-.544-.925-1.227-.883-1.709-.503l-1.194-1.603c.116-2.05.267-4.122 1.744-5.45 4.976-1.938 3.107-.715 1.13 1.998 4.53-1.906 4.633-3.102 8.683-4.578.94-1.472 9.81-3.465 5.96-.201 5.038.05-3.57.953-4.17 1.125 5.38-5.25-7.492 3.38-2.086.186 5.861-3.764-3.204 2.93 1.625 1.325 2.312.656 7.242-3.209 6.77-1.515 2.45-1.448 6.214-2.718 9.852-3.195 6.866-.091-4.197 3.982-2.632 4.694 2.477-2.549 5.76.182 5.84-3.758 3.17-3.032 4.09 1.78 8.196-.717 1.012-.836 1.749-1.201 2.349-1.23zm3.48 3.28c.06.085.127.17.205.255a6.95 6.95 0 0 0-.205-.255zm-3.001 2.662c.371.003 1.418.505 2.572 1.4 2.736 1.098-.177.558-1.099.196-1.543-1.103-1.845-1.599-1.473-1.596zm49.467 3.215c-.154-.037-.316 3.9-.5 5.016.264 4.308 1.258-2.44.652-3.402-.05-1.147-.1-1.602-.152-1.614zm.62 1.598c-.019.018-.043.113-.072.33.127.938.151-.411.071-.33zm.21 1.091c-.024.01-.075.085-.163.269-.107.9.27-.31.163-.269zm-.231 1.825c-.042-.013-.052.068.012.33.51.598.112-.291-.012-.33zm-5.072 1.6c-.73 1.532-.563 5.027-.677 8.654.808 1.742.58-.883.465-1.189-.264-3.172.088-6.593.594-5.18.277.774.418 6.057.951 6.506.372-.924-.24-4.776-.51-6.888-.422-.518-.744-1.275-.823-1.902zm.823 1.903c.195.239.409.429.633.528l-.028-.084c-.824-2.69-.812-2.067-.605-.444zm2.45-1.69c-.459 2.056.21 5.372-1.533 1.78 1.575 4.879 1.718-.338 1.533-1.78zm-109.735 2.324c-.472-.025-.781.709.361 2.53.92-1.498.174-2.502-.361-2.53zm8.398 3.17c-.359-.04-.614 1.08-.491 2.893.388 3.049-.726 1.896-.815 2.958 1.106 4.722 2.027-.176 1.598-2.243 1.349 3.84 2.826 7.748 5.473 10.904.792 1.61 1.158.231.941-.408-2.961-1.931-3.513-4.42-4.939-8.241-.276-1.657-1.487-5.832-1.767-5.863zm59.166.726c-1.519.012-4.995 1.879-5.458 2.05l-12.55.792-11.824-2.656a.5.5 0 0 0-.551.72l1.802 3.409a.502.502 0 0 0 .143.166c2.16 1.072 4.344 5.088 6.61 5.262 4.04.31 5.863-.132 8.022-.155.96-.01 2.362.76 3.411.522 1.328-.3 3.671-2.036 5.34-2.859.89-.439 1.493.219 1.86-.364l3.878-6.148c.113-.54-.176-.742-.683-.739zm-28.993 1.4c4.09.558 8.058 2.456 12.21 2.445 3.853-.364 6.668-.003 10.5-.43l5.333-1.963-2.998 4.758c-.476.226-.703-.54-1.082-.301-1.382.87-2.729 2.769-7.008 3.277 0 0-1.088-.882-1.667-.867-1.906.052-5.527.964-7.798.106-2.432-.92-6.246-4.676-6.246-4.676zm57.474.828c-.02.005-.043.066-.068.218.172.774.153-.243.068-.218zm1.377 3.146c-.455-.042.595 4.314.964 6.351.29.584.552.31.81-.069 1.015-1.28.991-2.51 2.065-4.152 1.048-4.792-2.126 4.32-2.53 2.988-.77-1.766-1.131-5.101-1.309-5.118zm-1.445.018c-.2.104-.358 4.91-.082 6.621.453 2.393.35-3.696.31-4.117-.066-1.866-.15-2.545-.228-2.504zm-79.196 6.07c-.21-.03-.46.231-.731.965-.385.651-2.499-.783-.135 1.214 1.963 3.572 1.78-2.045.866-2.178zm5.013.327c-.254-.078-.54 2.751-.12 4.432.601 1.795.437-1.925.376-2.14-.033-1.62-.141-2.256-.256-2.292zm72.686.4c-.683-.013-.962.391.719 1.577 2.137-.653.278-1.56-.72-1.578zm-68.669 3.508c-.403-.03-.88.068-1.45.329.173.84 1.357-.474 2.11.389 1.145 1.315 2.005 4.876 2.405 6.718-.096-.212 1.371 1.86 1.46 1.015-1.868-5.565-1.705-8.241-4.525-8.451zm5.818 4.175c-.112-.009-.253 2.03-.15 5.4.795 1.734.393-2.48.504-2.606.009-1.813-.125-2.474-.285-2.452-.02-.23-.044-.34-.07-.342zm.954 2.334c-.48-.04 1.567 6.415 3.077 7.579 3.277 1.315-1.327-.094-2.014-5.758-.598-1.288-.93-1.81-1.063-1.82zm16.24 1.844c-1.04.126-1.186 5.236-1.216 7.115-1.808 2.245-.422 2.919-.08 2.062 1.015-2.532-.452-4.187.807-5.39.156-1.05.157-2.825.35-2.778.774.189 2.372 9.175 4.938 7.62 4.602.093 4.907-7.26 2.66-2.446-2.251 3.631-5.398.501-6.36-2.786-.27-1.906-.583-3.336-.999-3.396a.386.386 0 0 0-.1 0zm27.39 1.654c-.032.013-.077.125-.138.4.171 1.369.278-.454.138-.4z"/>
</svg>
