<svg xmlns="http://www.w3.org/2000/svg" width="1278.065" height="1569.494" viewBox="0 0 338.155 415.262">
  <path fill="none" d="M.5.5h337.155v414.262H.5z" paint-order="stroke fill markers"/>
  <path class="hair" fill="#3b2516" d="M160.32 206.035c5.052-.322 9.862-1.12 14.537.322 3.063-3.048 7.157-1.03 10.728-3.91 2.558-3.1 6.824-3.83 8.099-8.028 1.455-3.697 3.591-7.891 2.893-12.261.237-5.277-2.409-8.572-8.419-7.544-4.605-.686-8.6-2.814-13.418-2.85-3.119 1.915-6.09-.641-9.06.897-3.593.93-6.024-1.505-9.404.04-5.042 1.189-9.58 2.869-14.06 4.966-3.904 1.892-1.063 6.791-4.159 9.987-.725 4.01.658 10.36 5.413 11.074 2.707 4.541 7.34 5.427 11.82 6.436 1.276 1.39 3.37 1.096 5.03.87zm-.636 17.781c-4.305-1.697-10.037-1.111-14.137-3.685-3.074-2.942-9.397-4.265-12.79-7.693-3.26-3.741-9.252-6.018-12.169-10.144-3.686-1.407-4.61-7.667-6.554-10.964-5.102-3.486-2.894-10.18-4.425-15.498-3.516-4.528-.398-10.335-3.27-15.06-.804-4.96.334-9.662.19-14.556 3.48 2.04 2.045 8.094 2.753 11.741.792 5.328 2.297 10.376 4.828 15.118 1.681 1.996 4.321 5.68 7.31 4.554 2.52.311 6.938 5.86 8.58 1.851 1.545-4.662-1.316-8.568 5.777-8.8 4.763-1.284 8.532-4.77 13.561-5.423 3.032-.85.44 2.521 3.576.453 4.783-1.385 9.637-2.418 14.751-1.794 2.777 3.18 8.61-3.566 12.55-.07 3.8.535 7.554.919 9.02 3.535-2.588-3.787 2.065.991 1.41-1.936 4.283.844 8.127.175 11.942 1.628.547 4.015 1.773 8.283 2.403 12.385 4.247-.416 10.967-1.935 12.437-6.816 1.702-4.316 4.8-7.662 7.778-11.203 4.39-3.494 2.013-10.288 5.219-14.314 3.778-2.117.635 6.101.97 8.219-1.278 5.678 1.39 13.251-1.714 18.623-.736 4.987-2.095 8.775-4.273 13.315-.988 4.47-4.85 8.478-8.633 10.155-1.348 4.743-5.048 8.904-9.792 10.837-4.148 3.14-8.399 4.98-12.107 8.711-4.705 1.69-9.975 3.557-14.918 4.65-4.985 2.536-9.352 2.444-14.852 2.682-1.869.09-3.58-.083-5.421-.5z"/>
  <path d="M159.008 224.717c-4.305-1.697-9.361-2.012-13.461-4.586-3.074-2.942-9.397-4.265-12.79-7.693-3.26-3.741-9.252-6.018-12.169-10.144-3.686-1.407-4.209-5.729-6.154-9.026-5.1-3.487-3.557-11.554-5.088-16.872-3.516-4.53-.736-10.748-3.607-15.475-.805-4.96.934-9.811.79-14.705 3.48 2.04 2.345 7.68 3.053 11.328.792 5.328 2.485 10.526 5.016 15.268 1.681 1.996 3.382 4.801 6.37 3.675 2.52.312 7.084 6.564 8.727 2.555 1.544-4.662-1.21-8.661 5.883-8.893 4.763-1.284 8.618-4.597 13.648-5.249 3.031-.85.313 2.573 3.449.504 4.783-1.385 10.062-2.67 15.176-2.045 2.777 3.18 8.318-3.315 12.258.18 3.8.537 7.448 1.013 8.914 3.63-2.588-3.788 1.826.792 1.17-2.135 4.284.844 8.884.373 12.7 1.826.547 4.016 1.599 8.233 2.228 12.335 4.247-.416 10.46-1.898 11.93-6.778 1.703-4.316 4.97-7.681 7.947-11.222 4.39-3.495 2.22-10.044 5.426-14.07 3.778-2.117.635 6.101.97 8.219.097 5.93 1.606 12.33-.798 17.663-.737 4.987-3.011 9.735-5.19 14.275-.987 4.47-4.85 8.477-8.632 10.155-1.348 4.743-4.372 9.467-9.116 11.4-4.148 3.14-9.037 5.054-12.745 8.786-4.705 1.69-9.337 3.482-14.28 4.575-4.985 2.536-10.478 2.406-15.979 2.645-1.868.09-3.805.292-5.646-.126zm7.068-1.898c2.103-1.205 10.492 1.24 8.854-1.85 4.802-.022 10.186-.788 14.694-3.102 1.845-.488 7.86-2.602 6.767-3.739-6.575-1.815 5.674-3.115 7.11-5.659 4.373-2.228 8.805-4.192 10.94-9.07 1.375-4.488 6.592-6.421 8.66-10.308 2.206-5.035 4.409-10.217 6.023-15.445.911-1.071 1.769-2.766 1.942-4.608.415-4.41-1.038-10.454-.228-16.514-.787-.584.617-6.785-.994-2.592-.765 5.044-1.427 10.663-5.627 14.11-4.388 3.676-5.031 9.416-7.953 13.707-3.355 2.348-6.585 1.41-10.322 2.411-3.597 1.8-1.555-5.118-3.974-2.738-1.844-1.197-4.243-5.053-.825-1.89 1.07-1.552 2.106 1.874 1.46-1.73-.67-1.78.114-7.276-1.873-6.488 1.046 4.244-1.949-1.276-4.576-.142-2.092-.56-5.908-1.888-3.143 1.174-2.657-1.639-3.633-2.013-2.046.53-1.611.418-7.485-5.427-4.268-1.042-1.62-1.05-6.33-3.956-3.15-.769 4.229 4.553-6.72-3.523-2.192-1.179-2.434-3.436-5.38-1.066-3.557.904-2.128-2.775-6.223-3.78-8.306-.568-2.234 2.964-2.755-4.052-5.924-1.02-.08 3.94-3.364 1.208-5.84 3.757-1.566-.712 9.498-4.785 2.632-4.694-3.638.478-7.402 2.276-9.851 3.725.47-1.695-4.46 4.287-6.77 3.631-4.83 1.604 4.235-5.09-1.626-1.325-5.406 3.195 7.466-5.436 2.085-.186.602-.172 9.209-3.19 4.171-3.242 3.85-3.263-5.02.846-5.96 2.318-2.83 1.001-7.743 4.771-8.684 4.579 1.978-2.714 3.847-3.937-1.13-1.999-3.078 2.77-.396 8.774-3.65 11.065a84.106 84.106 0 0 0-12.59-5.646c-3.891-3.744-5.466-8.934-6.778-14.13-2.888-3.827-.117-9.317-1.76-13.654-1.753-2.823-.208 5.99-.761 7.862-.43 5.071 3.214 8.965 3.32 14.06 2.018 4.43.095 9.167 1.663 13.935 1.039 3.744 4.76 9.981 7.447 13.904 3.116 3.392 7.921 7.648 12.552 9.487.651 4.256 8.233 5.665 11.323 8.489 4.721 2.29 9.752 4.884 15.504 5.033 2.217 1.275 4.713 1.085 7.21.648zm-4.895-2.517c-1.46-1.249-2.768-.667-.96-2.912.043-2.699 2.47-10.309 3.424-3.529.962 3.287 4.039 7.078 6.29 3.447 2.247-4.814-.184 6.13-2.897 1.903-3.206 1.943-4.272-9.552-5.05-4.3-1.26 1.204 1.625 6.625-.807 5.39zm20.803-2.573c-2.535-.056-.697-7.346-.482-2.045.95 2.659 5.236-5.812 2.784.481 2.043.133 8.086-2.143 3.241.501-1.685.64-3.836 1.114-5.543 1.063zm-32.671-.87c-1.932-1.49-4.744-11.647-2.014-5.757.044 1.547 5.096 5.825 2.014 5.757zm40.415-3.68c.324-1.465.21 1.684 0 0zm-44.597-.832c-.894-2.414.533-8.407.505-2.606-.111.127.291 4.34-.505 2.606zm-2.602-2.139c-.662-3.052-4.08-4.986-4.515-7.107 4.565-2.083 3.12 6.167 5.975 8.122-.089.846-1.556-1.227-1.46-1.015zm52.641-.052c-.244-3.985 4.93-1.252 1.128.1-.292.513-1.013.373-1.128-.1zm3.192-1.61c1.324-4.537 1.677-9.41 2.767-14.056 2.507 1.78 1.608 9.009 3.106 9.181 2.573-3.776-2.473 6.877-2.058 1.03.053-2.14-.225-8.863-.815-3.552-.521 2.46-.55 7.626-3 7.397zm-34.772-1.228c-5.054.747-9.97-1.3-14.765-1.132-3.864-1.93-4.695-6.288-9.006-7.212-2.877-1.683-2.534-6.47-3.716-9.567-1.639 3.329-2.639-2.9-.338-2.468 1.48-3.235 3.26-4.93 3.355-8.355 2.374-2.258 3.319-3.373 5.7-3.252 3.622-1.622 8.499-4.277 11.793-4.02 3.884-.861 7.723 1.07 11.885-.434 3.404 1.948 5.887-1.38 4.166-4.002 3.625.333 6.426 5.844 7.698 3.976 1.78 1.542 3.94 2.573 4.48.947 2.119 1.181 3.502 1.764 2.617.144 2.14 1.635 4.112 2.784 1.373-.481-.338-.578 4.97 2.807 6.764 3.996 2.344 4.61 2.746 9.135 1.141 14.295-.587 4.456-3.32 7.734-5.778 11.343-2.987 1.341-6.509 3.71-9.891 5.473-3.266-.646-6.36 1.9-10.425.84-2.323-.191-4.832.593-7.053-.091zm-3.27-1.284c5.052-.321 9.862-1.118 14.537.323 3.063-3.048 7.157-1.031 10.728-3.91 2.558-3.1 6.824-3.83 8.099-8.028 1.455-3.697 3.591-7.891 2.893-12.261.237-5.277-2.409-8.572-8.419-7.544-4.605-.686-8.6-2.814-13.418-2.85-3.119 1.915-6.09-.641-9.06.897-3.593.93-6.024-1.505-9.404.04-5.042 1.189-9.58 2.869-14.06 4.966-3.904 1.892-1.063 6.791-4.159 9.987-.725 4.01.657 10.36 5.413 11.074 2.707 4.541 7.34 5.427 11.82 6.436 1.276 1.39 3.37 1.096 5.03.87zm16.843-35.437c-2.307-1.79-4.184-2.01-1.098.195.921.362 3.835.902 1.098-.195zm-4.154-3.494c-.696-.541.662 1.142 0 0zm-37.683 36.193c-.61-2.445.273-7.32.377-2.14.061.215.225 3.935-.377 2.14zm-5.758-2.58c-2.364-1.997-.25-.563.134-1.214 1.448-3.913 2.282 5.61-.134 1.214zm-1.752.145c-2.647-3.156-4.124-7.064-5.473-10.904.429 2.067-.492 6.965-1.598 2.242.09-1.061 1.203.092.815-2.957-.218-3.223.758-4.258 1.39-.47 1.426 3.82 2.846 9.75 5.807 11.682.217.638-.149 2.016-.941.407zm81.036-.02c-4.137-2.92 3.6-1.1 0 0zm.697-1.753c-.386-2.38.072-10.752.31-4.117.038.42.142 6.51-.31 4.117zm2.49-.288c-.514-2.834-2.344-10.157.391-3.879.405 1.331 3.532-5.134 2.484-.342-1.073 1.643-1.702 3.156-2.717 4.436zm-2.41-9.28c.135-.806.213.954 0 0zm9.81-.224c.114-3.628.08-10.463.81-11.994.222 1.749 2.176 7.875 3.139 3.553.186 1.451-.247 7.169-1.845 2.134-1.895-6.188.562 4.809-.094 6.445-1.507-1.268-1.955-6.238-1.545-1.327.113.306.343 2.931-.466 1.189zm-105.425-3.587c-2.437-3.885 1.73-2.821 0 0zm20.112-.985c-.084-2.91 1.327-5.519-1.767-4.03-2.175.012.042-3.675 1.396-1.372 3.738-4.466.276 2.603 1.024 3.251 1.984-4.817.232 3.028-.653 2.15zm67.045-4.103c-1.74-2.056-4.571-5.02-4.637-6.254 1.361.88 7.952 8.16 4.637 6.254zm22.916-1.078c.246-1.486.453-7.99.653-3.401.606.96-.388 7.71-.653 3.401zm1.112-.17c-.255-1.05.68.797 0 0zm.057-1.887c.468-.98-.133 1.107 0 0zm-.12-1.03c.157-1.156.156 1.155 0 0zm-86.884-5.034c1.23-1.633-1.843 1.686 0 0z"/>
</svg>
