<?xml version="1.0" encoding="UTF-8" standalone="no"?>
<!-- Created with Inkscape (http://www.inkscape.org/) -->

<svg
   xmlns:dc="http://purl.org/dc/elements/1.1/"
   xmlns:cc="http://creativecommons.org/ns#"
   xmlns:rdf="http://www.w3.org/1999/02/22-rdf-syntax-ns#"
   xmlns:svg="http://www.w3.org/2000/svg"
   xmlns="http://www.w3.org/2000/svg"
   xmlns:sodipodi="http://sodipodi.sourceforge.net/DTD/sodipodi-0.dtd"
   xmlns:inkscape="http://www.inkscape.org/namespaces/inkscape"
   width="338.15475mm"
   height="415.26193mm"
   viewBox="0 0 338.15475 415.26193"
   version="1.1"
   id="svg8"
   inkscape:version="0.92.3 (2405546, 2018-03-11)"
   sodipodi:docname="Facialhair06.svg">
  <defs
     id="defs2" />
  <sodipodi:namedview
     id="base"
     pagecolor="#ffffff"
     bordercolor="#666666"
     borderopacity="1.0"
     inkscape:pageopacity="0.0"
     inkscape:pageshadow="2"
     inkscape:zoom="0.69999999"
     inkscape:cx="767.33701"
     inkscape:cy="1006.146"
     inkscape:document-units="mm"
     inkscape:current-layer="layer1"
     showgrid="false"
     inkscape:window-width="1920"
     inkscape:window-height="1001"
     inkscape:window-x="-9"
     inkscape:window-y="-9"
     inkscape:window-maximized="1"
     inkscape:snap-global="true"
     fit-margin-top="0"
     fit-margin-left="0"
     fit-margin-right="0"
     fit-margin-bottom="0" />
  <metadata
     id="metadata5">
    <rdf:RDF>
      <cc:Work
         rdf:about="">
        <dc:format>image/svg+xml</dc:format>
        <dc:type
           rdf:resource="http://purl.org/dc/dcmitype/StillImage" />
        <dc:title></dc:title>
      </cc:Work>
    </rdf:RDF>
  </metadata>
  <g
     inkscape:label="Ebene 1"
     inkscape:groupmode="layer"
     id="layer1"
     transform="translate(1027.0834,-13.766026)">
    <rect
       style="opacity:1;fill:none;fill-opacity:1;fill-rule:evenodd;stroke:none;stroke-width:0.99999988;stroke-linecap:round;stroke-linejoin:miter;stroke-miterlimit:4;stroke-dasharray:none;stroke-dashoffset:0;stroke-opacity:1;paint-order:stroke fill markers"
       id="rect1307-4"
       width="337.15475"
       height="414.26193"
       x="-1026.5834"
       y="14.266026"
       inkscape:label="Frame" />
    <path
       id="path1171"
       style="fill:#241c1c;fill-opacity:1;stroke-width:0.99999988"
       d="m -866.76398,219.80055 c 5.05268,-0.32178 9.8621,-1.11858 14.53759,0.32229 3.06263,-3.04814 7.15727,-1.03074 10.72836,-3.90972 2.55807,-3.10099 6.82375,-3.8297 8.09863,-8.02803 1.45455,-3.69691 3.59103,-7.89141 2.8928,-12.26103 0.23725,-5.27741 -2.4084,-8.57175 -8.41849,-7.54354 -4.60498,-0.68603 -8.60051,-2.81414 -13.41839,-2.84967 -3.1189,1.91382 -6.08937,-0.64199 -9.06024,0.89613 -3.5922,0.93072 -6.02361,-1.50503 -9.40324,0.0397 -5.0421,1.18939 -9.58087,2.86939 -14.06032,4.9668 -3.90406,1.89127 -1.06317,6.79088 -4.15881,9.98609 -0.72544,4.00968 0.65719,10.36108 5.41306,11.07449 2.70663,4.54111 7.33986,5.42714 11.82003,6.43621 1.2755,1.39068 3.37036,1.09549 5.02902,0.87028 z m -0.63551,17.78161 c -4.30501,-1.69698 -8.58939,-2.4522 -12.6895,-5.02633 -3.07427,-2.94191 -8.4661,-5.05805 -11.85856,-8.4865 -3.26025,-3.74125 -8.15373,-5.86814 -11.07031,-9.99398 -3.68644,-1.40701 -5.30237,-5.4815 -7.24716,-8.77863 -5.10119,-3.48648 -4.62038,-10.38016 -6.1511,-15.69826 -3.51635,-4.52891 -1.45668,-10.33503 -4.32747,-15.06117 -0.80472,-4.95953 0.33301,-9.66176 0.18886,-14.55483 3.4805,2.03868 2.04492,8.09345 2.75297,11.74079 0.79206,5.32774 2.29714,10.37561 4.82838,15.11754 1.68121,1.99634 4.32141,5.68001 7.30906,4.55384 2.52087,0.31171 6.93878,5.86064 8.58159,1.85186 1.54419,-4.66253 -1.31652,-8.56839 5.77629,-8.80077 4.76346,-1.2834 8.53167,-4.77058 13.56133,-5.42289 3.03187,-0.85063 0.43984,2.5212 3.57532,0.45286 4.78372,-1.38488 9.63751,-2.41741 14.75142,-1.79333 2.77745,3.18042 8.60969,-3.56661 12.54983,-0.0712 3.80035,0.53616 7.55407,0.91944 9.02056,3.53607 -2.58797,-3.78744 2.0647,0.99128 1.40864,-1.93578 4.28412,0.84397 8.12794,0.17419 11.94299,1.6274 0.54729,4.01567 1.77309,8.28354 2.40266,12.38495 4.24718,-0.41579 10.96681,-1.93489 12.43757,-6.81546 1.70209,-4.31631 4.79984,-7.66251 7.77759,-11.20307 4.39037,-3.49459 2.01325,-10.28794 5.21909,-14.31406 3.77819,-2.11711 0.63455,6.10115 0.96982,8.21881 -1.27812,5.67809 1.39059,13.25125 -1.71345,18.62295 -0.73676,4.98691 -2.09576,8.77504 -4.27377,13.31515 -0.98716,4.46949 -4.85016,8.47747 -8.63208,10.15511 -1.34805,4.74326 -5.04872,8.90379 -9.79272,10.83686 -4.14805,3.13936 -8.3986,4.97917 -12.10679,8.71096 -4.70451,1.68925 -9.97508,3.55668 -14.91821,4.65011 -4.98448,2.53569 -9.35161,2.4436 -14.85183,2.68188 -1.86844,0.0895 -3.57978,-0.0827 -5.42102,-0.50077 z"
       inkscape:connector-curvature="0"
       inkscape:label="Füllung_Bart"
       sodipodi:nodetypes="cccccccccccccccccccccccccccccccccccccccccccccccc" />
    <path
       style="fill:#000000;stroke-width:0.99999988"
       d="m -868.07541,238.48339 c -4.305,-1.69699 -9.07755,-3.24077 -13.17766,-5.8149 -3.07427,-2.94192 -7.79017,-5.02051 -11.18262,-8.44896 -3.26026,-3.74127 -7.66559,-6.01834 -10.58217,-10.14418 -3.68644,-1.40701 -5.30237,-5.4815 -7.24716,-8.77863 -5.10119,-3.48648 -4.88323,-9.81688 -6.41396,-15.135 -3.51634,-4.52891 -1.79464,-10.74809 -4.66544,-15.47424 -0.80472,-4.95953 0.93384,-9.81195 0.78969,-14.70502 3.4805,2.03868 2.34534,7.68039 3.05338,11.32772 0.79206,5.32773 2.4849,10.52583 5.01614,15.26775 1.6812,1.99635 3.38185,4.80112 6.36949,3.67495 2.52089,0.31171 7.08482,6.56428 8.72764,2.55551 1.54418,-4.66254 -1.21031,-8.66135 5.8825,-8.89372 4.76345,-1.28341 8.61815,-4.59626 13.6478,-5.24857 3.03188,-0.85063 0.31354,2.57258 3.44903,0.50424 4.78371,-1.38488 10.06232,-2.66967 15.17625,-2.04558 2.77743,3.18044 8.31761,-3.31436 12.25776,0.18093 3.80035,0.53616 7.44785,1.01238 8.91435,3.629 -2.58799,-3.78744 1.82572,0.79214 1.16964,-2.1349 4.28412,0.84395 8.8847,0.37331 12.69976,1.82652 0.54729,4.01567 1.59915,8.23311 2.22872,12.33452 4.24718,-0.41579 10.45988,-1.89734 11.93063,-6.7779 1.70209,-4.31632 4.96882,-7.68131 7.94658,-11.22185 4.39037,-3.4946 2.21978,-10.04386 5.42562,-14.06998 3.77819,-2.11712 0.63455,6.10114 0.96982,8.2188 0.0975,5.93077 1.60669,12.3309 -0.79757,17.6632 -0.73676,4.98691 -3.01164,9.73479 -5.18965,14.27491 -0.98716,4.46949 -4.85016,8.47747 -8.63208,10.15511 -1.34805,4.74325 -4.3728,9.46705 -9.11679,11.40012 -4.14805,3.13936 -9.03698,5.05428 -12.74517,8.78606 -4.7045,1.68926 -9.33672,3.48158 -14.27984,4.57501 -4.98449,2.53569 -10.47813,2.40605 -15.97836,2.64433 -1.86844,0.0895 -3.80508,0.29274 -5.64633,-0.12525 z m 7.06757,-1.89799 c 2.10374,-1.20488 10.49207,1.23882 8.85446,-1.85124 4.80167,-0.0207 10.18575,-0.78704 14.69352,-3.10083 1.84543,-0.48847 7.86026,-2.6025 6.7675,-3.73928 -6.57511,-1.81509 5.67418,-3.11515 7.10949,-5.65882 4.37344,-2.22851 8.80558,-4.19258 10.93993,-9.07103 1.37543,-4.48669 6.59218,-6.42016 8.65968,-10.30689 2.20729,-5.03509 4.40977,-10.21689 6.02395,-15.44539 0.91114,-1.07125 1.76887,-2.76604 1.9422,-4.60801 0.41498,-4.40996 -1.03785,-10.45403 -0.22877,-16.51392 -0.78604,-0.5843 0.61726,-6.78539 -0.99345,-2.59216 -0.76508,5.04434 -1.42725,10.66291 -5.62688,14.11043 -4.38823,3.67559 -5.03148,9.41573 -7.95337,13.7068 -3.35441,2.34799 -6.58523,1.4099 -10.32198,2.41136 -3.5964,1.80035 -1.5551,-5.11835 -3.97423,-2.73889 -1.84395,-1.19609 -4.24236,-5.05221 -0.82419,-1.88889 1.07045,-1.55248 2.10602,1.87348 1.4596,-1.72984 -0.67048,-1.78131 0.11408,-7.27664 -1.87288,-6.48849 1.04584,4.24367 -1.94883,-1.27617 -4.57651,-0.14272 -2.09186,-0.55999 -5.90773,-1.88748 -3.1431,1.17447 -2.65695,-1.63882 -3.63272,-2.01282 -2.04534,0.52962 -1.61119,0.41816 -7.48568,-5.4265 -4.26815,-1.0415 -1.62059,-1.04991 -6.32993,-3.95604 -3.15044,-0.76891 4.22898,4.55302 -6.71885,-3.52275 -2.19154,-1.17913 -2.43394,-3.43614 -5.38061,-1.06595 -3.5574,0.90343 -2.12763,-2.77502 -6.22298,-3.77914 -8.30567,-0.5678 -2.23427,2.96445 -2.75513,-4.05216 -5.92433,-1.02027 -0.0791,3.93996 -3.36336,1.20896 -5.84001,3.75799 -1.56538,-0.71197 9.49787,-4.78535 2.63243,-4.6944 -3.63817,0.47748 -7.40237,2.27643 -9.85157,3.72449 0.4707,-1.69417 -4.45896,4.28708 -6.77036,3.63178 -4.82966,1.60377 4.23609,-5.08942 -1.62533,-1.32495 -5.40609,3.19448 7.46636,-5.4366 2.08521,-0.1866 0.6018,-0.1717 9.20895,-3.1905 4.17146,-3.24143 3.84916,-3.2636 -5.02073,0.84585 -5.96057,2.31802 -2.83077,1.00091 -7.74279,4.77065 -8.68389,4.57823 1.97803,-2.71355 3.84721,-3.93666 -1.12955,-1.99827 -3.07868,2.76885 -0.39652,8.77379 -3.65021,11.06513 -4.19694,-2.32379 -8.46032,-4.18083 -12.59089,-5.64678 -3.89084,-3.74397 -5.46565,-8.9341 -6.77762,-14.13012 -2.88797,-3.827 -0.11669,-9.31649 -1.76008,-13.65361 -1.75247,-2.8228 -0.20727,5.99036 -0.76112,7.86184 -0.42903,5.07155 3.21438,8.96506 3.32037,14.06045 2.01822,4.42946 2.21132,9.16701 3.77948,13.93475 2.90971,4.01173 6.12013,7.99667 8.80786,11.92008 3.11627,3.39105 6.33382,7.64707 10.96452,9.48628 0.65109,4.25609 6.62693,6.42079 9.71716,9.24484 4.7205,2.29036 9.46854,6.11268 15.21994,6.26155 2.2174,1.2757 4.71345,1.08512 7.21067,0.64863 z m -4.89485,-2.51765 c -1.45905,-1.24833 -2.76787,-0.66694 -0.95939,-2.91165 0.0427,-2.69888 2.46875,-10.3087 3.42402,-3.52905 0.96207,3.28689 4.03832,7.07823 6.28927,3.44736 2.24764,-4.81412 -0.1833,6.1294 -2.89627,1.90216 -3.20678,1.94366 -4.2728,-9.55185 -5.05109,-4.29897 -1.25906,1.20331 1.62566,6.62464 -0.80654,5.39015 z m 20.8028,-2.57228 c -2.53474,-0.0564 -0.69641,-7.3468 -0.48171,-2.04501 0.95029,2.65849 5.23647,-5.81225 2.78402,0.48095 2.0436,0.13263 8.08636,-2.143 3.24149,0.50078 -1.68545,0.64073 -3.8361,1.1141 -5.5438,1.06328 z m -32.67078,-0.87007 c -1.93213,-1.49001 -4.74415,-11.64725 -2.01416,-5.75773 0.0442,1.54741 5.09666,5.82578 2.01416,5.75773 z m 40.41547,-3.68087 c 0.32341,-1.46446 0.21075,1.68489 0,0 z m -44.59713,-0.832 c -0.89451,-2.41398 0.53248,-8.40643 0.50496,-2.60535 -0.11149,0.12663 0.2912,4.3395 -0.50496,2.60535 z m -2.60236,-2.13838 c -0.6617,-3.05246 -4.07907,-4.98644 -4.51427,-7.10709 4.56426,-2.08292 3.11866,6.16713 5.97417,8.12196 -0.0886,0.84581 -1.55524,-1.22719 -1.4599,-1.01487 z m 52.64171,-0.0523 c -0.24452,-3.98485 4.92889,-1.25205 1.12774,0.1008 -0.29192,0.51211 -1.01294,0.37269 -1.12774,-0.1008 z m 3.19208,-1.61004 c 1.32384,-4.53703 1.6766,-9.40963 2.76612,-14.05571 2.50782,1.78009 1.60873,9.00855 3.10599,9.18141 2.57342,-3.77673 -2.4727,6.87624 -2.05713,1.02919 0.0522,-2.13989 -0.22523,-8.86276 -0.81572,-3.55199 -0.5211,2.46126 -0.54919,7.62681 -2.99926,7.3971 z m -34.77222,-1.22818 c -5.05466,0.74727 -9.9697,-1.29869 -14.76503,-1.13183 -3.86466,-1.93067 -4.69479,-6.28816 -9.00604,-7.21227 -2.87681,-1.6822 -2.53378,-6.46904 -3.7161,-9.56622 -1.63895,3.32862 -2.63907,-2.90058 -0.3378,-2.4686 1.48009,-3.23514 3.26026,-4.92922 3.35431,-8.35496 2.37438,-2.25748 3.31889,-3.37226 5.70062,-3.25174 3.62181,-1.62159 8.49853,-4.27716 11.79258,-4.01989 3.88437,-0.86112 7.72284,1.0703 11.88498,-0.43366 3.404,1.94711 5.88699,-1.38093 4.16639,-4.0024 3.62513,0.33343 6.42598,5.84369 7.69738,3.97563 1.78001,1.54237 3.94078,2.57366 4.48008,0.94746 2.11923,1.18131 3.50194,1.76408 2.61686,0.14374 2.14105,1.63498 4.1129,2.78368 1.37375,-0.48106 -0.33796,-0.57769 4.96978,2.80711 6.76363,3.99614 2.34446,4.60976 2.74604,9.13536 1.14158,14.29484 -0.58796,4.45668 -3.32102,7.73425 -5.77893,11.34322 -2.98694,1.34141 -6.50857,3.71068 -9.89074,5.47327 -3.26564,-0.6467 -6.36025,1.89963 -10.42498,0.84026 -2.32311,-0.19149 -4.83173,0.59259 -7.05254,-0.0919 z m -3.27086,-1.28311 c 5.05268,-0.32178 9.8621,-1.11858 14.53759,0.32229 3.06263,-3.04814 7.15727,-1.03074 10.72836,-3.90972 2.55807,-3.101 6.82375,-3.8297 8.09863,-8.02803 1.45455,-3.69691 3.59103,-7.89141 2.8928,-12.26103 0.23725,-5.27741 -2.4084,-8.57175 -8.41849,-7.54354 -4.60498,-0.68603 -8.60051,-2.81414 -13.41839,-2.84967 -3.1189,1.91382 -6.08937,-0.64199 -9.06024,0.89613 -3.5922,0.93071 -6.02361,-1.50503 -9.40324,0.0397 -5.0421,1.18939 -9.58087,2.86939 -14.06032,4.9668 -3.90406,1.89127 -1.06317,6.79088 -4.15881,9.98609 -0.72544,4.00968 0.65719,10.36108 5.41306,11.07449 2.70663,4.54111 7.33986,5.42714 11.82003,6.43621 1.2755,1.39068 3.37036,1.09549 5.02902,0.87028 z m 16.844,-35.43776 c -2.30785,-1.7906 -4.18429,-2.00923 -1.09823,0.19542 0.92118,0.36168 3.83501,0.90218 1.09823,-0.19542 z m -4.15445,-3.49343 c -0.69563,-0.5418 0.66177,1.14172 0,0 z m -37.68304,36.1927 c -0.60987,-2.44507 0.27276,-7.31977 0.37703,-2.14074 0.061,0.21594 0.22507,3.93581 -0.37703,2.14074 z m -5.75821,-2.58011 c -2.36337,-1.99688 -0.24975,-0.56282 0.13472,-1.21387 1.44774,-3.91262 2.28142,5.61088 -0.13472,1.21387 z m -1.75192,0.14465 c -2.64674,-3.15534 -4.12408,-7.06387 -5.47268,-10.90367 0.42886,2.06671 -0.49199,6.96485 -1.5979,2.24258 0.0891,-1.06164 1.20266,0.0911 0.8147,-2.9578 -0.21828,-3.22302 0.75844,-4.25806 1.38959,-0.47056 1.42621,3.8216 2.84618,9.75057 5.80757,11.68246 0.21691,0.63863 -0.14906,2.01676 -0.94128,0.40699 z m 81.03583,-0.0193 c -4.13641,-2.91969 3.59949,-1.10027 0,0 z m 0.69705,-1.75302 c -0.38519,-2.38013 0.072,-10.75209 0.30996,-4.11738 0.0388,0.421 0.14255,6.50996 -0.30996,4.11738 z m 2.49036,-0.2878 c -0.51407,-2.83456 -2.34392,-10.15755 0.39135,-3.8793 0.40418,1.33131 3.532,-5.13391 2.48378,-0.34241 -1.07362,1.64295 -1.70176,3.1562 -2.71668,4.4366 z m -2.40935,-9.27965 c 0.1348,-0.80677 0.21218,0.95278 0,0 z m 9.80871,-0.22501 c 0.11415,-3.62729 0.08,-10.46251 0.81001,-11.99384 0.22222,1.74891 2.17613,7.87504 3.13946,3.5529 0.18576,1.45142 -0.24666,7.16895 -1.84488,2.13402 -1.89512,-6.18793 0.56233,4.80886 -0.0944,6.44471 -1.50699,-1.2676 -1.95492,-6.23778 -1.54503,-1.32615 0.11368,0.30609 0.3431,2.93085 -0.4651,1.18836 z m -103.30735,-3.58628 c -2.43702,-3.88598 1.72961,-2.8217 0,0 z m 17.99491,-0.98566 c -0.0837,-2.90965 1.32749,-5.51847 -1.76672,-4.02919 -2.17547,0.0113 0.042,-3.67548 1.39608,-1.37229 3.73778,-4.46679 0.27547,2.60271 1.02355,3.25062 1.98427,-4.81663 0.23243,3.02791 -0.65291,2.15086 z m 67.04483,-4.10308 c -1.73958,-2.05552 -4.57074,-5.019 -4.63672,-6.2541 1.36095,0.88053 7.9518,8.1612 4.63672,6.2541 z m 22.91611,-1.07734 c 0.24596,-1.48657 0.45354,-7.99129 0.65346,-3.40138 0.60599,0.96091 -0.38836,7.70974 -0.65346,3.40138 z m 1.11168,-0.17092 c -0.25498,-1.04983 0.6813,0.7973 0,0 z m 0.057,-1.8867 c 0.46857,-0.97925 -0.13291,1.10757 0,0 z m -0.12001,-1.02979 c 0.15695,-1.15559 0.15648,1.15494 0,0 z m -86.88319,-5.03435 c 1.23019,-1.63295 -1.8433,1.68657 0,0 z"
       id="path837-7"
       inkscape:connector-curvature="0"
       inkscape:label="Kontur_Bart"
       sodipodi:nodetypes="cccccccccccccccccccccccccccccccccccccccccsccccccccccccccccccccccccccccccccccccccccccccccccccccccccccccccccccccccccccccccccccccccccccccccccccccccccccccccccccccccccccccccccccccccccccccccccccccccccccccccccccccccc" />
  </g>
</svg>
