<svg xmlns="http://www.w3.org/2000/svg" width="1278.065" height="1569.494" viewBox="0 0 338.155 415.262">
  <path fill="none" d="M.5.5h337.155v414.262H.5z" paint-order="stroke fill markers"/>
  <path class="hair" fill="#3b2516" d="M180.412 206.199c4.777-.293 7.514-5.125 11.32-7.493 3.654 1.357 7.435-1.868 8.4-5.1.73-3.7 2.771-8.564.915-12.288 1.97-.748 2.697-1.168 1.857-3.515-.512-1.946 3.048-6.68-.8-5.598-4.004-1.599-9.728.176-13.931-1.123-3.982-1.276-8.873-1.688-12.952-1.498-4.414.95-5.283.518-9.674.821-5.81.747-14.245.628-19.955 1.959-3.418 1.715-7.21 2.391-10.323 4.047-1.92-.456-5.843-.402-2.864 2.383.697 3.947-.244 8.267 2.815 11.57 2.84 3.018 5.014 6.657 8.42 9.184 3.81 1.911 7.589 3.974 11.225 6.228 2.784-.424 5.383-3.482 8.119-1.763 1.274-3.637 7.31-.649 10.5-1.28-.438 4.004 3.588 5.18 6.928 3.466zm-8.741 15.54c-3.413-2.364-7.938-1.546-11.821-1.449-5.147.196-7.76.039-12.717-1.275-3.253-3.37-9.661-1.163-11.723-4.26-3.806-2.156-6.693-4.117-8.834-8.1-3.494-2.396-5.139-7.126-8.688-9.554-.313-4.46-5.94-7.218-2.67-11.495 1.827-.272 7.273 4.338 5.97-.004.881-1.943 1.308-4.785 2.132-6.113-2.022-2.736-5.017-7.522-1.825-10.109 2.467-3.088 7.164-2.488 9.991-3.302 1.75 2.208 4.227-.156 5.895-.087 3.23-.28 6.882.752 10.508.087 3.987-1.018 7.734-.397 11.217.923 3.978 1.687 7.922.601 11.928-.046 1.967.26 4.14.347 5.563-.578 1.063-.69 1.538-2.155 2.114-3.402 2.994.19 7.282-.58 9.427 1.143 1.966-2.728 5.387-3.886 8.195-2.142.593 1.307.875 2.333 1.57 2.292.863-.052 2.19-1.342 3.477-.963.983 1.38 2.192 1.671 3.136 2.05 1.428-.983 4.353-2.709 6.451-.09 2.498 3.26 2.186 6.398 1.371 10.16-.07 2.491 5.667-.672 4.705 3.52 1.302 5.588 7.537.693 9.09 2.184-.936 4.321 1.673 9.83-2.516 13.053-3.66 3.763-7.586 7.24-12.05 9.983-2.695 3.159-3.766 8.323-8.818 8.71-3.895 1.899-7.726 2.975-11.895 4.155-3.35.348-5.298 3.083-8.247 4.1-4.081-.228-7.503 1.135-10.936.61z"/>
  <path d="M180.593 206.017c.679-.185 1.63-.338 2.113-.34.688-.001.998-.164 1.424-.744.3-.408.903-.927 1.342-1.152.925-.475 2.556-1.85 4.644-3.917 1.35-1.335 1.54-1.443 2.269-1.288a25 25 0 0 0 1.95.299c.992.11 1.22.049 1.605-.435 1.021-1.282 1.57-1.72 2.156-1.72.864 0 1.872-1.161 1.872-2.156 0-.437.155-.95.345-1.141.237-.24.305-.699.218-1.474-.106-.947-.037-1.211.434-1.652.53-.497.55-.652.406-2.882-.095-1.443-.051-2.65.11-3.117.226-.655.17-.918-.399-1.897-.363-.625-.605-1.284-.536-1.464.068-.18.55-.429 1.069-.553l.944-.226-.085-1.894c-.076-1.69.197-3.307.849-5.019.11-.292-.083-.336-1.027-.237-.92.096-1.31.013-1.859-.396-.597-.445-1.052-.519-3.235-.522-1.397-.002-3.25-.172-4.117-.378a37.991 37.991 0 0 0-3.332-.596c-.965-.121-2.856-.465-4.203-.765-2.153-.478-2.667-.511-4.267-.271-1.001.15-2.787.27-3.97.267-1.181-.003-3.51.19-5.174.427-2.639.378-3.127.388-3.825.083-.44-.193-1.245-.34-1.788-.327-1.317.031-8.156.732-11.847 1.213-1.629.213-3.961.482-5.183.598a18.17 18.17 0 0 0-5.96 1.632c-.429.198-.95.36-1.159.36-.209 0-.455.123-.548.274-.092.15-.732.537-1.42.859-.961.448-1.5.55-2.315.438-.936-.13-1.12-.07-1.562.494-.715.917-1.15.978-3.058.428-.933-.269-1.79-.43-1.907-.357-.358.223-.235.804.243 1.145.681.488.998 1.24 1.18 2.8.104.896.052 1.749-.146 2.352-.274.837-.25 1.083.211 2.134.287.653.522 1.507.522 1.9 0 1.11 3.45 5.93 4.25 5.938.1.001.36.355.582.787 1.13 2.2 5.388 6.304 7.066 6.807 1.087.326 4.031 1.844 5.255 2.71.679.479 1.803 1.143 2.498 1.476.695.332 1.34.728 1.434.88.093.152.575.277 1.071.277.717 0 1.106-.201 1.898-.982.646-.636 1.408-1.091 2.165-1.294 1.08-.289 1.222-.272 1.902.236 1.088.81 1.435.705 1.68-.51.172-.85.308-1.043.693-.983.264.04 2.035.11 3.936.155 1.9.044 3.985.095 4.634.113 1.043.027 1.209.11 1.445.715.177.455.19.988.035 1.59-.228.892-.218.91.652 1.175a13.24 13.24 0 0 1 1.825.754c.878.453 1.002.46 1.851.097.501-.214 1.466-.54 2.145-.724zm-4.887 2.151c-.84-.537-1.345-.702-1.841-.602-.95.191-2.034-.685-2.034-1.644 0-.392.105-.989.232-1.326l.232-.614-3.132-.158c-1.722-.086-3.483-.213-3.913-.28-.695-.11-.766-.066-.645.399.294 1.134-1.299 2.716-2.215 2.199-.282-.16-.872-.103-1.812.172-1.01.296-1.543.34-1.938.158-.468-.214-.641-.13-1.215.596-.824 1.04-1.434 1.071-2.884.144-.603-.385-2.152-1.226-3.442-1.869a124.723 124.723 0 0 1-3.893-2.027c-.851-.472-1.995-.993-2.542-1.159-1.257-.379-4.524-3.16-4.862-4.138-.139-.401-.644-.974-1.124-1.272-.5-.312-1.09-.997-1.382-1.607-.292-.606-1-1.43-1.647-1.918-.693-.521-1.38-1.34-1.76-2.099-.343-.684-.843-1.558-1.113-1.942-.694-.993-1.916-4.295-1.934-5.23-.01-.433.062-1.596.157-2.583.17-1.76.158-1.813-.587-2.669-.964-1.107-1.236-2.399-.684-3.248.482-.741 1.087-.78 3.644-.239 1.274.27 1.829.302 1.893.108.05-.151.344-.572.654-.935.487-.57.733-.653 1.798-.606.678.03 1.67-.102 2.205-.292.535-.19 1.25-.292 1.589-.227.424.082.853-.082 1.374-.524.417-.353.87-.642 1.006-.642s.88-.336 1.655-.746c1.229-.652 1.663-.747 3.419-.748 1.106 0 3.677-.225 5.713-.5 3.686-.495 3.704-.495 4.106-.005.378.46.562.477 2.961.259 1.407-.128 3.328-.237 4.269-.241.94-.005 2.051-.113 2.468-.24.417-.128 2.011-.424 3.543-.66 3.762-.577 9.593-.25 13.258.745 3.414.927 4.06.996 9.625 1.027 3.122.018 6.028.118 6.457.223.674.164.837.102 1.2-.457.598-.918 1.383-.84 1.936.195.412.771.422.995.12 2.674-.182 1.008-.331 2.962-.332 4.343 0 2.686-.181 3.18-1.313 3.613-.435.167-.543.34-.41.658.1.238.214 1.316.256 2.395.042 1.08.149 2.397.238 2.928.233 1.389-.102 3.413-.657 3.973-.365.368-.415.583-.22.951.14.262.253.713.253 1.004 0 .593-1.408 2.49-1.848 2.49-.156 0-.526.28-.82.621-.296.342-.732.621-.97.62-.24-.001-1.001.614-1.694 1.368-1.204 1.311-1.312 1.37-2.5 1.37-.8 0-1.348-.132-1.547-.373-.377-.458-1.082-.484-1.438-.052-.145.176-.372.808-.505 1.405-.133.596-.445 1.283-.692 1.526-.65.639-2.78 1.723-3.387 1.724-.7 0-2.123.9-2.123 1.341 0 .653-1.443 1.6-2.897 1.9-.782.162-2.057.562-2.834.89-1.804.76-2.076.748-3.475-.146zm-15.845 11.656c1.493-.143 3.322-.474 4.064-.737 1.738-.615 2.247-.598 5.809.19 3.673.811 8.188 1.052 9.056.481.313-.206 1.28-.489 2.148-.629 1.288-.208 1.797-.44 2.76-1.258 1.042-.886 1.327-1.002 2.444-1.002.923 0 1.888-.268 3.58-.994 1.273-.546 3.288-1.222 4.477-1.501a16.152 16.152 0 0 0 4.027-1.556c1.817-1.022 3.696-1.834 5.923-2.561 1.644-.537 2.061-.9 3.166-2.758.556-.935 1.418-2.021 1.916-2.414.498-.393 1.202-1.177 1.565-1.741.823-1.283 2.243-2.696 3.437-3.424.503-.306 1.528-1.179 2.28-1.94.75-.762 2.464-2.39 3.806-3.62 2.97-2.722 3.836-3.992 3.836-5.63 0-.921.121-1.277.556-1.631.482-.394.537-.617.422-1.697-.073-.684-.284-1.48-.469-1.767-.26-.406-.275-.699-.064-1.308.264-.763.256-.777-.271-.483-.992.552-3 1.178-3.804 1.187a1.786 1.786 0 0 1-1.357-.591c-.311-.33-.788-.64-1.06-.69-.374-.068-.493-.286-.493-.9 0-.614-.149-.883-.617-1.119-.44-.221-.64-.55-.697-1.145l-.079-.834-1.86.12c-1.642.106-1.932.058-2.471-.409-.559-.484-.614-.72-.652-2.772-.033-1.787.05-2.381.402-2.926.43-.66.428-.705-.045-1.373-.36-.51-.454-.944-.362-1.67.204-1.59-.356-2.807-1.729-3.758-1.554-1.076-2.756-1.124-3.659-.146-.347.376-.704.997-.794 1.379-.089.382-.33.76-.534.838-.544.21-1.341-.633-1.341-1.419 0-.651-.054-.68-1.296-.7-.713-.01-1.773-.037-2.357-.06-.8-.03-1.208.1-1.659.526-.487.462-.665.51-.964.26-.239-.2-.319-.55-.23-1.002.274-1.378-.936-2.24-2.385-1.7-.335.126-.677.102-.871-.06-.468-.392-2.23.576-3.471 1.904l-1.016 1.088-.958-.333c-.78-.27-.975-.468-1.043-1.055-.12-1.044-.469-1.345-1.557-1.345-.8 0-1.003.105-1.198.622-.227.603-.305.622-2.573.622h-2.34l-.391.83c-.215.458-.782 1.213-1.26 1.68-.853.834-.906.848-3.137.877-2.802.035-6.638.47-7.298.825-.84.453-3.76.325-4.804-.212-1.22-.627-4.146-1.112-5.542-.92-.684.095-1.24.046-1.447-.128-.33-.276-3.45-.193-6.777.181-1.185.134-1.435.088-1.727-.317-.66-.913-5.607-1.359-5.58-.502.049 1.546-.514 1.795-2.562 1.135-.868-.28-1.912-.647-2.32-.816-.48-.2-1.058-.24-1.645-.111-.498.109-1.83.26-2.962.337-1.13.077-2.772.204-3.646.282-1.328.118-1.641.07-1.902-.29-.283-.39-.482-.272-2.113 1.249-.99.923-2.067 2.057-2.394 2.52l-.595.841.686 1.76c.376.968 1.075 2.34 1.552 3.048.954 1.417 1.543 2.671 1.543 3.289 0 .22-.32.722-.71 1.115-.741.747-.72.652-1.21 5.429-.151 1.484-.296 1.917-.765 2.3-.739.603-1.672.6-2.666-.011-.884-.544-3.233-1.05-3.424-.739-.07.113-.058.477.025.81.084.338.03.682-.12.776-.183.114-.103.408.244.9.727 1.027 1.742 3.63 1.93 4.948.147 1.031.294 1.214 2.037 2.534 1.176.89 2.496 2.219 3.529 3.552.907 1.171 1.746 2.13 1.864 2.13.118 0 .337.375.487.833.15.459.77 1.357 1.378 1.996.608.64 1.65 1.918 2.316 2.84.765 1.06 1.604 1.897 2.281 2.274 4.695 2.618 5.875 3.166 6.588 3.06.54-.08.98.073 1.608.555.71.547.955.617 1.369.393.59-.318 2.014.183 2.901 1.023.298.282 1.188.658 1.978.837 4.422.996 8.287 2.161 8.84 2.664.136.123.58.156.988.073.407-.083 1.962-.267 3.455-.41zm11.81 1.915c-.427-.191-.872-.505-.987-.698-.302-.504-5.992-1.008-7.491-.663-1.618.371-8.066.4-9.255.042-.543-.164-1.876-.399-2.962-.522-1.086-.124-3.03-.466-4.32-.762-1.936-.444-2.465-.67-3.04-1.301-.663-.728-.717-.744-1.163-.338-.388.354-.74.397-2.08.252-1.343-.145-1.786-.319-2.638-1.036a18.305 18.305 0 0 0-2.16-1.52 53.261 53.261 0 0 1-2.507-1.582c-.754-.508-1.754-1.088-2.221-1.289-.992-.425-1.561-1.037-2.71-2.916-.95-1.553-2.537-3.234-3.053-3.234-.339 0-1.095-.93-3.355-4.129-.614-.869-1.64-1.923-2.294-2.358-1.495-.995-2.307-2.07-2.524-3.338-.446-2.619-1.148-4.508-2.072-5.575-.984-1.138-1.104-2.194-.456-4.002.485-1.35.682-1.629 1.2-1.69.381-.046.794.12 1.076.434.251.28.745.515 1.097.52.568.01 1.481.288 2.783.847.372.16.387.084.143-.718-.237-.777-.2-1.027.286-1.898.478-.856.535-1.214.393-2.448-.158-1.368-.13-1.475.502-1.976l.669-.53-.88-1.308c-1.08-1.606-2.013-4.593-1.796-5.756.227-1.221 1.448-2.925 2.79-3.895.65-.469 1.583-1.219 2.075-1.666.88-.8.92-.81 2.428-.601 1.393.192 1.612.158 2.387-.372 1.115-.763 1.417-.738 2.131.182l.595.767 1.706-.207c1.508-.183 1.715-.272 1.785-.767.114-.81.811-1.106 1.81-.767.454.154.975.398 1.158.543.246.194.394.153.568-.16.324-.584 2.187-.56 3.367.045 1.321.676 3.697 1.13 4.342.828.793-.37 4.481-.8 6.873-.8 1.607 0 2.224.096 2.517.391.213.215.388.495.388.622s.4.231.89.231c.87 0 3.663.546 5.174 1.01 1.264.39 3.41.274 4.58-.247.763-.34 1.876-.52 3.794-.611 4.224-.203 4.976-.354 5.777-1.162.388-.39.779-1.105.868-1.588.09-.486.376-.992.638-1.134.261-.14 1.673-.235 3.137-.209 1.464.026 3.217-.038 3.895-.144 1.13-.175 1.284-.137 1.826.447l.592.639.952-.96c.524-.529 1.369-1.168 1.877-1.42 1.228-.613 3.531-.63 4.187-.031.263.24.704.435.98.435.709 0 1.718.867 1.91 1.641.149.595.202.62.584.278.231-.207.853-.495 1.38-.64 1.046-.286 1.686-.087 2.098.652.15.27.537.432 1.03.432.716 0 .899.143 1.387 1.083.025.048.49-.273 1.033-.713 1.927-1.56 4.186-1.155 6.156 1.107.68.78 1.276 2.208 1.28 3.065 0 .172.334.777.741 1.344.875 1.217.928 1.892.22 2.8-.46.589-.501.86-.347 2.304l.174 1.637 1.376-.143c1.821-.19 2.213.056 2.409 1.51.22 1.638.778 2.797 1.345 2.797.256 0 .631.168.835.373.465.47 1.244.48 1.62.025.157-.192.588-.423.955-.512.368-.09 1.126-.384 1.685-.653 1.875-.903 2.966.171 2.334 2.297-.213.717-.225 1.342-.041 2.279.38 1.943.212 5.852-.293 6.806-.579 1.094-1.948 2.639-4.127 4.655-1.018.943-2.59 2.418-3.491 3.279-.902.86-2.187 1.844-2.854 2.185-.667.34-1.366.804-1.552 1.03-.186.226-.744.62-1.242.876-.985.506-2.46 2.055-2.46 2.582 0 .586-1.962 3.986-2.687 4.657-.387.358-1.245.847-1.908 1.087l-2.563.927c-.747.27-1.691.665-2.098.877-3.432 1.786-4.687 2.319-6.294 2.673-1.018.224-2.877.848-4.132 1.387-1.254.539-2.493.98-2.752.98-.273 0-.677.35-.96.836-.287.488-1.092 1.186-1.938 1.678l-1.448.843-5.43.06c-4.223.047-5.602-.017-6.207-.288z"/>
</svg>
