<?xml version="1.0" encoding="UTF-8" standalone="no"?>
<!-- Created with Inkscape (http://www.inkscape.org/) -->

<svg
   xmlns:dc="http://purl.org/dc/elements/1.1/"
   xmlns:cc="http://creativecommons.org/ns#"
   xmlns:rdf="http://www.w3.org/1999/02/22-rdf-syntax-ns#"
   xmlns:svg="http://www.w3.org/2000/svg"
   xmlns="http://www.w3.org/2000/svg"
   xmlns:sodipodi="http://sodipodi.sourceforge.net/DTD/sodipodi-0.dtd"
   xmlns:inkscape="http://www.inkscape.org/namespaces/inkscape"
   width="338.15475mm"
   height="415.26193mm"
   viewBox="0 0 338.15475 415.26193"
   version="1.1"
   id="svg8"
   inkscape:version="0.92.3 (2405546, 2018-03-11)"
   sodipodi:docname="Facialhair04.svg">
  <defs
     id="defs2" />
  <sodipodi:namedview
     id="base"
     pagecolor="#ffffff"
     bordercolor="#666666"
     borderopacity="1.0"
     inkscape:pageopacity="0.0"
     inkscape:pageshadow="2"
     inkscape:zoom="0.7"
     inkscape:cx="666.55256"
     inkscape:cy="899.41252"
     inkscape:document-units="mm"
     inkscape:current-layer="layer1"
     showgrid="false"
     inkscape:window-width="1920"
     inkscape:window-height="1001"
     inkscape:window-x="-9"
     inkscape:window-y="-9"
     inkscape:window-maximized="1"
     inkscape:snap-global="true"
     showguides="true"
     fit-margin-top="0"
     fit-margin-left="0"
     fit-margin-right="0"
     fit-margin-bottom="0" />
  <metadata
     id="metadata5">
    <rdf:RDF>
      <cc:Work
         rdf:about="">
        <dc:format>image/svg+xml</dc:format>
        <dc:type
           rdf:resource="http://purl.org/dc/dcmitype/StillImage" />
        <dc:title />
      </cc:Work>
    </rdf:RDF>
  </metadata>
  <g
     inkscape:label="Ebene 1"
     inkscape:groupmode="layer"
     id="layer1"
     transform="translate(1355.1667,-269.28568)">
    <rect
       style="opacity:1;fill:none;fill-opacity:1;fill-rule:evenodd;stroke:none;stroke-width:0.99999988;stroke-linecap:round;stroke-linejoin:miter;stroke-miterlimit:4;stroke-dasharray:none;stroke-dashoffset:0;stroke-opacity:1;paint-order:stroke fill markers"
       id="rect1307"
       width="337.15475"
       height="414.26193"
       x="-1354.6667"
       y="269.78568"
       inkscape:label="Frame" />
    <path
       id="path1385"
       style="fill:#aa4400;fill-opacity:1;stroke-width:0.99999994"
       d="m -1174.7542,475.48436 c 4.7766,-0.29316 7.5134,-5.12512 11.3192,-7.49253 3.6544,1.3572 7.4349,-1.86779 8.4002,-5.10106 0.7297,-3.6988 2.7716,-8.56265 0.9154,-12.28716 1.9688,-0.7484 2.6963,-1.1682 1.8571,-3.51467 -0.5123,-1.94621 3.0473,-6.67984 -0.8003,-5.59867 -4.0045,-1.59863 -9.7284,0.17655 -13.9313,-1.12258 -3.9818,-1.27608 -8.8723,-1.68793 -12.9513,-1.49768 -4.4145,0.94963 -5.2836,0.51807 -9.6748,0.82098 -5.8105,0.74651 -14.2446,0.62733 -19.9542,1.95857 -3.418,1.71526 -7.2106,2.39132 -10.3237,4.0476 -1.9196,-0.45651 -5.843,-0.40261 -2.8633,2.38213 0.6962,3.94788 -0.2444,8.26781 2.8149,11.57085 2.8404,3.01765 5.0136,6.6569 8.4203,9.18326 3.8093,1.91128 7.588,3.97417 11.2243,6.22801 2.7838,-0.42388 5.3831,-3.48156 8.1188,-1.76242 1.2746,-3.63707 7.3097,-0.64934 10.5006,-1.28046 -0.4381,4.00378 3.5874,5.1807 6.9281,3.46583 z m -8.7415,15.54057 c -3.4127,-2.36425 -7.9378,-1.5459 -11.8213,-1.44904 -5.1465,0.19591 -7.7604,0.0385 -12.7162,-1.27537 -3.2531,-3.3699 -9.6616,-1.16258 -11.7237,-4.25973 -3.8055,-2.15602 -6.693,-4.11708 -8.8341,-8.09931 -3.4941,-2.397 -5.1383,-7.12669 -8.6879,-9.55467 -0.3129,-4.45951 -5.9395,-7.21853 -2.6691,-11.49532 1.8268,-0.27204 7.2724,4.33793 5.9691,-0.004 0.8812,-1.94322 1.3078,-4.7851 2.1325,-6.11303 -2.0226,-2.73623 -5.017,-7.52159 -1.8253,-10.10843 2.4666,-3.08816 7.1638,-2.48789 9.9914,-3.30274 1.7495,2.20819 4.2262,-0.15523 5.895,-0.0864 3.2299,-0.27934 6.8817,0.75133 10.5079,0.0869 3.9872,-1.01788 7.7335,-0.39683 11.2172,0.92246 3.9773,1.68775 7.9217,0.60166 11.9273,-0.0456 1.967,0.2606 4.1399,0.34693 5.5629,-0.57779 1.0631,-0.69085 1.5381,-2.15479 2.1143,-3.40176 2.9937,0.18963 7.2816,-0.58013 9.4275,1.14251 1.9655,-2.72761 5.3862,-3.88573 8.1944,-2.1419 0.5932,1.30714 0.8748,2.33339 1.5693,2.29188 0.8641,-0.0517 2.19,-1.34192 3.4777,-0.96268 0.9833,1.37962 2.1919,1.67109 3.1364,2.04899 1.428,-0.98234 4.3528,-2.70811 6.451,-0.0887 2.4981,3.25913 2.1858,6.39747 1.3709,10.1604 -0.071,2.49027 5.6669,-0.67329 4.7053,3.51932 1.3013,5.58791 7.5361,0.69233 9.0893,2.18418 -0.936,4.32062 1.6735,9.83031 -2.5158,13.05223 -3.6603,3.76318 -7.5863,7.24118 -12.0496,9.98328 -2.6949,3.15895 -3.7666,8.323 -8.8185,8.71063 -3.8946,1.89799 -7.7261,2.97399 -11.8953,4.15395 -3.3492,0.34841 -5.2971,3.08314 -8.2461,4.10035 -4.0816,-0.22825 -7.5032,1.13545 -10.9365,0.60949 z"
       inkscape:connector-curvature="0"
       inkscape:label="Bart"
       sodipodi:nodetypes="cccccccccccccccccccccccccccccccccsccccccccccccccccc" />
    <path
       id="path1036-2"
       style="fill:#000000;stroke-width:0.99999994"
       d="m -1174.5735,475.30227 c 0.6787,-0.18471 1.6296,-0.33716 2.1132,-0.33878 0.6877,-0.002 0.9976,-0.16457 1.4235,-0.7451 0.2994,-0.40818 0.9034,-0.92646 1.3421,-1.15172 0.9253,-0.47507 2.5564,-1.85065 4.6442,-3.91684 1.3491,-1.3352 1.5396,-1.44337 2.2685,-1.28813 0.4377,0.0932 1.3157,0.22771 1.9511,0.2989 0.991,0.111 1.2193,0.0491 1.6043,-0.43444 1.0212,-1.28264 1.5698,-1.72057 2.1554,-1.72057 0.8643,0 1.8723,-1.16092 1.8723,-2.15625 0,-0.43627 0.1551,-0.94958 0.3447,-1.14068 0.2373,-0.23913 0.3055,-0.69875 0.2188,-1.47421 -0.1059,-0.94635 -0.037,-1.21085 0.4334,-1.65206 0.5295,-0.49707 0.5512,-0.65187 0.406,-2.8815 -0.095,-1.44331 -0.051,-2.65091 0.1095,-3.11686 0.2267,-0.65544 0.1716,-0.91785 -0.398,-1.89738 -0.3635,-0.62521 -0.6048,-1.28403 -0.5364,-1.46404 0.068,-0.18 0.5497,-0.42889 1.069,-0.55309 l 0.9444,-0.22581 -0.085,-1.89441 c -0.076,-1.69001 0.1967,-3.30674 0.8483,-5.01841 0.1113,-0.29197 -0.082,-0.33656 -1.0265,-0.23733 -0.9196,0.0965 -1.3092,0.0136 -1.8588,-0.39595 -0.5976,-0.44536 -1.0521,-0.51866 -3.2351,-0.52182 -1.3969,-0.002 -3.2494,-0.17227 -4.1168,-0.37833 -0.8673,-0.20604 -2.3667,-0.47397 -3.3319,-0.59538 -0.9652,-0.12141 -2.8568,-0.46567 -4.2032,-0.76503 -2.1532,-0.47871 -2.6674,-0.51143 -4.2676,-0.27155 -1.0006,0.14999 -2.7866,0.27038 -3.9688,0.26753 -1.1823,-0.003 -3.5107,0.18933 -5.1745,0.42708 -2.6389,0.37711 -3.1271,0.38759 -3.8256,0.0821 -0.4403,-0.19263 -1.2449,-0.33961 -1.7879,-0.32664 -1.3165,0.0315 -8.156,0.73187 -11.8468,1.21321 -1.629,0.21242 -3.9614,0.48155 -5.1831,0.59804 -2.0515,0.19562 -4.0274,0.73639 -5.9608,1.63137 -0.4277,0.19802 -0.9486,0.36004 -1.1577,0.36004 -0.209,0 -0.4558,0.12344 -0.5483,0.27431 -0.092,0.15087 -0.7319,0.53748 -1.4206,0.85913 -0.9605,0.44847 -1.5001,0.55063 -2.3144,0.43816 -0.9364,-0.12936 -1.1208,-0.0709 -1.5619,0.49428 -0.7155,0.91669 -1.1502,0.9775 -3.0578,0.42768 -0.933,-0.26888 -1.7913,-0.42959 -1.9076,-0.35715 -0.358,0.22295 -0.2348,0.80368 0.243,1.14539 0.6812,0.48721 0.9981,1.23901 1.18,2.79881 0.1046,0.89664 0.052,1.74978 -0.1457,2.3528 -0.2741,0.83716 -0.2498,1.08279 0.2114,2.13355 0.2866,0.6531 0.5212,1.50796 0.5212,1.89967 0,1.11116 3.45,5.93106 4.2511,5.939 0.099,9.4e-4 0.36,0.35492 0.5815,0.78655 1.1293,2.20117 5.3882,6.30416 7.0658,6.80726 1.0867,0.32587 4.031,1.84378 5.2549,2.70908 0.6787,0.47986 1.8029,1.14434 2.4981,1.47662 0.6954,0.33229 1.3406,0.72859 1.4338,0.88066 0.093,0.15209 0.5753,0.27653 1.0713,0.27653 0.7168,0 1.1057,-0.20107 1.8982,-0.98159 0.646,-0.63635 1.4072,-1.09149 2.1642,-1.29405 1.0809,-0.28929 1.2221,-0.27184 1.9027,0.23533 1.0878,0.81056 1.4348,0.70536 1.68,-0.50936 0.1716,-0.85021 0.3073,-1.04273 0.6932,-0.9833 0.2639,0.0406 2.0348,0.11038 3.9352,0.15497 1.9005,0.0445 3.9857,0.0953 4.6339,0.11268 1.0431,0.0279 1.209,0.11009 1.4453,0.71565 0.1775,0.45495 0.1894,0.98747 0.035,1.59 -0.2279,0.8915 -0.2175,0.91022 0.6526,1.17464 0.4861,0.1478 1.3073,0.48713 1.8246,0.75407 0.8781,0.45298 1.0015,0.45944 1.8511,0.0969 0.5008,-0.21362 1.4658,-0.53954 2.1445,-0.72424 z m -4.8871,2.1518 c -0.8402,-0.53702 -1.3456,-0.70239 -1.8416,-0.60244 -0.949,0.19131 -2.0331,-0.68535 -2.0331,-1.64421 0,-0.39161 0.1042,-0.98825 0.2316,-1.3259 l 0.2316,-0.6139 -3.1317,-0.15767 c -1.7223,-0.0867 -3.4829,-0.21279 -3.9125,-0.28017 -0.6958,-0.10916 -0.7661,-0.0657 -0.6457,0.3986 0.2944,1.13449 -1.2986,2.71596 -2.2151,2.19905 -0.2821,-0.15905 -0.8714,-0.10293 -1.8114,0.1725 -1.0106,0.29611 -1.5432,0.33948 -1.9386,0.15787 -0.4673,-0.21461 -0.6409,-0.12955 -1.215,0.59555 -0.8239,1.04069 -1.4333,1.07128 -2.8834,0.14478 -0.6034,-0.38562 -2.1522,-1.22685 -3.4419,-1.86941 -1.2895,-0.64254 -3.0414,-1.55462 -3.893,-2.02685 -0.8516,-0.47222 -1.9956,-0.99364 -2.5423,-1.15873 -1.2566,-0.37944 -4.5235,-3.16039 -4.8619,-4.13868 -0.1388,-0.4011 -0.6445,-0.9736 -1.1239,-1.27221 -0.5,-0.31141 -1.0895,-0.99645 -1.3825,-1.60646 -0.2913,-0.60657 -0.999,-1.43086 -1.647,-1.91843 -0.6924,-0.52104 -1.3796,-1.3406 -1.7596,-2.09863 -0.3429,-0.68406 -0.8436,-1.55821 -1.1127,-1.94255 -0.6944,-0.99201 -1.9161,-4.29433 -1.9345,-5.22937 -0.01,-0.43343 0.062,-1.59595 0.1576,-2.5834 0.1698,-1.75898 0.1578,-1.81307 -0.5875,-2.66873 -0.964,-1.10656 -1.236,-2.39875 -0.6838,-3.24822 0.4817,-0.74093 1.0871,-0.78058 3.6434,-0.23862 1.274,0.27013 1.8291,0.30169 1.8933,0.10768 0.05,-0.15096 0.3443,-0.57169 0.6544,-0.93494 0.4863,-0.56977 0.7331,-0.65303 1.7973,-0.60636 0.6785,0.0297 1.671,-0.10145 2.2058,-0.29158 0.5346,-0.19013 1.2495,-0.29223 1.5886,-0.22691 0.4237,0.0816 0.8534,-0.0822 1.3742,-0.52374 0.4166,-0.35339 0.8692,-0.64253 1.0054,-0.64253 0.1364,0 0.8813,-0.33581 1.6554,-0.74624 1.2288,-0.65149 1.6631,-0.74643 3.4188,-0.74765 1.106,-7.6e-4 3.6771,-0.22535 5.7133,-0.4991 3.6857,-0.4955 3.7038,-0.49552 4.1054,-0.006 0.3785,0.4607 0.562,0.47673 2.9617,0.25872 1.4072,-0.12783 3.328,-0.23618 4.2686,-0.24078 0.9406,-0.005 2.0513,-0.11263 2.4682,-0.24004 0.4167,-0.1274 2.011,-0.4241 3.5427,-0.65932 3.7625,-0.57782 9.5934,-0.25045 13.2579,0.74432 3.4142,0.92685 4.0604,0.99584 9.6256,1.02774 3.1221,0.0178 6.0276,0.11805 6.4569,0.22259 0.6741,0.16423 0.8372,0.10216 1.2006,-0.45681 0.5972,-0.91845 1.3827,-0.83933 1.9355,0.19491 0.4119,0.77121 0.422,0.99535 0.1193,2.67404 -0.1817,1.00776 -0.331,2.96216 -0.3319,4.34312 0,2.68562 -0.1811,3.17941 -1.3124,3.61287 -0.4352,0.16679 -0.5431,0.33987 -0.4105,0.65815 0.1,0.23752 0.2143,1.31526 0.2562,2.39498 0.042,1.0797 0.1488,2.39714 0.2378,2.92761 0.2328,1.38909 -0.1017,3.41357 -0.6563,3.97262 -0.3654,0.36827 -0.4152,0.58382 -0.22,0.95157 0.1389,0.26149 0.2524,0.71324 0.2524,1.00387 0,0.59273 -1.4077,2.48926 -1.8477,2.48926 -0.1566,0 -0.526,0.27984 -0.8209,0.62187 -0.2951,0.34203 -0.7316,0.62097 -0.9701,0.61987 -0.2384,-9.4e-4 -1.0002,0.61454 -1.6927,1.36811 -1.2047,1.31092 -1.3128,1.37013 -2.4997,1.37013 -0.8015,0 -1.3491,-0.13203 -1.5476,-0.37313 -0.377,-0.45791 -1.0826,-0.48362 -1.4377,-0.0524 -0.1453,0.1764 -0.3729,0.80879 -0.5059,1.40531 -0.133,0.59652 -0.4442,1.28335 -0.6917,1.52631 -0.6503,0.63855 -2.7801,1.72247 -3.3866,1.72355 -0.6995,9.4e-4 -2.1228,0.90067 -2.1228,1.34142 0,0.65308 -1.4432,1.59958 -2.8976,1.90025 -0.7819,0.16165 -2.0569,0.5616 -2.8335,0.88877 -1.8044,0.76037 -2.076,0.749 -3.4752,-0.14535 z m -15.845,11.65544 c 1.4932,-0.14234 3.322,-0.47374 4.0638,-0.73642 1.7377,-0.6153 2.247,-0.59874 5.8087,0.18872 3.673,0.81211 8.1881,1.05237 9.0564,0.48191 0.313,-0.20563 1.2797,-0.4886 2.1482,-0.6288 1.2875,-0.20784 1.7971,-0.44014 2.7592,-1.2578 1.0425,-0.88601 1.3274,-1.00289 2.4442,-1.00289 0.9233,0 1.8884,-0.26784 3.5799,-0.99343 1.2737,-0.54639 3.2885,-1.22199 4.4772,-1.50135 1.3672,-0.32126 2.8469,-0.89316 4.0269,-1.55625 1.8175,-1.02131 3.6963,-1.83357 5.9231,-2.56072 1.6447,-0.53709 2.0616,-0.9002 3.1661,-2.75749 0.5561,-0.93505 1.4183,-2.02156 1.9161,-2.41446 0.4978,-0.39291 1.202,-1.17647 1.5648,-1.74124 0.8237,-1.28233 2.2432,-2.69592 3.4374,-3.42315 0.5024,-0.30602 1.5282,-1.17933 2.2795,-1.94067 0.7513,-0.76134 2.4642,-2.39038 3.8066,-3.62007 2.9705,-2.72123 3.8361,-3.99162 3.8361,-5.63043 0,-0.92041 0.1211,-1.27582 0.5553,-1.63035 0.482,-0.3936 0.5377,-0.61733 0.4224,-1.69711 -0.073,-0.68405 -0.284,-1.47918 -0.4687,-1.76695 -0.2608,-0.40622 -0.2751,-0.69869 -0.064,-1.30817 0.2638,-0.76287 0.2561,-0.77646 -0.2718,-0.48271 -0.9917,0.55176 -3.0001,1.17836 -3.8035,1.18659 -0.5233,0.006 -0.9841,-0.19521 -1.3574,-0.59091 -0.3109,-0.32948 -0.7875,-0.63979 -1.059,-0.68957 -0.3741,-0.0686 -0.4936,-0.28651 -0.4936,-0.89947 0,-0.61424 -0.1485,-0.88371 -0.617,-1.11954 -0.4401,-0.22149 -0.64,-0.54991 -0.6968,-1.14489 l -0.079,-0.83431 -1.8604,0.12033 c -1.6417,0.10619 -1.9321,0.0582 -2.471,-0.40896 -0.5584,-0.48415 -0.614,-0.72055 -0.6513,-2.77205 -0.033,-1.7868 0.05,-2.38162 0.402,-2.92579 0.4287,-0.66118 0.4273,-0.70512 -0.045,-1.3731 -0.3609,-0.51086 -0.4549,-0.94477 -0.362,-1.67085 0.2036,-1.59026 -0.3563,-2.80682 -1.7292,-3.75735 -1.5541,-1.0759 -2.7565,-1.12396 -3.659,-0.14625 -0.3473,0.37623 -0.7045,0.99668 -0.7939,1.37877 -0.089,0.38209 -0.3301,0.75947 -0.5347,0.83861 -0.5439,0.21036 -1.3409,-0.63312 -1.3409,-1.41919 0,-0.65119 -0.054,-0.6802 -1.2957,-0.69926 -0.7127,-0.0109 -1.7735,-0.0379 -2.3572,-0.0599 -0.8004,-0.0302 -1.2083,0.0991 -1.6587,0.52558 -0.4871,0.46116 -0.6651,0.5089 -0.9644,0.25862 -0.2387,-0.19977 -0.3188,-0.54938 -0.2291,-1.00113 0.2734,-1.37814 -0.9362,-2.2396 -2.3858,-1.69913 -0.3353,0.12504 -0.6768,0.10083 -0.8712,-0.0616 -0.4675,-0.39111 -2.23,0.57638 -3.4707,1.90516 l -1.0157,1.08785 -0.9588,-0.33294 c -0.7788,-0.27046 -0.9744,-0.46858 -1.0424,-1.05576 -0.1205,-1.04367 -0.469,-1.34468 -1.557,-1.34468 -0.8002,0 -1.0028,0.10517 -1.1977,0.62186 -0.2275,0.60296 -0.3057,0.62188 -2.5739,0.62188 h -2.3391 l -0.3914,0.83113 c -0.2152,0.45713 -0.782,1.2127 -1.2595,1.67906 -0.8538,0.83381 -0.9061,0.8484 -3.1374,0.87688 -2.8024,0.0357 -6.6385,0.46946 -7.2977,0.82503 -0.841,0.45357 -3.7598,0.32489 -4.8041,-0.21179 -1.2202,-0.62691 -4.1461,-1.11232 -5.5424,-0.91945 -0.6842,0.0945 -1.239,0.0455 -1.4465,-0.12813 -0.3309,-0.27684 -3.4497,-0.19352 -6.777,0.18103 -1.1855,0.13344 -1.435,0.0876 -1.7276,-0.31702 -0.6605,-0.91345 -5.6066,-1.35898 -5.58,-0.50261 0.049,1.546 -0.5139,1.79516 -2.5619,1.1356 -0.8684,-0.27968 -1.9121,-0.6472 -2.3194,-0.81669 -0.4803,-0.19992 -1.0583,-0.23877 -1.6456,-0.11062 -0.4979,0.10865 -1.8307,0.26044 -2.9618,0.33732 -1.131,0.0769 -2.7719,0.20348 -3.6462,0.28138 -1.328,0.11828 -1.6413,0.0707 -1.9023,-0.28909 -0.283,-0.39015 -0.482,-0.2726 -2.1124,1.24826 -0.9899,0.92342 -2.0673,2.0575 -2.3943,2.52018 l -0.5945,0.84121 0.6852,1.76002 c 0.3767,0.96802 1.0753,2.33942 1.5523,3.04756 0.9542,1.41678 1.543,2.67162 1.543,3.28867 0,0.22015 -0.3195,0.72224 -0.71,1.11577 -0.7412,0.74709 -0.7198,0.65125 -1.2093,5.42829 -0.1521,1.48463 -0.2962,1.91782 -0.7656,2.30092 -0.7388,0.60286 -1.6719,0.59867 -2.6656,-0.012 -0.8849,-0.5439 -3.2332,-1.05019 -3.4245,-0.73834 -0.069,0.11241 -0.058,0.47716 0.025,0.81056 0.084,0.33753 0.031,0.68106 -0.1204,0.77515 -0.1823,0.11363 -0.1022,0.4082 0.2448,0.89935 0.7264,1.02814 1.7413,3.63096 1.9295,4.94829 0.1474,1.03171 0.2941,1.21411 2.0371,2.5342 1.1757,0.89029 2.4958,2.21929 3.5286,3.5523 0.9075,1.17141 1.7465,2.12983 1.8644,2.12983 0.1179,0 0.337,0.37506 0.4872,0.83345 0.1501,0.4584 0.7703,1.35666 1.3783,1.99612 0.6079,0.63948 1.65,1.91736 2.3157,2.83976 0.7652,1.06048 1.604,1.89664 2.2813,2.27421 4.6945,2.61727 5.8744,3.16538 6.5875,3.0599 0.5394,-0.0799 0.9804,0.0724 1.6081,0.55498 0.7107,0.54636 0.9548,0.61645 1.3689,0.39312 0.591,-0.31877 2.0143,0.18289 2.9011,1.02253 0.2978,0.28208 1.188,0.65855 1.9778,0.83658 4.4221,0.99671 8.2867,2.16147 8.8405,2.66441 0.1357,0.12329 0.5801,0.15634 0.9873,0.0734 0.4072,-0.0829 1.9621,-0.26719 3.4553,-0.40953 z m 11.8099,1.91542 c -0.4275,-0.19152 -0.8718,-0.50574 -0.9871,-0.69826 -0.3021,-0.50383 -5.9915,-1.00758 -7.4909,-0.66327 -1.6182,0.37157 -8.0663,0.40094 -9.2554,0.0422 -0.543,-0.16385 -1.8757,-0.39882 -2.9617,-0.52216 -1.0859,-0.12333 -3.0295,-0.46619 -4.3192,-0.76192 -1.9369,-0.44418 -2.4656,-0.67045 -3.0404,-1.30116 -0.6632,-0.72772 -0.7176,-0.74352 -1.1629,-0.3373 -0.3883,0.35405 -0.7405,0.3967 -2.0812,0.252 -1.3427,-0.14493 -1.7857,-0.3189 -2.6373,-1.03607 -0.5631,-0.47402 -1.5348,-1.15791 -2.1594,-1.51975 -0.6248,-0.36184 -1.753,-1.07388 -2.5072,-1.5823 -0.7542,-0.50842 -1.7538,-1.08846 -2.2213,-1.28897 -0.9923,-0.42558 -1.5611,-1.03765 -2.71,-2.91616 -0.9499,-1.55345 -2.5366,-3.23374 -3.0534,-3.23374 -0.3384,0 -1.0946,-0.93078 -3.3547,-4.1289 -0.6142,-0.86906 -1.6394,-1.92337 -2.2935,-2.35861 -1.4953,-0.995 -2.3077,-2.06948 -2.5239,-3.33807 -0.4462,-2.61845 -1.1484,-4.50771 -2.072,-5.57521 -0.9841,-1.13745 -1.1045,-2.19385 -0.456,-4.00161 0.4844,-1.35063 0.6819,-1.62903 1.1988,-1.69082 0.3818,-0.0456 0.7943,0.12119 1.0764,0.43531 0.2514,0.2801 0.7455,0.51418 1.0977,0.52019 0.5672,0.009 1.4808,0.28746 2.7831,0.84614 0.3713,0.15929 0.3862,0.0838 0.1423,-0.71733 -0.2368,-0.7776 -0.1991,-1.02724 0.2866,-1.8982 0.4774,-0.85601 0.5348,-1.21459 0.3928,-2.44866 -0.1577,-1.368 -0.1306,-1.47431 0.5019,-1.97578 l 0.6686,-0.52999 -0.8796,-1.30759 c -1.0806,-1.60648 -2.0126,-4.59323 -1.796,-5.75634 0.2273,-1.22128 1.4478,-2.92497 2.7898,-3.89463 0.6495,-0.46926 1.5834,-1.21895 2.0754,-1.66598 0.8802,-0.79968 0.9194,-0.80938 2.428,-0.60147 1.3924,0.19194 1.6114,0.15779 2.3865,-0.37232 1.1155,-0.76301 1.4169,-0.73716 2.1313,0.1829 l 0.5952,0.76656 1.7057,-0.20687 c 1.5075,-0.18285 1.7148,-0.27195 1.7846,-0.76711 0.1142,-0.81032 0.8115,-1.10606 1.8095,-0.76742 0.4545,0.15425 0.976,0.39885 1.1588,0.54355 0.2456,0.19433 0.3939,0.15239 0.5677,-0.16046 0.3242,-0.58394 2.187,-0.55897 3.3672,0.0451 1.3216,0.67645 3.6972,1.12972 4.342,0.82842 0.7928,-0.37048 4.4815,-0.79962 6.8733,-0.79962 1.6065,0 2.2243,0.0959 2.517,0.39089 0.2133,0.21498 0.3878,0.49483 0.3878,0.62188 0,0.12703 0.4007,0.23097 0.8903,0.23097 0.8699,0 3.6628,0.54545 5.1742,1.01051 1.2635,0.38885 3.4097,0.27275 4.5787,-0.24771 0.7635,-0.33992 1.8765,-0.51917 3.7953,-0.61126 4.2234,-0.20272 4.9757,-0.35398 5.777,-1.16157 0.3875,-0.39059 0.7781,-1.10532 0.868,-1.58828 0.09,-0.48584 0.3754,-0.99246 0.638,-1.13405 0.261,-0.14078 1.6722,-0.23464 3.1362,-0.20861 1.4639,0.026 3.217,-0.0388 3.8958,-0.14406 1.13,-0.17529 1.2839,-0.13763 1.8256,0.44704 l 0.5915,0.63847 0.9528,-0.96021 c 0.524,-0.52812 1.3685,-1.16733 1.8765,-1.42046 1.2284,-0.61198 3.5314,-0.62855 4.1876,-0.0301 0.2625,0.23943 0.7034,0.43532 0.9798,0.43532 0.7085,0 1.7179,0.86688 1.9106,1.64085 0.1482,0.59471 0.2008,0.61976 0.5831,0.27741 0.2312,-0.20697 0.8526,-0.49477 1.381,-0.63955 1.0452,-0.28636 1.6853,-0.0872 2.0972,0.65214 0.1502,0.26976 0.5373,0.43226 1.0296,0.43226 0.7159,0 0.8989,0.14279 1.3876,1.08215 0.025,0.0479 0.4898,-0.27283 1.0331,-0.71281 1.9268,-1.56063 4.1852,-1.15455 6.1551,1.10684 0.6804,0.78097 1.2762,2.20808 1.2801,3.06563 7e-4,0.17221 0.3345,0.77668 0.7418,1.34326 0.8748,1.2171 0.9276,1.89225 0.2194,2.7998 -0.46,0.58931 -0.5008,0.85975 -0.3472,2.30469 l 0.174,1.63704 1.3759,-0.14311 c 1.8218,-0.18952 2.2132,0.0557 2.4093,1.50927 0.2209,1.63851 0.7786,2.79777 1.3455,2.79777 0.2555,0 0.6311,0.16792 0.8346,0.37313 0.4653,0.46894 1.2439,0.48067 1.6195,0.0245 0.1579,-0.1918 0.5881,-0.42224 0.9558,-0.5121 0.3676,-0.0899 1.126,-0.38351 1.685,-0.65258 1.8751,-0.90251 2.9656,0.17105 2.3335,2.29726 -0.2131,0.7167 -0.2244,1.34157 -0.041,2.27839 0.38,1.9438 0.2119,5.85216 -0.2928,6.80626 -0.5787,1.09403 -1.9482,2.63893 -4.1268,4.65544 -1.018,0.94236 -2.5892,2.41776 -3.4914,3.27868 -0.9022,0.86091 -2.1865,1.84417 -2.8538,2.185 -0.6673,0.34083 -1.3656,0.80452 -1.5516,1.03041 -0.186,0.22589 -0.7448,0.6198 -1.242,0.87536 -0.9853,0.50664 -2.4612,2.05528 -2.4612,2.58256 0,0.58618 -1.9608,3.98574 -2.6858,4.6565 -0.3869,0.35792 -1.2458,0.84719 -1.9088,1.08727 -0.663,0.24008 -1.8163,0.65742 -2.5629,0.92742 -0.7466,0.27 -1.6907,0.66432 -2.0979,0.87626 -3.4315,1.78598 -4.6866,2.31899 -6.2936,2.67283 -1.0181,0.22419 -2.8774,0.84853 -4.1319,1.38746 -1.2544,0.53892 -2.4929,0.97985 -2.7522,0.97985 -0.2735,0 -0.677,0.35098 -0.9608,0.83582 -0.286,0.48863 -1.0908,1.1858 -1.9371,1.67834 l -1.4479,0.84252 -5.4299,0.0605 c -4.2229,0.047 -5.6026,-0.0169 -6.2072,-0.28772 z"
       inkscape:connector-curvature="0"
       inkscape:label="Kontur_Bart" />
  </g>
</svg>
