<svg xmlns="http://www.w3.org/2000/svg" width="1278.065" height="1569.494" viewBox="0 0 338.155 415.262">
  <path fill="none" d="M0 .005h338.667v415.256H0z" paint-order="fill markers stroke"/>
  <path class="hair" fill="#3b2516" d="M192.821 103.6c-1.663.196-3.687.235-5.266 1.55-2.12.954-4.023 2.472-5.312 4.45a.668.668 0 0 0-.033.06c-.311.6-.422 1.194-.193 1.71.228.517.733.775 1.193.862a3.34 3.34 0 0 0 2.654-.672l-.146.09c1.25-.551 2.854-.476 4.492-1.073l-.084.026c2.588-.571 5.158-1.082 7.748-1.127 1.921-.006 3.77-.272 5.473 0l-.116-.03c1.604.563 3.169.528 4.518.922a.668.668 0 0 0 .107.024c1.103.133 2.162.897 3.617 1.252l-.049-.014c1.763.573 3.304 1.74 5.274 2.502a.668.668 0 0 0 .209.043.668.668 0 0 0 1.156-.283c.13-.556-.106-1.033-.383-1.428-.276-.395-.64-.759-1.03-1.115-.783-.713-1.697-1.412-2.124-1.865l.02.02c-1.257-1.454-2.998-2.097-4.585-2.589a.668.668 0 0 0-.025-.008c-2.354-.628-4.548-2.046-7.158-2.779l.232.117a2.382 2.382 0 0 0-1.427-.502c-.462-.008-.871.09-1.235.178-.727.175-1.167.286-1.56.03a.668.668 0 0 0-.397-.11c-1.697.078-3.538-.477-5.57-.24zm-51.88 1.11c-1.418.056-2.78.35-4.11.29a.334.334 0 0 0-.199.054c-.524.343-1.099.19-1.82.016-.36-.087-.744-.176-1.15-.168-.375.007-.77.123-1.135.378-2.536.717-4.726 2.131-7.14 2.776a.334.334 0 0 0-.015.004c-1.572.487-3.24 1.112-4.427 2.486l.01-.01c-.467.496-1.376 1.187-2.14 1.885-.383.349-.73.7-.981 1.059-.251.358-.428.749-.332 1.16a.334.334 0 0 0 .593.123.827.827 0 0 1 .106-.114.334.334 0 0 0 .222-.006c1.914-.74 3.46-1.91 5.29-2.505l-.024.006c1.373-.335 2.442-1.114 3.655-1.26a.334.334 0 0 0 .055-.012c1.413-.413 2.972-.381 4.502-.918l-.06.016c1.77-.283 3.634-.012 5.52-.006 2.633.045 5.228.563 7.824 1.136l-.043-.011c1.554.566 3.17.485 4.514 1.078l-.074-.045c.636.508 1.597.754 2.385.605.394-.074.779-.279.951-.668.172-.388.102-.872-.184-1.423a.334.334 0 0 0-.018-.028c-1.251-1.921-3.108-3.407-5.18-4.338l-.01-.002c-1.476-1.27-3.442-1.31-5.15-1.511a9.266 9.266 0 0 0-1.437-.047z"/>
  <path d="M220.82 117.383c1.003-1.16.324-2.665-.568-3.622-.822-2.096-2.846-3.243-4.362-4.773-1.357-.318-2.114-1.467-3.286-1.82a10.69 10.69 0 0 0-3.307-1.208c-1.172-.391-2.247-1.012-3.46-1.29-1.205-.789-2.353-1.784-3.906-1.868-1.633-.07-3.366-.82-4.937-.036-2.22.523-4.571.082-6.774.772a43.542 43.542 0 0 0-4.164 1.537c-1.393 1.183-2.861 2.37-3.882 3.871-.593 1.118-2.036 2.205-1.733 3.528.812 1.195 2.45 1.673 3.752.99 1.46-.507 2.915-1.022 4.375-1.528 1.738-.595 3.576-.856 5.397-1.028 2.152-.603 4.399-.506 6.61-.615 1.618-.118 3.119.478 4.63.936 1.305.469 2.789.34 4.04.946 1.848.815 3.67 1.699 5.527 2.477 1.604.378 2.839 1.464 3.992 2.573.563.5 1.448.718 2.056.158zm-3.882-3.874c-1.857-.719-3.409-1.896-5.307-2.514-1.288-.314-2.373-1.108-3.695-1.267-1.478-.432-3.028-.402-4.484-.913-1.838-.293-3.724-.013-5.58-.008-2.672.046-5.29.57-7.89 1.144-1.469.535-3.094.452-4.533 1.086-1.073.857-3.683.934-2.646-1.071 1.213-1.862 3.022-3.31 5.042-4.217 1.373-1.24 3.291-1.277 5.054-1.484 1.854-.216 3.676.33 5.524.245 1.311.858 2.848-.782 4.176.26 2.481.697 4.678 2.12 7.166 2.785 1.558.482 3.157 1.091 4.276 2.385 1.012 1.076 3.621 2.733 3.372 3.8-.09-.122-.287-.356-.475-.232zm-102.632 4.913c-1.002-1.16-.323-2.665.568-3.622.822-2.096 2.847-3.243 4.363-4.773 1.357-.318 2.113-1.467 3.285-1.82a10.69 10.69 0 0 1 3.307-1.208c1.172-.392 2.247-1.012 3.461-1.29 1.204-.789 2.353-1.784 3.905-1.868 1.633-.071 3.366-.82 4.938-.036 2.22.523 4.57.082 6.773.772 1.411.437 2.803.958 4.164 1.537 1.393 1.183 2.862 2.37 3.882 3.871.594 1.118 2.037 2.205 1.733 3.527-.811 1.196-2.45 1.674-3.752.99-1.46-.506-2.915-1.022-4.375-1.528-1.738-.594-3.576-.855-5.397-1.027-2.151-.603-4.398-.506-6.61-.615-1.617-.118-3.118.478-4.63.936-1.304.469-2.788.34-4.04.946-1.848.815-3.67 1.698-5.527 2.477-1.603.378-2.839 1.464-3.992 2.573-.563.5-1.448.718-2.056.158zm3.882-3.875c1.858-.718 3.409-1.895 5.307-2.513 1.288-.314 2.373-1.108 3.695-1.267 1.478-.432 3.029-.402 4.484-.913 1.838-.293 3.724-.014 5.58-.008 2.673.046 5.29.57 7.89 1.144 1.469.535 3.094.452 4.533 1.086 1.074.857 3.683.934 2.646-1.071-1.213-1.862-3.022-3.31-5.042-4.217-1.373-1.24-3.29-1.277-5.054-1.485-1.854-.216-3.675.33-5.523.246-1.312.858-2.849-.782-4.177.26-2.481.697-4.677 2.12-7.166 2.784-1.558.483-3.157 1.092-4.275 2.386-1.013 1.076-3.622 2.733-3.373 3.8.09-.122.287-.356.475-.232z"/>
</svg>
