<?xml version="1.0" encoding="UTF-8" standalone="no"?>
<!-- Created with Inkscape (http://www.inkscape.org/) -->

<svg
   xmlns:dc="http://purl.org/dc/elements/1.1/"
   xmlns:cc="http://creativecommons.org/ns#"
   xmlns:rdf="http://www.w3.org/1999/02/22-rdf-syntax-ns#"
   xmlns:svg="http://www.w3.org/2000/svg"
   xmlns="http://www.w3.org/2000/svg"
   xmlns:sodipodi="http://sodipodi.sourceforge.net/DTD/sodipodi-0.dtd"
   xmlns:inkscape="http://www.inkscape.org/namespaces/inkscape"
   width="338.15475mm"
   height="415.26193mm"
   viewBox="0 0 338.15475 415.26193"
   version="1.1"
   id="svg8"
   inkscape:version="0.92.3 (2405546, 2018-03-11)"
   sodipodi:docname="Brows02.svg">
  <defs
     id="defs2" />
  <sodipodi:namedview
     id="base"
     pagecolor="#ffffff"
     bordercolor="#666666"
     borderopacity="1.0"
     inkscape:pageopacity="0.0"
     inkscape:pageshadow="2"
     inkscape:zoom="0.49497475"
     inkscape:cx="522.86447"
     inkscape:cy="873.4113"
     inkscape:document-units="mm"
     inkscape:current-layer="layer1"
     showgrid="false"
     inkscape:window-width="1920"
     inkscape:window-height="1001"
     inkscape:window-x="-9"
     inkscape:window-y="-9"
     inkscape:window-maximized="1"
     inkscape:snap-global="true"
     showguides="true"
     fit-margin-top="0"
     fit-margin-left="0"
     fit-margin-right="0"
     fit-margin-bottom="0" />
  <metadata
     id="metadata5">
    <rdf:RDF>
      <cc:Work
         rdf:about="">
        <dc:format>image/svg+xml</dc:format>
        <dc:type
           rdf:resource="http://purl.org/dc/dcmitype/StillImage" />
        <dc:title></dc:title>
      </cc:Work>
    </rdf:RDF>
  </metadata>
  <g
     inkscape:label="Ebene 1"
     inkscape:groupmode="layer"
     id="layer1"
     transform="translate(1355.1667,-269.28568)">
    <rect
       style="opacity:1;fill:none;fill-opacity:1;fill-rule:evenodd;stroke:none;stroke-width:0.99999988;stroke-linecap:round;stroke-linejoin:miter;stroke-miterlimit:4;stroke-dasharray:none;stroke-dashoffset:0;stroke-opacity:1;paint-order:stroke fill markers"
       id="rect1307"
       width="337.15475"
       height="414.26193"
       x="-1354.6667"
       y="269.78568"
       inkscape:label="Frame" />
    <path
       id="path3020-3"
       style="fill:#502d16;fill-opacity:1;stroke-width:1"
       d="m -1196.6076,382.51773 c -3.9512,-3.20304 -8.3466,-6.15475 -13.5213,-6.79812 -4.5983,-1.15358 -9.4148,-1.43736 -14.1093,-0.88023 -3.2306,0.55343 -6.7067,1.23408 -8.9139,3.93059 -2.28,1.10759 -1.6885,2.76841 0.6947,1.36628 3.1458,-2.20225 6.9958,-2.77744 10.651,-1.63042 4.6597,0.47138 9.365,0.71042 13.8962,2.01684 3.8001,0.39676 7.4211,2.33482 11.2487,2.13277 l 0.053,-0.13771 z m 22.6978,0.0275 c 3.7389,-1.63851 8.0806,-1.33808 11.7029,-3.39688 5.2709,-1.94608 11.1502,-2.32764 16.5736,-0.81392 3.1372,-0.25621 5.7967,1.304 8.5357,2.5677 -1.9835,-2.4991 -5.803,-3.30085 -8.8349,-4.37519 -6.4264,-1.78837 -13.505,-2.02953 -19.8856,0.0784 -2.9264,1.54285 -5.8361,2.98653 -8.7106,4.60721 -2.5772,0.36919 -1.5018,2.88603 0.6189,1.33269 z"
       inkscape:connector-curvature="0"
       inkscape:label="Brauen"
       sodipodi:nodetypes="ccccccccccccccccccc" />
    <path
       style="fill:#000000;stroke-width:1"
       d="m -1176.9436,383.75177 c -1.1979,-3.00491 4.5199,-4.6201 6.6326,-6.3054 2.9497,-1.56486 6.2699,-2.38916 9.5139,-3.1472 5.8635,-0.78394 11.8061,0.0768 17.3404,2.09825 2.0802,1.26509 8.7029,1.81937 7.0699,5.10281 -3.4808,1.51882 -6.7772,-2.05891 -10.3093,-2.38759 -3.5734,-0.92613 -7.4057,-0.74993 -11.0321,-0.25209 -4.1153,1.30119 -8.1603,3.03672 -12.4991,3.4883 -2.2976,0.14757 -4.5157,1.89661 -6.7163,1.40292 z m 3.0338,-1.20657 c 3.7389,-1.63851 8.0806,-1.33808 11.7029,-3.39688 5.2709,-1.94608 11.1502,-2.32765 16.5736,-0.81392 3.1372,-0.25622 5.7967,1.304 8.5357,2.5677 -1.9835,-2.4991 -5.803,-3.30085 -8.8349,-4.3752 -6.4264,-1.78836 -13.505,-2.02953 -19.8856,0.0784 -2.9264,1.54285 -5.8361,2.98653 -8.7106,4.60721 -2.5772,0.36919 -1.5018,2.88603 0.6189,1.33269 z m -27.0598,1.02038 c -3.7586,-1.0257 -7.569,-1.78775 -11.4296,-2.34304 -3.9192,-0.66966 -7.8685,-1.14718 -11.724,-2.12771 -3.4866,-1.03491 -5.9483,2.13059 -9.1959,2.23796 -1.8534,1.82693 -5.7686,-0.14635 -2.5825,-1.92084 2.5425,-2.24633 5.0753,-4.33256 8.6811,-4.71021 7.7458,-1.22982 15.7905,-0.10798 23.1823,2.3785 2.8717,1.78365 7.8241,3.03571 8.1268,6.43049 -1.6206,0.51541 -3.3973,0.2307 -5.0582,0.0548 z m 4.362,-1.04785 c -3.9512,-3.20304 -8.2049,-5.49329 -13.3796,-6.13666 -4.5983,-1.15358 -9.4148,-1.43736 -14.1093,-0.88023 -3.2306,0.55343 -6.8484,0.57262 -9.0556,3.26913 -2.28,1.10759 -1.6885,2.76841 0.6947,1.36628 3.1458,-2.20225 6.9958,-2.77744 10.651,-1.63042 4.6597,0.47138 9.365,0.71042 13.8962,2.01684 3.8001,0.39676 7.4211,2.33482 11.2487,2.13277 l 0.053,-0.13771 z"
       id="path3020"
       inkscape:connector-curvature="0"
       inkscape:label="Kontur_Brauen"
       sodipodi:nodetypes="ccccccccccccccccccccccccccccccccccccc" />
  </g>
</svg>
