<svg xmlns="http://www.w3.org/2000/svg" width="1278.065" height="1569.494" viewBox="0 0 338.155 415.262">
  <path fill="none" d="M.5.5h337.155v414.262H.5z" paint-order="stroke fill markers"/>
  <path class="hair" fill="#3b2516" d="M158.56 113.232c-3.952-3.203-8.348-6.155-13.522-6.798-4.599-1.154-9.415-1.437-14.11-.88-3.23.553-6.706 1.234-8.913 3.93-2.28 1.108-1.689 2.769.694 1.367 3.146-2.203 6.996-2.778 10.651-1.63 4.66.47 9.365.71 13.896 2.016 3.8.397 7.422 2.335 11.25 2.133l.052-.138zm22.697.028c3.739-1.639 8.08-1.339 11.703-3.397 5.27-1.946 11.15-2.328 16.573-.814 3.138-.256 5.797 1.304 8.536 2.567-1.983-2.499-5.803-3.3-8.835-4.375-6.426-1.788-13.505-2.03-19.885.079-2.927 1.543-5.837 2.986-8.711 4.607-2.577.37-1.502 2.886.619 1.333z"/>
  <path d="M178.223 114.466c-1.198-3.005 4.52-4.62 6.633-6.305 2.95-1.565 6.27-2.39 9.514-3.148 5.863-.783 11.806.077 17.34 2.099 2.08 1.265 8.703 1.82 7.07 5.103-3.48 1.518-6.777-2.06-10.31-2.388-3.573-.926-7.405-.75-11.032-.252-4.115 1.301-8.16 3.037-12.499 3.488-2.297.148-4.515 1.897-6.716 1.403zm3.034-1.206c3.739-1.639 8.08-1.339 11.703-3.397 5.27-1.946 11.15-2.328 16.573-.814 3.138-.256 5.797 1.304 8.536 2.567-1.983-2.499-5.803-3.3-8.835-4.375-6.426-1.788-13.505-2.03-19.885.079-2.927 1.542-5.837 2.986-8.711 4.607-2.577.369-1.502 2.886.619 1.333zm-27.06 1.02c-3.759-1.026-7.569-1.788-11.43-2.343-3.919-.67-7.868-1.147-11.724-2.128-3.486-1.035-5.948 2.13-9.195 2.238-1.854 1.827-5.769-.146-2.583-1.92 2.543-2.247 5.075-4.333 8.681-4.71 7.746-1.23 15.79-.109 23.182 2.378 2.872 1.783 7.825 3.035 8.127 6.43-1.62.515-3.397.23-5.058.055zm4.362-1.048c-3.951-3.203-8.205-5.493-13.38-6.137-4.598-1.153-9.414-1.437-14.109-.88-3.23.554-6.848.573-9.055 3.27-2.28 1.107-1.689 2.768.694 1.366 3.146-2.203 6.996-2.778 10.651-1.63 4.66.47 9.365.71 13.896 2.016 3.8.397 7.422 2.335 11.25 2.133l.052-.138z"/>
</svg>
