<svg xmlns="http://www.w3.org/2000/svg" width="1274.286" height="1565.714">
  <path fill="none" d="M0 0h1274.286v1565.714H0z" paint-order="stroke fill markers"/>
  <path class="hair" fill="#3b2516" d="M578.922 421.325c.88-1.255 1.548-2.536 1.485-2.849-.063-.312-2.203-3.497-4.756-4.632-2.552-1.136-5.647-2.664-6.877-3.396-2.984-1.776-23.06-5.602-45.574-6.402-35.377-1.259-33.833-.275-38.678 4.793-3.189 3.335-5.007 4.519-8.048 5.24-5.601 1.331-12.279 5.322-13.328 7.76-.495 1.15-1.848 4.44-4.034 5.701-7.21 4.16-4.615 5.36 2.931 1.357 2.465-1.307 8.657-2.91 19.444-5.034l15.826-3.116 8.36 1.762c27.86 5.872 69.106 4.725 73.25-1.184zm139.912 5.05c1.978-.178 5.774-.247 8.434-.153 8.775.313 30.648-.917 33.266-1.87 1.414-.514 4.32-1.188 6.456-1.497 9.781-1.414 18.256-1.574 20.163-2.483 3.804-1.812 11.474-.014 19.929 4.914 4.323 2.52 10.595 5.61 14.028 6.535 3.255.875 6.996 2.952 8.532 3.516l4.651.605-2.038-4.913c-.766-1.803-3.648-2.65-8.71-5.051-3.702-1.757-8.124-4.35-9.825-5.765-2.048-1.702-6.901-3.9-14.358-6.502-6.195-2.163-12.34-4.5-13.655-5.195-2.456-1.297-13.234-3.268-20.278-1.938-1.806.341-8.806.512-15.554.38-6.748-.132-15.562-.019-19.586.25-4.024.27-9.226.411-11.56.315-2.334-.096-5.302.188-6.596.631-1.294.444-3.453 1.001-4.799 1.238-3.383.595-9.321 10.208-9.01 12.559.214 1.618 1.063 1.943 8.575 3.274 4.586.813 9.957 1.33 11.935 1.15z"/>
  <path d="M719.63 425.193c1.981-.14 5.777-.133 8.435.015 8.767.488 30.66-.305 33.297-1.206 1.424-.486 4.342-1.101 6.484-1.368 9.808-1.218 17.464-2.582 19.388-3.452 3.84-1.736 12.67.696 21.025 5.792 4.272 2.605 9.834 5.208 13.248 6.2 3.237.941 7.133 2.197 8.658 2.792l2.772 1.08-.97-2.416c-.731-1.818-2.626-3.242-7.639-5.744-3.667-1.83-8.036-4.512-9.708-5.96-2.014-1.742-6.822-4.037-14.225-6.788-6.151-2.285-12.248-4.745-13.55-5.466-2.429-1.346-11.206-1.492-18.274-.303-1.814.305-8.815.336-15.56.07-6.743-.267-15.557-.33-19.586-.141-4.03.189-9.233.226-11.564.083-2.332-.143-5.305.082-6.608.5-1.302.418-3.472.931-4.822 1.141-3.395.528-11.484 7.98-11.22 10.337.182 1.623 1.025 1.964 8.509 3.445 4.568.904 9.928 1.529 11.91 1.389zm-23.584 3.594c-.734-.65-1.94-3.357-2.68-6.014-1.953-7.004-.65-9.68 7.19-14.774 3.449-2.24 6.996-3.884 7.979-3.696.973.187 3.049-.073 4.612-.578 2.715-.875 6.636-1.086 14.363-.772 1.94.078 5.177-.064 7.196-.317 2.018-.254 9.542-.19 16.719.14 8.115.373 14.418.186 16.671-.495 3.092-.935 4.78-.809 11.513.857 7.76 1.92 29.586 10.528 33.927 13.381 5.37 2.283 8.943 5.254 13.7 8.152 6.077 3.65 6.369 3.668 10.467 8.175 1.607 1.685.408 3.449-1.492 4.503-.8.444-2.742.386-6.92-.712-3.7-.971-7.752-2.216-10.096-2.82-2.344-.606-8.605-1.82-12.498-4.312-3.893-2.491-8.898-5.138-11.122-5.883-3.755-1.257-4.33-1.187-8.084.972-5.772 3.32-16.8 5.435-24.697 4.738-3.602-.318-12.222-.188-19.155.29-6.932.479-14.393.817-16.579.752-8.152-.243-15.637-.048-18.991.496-4.047.656-10.118-.395-12.023-2.083zm-118.62-9.713c.856-1.271 1.5-2.566 1.43-2.877-.069-.31-2.23-1.455-4.804-2.541-2.574-1.087-5.697-2.556-6.94-3.265-3.018-1.719-38.925-2.752-61.413-4.122-17-1.036-16.796-1.075-21.544 4.084-3.125 3.395-4.92 4.613-7.946 5.393-5.575 1.437-11.35 4.856-12.353 7.315-.472 1.158-2.627 3.172-4.789 4.474-7.128 4.296-4.512 5.446 2.957 1.3 2.44-1.353 8.6-3.074 19.344-5.403l15.765-3.416 8.392 1.603c27.967 5.341 67.871 3.442 71.901-2.545zm-.341 10.51c-.366-.235-3.857.174-7.762.91-10.027 1.89-45.09 2.123-63.505-1.502-6.073-1.195-9.831-1.338-16.005-.605-4.437.526-8.807.757-9.71.513-3.601-.973-12.452.685-17.135 3.21-5.85 3.152-14.243 4.671-15.978 2.89-1.874-1.921.776-5.683 6.195-8.794 2.504-1.438 5.947-3.901 7.65-5.475 1.704-1.574 4.37-3.148 5.924-3.498 1.554-.352 4.76-2.241 7.123-4.201 9.116-7.56 19.851-11.982 27.09-11.158 2.256.257 7.771.305 12.257.108s11.56.241 15.722.975c4.162.733 26.607.263 30.66.68 10.664 1.1 17.552 3.82 20.958 8.278 2.213 2.896 2.66 4.044 2.283 5.857-.258 1.24-.185 3.535.16 5.099.368 1.66.114 3.58-.61 4.615-1.247 1.779-4.081 2.897-5.317 2.098z"/>
</svg>
