<?xml version="1.0" encoding="UTF-8" standalone="no"?>
<!-- Created with Inkscape (http://www.inkscape.org/) -->

<svg
   xmlns:dc="http://purl.org/dc/elements/1.1/"
   xmlns:cc="http://creativecommons.org/ns#"
   xmlns:rdf="http://www.w3.org/1999/02/22-rdf-syntax-ns#"
   xmlns:svg="http://www.w3.org/2000/svg"
   xmlns="http://www.w3.org/2000/svg"
   xmlns:sodipodi="http://sodipodi.sourceforge.net/DTD/sodipodi-0.dtd"
   xmlns:inkscape="http://www.inkscape.org/namespaces/inkscape"
   width="338.15475mm"
   height="415.26193mm"
   viewBox="0 0 338.15475 415.26193"
   version="1.1"
   id="svg8"
   inkscape:version="0.92.3 (2405546, 2018-03-11)"
   sodipodi:docname="Brows01.svg">
  <defs
     id="defs2" />
  <sodipodi:namedview
     id="base"
     pagecolor="#ffffff"
     bordercolor="#666666"
     borderopacity="1.0"
     inkscape:pageopacity="0.0"
     inkscape:pageshadow="2"
     inkscape:zoom="0.35"
     inkscape:cx="341.5168"
     inkscape:cy="774.66744"
     inkscape:document-units="mm"
     inkscape:current-layer="layer1"
     showgrid="false"
     inkscape:window-width="1920"
     inkscape:window-height="1001"
     inkscape:window-x="-9"
     inkscape:window-y="-9"
     inkscape:window-maximized="1"
     inkscape:snap-global="true"
     fit-margin-top="0"
     fit-margin-left="0"
     fit-margin-right="0"
     fit-margin-bottom="0" />
  <metadata
     id="metadata5">
    <rdf:RDF>
      <cc:Work
         rdf:about="">
        <dc:format>image/svg+xml</dc:format>
        <dc:type
           rdf:resource="http://purl.org/dc/dcmitype/StillImage" />
        <dc:title></dc:title>
      </cc:Work>
    </rdf:RDF>
  </metadata>
  <g
     inkscape:label="Ebene 1"
     inkscape:groupmode="layer"
     id="layer1"
     transform="translate(1354.4108,-270.58325)"
     style="display:inline">
    <rect
       style="opacity:1;fill:none;fill-opacity:1;fill-rule:evenodd;stroke:none;stroke-width:0.99999988;stroke-linecap:round;stroke-linejoin:miter;stroke-miterlimit:4;stroke-dasharray:none;stroke-dashoffset:0;stroke-opacity:1;paint-order:stroke fill markers"
       id="rect1307-6"
       width="337.15475"
       height="414.26193"
       x="-1353.9108"
       y="271.08325"
       inkscape:label="Frame" />
    <path
       id="path885-8-8"
       style="fill:#3b2516;fill-opacity:1;stroke-width:1"
       d="m -1144.4427,368.21274 c -0.9653,-0.0189 -2.204,0.11126 -3.4613,0.38358 -5.411,1.17191 -10.2794,1.85012 -10.6696,1.48659 -0.4189,-0.39009 -3.9524,0.26406 -6.5994,1.22135 -5.5272,1.99897 -6.4549,2.58561 -8.4014,5.31315 -1.3701,1.91994 -1.4507,3.23466 -0.2764,4.5161 0.6373,0.6955 0.9955,0.88338 1.713,0.89745 1.2009,0.0235 3.0382,-0.33106 5.0036,-0.96563 0.8803,-0.28426 2.7359,-0.67652 4.1236,-0.87186 2.5381,-0.35733 5.0578,-0.84111 9.9715,-1.91449 2.4275,-0.53026 5.7418,-1.80438 6.1489,-2.36355 0.091,-0.12481 1.0809,-0.20849 2.1998,-0.18582 1.8719,0.0367 2.2314,0.13079 4.5013,1.16364 2.4346,1.10772 4.8022,1.84863 5.9833,1.87181 0.6073,0.0119 1.6825,-0.71099 1.693,-1.13841 0,-0.12535 -0.3917,-0.59806 -0.8771,-1.05014 -0.4853,-0.45207 -1.0691,-1.16237 -1.2977,-1.57855 -0.2756,-0.50181 -1.3553,-1.33346 -3.2047,-2.46875 -1.672,-1.02642 -3.1696,-2.15811 -3.7397,-2.82573 -0.5231,-0.61244 -1.1637,-1.19291 -1.4237,-1.29032 -0.3271,-0.12247 -0.8079,-0.18861 -1.387,-0.20042 z m -83.1729,2.206 c -0.7727,-5.3e-4 -1.3951,0.0893 -1.7947,0.27439 -0.4838,0.22409 -1.6557,0.74275 -2.6041,1.15277 -1.3061,0.56462 -2.2682,1.25625 -3.9648,2.8501 -1.2319,1.15747 -2.8788,2.65844 -3.6597,3.33568 -1.5628,1.35544 -1.8439,2.19523 -0.894,2.67261 0.3051,0.15336 0.8941,0.22527 1.309,0.15977 0.4148,-0.0655 0.8299,-0.005 0.9219,0.13419 0.2252,0.3414 1.6248,0.17382 4.3588,-0.52218 l 2.2638,-0.57617 4.7547,0.36143 c 5.4302,0.41265 6.9734,0.46584 13.2211,0.45796 l 4.4991,-0.005 1.6255,0.79945 c 0.8941,0.43972 2.2507,0.96071 3.0148,1.15797 0.7642,0.19727 1.6843,0.47333 2.0447,0.61371 0.9754,0.37995 2.0171,0.35956 2.4963,-0.0491 0.8836,-0.7537 0.4212,-4.11963 -0.7392,-5.37915 -0.5927,-0.64336 -4.3343,-2.49712 -6.9963,-3.46643 -3.271,-1.19099 -9.9904,-2.68987 -12.2571,-2.73434 -0.5571,-0.011 -1.8253,-0.23804 -2.8187,-0.50451 -1.7881,-0.47966 -3.4933,-0.73179 -4.7811,-0.73282 z"
       inkscape:connector-curvature="0"
       inkscape:label="Brauen" />
    <path
       id="path885-8-8-4"
       style="fill:#000000;stroke-width:1"
       d="m -1227.7405,371.83347 c 0.6445,-0.004 1.522,0.068 2.2231,0.19196 0.9348,0.1653 2.2936,0.36613 3.0194,0.44624 0.7259,0.0801 1.7921,0.3055 2.3695,0.50077 1.8209,0.61577 6.2258,1.41331 8.6611,1.56822 1.755,0.11164 2.4207,0.24649 2.6471,0.53568 0.2751,0.35122 4.6055,2.06281 5.2813,2.08748 0.8801,0.0322 2.1711,2.48016 2.1276,4.03528 -0.014,0.5587 -0.1131,0.61017 -1.1396,0.60421 -0.7192,-0.004 -1.6322,-0.24612 -2.54,-0.67272 -0.7796,-0.36634 -2.4924,-0.93469 -3.8062,-1.26334 -2.1554,-0.53917 -3.0088,-0.61226 -8.7366,-0.74959 -3.4913,-0.0836 -8.1821,-0.32401 -10.4238,-0.53394 -2.2418,-0.20995 -4.6933,-0.33697 -5.4483,-0.28242 -1.5851,0.1144 -3.8658,0.87437 -4.5452,1.5146 -0.4281,0.40343 -1.4483,0.60634 -1.4404,0.28641 0,-0.12836 3.7081,-3.68525 6.0806,-5.83737 1.2446,-1.12884 3.5184,-2.19581 5.1186,-2.40175 0.1478,-0.0191 0.337,-0.0284 0.5518,-0.0298 z m 0.125,-1.41473 c -0.7727,-5.3e-4 -1.3951,0.0893 -1.7947,0.2744 -0.4838,0.22408 -1.6557,0.74274 -2.6041,1.15276 -1.3061,0.56463 -2.2682,1.25625 -3.9648,2.8501 -1.2319,1.15747 -2.8788,2.65844 -3.6597,3.33568 -1.5628,1.35544 -1.8439,2.19523 -0.894,2.67261 0.3051,0.15336 0.8941,0.22527 1.309,0.15977 0.4148,-0.0655 0.8299,-0.005 0.9219,0.1342 0.2252,0.3414 1.6248,0.17381 4.3588,-0.52219 l 2.2638,-0.57617 4.7547,0.36143 c 5.4302,0.41265 6.9734,0.46585 13.2211,0.45796 l 4.4991,-0.005 1.6255,0.79944 c 0.8941,0.43973 2.2507,0.96071 3.0148,1.15797 0.7642,0.19727 1.6843,0.47334 2.0447,0.61371 0.9754,0.37995 2.0171,0.35956 2.4963,-0.0491 0.8836,-0.75369 0.4212,-4.11963 -0.7392,-5.37915 -0.5927,-0.64335 -4.3343,-2.49711 -6.9963,-3.46643 -3.271,-1.19099 -9.9904,-2.68987 -12.2571,-2.73434 -0.5571,-0.011 -1.8253,-0.23804 -2.8187,-0.5045 -1.7881,-0.47967 -3.4933,-0.7318 -4.7811,-0.73283 z m 82.7566,-1.25679 c 0.8704,0.004 1.3006,0.31345 2.0857,1.00198 0.6431,0.56402 2.3079,1.73779 3.6991,2.60838 1.4846,0.92908 2.763,1.92851 3.0948,2.41961 0.3109,0.46019 0.8017,1.12224 1.091,1.4713 0.939,1.1329 -0.014,0.93067 -3.5536,-0.75297 -3.0833,-1.46672 -3.5615,-1.62302 -5.3865,-1.76059 -1.9522,-0.14714 -2.0364,-0.13081 -3.3241,0.64843 -1.8559,1.12308 -3.3976,1.74065 -5.5745,2.23249 -1.0339,0.23362 -2.2401,0.55747 -2.6808,0.72003 -1.0259,0.37846 -7.7056,1.32795 -9.9712,1.41736 -0.9535,0.0376 -2.1234,0.23855 -2.599,0.44613 -1.0177,0.44407 -4.0032,0.65717 -4.5267,0.32307 -1.0248,-0.65413 1.1143,-4.05244 3.3496,-5.32149 0.703,-0.39912 1.9604,-0.88795 2.7942,-1.0864 1.8381,-0.43741 3.7228,-1.2222 4.8131,-2.00415 1.1833,-0.84842 2.1028,-1.09486 2.4847,-0.66583 0.5854,0.65761 3.8957,0.3005 11.0003,-1.18708 1.5838,-0.33157 2.5269,-0.51334 3.2039,-0.51027 z m 0.4163,-0.9492 c -0.9653,-0.019 -2.204,0.11126 -3.4613,0.38357 -5.411,1.17192 -10.2794,1.85012 -10.6696,1.48659 -0.4189,-0.39009 -3.9524,0.26406 -6.5994,1.22135 -5.5272,1.99897 -6.4549,2.58562 -8.4014,5.31315 -1.3701,1.91994 -1.4507,3.23467 -0.2764,4.51611 0.6373,0.69549 0.9955,0.88337 1.713,0.89745 1.2009,0.0235 3.0382,-0.33107 5.0036,-0.96564 0.8803,-0.28425 2.7359,-0.67652 4.1236,-0.87186 2.5381,-0.35732 5.0578,-0.84111 9.9715,-1.91449 2.4275,-0.53025 5.7418,-1.80438 6.1489,-2.36355 0.091,-0.1248 1.0809,-0.20849 2.1998,-0.18582 1.8719,0.0367 2.2314,0.13079 4.5013,1.16364 2.4346,1.10773 4.8022,1.84864 5.9833,1.87181 0.6073,0.0119 1.6825,-0.71099 1.693,-1.13841 0,-0.12534 -0.3917,-0.59806 -0.8771,-1.05013 -0.4853,-0.45208 -1.0691,-1.16238 -1.2977,-1.57856 -0.2756,-0.50181 -1.3553,-1.33346 -3.2047,-2.46874 -1.672,-1.02643 -3.1696,-2.15812 -3.7397,-2.82574 -0.5231,-0.61243 -1.1637,-1.19291 -1.4237,-1.29032 -0.3271,-0.12247 -0.8079,-0.18861 -1.387,-0.20041 z"
       inkscape:connector-curvature="0"
       sodipodi:nodetypes="cccccccccccccccscccccccccccccccccccccccsscccccccccccscccscccccscsccsccccccsscccccc"
       inkscape:label="Kontur_Brauen" />
  </g>
</svg>
