<?xml version="1.0" encoding="UTF-8" standalone="no"?>
<!-- Created with Inkscape (http://www.inkscape.org/) -->

<svg
   xmlns:dc="http://purl.org/dc/elements/1.1/"
   xmlns:cc="http://creativecommons.org/ns#"
   xmlns:rdf="http://www.w3.org/1999/02/22-rdf-syntax-ns#"
   xmlns:svg="http://www.w3.org/2000/svg"
   xmlns="http://www.w3.org/2000/svg"
   xmlns:sodipodi="http://sodipodi.sourceforge.net/DTD/sodipodi-0.dtd"
   xmlns:inkscape="http://www.inkscape.org/namespaces/inkscape"
   width="338.15475mm"
   height="415.26193mm"
   viewBox="0 0 338.15475 415.26193"
   version="1.1"
   id="svg8"
   inkscape:version="0.92.3 (2405546, 2018-03-11)"
   sodipodi:docname="Brows04.svg">
  <defs
     id="defs2" />
  <sodipodi:namedview
     id="base"
     pagecolor="#ffffff"
     bordercolor="#666666"
     borderopacity="1.0"
     inkscape:pageopacity="0.0"
     inkscape:pageshadow="2"
     inkscape:zoom="0.49497475"
     inkscape:cx="651.24209"
     inkscape:cy="1099.2541"
     inkscape:document-units="mm"
     inkscape:current-layer="layer1"
     showgrid="false"
     inkscape:window-width="1920"
     inkscape:window-height="1001"
     inkscape:window-x="-9"
     inkscape:window-y="-9"
     inkscape:window-maximized="1"
     inkscape:snap-global="true"
     showguides="true"
     fit-margin-top="0"
     fit-margin-left="0"
     fit-margin-right="0"
     fit-margin-bottom="0" />
  <metadata
     id="metadata5">
    <rdf:RDF>
      <cc:Work
         rdf:about="">
        <dc:format>image/svg+xml</dc:format>
        <dc:type
           rdf:resource="http://purl.org/dc/dcmitype/StillImage" />
        <dc:title></dc:title>
      </cc:Work>
    </rdf:RDF>
  </metadata>
  <g
     inkscape:label="Ebene 1"
     inkscape:groupmode="layer"
     id="layer1"
     transform="translate(1355.1667,-269.28568)">
    <rect
       style="opacity:1;fill:none;fill-opacity:1;fill-rule:evenodd;stroke:none;stroke-width:0.99999988;stroke-linecap:round;stroke-linejoin:miter;stroke-miterlimit:4;stroke-dasharray:none;stroke-dashoffset:0;stroke-opacity:1;paint-order:stroke fill markers"
       id="rect1307"
       width="337.15475"
       height="414.26193"
       x="-1354.6667"
       y="269.78568"
       inkscape:label="Frame" />
    <path
       id="path1424"
       style="fill:#aa4400;fill-opacity:1;stroke-width:1"
       d="m -1235.2116,385.6707 c 2.9626,-2.2402 6.6731,-2.04101 10.3098,-1.85637 4.7094,0.30163 9.4993,-0.0385 14.0959,1.19785 2.8532,-0.25324 9.3464,2.51213 9.0814,-2.29421 0.1702,-4.62158 -4.7762,-4.79823 -8.2241,-4.63495 -3.8671,-0.24133 -7.6751,-1.04198 -11.4717,-1.77424 -3.8096,-0.9546 -7.8012,0.18089 -11.523,1.07657 -2.0361,0.35879 -4.4173,1.54909 -3.7016,3.94921 0.264,1.05988 -0.5334,5.83265 1.4333,4.33614 z m 65.0494,-0.42674 c 3.2286,-0.35398 6.3177,-1.8621 9.7109,-1.7385 4.9559,0.66028 9.7881,-2.1694 14.7067,-0.74533 3.1414,-0.57238 6.8366,0.91944 9.5528,0.46859 0.5763,-3.49078 -0.4843,-7.02899 -4.6747,-6.61624 -3.871,0.19759 -7.0531,-1.20109 -10.5997,-1.82274 -3.7435,-0.4426 -7.2587,1.01102 -10.9477,0.98349 -3.1699,1.03974 -7.8652,1.35581 -8.7762,5.29682 -0.1215,1.15183 -1.8956,5.8779 1.0279,4.17391 z"
       inkscape:connector-curvature="0"
       inkscape:label="Brauen" />
    <path
       style="fill:#000000;stroke-width:1"
       d="m -1170.1622,385.24396 c 3.2286,-0.35398 6.3177,-1.8621 9.7109,-1.7385 4.9559,0.66028 9.7881,-2.1694 14.7067,-0.74533 3.1414,-0.57238 6.8366,0.91944 9.5528,0.46859 0.5763,-3.49078 -0.4843,-7.02899 -4.6747,-6.61624 -3.871,0.19759 -7.0531,-1.20109 -10.5997,-1.82274 -3.7435,-0.4426 -7.2587,1.01102 -10.9477,0.98349 -3.1699,1.03974 -7.8652,1.35581 -8.7762,5.29682 -0.1215,1.15183 -1.8956,5.8779 1.0279,4.17391 z m -2.1397,1.08487 c -1.3298,-3.31396 0.2688,-8.6771 4.1484,-9.6152 3.2958,-2.23344 7.3642,-1.29681 10.9457,-2.5114 4.0577,-1.40808 8.2686,-0.41146 12.2837,0.53993 3.0843,0.80562 6.9126,-0.03 9.088,2.07618 1.5498,2.17206 0.8676,5.04244 1.1694,7.56217 -2.3402,1.33204 -5.1974,-1.30106 -7.8834,-0.63275 -4.2453,0.0269 -8.5143,-0.53068 -12.7409,0.26006 -3.5113,0.2529 -7.0672,0.32216 -10.5336,0.82693 -1.7646,0.82544 -4.5602,2.05637 -6.4773,1.49408 z m -62.9097,-0.65813 c 2.9626,-2.2402 6.6731,-2.04101 10.3098,-1.85637 4.7094,0.30163 9.4993,-0.0385 14.0959,1.19785 2.8532,-0.25324 9.3464,2.51213 9.0814,-2.29421 0.1702,-4.62158 -4.7762,-4.79823 -8.2241,-4.63495 -3.8671,-0.24133 -7.6751,-1.04198 -11.4717,-1.77424 -3.8096,-0.9546 -7.8012,0.18089 -11.523,1.07657 -2.0361,0.35879 -4.4173,1.54909 -3.7016,3.94921 0.264,1.05988 -0.5334,5.83265 1.4333,4.33614 z m -1.0311,1.12444 c -1.7851,-2.3837 -2.8498,-8.64981 0.9003,-9.8 4.8061,-1.34458 10.0253,-3.31158 14.9871,-1.53691 5.4117,1.10265 10.8326,2.19294 16.372,2.33566 2.9937,0.67392 5.0513,8.36098 0.8383,8.79835 -6.1026,0.0773 -12.09,-1.62135 -18.2095,-1.43816 -3.637,0.16597 -7.3867,-1.09788 -10.9132,0.0294 -0.7981,1.02371 -2.8526,2.00529 -3.975,1.61167 z"
       id="path1008-2"
       inkscape:connector-curvature="0"
       inkscape:label="Kontur_Brauen" />
  </g>
</svg>
