<svg xmlns="http://www.w3.org/2000/svg" width="1278.065" height="1569.494">
  <path fill="none" d="M4 3.78h1274.286v1565.714H4z" paint-order="fill markers stroke"/>
  <path class="hair" fill="#3b2516" d="M581.408 421.962c-5.316-2.163-26.118-2.342-40.745-5.278-17.141.889-34.383 3.234-51.747 7.596-11.867 3.64-22.908 8.75-33.257 14.99-8.03 5.261-6.497 7.356-3.966 6.641 11.66-5.051 32.17-15.66 46.454-13.117 17.73-.482 46.58-3.887 64.582-5.029 7.63.17 14.551.833 21.501.075l-1.351-3.828zm118.973 3.675c15.366-1.7 31.582 5.952 47.001 2.6 21.251-1.081 39.531.645 58.953 7.216 11.63 2.616 8.188 5.745 17.004 5.543-.992-5.042-6.408-3.291-16.154-10.599-21.21-13.722-45.614-15.598-71.06-15.184-12.32 2.272-24.494 1.181-36.714 3.794-9.734-1.576-9.207 11.216.214 7.996z"/>
  <path d="M584.31 428.092c2.096-12.045-18.253-8.719-28.34-10.323-13.015-2.07-21.614-.986-34.201-1.27-22.297 1.656-41.636 7.31-60.536 19.087-6.775 3.524-7.235 2.093-10.336 6.55-1.15 1.656-2.43 2.394-.578 4.737 8.606-2.478 5.884-2.37 18.693-6.33 12.498-6.201 31.78-8.026 45.611-7.732 16.31.348 29.825-1.95 46.224-3.65 8.614-1.239 15.707 2.467 23.463-1.069zm-9.69-1.066c-15.101-3.155-31.317 2.972-46.502 3.11-21.008-3.104-39.86-1.894-58.743 7.918-11.803 1.49-16.957 8.919-18.14 6.314 6.52-8.025 6.492-3.708 16.872-10.037 22.38-11.608 48.376-18 73.614-15.16 12.023 3.434 22.262-1.316 34.154 2.445 9.819-.636 7.797 9.508-1.254 5.41zm116.588-.036c-2.315-11.779 17.73-8.948 27.597-10.737 12.731-2.31 21.195-1.429 33.544-1.975 21.922 1.15 41.024 6.287 59.827 17.444 6.725 3.315 10.123 4.831 13.262 9.14-1.86 4.763-19.243-3.666-20.791-4.108-12.4-5.821-31.365-7.202-44.936-6.618-16.001.69-29.317-1.278-45.45-2.597-8.481-1.033-15.365 2.756-23.053-.549zm9.487-1.253c14.757-3.42 30.805 2.25 45.713 2.06 20.555-3.493 39.084-2.708 57.83 6.521 10.897 3.008 11.049 5.396 17.298 6.125 2.34-3.301-5.81-3.815-16.133-9.807-22.216-10.916-47.869-16.636-72.581-13.31-11.728 3.626-21.88-.818-33.473 3.127-9.652-.415-7.45 9.5 1.346 5.284z"/>
</svg>
