<svg xmlns="http://www.w3.org/2000/svg" width="1278.065" height="1569.494" viewBox="0 0 338.155 415.262">
  <path fill="none" d="M.5.5h337.155v414.262H.5z" paint-order="stroke fill markers"/>
  <path class="hair" fill="#3b2516" d="M209.968 97.63c-.965-.02-2.204.11-3.461.383-5.411 1.172-10.28 1.85-10.67 1.487-.419-.39-3.952.264-6.6 1.221-5.526 1.999-6.454 2.586-8.4 5.313-1.37 1.92-1.451 3.235-.277 4.516.637.696.996.884 1.713.898 1.2.023 3.038-.331 5.004-.966.88-.284 2.736-.676 4.123-.872 2.538-.357 5.058-.84 9.972-1.914 2.427-.53 5.742-1.805 6.149-2.364.09-.125 1.08-.208 2.2-.186 1.871.037 2.23.131 4.5 1.164 2.435 1.108 4.803 1.849 5.984 1.872.607.012 1.683-.711 1.693-1.139 0-.125-.392-.598-.877-1.05-.485-.452-1.07-1.162-1.298-1.578-.275-.502-1.355-1.334-3.204-2.469-1.672-1.026-3.17-2.158-3.74-2.826-.523-.612-1.164-1.193-1.424-1.29-.327-.123-.808-.189-1.387-.2zm-83.173 2.205c-.772 0-1.395.09-1.794.275-.484.224-1.656.743-2.605 1.153-1.306.564-2.268 1.256-3.964 2.85a158.332 158.332 0 0 1-3.66 3.335c-1.563 1.356-1.844 2.196-.894 2.673.305.153.894.225 1.309.16.415-.066.83-.005.922.134.225.341 1.625.174 4.359-.522l2.263-.576 4.755.361c5.43.413 6.974.466 13.221.458l4.5-.005 1.625.8c.894.44 2.25.96 3.015 1.157.764.198 1.684.474 2.044.614.976.38 2.017.36 2.497-.049.883-.754.42-4.12-.74-5.38-.592-.642-4.334-2.496-6.996-3.466-3.27-1.19-9.99-2.69-12.257-2.734-.557-.01-1.825-.238-2.819-.504-1.788-.48-3.493-.732-4.78-.733z"/>
  <path d="M126.67 101.25c.645-.004 1.522.068 2.223.192a57.65 57.65 0 0 0 3.02.446c.726.08 1.792.306 2.37.501 1.82.616 6.225 1.413 8.66 1.568 1.755.112 2.421.247 2.647.536.276.351 4.606 2.063 5.282 2.088.88.032 2.17 2.48 2.127 4.035-.014.559-.113.61-1.14.604-.718-.004-1.631-.246-2.54-.673-.779-.366-2.492-.934-3.805-1.263-2.156-.54-3.01-.612-8.737-.75-3.491-.083-8.182-.324-10.424-.534-2.242-.21-4.693-.337-5.448-.282-1.585.114-3.866.874-4.545 1.515-.428.403-1.449.606-1.44.286 0-.128 3.707-3.685 6.08-5.837 1.244-1.13 3.518-2.196 5.118-2.402.148-.02.337-.028.552-.03zm.125-1.415c-.772 0-1.395.09-1.794.275-.484.224-1.656.743-2.605 1.153-1.306.564-2.268 1.256-3.964 2.85a158.332 158.332 0 0 1-3.66 3.335c-1.563 1.356-1.844 2.196-.894 2.673.305.153.894.225 1.309.16.415-.066.83-.005.922.134.225.341 1.625.174 4.359-.522l2.263-.576 4.755.361c5.43.413 6.974.466 13.221.458l4.5-.005 1.625.8c.894.44 2.25.96 3.015 1.157.764.198 1.684.474 2.044.614.976.38 2.017.36 2.497-.049.883-.754.42-4.12-.74-5.38-.592-.642-4.334-2.496-6.996-3.466-3.27-1.19-9.99-2.69-12.257-2.734-.557-.01-1.825-.238-2.819-.504-1.788-.48-3.493-.732-4.78-.733zm82.757-1.256c.87.004 1.3.313 2.086 1.002.643.564 2.307 1.737 3.699 2.608 1.484.93 2.763 1.929 3.094 2.42.311.46.802 1.122 1.091 1.471.94 1.133-.014.93-3.553-.753-3.083-1.467-3.562-1.623-5.387-1.76-1.952-.148-2.036-.131-3.324.648-1.856 1.123-3.397 1.74-5.574 2.232-1.034.234-2.24.558-2.681.72-1.026.379-7.706 1.328-9.971 1.418-.954.037-2.124.238-2.6.446-1.017.444-4.002.657-4.526.323-1.025-.654 1.114-4.053 3.35-5.322.703-.399 1.96-.888 2.794-1.086 1.838-.437 3.723-1.222 4.813-2.004 1.183-.849 2.103-1.095 2.485-.666.585.658 3.895.3 11-1.187 1.584-.332 2.527-.513 3.204-.51zm.416-.95c-.965-.019-2.204.112-3.461.384-5.411 1.172-10.28 1.85-10.67 1.487-.419-.39-3.952.264-6.6 1.221-5.526 1.999-6.454 2.586-8.4 5.313-1.37 1.92-1.451 3.235-.277 4.516.637.696.996.884 1.713.898 1.201.023 3.038-.331 5.004-.966.88-.284 2.736-.676 4.123-.872 2.538-.357 5.058-.84 9.972-1.914 2.427-.53 5.742-1.805 6.149-2.364.09-.125 1.08-.208 2.2-.186 1.871.037 2.23.131 4.5 1.164 2.435 1.108 4.803 1.849 5.984 1.872.607.012 1.683-.711 1.693-1.139 0-.125-.392-.598-.877-1.05-.485-.452-1.07-1.162-1.298-1.578-.275-.502-1.355-1.334-3.204-2.469-1.672-1.026-3.17-2.158-3.74-2.826-.523-.612-1.164-1.193-1.424-1.29-.327-.123-.808-.189-1.387-.2z"/>
</svg>
