<svg xmlns="http://www.w3.org/2000/svg" width="1274.286" height="1565.714">
  <path fill="none" d="M0 0h1274.286v1565.714H0z" paint-order="stroke fill markers"/>
  <path class="hair" fill="#3b2516" d="M577.694 427.132c1.11-1.056 2.018-6.18 2.018-6.499 0-.318-1.864-1.903-4.142-3.52-2.278-1.617-5.01-3.727-6.07-4.687-2.575-2.33-21.5-10.047-43.412-15.28-34.431-8.221-33.112-6.952-38.863-2.94-3.785 2.638-5.8 3.44-8.924 3.547-5.754.198-12.131 2.288-13.642 4.472-.711 1.029-3.25 2.528-5.643 3.333-7.888 2.653-11.575 8.537-3.386 6.103 2.674-.794 15.053-1.337 26.047-1.288l16.13.071 7.848 3.38c26.15 11.26 66.81 18.283 72.039 13.308zm145.226-5.813c1.918-.515 5.646-1.234 8.284-1.596 8.698-1.196 30.037-6.156 32.453-7.544 1.304-.749 4.051-1.91 6.103-2.581 9.395-3.07 16.65-5.87 18.372-7.092 3.437-2.438 12.57-1.737 21.744 1.669 4.691 1.742 10.648 3.234 14.189 3.556 3.356.305 7.42.794 9.031 1.086l2.928.531-1.415-2.187c-1.064-1.644-3.196-6.68-8.595-8.179-3.948-1.096-8.75-2.894-10.668-3.995-2.31-1.326-7.467-2.66-15.26-3.946-6.474-1.068-12.928-2.318-14.343-2.777-2.642-.858-11.285.676-17.996 3.193-1.722.645-8.589 2.014-15.26 3.04-6.67 1.027-15.334 2.648-19.253 3.603-3.918.955-9.02 1.986-11.335 2.291-2.316.305-5.191 1.094-6.39 1.753-1.2.659-3.231 1.577-4.516 2.04-3.231 1.168-13.748 14.028-13.038 16.29.488 1.559 5.38 1.733 13.01 1.756 4.657.015 10.037-.395 11.955-.91z"/>
  <path d="M720.92 419.32c1.918-.516 5.646-1.235 8.284-1.597 8.698-1.196 30.037-6.156 32.453-7.544 1.304-.749 4.051-1.91 6.103-2.581 9.395-3.07 16.65-5.87 18.372-7.092 3.437-2.438 12.57-1.737 21.744 1.669 4.691 1.742 10.648 3.234 14.189 3.556 3.356.305 7.42.794 9.031 1.086l2.928.531-1.415-2.187c-1.064-1.644-3.196-2.68-8.595-4.179-3.948-1.096-8.75-2.894-10.668-3.995-2.31-1.326-7.467-2.66-15.26-3.946-6.474-1.068-12.928-2.318-14.343-2.777-2.642-.858-11.285.676-17.996 3.193-1.722.645-8.589 2.014-15.26 3.04-6.67 1.027-15.334 2.648-19.253 3.603-3.918.955-9.02 1.986-11.335 2.291-2.316.305-5.191 1.094-6.39 1.753-1.2.659-3.231 1.577-4.516 2.04-3.231 1.168-9.748 10.028-9.038 12.29.488 1.559 1.38 1.733 9.01 1.756 4.657.015 10.037-.395 11.955-.91zm-22.463 8.032c-.844-.498-2.545-2.924-3.78-5.391-3.254-6.502-2.487-9.377 4.237-15.875 2.957-2.86 6.125-5.15 7.125-5.152.991-.003 2.98-.655 4.418-1.449 2.497-1.378 6.305-2.333 13.95-3.502 1.92-.293 5.07-1.051 7.003-1.685 1.933-.635 9.33-2.01 16.438-3.057 8.037-1.183 14.189-2.57 16.27-3.67 2.856-1.507 4.536-1.706 11.464-1.358 7.985.402 31.052 4.683 35.858 6.655 5.708 1.215 9.783 3.449 15.006 5.385 6.662 2.422 6.952 2.384 11.836 6.025 1.898 1.347 1.059 3.307-.605 4.706-.7.588-2.618.902-6.929.623-3.817-.247-8.032-.695-10.449-.841-2.416-.146-8.793-.143-13.09-1.844-4.298-1.702-9.717-3.345-12.041-3.65-3.927-.517-4.478-.34-7.75 2.497-5.032 4.361-15.453 8.544-23.337 9.368-3.597.376-12.033 2.15-18.747 3.944-6.713 1.794-13.972 3.55-16.13 3.904-8.049 1.32-15.359 2.941-18.547 4.115-3.847 1.417-10.007 1.545-12.2.252zm-122.05-2.472c1.11-1.056 2.017-2.18 2.017-2.5 0-.318-1.863-1.902-4.141-3.52-2.278-1.617-5.01-3.726-6.07-4.687-2.575-2.33-37.41-11.1-59.07-17.3-16.375-4.685-16.167-4.679-21.918-.668-3.785 2.64-5.8 3.44-8.924 3.548-5.754.198-12.131 2.288-13.642 4.472-.711 1.029-3.25 2.528-5.643 3.333-7.888 2.653-5.582 4.342 2.606 1.909 2.674-.795 9.061-1.143 20.055-1.094l16.13.071 7.848 3.38c26.15 11.26 65.523 18.03 70.752 13.056zm-2.606 10.188c-.306-.309-3.803-.664-7.775-.79-10.198-.32-44.483-7.673-61.679-15.192-5.67-2.48-9.31-3.431-15.495-4.05-4.447-.446-8.763-1.165-9.592-1.598-3.306-1.729-12.305-2.023-17.424-.57-6.393 1.813-14.915 1.482-16.225-.631-1.414-2.282 1.987-5.382 7.95-7.248 2.755-.862 6.649-2.524 8.653-3.692 2.003-1.168 4.946-2.129 6.54-2.135 1.592-.008 5.13-1.16 7.862-2.562 10.535-5.411 21.972-7.408 28.862-5.039 2.146.738 7.52 1.978 11.943 2.755 4.423.777 11.235 2.734 15.14 4.35 3.905 1.615 25.92 6.008 29.788 7.292 10.174 3.378 16.311 7.523 18.673 12.612 1.535 3.306 1.724 4.523.964 6.212-.52 1.155-.946 3.411-.946 5.013 0 1.7-.663 3.52-1.594 4.373-1.602 1.468-4.61 1.947-5.645.9z"/>
</svg>
