<svg xmlns="http://www.w3.org/2000/svg" width="1274.286" height="1565.714">
  <path fill="none" d="M0 0h1274.286v1565.714H0z" paint-order="stroke fill markers"/>
  <path class="hair" fill="#3b2516" d="M576.922 427.325c.902-12.111-20.668-13.227-30.472-15.146-19.501-2.144-45.677-6.352-65.24-4.991-15.418 4.171-28.988 13.6-31.769 29.109 3.006 4.215 17.227-6.864 21.725-6.494 8.163-1.203 17.46-2.616 25.638-2.742 24.242 5.287 49.665 7.412 74.207 3.07 2.04-.632 4.451-1.06 5.911-2.806zm139.912 5.05c17.322-.149 34.82.02 51.753-3.995 12.357-1.1 25.563-5.524 36.495 2.906 8.278-1.027 11.056 2.893 20.98 9.098.275-11.296-10.648-27.052-28.026-31.598-12.615-5.004-13.906.75-27.637-.204-20.143 1.588-40.158 3.597-60.266 5.572-10.906-.185-20.617 19.843-3.486 17.36 3.37.478 6.774.982 10.187.862z"/>
  <path d="M492.78 403.555c-3.1-.042-6.115.452-8.993 1.855-21.613-.379-26.677 11.754-34.24 25.145-6.06 10.727.855 16.992 7.215 7.314 8.079-11.614 25.735-2.462 39.092-3.902 26.127 4.215 52.982 5.46 79.23 1.617 9.282 1.065 7.051-15.46 2.043-19.26-16.259-11.693-37.391-4.37-55.797-8.05-9.222.343-19.255-4.596-28.55-4.72zm289.177.138c-9.462.124-19.673 5.063-29.06 4.72-18.735 3.679-40.245-3.644-56.793 8.05-5.098 3.8-7.37 20.324 2.078 19.26 26.716 3.843 54.052 2.597 80.646-1.618 13.595 1.441 31.568-7.711 39.791 3.903 6.474 9.677 13.51 3.413 7.342-7.315-7.698-13.39-12.85-25.523-34.85-25.144-2.929-1.403-6-1.897-9.154-1.856zm-295.625 4.295c18.527-.248 39.083 5.788 57.625 6.332 9.877.765 30.881.264 31.469 10.754-1.393 1.751-3.74 2.25-5.735 2.916-24.036 4.846-49.085 3.05-73.011-1.68-8.192.255-18.368-.605-26.524.758-2.827-.657-14.27 7.887-18.447 9.254-2.072.679-.278-3.3 1.133-5.328 7.129-13.894 19.135-20.062 33.49-23.006zm302.188.139c14.611 2.944 26.83 9.112 34.087 23.006 1.436 2.028 3.262 6.006 1.153 5.328-4.252-1.368-15.897-9.91-18.776-9.254-8.3-1.363-18.66-.502-26.998-.756-24.353 4.73-49.849 6.524-74.314 1.678-2.03-.666-4.42-1.165-5.838-2.916.598-10.49 21.978-9.99 32.031-10.754 18.873-.544 39.797-6.58 58.655-6.332z"/>
</svg>
