<?xml version="1.0" encoding="UTF-8" standalone="no"?>
<!-- Created with Inkscape (http://www.inkscape.org/) -->

<svg
   xmlns:dc="http://purl.org/dc/elements/1.1/"
   xmlns:cc="http://creativecommons.org/ns#"
   xmlns:rdf="http://www.w3.org/1999/02/22-rdf-syntax-ns#"
   xmlns:svg="http://www.w3.org/2000/svg"
   xmlns="http://www.w3.org/2000/svg"
   xmlns:sodipodi="http://sodipodi.sourceforge.net/DTD/sodipodi-0.dtd"
   xmlns:inkscape="http://www.inkscape.org/namespaces/inkscape"
   version="1.1"
   id="svg2"
   width="1274.2856"
   height="1565.7144"
   viewBox="0 0 1274.2856 1565.7144"
   sodipodi:docname="Brows03.svg"
   inkscape:version="0.92.3 (2405546, 2018-03-11)"
   inkscape:label="Ebene">
  <metadata
     id="metadata8">
    <rdf:RDF>
      <cc:Work
         rdf:about="">
        <dc:format>image/svg+xml</dc:format>
        <dc:type
           rdf:resource="http://purl.org/dc/dcmitype/StillImage" />
        <dc:title></dc:title>
      </cc:Work>
    </rdf:RDF>
  </metadata>
  <defs
     id="defs6" />
  <sodipodi:namedview
     pagecolor="#ffffff"
     bordercolor="#666666"
     borderopacity="1"
     objecttolerance="10"
     gridtolerance="10"
     guidetolerance="10"
     inkscape:pageopacity="0"
     inkscape:pageshadow="2"
     inkscape:window-width="1920"
     inkscape:window-height="1001"
     id="namedview4"
     showgrid="false"
     inkscape:zoom="0.184375"
     inkscape:cx="712.93446"
     inkscape:cy="1738.817"
     inkscape:window-x="-9"
     inkscape:window-y="-9"
     inkscape:window-maximized="1"
     inkscape:current-layer="svg2"
     fit-margin-top="0"
     fit-margin-left="0"
     fit-margin-right="0"
     fit-margin-bottom="0" />
  <rect
     style="display:inline;opacity:1;fill:none;fill-opacity:1;fill-rule:evenodd;stroke:none;stroke-width:3.77952719;stroke-linecap:round;stroke-linejoin:miter;stroke-miterlimit:4;stroke-dasharray:none;stroke-dashoffset:0;stroke-opacity:1;paint-order:stroke fill markers"
     id="rect1307"
     width="1274.2856"
     height="1565.7144"
     x="0"
     y="0"
     inkscape:label="Frame" />
  <path
     id="path1238"
     style="fill:#ffe680;fill-opacity:1;stroke-width:3.77952766"
     d="m 577.6939,425.13236 c 1.1097,-1.05596 2.0179,-2.1806 2.0179,-2.49925 0,-0.31861 -1.8637,-1.90269 -4.1416,-3.52006 -2.2779,-1.61738 -5.0098,-3.72662 -6.0707,-4.68722 -2.5742,-2.33057 -21.4987,-10.04663 -43.412,-15.2792 -34.4308,-8.22168 -33.1113,-6.95263 -38.8626,-2.94145 -3.7845,2.63909 -5.8005,3.44062 -8.9242,3.54784 -5.7536,0.19767 -12.1312,2.28801 -13.6415,4.47175 -0.7117,1.02875 -3.2508,2.52873 -5.6428,3.33324 -7.8883,2.65327 -5.5828,4.34188 2.606,1.90874 2.674,-0.79453 9.0606,-1.14301 20.0545,-1.09414 l 16.1306,0.0718 7.8475,3.37901 c 26.1509,11.2602 66.8099,18.28343 72.0389,13.30908 z m 143.226,-5.81295 c 1.9185,-0.5156 5.6458,-1.23413 8.2836,-1.59674 8.6985,-1.19584 30.0374,-6.15568 32.4532,-7.54329 1.3047,-0.74918 4.0513,-1.91082 6.1036,-2.5815 9.3944,-3.06954 16.6488,-5.87002 18.3715,-7.09183 3.4371,-2.43783 12.5696,-1.73695 21.7437,1.66878 4.6915,1.74168 10.648,3.23467 14.1891,3.55654 3.3569,0.305 7.4211,0.79373 9.0315,1.08578 l 2.9276,0.53106 -1.415,-2.18672 c -1.0639,-1.64429 -3.196,-2.68093 -8.5943,-4.17925 -3.9488,-1.09588 -8.7496,-2.89376 -10.6681,-3.99527 -2.3096,-1.32574 -7.4676,-2.6595 -15.2598,-3.94575 -6.4743,-1.06866 -12.9286,-2.31855 -14.3433,-2.7775 -2.6423,-0.85738 -11.2853,0.67605 -17.9966,3.1931 -1.7216,0.64562 -8.5882,2.01377 -15.2591,3.04029 -6.6709,1.02652 -15.3347,2.64786 -19.2533,3.60295 -3.9186,0.95512 -9.0195,1.98606 -11.3352,2.29096 -2.3157,0.30501 -5.1915,1.09357 -6.3904,1.75257 -1.1989,0.65899 -3.2307,1.57757 -4.5154,2.04128 -3.2315,1.16678 -9.7478,10.02682 -9.0384,12.28993 0.4883,1.55792 1.3803,1.73174 9.0097,1.75559 4.6571,0.0151 10.0373,-0.39538 11.9554,-0.91098 z"
     inkscape:connector-curvature="0"
     inkscape:label="Brauen"
     sodipodi:nodetypes="csscscccccccccccccccccccccccccsccscccc" />
  <path
     id="path1186"
     style="fill:#000000;stroke-width:3.77952766"
     d="m 720.9199,419.31941 c 1.9185,-0.5156 5.6458,-1.23413 8.2836,-1.59674 8.6985,-1.19584 30.0374,-6.15568 32.4532,-7.54329 1.3047,-0.74918 4.0513,-1.91082 6.1036,-2.5815 9.3944,-3.06954 16.6488,-5.87002 18.3715,-7.09183 3.4371,-2.43783 12.5696,-1.73695 21.7437,1.66878 4.6915,1.74168 10.648,3.23467 14.1891,3.55654 3.3569,0.305 7.4211,0.79373 9.0315,1.08578 l 2.9276,0.53106 -1.4146,-2.18672 c -1.064,-1.64429 -3.196,-2.68093 -8.5947,-4.17925 -3.9488,-1.09588 -8.7496,-2.89376 -10.6681,-3.99527 -2.3096,-1.32574 -7.4676,-2.6595 -15.2598,-3.94575 -6.4743,-1.06866 -12.9286,-2.31855 -14.3433,-2.7775 -2.6423,-0.85738 -11.2853,0.67605 -17.9966,3.1931 -1.7216,0.64562 -8.5882,2.01377 -15.2591,3.04029 -6.6709,1.02652 -15.3347,2.64786 -19.2533,3.60295 -3.9186,0.95512 -9.0195,1.98606 -11.3352,2.29096 -2.3157,0.30501 -5.1915,1.09357 -6.3904,1.75257 -1.1989,0.65899 -3.2307,1.57757 -4.5154,2.04128 -3.2315,1.16678 -9.7478,10.02682 -9.0384,12.28993 0.4883,1.55792 1.3803,1.73174 9.0097,1.75559 4.6571,0.0151 10.0373,-0.39538 11.9554,-0.91098 z m -22.4625,8.0324 c -0.8447,-0.49818 -2.5459,-2.92418 -3.7803,-5.39112 -3.2538,-6.50192 -2.4866,-9.37681 4.2365,-15.87511 2.9574,-2.85872 6.1254,-5.149 7.1259,-5.15202 0.991,-0.003 2.9786,-0.65473 4.4171,-1.44828 2.4979,-1.37779 6.3058,-2.33352 13.951,-3.50181 1.9185,-0.29329 5.0695,-1.05184 7.0027,-1.68597 1.9329,-0.63417 9.3302,-2.00946 16.4376,-3.05624 8.0368,-1.1836 14.1887,-2.57117 16.2701,-3.66984 2.8565,-1.50781 4.5365,-1.7068 11.4644,-1.35799 7.9843,0.40203 31.0519,4.68306 35.8579,6.65473 5.7082,1.21497 9.7826,3.4484 15.0055,5.38462 6.6622,2.42203 6.9521,2.38461 11.836,6.02558 1.8984,1.34654 1.059,3.3069 -0.6048,4.70533 -0.6999,0.58798 -2.6177,0.90236 -6.929,0.62301 -3.8165,-0.24718 -8.0322,-0.69509 -10.4485,-0.8409 -2.4166,-0.14589 -8.7938,-0.14249 -13.0911,-1.84422 -4.2977,-1.70185 -9.7161,-3.34455 -12.0408,-3.65042 -3.9262,-0.51651 -4.4777,-0.33865 -7.75,2.49766 -5.0317,4.36139 -15.4522,8.54464 -23.3367,9.36824 -3.5966,0.37568 -12.0328,2.15063 -18.7468,3.9442 -6.7136,1.79361 -13.9725,3.55041 -16.1306,3.90403 -8.0485,1.31879 -15.3585,2.94066 -18.5466,4.115 -3.8471,1.4172 -10.007,1.54423 -12.1995,0.25171 z m -122.0508,-2.472 c 1.1097,-1.05596 2.0179,-2.1806 2.0179,-2.49925 0,-0.31861 -1.8637,-1.90269 -4.1416,-3.52006 -2.2779,-1.61737 -5.0098,-3.72661 -6.0707,-4.68722 -2.5742,-2.33057 -37.4098,-11.10081 -59.0695,-17.2995 -16.3744,-4.68613 -16.1665,-4.67978 -21.9178,-0.6686 -3.7845,2.63909 -5.8005,3.44062 -8.9242,3.54784 -5.7536,0.19767 -12.1312,2.28801 -13.6415,4.47175 -0.7117,1.02875 -3.2508,2.52873 -5.6428,3.33324 -7.8883,2.65327 -5.5828,4.34188 2.606,1.90874 2.674,-0.79453 9.0606,-1.14301 20.0545,-1.09414 l 16.1306,0.0718 7.8475,3.37901 c 26.1509,11.2602 65.5226,18.03088 70.7516,13.05653 z m -2.6056,10.18821 c -0.3061,-0.30879 -3.8033,-0.66387 -7.7749,-0.78916 -10.1979,-0.32164 -44.4827,-7.67377 -61.6788,-15.19318 -5.6708,-2.47974 -9.3098,-3.43098 -15.4957,-4.05052 -4.4463,-0.4453 -8.7625,-1.16417 -9.5913,-1.59745 -3.3064,-1.72823 -12.3058,-2.02288 -17.4244,-0.57045 -6.3931,1.81399 -14.9152,1.48271 -16.2251,-0.63065 -1.4136,-2.28117 1.9869,-5.38129 7.9494,-7.24762 2.7557,-0.86249 6.6497,-2.52393 8.6533,-3.69207 2.0039,-1.16814 4.9466,-2.12893 6.5397,-2.13505 1.5931,-0.008 5.1315,-1.15915 7.8629,-2.56218 10.5347,-5.41066 21.9715,-7.40727 28.862,-5.03838 2.146,0.73792 7.5205,1.97741 11.9429,2.75441 4.4225,0.77703 11.2354,2.7346 15.1401,4.35016 3.905,1.61556 25.9207,6.00812 29.7876,7.29199 10.1748,3.37841 16.3113,7.52296 18.6735,12.61198 1.5348,3.30615 1.7234,4.52281 0.9634,6.21215 -0.5201,1.1554 -0.9453,3.41117 -0.9453,5.01279 0,1.69973 -0.6637,3.52036 -1.5946,4.37333 -1.6014,1.46766 -4.6102,1.94736 -5.6447,0.8999 z"
     inkscape:connector-curvature="0"
     inkscape:label="Kontur_Brauen"
     sodipodi:nodetypes="cccccccccccccccsccsccccccccccccccccccccccccccccccsscscccccccccccccscccccccccccccscc" />
</svg>
