<svg xmlns="http://www.w3.org/2000/svg" width="1274.286" height="1565.714">
  <path fill="none" d="M0 0h1274.286v1565.714H0z" paint-order="stroke fill markers"/>
  <path class="hair" fill="#3b2516" d="M578.24 419.76c.902-12.112-21.986-17.662-31.79-19.581-19.501-2.144-45.677-6.352-65.24-4.991-15.418 4.171-28.988 13.6-31.769 29.109 3.006 4.215 17.227-6.864 21.725-6.494 8.163-1.203 17.46-2.616 25.638-2.742 24.482 3.968 56.377 8.73 80.32 15.056 2.04-.633 1.694-6.335 1.117-10.358zm142.19 3.852c17.441-3.745 29.785-4.536 48.157-7.232 12.357-1.1 25.563-5.524 36.495 2.906 8.278-1.027 11.056 2.893 20.98 9.098.275-11.296-10.648-27.052-28.026-31.598-12.615-5.004-13.906.75-27.637-.204-20.143 1.588-45.311 4.915-62.783 10.486-12.536 4.754-21.456 25.835-4.324 23.353 3.37.477 13.485-4.172 17.137-6.81z"/>
  <path d="M492.78 391.555c-3.1-.042-6.115.452-8.993 1.855-21.613-.379-26.677 11.754-34.24 25.145-6.06 10.727.855 16.992 7.215 7.314 8.079-11.614 26.243-6.36 39.6-7.8 20.127 3.246 36.07 1.404 55.646 7.214 13.024 3.866 17.219 8.506 23.246 7.623 9.282 1.065 5.186-17.663.178-21.463-14.564-14.066-35.696-11.49-54.102-15.17-9.222.344-19.255-4.595-28.55-4.718zm288.667.138c-9.296.124-19.328 5.063-28.55 4.72-18.406 3.679-39.538 1.103-54.102 15.169-5.008 3.8-9.104 22.528.178 21.463 6.027.882 10.222-3.757 23.246-7.623 19.575-5.81 35.518-3.968 55.646-7.215 13.356 1.44 31.52-3.813 39.6 7.8 6.36 9.678 13.274 3.414 7.215-7.314-7.563-13.39-12.628-25.523-34.24-25.144-2.878-1.403-5.894-1.897-8.993-1.856zm-295.115 4.295c18.527-.248 39.083 5.788 57.625 6.332 9.877.765 32.377 5.227 32.965 15.717 2.675 7.853-.49 9.83-2.485 10.496-4.047.816-11.852-2.963-20.353-5.896-19.235-6.636-37.507-4.394-57.404-8.326-8.192.254-18.368-.606-26.524.757-2.827-.657-14.27 7.887-18.447 9.254-2.072.679-.278-3.3 1.133-5.328 5.794-15.762 17.29-22.643 33.49-23.006zm301.563.139c16.199.362 27.695 7.243 33.49 23.006 1.41 2.028 3.205 6.006 1.133 5.328-4.178-1.368-15.62-9.91-18.448-9.254-8.155-1.363-18.332-.503-26.523-.758-19.897 3.933-38.169 1.69-57.404 8.326-8.502 2.933-16.307 6.713-20.354 5.897-1.994-.666-5.16-2.644-2.484-10.496.587-10.49 23.087-14.952 32.965-15.717 18.541-.544 39.098-6.58 57.625-6.332z"/>
</svg>
