<svg xmlns="http://www.w3.org/2000/svg" width="1278.065" height="1569.494">
  <path fill="none" d="M4 3.78h1274.286v1565.714H4z" paint-order="fill markers stroke"/>
  <path class="hair" fill="#3b2516" d="M581.94 420.56c-4.997-2.823-25.606-5.655-39.739-10.434-17.114-1.306-34.514-1.18-52.293.93-12.234 2.096-23.837 5.754-34.898 10.623-8.635 4.194-12.46 9.403-9.858 9.017 11.613-4.198 38.983-14.362 52.825-10.018 17.647 1.785 46.695 2.09 64.695 3.255 7.547 1.142 14.327 2.682 21.317 2.818l-.852-3.969zm118.555 2.148c15.083-3.394 32.048 2.414 47-2.626 21-3.431 39.359-3.742 59.39.636 11.848 1.311 21.07 6.928 22.372 7.182-5.57-10.723-11.592-6.119-22.088-12.3-22.601-11.287-47.062-10.447-72.304-7.214-11.993 3.624-24.213 3.889-36.069 7.84-9.848-.488-7.906 12.167 1.1 7.923z"/>
  <path d="M583.989 426.75c3.562-11.695-17.042-10.897-26.855-13.73-12.662-3.654-21.328-3.636-33.786-5.466-22.331-1.099-42.218 2.134-62.423 11.497-7.157 2.664-10.756 3.85-14.382 7.892-1.346 1.501-4.05 2.593-2.501 5.146 9.924-4.597 10.794-4.808 23.993-7.162 13.165-4.618 32.525-4.057 46.216-2.064 16.143 2.351 29.838 1.734 46.322 2.063 8.7-.17 15.284 4.38 23.416 1.825zm-9.484-2.249c-14.6-4.989-31.446-.902-46.533-2.634-20.467-5.663-39.323-6.781-59.27.634-11.897.027-13.232 1.968-23.148 7.593 7.613-9.107 11.267-6.44 22.347-11.444 23.638-8.767 50.222-11.912 74.92-5.99 11.509 4.886 22.255 1.431 33.593 6.626 9.823.576 6.569 10.395-1.91 5.215zm117.038-.509c-3.497-11.483 16.732-10.7 26.367-13.48 12.43-3.589 20.94-3.57 33.17-5.367 21.926-1.08 41.45 2.095 61.288 11.287 7.027 2.616 10.56 3.78 14.12 7.749 1.322 1.474 3.977 2.545 2.456 5.052-9.744-4.513-10.598-4.72-23.556-7.032-12.926-4.533-31.934-3.983-45.375-2.026-15.85 2.308-29.296 1.702-45.48 2.025-8.542-.167-15.005 4.3-22.99 1.792zm9.312-2.208c14.334-4.899 30.874-.886 45.686-2.587 20.095-5.56 38.608-6.658 58.193.623 11.68.026 12.99 1.931 22.726 7.454-7.474-8.941-11.063-6.322-21.94-11.235-23.209-8.608-49.31-11.696-73.557-5.882-11.3 4.797-21.85 1.406-32.983 6.507-9.644.565-6.449 10.205 1.875 5.12z"/>
</svg>
