<svg xmlns="http://www.w3.org/2000/svg" width="1278.065" height="1569.494" viewBox="0 0 338.155 415.262">
  <path fill="none" d="M.5.5h337.155v414.262H.5z" paint-order="stroke fill markers"/>
  <path class="hair" fill="#3b2516" d="M119.955 116.385c2.963-2.24 6.673-2.041 10.31-1.856 4.71.301 9.5-.039 14.096 1.198 2.853-.254 9.346 2.512 9.081-2.295.17-4.621-4.776-4.798-8.224-4.635-3.867-.241-7.675-1.042-11.472-1.774-3.81-.955-7.8.181-11.523 1.077-2.036.358-4.417 1.549-3.701 3.949.264 1.06-.534 5.833 1.433 4.336zm65.05-.427c3.228-.354 6.317-1.862 9.71-1.738 4.956.66 9.788-2.17 14.707-.746 3.141-.572 6.837.92 9.553.469.576-3.49-.484-7.029-4.675-6.616-3.87.197-7.053-1.201-10.6-1.823-3.743-.443-7.258 1.011-10.947.984-3.17 1.04-7.865 1.355-8.776 5.296-.122 1.152-1.896 5.878 1.027 4.174z"/>
  <path d="M185.005 115.958c3.228-.354 6.317-1.862 9.71-1.738 4.956.66 9.789-2.17 14.707-.746 3.142-.572 6.837.92 9.553.469.576-3.49-.484-7.029-4.675-6.616-3.87.197-7.053-1.201-10.6-1.823-3.743-.443-7.258 1.011-10.947.984-3.17 1.04-7.865 1.355-8.776 5.296-.122 1.152-1.896 5.878 1.028 4.174zm-2.14 1.085c-1.33-3.314.269-8.677 4.148-9.615 3.296-2.233 7.364-1.297 10.946-2.511 4.058-1.409 8.268-.412 12.284.54 3.084.805 6.912-.03 9.088 2.076 1.55 2.172.867 5.042 1.169 7.562-2.34 1.332-5.197-1.301-7.883-.633-4.246.027-8.515-.53-12.741.26-3.512.253-7.068.322-10.534.827-1.765.826-4.56 2.056-6.477 1.494zm-62.91-.658c2.963-2.24 6.673-2.041 10.31-1.856 4.71.301 9.5-.039 14.096 1.198 2.853-.254 9.346 2.512 9.081-2.295.17-4.621-4.776-4.798-8.224-4.635-3.867-.241-7.675-1.042-11.472-1.774-3.81-.955-7.8.181-11.523 1.077-2.036.358-4.417 1.549-3.701 3.949.264 1.06-.534 5.833 1.433 4.336zm-1.031 1.124c-1.785-2.383-2.85-8.65.9-9.8 4.806-1.344 10.026-3.311 14.987-1.536 5.412 1.102 10.833 2.192 16.372 2.335 2.994.674 5.052 8.361.839 8.799-6.103.077-12.09-1.622-18.21-1.439-3.637.166-7.386-1.097-10.913.03-.798 1.024-2.853 2.005-3.975 1.611z"/>
</svg>
