<svg xmlns="http://www.w3.org/2000/svg" width="1278.065" height="1569.494" viewBox="0 0 338.155 415.262">
  <path fill="none" d="M.5.5h337.155v414.262H.5z" paint-order="stroke fill markers"/>
  <path class="skin" fill="#f7ba8f" d="M174.484 48.809c-1.702.005-3.347.11-4.876.334-11.173-.723-24.167-.086-33.536 6.597-9.352 6.088-14.92 16.244-20.24 25.765-5.828 9.074-6.913 24.132-10.686 34.059-.99 8.299-1.198 16.704-.752 25.078a7.74 7.74 0 0 0-.496-.256 5.255 5.255 0 0 0-1.291-.428 3.25 3.25 0 0 0-1.388.041c-2.337.599-3.822 2.48-4.698 4.537-.876 2.058-1.222 4.367-1.33 6.25-.352 6.113 1.693 13.289 7.104 17.154 1.122.802 2.58.91 3.894.954 1.15.055 2.06-.003 2.55-.263.087-.126.161-.284.209-.447 4.995 15.255 15.209 28.46 28.839 36.863 9.69 7.567 16.27 10.225 28.041 13.01 11.075.754 23.063.176 31.241-8.396 9.897-10.436 20.763-20.11 29.6-31.477 3.994-3.81 5.456-8.527 6.969-13.615 1.284-.046 2.693-.169 3.784-.948 5.41-3.865 7.454-11.042 7.103-17.155-.109-1.883-.454-4.191-1.33-6.25-.876-2.057-2.36-3.938-4.697-4.536a3.252 3.252 0 0 0-1.39-.041c-.449.08-.882.237-1.29.428a9 9 0 0 0-1.312.768c-1.999-20.038-5.174-41.894-14.35-58.548-5.17-9.822-13.287-17.34-22.377-23.48-3.247-3.132-14.103-6.027-23.295-5.998z"/>
  <path d="M174.484 48.809c-1.702.005-3.347.11-4.876.334-11.173-.723-24.167-.086-33.536 6.597-9.352 6.088-14.92 16.244-20.24 25.765-5.828 9.074-6.913 24.132-10.686 34.058-.99 8.3-1.198 16.705-.752 25.08a7.771 7.771 0 0 0-.496-.257 5.254 5.254 0 0 0-1.291-.428c-.45-.08-.915-.08-1.388.041-2.337.599-3.822 2.48-4.698 4.537-.876 2.058-1.222 4.367-1.33 6.25-.352 6.113 1.693 13.289 7.104 17.154 1.122.802 2.58.91 3.894.954 1.15.055 2.06-.004 2.55-.263.087-.126.161-.284.209-.447 4.325 22.756 19.249 32.158 30.604 41.111 9.358 7.378 15.234 9.25 26.276 9.424 11.099.176 23.063-.486 31.241-9.058 11.735-8.23 21.283-19.486 29.6-31.477 3.994-3.81 5.456-8.527 6.969-13.615 1.284-.046 2.693-.169 3.784-.948 5.41-3.865 7.454-11.042 7.103-17.154-.109-1.884-.454-4.192-1.33-6.25-.876-2.058-2.36-3.939-4.697-4.537a3.253 3.253 0 0 0-1.39-.041c-.45.08-.882.237-1.29.428-.46.214-.897.48-1.312.768-1.999-20.038-5.174-41.894-14.35-58.548-5.17-9.822-13.287-17.34-22.377-23.48-3.247-3.132-14.103-6.027-23.295-5.998zm57.262 115.773c-5.673 14.456-18.334 27.1-28.833 38.178-5.523 5.828-16.066 13.78-27.731 13.571-11.631.868-22.744-1.237-30.534-6.79-8.383-5.975-16.295-11.038-22.415-18.46-4.646-5.632-8.259-12.963-10.262-21.116-2.984-9.178-4.247-16.068-5.112-25.712.139-.415.179-.871-.124-1.455-.341-4.229-.524-8.47-.57-12.699.123-14.242 3.838-33.012 10.636-45.518 6.224-10.972 13.17-23.022 24.734-29.019 11.857-4.108 24.301-4.339 36.665-4.903 11.997.167 21.832 7.434 30.95 14.442 7.695 8.035 10.78 19.344 16.416 28.897 5.205 15.832 7.6 35.618 8.035 53.502.433 3.323.092 6.69-.45 11.613-.135 1.214-.355 2.513-.739 3.646zM196.445 53.567c-.047.011-.04.083.067.251 1.358.778.136-.301-.067-.251zm41.308 84.017c.093 0 .176.01.247.028 1.565.4 2.617 1.654 3.352 3.382.736 1.729 1.077 3.858 1.176 5.583.32 5.568-1.635 12.1-6.27 15.412-.677.335-1.392.51-2.089.613.927-3.794 1.345-7.75 1.434-11.66a372.275 372.275 0 0 0-.222-3.548 8.352 8.352 0 0 1 1.12-1.049c.35.608.6 1.14.734 1.656.192.735.186 1.46-.077 2.455-.17.645.796.9.966.256.295-1.114.315-2.06.079-2.965-.174-.666-.478-1.3-.882-1.99a18.31 18.31 0 0 1 2.056-1.146c.966-.451.65-1.9-.416-1.907-.158 0-.313.036-.454.106-1.747.845-2.73 1.416-3.318 1.871-.135-1.81-.288-3.644-.458-5.496.04-.038.075-.075.123-.114.582-.48 1.23-.927 1.809-1.197.434-.203.81-.29 1.09-.29zm-135.791 4.323c.28 0 .656.086 1.09.289.478.223 1.001.57 1.497.952.113 1.641.25 3.28.413 4.917-.805-.749-1.96-1.55-3.711-2.398a1 1 0 0 0-.454-.105c-1.066.007-1.381 1.455-.415 1.906a18.31 18.31 0 0 1 2.055 1.146c-.404.69-.708 1.325-.881 1.99-.237.906-.217 1.851.077 2.965.17.645 1.138.39.967-.255-.263-.997-.27-1.721-.078-2.456.135-.515.385-1.048.735-1.656 1.1.864 1.667 1.678 2.102 2.476.39 3.226.865 6.44 1.43 9.63a92.023 92.023 0 0 0 1.847 5.985c-.017-.007-.033-.015-.05-.021-2.636-.779-3.277.101-5.13-.96-4.634-3.312-6.59-9.844-6.27-15.413.1-1.724.44-3.853 1.176-5.582.736-1.728 1.787-2.981 3.352-3.383.071-.018.154-.027.248-.027z"/>
</svg>
