<?xml version="1.0" encoding="UTF-8" standalone="no"?>
<!-- Created with Inkscape (http://www.inkscape.org/) -->

<svg
   xmlns:dc="http://purl.org/dc/elements/1.1/"
   xmlns:cc="http://creativecommons.org/ns#"
   xmlns:rdf="http://www.w3.org/1999/02/22-rdf-syntax-ns#"
   xmlns:svg="http://www.w3.org/2000/svg"
   xmlns="http://www.w3.org/2000/svg"
   xmlns:sodipodi="http://sodipodi.sourceforge.net/DTD/sodipodi-0.dtd"
   xmlns:inkscape="http://www.inkscape.org/namespaces/inkscape"
   width="338.15475mm"
   height="415.26193mm"
   viewBox="0 0 338.15475 415.26193"
   version="1.1"
   id="svg8"
   inkscape:version="0.92.3 (2405546, 2018-03-11)"
   sodipodi:docname="Face02.svg">
  <defs
     id="defs2" />
  <sodipodi:namedview
     id="base"
     pagecolor="#ffffff"
     bordercolor="#666666"
     borderopacity="1.0"
     inkscape:pageopacity="0.0"
     inkscape:pageshadow="2"
     inkscape:zoom="0.9899495"
     inkscape:cx="772.62033"
     inkscape:cy="957.09097"
     inkscape:document-units="mm"
     inkscape:current-layer="layer1"
     showgrid="false"
     inkscape:window-width="1920"
     inkscape:window-height="1001"
     inkscape:window-x="-9"
     inkscape:window-y="-9"
     inkscape:window-maximized="1"
     inkscape:snap-global="true"
     showguides="true"
     fit-margin-top="0"
     fit-margin-left="0"
     fit-margin-right="0"
     fit-margin-bottom="0" />
  <metadata
     id="metadata5">
    <rdf:RDF>
      <cc:Work
         rdf:about="">
        <dc:format>image/svg+xml</dc:format>
        <dc:type
           rdf:resource="http://purl.org/dc/dcmitype/StillImage" />
        <dc:title />
      </cc:Work>
    </rdf:RDF>
  </metadata>
  <g
     inkscape:label="Ebene 1"
     inkscape:groupmode="layer"
     id="layer1"
     transform="translate(1355.1667,-269.28568)">
    <rect
       style="opacity:1;fill:none;fill-opacity:1;fill-rule:evenodd;stroke:none;stroke-width:0.99999988;stroke-linecap:round;stroke-linejoin:miter;stroke-miterlimit:4;stroke-dasharray:none;stroke-dashoffset:0;stroke-opacity:1;paint-order:stroke fill markers"
       id="rect1307"
       width="337.15475"
       height="414.26193"
       x="-1354.6667"
       y="269.78568"
       inkscape:label="Frame" />
    <path
       style="display:inline;fill:#ffddc5;fill-opacity:1;stroke-width:1"
       d="m -1180.6823,318.0946 c -1.702,0.005 -3.3471,0.11092 -4.8761,0.33383 -11.1734,-0.72234 -24.1672,-0.0858 -33.5365,6.59702 -9.3517,6.08869 -14.92,16.24456 -20.2401,25.76535 -5.8281,9.07389 -6.9128,24.13168 -10.6862,34.05839 -0.9894,8.29904 -1.1978,16.70465 -0.7514,25.07857 -0.1628,-0.0907 -0.3275,-0.17779 -0.496,-0.25632 -0.4083,-0.19023 -0.8418,-0.34816 -1.2914,-0.42788 -0.4496,-0.0796 -0.9149,-0.08 -1.3881,0.0413 -2.3367,0.59881 -3.8215,2.47918 -4.6974,4.5372 -0.8759,2.058 -1.2222,4.36615 -1.3306,6.24974 -0.3514,6.11267 1.6936,13.2889 7.1039,17.154 1.1229,0.8021 2.5807,0.90992 3.8944,0.95342 1.1496,0.0551 2.0608,-0.003 2.5502,-0.26303 0.087,-0.12539 0.161,-0.28339 0.2088,-0.447 4.9946,15.25528 15.209,28.46128 28.8386,36.8638 9.6909,7.56629 16.2701,10.22458 28.0416,13.01016 11.0746,0.75371 23.0633,0.17521 31.241,-8.39691 9.8972,-10.43534 20.7624,-20.11028 29.6008,-31.47663 3.9933,-3.80984 5.4547,-8.52646 6.9681,-13.61467 1.2843,-0.0463 2.6926,-0.16882 3.7837,-0.94826 5.4103,-3.86509 7.4543,-11.04184 7.1029,-17.15451 -0.1084,-1.8836 -0.4537,-4.19174 -1.3296,-6.24975 -0.8759,-2.05801 -2.3607,-3.93839 -4.6974,-4.53719 -0.4732,-0.12126 -0.9394,-0.12051 -1.389,-0.0408 -0.4496,0.0797 -0.8827,0.23764 -1.2909,0.42788 -0.4597,0.21424 -0.8964,0.48089 -1.3116,0.76843 -1.999,-20.03759 -5.174,-41.89368 -14.3505,-58.54785 -5.1698,-9.82209 -13.2869,-17.33983 -22.377,-23.48022 -3.2471,-3.13213 -14.1029,-6.02698 -23.2942,-5.99809 z"
       id="path2323"
       inkscape:connector-curvature="0"
       inkscape:label="Füllung_Gesicht"
       sodipodi:nodetypes="ccccccccccccccccccccccscccccccc" />
    <path
       style="display:inline;fill:#000000;stroke-width:3.77952766"
       d="m 659.46875,184.47461 c -6.43305,0.0202 -12.65079,0.4192 -18.42969,1.26172 -42.23017,-2.73014 -91.34042,-0.32431 -126.75195,24.93359 -35.34501,23.01237 -56.39058,61.39677 -76.49805,97.38086 -22.02746,34.29502 -26.127,91.20637 -40.38867,128.72461 -3.73946,31.36646 -4.52708,63.13569 -2.83984,94.78516 -0.61559,-0.34273 -1.23815,-0.67195 -1.875,-0.96875 -1.54281,-0.71898 -3.18159,-1.31589 -4.88086,-1.61719 -1.69928,-0.30085 -3.45762,-0.30221 -5.2461,0.15625 -8.83162,2.26322 -14.44341,9.37013 -17.7539,17.14844 -3.31049,7.7783 -4.6196,16.50201 -5.0293,23.62109 -1.32813,23.10301 6.40123,50.22577 26.84961,64.83399 4.24403,3.03159 9.75358,3.4391 14.71875,3.60351 4.34494,0.20825 7.78897,-0.0129 9.63867,-0.99414 0.32904,-0.47393 0.60869,-1.0711 0.78906,-1.68945 16.34827,86.01007 72.7516,121.54514 115.66917,155.38219 35.36765,27.88453 57.57589,34.95712 99.3113,35.61781 41.94833,0.66406 87.16833,-1.83777 118.07617,-34.23633 44.354,-31.10396 80.4388,-73.64719 111.87696,-118.9668 15.09284,-14.39939 20.61609,-32.22601 26.33594,-51.45703 4.85403,-0.17483 10.17684,-0.63805 14.30078,-3.58398 20.44837,-14.60822 28.17383,-41.73294 26.8457,-64.83594 -0.4097,-7.11912 -1.7149,-15.84279 -5.02539,-23.6211 -3.31049,-7.7783 -8.92228,-14.88525 -17.75391,-17.14843 -1.78847,-0.45831 -3.55072,-0.45549 -5.25,-0.1543 -1.69927,0.30123 -3.3361,0.89817 -4.8789,1.61719 -1.73753,0.80975 -3.38786,1.81754 -4.95703,2.9043 -7.55524,-75.73263 -19.55539,-158.3383 -54.23829,-221.28321 -19.5394,-37.12286 -50.21793,-65.53637 -84.57421,-88.74414 -12.27246,-11.83796 -53.30254,-22.77912 -88.04102,-22.66992 z m 216.42187,437.56836 c -21.44032,54.63552 -69.29478,102.42249 -108.97489,144.29408 -20.87402,22.02687 -60.72138,52.08452 -104.81221,51.29381 -43.95838,3.27699 -85.96055,-4.67751 -115.40114,-25.66236 -31.68332,-22.58344 -61.5876,-41.72263 -84.71968,-69.77035 -17.55811,-21.28926 -31.2145,-48.99554 -38.78563,-79.80945 -11.27649,-34.68985 -16.05154,-60.73191 -19.32207,-97.18167 0.52647,-1.56568 0.67707,-3.29228 -0.4668,-5.49805 -1.28974,-15.98289 -1.97928,-32.01335 -2.15429,-47.99609 0.46412,-53.82743 14.50555,-124.76898 40.19726,-172.03711 23.52643,-41.46841 49.78088,-87.013 93.48242,-109.67773 44.81613,-15.52547 91.84849,-16.39859 138.58008,-18.5293 45.34262,0.62937 82.51206,28.09397 116.97266,54.58203 29.08535,30.36832 40.74319,73.10975 62.04687,109.21875 19.6726,59.83464 28.72229,134.61907 30.36719,202.21094 1.6374,12.55973 0.34925,25.28539 -1.69765,43.89209 -0.51274,4.58663 -1.34373,9.49729 -2.79454,13.77978 z M 742.46875,202.45703 c -0.17697,0.0436 -0.14851,0.3144 0.25195,0.95117 5.13388,2.93815 0.51493,-1.14011 -0.25195,-0.95117 z m 156.125,317.54492 c 0.3515,0 0.66682,0.0378 0.93555,0.10547 5.9142,1.51559 9.88775,6.25194 12.66797,12.78516 2.78059,6.5331 4.06805,14.57986 4.44335,21.09765 1.20983,21.0474 -6.17946,45.7369 -23.69531,58.25 -2.56058,1.26698 -5.26393,1.92831 -7.89648,2.31836 3.50131,-14.34047 5.08381,-29.29466 5.41992,-44.07226 -0.25354,-4.41489 -0.53741,-8.8946 -0.83984,-13.40625 1.14119,-1.29513 2.51539,-2.61483 4.23437,-3.96485 1.32132,2.29731 2.26471,4.31195 2.77344,6.25977 0.72529,2.7755 0.7018,5.51421 -0.29297,9.2793 -0.64441,2.4362 3.00951,3.403 3.6543,0.96679 1.11269,-4.21077 1.18953,-7.78433 0.29492,-11.20703 -0.65726,-2.5169 -1.80624,-4.91508 -3.33203,-7.52148 2.1479,-1.40429 4.69186,-2.84392 7.76953,-4.33203 3.65178,-1.70419 2.45747,-7.17707 -1.57227,-7.20508 -0.59414,0 -1.18111,0.1327 -1.71289,0.39844 -6.60359,3.19312 -10.31959,5.35266 -12.54101,7.07226 -0.51208,-6.84189 -1.08892,-13.77265 -1.73242,-20.77344 0.14923,-0.1418 0.28501,-0.28076 0.46484,-0.43164 2.19968,-1.80979 4.64608,-3.50296 6.83594,-4.52343 1.6422,-0.7654 3.06131,-1.0954 4.12109,-1.09571 z m -513.22656,16.33789 c 1.06015,3.1e-4 2.47851,0.3284 4.12109,1.09375 1.80704,0.84218 3.78281,2.15143 5.65625,3.59766 0.42775,6.20354 0.94767,12.39961 1.56055,18.58594 -3.0415,-2.83236 -7.40273,-5.86211 -14.02539,-9.06446 -0.53178,-0.2657 -1.11837,-0.4021 -1.71289,-0.39843 -4.02974,0.0264 -5.2221,5.50096 -1.57032,7.20508 3.07692,1.488 5.62005,2.92789 7.76758,4.33203 -1.52579,2.60647 -2.67477,5.00642 -3.33203,7.52343 -0.89461,3.42259 -0.81972,6.9942 0.29297,11.20508 0.64441,2.4367 4.30066,1.4699 3.65625,-0.9668 -0.99477,-3.76508 -1.02021,-6.50376 -0.29492,-9.27929 0.50872,-1.94789 1.45444,-3.9625 2.77539,-6.25977 4.15539,3.26347 6.30088,6.34166 7.94531,9.35547 1.47288,12.19547 3.26977,24.34092 5.4082,36.40039 2.06134,7.6087 4.39758,15.15235 6.97657,22.61719 -0.064,-0.026 -0.12213,-0.0556 -0.19141,-0.0781 -9.96019,-2.94258 -12.38395,0.38232 -19.38477,-3.63086 -17.51584,-12.51329 -24.90551,-37.20271 -23.69531,-58.25 0.37418,-6.5179 1.66276,-14.56444 4.44336,-21.09765 2.78022,-6.53318 6.75377,-11.26953 12.66797,-12.78516 0.26835,-0.0688 0.58216,-0.10547 0.93555,-0.10547 z"
       id="path1165-3-2"
       inkscape:connector-curvature="0"
       sodipodi:nodetypes="cccccccccscccccsscccccsscccccccscssccccccccccccccccccccccccccccccccccccccccccccccccccccccccccccc"
       inkscape:label="Kontur_Gesicht"
       transform="matrix(0.26458333,0,0,0.26458333,-1355.1667,269.28568)" />
  </g>
</svg>
