<svg xmlns="http://www.w3.org/2000/svg" width="1278.065" height="1569.494" viewBox="0 0 338.155 415.262">
  <path fill="none" d="M.5.5h337.155v414.262H.5z" paint-order="stroke fill markers"/>
  <path class="skin" fill="#f7ba8f" fill-rule="evenodd" d="M-1173.63 320.796a31.622 31.622 0 0 0-4.54.376c-11.51 2.874-23.704-1.121-35.048 2.808-6.754 2.77-13.18 7.244-17.4 12.969-5.065 6.577-8.402 14.202-10.6 22.146-4.274 7.66-4.436 16.5-5.699 24.93-1.656 6.495-.363 17.018-1.927 23.43a131.68 131.68 0 0 1-.234 3.691c-.615-.481-1.297-.945-2.033-1.282a5.3 5.3 0 0 0-1.287-.42 3.292 3.292 0 0 0-1.382.04c-2.332.587-3.82 2.436-4.698 4.462-.878 2.027-1.225 4.3-1.334 6.153-.352 6.015 1.701 13.077 7.112 16.875.901.633 2.017.824 3.102.897.153.905.088-1.817.305-.916 4.043 16.185 12.408 32.537 27.273 41.163 10.282 6.823 16.18 11.656 25.878 14.222 4.236.476 17.162.418 21.393-.227 8.378-1.74 10.906-8.052 18.148-11.572 11.762-7.534 21.246-18.077 28.358-30.042 3.75-5.09 5.82-10.918 6.964-16.99.157 0 .303.003.468-.003 1.373-.039 2.941-.104 4.133-.941 5.41-3.798 7.464-10.86 7.112-16.875-.109-1.853-.457-4.126-1.335-6.153-.877-2.026-2.365-3.875-4.697-4.462a3.298 3.298 0 0 0-1.382-.04 5.3 5.3 0 0 0-1.287.42c-.816.374-1.57.901-2.235 1.438-.147.119-.313.243-.483.369-1.498-14.225-2.813-28.524-6.625-42.348-3.442-11.75-7.176-24.634-17.509-32.276-7.851-6.897-17.968-11.956-28.512-11.842z" transform="translate(1354.41 -270.583)"/>
  <path d="M180.78 50.212a31.622 31.622 0 0 0-4.54.376c-11.51 2.874-23.703-1.12-35.047 2.808-6.754 2.77-13.18 7.245-17.4 12.97-5.065 6.577-8.402 14.201-10.6 22.146-4.274 7.66-4.436 16.5-5.699 24.929-1.656 6.495-.608 13.393-2.172 19.805-.108 2.287-.293 4.58-.494 6.876a9.66 9.66 0 0 0-1.686-1.034 5.25 5.25 0 0 0-1.29-.428c-.45-.08-.916-.08-1.39.042-2.336.599-3.82 2.479-4.697 4.537-.876 2.058-1.222 4.366-1.33 6.25-.351 6.113 1.693 13.289 7.104 17.154 1.122.802 2.58.91 3.894.953 4.155 15.78 12.467 33.118 26.958 41.526 3.87 3.396 8.236 5.801 12.912 7.493 1.482 1.994 3.742 2.994 5.873 4.226 6.016 2.893 11.076 3.14 17.803 2.953 4.153-.116 8.616.016 12.142-1.269 3.63-1.323 6.273-3.906 9.2-6.981 2.604-1.066 8.042-4.062 10.418-5.7 11.762-7.534 18.317-17.964 25.43-29.93 3.674-4.988 5.734-10.687 6.892-16.627.174 0 .34.003.524-.003 1.374-.04 2.947-.109 4.139-.96 5.41-3.866 7.455-11.042 7.103-17.155-.108-1.884-.454-4.192-1.33-6.25-.876-2.058-2.36-3.938-4.697-4.537a3.25 3.25 0 0 0-1.389-.04c-.45.079-.882.237-1.29.427-.817.38-1.571.919-2.235 1.465-.16.132-.316.265-.466.397-1.495-14.208-2.811-28.491-6.62-42.3-3.441-11.75-7.175-24.634-17.508-32.276-7.851-6.897-17.968-11.956-28.512-11.842Zm58.483 91.195c-.157 0-.313.035-.453.105-4.93 2.384-5.88 5.183-6.69 6.67-.705 1.19 1.14 2.194 1.756.955.722-1.326 1.08-2.638 2.928-4.09.35.608.6 1.141.734 1.657.192.734.185 1.459-.078 2.455-.17.644.796.9.967.256.294-1.114.315-2.06.078-2.966-.174-.665-.478-1.3-.881-1.99a18.3 18.3 0 0 1 2.055-1.146c.966-.45.65-1.899-.416-1.906zm-139.221 2.857c-1.066.007-1.382 1.455-.416 1.906.748.362 1.371.713 1.91 1.056-.604.953-1.052 1.77-1.279 2.638-.236.906-.216 1.85.078 2.965.17.645 1.138.389.967-.256-.263-.996-.27-1.72-.078-2.455.182-.695.568-1.42 1.138-2.323 1.973 1.495 2.326 2.84 3.067 4.2.618 1.232 2.454.233 1.756-.956-.81-1.487-1.76-4.286-6.69-6.67a1 1 0 0 0-.453-.105zm85.851 72.864c-1.687 1.375-3.592 2.484-5.65 3.11-3.392 1.033-7.347.952-11.471 1.067-6.416.18-11.405-.084-17.24-2.887a7.936 7.936 0 0 1-.79-.439c-1.088-.653-3.354-1.699-4.425-3.822-1.085-2.149-1.127-2.936-1.322-4.8-.1-.96-.88-1.627-1.053-.13-.136 1.182.016 2.17.256 3.927a59.705 59.705 0 0 1-9.765-5.622c-9.577-5.047-15.71-15.902-21.042-25.005-2.146-4.901-4.06-9.982-5.408-15.194.284-.409.466-1.157-.154-1.358-2.635-.779-3.276.101-5.129-.96-4.634-3.312-6.59-9.844-6.27-15.413.1-1.724.44-3.853 1.176-5.582.736-1.728 1.787-2.982 3.352-3.383a.999.999 0 0 1 .248-.027c.28 0 .656.086 1.09.289.58.27 1.227.718 1.809 1.197 1.109 1.238 2.02 2.353 2.714 2.915 1.027-7.629 2.032-17.515 2.571-24.661 1.537-11.389 1-23.748 7.265-33.824 2.703-9.673 7.906-18.95 16.038-25.012 3.761-3.859 8.369-6.353 13.58-7.566 9.01-.314 18.16.665 27.154-.455 2.347-.615 4.71-.88 7.061-.859 7.054.064 14.003 2.707 20.109 6.224 6.26 4.932 14 8.856 17.08 16.717 4.556 10.684 8.17 21.916 10.093 33.385 2.145 10.713 2.976 21.598 3.274 32.503.013-.008.03-.017.038-.024 1.598-1.165 2.656-2.491 4.075-3.665.582-.48 1.229-.927 1.808-1.197.435-.203.81-.29 1.09-.29.094 0 .177.01.248.028 1.565.4 2.616 1.654 3.352 3.382.736 1.729 1.076 3.858 1.176 5.583.32 5.568-1.635 12.1-6.27 15.412-2.96 1.465-6.667-.063-6.192 2.204-1.788 8.7-6.145 17.05-11.986 23.631-5.47 7.313-9.58 13.927-17.081 19.542-2.603 1.857-6.954 5.108-9.491 5.593.068-.398.11-.78.126-1.134-.028-.941.055-.937.065-1.554.024-1.52-.936-3.07-1.279.244-.043.417-.14.988-.345 1.957-.132.624-.37 1.126-.608 1.627 0 0-.878 1.752-3.877 4.326z"/>
</svg>
