<?xml version="1.0" encoding="UTF-8" standalone="no"?>
<!-- Created with Inkscape (http://www.inkscape.org/) -->

<svg
   xmlns:dc="http://purl.org/dc/elements/1.1/"
   xmlns:cc="http://creativecommons.org/ns#"
   xmlns:rdf="http://www.w3.org/1999/02/22-rdf-syntax-ns#"
   xmlns:svg="http://www.w3.org/2000/svg"
   xmlns="http://www.w3.org/2000/svg"
   xmlns:sodipodi="http://sodipodi.sourceforge.net/DTD/sodipodi-0.dtd"
   xmlns:inkscape="http://www.inkscape.org/namespaces/inkscape"
   width="338.15475mm"
   height="415.26193mm"
   viewBox="0 0 338.15475 415.26193"
   version="1.1"
   id="svg8"
   inkscape:version="0.92.3 (2405546, 2018-03-11)"
   sodipodi:docname="Face01.svg">
  <defs
     id="defs2" />
  <sodipodi:namedview
     id="base"
     pagecolor="#ffffff"
     bordercolor="#666666"
     borderopacity="1.0"
     inkscape:pageopacity="0.0"
     inkscape:pageshadow="2"
     inkscape:zoom="1.4"
     inkscape:cx="633.44403"
     inkscape:cy="977.54799"
     inkscape:document-units="mm"
     inkscape:current-layer="layer1"
     showgrid="false"
     inkscape:window-width="1920"
     inkscape:window-height="1001"
     inkscape:window-x="-9"
     inkscape:window-y="-9"
     inkscape:window-maximized="1"
     inkscape:snap-global="true"
     fit-margin-top="0"
     fit-margin-left="0"
     fit-margin-right="0"
     fit-margin-bottom="0" />
  <metadata
     id="metadata5">
    <rdf:RDF>
      <cc:Work
         rdf:about="">
        <dc:format>image/svg+xml</dc:format>
        <dc:type
           rdf:resource="http://purl.org/dc/dcmitype/StillImage" />
        <dc:title></dc:title>
      </cc:Work>
    </rdf:RDF>
  </metadata>
  <g
     inkscape:label="Ebene 1"
     inkscape:groupmode="layer"
     id="layer1"
     transform="translate(1354.4108,-270.58325)"
     style="display:inline">
    <rect
       style="opacity:1;fill:none;fill-opacity:1;fill-rule:evenodd;stroke:none;stroke-width:0.99999988;stroke-linecap:round;stroke-linejoin:miter;stroke-miterlimit:4;stroke-dasharray:none;stroke-dashoffset:0;stroke-opacity:1;paint-order:stroke fill markers"
       id="rect1307-6"
       width="337.15475"
       height="414.26193"
       x="-1353.9108"
       y="271.08325"
       inkscape:label="Frame" />
    <path
       style="color:#000000;font-style:normal;font-variant:normal;font-weight:normal;font-stretch:normal;font-size:medium;line-height:normal;font-family:sans-serif;font-variant-ligatures:normal;font-variant-position:normal;font-variant-caps:normal;font-variant-numeric:normal;font-variant-alternates:normal;font-feature-settings:normal;text-indent:0;text-align:start;text-decoration:none;text-decoration-line:none;text-decoration-style:solid;text-decoration-color:#000000;letter-spacing:normal;word-spacing:normal;text-transform:none;writing-mode:lr-tb;direction:ltr;text-orientation:mixed;dominant-baseline:auto;baseline-shift:baseline;text-anchor:start;white-space:normal;shape-padding:0;clip-rule:nonzero;display:inline;overflow:visible;visibility:visible;opacity:1;isolation:auto;mix-blend-mode:normal;color-interpolation:sRGB;color-interpolation-filters:linearRGB;solid-color:#000000;solid-opacity:1;vector-effect:none;fill:#c18962;fill-opacity:1;fill-rule:evenodd;stroke:none;stroke-width:2;stroke-linecap:round;stroke-linejoin:miter;stroke-miterlimit:4;stroke-dasharray:none;stroke-dashoffset:0;stroke-opacity:1;paint-order:fill markers stroke;color-rendering:auto;image-rendering:auto;shape-rendering:auto;text-rendering:auto;enable-background:accumulate"
       d="m -1173.6307,320.79591 c -1.5063,0.0164 -3.0214,0.13854 -4.5398,0.37571 -11.5097,2.87414 -23.7037,-1.12078 -35.0475,2.80807 -6.7544,2.76942 -13.1804,7.24443 -17.4005,12.96924 -5.0643,6.57739 -8.4015,14.20183 -10.5993,22.14645 -4.2744,7.66019 -4.4362,16.50024 -5.6989,24.92872 -1.6562,6.49558 -0.3636,17.01851 -1.9276,23.43015 -0.058,1.22905 -0.1407,2.4597 -0.2336,3.69176 -0.6149,-0.48143 -1.2971,-0.94514 -2.0329,-1.28209 -0.4078,-0.18669 -0.8394,-0.3416 -1.2873,-0.4196 v 0 c -0.4478,-0.0779 -0.9116,-0.0793 -1.3824,0.0393 -2.3311,0.58692 -3.8195,2.43633 -4.6973,4.46278 -0.8779,2.02641 -1.2257,4.29913 -1.3343,6.15259 -0.352,6.01525 1.7014,13.07743 7.1117,16.87494 0.9017,0.63286 2.0177,0.82376 3.1021,0.89657 0.153,0.90524 0.088,-1.81652 0.305,-0.91525 4.043,16.18523 12.4081,32.53703 27.2733,41.16234 8.0772,7.09065 18.3189,11.45622 29.0184,12.41785 4.2364,0.47651 8.5426,0.6858 12.7739,0.0403 8.3779,-1.73963 16.5848,-5.17834 23.6269,-10.03506 11.7613,-7.5334 21.2461,-18.07678 28.358,-30.04209 3.7495,-5.08981 5.8191,-10.91806 6.9634,-16.98913 0.1572,0 0.3037,0.003 0.4687,-0.003 1.3726,-0.0395 2.9408,-0.10472 4.1331,-0.94154 5.4103,-3.79749 7.4632,-10.85969 7.1112,-16.87494 -0.1086,-1.85346 -0.4565,-4.12615 -1.3343,-6.1526 -0.8778,-2.02644 -2.3658,-3.87585 -4.6969,-4.46278 -0.4706,-0.11848 -0.9352,-0.11663 -1.3829,-0.0388 -0.4477,0.078 -0.8791,0.23299 -1.2867,0.4196 -0.8155,0.37341 -1.5705,0.90091 -2.2345,1.43764 -0.1471,0.11896 -0.3129,0.24329 -0.4837,0.36846 -1.4973,-14.22429 -2.8128,-28.52343 -6.6249,-42.3478 -3.442,-11.74893 -7.1758,-24.63388 -17.5085,-32.27554 -7.8514,-6.89735 -17.9679,-11.95589 -28.5119,-11.84167 z"
       id="path1708"
       inkscape:connector-curvature="0"
       inkscape:label="Gesicht"
       sodipodi:nodetypes="ccccccccccccccccccccccccccsccccccccc" />
    <path
       style="display:inline;fill:#000000;stroke-width:3.77952766"
       d="m 683.26367,189.7793 c -5.6931,0.062 -11.41937,0.52353 -17.1582,1.41992 -43.50123,10.86289 -89.58869,-4.23592 -132.46289,10.61328 -25.52844,10.4671 -49.8164,27.3805 -65.76563,49.01758 -19.14066,24.85942 -31.7539,53.67621 -40.06054,83.70312 -16.15522,28.9519 -16.76666,62.36308 -21.53907,94.21875 -6.25965,24.55023 -2.2978,50.62051 -8.20898,74.85352 -0.40895,8.64472 -1.10908,17.31312 -1.86914,25.99023 -1.96951,-1.4742 -4.10565,-2.85239 -6.3711,-3.9082 -1.5428,-0.71898 -3.17963,-1.31588 -4.8789,-1.61719 -1.69928,-0.30085 -3.45958,-0.30025 -5.24805,0.15821 -8.83162,2.26321 -14.44342,9.36817 -17.7539,17.14648 -3.31049,7.77831 -4.61765,16.50397 -5.02735,23.62305 -1.32812,23.103 6.39928,50.22577 26.84766,64.83398 4.24403,3.0316 9.75554,3.43715 14.7207,3.60156 15.70356,59.6431 47.11948,119.16938 101.88672,150.94727 30.528,26.79931 69.23673,43.29909 109.67578,46.93359 16.01159,1.80102 32.28698,2.59203 48.2793,0.15235 31.6645,-6.57498 62.68302,-19.57358 89.29883,-37.92969 44.45215,-28.47269 80.30006,-68.3217 107.17968,-113.54492 13.88977,-18.85489 21.67447,-40.39233 26.05079,-62.84571 0.6599,0 1.28509,0.0129 1.98242,-0.01 5.19231,-0.15232 11.13624,-0.41176 15.64258,-3.63086 20.44837,-14.60821 28.17578,-41.73293 26.84765,-64.83594 -0.4097,-7.11912 -1.71685,-15.84279 -5.02734,-23.62109 -3.31049,-7.77831 -8.92229,-14.88526 -17.75391,-17.14844 -1.78847,-0.4583 -3.54877,-0.45549 -5.24805,-0.1543 -1.69927,0.30123 -3.3361,0.89817 -4.8789,1.61719 -3.08599,1.43819 -5.93646,3.47292 -8.44531,5.53711 -0.60775,0.49992 -1.19435,1.00264 -1.75977,1.50195 C 876.5676,462.69983 871.59128,408.71738 857.19922,356.52539 844.19008,312.11999 830.07812,263.42096 791.02539,234.53906 761.35081,208.47038 723.11501,189.35151 683.26367,189.7832 Z m -1.10351,9.15234 0.002,0.002 c 26.65965,0.24152 52.92025,10.22798 75.99805,23.52149 23.66362,18.63931 52.91519,33.47334 64.55273,63.18164 17.2218,40.38179 30.88343,82.83259 38.14844,126.17969 8.1086,40.49117 11.25021,81.62938 12.375,122.8457 0.0491,-0.0302 0.11612,-0.063 0.14258,-0.0898 6.04119,-4.40111 10.0407,-9.41575 15.40234,-13.85352 2.19969,-1.80983 4.64608,-3.50293 6.83594,-4.52344 1.6422,-0.76539 3.06131,-1.0954 4.12109,-1.0957 0.3515,0 0.66682,0.0378 0.93555,0.10547 5.9142,1.51559 9.88775,6.25198 12.66797,12.78515 2.7806,6.53311 4.06805,14.57987 4.44336,21.09766 1.20982,21.0474 -6.17947,45.73689 -23.69532,58.25 -11.1908,5.5372 -25.19919,-0.23437 -23.40429,8.33008 -6.75818,32.8803 -23.22614,64.44318 -45.30274,89.31641 -27.10488,36.23599 -57.73693,67.69901 -99.95312,88.71289 -24.05216,14.71982 -49.80136,25.66342 -77.87305,30.41992 l -4.62891,0.77734 -4.24414,0.53711 c -47.4565,0.42981 -92.42726,-20.02298 -130.59179,-47.06055 -36.19465,-19.07489 -59.37831,-54.0986 -79.52735,-88.5039 -8.11086,-18.52502 -15.34427,-37.72817 -20.43945,-57.42578 1.07339,-1.54602 1.76128,-4.37376 -0.58203,-5.13477 -9.96019,-2.94263 -12.38395,0.38232 -19.38477,-3.63086 -17.51584,-12.5133 -24.90551,-37.20272 -23.69531,-58.25 0.37417,-6.51791 1.66276,-14.56444 4.44336,-21.09766 2.78022,-6.53321 6.75376,-11.26956 12.66797,-12.78515 0.26835,-0.0692 0.58216,-0.10547 0.93555,-0.10547 1.06015,3e-4 2.47851,0.32847 4.12109,1.09375 2.18986,1.02059 4.63663,2.71549 6.83594,4.52539 4.19111,4.6789 7.63368,8.89225 10.25781,11.01563 3.88157,-28.83198 7.68045,-66.19585 9.71875,-93.20704 5.80687,-43.0439 3.77835,-89.75438 27.45898,-127.83789 10.21493,-36.5588 29.87892,-71.62067 60.61328,-94.53515 14.21632,-14.5827 31.63137,-24.00968 51.32422,-28.59375 34.05997,-1.18791 68.64157,2.5146 102.63086,-1.72071 8.87207,-2.32391 17.80303,-3.32659 26.68946,-3.24609 z m 222.14062,335.51953 c -0.59414,0 -1.18111,0.1327 -1.71289,0.39844 -18.63345,9.01009 -22.22103,19.58637 -25.2832,25.20898 -2.66533,4.4984 4.30928,8.29138 6.63672,3.60938 2.72995,-5.01169 4.08297,-9.97252 11.0664,-15.45703 1.32133,2.29731 2.26472,4.31195 2.77344,6.25976 0.72529,2.7755 0.69985,5.51421 -0.29492,9.2793 -0.64441,2.43621 3.00951,3.403 3.65429,0.9668 1.1127,-4.21077 1.18954,-7.78433 0.29493,-11.20703 -0.65726,-2.51691 -1.80429,-4.91509 -3.33008,-7.52149 2.1479,-1.40428 4.68991,-2.84392 7.76758,-4.33203 3.65178,-1.70419 2.45746,-7.17707 -1.57227,-7.20508 z M 378.11133,545.25 a 3.7799055,3.7799055 0 0 0 -1.57227,7.20508 c 2.8283,1.36765 5.1831,2.69398 7.21875,3.99023 -2.28123,3.602 -3.9754,6.69064 -4.83203,9.97071 -0.89461,3.42266 -0.81777,6.99423 0.29492,11.20507 a 1.8900127,1.8900127 0 1 0 3.6543,-0.96679 c -0.99477,-3.76509 -1.02021,-6.5038 -0.29492,-9.2793 0.68563,-2.62511 2.14435,-5.36486 4.29883,-8.78125 7.45954,5.65164 8.79267,10.73618 11.59179,15.875 a 3.7799055,3.7799055 0 1 0 6.63672,-3.61133 c -3.06217,-5.62269 -6.64975,-16.19889 -25.2832,-25.20898 A 3.7799055,3.7799055 0 0 0 378.11133,545.25 Z"
       transform="matrix(0.26458333,0,0,0.26458333,-1354.4108,270.58325)"
       id="path1165-3-2"
       inkscape:connector-curvature="0"
       inkscape:label="Kontur_Gesicht" />
  </g>
</svg>
