<svg xmlns="http://www.w3.org/2000/svg" width="70mm" height="90mm" viewBox="0 0 70 90">
  <path fill="none" d="M0 0h70v90H0Z" paint-order="stroke fill markers"/>
  <path fill="#f3db85" d="M57.7 70.75c-6.412.012-52.475.278-53.312.351-.913.08-1.66.233-2.084.412-.604.255-.557-.092-.477 3.47.118 5.221.246 8.67.388 10.459.139 1.75.239 2.522.35 2.7.227.36 1.174.58 2.168.505.797-.06 1.35-.231 1.736-.536l.175-.138 44.063.061c2.392.034 8.69-.304 10.59-.32l3.453-.027.037.115c.109.341.64.651 1.25.73 1.06.136 1.989-.248 2.167-.896.032-.115.075-1.836.099-3.949.067-5.864.07-10.1.01-10.723-.084-.836-.162-1.077-.39-1.22-.256-.163-1.205-.435-2.045-.587-1.565-.282-2.706-.416-8.172-.407z"/>
  <path d="M68.302 83.687c-.024 2.113-.067 3.834-.099 3.949-.178.648-1.106 1.032-2.166.896-.61-.079-1.142-.389-1.25-.73l-.038-.115-3.453.028c-1.899.015-8.198.353-10.59.32l-44.062-.062-.175.138c-.386.305-.94.476-1.737.536-.993.075-1.94-.146-2.166-.505-.112-.178-.213-.95-.351-2.7-.143-1.788-.27-5.237-.388-10.459-.08-3.562-.128-3.215.476-3.47.425-.179 1.172-.332 2.084-.412.837-.073 46.9-.34 53.313-.35 5.466-.01 6.606.124 8.171.407.841.152 1.79.423 2.047.585.227.144.304.385.39 1.22.062.624.061 4.86-.011 10.724zm-.17-10.616c-.034-.398-.074-.742-.089-.765-.015-.023-.097-.01-.182.032-.24.115-.724.196-1.387.231-.686.037-1.285-.038-1.627-.203-.122-.06-.238-.092-.258-.074-.02.02-.033.633-.03 1.364.011 1.3.148 3.457.35 5.397.08.76.1 1.507.1 3.853 0 1.6-.01 3.353-.022 3.896-.027 1.135-.016 1.169.487 1.411.254.123.343.135.997.135.627 0 .748-.016.953-.118.368-.184.577-.444.628-.78.04-.268.108-6.049.13-11.337.011-1.275-.017-2.645-.051-3.042zm-.497-1.274c-.816-.34-2.47-.528-4.43-.774-1.224-.153-57.267.047-58.472.236-1.389.217-2.28.274-2.65.572-.189.153-.152.332.12.587.176.166.644.415.78.415.033 0 .058-.141.058-.322 0-.384.032-.409.681-.517.794-.133 1.818-.07 2.023.124.4.379.435 3.655.074 6.91-.21 1.881-.185 2.706.145 4.905.134.897.482 2.807.664 3.645.032.144.067.174.246.2.476.071 32.751.071 43.977-.03 2.953-.026 5.843-.125 8.094-.167 3.395-.064 5.515-.074 5.645-.1.09-.02.165-.08.185-.148.017-.064.049-1.377.07-2.918.037-2.85 0-4.26-.18-6.051-.247-2.542-.368-5.213-.267-5.88.04-.254.099-.435.165-.496.209-.194 1.126-.246 2.125-.12l.243.03v.237c0 .275.034.284.52.15.306-.085.512-.206.512-.303 0-.026-.148-.11-.33-.185zm-1.147.218c-.616-.09-1.735-.037-1.735.083 0 .024.135.099.3.166.227.091.453.128.914.149.336.015.653.012.703-.005.054-.02.09-.097.09-.193 0-.15-.019-.163-.273-.2zM6.337 87.032c-.739-3.663-.957-5.84-.752-7.49.267-2.141.387-4.783.272-5.996-.037-.394-.082-.75-.1-.791-.023-.06-.086-.043-.29.078-.34.203-.693.27-1.442.27-.87 0-1.52-.18-1.916-.529l-.157-.139v.132c0 .579.182 7.573.229 8.807.143 3.796.36 6.417.554 6.7.172.252.546.351 1.414.376.849.024 1.323-.034 1.76-.213.27-.111.574-.35.57-.447 0-.032.065-1.099-.142-.758zm-.859-14.86c-.261-.076-1.637-.106-1.95.023l-.286.072-.018.306-.017.306.266.038c.427.06 1.4-.003 1.675-.11.268-.103.545-.372.519-.503-.011-.046-.095-.105-.19-.132z"/>
</svg>
