<svg xmlns="http://www.w3.org/2000/svg" width="1278.065" height="1569.494" viewBox="0 0 338.155 415.262">
  <path fill="none" d="M.5.5h337.155v414.262H.5z" paint-order="stroke fill markers"/>
  <path class="outfit01" fill="#ececec" d="M200.815 222.477c2.35-.12 4.237 14.025 2.9 18.303-3.198 14.67-13.214 27.071-16.098 41.902-3.785 12.302-3.68 25.149-3.515 37.835-1.252 10.925-8.765 20.303-16.104 27.99-3.94 1.18-1.53-10.573-3.374-13.639 1.499-17.067-3.995-33.772-3.587-50.799 3.76-8.997 13.016-15.805 15.021-25.083.667.487 17.058-2.224 11.54-4.428-8.697 6.165-13.48-.24-12.063-8.952 9.753-1.278 19.71-7.667 22.88-17.363.784-4.103 1.617-5.727 2.4-5.766zm-65.605-1.58c.691-.067.416 4.641 2.547 8.142 5.246 10.681 22.94 13.75 21.284 27.15-8.625 4.676.643 13.311 2.366 21.456-2.534 8.663-1.2 19.295-.718 28.966 2.28 11.263 1.192 22.775 2.792 34.023l.307 2.028.071 1.285c-6.294-5.258-12.38-14.077-16.87-21.858.673-12.149 1.426-24.342.178-36.522-1.71-11.1-5.797-21.797-9.762-32.251-4.614-10.615 2.163 1.848 6.89 1.869-6.225-8.317-18.253-17.948-11.455-29.385 1.379-3.517 2.007-4.865 2.37-4.903z"/>
  <path class="outfit02" fill="#d3bc5f" d="M183.742 331.03c1.631 1.591 1.27 17.448 2.4 23.509.188 17.89 2.53 35.577 4.584 53.294 1.109 1.484.92 4.42.698 7.312h-29.838c-.593-6.254-2.857-14.35-1.813-19.1.181-13.188-2.55-27.197 2.617-39.696 10.053-5.462 16.855-14.864 21.352-25.318zm-36.907-.385c2.004.156 6.6 8 10.115 10.254 13.446 8.095-2.38 16.31.383 27.687-1.165 15.463-.55 31.176 1.133 46.559h-21.4c.151-10.977 1.01-21.92 2.82-32.768 3.565-15.065 6.92-30.323 6.166-45.93-.504-4.355-.128-5.872.783-5.802z"/>
  <path class="skin" fill="#ffe6d5" d="M276.856 380.383c6.571.11 2.194 9.89-.092 16.1-1.748 6.209-7.249 12.592-10.369 18.662h-19.373c2.043-8.024 3.629-16.208 5.166-24.326-2.813-15.04 9.92-9.096 19.808-9.418 2.05-.727 3.643-1.039 4.86-1.018zm-222.451-1.54c5.735.14 13.82 3.615 19.154 1.43 8.632.827 3.72 13.67 8.011 19.855.475 4.893.55 10.017 1.323 15.017h-24.56c-3.904-11.258-7.76-22.58-9.275-34.393 1.219-1.507 3.103-1.963 5.347-1.908z"/>
  <path class="outfit03" fill="#500" d="M133.065 214.332c-1.821.136-6.516 2.863-4.957 2.013-11.556 6.07-15.675 19.14-19.273 30.35v.006c-1.9 5.328-.646 10.053 1.404 14.4 2.023 4.289 4.775 8.31 6.27 12.502-.4 1.32-.604 2.623-.81 3.926-.452-3.387-1.751-6.548-3.28-9.547-2.792-5.474-5.957-10.597-5.281-16.521v-.045c.192-3.262 2.052-8.12 3.738-12.57.842-2.226 1.636-4.36 2.146-6.216.51-1.856.806-3.418.346-4.722a.85.85 0 0 0-.977-.549c-10.93 2.309-31.444 8.867-41.703 11.93-2.929-.983-5.192-.893-6.742.207-1.62 1.15-2.336 3.113-2.701 5.224-.365 2.112-.382 4.445-.412 6.547-.001.056-.011.078-.012.133-.211-.148-.625-.234-.912-.123-.58.224-.606.547-.71.807-.103.259-.18.546-.257.886-.152.681-.287 1.563-.418 2.58-.523 4.07-.972 10.372-1.32 12.239-1.774 7.233-2.445 14.186-4.213 20.45a.837.837 0 0 0-.031.218c-.188 12.231-5.673 24.704-4.854 37.267.01.103.032.203.074.297.848 1.86.68 4.365.061 7.104-.619 2.738-1.658 5.665-2.326 8.377-.668 2.711-1.03 5.27.096 7.295.563 1.012 1.518 1.818 2.826 2.308 1.302.488 2.956.696 5.065.627 1.64-.008 4.186.527 6.89 1.152 2.704.626 5.584 1.335 8.096 1.623 1.256.145 2.422.188 3.459.04 1.037-.15 1.983-.498 2.65-1.225.667-.727.947-1.779.829-2.984-.113-1.145-.601-2.517-1.383-4.137v-.002c-2.913-15.786-6.218-31.438-8.047-47.334 0-.02-.01-.04-.01-.06-2.002-10.588-4.457-21.297-4.11-31.938 1.24 9.123 1.55 18.534 3.795 27.734 2.492 16.171 4.764 32.368 8.356 48.399 0 .013.01.026.01.039 2.78 10.165 1.674 20.967 4.271 31.605 1.054 10.922 3.018 21.327 5.065 31.96-.264 1.132-.187 2.417.068 3.845.277 1.553.744 3.249 1.228 4.93.105.364.438.085.817.086h48.92c.46 0 .838.161.85-.3.12-4.95.75-10.543.777-14.243 1.75-11.192 1.497-22.498 5.191-33.024.01-.023.014-.047.02-.07 4.624-17.982 2.587-36.484 3.887-54.477 1.644-17.4.956-35.645-6.588-51.898l-.027-.07c-4.033-11.08-11.212-22.433-8.942-33.874.759-1.877 2.55-4.898 3.772-7.466.617-1.297 1.104-2.455 1.215-3.493.055-.518.027-1.069-.326-1.548-.353-.48-.984-.688-1.573-.67zm74.518 1.496c-2.047.036-4.292.698-6.797 2.138a.85.85 0 0 0 0 1.471c1.45.847 2.388 2.158 3.012 3.873.623 1.715.9 3.818.974 6.078.146 4.47-.49 9.503-.457 13.543-3.904 15.935-14.01 30.04-16.375 46.951v.022c-3.421 14.772-1.921 30.08-2.053 44.888v.088c1.919 20.457 1.86 41.21 5.43 61.627.382 6.306 1.517 12.511 2.076 18.713.04.438.407.244.846.244h49.25c.378 0 .71.28.816-.082.744-2.554 1.845-5.413 2.705-8.18.828-2.66 1.415-5.216 1.21-7.474 4.54-21.083 4.926-42.663 7.787-63.81a.85.85 0 0 0 0-.04c1.55-17.623 4.143-35.229 8.545-52.336 2.46-4.296 3.152-9.654 3.773-14.713.453-3.69.907-7.19 1.842-9.988.476 11.223-4.044 22.08-7.024 33.053v.004c-3.408 12.83-3.478 25.955-4.982 38.853a.474.474 0 0 0 0 .168c.16 1.947-.323 4.544-.945 7.245-.623 2.7-1.37 5.508-1.647 8.033-.276 2.525-.111 4.884 1.442 6.441 1.552 1.557 4.21 1.982 8.28 1.184l-.2.015c8.573.377 19.577-.308 26.591-5.091a.85.85 0 0 0 .366-.596c1.238-9.71-1.992-18.736-2.368-27.832a.707.707 0 0 0-.02-.145c-1.46-6.777-2.3-12.563-.79-18.79a.85.85 0 0 0-.03-.495c-6.19-16.673-6.018-35.114-11.757-52.256l.017.065c-1.503-6.064-5.032-8.832-9.088-10.256-4.057-1.424-8.626-1.694-12.668-3.107l.137.062c-3.06-1.726-9.696-3.64-16.075-5.322-6.378-1.683-12.486-3.092-13.88-3.485-.828-.232-1.439.77-.852 1.399 3.383 3.62 6.53 10.151 7.9 16.726 1.364 6.549.935 13.074-2.27 16.93-3.098 1.816-4.82 4.257-5.654 6.941-.853 2.748-.855 5.717-.787 8.668.068 2.952.21 5.895-.234 8.569-.444 2.674-1.434 5.062-3.676 7.094a.857.857 0 0 0-.103.11c-8.765 11.407-11.25 25.62-17.33 37.92a.813.813 0 0 0-.03.067c-5.385 13.758-6.555 28.363-8.105 42.725-.608-6.282-.564-14.274 1.172-19.82a.79.79 0 0 0 .029-.127c1.854-12.366 6.314-23.992 11.885-35.198a.836.836 0 0 0 .06-.16c2.986-11.2 8.478-21.336 14.09-31.564a.864.864 0 0 0 .087-.237c1-4.849.558-10.263 1.117-15.168.558-4.905 2.006-9.202 6.734-12.209a.845.845 0 0 0 .242-.234c3.031-4.39 2.518-10.687.684-16.727-1.834-6.04-5.04-11.886-7.873-15.525a.853.853 0 0 0-.053-.062c-2.197-2.323-4.253-5.016-6.592-7.165-2.339-2.148-5.036-3.774-8.379-3.714zm-92.244 67.56c.166 4.399 1.116 8.706 2.61 12.881 2.627 7.335 6.599 14.348 9.587 21.076v.002c5.09 13.168 11.31 26.141 11.094 40.326 0 .072.01.144.023.213.585 2.426-.014 6.55-.725 9.168 0-.877.012-1.806.117-3.23a.85.85 0 0 0 0-.04c.334-12.437-1.474-24.926-7.138-36.218-4.787-14.248-13.132-27.09-16.288-41.45.38-.94.514-1.826.717-2.728zM294.1 343.355a.85.85 0 0 0-.582.855c.137 2.358-.085 4.618-1.129 6.245-1.044 1.626-2.905 2.792-6.597 2.941a.883.883 0 0 0-.14.018c-9.979 2.117-20.182 1.992-30.362 1.115a.85.85 0 0 0-.903 1.033c.88 3.943-.96 10.215-1.212 15.244-.127 2.515.15 4.852 1.714 6.404 1.565 1.553 4.188 2.028 8.153 1.291l-.121.014c4.763-.187 10.565.444 16.117.168 5.552-.275 10.94-1.475 14.691-5.504a.841.841 0 0 0 .072-.088c1.373-1.93 1.809-3.917 1.8-5.802-.01-1.886-.423-3.679-.724-5.383-.3-1.705-.482-3.308-.15-4.83.332-1.523 1.152-3.012 3.06-4.586a.85.85 0 0 0 .292-.48c.314-1.487.137-3.614-.403-5.456-.27-.92-.625-1.762-1.174-2.408-.548-.646-1.494-1.09-2.402-.791zM44.382 350.21c-2.023-.04-3.772.88-4.63 2.604-.824 1.66-.854 3.942-.183 6.76-1.328 3.212-1.396 6.149-.484 8.648.935 2.565 2.835 4.645 5.19 6.254 4.708 3.218 11.267 4.646 16.527 4.293l-.022.002c3.542-.15 7.423.54 11.253-.473 1.38.086 2.514-.045 3.43-.437a3.998 3.998 0 0 0 2.05-1.942c.808-1.671.609-3.747.216-5.976-.393-2.23-1.035-4.636-1.414-6.871-.38-2.235-.468-4.282.068-5.715a.85.85 0 0 0-.578-1.12c-7.278-1.933-17.8-.998-25.32-3.96-2.239-1.315-4.3-2.03-6.104-2.067zm122.671 10.204c-2.194.965-2.148-.912-2.568 2.035 2.182 2.904 1.63 2.14 3.713 2.388 1.843.761-.1-4.273.639-3.382.626 2.132-.764-.783-1.784-1.041zm-1.972 23.548c-2.325.867-1.513 4.804.353 3.914.714.104 1.476-.177 2.217-.779a.85.85 0 0 0 .13-1.187c-1.003-1.268-1.735-1.922-2.7-1.948z"/>
  <path d="M134.351 213.167c-6.659.077-15.818 5.39-18.693 10.842-4.147 2.466-30.001 10.007-43.692 13.637-14.91-.3-13.39 13.555-14.62 23.016-.51 9.764-4.26 18.791-5.78 27.697.572 8.72-1.105 17.096-3.326 25.452-2.239 10.421-1.574 20.45-4.74 30.787-8.91 6.646-7.753 20.2-2.916 29.655 9.478 2.695 5.662 11.614 7.856 19.285 2.338 7.293 4.263 14.767 6.537 22.107h3.529c-3.963-11.423-7.91-22.906-9.448-34.894 4.334-5.355 17.08 2.563 24.502-.48 8.631.829 3.72 13.673 8.01 19.858.491 5.056.552 10.358 1.4 15.516h3.064c-1.019-3.51-2.011-7.106-1.407-9.11-2.055-10.674-4.021-21.092-5.072-32.009-2.579-10.478-1.451-21.319-4.294-31.712-3.583-15.988-5.853-32.167-8.346-48.348-2.779-11.34-2.476-23.173-4.887-34.47-2.094 13.066 1.107 26.172 3.527 38.966 1.835 15.949 5.143 31.622 8.053 47.394 6.69 13.485-12.442 4.49-19.71 4.525-16.407.552-1.028-16.616-4.942-25.21-.801-12.275 4.663-24.73 4.855-37.2 1.8-6.382 2.466-13.351 4.23-20.526.768-4.116 1.708-24.842 3.197-11.419 1.538-4.867-1.314-16.798 9.518-16.37 11.457-1.234 31.306-8.483 41.814-11.966 1.324 3.751-5.863 16.135-6.278 23.174-1.43 12.545 13.26 21.208 7.457 34.768 3.172 14.629 11.596 27.541 16.354 41.705 5.626 11.16 7.428 23.544 7.096 35.924-1.075 14.512 3.77.103 2.28-6.075.222-14.454-6.09-27.548-11.165-40.685-6.025-13.566-15.838-27.985-10.922-43.503-3.064-8.818-11.378-16.37-7.756-26.518 3.604-11.228 7.683-24.032 18.899-29.901 11.094-6.435 2.623 5.14.616 10.19-2.408 11.925 5.011 23.484 8.997 34.472 7.483 16.073 8.18 34.195 6.538 51.549-1.307 18.097.712 36.54-3.862 54.327-3.765 10.731-3.49 22.117-5.233 33.223-.02 3.723-.706 9.652-.797 14.805h2.264c.132-11.145.99-22.255 2.829-33.268 3.565-15.065 6.92-30.323 6.166-45.93-1.614-13.935 5.783 1.175 10.898 4.452 13.445 8.095-2.38 16.31.383 27.687-1.178 15.63-.54 31.516 1.186 47.059h3.115c-.514-6.315-2.934-14.724-1.862-19.601.181-13.188-2.55-27.197 2.617-39.695 10.054-5.463 16.855-14.864 21.352-25.319 1.631 1.59 1.27 17.447 2.4 23.509.188 17.89 2.53 35.577 4.584 53.295 1.174 1.569.896 4.762.66 7.81h2.895c-.55-6.454-1.748-12.848-2.13-19.284-3.553-20.318-3.498-41.049-5.422-61.56.132-14.876-1.35-30.128 2.037-44.726 2.31-16.696 12.437-30.802 16.388-47-.096-7.919 2.645-20.526-3.944-24.372 10.296-5.92 14.88 2.406 20.727 8.589 5.502 7.068 12.726 23.187 7.16 31.247-9.954 6.331-6.3 18.577-8.227 27.923-5.615 10.231-11.147 20.427-14.166 31.754-5.595 11.253-10.09 22.962-11.962 35.448-2.502 7.995-1.672 20.494-.258 26.596 2.03-16.423 2.674-33.307 8.792-48.936 6.154-12.448 8.64-26.584 17.243-37.779 9.595-8.694-1.89-24.367 10.4-31.299 7.03-8.352 1.464-27.246-5.63-34.838 3 .845 24.132 5.547 29.77 8.729 8.386 2.933 18.32 1.099 21.211 12.766 5.68 16.96 5.506 35.414 11.768 52.282-1.554 6.416-.68 12.36.787 19.17.383 9.267 3.58 18.232 2.374 27.689-6.697 4.566-17.585 5.317-26.077 4.944-15.784 3.097-5.412-13.582-6.119-22.138 1.512-12.96 1.589-26.04 4.96-38.732 3.245-11.953 8.527-23.966 6.82-36.662-4.235 6.5-2.22 19.612-7.044 27.83-4.424 17.179-7.024 34.847-8.578 52.519-2.87 21.213-3.259 42.77-7.776 63.745.523 4.288-2.575 10.786-4.044 16.096h3.557c2.105-8.184 3.721-16.54 5.29-24.826-2.812-15.04 9.92-9.096 19.808-9.419 13.125-4.653 7.477 7.723 4.768 15.082-1.796 6.38-7.561 12.945-10.627 19.163h3.766c5.555-9.248 10.178-19.22 12.654-29.75-1.1-9.936 14.738-3.665 14.547-14.665-2.052-8.476 4.44-16.081 2.097-24.335-7.853-6.41-1.529.923-1.954 4.938-8.097 6.68.926 13.65-4.138 20.766-7.062 7.585-20.497 4.684-30.222 5.065-15.345 2.85-5.732-13.597-7.668-22.288 10.221.881 20.509 1.013 30.608-1.13 12.384-.5 8.694-9.84 7.503-18.414-2.06-11.306-4.553-23.09-2.256-33.73-5.83-16.466-7.483-33.925-11.953-50.721-1.452-9.432-8.799-18.353-18.942-16.01-8.571-4.331-28.46-8.11-37.23-12.405-8.272-4.45-13.164-14.28-23.798-5.192-.776 13.183-11.749 24.733-24.961 25.73-.12 8.201 1.894 18.993-6.149 26.614-5.586 14.056-6.003-2.814-10.809-7.255 8.389-4.575 4.086-19.615-5.644-23.141-6.445-6.319-18.734-15.216-12.777-25.145-1.227-1.005-2.762-1.43-4.46-1.41zm.86 7.73c.691-.07.415 4.64 2.546 8.142 5.246 10.681 22.94 13.75 21.285 27.149-8.626 4.677.643 13.312 2.366 21.457-2.534 8.663-1.2 19.294-.718 28.966 2.281 11.263 1.192 22.774 2.792 34.023l.307 2.028.07 1.285c-6.294-5.258-12.38-14.077-16.87-21.858.674-12.15 1.426-24.342.179-36.522-1.71-11.1-5.798-21.797-9.762-32.252-4.614-10.614 2.162 1.849 6.89 1.87-6.225-8.317-18.253-17.948-11.456-29.385 1.38-3.52 2.008-4.867 2.37-4.903zm65.605 1.58c2.35-.12 4.237 14.025 2.9 18.303-3.198 14.67-13.215 27.07-16.099 41.901-3.785 12.303-3.68 25.15-3.515 37.835-1.252 10.925-8.765 20.304-16.104 27.99-3.94 1.18-1.53-10.573-3.373-13.638 1.498-17.067-3.996-33.772-3.588-50.799 3.761-8.997 13.016-15.805 15.022-25.083.666.486 17.058-2.225 11.54-4.428-8.697 6.165-13.48-.24-12.063-8.952 9.753-1.278 19.709-7.667 22.88-17.363.783-4.103 1.617-5.727 2.4-5.767zM170.13 286.08c-1.344.035-2.368 1.69-.215 4.96 7.19 3.293 3.706-9.638 2.556-1.26.28-2.498-1.155-3.73-2.34-3.7zm-115.08 9.65c-1.506.046.161 6.06 4.437 7.455 6.362 3.2.515-2.513-1.175-4.13-1.596-2.445-2.672-3.342-3.262-3.324zm112.453 23.08c-1.23.003-1.672 1.08.47 4.3 8.76.904 2.237-4.304-.47-4.3zm1.946 1.254c.255.026.61.41 1.042 1.447-1.674 1.612-1.808-1.527-1.042-1.447zm-42.478 30.853c-2.552.006-5.154 1.661-3.077 5.49 1.397.86 3.227.487 4.68.08 4.117-3.466 1.29-5.577-1.603-5.57zm-82.605.142c1.622.033 3.607.693 5.81 2.007 7.82 3.08 18.41 2.13 25.412 3.992-2.534 6.774 7.223 21.178-3.623 20.393-3.634 1.006-7.498.312-11.218.47-10.108.677-25.767-5.65-20.313-18.258-1.455-5.713.362-8.677 3.932-8.604zm160.236 4.715c-2.041.028-3.416.797-1.706 3.013l1.406.06 2.472-.017c8.055-.459 1.726-3.11-2.172-3.056zm-37.454 3.96c-3.047-.067-6.677 2.93-2.505 7.004 1.694.58 3.726.073 4.983-1.19 1.657-4.085-.255-5.765-2.478-5.814zm-.126 1.529c.847.033 1.627.735 1.283 2.73-4.465-.556-2.966-2.633-1.453-2.728.057-.004.113-.004.17-.003zm-120.965.22c-1.903-.075 10.657 5.002 13.23 5.489 10.377 2.456-5.828 1.223-3.216 4.356l2.148.39 1.486-.206c15.596-2.54-3.903-8.52-9.72-9.032-2.28-.686-3.49-.979-3.928-.996zm242.957 3.29c-.439.008-1.023.047-1.772.122-2.867 2.142-22.167 1.269-14.461 3.147 2.31 1.896 21.054-3.108 16.624-3.267a8.422 8.422 0 0 0-.391-.002zm-164.26 16.892c-1.898.06-3.101 1.713-.551 6.441 9.525-1.6 3.934-6.55.55-6.441zm41.214 2.097c-3.127 0-6.705 2.402-1.459 5.525l1.93.104 1.644-.481c2.477-3.696.317-5.149-2.115-5.148zm-.908 1.049c.437.011 1.116.436 2.057 1.625-2.498 2.03-3.367-1.66-2.057-1.625zm40.924.016c-1.984-.031-3.526.629-3.008 2.646 1.59 1.03 3.55.287 5.269.523 8.604.317 2.104-3.1-2.26-3.169zM124.32 409.9c-1.794-.01-3.152 1.417-1.112 5.658 8.303-1.63 4.102-5.641 1.112-5.658zm79.477.449c-7.254.643-2.576 3.02 2.349 3.18 6.29-.842-.569-3.172-2.349-3.18z"/>
</svg>
