<?xml version="1.0" encoding="UTF-8" standalone="no"?>
<!-- Created with Inkscape (http://www.inkscape.org/) -->

<svg
   xmlns:dc="http://purl.org/dc/elements/1.1/"
   xmlns:cc="http://creativecommons.org/ns#"
   xmlns:rdf="http://www.w3.org/1999/02/22-rdf-syntax-ns#"
   xmlns:svg="http://www.w3.org/2000/svg"
   xmlns="http://www.w3.org/2000/svg"
   xmlns:sodipodi="http://sodipodi.sourceforge.net/DTD/sodipodi-0.dtd"
   xmlns:inkscape="http://www.inkscape.org/namespaces/inkscape"
   width="338.15475mm"
   height="415.26193mm"
   viewBox="0 0 338.15475 415.26193"
   version="1.1"
   id="svg8"
   inkscape:version="0.92.3 (2405546, 2018-03-11)"
   sodipodi:docname="Outfit04_big.svg">
  <defs
     id="defs2" />
  <sodipodi:namedview
     id="base"
     pagecolor="#ffffff"
     bordercolor="#666666"
     borderopacity="1.0"
     inkscape:pageopacity="0.0"
     inkscape:pageshadow="2"
     inkscape:zoom="0.49497475"
     inkscape:cx="347.9648"
     inkscape:cy="274.45161"
     inkscape:document-units="mm"
     inkscape:current-layer="layer1"
     showgrid="false"
     inkscape:window-width="1920"
     inkscape:window-height="1001"
     inkscape:window-x="-9"
     inkscape:window-y="-9"
     inkscape:window-maximized="1"
     inkscape:snap-global="true"
     fit-margin-top="0"
     fit-margin-left="0"
     fit-margin-right="0"
     fit-margin-bottom="0" />
  <metadata
     id="metadata5">
    <rdf:RDF>
      <cc:Work
         rdf:about="">
        <dc:format>image/svg+xml</dc:format>
        <dc:type
           rdf:resource="http://purl.org/dc/dcmitype/StillImage" />
        <dc:title />
      </cc:Work>
    </rdf:RDF>
  </metadata>
  <g
     inkscape:label="Ebene 1"
     inkscape:groupmode="layer"
     id="layer1"
     transform="translate(647.4574,-14.100569)">
    <rect
       style="opacity:1;fill:none;fill-opacity:1;fill-rule:evenodd;stroke:none;stroke-width:0.99999988;stroke-linecap:round;stroke-linejoin:miter;stroke-miterlimit:4;stroke-dasharray:none;stroke-dashoffset:0;stroke-opacity:1;paint-order:stroke fill markers"
       id="rect1307-4-6"
       width="337.15475"
       height="414.26193"
       x="-646.9574"
       y="14.600569"
       inkscape:label="Frame" />
    <path
       style="color:#000000;font-style:normal;font-variant:normal;font-weight:normal;font-stretch:normal;font-size:medium;line-height:normal;font-family:sans-serif;font-variant-ligatures:normal;font-variant-position:normal;font-variant-caps:normal;font-variant-numeric:normal;font-variant-alternates:normal;font-feature-settings:normal;text-indent:0;text-align:start;text-decoration:none;text-decoration-line:none;text-decoration-style:solid;text-decoration-color:#000000;letter-spacing:normal;word-spacing:normal;text-transform:none;writing-mode:lr-tb;direction:ltr;text-orientation:mixed;dominant-baseline:auto;baseline-shift:baseline;text-anchor:start;white-space:normal;shape-padding:0;clip-rule:nonzero;display:inline;overflow:visible;visibility:visible;opacity:1;isolation:auto;mix-blend-mode:normal;color-interpolation:sRGB;color-interpolation-filters:linearRGB;solid-color:#000000;solid-opacity:1;vector-effect:none;fill:#502d16;fill-opacity:1;fill-rule:evenodd;stroke:none;stroke-width:1;stroke-linecap:round;stroke-linejoin:miter;stroke-miterlimit:4;stroke-dasharray:none;stroke-dashoffset:0;stroke-opacity:1;paint-order:stroke fill markers;color-rendering:auto;image-rendering:auto;shape-rendering:auto;text-rendering:auto;enable-background:accumulate"
       d="m -551.2213,247.2001 a 1.7115253,1.7115253 0 0 0 -0.58008,0.11523 c -3.74207,1.45688 -6.82979,2.34718 -9.33984,3.59961 -2.51006,1.25244 -4.53697,3.14904 -5.18946,6.05469 -1.808,8.0516 0.57494,19.24728 -1.56836,40.85156 a 1.7115253,1.7115253 0 0 0 -0.008,0.23828 c 0.80855,20.06415 2.29109,40.171 7.93945,59.74414 0.35644,1.80313 0.55516,2.81627 0.85547,3.57812 0.0781,0.19806 0.10712,0.38753 0.4668,0.76758 0.17984,0.19002 0.52044,0.49429 1.11328,0.55666 0.59284,0.0623 1.18294,-0.26054 1.43555,-0.51369 0.50521,-0.50628 0.46182,-0.73277 0.51562,-0.9297 0.0538,-0.1969 0.0814,-0.35861 0.10742,-0.53123 0.20785,-1.38099 0.29427,-3.76592 0.71289,-5.51172 a 1.7115253,1.7115253 0 0 0 0.0469,-0.3711 c 0.31747,-19.6505 1.83138,-39.38879 1.49609,-59.32813 a 1.7115253,1.7115253 0 0 0 -0.0371,-0.33007 c -1.32783,-6.1881 -0.47713,-16.03737 0.80469,-25.09179 1.28182,-9.05443 2.95693,-17.14242 2.98047,-21.17774 a 1.7115253,1.7115253 0 0 0 -1.75195,-1.7207 z m 150.27148,5.69531 a 1.7115253,1.7115253 0 0 0 -0.90625,0.2832 c -2.90764,1.92078 -4.67295,5.0549 -5.82812,8.66407 -1.15517,3.60917 -1.73317,7.76918 -2.14258,12.08593 -0.81883,8.6335 -1.0032,17.95718 -3.02539,24.04688 a 1.7115253,1.7115253 0 0 0 -0.0703,0.30078 c -2.84505,20.21954 0.0968,40.32494 5.02929,59.72461 a 1.7115253,1.7115253 0 0 0 3.36914,-0.47461 l -0.0703,-2.2461 c 2.26347,-18.71837 4.65052,-33.76861 4.75,-52.84375 0.0277,-5.27468 1.79921,-15.1148 3.62695,-23.97656 0.91388,-4.43088 1.83776,-8.64205 2.55664,-12.00586 0.71889,-3.3638 1.22902,-5.72772 1.3418,-7.06445 a 1.7115253,1.7115253 0 0 0 -0.29883,-1.11914 c -1.07799,-1.55648 -2.44926,-2.48914 -3.73437,-3.17578 -1.28511,-0.68664 -2.49086,-1.18126 -3.625,-1.92188 a 1.7115253,1.7115253 0 0 0 -0.97266,-0.27734 z"
       id="path1556-3"
       inkscape:connector-curvature="0"
       inkscape:label="F端llung_Kleidung_04" />
    <path
       style="color:#000000;font-style:normal;font-variant:normal;font-weight:normal;font-stretch:normal;font-size:medium;line-height:normal;font-family:sans-serif;font-variant-ligatures:normal;font-variant-position:normal;font-variant-caps:normal;font-variant-numeric:normal;font-variant-alternates:normal;font-feature-settings:normal;text-indent:0;text-align:start;text-decoration:none;text-decoration-line:none;text-decoration-style:solid;text-decoration-color:#000000;letter-spacing:normal;word-spacing:normal;text-transform:none;writing-mode:lr-tb;direction:ltr;text-orientation:mixed;dominant-baseline:auto;baseline-shift:baseline;text-anchor:start;white-space:normal;shape-padding:0;clip-rule:nonzero;display:inline;overflow:visible;visibility:visible;opacity:1;isolation:auto;mix-blend-mode:normal;color-interpolation:sRGB;color-interpolation-filters:linearRGB;solid-color:#000000;solid-opacity:1;vector-effect:none;fill:#222b00;fill-opacity:1;fill-rule:evenodd;stroke:none;stroke-width:1;stroke-linecap:round;stroke-linejoin:miter;stroke-miterlimit:4;stroke-dasharray:none;stroke-dashoffset:0;stroke-opacity:1;paint-order:stroke fill markers;color-rendering:auto;image-rendering:auto;shape-rendering:auto;text-rendering:auto;enable-background:accumulate"
       d="m -430.7213,224.99111 c -3.27557,0.002 -6.18613,0.41498 -8.38477,1.39063 -1.09932,0.48782 -2.03257,1.12512 -2.69531,1.97851 -0.66274,0.8534 -1.01711,1.93675 -0.94727,3.08594 0.0362,0.58703 0.54419,1.03188 1.13086,0.99024 0.39698,-0.0281 0.34563,0.0133 0.68555,0 -1.64481,0.71132 -3.20288,1.41477 -6.13477,2.4082 -4.15734,1.40866 -9.05274,2.96381 -13.26953,4.37891 -4.21678,1.41509 -7.6611,2.61648 -9.32812,3.60156 l 0.19922,-0.0918 c -3.09213,1.05049 -5.24871,2.07009 -6.69532,3.16211 -1.4466,1.09202 -2.26002,2.42259 -2.10742,3.80273 0.0768,0.69437 0.36016,1.3106 0.77929,1.875 -9.20819,-4.1111 -18.42126,-8.22928 -27.78125,-11.98828 -0.0551,-0.0217 -0.11195,-0.0387 -0.16991,-0.0508 -3.62703,-0.79075 -5.60625,-1.92202 -6.36134,-2.99219 -0.75507,-1.07017 -0.6667,-2.25228 0.34181,-4.07031 0.0359,-0.0658 0.0647,-0.13517 0.0859,-0.20703 0.41682,-1.37557 -0.17952,-2.55463 -0.67187,-3.13672 -0.20929,-0.24743 -0.34018,-0.3885 -0.41212,-0.47461 0.0815,-0.75738 -0.64004,-1.35006 -1.36719,-1.12304 -6.52364,2.04734 -15.62964,3.62666 -24.30663,9.5039 -0.0818,0.0552 -0.15539,0.12163 -0.21876,0.19727 -0.79395,0.95064 -0.84211,2.06418 -0.8828,2.86719 -0.0407,0.803 -0.11098,1.28284 -0.28516,1.49414 -0.33065,0.40125 -0.32074,0.98329 0.0234,1.37304 11.50289,13.04465 32.77892,20.63641 46.00587,32.39453 0.0292,0.0258 0.0599,0.0499 0.0918,0.0723 3.45142,2.44347 6.92962,4.91669 10.40039,7.38475 -0.22896,-0.0921 -0.3114,-0.16965 -0.5547,-0.26366 -17.04163,-11.18221 -39.12497,-26.44606 -56.44728,-37.29297 -0.17412,-0.10946 -0.37638,-0.16579 -0.58202,-0.1621 -3.20018,0.0623 -5.60941,1.56585 -7.17577,3.81835 -1.56637,2.25251 -2.39856,5.19205 -2.92773,8.38868 -1.05835,6.39324 -0.88575,13.93043 -1.79688,18.92187 -0.0192,0.10437 -0.0226,0.21104 -0.01,0.31641 0.18251,1.5149 0.99539,2.72469 2.19531,3.1035 0.0646,0.0204 0.13426,-0.005 0.19922,0.0116 -1.22412,1.24058 -2.29774,2.59273 -2.97852,4.20899 -1.13013,2.68309 -1.31803,5.9069 -0.2539,9.72463 0.023,0.0818 0.0558,0.16044 0.0977,0.23437 0.46252,0.82409 0.80151,2.80135 0.86133,5.26952 0.0598,2.46816 -0.0907,5.45319 -0.29297,8.51953 -0.40458,6.13267 -1.04636,12.49984 -0.46289,16.2715 0.0567,0.36743 0.30217,0.6781 0.64649,0.81836 0.8216,0.33369 1.87859,0.56277 3.16601,0.39256 1.28743,-0.17021 2.79794,-0.70757 4.71287,-1.79102 16.58379,-8.30762 32.79723,-17.67948 49.95508,-24.73827 0.13994,-0.0579 0.26583,-0.14513 0.36915,-0.25586 1.184,-1.26349 3.60979,-2.47951 6.27539,-3.5293 2.6656,-1.04979 5.55385,-1.9712 7.79101,-2.96484 1.11858,-0.49684 2.0768,-1.00036 2.8125,-1.64259 0.73475,-0.64135 1.30625,-1.62745 1.07227,-2.66602 15.84662,11.05157 32.28456,21.43678 50.94728,27.41409 1.77846,1.13702 3.34056,2.22282 4.68359,3.06639 1.3677,0.8591 2.47092,1.51699 3.66796,1.64063 0.59852,0.0618 1.28726,-0.075 1.79689,-0.49999 0.5096,-0.42502 0.78936,-1.02422 0.95506,-1.69923 0.33141,-1.35001 0.28696,-3.17995 -0.008,-5.90039 l 0.002,0.22071 0.32422,-3.17579 c 0.0239,-0.23535 -0.0318,-0.47189 -0.1582,-0.67186 -3.69555,-5.87134 -10.31706,-9.91846 -17.50977,-13.40432 -7.19271,-3.48583 -15.00617,-6.40723 -21.16406,-9.77733 -0.064,-0.0349 -0.1314,-0.063 -0.20117,-0.084 -3.26483,-0.98761 -8.30582,-4.11755 -12.08984,-6.80858 0.6921,0.36175 1.06349,0.5131 1.9082,0.97656 0.009,0.005 0.0181,0.009 0.0273,0.0138 16.2371,8.33387 34.2402,14.85381 48.2461,25.6582 0.67369,0.52052 1.65497,0.0727 1.70312,-0.77734 0.92596,-16.2323 6.90194,-36.77898 6.52735,-50.84768 -0.004,-0.15922 -0.0442,-0.31545 -0.11719,-0.45703 1.62286,-0.2411 3.28011,-0.36714 4.80273,-0.19336 2.67253,0.30503 4.677,1.28083 5.50586,3.63477 0.12864,0.36393 0.44527,0.62891 0.82617,0.69141 3.90312,0.64217 8.0462,2.61992 10.10547,3.27929 0.25741,0.0824 0.48449,0.14603 0.73242,0.1836 0.24794,0.0376 0.55854,0.16855 1.08399,-0.21094 0.26272,-0.18975 0.46261,-0.5826 0.48242,-0.87109 0.0198,-0.2885 -0.0493,-0.47516 -0.11133,-0.62305 -0.12405,-0.29579 -0.27196,-0.48563 -0.46289,-0.72071 -0.76373,-0.94029 -2.33206,-2.40845 -5.19922,-4.99609 -0.0706,-0.0637 -0.14941,-0.11754 -0.23437,-0.16015 -0.60891,-0.30565 -0.922,-0.59707 -1.47071,-0.90821 0.45176,0.0301 0.87262,-0.23055 1.04688,-0.64844 0.53496,-1.28312 0.49275,-2.65727 0.006,-3.89062 -0.48689,-1.23335 -1.37165,-2.34855 -2.51367,-3.39453 -2.28405,-2.09197 -5.63942,-3.93407 -9.42188,-5.50391 -3.84695,-1.5966 -8.10802,-2.8929 -12.12109,-3.75781 0.75694,0.0937 1.51898,0.12409 2.23828,0.23047 2.93238,0.43365 5.5153,1.02301 6.42969,1.45117 1.05416,0.49431 2.01701,-0.82846 1.22265,-1.67969 -5.7267,-6.14954 -17.73299,-9.32453 -26.88476,-9.31836 z m -137.14063,32.55469 c -1.22185,0.0621 -2.31544,0.77181 -3.61328,1.80078 -1.28957,1.02242 -2.70079,2.42956 -4.08594,4.10547 -4.40848,3.09561 -12.69913,9.32691 -15.40703,15.80859 -2.71085,6.48875 -4.50911,13.13778 -5.12695,17.19922 -3.02045,6.47358 -6.74173,12.55228 -9.07031,19.57421 -0.0317,0.0959 -0.0494,0.1959 -0.0527,0.29689 -0.1186,3.61614 -2.22872,10.13489 -3.02343,13.87108 -0.19868,0.93405 -0.33407,1.66925 -0.2793,2.36915 0.0274,0.34994 0.0643,0.78288 0.52539,1.18163 0.23056,0.19939 0.57171,0.31912 0.85351,0.32227 0.2818,0.003 0.50406,-0.0711 0.69141,-0.15624 0.74938,-0.34073 1.26579,-0.92591 2.10742,-1.92188 0.4259,-0.50401 1.10414,-1.46384 1.6543,-2.19337 -5.16649,9.55709 -6.6254,20.67941 -8.54688,31.56836 -0.0374,0.20934 -0.0109,0.42511 0.0762,0.61915 2.8691,6.36561 2.23474,13.90243 1.82031,21.45507 -0.41444,7.55266 -0.59729,15.18002 3.79297,21.44336 0.4995,0.71287 1.5981,0.55113 1.87103,-0.27537 l 0.59375,-1.79885 c 5.89463,-14.3994 16.62073,-28.92227 20.60625,-44.31054 0.0122,-0.0456 0.0213,-0.0919 0.0273,-0.13867 0.71189,-5.87102 3.68475,-11.72559 7.08204,-16.45118 3.39728,-4.72557 7.26501,-8.34396 9.40234,-9.68555 0.24713,-0.15568 0.4189,-0.40664 0.47461,-0.69334 0.8196,-4.17595 0.91295,-10.07883 -1.29688,-15.22463 l 0.0391,0.10938 c -0.6192,-2.03708 -0.69885,-5.68923 -0.59375,-9.58789 0.10509,-3.89866 0.35841,-8.07408 0.22656,-11.46681 -0.0659,-1.69635 -0.22016,-3.19547 -0.58399,-4.42968 -0.36382,-1.23417 -0.99315,-2.35217 -2.18359,-2.74804 -0.2469,-0.0821 -0.51164,0.0161 -0.76562,0.006 0.0474,-0.0469 0.10545,-0.0879 0.15234,-0.13478 0.98308,-0.98166 1.85797,-1.94032 2.52734,-2.85351 0.66937,-0.91321 1.17361,-1.75593 1.26563,-2.73047 0.31911,-3.23834 0.29514,-8.55347 0.2539,-13.40821 -0.0206,-2.42807 -0.0458,-4.73282 -0.041,-6.57031 0.005,-1.83748 0.0645,-3.29702 0.12891,-3.66406 0.0909,-0.5169 -0.21083,-1.02232 -0.70899,-1.1875 -0.26745,-0.0886 -0.53581,-0.11304 -0.79101,-0.0996 z m 178.72461,2.73242 c -2.55798,1.1885 -0.85587,-2.03308 -2.69922,1.63086 -1.63656,2.27513 -3.07471,5.63574 -4.27539,12.62305 -0.01,0.0574 -0.0152,0.11556 -0.0156,0.17383 -0.0702,12.34558 -5.30856,27.02008 -3.97266,39.45312 0.0265,0.24394 0.13696,0.47111 0.3125,0.64256 0.66056,0.64704 1.0775,1.38618 1.6543,2.09572 -0.31334,-0.046 -0.63083,0.0507 -0.86524,0.26368 -1.16482,1.06325 -1.85686,2.34103 -2.06446,3.69139 -0.2076,1.35035 0.0437,2.73346 0.56251,4.11329 0.58805,1.56406 1.56426,3.1633 2.69531,4.78322 -0.11654,-0.0843 -0.2432,-0.26893 -0.35937,-0.34378 -0.53569,-0.34517 -1.07683,-0.60206 -1.69531,-0.66405 -0.61849,-0.062 -1.32989,0.1606 -1.79883,0.62696 -0.32622,0.32459 -0.40518,0.82285 -0.19531,1.2324 7.31853,14.2979 14.44641,31.25888 16.77031,47.5039 0.004,0.0328 0.0102,0.0654 0.0176,0.0977 3.98972,16.54207 4.62874,33.68249 4.27734,50.74023 -0.0124,0.59317 0.4579,0.43623 1.05119,0.43573 l 33.28583,0 c 0.65281,0 1.08584,0.0754 0.97937,-0.56867 -0.80314,-4.89847 -0.16957,-11.6863 0.25977,-18.59764 0.42934,-6.91134 0.66307,-13.96476 -1.19925,-19.66407 l 0.0332,0.13086 c -3.24753,-17.09081 1.01713,-33.94263 -0.92382,-51.62497 v -0.0101 c -2.49574,-20.98744 -6.48409,-42.21097 -13.88087,-62.12892 -0.0312,-0.0823 -0.0725,-0.16037 -0.12305,-0.23242 -2.60263,-3.75842 -7.03239,-7.76614 -11.45117,-10.9082 -2.2094,-1.57104 -9.1758,-2.91947 -11.16092,-3.89063 -1.98515,-0.97116 -3.71632,-1.5959 -5.21875,-1.60547 z m -39.04687,8.73242 c 0.39735,-0.014 0.43097,0.0318 0.78515,0.0312 -0.025,0.0634 -0.088,0.0986 -0.10547,0.16602 -0.10134,0.39143 -0.0398,0.80577 0.0937,1.11719 0.18838,0.43919 0.50466,0.64906 0.80079,0.89453 -0.48953,-0.0388 -0.78243,-0.0488 -1.42383,-0.10938 -1.93035,-0.57635 -3.79289,-1.34987 -5.70508,-1.97851 2.02546,0.005 4.00082,-0.0664 5.55469,-0.1211 z"
       id="path1550-3"
       inkscape:connector-curvature="0"
       inkscape:label="F端llung_Kleidung_03"
       sodipodi:nodetypes="ccccccsccccccccscccccccccccccccccccccccccccccccccsccccsccsccccscccccccccccccccccccccccscccccccccccccccccccccccccccccsccccccccccccccccccccccccccsccccccccccccscccccccsccccccccccc" />
    <path
       style="color:#000000;font-style:normal;font-variant:normal;font-weight:normal;font-stretch:normal;font-size:medium;line-height:normal;font-family:sans-serif;font-variant-ligatures:normal;font-variant-position:normal;font-variant-caps:normal;font-variant-numeric:normal;font-variant-alternates:normal;font-feature-settings:normal;text-indent:0;text-align:start;text-decoration:none;text-decoration-line:none;text-decoration-style:solid;text-decoration-color:#000000;letter-spacing:normal;word-spacing:normal;text-transform:none;writing-mode:lr-tb;direction:ltr;text-orientation:mixed;dominant-baseline:auto;baseline-shift:baseline;text-anchor:start;white-space:normal;shape-padding:0;clip-rule:nonzero;display:inline;overflow:visible;visibility:visible;opacity:1;isolation:auto;mix-blend-mode:normal;color-interpolation:sRGB;color-interpolation-filters:linearRGB;solid-color:#000000;solid-opacity:1;vector-effect:none;fill:#c87137;fill-opacity:1;fill-rule:evenodd;stroke:none;stroke-width:1;stroke-linecap:round;stroke-linejoin:miter;stroke-miterlimit:4;stroke-dasharray:none;stroke-dashoffset:0;stroke-opacity:1;paint-order:stroke fill markers;color-rendering:auto;image-rendering:auto;shape-rendering:auto;text-rendering:auto;enable-background:accumulate"
       d="m -467.75842,296.93838 c -2.2303,1.3122 -3.95809,3.00382 -10.0371,7.6621 -16.1425,10.07533 -6.58568,33.3992 -13.45509,49.04298 -10.75802,24.64826 -14.89243,50.12428 -5.64412,75.72621 1.04416,-0.0118 4.69506,0.25009 94.80772,-0.0175 2.02582,-12.45417 2.16126,-18.89524 2.81771,-32.57565 3.29391,-14.63027 -8.89617,-37.36486 -12.38168,-51.41016 -2.5309,-9.18072 -3.4508,-18.39669 -4.94141,-22.78514 -7.3197,-4.63117 -14.19068,-10.49237 -25.0332,-12.38674 -8.94239,-2.86544 -18.21952,-12.55284 -26.13281,-13.25583 z m -28.39453,4.13279 c -1.63088,0.42222 -4.19032,2.53402 -8.67383,4.78713 -15.6708,6.22324 -31.97371,15.4858 -46.46679,21.85546 -2.75971,15.73498 -5.17368,15.56236 -4.55357,31.39053 0.25849,4.37613 -4.0906,7.1907 -3.91481,11.43351 0.15441,3.72102 -5.09292,17.45766 -4.54324,23.03876 -2.14193,13.56749 -5.8172,30.59081 0.61855,35.89712 l 64.07235,-0.10617 c -6.63102,-27.50095 1.85996,-60.26546 9.39102,-92.32368 1.38691,-6.90919 -1.50473,-14.19159 2.96876,-28.69533 -4.45058,-3.72639 -7.77921,-5.50071 -8.89844,-7.27734 z"
       id="path1544-4"
       inkscape:connector-curvature="0"
       inkscape:label="F端llung_Kleidung_01"
       sodipodi:nodetypes="ccccccccccccccccccccccc" />
    <path
       id="path1532-1"
       style="color:#000000;font-style:normal;font-variant:normal;font-weight:normal;font-stretch:normal;font-size:medium;line-height:normal;font-family:sans-serif;font-variant-ligatures:normal;font-variant-position:normal;font-variant-caps:normal;font-variant-numeric:normal;font-variant-alternates:normal;font-feature-settings:normal;text-indent:0;text-align:start;text-decoration:none;text-decoration-line:none;text-decoration-style:solid;text-decoration-color:#000000;letter-spacing:normal;word-spacing:normal;text-transform:none;writing-mode:lr-tb;direction:ltr;text-orientation:mixed;dominant-baseline:auto;baseline-shift:baseline;text-anchor:start;white-space:normal;shape-padding:0;clip-rule:nonzero;display:inline;overflow:visible;visibility:visible;opacity:1;isolation:auto;mix-blend-mode:normal;color-interpolation:sRGB;color-interpolation-filters:linearRGB;solid-color:#000000;solid-opacity:1;vector-effect:none;fill:#676c53;fill-opacity:1;fill-rule:evenodd;stroke:none;stroke-width:1;stroke-linecap:round;stroke-linejoin:miter;stroke-miterlimit:4;stroke-dasharray:none;stroke-dashoffset:0;stroke-opacity:1;paint-order:stroke fill markers;color-rendering:auto;image-rendering:auto;shape-rendering:auto;text-rendering:auto;enable-background:accumulate"
       d="m -402.0505,337.13872 c 6.87459,6.05396 14.1588,26.31379 15.8936,38.47828 4.75559,17.42839 4.13407,35.86263 4.63644,53.76103 l -20.56655,-0.0259 c 1.85433,-13.77807 1.04602,-13.24717 3.2894,-27.45482 2.63242,-16.0155 -7.49911,-48.86222 -3.25289,-64.75857 z m -165.14755,-1.19528 c 4.429,-0.29154 3.56526,16.44372 6.89002,22.5542 2.98241,9.87001 -2.31589,16.51151 -2.99939,26.17152 -0.30829,4.35637 -1.72385,10.86651 -1.78296,13.26398 -0.093,3.76878 -0.75737,10.24643 -0.2773,13.93337 -2.11884,3.62884 0.14364,14.75149 1.68104,17.60717 l -36.15076,-0.0956 c -2.65381,-7.63871 -5.37497,-23.98482 0.10281,-30.62028 10.083,-17.33283 15.38882,-38.59205 25.99221,-55.82293 3.00371,-4.90508 5.06796,-6.89414 6.54431,-6.99132 z m 91.18047,-44.55385 c 14.1687,1.35578 -2.16196,10.82093 -8.26976,15.28482 -5.60901,-2.40657 -7.19477,-5.05669 -9.42785,-6.88017 2.33389,-3.08454 15.2836,-5.34633 17.69761,-8.40465 z"
       inkscape:connector-curvature="0"
       inkscape:label="F端llung_Kleidung_02"
       sodipodi:nodetypes="cccccccccccccccccccccc" />
    <path
       style="fill:#000000;stroke-width:0.26458332"
       d="m -431.72621,223.58853 c -6.82226,-0.0477 -12.9784,2.43747 -16.58091,10.04125 -13.58186,-0.0104 -26.30241,17.19719 -38.36718,12.38994 -7.39916,-5.36773 -26.75506,-5.54156 -22.39242,-15.23628 1.81567,-11.41561 -14.26968,-2.90147 -20.66231,0.4377 -2.79851,0.89173 -6.43246,3.18962 -9.53739,5.24774 -1.98587,3.22744 -3.2478,4.75258 -2.76936,6.18825 -1.90152,0.32456 -4.49115,2.3531 -6.69778,2.97398 -2.84519,0.80056 -5.42933,0.32517 -9.02322,2.00453 -6.14029,3.46705 -6.76354,3.57048 -9.52809,8.21914 -4.35068,2.14054 -9.19435,6.67538 -15.00632,13.34388 -5.28087,5.44284 -14.4009,19.70911 -15.77422,27.34509 -4.74779,9.76832 -9.09167,19.4889 -11.31147,30.0545 -4.9,10.33066 4.70287,21.49015 -2.49544,32.48586 0.33943,12.23373 1.16073,24.74976 0.65111,37.01844 1.44441,4.34742 1.49749,6.9728 5.35988,11.51609 -0.0612,3.62683 -0.12692,5.58086 0.59221,12.02616 0.37098,3.32391 1.12218,6.25377 1.38441,9.73323 h 4.04731 c -2.4238,-7.42344 -5.4985,-23.83518 0.10284,-30.62036 10.08306,-17.33283 15.38888,-38.59207 25.99222,-55.82296 12.01483,-19.62031 9.00131,7.41566 13.43429,15.5629 2.98239,9.87002 -4.71575,21.82332 -5.39922,31.48334 -1.52121,10.1249 -0.815,15.52219 -1.04609,22.79743 0.0304,3.81287 1.86734,12.04 1.46254,16.6542 l 3.02403,0.0194 c -4.4756,-11.30794 -1.66566,-38.0263 -0.70809,-41.81121 -0.17584,-4.2428 5.02688,-18.66228 5.57019,-21.70206 2.90068,-3.42226 3.35087,-22.4892 6.1106,-38.2242 14.49308,-6.36966 30.79724,-15.63384 46.46798,-21.85707 4.4835,-2.25309 7.04244,-4.3641 8.67336,-4.78629 1.11911,1.7766 4.44864,3.55018 8.89921,7.27657 -4.47347,14.50372 -3.94483,31.70963 -5.33169,38.61883 -4.58201,16.74138 -6.78597,22.13775 -8.96147,40.70673 -1.22698,10.47298 -1.98574,22.45265 -0.14481,34.7087 0.61422,2.42922 1.41569,3.04444 1.43801,7.01279 l 3.35877,-0.0251 c -4.55053,-17.29358 -3.59174,-27.04973 -2.35856,-38.07979 1.43067,-12.79648 3.87528,-26.07041 8.00361,-37.64624 6.86939,-15.64378 -2.687,-38.9682 13.45548,-49.04353 6.07899,-4.65829 7.80628,-6.34884 10.03661,-7.66104 7.91332,0.70302 17.18927,10.39058 26.13172,13.25605 10.84251,1.89436 17.71339,7.75414 25.03311,12.3853 1.49059,4.38846 2.41097,13.60546 4.94184,22.78618 3.48557,14.0453 14.53919,43.34902 11.24529,57.97929 0.72941,15.22029 -1.03603,15.32741 -2.47361,26.0608 h 1.93014 c 1.84386,-11.1258 2.44863,-8.30844 3.68849,-27.62195 2.6324,-16.01547 -9.03604,-48.74969 -4.78988,-64.64604 6.87462,6.05395 14.15926,26.31379 15.89413,38.47827 4.79224,17.56286 4.1116,35.7265 4.6359,53.76106 h 1.78281 c 0.37106,-17.23414 -0.24487,-34.61007 -4.29998,-51.42323 -2.32341,-16.2415 -9.44401,-33.3208 -16.87444,-47.83738 4.1963,-4.17295 22.78904,32.52634 18.31931,20.5667 -1.77237,-11.33348 -23.81827,-25.32457 -15.69257,-32.74166 8.65116,13.43972 5.94092,2.66811 -0.76121,-3.89694 -1.29392,-12.04301 3.90625,-26.70273 3.97806,-39.33401 1.22111,-7.10617 2.64115,-10.32098 4.21164,-12.42715 1.52485,-4.21313 22.80285,6.51088 28.68144,15.00012 7.3546,19.80429 11.33189,40.94437 13.82189,61.88354 1.91421,17.43866 -2.36699,34.32895 0.93535,51.70797 3.58966,10.98593 -0.89654,28.28089 0.96634,38.50204 h 2.50632 c 1.94844,-19.33498 -0.99888,-38.88804 -2.12958,-58.21143 3.50779,-20.90584 -0.29194,-42.29751 -4.2685,-62.90159 -3.97525,-17.63731 -8.80625,-36.82411 -25.87696,-46.29898 -1.26889,-3.53984 -9.87269,-7.1686 -11.70212,-10.2557 1.31138,-4.11019 -4.99518,-10.68557 -12.18272,-13.9914 -2.27144,-4.15596 -6.71822,-6.62424 -11.04169,-8.97516 -6.26833,-2.52703 -13.75686,-5.1075 -20.57911,-5.15524 z m 1.00407,2.46186 c 8.89219,-0.006 20.78349,3.25678 26.1121,8.97878 -4.80465,-2.24976 -31.24748,-4.10813 -19.38073,-0.80305 10.70668,-0.5001 36.79089,7.9386 33.3375,16.22175 -11.15933,-7.54371 -8.34205,-1.74383 0.92604,2.90835 11.43754,10.32245 2.4974,3.48747 -5.74953,2.13062 -3.93591,-11.17783 -32.22511,3.00129 -12.2473,-2.60501 0.36568,13.73512 -5.58866,34.32375 -6.52624,50.76019 -14.18881,-10.94549 -32.25728,-17.4712 -48.40996,-25.76173 -18.955,-10.3998 0.70796,5.15236 9.36482,7.7711 12.52248,6.85337 31.2761,11.67921 38.28759,22.81878 v 0 l -0.32507,3.175 c 1.15827,10.69009 -2.19477,7.02643 -9.56117,2.3306 -25.26617,-8.05148 -46.54663,-24.29581 -67.89197,-39.4074 -13.47293,-11.97684 -34.71204,-19.59681 -45.91503,-32.30138 0.92775,-1.12555 0.0825,-3.06319 1.16427,-4.35787 8.46445,-5.73332 17.39011,-7.28543 24.02904,-9.36894 -0.37854,0.90985 1.75215,1.33936 1.12239,3.41788 -2.21994,4.00177 -0.76656,6.97634 6.72105,8.60877 25.83392,10.37497 50.65157,23.60869 77.41542,31.58671 12.66743,1.20918 -3.91388,-1.73805 3.98272,-3.98839 -2.94357,-1.12062 -16.68601,2.32436 -23.53863,-4.17907 -8.41524,-5.66193 -45.58964,-12.00657 -21.32066,-20.25148 5.63166,-3.3279 44.95025,-13.59138 27.43295,-12.35222 -0.2218,-3.64958 4.60481,-5.32821 10.9704,-5.33249 z m 11.88868,13.65447 c -8.06945,-0.0101 -17.05679,1.10386 -24.04041,1.43143 5.59993,1.84158 25.64378,-1.98652 36.44947,0.95344 l 3.38016,0.5767 c -3.79169,-2.26615 -9.51299,-2.95373 -15.78922,-2.96157 z m -109.1546,5.89783 c -2.95445,-0.18882 18.93377,10.83042 22.8627,14.35364 24.9887,14.71716 46.39069,35.16907 73.12525,46.96716 -4.69106,-1.46799 4.82733,2.30431 3.22514,0.43976 -18.1751,-9.34685 -35.84212,-20.63789 -51.97824,-33.41191 -14.48216,-9.6136 -28.67274,-19.8618 -44.32287,-27.527 -1.56083,-0.53897 -2.48992,-0.79468 -2.91198,-0.82165 z m -12.57027,0.555 c 17.29813,10.83176 39.39976,26.10921 56.46475,37.30573 18.13597,6.92898 -5.27276,8.0637 -10.95488,14.12729 -17.26193,7.10166 -33.51155,16.50267 -50.07343,24.79694 -3.67398,2.07862 -5.5522,1.90817 -6.95875,1.33688 -1.06966,-6.91478 2.4057,-25.72139 -0.22892,-30.41573 -2.03036,-7.2844 0.7779,-11.76449 5.43998,-15.09931 -2.49869,0.9749 -4.26118,0.76932 -4.56974,-1.79216 1.89553,-10.3841 -0.72308,-30.03381 10.88099,-30.25964 z m -6.31125,32.0518 c 1.86208,-0.72655 4.1332,-2.10886 6.51846,-3.66284 -2.34933,1.10326 -4.59247,2.28515 -6.51846,3.66284 z m 6.51846,-3.66284 c 5.21991,-2.45129 10.96334,-4.51513 14.93037,-7.46982 -2.98934,-0.85436 -9.27825,3.78755 -14.93037,7.46982 z m -10.8293,-25.63564 c -0.0406,7.02883 -6.61255,33.2868 -3.74759,46.63796 0.33351,19.83338 -1.51254,38.81842 -1.83115,58.5379 -0.96653,4.03111 -0.44284,8.0728 -1.56451,3.24128 -5.58372,-19.34938 -7.06588,-39.31131 -7.87289,-59.33694 2.1608,-21.78073 -0.1143,-33.29647 1.53633,-40.64712 1.075,-4.78723 5.8524,-5.46356 13.47981,-8.43308 z m 150.26832,5.69526 c 2.59327,1.69358 5.12131,2.08493 6.88952,4.63796 -0.33735,3.99753 -7.47223,31.92531 -7.53131,43.18288 -0.0992,18.98338 -2.48177,33.96125 -4.75425,52.77765 l 0.0729,2.37403 c -4.90279,-19.2831 -7.79151,-39.16058 -4.99092,-59.06357 4.33994,-13.0696 0.49893,-37.42578 10.31409,-43.90895 z m -93.16848,0.70022 c -2.81704,0.32169 20.48871,8.59403 27.00923,11.94036 l 3.57704,1.3255 c -7.72215,-3.41362 -20.2609,-10.02455 -30.58627,-13.26586 z m -73.72467,3.29644 c 0.14991,-0.008 0.28493,0.007 0.40409,0.0465 -0.42179,2.4027 0.26305,17.4932 -0.35189,23.72724 -0.45866,4.85772 -22.32025,19.13953 -9.91619,12.43644 14.94359,-18.34298 7.08644,12.62013 9.91204,21.91597 2.08713,4.86029 2.01596,10.60453 1.23094,14.60429 -4.72104,2.96336 -15.48503,14.63857 -16.97259,26.90635 -3.96569,15.31173 -14.6775,29.80494 -20.57808,44.21902 v 0 l -0.60254,1.82314 c -8.29704,-11.83704 0.52417,-29.32856 -5.51439,-42.72608 2.92135,-16.55488 9.29251,-33.22495 24.40678,-44.17664 13.29902,-14.43154 -13.1527,5.96871 -16.1494,9.67177 -10.82675,15.31165 -2.48393,-2.76294 -2.22416,-10.68409 2.28822,-6.90012 6.00257,-12.96154 9.0625,-19.53474 1.14017,-7.79312 12.05053,-27.08744 20.32641,-32.67758 2.70758,-3.28414 5.51696,-5.47875 6.96597,-5.5516 z m 105.48606,10.19886 c 14.77042,9.22014 31.15196,15.26443 46.85917,22.6141 l 1.47277,0.59635 -0.60978,-0.67281 c -16.01584,-7.29025 -31.69637,-15.28915 -47.72216,-22.53764 z m -13.69838,22.58775 c 14.16878,1.35578 -2.16199,10.82095 -8.26979,15.28487 -5.609,-2.40659 -7.19426,-5.05671 -9.42734,-6.8802 2.33386,-3.08451 15.28313,-5.34633 17.69713,-8.40467 z m -0.23307,17.60514 c -0.14488,0.007 -0.40293,2.1522 -0.81648,8.05272 0.41088,19.16684 1.33393,-8.07807 0.81648,-8.05272 z m -8.22171,19.59983 c -0.90809,-0.0349 -1.53199,0.95332 -0.95446,3.97959 6.84953,1.92421 3.10512,-3.89707 0.95446,-3.97959 z m 7.77729,0.99631 c -2.21102,-0.30321 -1.8765,22.10794 -3.17158,31.66961 1.47798,2.26248 2.0284,-24.2349 3.17158,-31.66961 z m -11.45614,32.99902 c -0.95059,0.0415 -1.52175,1.202 -0.42685,4.56046 5.91145,-0.0383 2.37331,-4.64539 0.42685,-4.56046 z m 5.22863,5.54951 c -0.47096,0.0325 -2.71896,7.05415 -6.34396,24.96462 1.5212,14.84437 0.27314,21.4964 1.28622,36.39721 h 1.41286 c -0.21851,-1.08397 -0.42385,-2.48368 -0.20843,-2.74181 -1.53589,-18.82466 -2.55598,-42.23916 2.65166,-50.25077 0.12169,-0.9173 1.4005,-8.38296 1.20165,-8.36925 z m -13.52835,24.09437 c -1.04032,0.0799 -1.44104,1.11757 0.57568,3.97959 5.72684,-0.7947 1.41036,-4.13218 -0.57568,-3.97959 z m 1.20324,27.31722 c -1.46592,0.0524 -2.17476,1.20499 0.67282,4.42658 6.31589,-1.54471 1.77035,-4.51397 -0.67282,-4.42658 z"
       id="path1409-9"
       inkscape:connector-curvature="0"
       inkscape:label="Kontur_Kleidung"
       sodipodi:nodetypes="cccccccccccccccccccccccccccccccccscccsccccccccccccccccccccccccccccccccccccccccccccccccccccccccccccccccccccccccccccccccccccccccccccscccccccccccccccccccccccccccccccccccccccccccccccccccccccccccccccccc" />
  </g>
</svg>
