<?xml version="1.0" encoding="UTF-8" standalone="no"?>
<!-- Created with Inkscape (http://www.inkscape.org/) -->

<svg
   xmlns:dc="http://purl.org/dc/elements/1.1/"
   xmlns:cc="http://creativecommons.org/ns#"
   xmlns:rdf="http://www.w3.org/1999/02/22-rdf-syntax-ns#"
   xmlns:svg="http://www.w3.org/2000/svg"
   xmlns="http://www.w3.org/2000/svg"
   xmlns:sodipodi="http://sodipodi.sourceforge.net/DTD/sodipodi-0.dtd"
   xmlns:inkscape="http://www.inkscape.org/namespaces/inkscape"
   width="338.15475mm"
   height="415.26193mm"
   viewBox="0 0 338.15475 415.26193"
   version="1.1"
   id="svg8"
   inkscape:version="0.92.3 (2405546, 2018-03-11)"
   sodipodi:docname="Outfit02.svg">
  <defs
     id="defs2" />
  <sodipodi:namedview
     id="base"
     pagecolor="#ffffff"
     bordercolor="#666666"
     borderopacity="1.0"
     inkscape:pageopacity="0.0"
     inkscape:pageshadow="2"
     inkscape:zoom="0.35"
     inkscape:cx="411.55222"
     inkscape:cy="664.01839"
     inkscape:document-units="mm"
     inkscape:current-layer="layer1"
     showgrid="false"
     inkscape:window-width="1920"
     inkscape:window-height="1001"
     inkscape:window-x="-9"
     inkscape:window-y="-9"
     inkscape:window-maximized="1"
     inkscape:snap-global="true"
     showguides="true"
     fit-margin-top="0"
     fit-margin-left="0"
     fit-margin-right="0"
     fit-margin-bottom="0" />
  <metadata
     id="metadata5">
    <rdf:RDF>
      <cc:Work
         rdf:about="">
        <dc:format>image/svg+xml</dc:format>
        <dc:type
           rdf:resource="http://purl.org/dc/dcmitype/StillImage" />
        <dc:title></dc:title>
      </cc:Work>
    </rdf:RDF>
  </metadata>
  <g
     inkscape:label="Ebene 1"
     inkscape:groupmode="layer"
     id="layer1"
     transform="translate(1355.1667,-269.28568)">
    <rect
       style="opacity:1;fill:none;fill-opacity:1;fill-rule:evenodd;stroke:none;stroke-width:0.99999988;stroke-linecap:round;stroke-linejoin:miter;stroke-miterlimit:4;stroke-dasharray:none;stroke-dashoffset:0;stroke-opacity:1;paint-order:stroke fill markers"
       id="rect1307"
       width="337.15475"
       height="414.26193"
       x="-1354.6667"
       y="269.78568"
       inkscape:label="Frame" />
    <path
       id="path2976"
       style="display:inline;fill:#d4aa00;fill-opacity:1;stroke-width:0.99999994"
       d="m -1209.7356,667.9885 c 1.1822,0.004 2.257,0.18293 3.0934,0.586 0.9126,0.46246 1.7359,0.96551 1.8309,1.11828 0.094,0.15277 0.086,0.80786 -0.019,1.45521 -0.1964,1.21047 -0.34,1.2831 -1.7167,0.87281 -0.4427,-0.132 -2.1875,-0.17058 -3.8778,-0.0858 -3.2866,0.16492 -9.3178,-0.17558 -9.3178,-0.52557 1.9464,-1.86092 6.4603,-3.43191 10.0071,-3.42095 z m -56.2503,-157.57438 c 0.1392,0.004 0.2633,0.0295 0.368,0.0791 5.3854,2.45026 2.4631,7.10288 4.6436,12.95735 0.702,1.60047 2.3844,3.55923 3.5941,4.18475 0.4961,0.25654 1.5526,0.46665 2.3477,0.46665 0.7951,0 1.5352,0.14486 1.6448,0.32195 0.12,0.19465 -0.3242,0.32194 -1.1239,0.32194 -4.1944,0.0598 -6.8298,5.16721 -4.1372,8.53953 1.1374,1.29535 4.9138,3.17379 5.8761,2.9223 0.3383,-0.0885 0.9005,-0.008 1.249,0.17777 0.5858,0.31348 0.617,0.56264 0.415,3.31399 -0.1991,2.71163 -0.145,3.17008 0.6087,5.17231 0.4548,1.20833 0.9867,2.38988 1.1819,2.62517 0.7364,0.88718 2.5944,0.21098 4.0054,-1.4578 0.3841,-0.45403 0.8317,-0.69443 1.0464,-0.56174 0.5816,0.35947 0.4547,0.7597 -0.5839,1.84642 -1.1358,1.18846 -1.4959,2.7173 -0.9968,4.22971 0.463,1.40311 2.9714,4.36796 4.4865,5.30305 1.5168,0.93614 4.5698,1.93185 6.7882,2.21329 1.3662,0.17335 1.6019,0.27863 1.0671,0.47646 -2.1301,0.78793 -1.3585,3.63307 1.3643,5.03171 0.5311,0.27287 2.3591,1.86846 4.0618,3.54553 3.7028,3.6472 5.6566,4.89966 7.6631,4.90566 0.8811,0.003 1.6482,-0.19828 2.0138,-0.52916 0.6578,-0.59018 1.2551,-0.32584 0.646,0.28318 -0.4406,0.44172 -0.4784,5.48542 -0.082,11.19724 0.1815,2.6174 0.5434,4.64506 1.2351,6.92103 1.6143,5.37538 2.445,10.92964 4.2648,16.2574 1.6573,5.12321 3.3489,12.24275 4.6716,18.67225 1.0107,4.55253 0.8496,9.23973 1.5611,13.84205 0.2559,2.21324 0.5439,7.87485 0.6429,12.58112 0.098,4.70631 0.3251,8.94382 0.5048,9.4165 0.3947,1.0378 0.3523,1.04349 -1.3601,0.1633 -4.3836,-2.20565 -9.44,-0.13457 -14.3082,1.80454 -1.1678,0.38084 -1.9046,0.86407 -2.3988,1.57199 -0.3924,0.56206 -0.8656,1.12821 -1.0511,1.25833 v 0 c -0.3799,0.26625 -0.5184,0.263 -2.1332,-0.0527 -1.136,-0.22209 -4.3489,-1.44184 -6.9314,-2.63186 -0.7277,-0.33531 -1.7151,-0.60979 -2.1942,-0.60979 -1.4189,0 -1.9707,-0.49651 -3.4814,-3.1316 -1.6011,-2.79287 -1.9599,-3.97209 -4.1393,-13.60588 -0.3403,-1.50342 -0.7066,-3.01149 -0.8149,-3.35175 -0.1712,-0.53914 0.026,-0.49331 1.5322,0.35658 1.9281,1.08781 3.4588,1.51202 4.0576,1.12501 0.6745,-0.43577 -0.3992,-1.56596 -3.2453,-3.41635 -3.8951,-2.53249 -4.0218,-2.71994 -4.3899,-6.48952 -0.3755,-3.84653 -0.969,-6.71105 -2.7828,-13.43173 -0.4202,-1.55718 -0.7643,-2.95047 -0.7643,-3.09644 0,-0.14603 1.3901,0.65042 3.0887,1.77043 5.1462,3.39283 7.1019,4.03696 7.984,2.62827 0.5379,-0.85919 10e-5,-1.46453 -3.2468,-3.62202 -5.2002,-3.4607 -8.9967,-8.11125 -14.0053,-17.15606 -2.2244,-4.01664 -2.6324,-5.00176 -3.0112,-7.26622 -0.2411,-1.44079 -0.586,-3.41609 -0.7669,-4.38992 -0.3947,-2.12595 -1.3265,-14.95258 -1.3265,-18.34978 0,-2.59818 -0.2297,-4.57827 -1.2682,-11.10631 -1.1305,-7.1057 -1.2619,-8.21041 -1.6092,-13.52113 -0.9199,-14.05916 -0.8743,-13.72439 -2.7042,-19.9595 -1.9304,-6.45846 -5.4618,-11.50586 -5.1904,-17.59841 1.2835,-1.23757 4.0883,-3.18638 5.4343,-3.14761 z m 162.0682,-10.44845 c 0.1781,0.003 0.3468,0.0525 0.539,0.12557 0.4707,0.17895 1.5068,0.32504 2.3021,0.32504 0.7954,0 2.0847,0.16098 2.8655,0.35761 l 1.4201,0.3576 -0.4966,1.1715 c -8.7817,21.86445 -12.7656,31.55644 -15.1164,75.85222 -0.4358,8.64679 -4.8301,22.09683 -7.0823,31.39395 -1.3364,3.22037 -4.716,7.64831 -8.7876,11.513 -1.4433,1.37003 -2.6229,2.72661 -2.622,3.01479 0.01,1.4592 1.8837,1.50611 4.4281,0.1106 0.7526,-0.41273 1.3684,-0.5918 1.3684,-0.39844 -2.1089,11.2168 -7.6205,20.67227 -7.0275,33.54422 0.1004,4.14898 0.072,4.38608 -0.5379,4.55528 -11.2803,3.30477 -24.1084,8.54323 -38.1982,9.63453 -7.6547,1.03479 -14.3341,1.41695 -13.9516,0.79791 0.1463,-0.23672 0.2963,-1.89024 0.3333,-3.67422 0.037,-1.78395 0.2232,-4.98181 0.4145,-7.10652 0.1912,-2.12471 0.4968,-7.91961 0.679,-12.87727 0.3166,-8.61338 0.5916,-12.57954 1.3157,-18.99314 0.7486,-6.6602 1.5497,-13.08984 2.8794,-19.95951 0.5855,-4.08109 1.6655,-9.14021 2.7492,-13.68187 1.5594,-6.65927 2.7326,-14.69572 2.7326,-18.74096 l 6e-4,-1.51723 6.8409,0.18965 c 6.278,0.17399 7.0774,0.13227 9.7146,-0.50228 3.2508,-0.78227 6.1098,-1.95625 8.2228,-3.37757 2.407,-1.61911 6.2785,-5.54304 7.2481,-7.34634 0.5036,-0.9366 1.3068,-2.28229 1.7849,-2.9905 0.9124,-1.35144 2.545,-4.90284 3.5352,-7.68996 3.7873,-10.591 9.2503,-22.391 14.9888,-32.87294 0.5608,-0.88531 1.7794,-3.12495 2.7083,-4.97696 2.2914,-4.56832 2.8871,-5.31548 9.3416,-11.71556 3.6969,-3.66582 4.6357,-4.53426 5.4074,-4.5222 z"
       inkscape:connector-curvature="0"
       inkscape:label="Kleidung_02" />
    <path
       id="path2848-4"
       style="display:inline;fill:#88aa00;fill-opacity:1;stroke-width:0.99999994"
       d="m -1197.4598,683.1147 c 0.7038,-0.0222 1.1287,0.18661 1.3524,0.55499 h -3.6815 c 0.9852,-0.36089 1.7521,-0.53684 2.3291,-0.55499 z m 10.2019,-0.44855 c 0.1118,0.005 0.2079,0.0344 0.2615,0.0878 0.107,0.10692 -0.083,0.18291 -0.4227,0.16899 -0.3749,-0.0153 -0.451,-0.0916 -0.1943,-0.19431 0.1163,-0.0465 0.2436,-0.0671 0.3555,-0.0625 z m 0.9602,-6.30039 c 0.2927,0 0.6222,1.3e-4 0.9979,0.004 4.4539,0.11647 10.0837,2.57797 14.5831,4.46535 l -0.9333,0.39844 c -0.5862,0.25027 -2.5505,0.39806 -5.2798,0.40203 -4.0884,0.003 -4.4889,-0.0543 -6.7603,-0.96687 -1.3279,-0.53348 -3.6094,-1.13985 -5.07,-1.3477 -1.461,-0.20789 -2.6558,-0.45469 -2.6438,-0.5483 0.01,-0.0935 0.6951,-0.67683 1.5292,-1.29657 1.3041,-0.96781 1.5281,-1.10463 3.577,-1.11 z m -6.3562,-1.14361 c 1.6392,0 1.6523,0.008 1.0769,0.64389 -0.3206,0.35412 -0.6686,0.63699 -0.7746,0.63098 -0.3193,-0.0214 -1.9622,-0.96205 -1.9622,-1.12345 0,-0.0828 0.7473,-0.15142 1.6599,-0.15142 z m -25.0832,-0.49196 c 0.8012,0.006 1.8065,0.0238 3.0618,0.0527 3.3198,0.0763 7.3523,0.28625 8.9612,0.46665 1.6089,0.18039 4.0969,0.24421 5.5289,0.1416 1.5005,-0.10739 2.6826,-0.0579 2.791,0.11679 0.1064,0.17222 -0.7525,0.38253 -1.988,0.48678 -5.0653,0.42743 -12.0683,0.44357 -16.1783,0.0372 -2.3903,-0.23638 -4.5272,-0.44286 -4.7486,-0.45887 -0.2213,-0.0159 -0.4025,-0.23151 -0.4025,-0.47905 0,-0.28088 0.5707,-0.38026 2.9745,-0.3638 z m -21.9506,-5.26429 c 0.1469,0.0169 0.314,0.16399 0.6046,0.42686 0.4405,0.39867 1.3116,0.65703 2.5192,0.74723 1.9181,0.1433 3.4011,0.5501 6.6751,1.83039 1.0622,0.41542 2.5833,0.859 3.3801,0.986 2.1635,0.34477 2.5756,0.65637 2.5756,1.94923 0,1.37467 0.7481,2.58464 1.9978,3.2308 2.3981,1.24032 15.3898,1.93474 23.6761,1.26556 l 3.2995,-0.26665 v 0.77153 c 0,0.75821 -0.054,0.77163 -3.1388,0.80512 -2.1738,0.0236 -4.1743,0.28713 -6.517,0.85887 -2.5902,0.62881 -5.606,1.19412 -8.8299,1.59885 h -18.1849 c -0.4351,-0.0683 -0.8681,-0.14089 -1.2971,-0.2217 -2.3542,-0.30927 -5.6674,0.0635 -7.2523,-0.59634 -3.8776,-1.61425 -3.7871,-1.4955 -3.7341,-4.93871 0.048,-3.06935 2.0304,-5.89161 3.5383,-7.83312 0.3431,-0.44167 0.4988,-0.63556 0.6878,-0.61392 z m 111.0821,-5.46735 c 0.267,0.10242 0.4578,0.6154 0.4578,1.22886 0,0.57912 0.2327,1.24584 0.5168,1.48156 1.3752,1.35858 3.1506,9.19575 4.4199,12.44783 0,0.81711 -1.3263,1.45248 -3.7021,1.77302 -0.8853,0.11944 -2.4787,0.48848 -3.5409,0.8201 -4.1837,1.30609 -10.9393,1.48559 -24.2626,1.83089 -1.8707,0.0485 -1.8857,0.0471 -3.5135,0.0889 h -9.7234 c 0.057,-0.1842 0.2251,-0.46575 0.5044,-0.83198 0.9959,-1.30567 1.1246,-3.38236 0.2578,-4.15478 -0.8829,-0.78661 -6.2272,-3.08393 -7.7344,-3.32486 -0.7479,-0.11959 -1.3596,-0.31599 -1.3596,-0.43514 0,-0.20701 6.6663,-1.07304 11.4282,-1.48516 12.261,-1.18467 25.321,-5.77297 36.2516,-9.43922 z"
       inkscape:connector-curvature="0"
       inkscape:label="Kleidung_03" />
    <path
       id="path2980"
       style="display:inline;fill:#ffffff;stroke-width:0.99999994"
       d="m -1194.1127,657.8594 c 2.1368,2.15596 3.4712,2.667 4.0318,5.39914 -0.069,0.95541 0.1067,1.47421 0.7648,2.25618 0.4698,0.55851 1.059,1.01545 1.3089,1.01545 0.3261,0 0.462,0.43092 0.462,1.5291 0.01,1.93024 0.4735,3.96637 0.9741,4.27572 -2.6801,1.39877 -8.3678,0.50977 -11.7491,-0.01 l -1.9901,-1.97249 c -2.3415,-2.32082 -2.7729,-3.59566 -1.434,-4.23746 0.61,-0.29229 0.9093,-0.77158 1.1276,-1.80713 0.5509,-2.51609 4.6793,-4.19794 6.504,-6.44819 z m 8.0946,-9.6728 c 0.7598,-0.003 -0.5636,8.26852 -0.6346,9.96733 h -6e-4 c -0.213,1.24273 -0.4662,2.25007 -0.5632,2.23915 -1.9167,-0.28512 -3.4207,-2.86761 -4.9098,-4.0907 1.767,-2.10444 3.3568,-3.88488 4.6157,-6.35 0.6002,-1.38673 0.917,-1.76078 1.4925,-1.76578 z m -16.967,-0.81028 0.7127,0.96477 c 1.7154,2.2624 4.3607,4.73602 6.0926,7.61556 -1.7115,1.82787 -4.1477,3.50165 -6.2813,4.77903 -0.1517,0 -0.5478,-8.34149 -0.5358,-11.26699 z m 8.5685,-6.04925 1.1881,0.80719 c 1.5184,1.03177 4.3878,3.74243 4.3878,4.14496 -0.1954,2.16334 -3.5779,6.40279 -5.4374,7.69618 -2.9349,-2.15437 -3.784,-5.1571 -6.0947,-8.70697 0.6316,-1.86854 4.1299,-2.81519 5.9562,-3.94136 z m 8.3122,-8.47442 1.0707,0.32091 c 0.97,0.29083 1.0546,0.41463 0.9028,1.30638 -0.092,0.54163 -0.2564,1.99861 -0.3659,3.23805 -0.3233,3.6771 -0.412,3.94394 -1.3131,3.94394 -0.8168,0.0161 -1.418,0.64071 -2.0903,1.01803 -0.075,-0.0153 -1.0357,-0.67394 -2.1358,-1.46399 l -2.0004,-1.43661 2.9663,-3.46387 z m -18.7591,-2.58744 h 5e-4 c 0.1026,-0.0154 0.4008,0.25299 1.0439,0.85318 2.7384,2.59254 4.8133,5.96452 7.2228,8.48579 -1.6507,1.00092 -2.9468,1.74956 -4.6695,2.40864 -0.1599,-0.0283 -0.7454,-0.10933 -1.3007,-0.17934 -0.9972,-0.12552 -1.014,-0.15743 -1.3544,-2.60397 -0.1896,-1.36248 -0.4227,-3.63644 -0.5157,-5.05291 -0.094,-1.41647 -0.2648,-2.93748 -0.3804,-3.38016 -0.087,-0.33319 -0.1257,-0.51795 -0.046,-0.53123 z m 10.4293,-4.82296 c 0.4556,0.0193 0.8715,0.2657 1.8165,0.82786 0.9264,0.55112 2.4448,1.37112 3.3744,1.8221 2.4824,1.20441 2.3759,1.87667 -0.9265,5.841 -1.4392,1.72765 -2.9239,3.391 -3.2996,3.69692 -0.3758,0.30593 -0.7554,0.55329 -0.8444,0.54829 -3.6068,-3.31869 -6.9413,-6.80741 -8.4051,-9.21856 0.1706,-0.31784 0.3838,-0.81764 0.4728,-1.11053 0.1099,-0.3605 0.9234,-0.70213 2.5182,-1.05781 1.2956,-0.289 3.0469,-0.75036 3.8912,-1.02476 0.6698,-0.21769 1.0481,-0.33961 1.4025,-0.32451 z m 11.5213,-7.55253 c 0.067,-0.003 0.105,0.022 0.1101,0.0739 1.1605,0.77364 -0.037,5.80178 -0.2827,8.16541 l -1.6702,0.0496 c -1.6363,0.049 -4.0642,-0.77105 -5.7226,-1.9327 -0.9043,-0.64323 6.5612,-6.33143 7.5654,-6.35622 z m -24.3902,-2.34145 c 1.8178,0.0637 6.8495,6.07316 8.9178,7.14427 1.7609,1.22876 1.8324,1.32713 1.0976,1.51154 -4.2829,1.07493 -6.0762,1.32411 -6.6105,0.91829 -0.306,-0.23233 -0.9447,-0.42701 -1.4195,-0.43201 -0.9326,-0.0111 -1.0488,-0.22802 -1.3937,-2.58641 -0.1869,-1.27976 -0.8781,-4.35761 -1.31,-5.8353 -0.1,-0.34171 0.092,-0.58701 0.5524,-0.70745 0.052,-0.0106 0.1072,-0.0145 0.1659,-0.0124 z m 10.9068,-6.11021 c 0.3399,0.0172 0.7837,0.16589 1.3234,0.44339 3.7767,1.91336 6.9414,2.85252 10.6676,4.68341 -2.2201,2.91806 -6.0535,5.13586 -9.1033,8.1039 l -2.3916,-1.48982 c -3.9179,-2.48533 -7.5018,-5.22573 -8.9741,-8.48423 0.091,-0.88593 0.2753,-1.01312 2.4747,-1.70844 1.7457,-0.54743 3.7203,-0.89096 5.5558,-1.46656 0.087,-0.0459 0.1904,-0.0729 0.3085,-0.0806 v 0 c 0.044,-0.003 0.09,-0.003 0.139,0 z m 14.3712,-7.87085 1.1048,0.69093 c 1.8019,1.11482 0.2043,6.90377 -0.3116,9.70224 -0.2012,0.70673 -0.5829,1.32088 -0.8485,1.36478 -0.2655,0.0439 -1.2798,-0.25713 -2.2536,-0.66871 -3.4,-1.4346 -6.2871,-2.46594 -9.325,-4.04522 0.01,-0.10384 0.4761,-0.41862 1.0459,-0.69969 2.0613,-1.01716 6.467,-3.57989 8.5049,-4.94699 z m -29.146,-2.21899 v 0 c 0.4519,0.018 0.8706,0.28168 1.6154,0.94155 1.6389,1.45185 6.9842,5.37046 8.7896,6.44353 0.9107,0.54121 1.2636,0.90403 0.9659,0.99322 -0.2579,0.0773 -1.5793,0.4463 -2.9363,0.8201 -2.8797,0.79322 -2.9751,0.79254 -4.454,-0.0151 -0.7664,-0.41844 -1.4619,-0.55544 -2.175,-0.42841 -0.8935,0.15915 -1.0916,0.0743 -1.3385,-0.57515 -0.3794,-0.99801 -1.9956,-7.70917 -1.8836,-7.82124 0.048,-0.0476 0.4706,-0.18286 0.94,-0.30076 0.1713,-0.043 0.3259,-0.0643 0.4765,-0.0584 z m 14.2327,-5.9645 c 4.8347,1.57202 9.7462,3.44244 14.118,5.41415 0.1549,0.4646 -6.371,4.62907 -10.9451,6.9846 -2.1451,1.10469 -3.6585,1.04116 -5.8596,-0.24599 -2.6448,-1.54638 -9.6338,-6.70298 -9.5818,-7.06934 0.023,-0.1636 0.8895,-0.61611 1.9244,-1.0051 2.5541,-0.96891 5.0627,-2.39729 7.7417,-3.21842 z m -15.0229,-6.67141 c 2.7341,-0.0562 9.1134,3.8431 11.8174,5.09063 -2.704,0.88421 -5.1863,2.1131 -7.8403,3.23496 -1.0563,0.36758 -1.957,0.66818 -2.004,0.66818 -1.4439,-1.97946 -1.4762,-2.10826 -4.1729,-2.73008 -0.4384,-0.14526 -1.0775,-2.90102 -1.0775,-4.64571 0,-1.11779 0.068,-1.21402 0.7633,-1.08106 0.4199,0.0803 1.2258,-0.093 1.7906,-0.385 0.1967,-0.0978 0.4405,-0.14613 0.7234,-0.15192 z m 32.6508,-1.15187 c 0.4625,0.003 0.9488,0.18241 1.5683,0.56793 1.1641,0.72446 1.1642,0.72528 0.9907,2.60035 -0.095,1.03164 -0.4067,2.84247 -0.692,4.02405 -0.4555,1.88643 -0.6134,2.15413 -1.296,2.19522 -1.0639,0.0937 -2.0123,1.0427 -2.8717,1.64433 -5.1295,-1.82538 -9.9246,-3.65005 -11.9781,-5.23636 0.3984,-0.11478 1.9557,-0.77029 3.4608,-1.45624 3.9459,-1.79843 9.3563,-4.03522 10.3591,-4.28295 0.1529,-0.0378 0.3047,-0.057 0.4589,-0.0563 z m -35.7482,-1.12188 c 0.277,0 0.4122,0.14486 0.3028,0.32194 -0.1095,0.17706 -0.3351,0.32192 -0.5018,0.32192 -0.1667,0 -0.3028,-0.14486 -0.3028,-0.32192 0,-0.17708 0.2258,-0.32194 0.5018,-0.32194 z m 31.1438,-0.5452 c 0.6823,-0.003 1.0816,0.009 1.1064,0.0336 -4.1519,2.34188 -8.5477,3.16455 -12.9667,5.67304 -1.0693,0.52548 -2.0113,0.94517 -2.0923,0.93276 -3.5772,-0.79994 -6.6216,-3.34743 -9.9669,-4.7253 l -1.7704,-0.86146 1.2872,-0.26612 c 0.9905,-0.20468 19.6265,-0.77713 24.4027,-0.78652 z m 28.2205,-33.20159 c 0.4361,0.16312 0.8509,0.35417 0.9209,0.42426 0.2194,0.2195 -3.2546,4.00487 -4.7444,5.16972 -0.8091,0.63257 -1.79,1.11104 -2.2779,1.11104 -0.4949,0 -1.1722,0.3357 -1.6041,0.79529 -0.9614,1.02346 -2.0698,1.36832 -5.6973,1.77302 -4.1751,0.46575 -3.8869,0.27213 -4.4395,2.99154 -0.2882,1.41827 -1.3525,2.17591 -2.9699,2.1146 -2.0877,-0.079 -2.4694,0.51202 -2.1957,3.3936 0.1738,1.83089 0.09,2.5368 -0.4847,4.07366 -0.731,1.9381 -4.9523,5.75265 -7.1851,2.87528 -0.6656,-0.89125 -1.9119,-2.12492 -2.7699,-2.74143 -1.5241,-1.095 -1.5543,-1.14853 -1.2924,-2.32286 0.2045,-0.91625 0.9045,-1.81475 2.9435,-3.77756 6.1298,-5.8751 22.5345,-12.6764 31.7965,-15.88016 z m -120.651,-36.5988 c 1.5058,0.0272 1.596,3.81668 2.6065,7.2285 5.5381,11.62113 6.4863,23.30862 7.0296,35.99108 3.3399,14.81661 1.0874,30.47156 6.013,44.94662 2.7035,9.96685 14.2188,17.9869 5.5615,28.5223 -5.1397,10.82182 -4.4096,25.68191 -8.8967,37.05767 -0.4642,7.20608 -4.5172,11.23265 -5.6368,15.83055 h -37.8732 c -0.2618,-4.35637 -1.0352,-9.01105 -0.8867,-12.13983 -2.2628,-5.22713 0.6757,-11.7879 -3.6649,-16.11529 -1.3919,-9.16874 1.0283,-18.875 1.2014,-28.20345 1.0857,-10.85214 4.4455,-21.33237 3.1244,-32.36597 -0.9047,-17.62538 4.1529,-34.59157 9.6589,-51.09403 6.412,-9.19054 8.5858,-17.87681 17.48,-25.4212 2.1482,-3.08384 3.4382,-4.25223 4.283,-4.23695 z m 182.7898,-9.70432 c 2.6401,-0.0864 6.039,2.3297 8.9571,5.51078 10.6475,6.29162 13.8337,18.07871 15.4709,29.49278 -2.5105,11.74393 4.6849,24.3104 -0.8418,35.711 -5.7684,10.83347 1.6927,22.31946 -0.7245,33.81187 0.3776,10.97526 -0.7418,21.86533 -3.0577,32.34378 1.1502,6.26292 -4.338,10.9747 -4.301,17.2103 -0.221,8.76271 -2.6626,17.07531 -5.4281,25.20053 h -35.5927 c -1.6371,-5.16155 -3.9014,-10.63347 -4.5268,-14.70401 -6.4849,-8.23762 -6.139,-18.05001 -2.8557,-28.28406 2.7485,-16.11847 12.53,-30.07363 14.1015,-46.42403 4.3408,-15.94694 3.6357,-32.63897 5.5738,-48.95051 1.2692,-11.53758 5.5023,-22.54673 8.8594,-33.65066 0.2976,-5.16701 2.0362,-7.19153 4.3656,-7.26777 z m -150.5763,-7.73596 c 3.2879,0.048 -2.3528,2.33335 -2.3446,5.99343 -2.3642,5.84421 -3.3403,7.83593 -2.1275,12.74651 1.9785,7.72533 2.7844,17.55584 10.8774,21.53822 8.0618,3.53224 9.4982,13.38503 16.3525,18.27641 6.4169,4.18822 13.3032,7.78565 19.3673,12.56615 4.7555,1.89695 2.8115,3.49549 0.1095,6.39961 l -0.5849,1.10122 c -2.9155,-1.45606 -7.9387,-4.27951 -11.4743,-0.28991 -2.6645,-3.25596 -6.4842,-0.28813 -9.5705,-2.31095 -2.039,-2.04131 -8.2204,-4.95162 -7.2962,-7.57785 2.6361,-7.7887 -12.6475,-2.8425 -13.4136,-10.84945 3.3174,-2.44274 1.2952,-9.59437 -2.7972,-5.42396 -2.3487,-2.67628 -0.9392,-11.68471 -8.1474,-11.74451 -7.8432,-5.7536 7.4101,-4.59549 3.8236,-10.64379 -7.2193,-0.1524 -7.7906,-2.01687 -7.9778,-8.05171 2.0447,-7.03868 -9.6255,-8.4013 -3.6628,-14.3216 4.3658,-2.7777 11.1949,-2.98471 14.9846,-7.07296 1.8888,-0.23783 3.1232,-0.34592 3.8819,-0.33486 z m 115.3247,-7.38663 c 4.4814,-0.0231 9.7614,5.52815 12.4055,0.2496 1.5268,3.655 4.8705,6.92016 7.6931,9.58649 -4.6763,5.24923 -10.5659,9.72026 -13.2137,16.50236 -4.9667,8.43907 -8.9848,17.30232 -12.9739,26.23404 -4.3701,9.51772 -6.4308,21.21165 -15.5732,27.57249 -6.2606,4.40648 -14.0655,3.79058 -21.2897,3.58635 -6.3789,-0.68183 -1.428,8.4944 -7.2631,9.1059 -8.6388,0.17804 -17.2933,0.0592 -25.9152,0.66509 -2.2326,-0.0437 -5.7418,1.84949 -7.1551,-0.67647 -3.1218,0.62836 -5.4374,-4.83195 -1.4454,-4.14496 3.6514,-4.88042 7.7489,-2.73023 11.7114,0.54983 2.7742,-3.18103 7.0633,-7.68157 11.511,-2.99413 2.6607,6.66441 11.7328,3.9537 13.8322,-1.59628 -0.8114,-5.75646 5.2863,-6.08412 5.9919,-11.17452 2.6512,-1.49561 8.3327,-1.9359 11.5434,-4.56869 3.8335,-2.99355 8.9774,-5.82232 8.0445,-11.45927 3.1108,-3.35174 4.7105,-7.90797 4.3646,-12.96251 0.5297,-5.8972 -1.557,-14.1434 5.7258,-16.64343 0.8836,-3.92522 -3.3545,-11.91196 3.993,-13.94591 1.2975,-4.9525 6.4313,-8.21882 6.6518,-13.68134 0.4427,-0.13986 0.8975,-0.20225 1.3611,-0.20464 z"
       inkscape:connector-curvature="0"
       inkscape:label="Kleidung_01" />
    <path
       style="fill:#000000;stroke-width:0.99999994"
       d="m -1115.0592,486.54373 c -4.4221,1.56962 -8.0642,3.47936 -14.2079,0.43202 -6.4901,4.32344 -7.8503,14.90342 -14.4069,20.02617 2.2106,7.66925 -1.4998,9.75076 -5.3867,15.57992 1.0834,9.32257 0.4123,21.83489 -7.8337,26.52034 -11.2254,4.45175 -22.6913,8.9317 -32.7499,15.75459 -5.1273,10.80424 -11.3484,0.57087 -17.4403,-3.81526 -10.1912,-4.87487 -18.5349,-12.12488 -23.5319,-22.34901 -10.1822,-5.03479 -20.1844,-24.28335 -12.3202,-38.55683 12.0725,-4.11484 -9.1352,-8.10483 -11.0484,-1.77199 -5.8806,1.06387 -10.7555,2.82944 -13.4369,7.36338 -2.6122,-0.0448 -5.0535,3.08268 -8.7002,4.95835 -12.0255,5.26361 -18.3166,16.0525 -29.4468,47.08601 -3.9546,12.2991 -5.9766,25.14269 -5.5175,38.1119 1.2557,11.08165 -2.5304,21.55852 -3.3373,32.49877 -1.0744,12.04577 -2.8889,24.49031 1.5033,35.6521 1.4567,6.57987 1.2913,13.40644 1.4211,20.13522 h 3.9905 c -0.2288,-4.49588 -1.0734,-9.39147 -0.9194,-12.63955 -2.2628,-5.22713 0.6757,-11.7879 -3.6649,-16.11529 -1.3919,-9.16874 1.0283,-18.875 1.2015,-28.20345 1.0856,-10.85214 4.4455,-21.3324 3.1244,-32.366 -0.9047,-17.62537 4.1528,-34.59154 9.6588,-51.09403 6.412,-9.19054 8.5859,-17.87678 17.4801,-25.42118 5.9776,-8.58112 5.3121,-2.33421 6.8895,2.99155 5.5381,11.62112 6.4862,23.30863 7.0295,35.99109 3.3399,14.81661 1.0875,30.47153 6.0131,44.94659 2.7035,9.96686 14.2187,17.98691 5.5614,28.5223 -5.1397,10.82183 -4.4095,25.68194 -8.8966,37.0577 -0.481,7.46622 -4.8158,11.51853 -5.7474,16.33027 h 4.2555 c 4.6252,-6.44673 2.438,-13.48193 7.5567,-22.1692 2.1661,-10.3668 3.6287,-25.11068 7.2992,-33.23675 1.1243,11.21762 4.3467,21.84329 6.4513,32.8621 4.8317,7.26257 -3.6049,14.58473 -6.0564,22.54385 8.3239,0.21423 14.7356,0 23.2089,0 -1.9911,-0.13044 -3.9597,-0.3628 -5.8638,-0.72142 -2.3542,-0.30929 -5.667,0.0633 -7.2519,-0.5965 -3.8776,-1.61425 -3.7872,-1.4955 -3.7342,-4.93871 0.048,-3.06935 2.0301,-5.89148 3.538,-7.83296 0.61,-0.78523 0.6284,-0.78793 1.2925,-0.18706 0.4405,0.39867 1.3116,0.65703 2.5192,0.74723 1.9181,0.1433 3.401,0.5501 6.675,1.83039 1.0622,0.41542 2.5834,0.85897 3.3802,0.98597 2.1635,0.3448 2.5755,0.6564 2.5755,1.94924 0,1.37467 0.7481,2.58463 1.9978,3.2308 2.3981,1.24031 15.3898,1.93474 23.6761,1.26555 l 3.2996,-0.26664 v 0.77155 c 0,0.75821 -0.055,0.7716 -3.1389,0.8051 -2.1738,0.0236 -4.1742,0.28712 -6.5169,0.85886 -3.9902,0.96869 -8.9813,1.79319 -14.2064,2.0986 h 17.63 c 0.1307,-0.0332 0.2627,-0.0654 0.3932,-0.0987 3.4147,-1.46537 4.6845,-1.10141 4.8674,0.0987 5.121,0.34673 58.7457,-0.19815 73.9237,0 h 3.0954 c -1.6454,-5.30498 -4.0425,-11.00225 -4.6881,-15.20373 -6.4849,-8.23762 -6.1389,-18.05001 -2.8556,-28.28406 2.7485,-16.11847 12.53,-30.07365 14.1014,-46.42406 4.3409,-15.94694 3.6358,-32.63894 5.5739,-48.95048 1.2692,-11.53758 5.5023,-22.54674 8.8594,-33.65067 0.6348,-11.02296 7.8298,-7.74491 13.3227,-1.757 10.6475,6.29162 13.8337,18.07873 15.4709,29.49278 -2.5105,11.74392 4.6849,24.31042 -0.8418,35.71099 -5.7684,10.83347 1.6926,22.31949 -0.7245,33.8119 0.3775,10.97526 -0.7419,21.8653 -3.0577,32.34375 1.1501,6.26293 -4.3381,10.97473 -4.3011,17.21033 -0.2255,8.94196 -2.7606,17.41657 -5.5955,25.70025 h 4.0509 c 0.1372,-0.94216 0.1031,-1.83857 -0.1736,-2.61742 2.6728,-8.22103 4.1187,-17.81381 5.9112,-27.01232 4.9383,-6.37071 1.3001,-14.22363 5.0142,-20.73619 1.2433,-13.95174 1.3542,-28.13698 0.816,-42.12095 -4.9945,-11.16483 6.6638,-21.17397 3.0344,-32.68379 -2.4904,-11.02969 0.3011,-22.19727 -3.886,-32.91375 -1.6091,-11.49915 -12.7235,-17.55277 -20.8907,-24.26053 -7.3534,-7.423 -23.1285,-0.50136 -25.2874,-15.28073 z m -13.748,2.72232 c 4.4815,-0.0231 9.7614,5.52814 12.4055,0.24959 1.5268,3.65501 4.8704,6.92017 7.693,9.5865 -4.6763,5.24923 -10.5658,9.72025 -13.2136,16.50235 -4.9667,8.43907 -8.9848,17.30233 -12.9739,26.23406 -4.3701,9.51772 -6.4308,21.21165 -15.5732,27.57247 -6.2606,4.40647 -14.0655,3.79058 -21.2897,3.58635 -6.3789,-0.68184 -1.428,8.49439 -7.2631,9.1059 -8.6388,0.17803 -17.2933,0.0592 -25.9152,0.66508 -2.2326,-0.0437 -5.7418,1.84952 -7.1551,-0.67644 -3.1218,0.62836 -5.4374,-4.83195 -1.4454,-4.14496 3.6514,-4.88042 7.7489,-2.73023 11.7114,0.54983 2.7742,-3.18103 7.0632,-7.68157 11.5109,-2.99413 2.6607,6.66441 11.7328,3.9537 13.8322,-1.59628 -0.8114,-5.75646 5.2863,-6.08412 5.9919,-11.17452 2.6512,-1.49561 8.3328,-1.9359 11.5435,-4.56872 3.8335,-2.99355 8.9774,-5.82229 8.0445,-11.45924 3.1108,-3.35174 4.7105,-7.90797 4.3646,-12.96252 0.5297,-5.89719 -1.5571,-14.1434 5.7257,-16.64343 0.8836,-3.92523 -3.3544,-11.91197 3.9931,-13.94592 1.2975,-4.9525 6.4312,-8.21881 6.6518,-13.68133 0.4427,-0.13987 0.8975,-0.20225 1.3611,-0.20464 z m -115.3247,7.38663 c 3.2878,0.048 -2.3527,2.33335 -2.3446,5.99343 -2.3642,5.84421 -3.3403,7.83593 -2.1275,12.74651 1.9785,7.72534 2.7844,17.55585 10.8774,21.53823 8.0618,3.53224 9.4981,13.385 16.3524,18.27638 6.4169,4.18822 13.3032,7.78566 19.3673,12.56618 4.7555,1.89695 2.8116,3.49546 0.1096,6.39961 l -0.585,1.10122 c -2.9155,-1.45606 -7.9386,-4.27953 -11.4742,-0.28991 -2.6645,-3.25596 -6.4842,-0.28815 -9.5705,-2.31097 -2.039,-2.04132 -8.2204,-4.9516 -7.2962,-7.57783 2.6361,-7.7887 -12.6475,-2.84252 -13.4136,-10.84948 3.3174,-2.44274 1.2952,-9.59437 -2.7973,-5.42395 -2.3487,-2.67629 -0.9391,-11.68469 -8.1473,-11.74449 -7.8432,-5.75361 7.41,-4.59551 3.8236,-10.6438 -7.2194,-0.15239 -7.7907,-2.01687 -7.9779,-8.05171 2.0447,-7.03868 -9.6255,-8.40131 -3.6628,-14.32161 4.3658,-2.7777 11.1949,-2.9847 14.9846,-7.07295 1.8889,-0.23784 3.1232,-0.34593 3.882,-0.33486 z m 140.2141,3.31297 c 0.1781,0.003 0.3469,0.0525 0.539,0.12558 0.4707,0.17895 1.5069,0.32504 2.3022,0.32504 0.7954,0 2.0847,0.16097 2.8655,0.3576 l 1.42,0.3576 -0.4966,1.17151 c -8.7817,21.86445 -12.7656,31.55645 -15.1164,75.85223 -0.4358,8.64679 -4.83,22.09683 -7.0822,31.39395 -1.3364,3.22037 -4.716,7.64828 -8.7876,11.51297 -1.4433,1.37004 -2.623,2.72664 -2.6221,3.01482 0.01,1.4592 1.8838,1.50609 4.4282,0.11057 0.7526,-0.41272 1.3684,-0.59177 1.3684,-0.39841 -2.1089,11.2168 -7.6205,20.67224 -7.0275,33.54419 0.1004,4.14899 0.072,4.38611 -0.5379,4.55528 -11.2803,3.3048 -24.1084,8.54324 -38.1982,9.63456 -7.6547,1.03479 -14.3341,1.41693 -13.9516,0.79788 0.1463,-0.23672 0.2963,-1.89021 0.3333,-3.67419 0.037,-1.78395 0.2231,-4.98184 0.4144,-7.10655 0.1912,-2.12471 0.4969,-7.91958 0.6791,-12.87724 0.3166,-8.61338 0.5915,-12.57956 1.3156,-18.99317 0.7486,-6.6602 1.5498,-13.08984 2.8795,-19.9595 0.5855,-4.0811 1.6654,-9.14019 2.7491,-13.68185 1.5594,-6.65927 2.7327,-14.69572 2.7327,-18.74096 l 5e-4,-1.51723 6.8409,0.18965 c 6.278,0.17397 7.0775,0.13224 9.7147,-0.50231 3.2508,-0.78226 6.1098,-1.95625 8.2228,-3.37756 2.407,-1.61909 6.2785,-5.54305 7.2481,-7.34632 0.5036,-0.93662 1.3068,-2.28229 1.7849,-2.9905 0.9124,-1.35144 2.545,-4.90286 3.5352,-7.68999 3.7873,-10.591 9.2502,-22.39099 14.9887,-32.87292 0.5608,-0.88531 1.7795,-3.12495 2.7084,-4.97696 2.2914,-4.56832 2.887,-5.31549 9.3415,-11.71556 3.6969,-3.66583 4.6358,-4.53426 5.4075,-4.52221 z m -162.0681,10.44846 c 0.1393,0.004 0.2632,0.0295 0.3679,0.0791 5.3854,2.45026 2.4632,7.10288 4.6437,12.95735 0.702,1.60047 2.3844,3.55923 3.5941,4.18475 0.4961,0.25654 1.5525,0.46664 2.3476,0.46664 0.7951,0 1.5353,0.14487 1.6449,0.32194 0.1201,0.19466 -0.3243,0.32195 -1.124,0.32195 -4.1944,0.0598 -6.8298,5.1672 -4.1372,8.53953 1.1374,1.29534 4.9138,3.17328 5.8761,2.92179 0.3383,-0.0885 0.9006,-0.008 1.2491,0.17828 0.5858,0.31347 0.6169,0.56266 0.4149,3.31401 -0.1991,2.71163 -0.1449,3.17005 0.6088,5.17229 0.4548,1.20832 0.9866,2.38987 1.1818,2.62516 0.7364,0.88721 2.5945,0.21098 4.0055,-1.4578 0.3841,-0.45402 0.8317,-0.6944 1.0464,-0.56171 0.5816,0.35944 0.4547,0.7597 -0.5839,1.8464 -1.1358,1.18848 -1.496,2.71729 -0.9969,4.22971 0.463,1.40311 2.9715,4.36798 4.4866,5.30304 1.5168,0.93615 4.5698,1.93135 6.7882,2.21279 1.3662,0.17335 1.6019,0.27863 1.0671,0.47646 -2.1301,0.78796 -1.3585,3.6336 1.3643,5.03224 0.5311,0.27284 2.359,1.86844 4.0617,3.54553 3.7028,3.64717 5.6566,4.89963 7.6631,4.90564 0.8811,0.003 1.6483,-0.19826 2.0139,-0.52917 0.6578,-0.59015 1.255,-0.32634 0.6459,0.28268 -0.4406,0.44172 -0.4782,5.48592 -0.082,11.19775 0.1814,2.61739 0.5433,4.64505 1.235,6.92102 1.6143,5.37538 2.4451,10.92965 4.2649,16.2574 1.6573,5.12321 3.3488,12.24225 4.6715,18.67176 1.0107,4.55252 0.8497,9.24022 1.5612,13.84255 0.2559,2.21324 0.5438,7.87484 0.6428,12.58114 0.098,4.70628 0.3252,8.94379 0.5049,9.41647 0.3947,1.0378 0.3523,1.04299 -1.3601,0.1628 -4.3836,-2.20565 -9.44,-0.13406 -14.3082,1.80504 -1.1678,0.38084 -1.9046,0.86408 -2.3988,1.572 -0.3924,0.56205 -0.8656,1.12823 -1.0511,1.25833 v 0 c -0.3799,0.26627 -0.5184,0.26252 -2.1332,-0.0532 -1.136,-0.22209 -4.3488,-1.44184 -6.9313,-2.63186 -0.7277,-0.33531 -1.7151,-0.60978 -2.1942,-0.60978 -1.4189,0 -1.9708,-0.49652 -3.4815,-3.13161 -1.6011,-2.79286 -1.9598,-3.97209 -4.1392,-13.60588 -0.3403,-1.50342 -0.7067,-3.01152 -0.815,-3.35174 -0.1712,-0.53917 0.026,-0.49332 1.5322,0.35657 1.9281,1.08781 3.4589,1.51202 4.0577,1.12501 0.6745,-0.43577 -0.3992,-1.56596 -3.2453,-3.41635 -3.8951,-2.53251 -4.0218,-2.71994 -4.3899,-6.48951 -0.3755,-3.84654 -0.969,-6.71106 -2.7828,-13.43174 -0.4202,-1.55718 -0.7643,-2.95047 -0.7643,-3.09644 0,-0.146 1.3901,0.65042 3.0887,1.77043 5.1462,3.39283 7.1019,4.03696 7.984,2.62827 0.5379,-0.85919 0,-1.46453 -3.2468,-3.62202 -5.2002,-3.46069 -8.9968,-8.11125 -14.0054,-17.15606 -2.2244,-4.01664 -2.6324,-5.00176 -3.0112,-7.26622 -0.2411,-1.44079 -0.5859,-3.41609 -0.7668,-4.38992 -0.3947,-2.12595 -1.3266,-14.95258 -1.3266,-18.34978 0,-2.59818 -0.2296,-4.57827 -1.2681,-11.1063 -1.1305,-7.10571 -1.2619,-8.21042 -1.6092,-13.52114 -0.9199,-14.05916 -0.8743,-13.72439 -2.7042,-19.9595 -1.9304,-6.45846 -5.4618,-11.50586 -5.1904,-17.59841 1.2834,-1.23757 4.0882,-3.18638 5.4343,-3.14761 z m 178.5612,11.86646 c -0.409,-0.0154 -0.8221,0.0942 -1.2506,0.3235 -0.7368,0.39432 -2.3001,3.38101 -2.3001,4.39456 0,1.59067 1.711,1.75549 2.0438,0.19688 0.2217,-1.03832 1.3733,-2.95692 1.7746,-2.95692 0.1576,0 1.0026,1.05002 1.8784,2.33371 4.8369,7.08912 6.0322,11.09885 6.5231,21.88549 0.1672,3.67099 0.4055,7.21471 0.5292,7.87445 0.2039,1.08707 0.2501,1.1312 0.4935,0.47284 1.041,-2.81369 1.1042,-11.24519 0.1266,-16.84909 -0.8987,-5.15091 -3.5755,-11.10558 -7.0657,-15.7174 -0.9741,-1.28709 -1.853,-1.92421 -2.7528,-1.95802 z m -194.1468,7.12566 c -0.6949,0.0109 -1.3992,0.17243 -1.8392,0.48059 -1.1615,0.81357 -2.2063,2.92449 -5.0358,10.17405 -3.05,7.81386 -3.3822,8.87293 -4.5274,14.43842 -0.9835,4.75466 -1.3234,10.06922 -0.9715,14.96962 l 0.2537,3.54137 0.432,-2.25359 c 0.2377,-1.23942 0.9439,-5.45695 1.5689,-9.37205 1.3247,-8.29781 2.7377,-14.16269 5.0323,-20.88917 2.1493,-6.30065 3.2307,-8.6661 4.2741,-9.34981 0.4667,-0.30576 0.9348,-0.46993 1.0398,-0.36483 0.3231,0.32334 -0.8213,2.79542 -2.1596,4.6643 -1.3682,1.91059 -1.5864,2.85732 -0.7343,3.18432 0.3732,0.14324 0.8676,-0.17839 1.6231,-1.05627 1.3918,-1.6173 1.8468,-2.47632 2.7198,-5.13561 0.693,-2.1095 0.6958,-2.17742 0.108,-2.60707 -0.4034,-0.29497 -1.089,-0.43512 -1.7839,-0.42427 z m 125.8771,21.28552 c 0.4361,0.16311 0.8508,0.35417 0.9208,0.42426 0.2194,0.21949 -3.2546,4.00486 -4.7444,5.16972 -0.8091,0.63256 -1.79,1.11104 -2.2779,1.11104 -0.4949,0 -1.1721,0.33572 -1.604,0.79531 -0.9614,1.02343 -2.0698,1.36832 -5.6973,1.77302 -4.1751,0.46575 -3.887,0.2721 -4.4396,2.99154 -0.2882,1.41827 -1.3524,2.17591 -2.9698,2.1146 -2.0877,-0.0789 -2.4694,0.51202 -2.1957,3.3936 0.1738,1.83089 0.09,2.53677 -0.4848,4.07363 -0.731,1.9381 -4.9523,5.75265 -7.1851,2.87528 -0.6656,-0.89125 -1.9118,-2.12492 -2.7698,-2.74143 -1.5241,-1.09497 -1.5543,-1.1485 -1.2924,-2.32285 0.2045,-0.91623 0.9045,-1.81473 2.9435,-3.77754 6.1298,-5.8751 22.5345,-12.67642 31.7965,-15.88018 z m -118.3143,2.30735 c -0.2217,-0.0394 -0.4691,0.65291 -0.6149,2.05002 -0.2775,2.65927 -1.4439,5.68084 -4.3238,11.20087 -1.8972,3.63633 -3.5739,7.44812 -3.5739,8.12456 0,1.46489 6.6573,-11.03556 8.1933,-15.3846 0.6199,-1.75466 0.8301,-2.91213 0.7591,-4.15993 -0.069,-1.19182 -0.2442,-1.79613 -0.4398,-1.83092 z m 122.5574,28.22464 c -0.3927,0.0106 -0.822,0.30067 -1.0201,0.82166 -0.1727,0.45418 -0.3173,2.88086 -0.3173,5.39242 -0.01,8.72437 -1.0795,17.42281 -2.5678,20.81374 -0.5215,1.1884 -1.109,3.23405 -1.3058,4.54596 -0.1967,1.31189 -0.6926,3.47176 -1.1018,4.7997 -0.4091,1.32795 -0.9187,3.28364 -1.1327,4.346 -0.2139,1.06238 -0.8795,3.81516 -1.479,6.11693 -0.5995,2.30179 -1.6232,6.7927 -2.2743,9.97976 -1.168,5.74032 -1.1798,5.86756 -1.1798,13.58056 0,5.55064 0.1211,8.06937 0.4124,8.77261 0.2248,0.54252 0.6017,0.98649 0.8377,0.98649 0.7267,0 1.1017,-2.22982 1.1017,-6.5996 0,-2.30177 0.1562,-5.85118 0.3432,-7.88736 0.3292,-3.58381 2.8548,-15.69435 4.1625,-19.95951 0.3526,-1.15088 0.6439,-2.40877 0.6439,-2.79519 0,-0.38642 0.423,-2.34209 0.9374,-4.34599 0.5145,-2.00388 1.088,-4.90371 1.2743,-6.44404 0.2153,-1.78056 0.6273,-3.37071 1.1318,-4.36615 0.4364,-0.86111 0.9532,-2.4474 1.1487,-3.52536 0.9011,-4.96911 1.7056,-22.17354 1.1095,-23.72723 -0.1353,-0.35268 -0.4191,-0.51368 -0.7245,-0.5054 z m -83.1329,0.32763 c -0.3281,0.0212 -0.6258,0.15738 -0.6423,0.39275 -0.015,0.22132 0,2.70256 0.026,5.51386 0.03,2.81133 -0.1193,6.86758 -0.3312,9.01393 -0.3541,3.58759 -0.331,4.17994 0.2888,7.34269 0.6666,3.40228 2.2182,7.6403 4.8101,13.13873 1.1254,2.38747 3.4039,9.5481 4.0974,12.87728 0.129,0.6197 0.9274,3.0108 1.7741,5.31336 0.8464,2.30256 1.7027,5.12754 1.9027,6.27763 0.2,1.1501 0.9377,3.64258 1.6392,5.53922 1.3976,3.77912 2.2389,6.74314 2.2391,7.88685 2e-4,1.48746 0.6041,0.68178 0.8273,-1.10381 0.1575,-1.26116 0.054,-2.80763 -0.3286,-4.90977 -0.3073,-1.68767 -0.8318,-4.66177 -1.1658,-6.60942 -0.3676,-2.14469 -1.2314,-5.25526 -2.1911,-7.88736 -0.8715,-2.3903 -2.3336,-6.73635 -3.2489,-9.65782 -1.63,-5.20274 -2.111,-6.41811 -5.4441,-13.75006 -0.9434,-2.07547 -1.9695,-5.01726 -2.4144,-6.92155 -0.718,-3.07448 -0.7738,-3.97626 -0.7978,-12.58115 -0.013,-5.0981 -0.1095,-9.40779 -0.2145,-9.57717 -0.1393,-0.22532 -0.4982,-0.3193 -0.8263,-0.29819 z m 50.6693,2.34199 c 0.6823,-0.003 1.0816,0.009 1.1064,0.0336 -4.1519,2.34188 -8.5477,3.16455 -12.9667,5.67304 -1.0693,0.52551 -2.0114,0.94517 -2.0924,0.93276 -3.5772,-0.79991 -6.6215,-3.34743 -9.9668,-4.7253 l -1.7704,-0.86143 1.2872,-0.26614 c 0.9904,-0.20466 19.6264,-0.77711 24.4027,-0.7865 z m -31.1439,0.54517 c 0.277,0 0.4122,0.14489 0.3029,0.32195 -0.1096,0.17705 -0.3351,0.32194 -0.5018,0.32194 -0.1667,0 -0.3029,-0.14489 -0.3029,-0.32194 0,-0.17706 0.2258,-0.32195 0.5018,-0.32195 z m 35.7482,1.12189 c 0.4625,0.003 0.9489,0.1824 1.5684,0.56793 1.1641,0.72445 1.1641,0.7253 0.9906,2.60037 -0.095,1.03164 -0.4066,2.84245 -0.6919,4.02402 -0.4555,1.88643 -0.6134,2.15414 -1.296,2.19523 -1.0639,0.0937 -2.0123,1.04272 -2.8717,1.64435 -5.1295,-1.82538 -9.9246,-3.65008 -11.9781,-5.23639 0.3983,-0.11478 1.9557,-0.77028 3.4608,-1.45624 3.9459,-1.79843 9.3562,-4.03521 10.359,-4.28294 0.153,-0.0378 0.3048,-0.0571 0.4589,-0.0563 z m -32.6507,1.15189 c 2.7342,-0.0562 9.1133,3.84307 11.8174,5.09063 -2.704,0.88421 -5.1864,2.1131 -7.8404,3.23496 -1.0563,0.36758 -1.957,0.66815 -2.004,0.66815 -1.4439,-1.97945 -1.4762,-2.10823 -4.1729,-2.73005 -0.4384,-0.14526 -1.0774,-2.90102 -1.0774,-4.64571 0,-1.11779 0.068,-1.21402 0.7633,-1.08106 0.4199,0.0803 1.2257,-0.093 1.7905,-0.385 0.1968,-0.0978 0.4407,-0.14613 0.7235,-0.15192 z m 15.0229,6.67141 c 4.8347,1.572 9.7462,3.44242 14.118,5.41415 0.1549,0.4646 -6.371,4.62904 -10.9451,6.98457 -2.1451,1.10469 -3.6585,1.04116 -5.8596,-0.24598 -2.6448,-1.54639 -9.6338,-6.70298 -9.5818,-7.06932 0.023,-0.16362 0.8895,-0.61611 1.9244,-1.0051 2.5541,-0.96891 5.0626,-2.39729 7.7416,-3.21842 z m -92.2332,0.0972 c -0.081,0.009 -0.237,0.25582 -0.4532,0.81235 -2.5935,6.67795 -3.1377,8.38779 -4.9568,15.57734 -4.2136,16.65314 -5.5679,25.94465 -4.9743,34.12453 0.2862,3.94327 0.7875,7.97539 1.1306,9.09402 0.297,0.96861 0.4903,0.61529 0.2791,-0.51057 -0.1897,-1.01144 0.4106,-10.54184 1.1591,-18.40248 0.1855,-1.94768 0.8459,-6.2937 1.4676,-9.65782 0.6215,-3.36413 1.691,-9.37607 2.3766,-13.3599 1.1878,-6.90226 2.5816,-12.98234 3.683,-16.06568 0.3497,-0.97872 0.4233,-1.62632 0.2883,-1.61179 z m 78.0004,5.86785 c 0.4519,0.018 0.8706,0.28117 1.6154,0.94104 1.6389,1.45185 6.9843,5.37096 8.7897,6.44403 0.9107,0.54121 1.2635,0.90403 0.9658,0.99322 -0.2579,0.0773 -1.5792,0.4463 -2.9362,0.82011 v 0 c -2.8797,0.79322 -2.9751,0.79242 -4.454,-0.0151 -0.7664,-0.41843 -1.462,-0.55544 -2.1751,-0.42841 -0.8935,0.15915 -1.0915,0.0743 -1.3384,-0.57515 -0.3794,-0.99801 -1.9956,-7.70916 -1.8836,-7.82124 0.047,-0.0476 0.4706,-0.18286 0.94,-0.30075 0.1712,-0.043 0.3258,-0.0643 0.4764,-0.0584 z m 29.1461,2.21848 1.1048,0.6909 c 1.8019,1.11482 0.2043,6.90378 -0.3116,9.70225 -0.2012,0.70673 -0.5829,1.32088 -0.8485,1.36477 -0.2655,0.0439 -1.2798,-0.2571 -2.2536,-0.66868 -3.4,-1.4346 -6.2871,-2.46597 -9.325,-4.04524 0.01,-0.10385 0.4761,-0.41913 1.0459,-0.7002 2.0613,-1.01716 6.467,-3.57938 8.5049,-4.94649 z m -14.5103,7.87135 c 0.3544,-0.023 0.8456,0.12523 1.4625,0.44236 3.7767,1.91336 6.9414,2.85305 10.6675,4.68394 -2.22,2.91804 -6.0535,5.13586 -9.1033,8.1039 l -2.3916,-1.48984 c -3.9179,-2.48534 -7.5017,-5.22574 -8.9741,-8.48424 0.091,-0.88593 0.2754,-1.01311 2.4748,-1.70841 1.7457,-0.54745 3.7202,-0.89146 5.5557,-1.46709 0.087,-0.0458 0.1904,-0.0729 0.3085,-0.0806 z m -10.7678,6.10971 c 1.8179,0.0637 6.8495,6.07314 8.9178,7.14425 1.7609,1.22875 1.8324,1.32712 1.0976,1.51154 -4.2829,1.07492 -6.0761,1.3241 -6.6104,0.91829 -0.306,-0.23234 -0.9448,-0.42752 -1.4196,-0.43252 -0.9326,-0.0111 -1.0488,-0.22751 -1.3937,-2.5859 -0.1869,-1.27977 -0.8781,-4.35761 -1.31,-5.83531 -0.1,-0.34171 0.092,-0.58751 0.5524,-0.70795 0.052,-0.0106 0.1073,-0.0145 0.1659,-0.0124 z m 97.6788,0.59996 c -0.8282,0 -2.5606,7.37167 -4.502,19.15488 -1.0267,6.23107 -1.6371,12.49596 -1.6371,16.80158 0,2.27105 0.084,2.62752 0.7901,3.33314 0.4346,0.43458 1.0157,0.79012 1.2914,0.79012 0.5651,0 0.5156,0.69173 -0.3928,5.47304 -0.286,1.50503 -0.5196,4.33001 -0.5193,6.27766 8e-4,3.15876 0.1118,3.85392 1.0268,6.43837 0.5642,1.59354 1.351,3.64527 1.7487,4.55941 l 0.7235,1.66193 0.096,-1.21235 c 0.053,-0.66701 -0.2177,-2.64649 -0.602,-4.3987 -1.2461,-5.68044 -1.189,-8.12485 0.4108,-17.62527 0.4384,-2.60419 0.1913,-3.21879 -1.3544,-3.37087 l -1.062,-0.10438 0.1917,-5.36866 c 0.2253,-6.29377 0.7267,-10.3564 2.7079,-21.94697 1.6579,-9.69831 1.7372,-10.46293 1.0826,-10.46293 z m -73.2885,1.74149 c 0.067,-0.003 0.1049,0.022 0.11,0.0739 1.1605,0.77364 -0.036,5.80125 -0.2826,8.16488 l -1.6702,0.0501 c -1.6363,0.049 -4.0643,-0.77104 -5.7227,-1.9327 -0.9043,-0.64323 6.5612,-6.3314 7.5655,-6.35619 z m -86.3374,2.29598 c -0.1649,-0.004 -0.3555,0.15089 -0.5767,0.45063 -0.3693,0.50009 -0.461,2.11553 -0.461,8.08787 v 7.4626 l -1.7714,2.16111 c -0.9743,1.18859 -1.848,2.5472 -1.941,3.01893 -0.093,0.47172 -0.3213,1.29198 -0.5075,1.82313 -0.186,0.53121 -0.4604,2.55958 -0.6097,4.50723 -0.4662,6.08637 -2.7095,14.77688 -5.6343,21.82969 -0.647,1.55974 -1.257,3.62397 -1.357,4.58729 -0.099,0.96335 -0.052,1.75112 0.1059,1.7508 0.8804,-0.003 4.9082,-7.56364 6.087,-11.42772 1.8103,-5.93389 3.1048,-12.21949 3.3817,-16.41811 0.3901,-5.91593 0.4932,-6.30973 2.1662,-8.26667 0.8057,-0.94231 1.6602,-2.17945 1.8991,-2.74921 0.4761,-1.13503 0.5287,-5.20401 0.1566,-12.07471 -0.1779,-3.28398 -0.4431,-4.73051 -0.9379,-4.74286 z m 74.8161,5.25653 c 0.4557,0.0193 0.8715,0.26569 1.8164,0.82785 0.9264,0.55113 2.4449,1.37113 3.3745,1.82211 2.4824,1.20441 2.3758,1.87616 -0.9266,5.84049 -1.4392,1.72765 -2.9238,3.39153 -3.2995,3.69745 -0.3758,0.30591 -0.7554,0.55327 -0.8444,0.54826 -3.6068,-3.31869 -6.9414,-6.80741 -8.4052,-9.21855 0.1706,-0.31785 0.3839,-0.81762 0.4729,-1.11051 0.1099,-0.3605 0.9234,-0.70215 2.5182,-1.05783 1.2956,-0.28901 3.0469,-0.75036 3.8912,-1.02474 0.6698,-0.21769 1.0481,-0.33961 1.4025,-0.32453 z m 117.6616,1.67484 c -0.013,0.003 -0.026,0.0103 -0.039,0.0243 -0.535,0.56377 -1.6175,4.78803 -2.5652,10.01127 -1.634,9.0055 -3.0066,12.65854 -6.2741,16.69873 -2.4266,3.00061 -3.5182,5.2238 -3.1021,6.31796 0.173,0.45506 0.4106,1.67979 0.5286,2.72127 l 0.2145,1.89343 -3.3119,5.46063 c -4.927,8.12271 -7.038,12.29371 -6.4963,12.83542 0.4311,0.43114 0.9651,0.0612 2.4257,-1.6795 1.654,-1.9712 4.5171,-6.41133 7.8791,-12.21735 l 2.0986,-3.62354 -0.2222,-3.31555 -0.2217,-3.31557 2.2577,-2.52852 c 4.4965,-5.0355 6.8568,-11.52266 7.3236,-20.13109 0.2098,-3.86622 -0.091,-9.22686 -0.495,-9.15188 z m -128.0909,3.14811 c 0.1021,-0.0161 0.4004,0.2522 1.0443,0.85318 2.7384,2.59255 4.8134,5.96453 7.2229,8.4858 -1.6507,1.00091 -2.9468,1.74908 -4.6695,2.40813 -0.1599,-0.0283 -0.7454,-0.1088 -1.3007,-0.17881 -0.9972,-0.12554 -1.0141,-0.15743 -1.3545,-2.60397 -0.1896,-1.3625 -0.4227,-3.63646 -0.5157,-5.05294 -0.094,-1.41647 -0.2647,-2.93748 -0.3803,-3.38016 -0.087,-0.33387 -0.126,-0.51863 -0.047,-0.53123 z m 18.759,2.58694 1.0708,0.32142 c 0.97,0.29085 1.0546,0.41412 0.9028,1.30587 -0.092,0.54163 -0.2564,1.99914 -0.3659,3.23856 -0.3233,3.67712 -0.412,3.94343 -1.3131,3.94343 -0.8168,0.0161 -1.418,0.64124 -2.0903,1.01854 -0.075,-0.0154 -1.0357,-0.67443 -2.1358,-1.4645 l -2.0004,-1.4361 2.9662,-3.46388 z m -8.3121,8.47442 1.188,0.80719 c 1.5184,1.03177 4.3879,3.74243 4.3879,4.14496 -0.1954,2.16334 -3.5779,6.40281 -5.4374,7.69618 -2.9349,-2.15435 -3.784,-5.15657 -6.0947,-8.70646 0.6315,-1.86852 4.1299,-2.8157 5.9562,-3.94187 z m -8.5685,6.04925 0.7126,0.9653 c 1.7154,2.2624 4.3608,4.73602 6.0927,7.61556 -1.7115,1.82787 -4.1477,3.50163 -6.2813,4.77903 -0.1517,0 -0.5479,-8.34202 -0.5359,-11.26751 z m 16.9669,0.81028 c 0.7598,-0.003 -0.5636,8.26903 -0.6346,9.96786 h -5e-4 c -0.2131,1.2427 -0.4663,2.25005 -0.5633,2.23915 -1.9167,-0.28512 -3.4206,-2.86764 -4.9097,-4.09073 1.767,-2.10444 3.3568,-3.88538 4.6157,-6.3505 0.6002,-1.38673 0.9169,-1.76078 1.4924,-1.76578 z m -8.0946,9.6733 c 2.1368,2.15596 3.4712,2.667 4.0318,5.39914 -0.069,0.95541 0.1067,1.47424 0.7648,2.25621 0.4698,0.55851 1.0591,1.01545 1.309,1.01545 0.3261,0 0.462,0.43092 0.462,1.5291 0.01,1.93022 0.4735,3.96634 0.9741,4.2757 -2.6801,1.39877 -8.3679,0.50929 -11.7492,-0.0103 l -1.99,-1.9725 c -2.3415,-2.32082 -2.7729,-3.59516 -1.434,-4.23696 0.61,-0.29228 0.9092,-0.77208 1.1275,-1.80763 0.5509,-2.51608 4.6793,-4.19793 6.504,-6.44819 z m 65.5075,6.13879 c 0.267,0.10242 0.4579,0.61539 0.4579,1.22885 0,0.57912 0.2326,1.24587 0.5167,1.48159 1.3752,1.35858 3.1506,9.19599 4.4199,12.44806 0,0.81712 -1.3263,1.45249 -3.7021,1.77303 -0.8853,0.11943 -2.4787,0.48847 -3.5409,0.8201 -4.1837,1.30609 -10.9396,1.48569 -24.2629,1.831 -6.9938,0.18124 -12.9048,0.33179 -13.1351,0.33179 -0.2629,0 -0.113,-0.39892 0.4025,-1.0749 0.9959,-1.30567 1.1247,-3.38235 0.2579,-4.15478 -0.8829,-0.7866 -6.2272,-3.08441 -7.7344,-3.32536 -0.7479,-0.11959 -1.3596,-0.31549 -1.3596,-0.43461 0,-0.20703 6.6663,-1.07357 11.4282,-1.48568 12.261,-1.18468 25.3213,-5.77282 36.2519,-9.43909 z m -81.1303,3.99031 c 1.1823,0.004 2.2569,0.18293 3.0934,0.586 0.9126,0.46246 1.7359,0.96552 1.8309,1.11829 0.094,0.15277 0.086,0.80785 -0.019,1.4552 -0.1964,1.21047 -0.34,1.2831 -1.7167,0.87281 -0.4427,-0.132 -2.1875,-0.17057 -3.8778,-0.0858 -3.2866,0.16492 -9.3177,-0.17557 -9.3177,-0.52554 1.9464,-1.86092 6.4604,-3.43191 10.0071,-3.42098 z m 7.7117,3.07941 c 0.1815,-0.003 0.5107,0.19925 0.9948,0.60253 l 0.7601,0.63304 -0.848,0.0109 c -0.5824,0.007 -0.9005,-0.19071 -1.0159,-0.63304 -0.1065,-0.40701 -0.073,-0.61161 0.109,-0.61338 z m -15.7133,3.66231 c 0.8013,0.006 1.8065,0.0238 3.0619,0.0527 3.3198,0.0763 7.3523,0.28625 8.9612,0.46665 1.6089,0.18039 4.0968,0.24418 5.5288,0.14157 1.5005,-0.10739 2.6827,-0.0579 2.7911,0.11679 0.1064,0.17222 -0.7525,0.38256 -1.988,0.48681 -5.0653,0.42743 -12.0684,0.44357 -16.1784,0.0372 -2.3903,-0.23638 -4.5271,-0.44289 -4.7485,-0.45889 -0.2213,-0.0159 -0.4026,-0.23149 -0.4026,-0.47903 0,-0.28088 0.5708,-0.38026 2.9745,-0.3638 z m 25.0833,0.49193 c 1.6392,0 1.6523,0.008 1.0769,0.64389 -0.3206,0.35412 -0.6686,0.63699 -0.7746,0.63098 -0.3193,-0.0214 -1.9622,-0.96255 -1.9622,-1.12395 0,-0.0828 0.7473,-0.15092 1.6599,-0.15092 z m 6.3562,1.14361 c 0.2927,0 0.6222,0 0.9978,0.004 4.4539,0.11647 10.0837,2.57797 14.5831,4.46534 l -0.9333,0.39844 c -0.5862,0.25027 -2.5504,0.39804 -5.2797,0.40203 -4.0884,0.003 -4.4889,-0.0543 -6.7603,-0.96686 -1.3279,-0.53348 -3.6094,-1.13985 -5.07,-1.34771 -1.461,-0.20788 -2.6558,-0.45469 -2.6438,-0.5483 0.01,-0.0936 0.695,-0.67683 1.5291,-1.29656 1.3041,-0.96782 1.5281,-1.10464 3.5771,-1.11001 z m -0.9602,6.30039 c 0.1119,0.005 0.2079,0.0344 0.2615,0.0879 0.107,0.10691 -0.083,0.1829 -0.4227,0.16898 -0.3749,-0.0153 -0.451,-0.0916 -0.1943,-0.19431 0.1162,-0.0465 0.2437,-0.0671 0.3555,-0.0625 z"
       id="path2848"
       inkscape:connector-curvature="0"
       sodipodi:nodetypes="ccccccccccccccccccccccccccccccccccccccccccccscccccccccccccccccccccccccccccccccsccccccccccccccccccccscccccccccccccccccccccsccccccccccccccccccccccccccccccccccccsccccccccccccccccccccccccccccccccccsccccccccscccccccccccccccscscccccscccccccccccccccccccccsccccccccccccccsccccccccccccccsccccccccccccccccccccccccccccccccccccccccscssscccccccccccccccscccccccccccccccccccccccccccccccccccccccccccccccccccccccccccccccscscsccccccccccccsccccccccscccccccccccccccccccccccccccccccccccccccccccccccccccccccccccccccccccccccccccccccccccccsccccccccscccccscccscccccccccccccccccccscccccscsccsscccccccccccccccc"
       inkscape:label="Kontur_Kleidung" />
  </g>
</svg>
