<?xml version="1.0" encoding="UTF-8" standalone="no"?>
<!-- Created with Inkscape (http://www.inkscape.org/) -->

<svg
   xmlns:dc="http://purl.org/dc/elements/1.1/"
   xmlns:cc="http://creativecommons.org/ns#"
   xmlns:rdf="http://www.w3.org/1999/02/22-rdf-syntax-ns#"
   xmlns:svg="http://www.w3.org/2000/svg"
   xmlns="http://www.w3.org/2000/svg"
   xmlns:sodipodi="http://sodipodi.sourceforge.net/DTD/sodipodi-0.dtd"
   xmlns:inkscape="http://www.inkscape.org/namespaces/inkscape"
   width="338.15475mm"
   height="415.26193mm"
   viewBox="0 0 338.15475 415.26193"
   version="1.1"
   id="svg8"
   inkscape:version="0.92.3 (2405546, 2018-03-11)"
   sodipodi:docname="Outfit01.svg">
  <defs
     id="defs2" />
  <sodipodi:namedview
     id="base"
     pagecolor="#ffffff"
     bordercolor="#666666"
     borderopacity="1.0"
     inkscape:pageopacity="0.0"
     inkscape:pageshadow="2"
     inkscape:zoom="0.24748737"
     inkscape:cx="-252.18972"
     inkscape:cy="873.84102"
     inkscape:document-units="mm"
     inkscape:current-layer="layer1"
     showgrid="false"
     inkscape:window-width="1920"
     inkscape:window-height="1001"
     inkscape:window-x="-9"
     inkscape:window-y="-9"
     inkscape:window-maximized="1"
     inkscape:snap-global="true"
     fit-margin-top="0"
     fit-margin-left="0"
     fit-margin-right="0"
     fit-margin-bottom="0"
     inkscape:snap-bbox="true" />
  <metadata
     id="metadata5">
    <rdf:RDF>
      <cc:Work
         rdf:about="">
        <dc:format>image/svg+xml</dc:format>
        <dc:type
           rdf:resource="http://purl.org/dc/dcmitype/StillImage" />
        <dc:title />
      </cc:Work>
    </rdf:RDF>
  </metadata>
  <g
     inkscape:label="Ebene 1"
     inkscape:groupmode="layer"
     id="layer1"
     transform="translate(1354.4108,-270.58325)"
     style="display:inline">
    <rect
       style="display:inline;opacity:1;fill:none;fill-opacity:1;fill-rule:evenodd;stroke:none;stroke-width:0.99999988;stroke-linecap:round;stroke-linejoin:miter;stroke-miterlimit:4;stroke-dasharray:none;stroke-dashoffset:0;stroke-opacity:1;paint-order:stroke fill markers"
       id="rect1307-6-6"
       width="337.15475"
       height="414.26193"
       x="-1354.4108"
       y="271.58325"
       inkscape:label="Frame" />
    <path
       style="display:inline;fill:#f9f9f9;stroke-width:1;enable-background:new"
       d="m -1135.3104,495.99062 c -2.2744,0.0674 -4.0947,1.86887 -2.5141,6.29936 -4.6623,10.94662 -9.4944,21.96957 -14.9154,32.66675 -1.6194,4.19068 -7.8129,5.13863 -7.9896,3.94239 l -3.6319,0.678 c -8.6306,3.49554 -17.7561,6.83723 -27.1983,6.54015 -10.1905,0.1387 -19.0137,-2.21757 -28.4375,-1.54873 -14.3294,0.89304 -8.7925,-18.44203 -14.4586,-27.53631 -0.4926,-4.39971 -5.034,-25.99034 -5.5815,-11.6241 0.069,13.09353 -0.3153,26.82982 4.8906,39.06635 10.3385,5.66205 23.5651,3.12597 34.9643,6.20995 7.2842,1.34295 15.3129,4.33927 22.5082,3.7202 9.5468,-7.05519 23.5313,-4.29892 32.198,-13.52322 9.1957,-9.23277 6.713,-24.64759 12.9336,-35.9518 5.4327,-4.93018 0.7802,-9.04428 -2.7678,-8.93899 z m 39.827,6.51743 c -4.164,0.0319 -7.8364,1.58175 -9.3725,5.17695 -5.4253,10.65158 -8.6938,24.03143 -4.377,35.43142 3.4218,18.52996 7.6495,38.07489 2.5295,56.6565 -7.9652,8.7507 -11.6356,19.95959 -14.5634,31.19345 -5.2507,7.64357 12.8307,3.4961 4.9072,12.25505 -2.6564,7.88358 10.8587,3.38685 6.3965,-3.61992 7.7262,-10.29597 14.0924,3.88273 5.8963,6.91843 7.5686,5.0102 5.8095,-11.99301 15.7571,-8.24188 6.1108,1.5753 1.8174,-15.88743 4.313,-2.53058 4.427,6.44681 -11.8803,15.20127 2.3719,11.75639 8.94,1.23947 10.5345,-3.45982 9.7141,-7.29051 2.0263,5.96484 6.6053,11.11088 2.5689,0.52088 -2.1792,-4.12393 -6.0803,-24.84297 -7.4575,-10.99362 -1.6254,-8.04333 -0.077,-15.0436 7.1221,-18.31155 3.018,-12.31619 13.6307,-21.34113 12.5739,-34.67592 2.5164,-11.00772 -5.1966,-19.67592 -7.9551,-29.6871 -1.0238,-12.6393 -6.355,-23.90948 -13.1289,-34.50124 -2.0512,-5.94515 -10.3561,-10.10993 -17.2961,-10.05675 z m -185.4972,5.61413 c -1.9973,0.0401 -4.2885,0.90005 -6.8957,2.86029 -12.1406,3.27263 -15.6959,18.06577 -23.0921,27.08208 -4.6143,12.14178 -8.9295,24.35929 -13.3532,36.56883 -2.7376,12.63404 1.7629,25.36094 3.4142,37.77908 -5.7819,7.68509 -12.329,21.22501 -8.7622,29.69792 5.6564,0.16259 8.8941,1.98385 5.2648,-4.76612 2.4374,-3.37243 9.8514,-20.25394 5.3909,-6.86057 -5.0707,6.70044 9.4896,13.83694 13.4953,9.40202 2.277,2.73458 2.5698,7.30549 7.3437,4.65087 -2.2055,-3.77399 -2.9413,-15.77332 6.7309,-11.39412 7.4578,2.88946 -3.8933,18.14841 6.8714,8.12869 4.4186,-5.98424 9.5034,0.44278 14.8254,-5.49423 4.4672,-5.68915 -6.3324,-17.87856 -6.7835,-22.35885 11.6089,-1.87553 4.4623,-19.73078 6.4476,-27.99726 4.2813,-18.62548 1.3461,-38.03036 0.3762,-56.92261 -0.1252,-8.07874 -3.438,-20.53327 -11.2737,-20.37602 z m -40.3634,129.35593 c -0.9988,-0.003 -1.2036,1.23814 0.6609,4.62814 -6.5343,5.12215 -2.2765,3.40009 3.8907,3.74912 3.6872,-2.35659 -2.3543,-8.37303 -4.5516,-8.37726 z m 218.5432,1.31723 v 0 c -0.082,-0.003 -0.1661,-0.003 -0.2553,0 -2.7244,0.10612 -9.022,3.1383 -2.9378,4.32533 l 1.9849,-1.39838 c 2.6502,-2.09566 2.4228,-2.88361 1.2082,-2.92798 z m 30.5067,9.32346 c -2.6678,-0.0587 -8.0486,3.92235 -0.1773,2.09135 l 1.3493,-0.32144 c 0.3049,-1.28233 -0.2828,-1.7503 -1.172,-1.76991 z m 4.5873,1.15549 c -0.7764,0.0246 -2.0368,0.78195 -3.7496,2.84478 -1.6106,-0.10213 -6.8261,3.68998 -1.5798,1.65883 5.9232,0.96155 7.4762,-4.57174 5.3294,-4.50361 z"
       id="path1058-6"
       inkscape:connector-curvature="0"
       inkscape:label="Kleidung_01" />
    <path
       style="display:inline;fill:#800000;fill-opacity:1;stroke-width:1;enable-background:new"
       d="m -1122.7235,497.79394 c -2.2907,0.0528 -4.2091,0.3715 -5.2415,0.90318 -5.4268,11.41147 -8.2077,23.78247 -10.6936,36.09557 -5.3544,12.63653 -19.9998,15.87455 -32.0869,18.371 -10.6253,5.4533 -1.7202,22.5465 -5.3498,32.81251 -0.1895,12.35404 0.4876,24.97403 -2.8572,36.98719 -0.543,-11.53554 1.2917,-23.6642 0.8601,-35.37212 -1.5071,-9.57328 6.9395,-29.34784 -6.6592,-30.81403 -13.5878,-3.34452 -27.3166,-5.85584 -41.3145,-6.5754 -17.9195,1.51376 -16.0638,-20.3996 -17.5012,-32.47505 1.0337,-7.37058 3.0707,-22.12623 -9.136,-15.19243 -8.4297,1.56173 -24.9346,1.06885 -16.6419,13.37076 3.1554,11.42853 2.0421,23.63967 5.1363,34.91283 -1.3352,11.91257 -1.5807,23.90576 -2.7941,35.86326 0.225,10.54389 -1.3962,22.30496 -4.2848,30.31752 5.9898,12.78388 6.1647,27.2392 15.0858,38.66147 8.046,6.53955 20.0493,6.59429 30.2149,7.03607 12.1945,0.9598 24.4064,4.30961 36.59,2.33659 15.5375,2.13108 4.1789,-17.02605 8.2651,-25.48795 0.4855,-6.33338 2.3335,-15.18846 2.1407,-3.56552 -2.6039,9.57048 3.3039,24.0417 -5.0137,30.74281 l 5.6069,-0.19225 c 1.12,-2.15871 14.4396,-2.24988 17.4897,-2.29889 11.4252,-0.74922 30.0284,1.09207 35.1892,-10.67601 -3.6396,-12.68111 3.7805,-24.75971 5.7518,-37.22325 0.9469,-7.92806 -14.4931,2.16887 -20.5291,-0.77084 -10.1804,0.55721 -7.5038,-2.31537 0.5872,-1.85981 13.6192,-0.19103 30.2265,-7.1519 32.2425,-22.32112 4.092,-15.13322 -1.4529,-30.3634 -3.3316,-45.26296 -2.5127,-11.92192 -3.6588,-25.90313 3.6432,-36.40975 5.7393,-8.9153 -7.1876,-12.10392 -15.3683,-11.9134 z"
       id="path1136-5"
       inkscape:connector-curvature="0"
       sodipodi:nodetypes="cccccccccccccccccccccccccccccccc"
       inkscape:label="Kleidung_02" />
    <path
       style="display:inline;fill:#5f8dd3;stroke-width:1;enable-background:new"
       d="m -1246.7789,662.14051 c -0.336,-0.007 -0.6712,-0.006 -1.0052,0.004 -8.7302,0.26831 -16.7022,6.53211 -18.9283,16.48103 -0.5481,2.44906 -1.1145,4.69331 -1.6671,6.85041 h 6.6618 c 2.1173,-7.63368 5.37,-15.03538 12.2861,-18.46758 0.065,6.28555 -3.4947,12.22672 -6.1989,18.46758 h 51.7693 c 1.1778,-3.2756 2.5306,-6.53034 4.1447,-9.80239 7.4426,-11.55528 1.1155,3.54824 -1.8601,9.80239 h 61.1069 c -0.071,-6.01189 -0.3796,-11.5225 -4.2987,-12.96808 -2.0898,5.28939 -7.2074,13.06835 -3.1536,2.37958 5.7034,-11.42526 9.4227,2.45822 9.7014,10.5885 h 23.3893 c -0.3844,-1.06008 -0.8272,-1.84561 -1.34,-2.14845 -0.6717,-12.34276 -13.8448,-26.42547 -25.4351,-18.08924 -11.9985,2.24755 -24.0588,-0.52285 -35.6362,2.50005 -0.6781,-0.46012 -1.0437,-0.86043 -1.1556,-1.20859 l -5.6069,0.19243 c -18.6936,3.18532 -37.0128,-3.57082 -55.6912,-3.07192 -2.3376,-0.9693 -4.7307,-1.45809 -7.0826,-1.51011 z m -6.8079,9.87978 c -3.2051,2.69859 -4.8596,8.29167 -6.2082,13.45602 h 2.3753 c 1.7585,-5.87679 3.5408,-11.02021 3.8329,-13.45602 z"
       id="path1118-7"
       inkscape:connector-curvature="0"
       inkscape:label="Kleidung_03" />
    <path
       style="display:inline;fill:#d3bc5f;stroke-width:1;enable-background:new"
       d="m -1185.4335,568.10606 c -0.1024,-0.004 -0.2072,-0.004 -0.3139,0 -2.8467,0.13232 -7.0749,3.43329 -0.7317,5.31416 l 1.781,-1.1394 c 1.7525,-2.99361 0.798,-4.11306 -0.7354,-4.17584 z m -0.8204,30.43423 c -0.1275,-0.003 -0.2582,0.003 -0.3909,0.0109 -2.7313,0.21156 -6.3662,3.25688 -1.7717,6.2698 l 2.2062,-0.2726 c 3.0629,-4.32416 1.8681,-5.95598 -0.043,-6.00755 z m -2.3983,27.35413 c -2.9144,0.10078 -7.1823,3.86752 -0.6939,6.07952 l 0.887,-0.34507 0.9759,-0.82809 c 1.8411,-3.70758 0.5798,-4.96682 -1.169,-4.90636 z m 0.307,25.80807 c -0.083,-0.004 -0.166,-0.003 -0.2512,0.003 -2.6447,0.13099 -6.6482,3.7348 -1.557,5.12879 l 1.6306,-0.37613 1.1676,-0.48903 c 1.2674,-3.0896 0.3867,-4.21177 -0.99,-4.26527 z"
       id="path1108-9"
       inkscape:connector-curvature="0"
       inkscape:label="Kleidung_04" />
    <path
       style="display:inline;fill:#c18962;fill-opacity:1;stroke-width:1;enable-background:new"
       d="m -1294.8075,634.72097 c -3.8079,-0.0185 -1.5048,7.5624 -0.3264,10.51164 -5.8207,7.64656 -17.0897,-10.04727 -18.1154,3.3298 0.6973,13.42832 5.6776,25.4662 9.3357,36.9139 h 33.2107 c 0.4937,-3.67781 2.568,-8.97461 3.0233,-12.339 1.2166,-8.9893 -1.6361,-19.57708 -2.8069,-28.37572 4.6228,-9.30664 -5.2051,-3.33851 -8.982,1.50027 -4.1233,-0.94332 3.7618,-10.12039 -3.1412,-4.47572 -5.5644,11.17129 -13.3762,2.15726 -8.4962,-5.68756 -1.6186,-0.96417 -2.8228,-1.3734 -3.7016,-1.37761 z m 175.6254,3.60725 c -3.0042,-0.0172 -9.08,5.83542 -4.0239,11.28578 3.2625,4.99451 -3.008,10.39085 1.4998,13.33497 3.2763,7.26155 6.4809,14.71327 8.2202,22.52734 h 28.1905 c 1.4798,-3.5484 2.7038,-7.04966 2.6952,-9.97082 1.2499,-8.90013 11.2766,-29.00151 -5.1582,-24.80284 -9.6353,-2.7115 7.3769,-11.51069 -3.8886,-9.97682 -7.2161,1.40657 -1.5972,13.34124 -12.3935,8.57686 -3.3303,-4.53229 -14.6251,5.97609 -14.9906,-5.21435 2.1535,-4.13168 1.4226,-5.75059 -0.1509,-5.76012 z"
       id="path1060-0"
       inkscape:connector-curvature="0"
       inkscape:label="Kleidung_Haut" />
    <path
       style="display:inline;fill:#000000;stroke-width:1;enable-background:new"
       d="m -1136.965,492.20338 c -4.9476,-0.12809 -2.6761,7.77874 -3.7256,12.91958 -6.2623,9.90368 -8.0496,22.04286 -15.8705,31.04318 -10.3378,4.13705 1.4885,4.82656 3.821,-1.20918 5.4209,-10.69717 10.2535,-21.72112 14.9158,-32.66771 -4.0464,-11.34214 14.1969,-5.45098 5.2815,2.63963 -6.2206,11.30419 -3.738,26.72002 -12.9337,35.9528 -8.6667,9.2243 -22.6517,6.46787 -32.1984,13.52307 -7.1953,0.61909 -15.224,-2.37718 -22.5082,-3.72013 -11.3993,-3.08398 -24.6254,-0.54837 -34.9639,-6.21038 -5.2059,-12.23658 -4.8207,-25.97264 -4.8905,-39.06618 0.5475,-14.36624 5.0887,7.22458 5.5811,11.62429 5.6662,9.09429 0.1298,28.42874 14.4592,27.53566 9.4237,-0.66884 18.2462,1.68802 28.4367,1.54932 9.909,0.31174 19.4767,-3.38137 28.4816,-7.05699 -7.591,-0.52215 -17.7526,5.78972 -26.2109,5.72791 -9.8601,-1.27719 -17.4462,-0.0366 -26.9676,-2.55405 -10.1866,3.09825 -12.6083,-7.22132 -13.1573,-15.51611 -4.7493,-8.66662 -2.8823,-23.64864 -6.6422,-29.79914 -11.4302,2.22187 -22.8517,2.53447 -33.9379,6.43117 -9.7938,5.01113 -24.1628,3.85505 -29.8944,14.80362 -6.4395,9.67604 -13.3831,19.23631 -16.8933,30.5618 -2.8138,12.13924 -10.8155,23.22791 -9.857,36.06237 -0.5062,10.15246 4.9591,20.99315 0.7077,30.31487 -2.784,9.06058 -13.2559,23.48608 -3.5227,30.82126 5.6048,4.7035 17.0292,-1.69643 14.4149,9.34392 2.3918,9.95595 5.5777,20.08619 8.5556,30.21835 h 2.5704 c -3.6581,-11.44772 -8.6389,-23.48553 -9.3363,-36.9139 1.0257,-13.37707 12.2954,4.31676 18.116,-3.3298 -1.4504,-3.62985 -4.6051,-14.27634 4.0276,-9.13403 -4.8801,7.84484 2.9323,16.85883 8.4966,5.68756 6.903,-5.64467 -0.9821,3.5324 3.1412,4.47572 3.777,-4.83873 13.6044,-10.80635 8.9814,-1.49974 1.1709,8.79867 4.0235,19.38645 2.8071,28.37572 -0.4553,3.36441 -2.5297,8.66066 -3.0234,12.33847 h 2.3229 c 0.5526,-2.15582 1.1202,-4.40227 1.6681,-6.8504 2.9075,-12.99454 15.617,-19.70244 27.0155,-14.97587 18.8284,-0.50284 37.2922,6.36823 56.142,2.99506 9.3236,-6.49264 1.8947,-20.85698 4.5634,-30.66593 0.1929,-11.62296 -1.6552,-2.76754 -2.1407,3.56585 -4.0862,8.4619 7.2725,27.61858 -8.265,25.48752 -12.1836,1.973 -24.3957,-1.37615 -36.5901,-2.33598 -10.1657,-0.4418 -22.1686,-0.49675 -30.2146,-7.03628 -8.9211,-11.4223 -9.0962,-25.87725 -15.086,-38.66115 2.8886,-8.01251 4.5099,-19.77366 4.2849,-30.31755 1.2133,-11.9575 1.4587,-23.95138 2.794,-35.86395 -3.0942,-11.27315 -1.981,-23.48355 -5.1365,-34.91211 -8.2927,-12.3019 8.2128,-11.80921 16.6424,-13.37095 12.2067,-6.93378 10.1694,7.82173 9.1357,15.19232 1.4374,12.07545 -0.4186,33.98847 17.501,32.47471 13.9979,0.71956 27.7266,3.23112 41.3143,6.57564 13.5988,1.46621 5.1524,21.24091 6.6596,30.81422 0.4316,11.70789 -1.4036,23.8361 -0.8608,35.37167 3.3443,-12.01317 2.6683,-24.63295 2.8578,-36.98698 3.6296,-10.26599 -5.2753,-27.3594 5.35,-32.8127 12.0871,-2.49647 26.7322,-5.73458 32.0866,-18.37112 2.4859,-12.3131 5.2671,-24.68361 10.6938,-36.0951 4.7201,-2.43055 27.9557,-0.40115 20.6095,11.01045 -7.302,10.50662 -6.1554,24.48717 -3.6427,36.4091 1.8786,14.89956 7.4228,30.12969 3.3309,45.2629 -2.0161,15.16923 -18.6228,22.13079 -32.242,22.32187 -8.091,-0.45556 -10.7676,2.41668 -0.5872,1.85949 6.0361,2.93971 21.4758,-7.15719 20.5288,0.77086 -1.9712,12.46355 -9.3914,24.54188 -5.7518,37.22299 -5.1609,11.76811 -23.7638,9.92703 -35.1891,10.67628 -3.6924,0.0593 -22.3821,-0.59608 -16.3344,3.50695 11.5774,-3.02292 23.6382,-0.2525 35.6367,-2.50005 11.5903,-8.33623 24.7634,5.74701 25.4351,18.0898 0.513,0.30297 0.9565,1.08688 1.341,2.14844 h 1.3443 c -1.7394,-7.81407 -4.9438,-15.26579 -8.2202,-22.52734 -4.5078,-2.94417 1.7627,-8.34043 -1.4998,-13.33497 -7.7044,-8.3053 10.4397,-17.54452 4.1748,-5.52514 0.3656,11.19045 11.6604,0.68154 14.9906,5.21383 10.7963,4.76443 5.1774,-7.17029 12.3935,-8.57686 11.2656,-1.53387 -5.7468,7.26527 3.8886,9.97682 16.4349,-4.19875 6.4075,15.90273 5.1576,24.80284 0.011,2.92071 -1.2184,6.42223 -2.699,9.97082 h 2.0035 c 1.8662,-6.41559 3.4509,-12.92299 4.9685,-19.42433 1.7505,-11.89561 9.0164,-5.34281 14.7464,-12.08603 -0.6836,-11.10801 -6.2172,-21.41771 -9.0702,-32.09476 6.9097,-9.57024 8.8407,-22.13133 14.852,-32.42622 5.6348,-9.64991 4.1741,-22.38158 -0.7212,-32.65683 -5.2795,-11.73234 -5.1357,-24.06762 -12.69,-35.02003 -4.4566,-12.02972 -9.3528,-22.81182 -28.2269,-21.00366 -10.4703,-2.34396 -21.6163,-6.85512 -32.8193,-7.05589 -2.0402,-1.01808 -3.5662,-1.47562 -4.7079,-1.50518 z m 41.4818,10.30448 c 6.94,-0.053 15.2447,4.1113 17.296,10.05644 6.7739,10.59173 12.1046,21.86228 13.1284,34.50159 2.7585,10.01117 10.4717,18.67964 7.9553,29.68736 1.0568,13.33476 -9.5561,22.35936 -12.574,34.67555 -7.1997,3.26793 -8.7478,10.26835 -7.1224,18.31166 1.3772,-13.84933 5.2786,6.87014 7.4577,10.99407 4.0368,10.5909 -0.5431,5.44269 -2.5693,-0.52276 0.8212,3.83092 -0.773,8.53157 -9.714,7.29194 -14.2522,3.44485 2.0551,-5.30937 -2.372,-11.75621 -2.4954,-13.35682 1.7987,4.10647 -4.3121,2.53111 -9.9476,-3.7511 -8.1885,13.25076 -15.7572,8.24058 8.1963,-3.03572 1.8294,-17.21342 -5.8968,-6.9175 4.4622,7.0068 -9.0531,11.5034 -6.3969,3.61984 7.9238,-8.75892 -10.1576,-4.6115 -4.9068,-12.25505 2.9279,-11.23386 6.5985,-22.44235 14.5637,-31.19305 5.12,-18.58158 0.8921,-38.1272 -2.5296,-56.65716 -4.3168,-11.39999 -1.0484,-24.77955 4.377,-35.4311 1.5361,-3.59522 5.2089,-5.14544 9.373,-5.17731 z m 23.5717,137.70391 c -0.1081,-0.50459 -0.2564,-0.9946 -0.4372,-1.45339 0.1245,0.48475 0.2736,0.97142 0.4372,1.45339 z m -209.0697,-132.08939 c 7.8357,-0.1571 11.1491,12.29741 11.2743,20.37618 0.9698,18.89224 3.9051,38.29715 -0.3763,56.92265 -1.9853,8.26646 5.161,26.12181 -6.448,27.99739 0.451,4.48032 11.2505,16.66918 6.7835,22.35833 -5.322,5.93701 -10.4065,-0.4902 -14.825,5.49404 -10.7648,10.01969 0.5861,-5.23928 -6.8717,-8.12876 -9.6721,-4.37918 -8.9366,7.62023 -6.7309,11.39422 -4.774,2.65462 -5.0661,-1.91608 -7.3433,-4.65068 -4.0057,4.43494 -18.5658,-2.7018 -13.4952,-9.40224 4.4605,-13.39339 -2.9543,3.48832 -5.3916,6.86075 3.6293,6.74995 0.3924,4.92882 -5.2639,4.76626 -3.5669,-8.47294 2.9793,-22.01315 8.761,-29.69829 -1.6512,-12.41814 -6.1508,-25.14451 -3.4132,-37.77853 4.4237,-12.20954 8.7387,-24.42757 13.3531,-36.56938 7.3961,-9.01633 10.9508,-23.80944 23.0915,-27.08207 2.6071,-1.96022 4.8984,-2.81982 6.8957,-2.85987 z m 95.9811,57.84394 c -4.5226,0.0161 -9.8982,4.00815 -3.2802,9.05333 2.2985,1.47571 5.1353,0.15891 6.827,-1.60269 2.5998,-5.3572 -0.2465,-7.46252 -3.5468,-7.45064 z m -0.7473,2.14083 c 1.7079,-0.0794 2.9186,0.9821 1.0494,4.17533 l -1.7816,1.13882 c -6.3432,-1.88087 -2.1144,-5.18184 0.7322,-5.31415 z m 0.189,28.14949 c -4.5987,0.0233 -10.176,6.80093 -3.3041,11.22199 4.1175,2.3822 8.6343,-1.93461 7.7079,-6.21202 -0.4252,-3.63612 -2.3134,-5.0206 -4.4038,-5.00997 z m -0.6415,2.28582 c 1.8796,0.081 3.0229,1.72347 -0.011,6.00652 l -2.2062,0.27204 c -4.8497,-3.18034 -0.5301,-6.39694 2.2171,-6.27856 z m 88.9819,9.85366 c -0.1082,-0.008 -0.3325,0.0109 -0.7272,0.0795 -0.5173,0.53647 1.1958,-0.041 0.7272,-0.0795 z m 11.3594,0.42577 c -0.3396,-0.0124 -0.612,0.0956 -0.7916,0.3565 3.2797,0.023 3.232,6.92917 8.1746,5.79279 2.5794,2.00363 -4.6184,-6.04896 -7.383,-6.14929 z m -18.8569,0.30417 c -0.128,-0.004 -0.2597,-0.003 -0.3952,0.004 -6.7091,1.23728 -2.4806,1.02683 0.9252,2.55895 3.7764,3.0661 3.4371,-2.42329 -0.53,-2.56276 z m -204.7098,2.78976 c -0.6377,-0.3076 -4.9209,7.35791 -5.0112,8.83375 1.4269,0.11174 5.5374,-8.89899 5.0112,-8.83375 z m 53.9381,3.57706 c -4.7026,1.6119 11.3121,6.43337 15.6672,5.80263 5.285,0.29396 10.5877,-0.41918 15.8557,-0.80356 -9.0986,-2.94857 -21.7266,-0.70393 -31.5229,-4.99907 z m -27.7962,4.87151 c -0.4735,-0.18722 1.0888,9.44084 1.9522,12.23648 1.4783,0.93866 -0.3266,-6.06941 -0.5103,-7.39336 -0.8334,-3.42355 -1.2707,-4.77541 -1.4419,-4.84312 z m 103.8237,2.93291 c -0.092,-0.0259 -0.2357,0.5076 -0.4257,2.14029 0.5532,1.6451 0.6602,-2.07386 0.4257,-2.14029 z m -8.5463,1.42832 c -4.6104,0.0523 -10.2158,4.57597 -2.4233,9.13511 1.9681,0.47477 4.6504,0.36778 5.8789,-1.5417 2.3874,-5.57178 -0.3012,-7.6292 -3.4556,-7.59341 z m -0.4307,1.16772 c 1.6326,0.0494 2.7179,1.35435 0.9535,4.90744 l -0.9759,0.82809 -0.887,0.34562 c -6.6507,-2.26726 -2.0008,-6.1691 0.9094,-6.08115 z m -114.2062,2.89367 c -0.09,0.0637 -0.3367,0.71974 -0.8346,2.44826 -0.03,2.49934 1.105,-2.63951 0.8346,-2.44826 z m 22.0864,4.80441 c -0.1633,-0.004 -0.2831,0.34758 -0.252,1.36398 1.6226,1.87359 0.7415,-1.3502 0.252,-1.36398 z m -40.7878,3.88691 c 2.1973,0.004 8.2392,6.02022 4.552,8.37684 -6.1672,-0.34906 -10.4251,1.37313 -3.8908,-3.74901 -1.8645,-3.39 -1.66,-4.62987 -0.6612,-4.62783 z m 218.2883,1.31929 c 1.4271,-0.0556 1.8735,0.69154 -0.9534,2.92693 l -1.9851,1.39832 c -6.0841,-1.18703 0.214,-4.21912 2.9385,-4.32525 z m -162.7722,4.61362 c 0.3476,0.006 0.7145,0.62418 0.9104,2.42268 -2.5587,1.53747 -1.7987,-2.43885 -0.9104,-2.42268 z m 193.5335,4.70741 c 0.8892,0.0196 1.4775,0.48771 1.1726,1.77009 l -1.3497,0.32166 c -7.8714,1.83102 -2.4907,-2.1504 0.1771,-2.09175 z m 4.5874,1.1557 c 2.1468,-0.0681 0.5939,5.46505 -5.3293,4.5035 -5.2463,2.03113 -0.031,-1.76101 1.5798,-1.65888 1.7128,-2.06277 2.9731,-2.81996 3.7495,-2.84462 z m -121.2511,0.88916 c -3.5858,-0.0257 -7.0177,2.45605 -3.6367,8.23291 1.6456,2.20858 4.6427,0.2935 6.7292,0.37177 5.2333,-5.3254 0.9713,-8.57541 -3.0925,-8.60468 z m -75.7599,1.28818 c 2.9183,0.0982 9.113,11.80065 1.8449,14.98137 -2.6376,5.18292 -1.8924,-8.64698 -2.9336,-9.58107 -0.5938,-3.95306 0.033,-5.43581 1.0887,-5.4003 z m 76.3731,0.25133 c 1.3767,0.0535 2.2574,1.17573 0.9901,4.26527 l -1.1684,0.489 -1.6299,0.3756 c -5.2554,-1.43891 -0.82,-5.232 1.8082,-5.12987 z m 58.5397,15.08273 c 1.7297,2.04147 6.4282,10.78809 8.1821,18.69056 h 1.0223 c -0.6227,-6.90126 -3.5694,-16.55122 -9.2044,-18.69056 z m -119.6261,0.22299 c -6.916,3.43217 -10.1689,10.83397 -12.2861,18.46757 h 1.9227 c 1.3486,-5.16437 3.0025,-10.75743 6.2077,-13.45602 -0.2921,2.43517 -2.0743,7.58037 -3.8336,13.45602 h 1.7898 c 2.7043,-6.24078 6.2648,-12.182 6.1995,-18.46757 z m 98.3967,2.48806 c -0.9394,-0.0573 -7.3636,10.64292 -4.7592,14.56156 1.7918,-2.06605 1.2108,-6.76267 2.939,-9.44695 1.7821,-3.66538 2.1601,-5.09389 1.8202,-5.11461 z m -83.5026,0.29329 c -0.6558,-0.0124 -1.035,0.3297 0.057,1.37867 2.898,-0.35444 1.0364,-1.3584 -0.057,-1.37867 z m -7.8027,0.46609 c -1.8287,-0.0164 -4.0358,1.62367 -5.354,5.20841 -4.4215,9.75457 1.5997,2.09356 3.7686,-2.26894 3.6769,0.95054 2.54,6.43054 1.4027,12.28066 h 1.7009 c 0.3089,-2.96791 0.6283,-5.76289 0.9698,-7.55308 1.5898,-4.88617 -0.1369,-7.64575 -2.488,-7.66705 z m 98.5597,0.30094 c -1.2185,0.0164 -2.6088,1.25899 -4.142,4.3307 -4.0538,10.68874 1.0637,2.90928 3.1535,-2.38017 3.9183,1.44529 4.2254,6.95799 4.2958,12.96866 h 2.2521 c -0.2038,-5.94442 -2.2459,-14.9639 -5.5594,-14.91919 z m 14.7279,0.5697 c -0.1175,-0.0153 -0.2752,0.0268 -0.4766,0.16571 0.7367,1.04021 0.9852,-0.0994 0.4766,-0.16571 z m -63.8179,0.20386 c 0.3189,2.26073 0.8632,8.42775 0.8935,14.14563 h 1.26 c 0.817,-5.0955 0.9112,-10.97005 -2.1535,-14.14563 z m -3.5419,0.11777 c -0.3785,0.0356 -1.3816,1.23973 -3.3046,4.22547 -1.6142,3.27229 -2.9667,6.52682 -4.1448,9.80239 h 2.2852 c 2.2067,-4.63796 6.2511,-14.12975 5.1642,-14.02786 z m 67.8575,1.84317 c -0.074,0.003 -0.1333,0.41772 -0.1499,1.53349 0.9573,4.78335 0.4407,-1.5449 0.1499,-1.53349 z m -88.5018,3.49276 c -0.5785,-0.11353 -2.8377,2.56077 -3.8908,6.24472 -0.7928,2.55863 2.925,-1.07257 1.7936,-1.52641 2.1024,-3.2577 2.493,-4.6406 2.0972,-4.71831 z m 34.1958,1.36999 c -0.2522,0.0444 -0.377,0.64198 0.1045,2.25366 1.0899,-0.86503 0.3156,-2.32767 -0.1045,-2.25366 z m -0.026,3.45135 c -0.1098,-0.0506 -0.2517,0.70514 -0.4121,2.93783 0.05,0.38505 0.095,0.66323 0.1396,0.93276 h 0.4939 c 0.055,-1.45999 -0.038,-3.78605 -0.2214,-3.87059 z m 33.3542,2.50878 c -0.1149,-0.003 -0.2353,0.11388 -0.3315,0.44157 1.0805,1.10294 0.7414,-0.43167 0.3315,-0.44157 z m -102.1698,0.5043 c -0.1374,-0.019 -0.4104,0.14385 -0.8815,0.63127 0.01,0.0852 0.015,0.15877 0.025,0.22624 h 0.7506 c 0.2049,-0.36798 0.3168,-0.8282 0.1055,-0.85751 z"
       id="path854-5"
       inkscape:connector-curvature="0"
       inkscape:label="Kontur_Kleidung"
       sodipodi:nodetypes="sccccccccccccccccccccccccccccccccccccccccccccccccccccccccccccccccccccccccccccccccccccccccscccccccccccccccccccccccccccccccccccccccccccccccccccccccccccccccccccccccccccccccccccccccccccccccccccccccccccccccccccccccccccccccccccccccccccccccccccccccccccccccccccccccccccccccccccccccccccccccccccc" />
  </g>
</svg>
