<svg xmlns="http://www.w3.org/2000/svg" width="1278.065" height="1569.494" viewBox="0 0 338.155 415.262">
  <path fill="none" d="M0 1h337.155v414.262H0z" paint-order="stroke fill markers"/>
  <path class="outfit01" fill="#f9f9f9" d="M219.07 224.405c-1.393.041-2.827.68-3.556 2.043-.676 1.264-.639 3.003.034 5.133-4.625 10.852-9.412 21.763-14.772 32.34a1.002 1.002 0 0 0-.041.091c-.664 1.719-2.35 2.86-3.928 3.405-.79.272-1.544.385-2.01.375-.169-.004-.227-.025-.288-.04a1.002 1.002 0 0 0-1.012-.421l-3.631.677a1.002 1.002 0 0 0-.193.055c-8.61 3.487-17.606 6.758-26.791 6.47a1.002 1.002 0 0 0-.045 0c-10.026.136-18.856-2.23-28.487-1.548-3.362.21-5.3-.7-6.687-2.303-1.388-1.602-2.199-4.048-2.742-6.906-1.07-5.621-1.067-12.653-3.995-17.586-.285-2.43-1.503-8.683-2.783-12.883-.324-1.063-.648-1.984-.986-2.705-.17-.36-.338-.669-.553-.947-.215-.278-.483-.604-1.054-.686-.572-.081-1.123.331-1.344.676-.221.346-.33.702-.432 1.15-.205.897-.332 2.164-.402 3.99a1.002 1.002 0 0 0 0 .046c.069 13.07-.348 26.952 4.97 39.453a1.002 1.002 0 0 0 .44.486c10.765 5.896 24.109 3.3 35.185 6.297a1.002 1.002 0 0 0 .08.02c7.152 1.318 15.242 4.38 22.776 3.732a1.002 1.002 0 0 0 .51-.191c4.535-3.352 10.256-4.426 16.06-5.78 5.802-1.352 11.713-3.02 16.264-7.859 4.816-4.844 6.528-11.233 7.842-17.69 1.31-6.442 2.256-12.993 5.224-18.417 1.328-1.26 2.159-2.53 2.475-3.782a4.851 4.851 0 0 0-.475-3.607c-1.154-2.03-3.478-3.153-5.652-3.088zm39.849 6.518c-4.402.034-8.55 1.752-10.276 5.769-5.469 10.756-8.823 24.294-4.447 36.043 3.416 18.496 7.546 37.819 2.576 56.041-7.956 8.872-11.652 20.076-14.557 31.195-.653.985-1.013 1.87-1.045 2.737-.033.911.369 1.738.934 2.297 1.13 1.116 2.75 1.535 4.162 2.033s2.504 1.084 2.733 1.525c.114.22.165.447-.04.998-.204.552-.712 1.365-1.652 2.404a1.002 1.002 0 0 0-.205.352c-.368 1.094-.489 2.046-.343 2.887.145.841.6 1.562 1.224 2 1.248.875 2.87.729 4.322.137 1.453-.592 2.83-1.701 3.561-3.27.173-.37.138-.83.219-1.246.554.303 1.242.522 2.14.697a1.002 1.002 0 0 0 .77-.166l1.984-1.398a1.002 1.002 0 0 0 .043-.031c1.087-.86 1.689-1.484 2.066-2.186.11.701.101 1.432-.087 2.123-.36 1.316-1.233 2.477-3.004 3.133a1.002 1.002 0 0 0-.206 1.775c1.048.694 2.021 1.066 2.964 1.096.942.03 1.8-.32 2.466-.846 1.334-1.05 2.12-2.685 2.986-4.248.867-1.563 1.78-3.048 2.891-3.861 1.112-.813 2.386-1.134 4.649-.281a1.002 1.002 0 0 0 .103.033c.967.25 1.913.123 2.625-.33.676-.43 1.083-1.09 1.38-1.774.376 1.027.352 2.078-.133 3.266-.616 1.506-1.745 3.05-2.635 4.361-.446.655-.834 1.242-1.078 1.858-.123.308-.221.633-.198 1.03.023.399.243.874.586 1.15.687.55 1.441.528 2.461.443.98-.082 2.299-.338 3.998-.743 2.286.296 4.176.223 5.7-.158-.426.255-.915.468-1.22.801-.263.288-.6.662-.493 1.34.052.34.281.667.52.842.24.175.476.249.708.297.928.19 2.074.026 4.096-.444a1.002 1.002 0 0 0 .005-.002l.399-.096c-.076.087-.134.12-.211.21-.513.096-1.02.182-1.51.42-.701.343-1.377.763-1.885 1.17-.254.205-.463.37-.666.687-.101.157-.257.38-.203.818.054.438.51.84.791.926.562.171.81.042 1.23-.065.37-.094.858-.264 1.42-.476 3.093.389 5.31-.83 6.354-2.352.542-.79.821-1.632.713-2.473-.054-.42-.227-.863-.582-1.197-.354-.335-.868-.502-1.35-.487-.772.025-1.538.424-2.353 1.071.01-.526-.066-1.031-.38-1.432-.47-.597-1.187-.779-1.802-.792-.49-.011-.949.213-1.426.343.494-.298.953-.624 1.32-1.014.595-.63.953-1.357 1.218-2.11.073.135.13.325.203.454.682 1.211 1.273 2.112 1.984 2.676.178.14.368.28.687.355.32.076.868-.025 1.163-.33.294-.305.349-.612.378-.869.03-.257.02-.501-.013-.78-.13-1.11-.623-2.785-1.645-5.466a1.002 1.002 0 0 0-.05-.111c-.441-.834-1.128-2.926-1.819-5.225-.691-2.298-1.426-4.849-2.154-6.88-.364-1.016-.72-1.9-1.102-2.596a4.54 4.54 0 0 0-.63-.92c-.247-.269-.577-.553-1.1-.606-.427-.042-.78.227-1.065.481-.018-1.952.174-3.79.725-5.4 1.004-2.93 2.957-5.244 6.336-6.778a1.002 1.002 0 0 0 .558-.674c1.458-5.95 4.805-11.213 7.73-16.725 2.903-5.473 5.373-11.245 4.868-18.13 1.256-5.709-.097-10.829-2.068-15.655-1.99-4.872-4.58-9.51-5.916-14.355v-.003c-1.08-12.793-6.467-24.166-13.252-34.776-1.185-3.196-3.896-5.795-7.172-7.615-3.352-1.862-7.303-2.932-10.977-2.904zM73.41 236.538c-2.226.045-4.67 1.008-7.33 2.975-6.294 1.775-10.372 6.479-13.717 11.736-3.382 5.315-6.12 11.236-9.697 15.597a1.002 1.002 0 0 0-.163.28c-4.62 12.156-8.935 24.377-13.357 36.582a1.002 1.002 0 0 0-.039.129c-2.79 12.874 1.67 25.613 3.34 37.783-2.875 3.89-5.876 9.058-7.777 14.428-1.958 5.53-2.796 11.254-.854 15.869a1.002 1.002 0 0 0 .895.613c1.363.04 2.597.18 3.664.27.97.081 1.764.106 2.556-.106-.274.27-.841.681-1.023.924-.284.379-.586.825-.42 1.492.083.333.32.62.543.776.223.155.433.223.635.273.806.2 1.683.134 2.85.102 1.165-.033 2.555-.073 4.044.011a1.002 1.002 0 0 0 .596-.156 3.481 3.481 0 0 0 1.613-3.239c-.104-1.134-.651-2.184-1.34-3.144 1.833 1.046 3.903 1.753 5.87 1.912a6.883 6.883 0 0 0 4.252-1.021c.745 1.13 1.337 2.497 2.302 3.664.573.691 1.376 1.3 2.406 1.437 1.03.138 2.157-.171 3.461-.896a1.002 1.002 0 0 0 .38-1.381c-.894-1.53-1.64-5.438-.983-8 .328-1.28.913-2.163 1.82-2.572.907-.41 2.35-.43 4.615.595a1.002 1.002 0 0 0 .053.024c1.507.584 1.936 1.59 2.069 3.053.133 1.463-.214 3.255-.496 4.728-.142.737-.269 1.38-.28 1.987-.006.303 0 .606.162.97.163.364.64.761 1.094.814.907.107 1.4-.323 2.195-.904.796-.58 1.813-1.454 3.172-2.72a1.002 1.002 0 0 0 .123-.14c1-1.352 1.917-1.904 2.897-2.179.98-.275 2.08-.237 3.324-.18 2.488.117 5.656.16 8.543-3.06a1.002 1.002 0 0 0 .043-.05c1.345-1.714 1.505-3.9 1.082-6.075-.423-2.176-1.408-4.436-2.526-6.633-1.118-2.197-2.376-4.328-3.368-6.164-.811-1.5-1.202-2.578-1.44-3.44 2.496-.716 4.247-2.235 5.209-4.236 1.11-2.31 1.35-5.113 1.305-8.048-.09-5.871-1.303-12.438-.413-16.147a1.002 1.002 0 0 0 .002-.01c4.338-18.87 1.37-38.373.403-57.197v.035c-.065-4.168-.93-9.388-2.832-13.668-.951-2.14-2.163-4.05-3.725-5.455-1.561-1.404-3.512-2.283-5.738-2.238zM33.456 362.725c.374 3.027.163 2.533 1.258 3.653-.522-.28-1.053-.483-1.643-.485h-.002c-.457 0-1.032.19-1.375.633-.248.32-.244.703-.268 1.074-.129-.274-.153-.459-.312-.767.66-.995 1.416-2.341 2.277-3.985l.065-.123zm216.37 3.606c.82-.038 1.466.367 2.024.941-.067-.005-.137-.06-.203-.062a4.62 4.62 0 0 0-.326 0 1.002 1.002 0 0 0-.006 0c-1.703.066-3.923.833-5.357 1.976-.119.095-.19.238-.297.342-.034-.08-.045-.157-.082-.236 1.68-2.082 3.178-2.912 4.248-2.961zm-217.404 4.556c.06.128.064.211.132.346-.087.07-.113.107-.194.174.052-.17.052-.344.062-.52z"/>
  <path class="outfit02" fill="maroon" d="M232.472 226.256c-.273 0-.541.002-.806.008-2.366.055-4.333.33-5.652 1.01a.945.945 0 0 0-.422.434c-5.466 11.494-8.252 23.896-10.734 36.178-2.572 6.031-7.329 9.823-13.021 12.455-5.708 2.64-12.325 4.067-18.363 5.314a.94.94 0 0 0-.24.086c-2.883 1.48-4.517 3.85-5.286 6.566-.27.95-.343 1.987-.444 3.012-.166-.48-.211-1.03-.44-1.473-1.264-2.438-3.635-4.172-7.224-4.58-13.61-3.349-27.384-5.869-41.447-6.592-.043-.002-.086 0-.128.003-4.291.363-7.226-.652-9.397-2.513-2.171-1.861-3.6-4.653-4.547-7.948-1.883-6.547-1.812-14.91-2.53-21.05.518-3.687 1.325-9.168.37-13.2-.482-2.033-1.514-3.833-3.42-4.494-1.852-.642-4.224-.119-7.26 1.558-4.09.751-10.315.992-14.707 2.698-2.204.856-4.067 2.165-4.697 4.264-.613 2.04.072 4.543 2.084 7.613 3.066 11.133 2.004 23.25 5.09 34.678-1.327 11.919-1.58 23.864-2.783 35.72a.942.942 0 0 0-.007.116c.223 10.432-1.4 22.135-4.226 29.976a.945.945 0 0 0 .033.72c5.877 12.543 6.042 27.122 15.197 38.845a.945.945 0 0 0 .149.15c8.392 6.821 20.606 6.805 30.736 7.244h.006c12.024.947 24.267 4.306 36.664 2.34 2.002.26 3.666.17 5.002-.233-.084.073-.123.172-.21.243-.71.57-.284 1.716.626 1.681l5.608-.193a.945.945 0 0 0 .804-.51c-.035.069.107-.119.49-.287.384-.168.958-.34 1.647-.488 1.379-.297 3.216-.51 5.12-.658 3.805-.296 7.874-.331 9.411-.356.016 0 .031-.003.047-.003 5.629-.369 13.176-.09 20.035-1.216 6.86-1.127 13.202-3.74 15.957-10.024a.945.945 0 0 0 .043-.638c-1.75-6.1-.851-12.092.778-18.19 1.629-6.097 3.992-12.259 5-18.625l.004-.037c.134-1.13-.005-2.1-.528-2.844-.522-.743-1.363-1.122-2.226-1.253a82.928 82.928 0 0 0-3.518-.086 68.667 68.667 0 0 0 6.35-3.29c6.278-3.764 11.16-9.551 12.216-17.44 4.14-15.462-1.47-30.813-3.326-45.532a.946.946 0 0 0-.013-.076c-2.494-11.833-3.557-25.53 3.494-35.676a.936.936 0 0 0 .02-.027c1.536-2.386 1.909-4.606 1.269-6.469-.64-1.863-2.19-3.236-4.084-4.248-3.553-1.896-8.481-2.656-12.564-2.663z"/>
  <path class="outfit03" fill="#5f8dd3" d="M106.527 391.077c-8.73.268-17.137 6.966-19.363 16.915-.548 2.45-1.315 4.677-1.133 6.9H239.58c-.385-1.06-.828-1.845-1.34-2.148-.672-12.343-14.27-27.252-25.86-18.916-12 2.248-23.952-.469-35.53 2.554-.678-.46-.725-.087-.837-.436l-5.607.193c-18.694 3.185-37.013-4.54-55.691-4.04-2.338-.97-4.213-1.008-6.565-1.06-.795-.059-.97.053-1.623.038z"/>
  <path fill="#d3bc5f" d="M168.977 297.523a4.107 4.107 0 0 0-.314 0c-2.846.132-7.074 3.433-.731 5.314l1.78-1.14c1.753-2.993.799-4.112-.735-4.175zm-.82 30.434a4.743 4.743 0 0 0-.391.01c-2.731.212-6.366 3.258-1.772 6.27l2.207-.272c3.062-4.324 1.868-5.956-.043-6.007zm-2.398 27.354c-2.915.1-7.183 3.868-.694 6.08l.887-.345.976-.828c1.84-3.708.58-4.967-1.17-4.907zm.307 25.808a2.111 2.111 0 0 0-.252.003c-2.644.131-6.648 3.735-1.557 5.129l1.631-.376 1.168-.49c1.267-3.089.386-4.21-.99-4.264z"/>
  <path class="skin" fill="#f7ba8f" d="M59.608 363.358a2.72 2.72 0 0 0-2.55 1.711c-.386.965-.393 2.099-.263 3.295.24 2.197.997 4.526 1.593 6.088-1.216 1.4-2.505 1.615-4.102 1.299-1.714-.34-3.665-1.377-5.524-2.285-1.858-.909-3.64-1.782-5.355-1.329-.858.227-1.613.858-2.106 1.815-.492.956-.785 2.234-.917 3.967a.817.817 0 0 0 0 .101c.706 13.596 5.727 24.927 9.37 36.33a.78.78 0 0 0 .743.543h33.21c.39 0 .72-.29.772-.676.468-3.49 2.54-7.99 3.024-11.558 1.24-9.17-1.604-19.718-2.778-28.402.506-1.053.884-1.972 1.055-2.71.187-.81.214-1.488-.078-2.083-.292-.595-.955-.927-1.555-.955-.6-.029-1.204.133-1.851.39-2.427.963-5.468 3.423-7.493 5.829-.057-.048-.19-.078-.224-.137-.084-.144-.14-.398-.12-.758.042-.72.393-1.745.692-2.606.15-.43.284-.816.356-1.193.035-.189.068-.376.015-.639-.053-.263-.34-.661-.691-.758-.352-.096-.593-.01-.813.076a4.01 4.01 0 0 0-.687.366c-.504.32-1.149.806-2.024 1.521a.78.78 0 0 0-.203.256c-1.34 2.69-2.778 4.06-3.965 4.557-1.187.497-2.146.25-2.98-.502-1.668-1.504-2.463-5.334-.192-8.985a.78.78 0 0 0-.263-1.082c-1.682-1.001-2.979-1.48-4.096-1.486zm175.625 3.608c-1.005-.006-2.05.434-3.054 1.128a9.164 9.164 0 0 0-2.655 2.848c-1.38 2.343-1.612 5.624 1.05 8.549 1.407 2.187.757 4.436.16 6.783-.301 1.18-.599 2.357-.483 3.543.105 1.083.704 2.127 1.775 2.946 3.26 7.228 6.427 14.08 8.139 21.77.079.357.395.36.76.36h28.186c.314 0 .602.062.724-.228 1.48-3.548 2.744-6.55 2.754-9.673.607-4.25 3.424-11.516 4.05-17.298.315-2.899.113-5.542-1.504-7.256-1.577-1.671-4.326-2.109-8.388-1.127-1.013-.306-1.683-.669-2.004-1.002-.34-.353-.423-.65-.4-1.066.045-.832.802-2.095 1.615-3.258.406-.582.815-1.143 1.125-1.69.31-.546.598-1.089.449-1.784a1.515 1.515 0 0 0-.613-.893c-.3-.204-.64-.306-1.028-.367-.776-.122-1.787-.076-3.232.12l-.043.007c-2.026.394-3.276 1.626-4.004 3.004-.728 1.377-1.038 2.898-1.442 4.119-.403 1.22-.84 2.033-1.628 2.369-.78.332-2.23.273-4.784-.84-.496-.555-1.105-.95-1.771-1.129-.768-.205-1.577-.202-2.4-.109-1.648.186-3.393.733-4.979 1.053-1.586.32-2.949.373-3.816-.12-.85-.481-1.502-1.58-1.612-4.122 1-1.981 1.433-3.46 1.295-4.616-.072-.606-.328-1.154-.751-1.514-.424-.36-.964-.504-1.49-.507z"/>
  <path d="M217.446 221.62c-4.948-.128-2.676 7.779-3.726 12.92-6.262 9.903-8.05 22.043-15.87 31.043-10.338 4.137 1.488 4.826 3.82-1.21 5.422-10.696 10.254-21.72 14.917-32.667-4.047-11.342 14.196-5.451 5.281 2.64-6.22 11.304-3.738 26.72-12.934 35.952-8.666 9.225-22.651 6.468-32.198 13.523-7.195.62-15.224-2.377-22.508-3.72-11.4-3.084-24.626-.548-34.964-6.21-5.206-12.237-4.82-25.973-4.89-39.066.547-14.366 5.088 7.224 5.58 11.624 5.667 9.094.13 28.429 14.46 27.536 9.423-.67 18.246 1.688 28.436 1.55 9.91.31 19.477-3.382 28.482-7.058-7.591-.522-17.753 5.79-26.211 5.728-9.86-1.277-17.446-.037-26.968-2.554-10.186 3.098-12.608-7.221-13.157-15.516-4.75-8.667-2.882-23.649-6.642-29.8-11.43 2.223-22.852 2.535-33.938 6.432-9.794 5.011-24.163 3.855-29.894 14.803-6.44 9.677-13.383 19.237-16.894 30.562-2.813 12.14-10.815 23.228-9.857 36.063-.506 10.152 4.96 20.993.708 30.315-2.784 9.06-13.256 23.486-3.523 30.82 5.605 4.704 17.03-1.696 14.415 9.345 2.392 9.956 5.578 20.086 8.556 30.218h2.57c-3.658-11.448-8.639-23.485-9.336-36.914 1.026-13.377 12.295 4.317 18.116-3.33-1.45-3.63-4.605-14.276 4.028-9.134-4.88 7.845 2.932 16.86 8.496 5.688 6.903-5.645-.982 3.532 3.141 4.476 3.777-4.84 13.605-10.807 8.982-1.5 1.17 8.799 4.023 19.386 2.807 28.376-.455 3.364-2.53 8.66-3.024 12.338h2.323c.553-2.156 1.12-4.402 1.668-6.85 2.908-12.995 15.617-19.703 27.016-14.976 18.828-.503 37.292 6.368 56.142 2.995 9.324-6.493 1.895-20.857 4.563-30.666.193-11.623-1.655-2.768-2.14 3.566-4.087 8.462 7.272 27.618-8.265 25.487-12.184 1.973-24.396-1.376-36.59-2.336-10.166-.441-22.17-.496-30.215-7.036-8.921-11.422-9.096-25.877-15.086-38.661 2.889-8.013 4.51-19.774 4.285-30.318 1.213-11.957 1.459-23.951 2.794-35.864-3.094-11.273-1.981-23.483-5.137-34.912-8.292-12.302 8.213-11.809 16.643-13.37 12.206-6.934 10.17 7.821 9.135 15.192 1.438 12.075-.418 33.988 17.501 32.474 13.998.72 27.727 3.231 41.315 6.576 13.599 1.466 5.152 21.24 6.66 30.814.43 11.708-1.404 23.836-.861 35.372 3.344-12.013 2.668-24.633 2.857-36.987 3.63-10.266-5.275-27.36 5.35-32.813 12.087-2.496 26.733-5.734 32.087-18.37 2.486-12.314 5.267-24.685 10.694-36.096 4.72-2.43 27.955-.401 20.61 11.01-7.303 10.507-6.156 24.488-3.643 36.41 1.878 14.9 7.422 30.13 3.33 45.262-2.016 15.17-18.622 22.131-32.242 22.322-8.09-.455-10.767 2.417-.587 1.86 6.036 2.94 21.476-7.157 20.529.77-1.971 12.464-9.391 24.543-5.752 37.224-5.16 11.768-23.764 9.927-35.189 10.676-3.692.06-22.382-.596-16.334 3.507 11.577-3.023 23.638-.253 35.636-2.5 11.59-8.336 24.764 5.747 25.436 18.09.513.303.956 1.087 1.34 2.148h1.345c-1.74-7.814-4.944-15.266-8.22-22.527-4.508-2.944 1.762-8.34-1.5-13.335-7.705-8.306 10.44-17.545 4.175-5.525.365 11.19 11.66.681 14.99 5.213 10.797 4.765 5.178-7.17 12.394-8.576 11.265-1.534-5.747 7.265 3.888 9.976 16.435-4.198 6.408 15.903 5.158 24.803.01 2.921-1.218 6.422-2.7 9.971h2.004c1.867-6.416 3.451-12.923 4.969-19.424 1.75-11.896 9.016-5.343 14.746-12.086-.683-11.108-6.217-21.418-9.07-32.095 6.91-9.57 8.84-22.131 14.852-32.426 5.635-9.65 4.174-22.382-.721-32.657-5.28-11.732-5.136-24.068-12.69-35.02-4.457-12.03-9.353-22.812-28.227-21.004-10.47-2.344-21.616-6.855-32.82-7.056-2.04-1.018-3.565-1.475-4.707-1.505zm41.482 10.305c6.94-.053 15.244 4.11 17.296 10.056 6.774 10.592 12.104 21.862 13.128 34.502 2.759 10.01 10.472 18.68 7.955 29.687 1.057 13.335-9.556 22.36-12.574 34.676-7.2 3.267-8.747 10.268-7.122 18.311 1.377-13.85 5.279 6.87 7.458 10.994 4.036 10.591-.543 5.443-2.57-.522.822 3.83-.773 8.531-9.714 7.291-14.252 3.445 2.055-5.309-2.372-11.756-2.495-13.357 1.799 4.107-4.312 2.531-9.947-3.75-8.188 13.251-15.757 8.24 8.196-3.035 1.83-17.212-5.897-6.917 4.462 7.007-9.053 11.504-6.397 3.62 7.924-8.759-10.157-4.611-4.906-12.255 2.927-11.234 6.598-22.442 14.563-31.193 5.12-18.581.892-38.127-2.53-56.657-4.316-11.4-1.048-24.78 4.378-35.431 1.536-3.595 5.209-5.146 9.373-5.177zm23.571 137.704a9.286 9.286 0 0 0-.437-1.454c.125.485.274.972.437 1.454zM73.43 237.539c7.836-.157 11.15 12.298 11.275 20.376.97 18.893 3.905 38.297-.376 56.923-1.986 8.266 5.16 26.122-6.448 27.997.45 4.48 11.25 16.67 6.783 22.359-5.322 5.937-10.406-.49-14.825 5.494-10.765 10.02.586-5.24-6.872-8.129-9.672-4.38-8.936 7.62-6.73 11.394-4.774 2.655-5.067-1.916-7.344-4.65-4.005 4.434-18.566-2.702-13.495-9.403 4.46-13.393-2.954 3.489-5.392 6.861 3.63 6.75.393 4.929-5.263 4.766-3.567-8.473 2.979-22.013 8.76-29.698-1.65-12.418-6.15-25.145-3.413-37.779 4.424-12.21 8.739-24.427 13.353-36.569 7.397-9.016 10.951-23.81 23.092-27.082 2.607-1.96 4.898-2.82 6.896-2.86zm95.982 57.844c-4.523.016-9.898 4.008-3.28 9.053 2.298 1.476 5.135.16 6.827-1.602 2.6-5.357-.247-7.463-3.547-7.45zm-.748 2.14c1.708-.079 2.919.983 1.05 4.176l-1.782 1.139c-6.343-1.88-2.114-5.182.732-5.314zm.19 28.15c-4.6.024-10.177 6.801-3.305 11.222 4.118 2.383 8.635-1.934 7.708-6.212-.425-3.636-2.313-5.02-4.404-5.01zm-.642 2.286c1.88.081 3.023 1.724-.011 6.007l-2.206.272c-4.85-3.18-.53-6.397 2.217-6.279zm88.982 9.854c-.108-.008-.333.01-.727.08-.518.536 1.195-.042.727-.08zm11.36.426c-.34-.013-.613.095-.792.356 3.28.023 3.232 6.93 8.174 5.793 2.58 2.004-4.618-6.049-7.383-6.15zm-18.858.304a4.767 4.767 0 0 0-.395.004c-6.709 1.237-2.48 1.027.925 2.559 3.777 3.066 3.437-2.424-.53-2.563zm-204.71 2.79c-.637-.308-4.92 7.357-5.01 8.833 1.426.112 5.537-8.899 5.01-8.833zm53.939 3.577c-4.703 1.612 11.312 6.433 15.667 5.802 5.285.294 10.588-.419 15.856-.803-9.1-2.949-21.727-.704-31.523-5zm-27.797 4.871c-.473-.187 1.09 9.441 1.953 12.237 1.478.938-.327-6.07-.51-7.394-.834-3.423-1.271-4.775-1.443-4.843zm103.824 2.933c-.092-.026-.236.508-.426 2.14.554 1.645.66-2.074.426-2.14zm-8.546 1.428c-4.61.053-10.216 4.576-2.423 9.135 1.968.475 4.65.368 5.878-1.541 2.388-5.572-.3-7.63-3.455-7.594zm-.43 1.168c1.632.05 2.717 1.354.953 4.908l-.976.828-.887.345c-6.651-2.267-2.001-6.169.91-6.08zm-114.207 2.894c-.09.063-.337.72-.835 2.448-.03 2.5 1.105-2.64.835-2.448zm22.086 4.804c-.163-.004-.283.348-.252 1.364 1.623 1.874.742-1.35.252-1.364zm-40.787 3.887c2.197.004 8.239 6.02 4.552 8.377-6.168-.35-10.426 1.373-3.891-3.75-1.865-3.39-1.66-4.629-.661-4.627zm218.288 1.32c1.427-.056 1.873.69-.954 2.926l-1.985 1.399c-6.084-1.187.214-4.22 2.939-4.326zM87.8 375.511c.647-.683.119-2.696.782-2.684.347.006.714.624.91 2.423l3.106 7.087c.987 2.252 3.99 6.539 4.835 7.337.644.608-4.797 4.049-6.03 5.573-.804 1.58-1.396 1.597-1.835.819-1.002-1.777-.202-4.623-.628-8.598-.642-5.997-2.36-10.672-1.772-11.29zm194.315 2.023c.89.02 1.478.488 1.173 1.77l-1.35.322c-7.871 1.831-2.49-2.15.177-2.092zm4.588 1.156c2.146-.068.593 5.465-5.33 4.504-5.246 2.03-.03-1.761 1.58-1.66 1.713-2.062 2.973-2.82 3.75-2.844zm-121.252.89c-3.585-.026-7.017 2.455-3.636 8.232 1.645 2.209 4.642.294 6.729.372 5.233-5.325.971-8.575-3.093-8.605zm.614 1.539c1.376.053 2.257 1.176.99 4.265l-1.169.489-1.63.376c-5.255-1.44-.82-5.232 1.809-5.13zm58.54 15.083c1.729 2.041 6.428 10.788 8.181 18.69h1.023c-.623-6.901-3.57-16.551-9.205-18.69zm-119.627.222c-6.916 3.433-10.169 10.834-12.286 18.468h1.923c1.348-5.164 3.002-10.757 6.208-13.456-.293 2.435-2.075 7.58-3.834 13.456h1.79c2.704-6.24 6.265-12.182 6.2-18.468zm98.397 2.489c-.94-.058-7.364 10.642-4.76 14.561 1.793-2.066 1.212-6.763 2.94-9.447 1.782-3.665 2.16-5.094 1.82-5.114zm-83.503.293c-.655-.013-1.035.33.057 1.379 2.898-.355 1.037-1.359-.057-1.38zm-7.802.466c-1.83-.016-4.036 1.624-5.354 5.208-4.422 9.755 1.6 2.094 3.768-2.269 3.677.95 2.54 6.43 1.403 12.281h1.7c.31-2.968.63-5.763.97-7.553 1.59-4.886-.136-7.646-2.487-7.667zm98.56.3c-1.22.017-2.61 1.26-4.143 4.332-4.053 10.688 1.064 2.909 3.154-2.38 3.918 1.445 4.225 6.957 4.296 12.968h2.252c-.204-5.944-2.246-14.964-5.56-14.92zm14.727.57c-.117-.015-.275.027-.476.166.736 1.04.985-.1.476-.165zm-63.818.204c.32 2.261.864 8.428.894 14.146h1.26c.817-5.095.911-10.97-2.154-14.146zm-3.542.118c-.378.036-1.381 1.24-3.304 4.226a93.761 93.761 0 0 0-4.145 9.802h2.285c2.207-4.638 6.251-14.13 5.164-14.028zm67.858 1.843c-.074.003-.133.418-.15 1.534.957 4.783.44-1.545.15-1.534zm-88.502 3.493c-.578-.113-2.838 2.56-3.89 6.245-.793 2.558 2.924-1.073 1.793-1.527 2.102-3.257 2.493-4.64 2.097-4.718zm34.196 1.37c-.252.045-.377.642.104 2.254 1.09-.865.316-2.328-.104-2.254zm-.026 3.451c-.11-.05-.252.706-.412 2.938.05.385.095.664.14.933h.493c.055-1.46-.038-3.786-.221-3.87zm33.354 2.51c-.115-.004-.235.113-.331.44 1.08 1.104.741-.43.331-.44zm-102.17.504c-.137-.02-.41.143-.881.63.01.086.015.16.025.227h.75c.205-.368.317-.828.106-.857z"/>
</svg>
