<svg xmlns="http://www.w3.org/2000/svg" width="1278.065" height="1569.494" viewBox="0 0 338.155 415.262">
  <path fill="none" d="M.5.5h337.155v414.262H.5z" paint-order="stroke fill markers"/>
  <path class="outfit01" fill="#ececec" d="M200.815 222.477c2.35-.12 4.237 14.025 2.9 18.303-3.198 14.67-13.214 27.071-16.098 41.902-3.785 12.302-3.68 25.149-3.515 37.835-1.252 10.925-8.765 20.303-16.104 27.99-3.94 1.18-1.53-10.573-3.374-13.639 1.499-17.067-3.995-33.772-3.587-50.799 3.76-8.997 13.016-15.805 15.021-25.083.667.487 17.058-2.224 11.54-4.428-8.697 6.165-13.48-.24-12.063-8.952 9.753-1.278 19.71-7.667 22.88-17.363.784-4.103 1.617-5.727 2.4-5.766zm-65.605-1.58c.691-.067.416 4.641 2.547 8.142 5.246 10.681 22.94 13.75 21.284 27.15-8.625 4.676.643 13.311 2.366 21.456-2.534 8.663-1.2 19.295-.718 28.966 2.28 11.263 1.192 22.775 2.792 34.023l.307 2.028.071 1.285c-6.294-5.258-12.38-14.077-16.87-21.858.673-12.149 1.426-24.342.178-36.522-1.71-11.1-5.797-21.797-9.762-32.251-4.614-10.615 2.163 1.848 6.89 1.869-6.225-8.317-18.253-17.948-11.455-29.385 1.379-3.517 2.007-4.865 2.37-4.903z"/>
  <path class="outfit02" fill="#d3bc5f" d="M183.742 331.03c1.631 1.591 1.27 17.448 2.4 23.509.188 17.89 2.53 35.577 4.584 53.294 1.109 1.484.92 4.42.698 7.312h-29.838c-.593-6.254-2.857-14.35-1.813-19.1.181-13.188-2.55-27.197 2.617-39.696 10.053-5.462 16.855-14.864 21.352-25.318zm-36.907-.385c2.004.156 6.6 8 10.115 10.254 13.446 8.095-2.38 16.31.383 27.687-1.165 15.463-.55 31.176 1.133 46.559h-21.4c.151-10.977 1.01-21.92 2.82-32.768 3.565-15.065 6.92-30.323 6.166-45.93-.504-4.355-.128-5.872.783-5.802z"/>
  <path fill="#ffe6d5" d="M289.027 379.854c6.571.11 1.135 10.419-1.15 16.628-1.748 6.21-7.25 12.593-10.37 18.663h-25.723c2.044-8.024 3.63-16.208 5.167-24.326-1.153-6.162.368-10.115 4.428-11.316 5.85-1.73 15.893 1.03 21.73.84 2.05-.728 4.7-.51 5.918-.49zm-246.264-1.01c5.735.14 15.937 2.027 21.272-.16 8.631.828 7.114 12.391 10.09 19.306 1.942 4.516 1.885 12.288 5.063 17.155l-41.746.13c-3.905-11.26-4.748-25.735-6.262-37.547 1.218-1.506 9.339 1.061 11.583 1.116z"/>
  <path class="outfit03" fill="#500" d="M133.065 214.332c-1.822.137-6.516 2.863-4.957 2.013-6.572 5.189-12.45 7.664-14.74 11.563-.142-.402-2.544-1.581-2.96-1.494-11.2 1.681-30.321 9.556-41.995 15.427-3.48 1.347-9.172 3.117-13.508 7.301-2.531 5.981-6.676 10.028-8.814 18.647-1.774 7.233-2.974 14.186-4.742 20.45a.838.838 0 0 0-.031.218c-2.26 10.873-6.645 31-8.422 44.668-.62 2.739-1.66 5.665-2.327 8.377-.668 2.711-1.03 5.27.096 7.294l.246.02c-.616.432-1.242.897-1.876 1.395-2.022-.041-3.771.88-4.628 2.603-.825 1.66-.855 3.942-.184 6.76-1.328 3.212-1.395 6.148-.484 8.648.935 2.565 2.835 4.645 5.19 6.254 4.708 3.218 17.617 4.646 22.877 4.293l-.022.003c3.542-.15 2.552 1.04 6.382.027 1.378.085 2.513-.046 3.43-.438a3.997 3.997 0 0 0 2.031-1.905c2.962 8.159 2.935 16.824 4.857 26.462-.264 1.134 1.42 5.914 1.674 7.342.277 1.554.744 3.25 1.228 4.93.105.364.438.086.817.086l62.603.19c.46-.001.837.161.85-.3.12-4.951.75-10.544.777-14.244 5.952-28.47 9.145-56.25 9.098-87.57 1.644-17.401.956-35.646-6.588-51.899l-.027-.07c-4.033-11.08-11.211-22.433-8.941-33.873.758-1.878 2.548-4.899 3.77-7.467.618-1.297 1.105-2.454 1.216-3.492.055-.519.027-1.069-.326-1.549-.353-.479-.982-.687-1.57-.67zm74.518 1.496c-2.047.036-4.292.697-6.797 2.138a.85.85 0 0 0 0 1.47c1.45.847 2.388 2.159 3.011 3.874.624 1.715.901 3.818.975 6.078.146 4.47-.49 9.503-.457 13.543-3.904 15.935-14.01 30.04-16.375 46.951v.022c-3.421 14.772-1.921 30.08-2.053 44.888v.088c1.919 20.457 1.86 41.21 5.43 61.627.382 6.306 1.517 12.511 2.076 18.713.04.438.406.244.846.245h58.775c.378 0 .71.28.816-.083.744-2.554.24-5.48 1.102-8.246.828-2.661 1.882-5.217 1.677-7.475.99-8.025 2.977-15.409 3.707-22.342.843.423 1.796.83 2.87 1.214 1.556 1.545 5.373.714 9.315-.02 4.752-.18 10.531.445 16.062.17 5.551-.275 10.94-1.475 14.691-5.504a.85.85 0 0 0 .072-.088c1.373-1.929 1.809-3.917 1.801-5.802-.01-1.885-.425-3.679-.725-5.383-.3-1.705-.482-3.308-.15-4.83.332-1.522 1.152-3.012 3.06-4.586a.85.85 0 0 0 .291-.48c.315-1.487.138-3.614-.402-5.456-.27-.921-.625-1.762-1.174-2.408-.548-.646-1.494-1.09-2.402-.791a.85.85 0 0 0-.581.856c.136 2.357-.086 4.618-1.13 6.244-1.044 1.626-2.905 2.792-6.597 2.941a.974.974 0 0 0-.14.018c-.035-.015-.072-.026-.107-.04a163.601 163.601 0 0 0 6.137-4.628.85.85 0 0 0 .366-.596c1.238-9.71-1.992-18.736-2.367-27.832a.705.705 0 0 0-.02-.145c-1.46-6.777-2.301-12.563-.792-18.79a.85.85 0 0 0-.029-.495c-6.19-16.673-7.172-29.785-12.911-46.926-1.527-6.047-7.163-11.373-11.205-12.791-4.038-1.418-5.713-1.514-9.716-2.91-3.094-1.715-9.808-4.931-16.131-6.6-6.379-1.683-21.482-4.68-22.877-5.072-3.06-1.503-6.309-3.975-9.558-7.046-2.338-2.149-5.036-3.775-8.38-3.715zm-40.53 144.586c-2.195.965-2.148-.912-2.568 2.035 2.181 2.904 1.63 2.14 3.713 2.388 1.26.52.758-1.64.546-2.792-.37-.421-1.09-1.48-1.69-1.631zm1.69 1.63c.258.294.351.287.094-.59-.234-.281-.192.057-.093.59zm-3.662 21.919c-2.325.866-1.513 4.803.353 3.914.714.103 1.476-.178 2.217-.78a.85.85 0 0 0 .131-1.187c-1.003-1.267-1.736-1.922-2.701-1.947z"/>
  <path d="M134.351 213.167c-6.659.077-15.818 5.39-18.693 10.842-4.423.364-30.306 7.41-43.37 15.967-19.759 5.145-21.266 12.871-24.542 20.403-3.9 8.965-6.402 13.594-8.254 27.914.197 8.736-1.838 17.033-4.414 25.286-2.684 10.316-2.45 20.363-6.057 30.556-9.187 6.257-8.611 19.848-4.184 29.502 2.592 3.748 4.718 3.223 4.829 3.566 1.308 4.073.995 11.05 2.193 16.038 2.023 7.387 3.626 14.603 5.583 22.033l3.325.018c-3.47-11.583-7.25-22.78-8.271-34.821 6.285 2.934 18.823 2.997 26.598 1.029 2.023-.512 2.87-1.284 3.78.015 2.873 4.1 1.898 14.482 3.908 19.833 1.786 4.756 1.533 8.264 3.614 13.85l2.592-.003c-.867-3.55-2.212-5.194-2.36-7.281-.772-10.842-4.172-21.29-4.753-32.243-2.127-10.578-1.594-21.36-3.989-31.866-2.894-16.127-.339-32.037 1.626-48.29.384-11.67 2.95-23.56 4.98-35.236-4.646 10.42-6.38 26.226-7.503 39.198-2.536 15.852-3.137 31.913-.906 47.795 6.105 13.76-13.68 3.862-20.942 3.586-16.416-.152-.315-16.646-3.857-25.4-.274-12.298 5.72-24.506 6.446-36.958 2.073-6.298 1.545-6.671 3.309-13.846.446-2.388 3.767-14.274 7.115-20.32.634-1.145 2.902-4.031 4.877-5.47 4.366-3.179 14.88-8.734 14.82-6.55-.03 1.117-1.025 3.525-.994 6.936 3.248-7.158 3.639-10.05 9.197-11.854 12.255-6.597 22.642-9.528 32.516-9.206 1.324 3.751-5.863 16.135-6.278 23.174-1.43 12.545 13.26 21.208 7.457 34.768 3.172 14.629 11.596 27.541 16.354 41.705 5.626 11.16 7.428 23.544 7.096 35.924-1.075 14.511 3.77.103 2.28-6.075.222-14.454-6.09-27.548-11.165-40.685-6.025-13.566-15.838-27.985-10.922-43.503-3.064-8.818-11.378-16.37-7.756-26.518 3.604-11.228 7.683-24.032 18.899-29.901 11.094-6.435 2.623 5.14.616 10.19-2.408 11.925 5.011 23.484 8.997 34.471 7.483 16.074 8.18 34.196 6.538 51.55-1.307 18.097.712 36.54-3.862 54.327-3.765 10.731-3.49 22.116-5.233 33.223-.02 3.723-.706 9.651-.797 14.805h2.264c.132-11.145.99-22.255 2.829-33.268 3.565-15.065 6.92-30.323 6.166-45.93-1.614-13.935 5.783 1.174 10.898 4.451 13.445 8.096-2.38 16.31.383 27.688-1.178 15.63-.54 31.516 1.186 47.059h3.115c-.514-6.315-2.934-14.724-1.862-19.601.181-13.188-2.55-27.197 2.617-39.695 10.054-5.463 16.855-14.864 21.352-25.319 1.631 1.59 1.27 17.447 2.4 23.508.188 17.891 2.53 35.578 4.584 53.295 1.174 1.57.896 4.763.66 7.812h2.895c-.55-6.455-1.748-12.85-2.13-19.285-3.553-20.318-3.498-41.049-5.422-61.56.132-14.876-1.35-30.128 2.037-44.726 2.31-16.696 12.437-30.802 16.388-47-.096-7.919 2.645-20.526-3.944-24.372 10.296-5.92 14.88 2.405 20.727 8.589 5.502 7.068 12.726 23.186 7.16 31.247-9.954 6.33-6.3 18.576-8.227 27.923-5.615 10.231-11.147 20.427-14.166 31.754-5.595 11.253-10.09 22.962-11.962 35.448-2.502 7.995-1.672 20.494-.258 26.596 2.03-16.423 2.674-33.307 8.792-48.936 6.154-12.448 8.64-26.584 17.243-37.779 9.595-8.694-1.89-24.367 10.4-31.3 7.03-8.351 1.464-27.245-5.63-34.837 3-.353 31.011 6.921 36.649 11.904 8.386 2.933 17.262 1.099 20.153 12.765 5.68 16.961 9.74 32.24 16.001 49.107-1.554 6.416-.68 12.361.787 19.17.383 9.268 3.58 18.233 2.374 27.69-6.696 4.566-17.358 5.316-25.85 4.944-15.784 3.097-8.296-10.374-9.002-18.93 1.511-12.961.875-18.132.926-31.265.057-14.636-1.263-31.126-2.97-43.822-4.235 6.5 1.179 32.524.861 48.785-.182 9.362-.036 10.377-1.59 28.049-2.87 21.213-4.847 42.77-9.364 63.745.524 4.287-2.574 10.786-4.044 16.096h3.557c2.105-8.184 2.905-11.49 5.29-24.826.808-4.512 1.564-10.245 3.976-9.754 4.234.863 12.082.561 19.007.335 13.125-4.653 7.477 7.722 4.768 15.082-1.795 6.38-7.032 12.945-10.098 19.163h3.238c5.554-9.248 11.5-19.033 13.389-29.684.372-2.1.635-4.036 1.621-5.005 3.64-3.575 12.34-1.072 12.19-9.726-2.052-8.476 4.44-16.082 2.098-24.336-7.854-6.409-1.53.924-1.955 4.94-8.097 6.678.926 13.65-4.138 20.765-7.062 7.585-23.672 4.683-33.397 5.065-15.345 2.85-4.144-13.598-6.08-22.288 10.22.881 22.096 1.012 32.195-1.13 12.384-.5 8.695-9.84 7.504-18.414-2.06-11.307-4.554-23.09-2.257-33.73-5.83-16.466-10.658-30.75-15.128-47.547-1.452-9.43-7.948-13.722-18.941-16.009-8.572-5.761-35.34-12.364-44.11-15.58-8.272-4.45-13.164-14.28-23.798-5.192-.776 13.182-11.749 24.733-24.961 25.73-.12 8.201 1.894 18.993-6.149 26.614-5.586 14.056-6.003-2.814-10.809-7.256 8.389-4.574 4.086-19.614-5.644-23.14-6.445-6.319-18.734-15.217-12.777-25.146-1.227-1.004-2.762-1.428-4.46-1.409zm.86 7.73c.691-.07.415 4.64 2.546 8.142 5.246 10.681 22.94 13.75 21.285 27.149-8.626 4.677.643 13.312 2.366 21.457-2.534 8.663-1.2 19.294-.718 28.966 2.281 11.263 1.192 22.774 2.792 34.023l.307 2.028.07 1.285c-6.294-5.258-12.38-14.077-16.87-21.858.674-12.15 1.426-24.342.179-36.522-1.71-11.1-5.798-21.797-9.762-32.252-4.614-10.614 2.162 1.849 6.89 1.87-6.225-8.317-18.253-17.948-11.456-29.385 1.38-3.52 2.008-4.867 2.37-4.903zm65.605 1.58c2.35-.12 4.237 14.025 2.9 18.303-3.198 14.67-13.215 27.07-16.099 41.901-3.785 12.303-3.68 25.15-3.515 37.835-1.252 10.925-8.765 20.304-16.104 27.99-3.94 1.18-1.53-10.573-3.373-13.638 1.498-17.067-3.996-33.772-3.588-50.799 3.761-8.997 13.016-15.805 15.022-25.083.666.486 17.058-2.225 11.54-4.428-8.697 6.165-13.48-.24-12.063-8.952 9.753-1.278 19.709-7.667 22.88-17.363.783-4.103 1.617-5.727 2.4-5.767zM170.13 286.08c-1.344.035-2.368 1.69-.215 4.96 7.19 3.293 3.706-9.638 2.556-1.26.28-2.498-1.155-3.73-2.34-3.7zM42.656 295.81c-1.508-.02-.1 6.06 4.113 7.637 6.218 3.47.622-2.488-.998-4.177-1.49-2.51-2.526-3.453-3.115-3.46zm124.846 23.002c-1.23.003-1.672 1.08.47 4.3 8.76.904 2.237-4.304-.47-4.3zm1.946 1.254c.255.026.61.41 1.042 1.447-1.674 1.612-1.808-1.527-1.042-1.447zm-42.478 30.853c-2.552.006-5.154 1.661-3.077 5.49 1.397.86 3.227.487 4.68.08 4.117-3.466 1.29-5.577-1.603-5.57zm-97.362-.29c1.62.102 3.575.847 5.72 2.254 7.68 3.413 19.357 3.009 26.273 5.168-2.822 6.66 7.367 21.468-3.435 20.22-3.674.849-9.62-.101-13.343-.104-10.128.244-25.5-6.749-19.511-19.11-1.21-5.771.733-8.654 4.296-8.429zm174.993 5.147c-2.041.028-3.416.797-1.706 3.013l1.406.06 2.472-.017c8.055-.459 1.726-3.11-2.172-3.056zm-37.454 3.96c-3.047-.067-6.677 2.93-2.505 7.004 1.694.58 3.726.073 4.983-1.19 1.657-4.085-.255-5.765-2.478-5.814zm-.126 1.529c.847.033 1.627.735 1.283 2.73-4.465-.556-2.966-2.633-1.453-2.728.057-.004.113-.004.17-.003zm-136.17-.148c-1.898-.158 10.433 5.453 12.983 6.05 10.262 2.898-5.875.972-3.4 4.214l2.13.481 1.493-.142c15.69-1.868-3.534-8.68-9.324-9.44-2.249-.783-3.444-1.127-3.882-1.163zm268.216 3.658c-.439.008-1.023.047-1.771.122-2.868 2.142-22.168 1.269-14.462 3.147 2.31 1.896 21.054-3.108 16.624-3.267a8.422 8.422 0 0 0-.391-.002zm-174.314 16.892c-1.898.06-3.101 1.713-.551 6.441 9.525-1.6 3.934-6.55.55-6.441zm41.214 2.097c-3.127 0-6.705 2.402-1.459 5.525l1.93.104 1.644-.481c2.477-3.696.317-5.149-2.115-5.148zm-.908 1.049c.437.011 1.116.436 2.057 1.625-2.498 2.03-3.367-1.66-2.057-1.625zm40.924.016c-1.984-.031-3.526.629-3.008 2.646 1.59 1.03 3.55.287 5.269.523 8.604.317 2.104-3.1-2.26-3.169zM124.32 409.9c-1.794-.01-3.152 1.417-1.112 5.658 8.303-1.63 4.102-5.641 1.112-5.658zm79.477.449c-7.254.643-2.576 3.02 2.349 3.18 6.29-.842-.569-3.172-2.349-3.18z"/>
</svg>
