<?xml version="1.0" encoding="UTF-8" standalone="no"?>
<!-- Created with Inkscape (http://www.inkscape.org/) -->

<svg
   xmlns:dc="http://purl.org/dc/elements/1.1/"
   xmlns:cc="http://creativecommons.org/ns#"
   xmlns:rdf="http://www.w3.org/1999/02/22-rdf-syntax-ns#"
   xmlns:svg="http://www.w3.org/2000/svg"
   xmlns="http://www.w3.org/2000/svg"
   xmlns:sodipodi="http://sodipodi.sourceforge.net/DTD/sodipodi-0.dtd"
   xmlns:inkscape="http://www.inkscape.org/namespaces/inkscape"
   width="338.15475mm"
   height="415.26193mm"
   viewBox="0 0 338.15475 415.26193"
   version="1.1"
   id="svg8"
   inkscape:version="0.92.3 (2405546, 2018-03-11)"
   sodipodi:docname="Outfit03.svg">
  <defs
     id="defs2" />
  <sodipodi:namedview
     id="base"
     pagecolor="#ffffff"
     bordercolor="#666666"
     borderopacity="1.0"
     inkscape:pageopacity="0.0"
     inkscape:pageshadow="2"
     inkscape:zoom="0.35"
     inkscape:cx="657.29544"
     inkscape:cy="632.56899"
     inkscape:document-units="mm"
     inkscape:current-layer="layer1"
     showgrid="false"
     inkscape:window-width="1920"
     inkscape:window-height="1001"
     inkscape:window-x="-9"
     inkscape:window-y="-9"
     inkscape:window-maximized="1"
     inkscape:snap-global="true"
     showguides="true"
     fit-margin-top="0"
     fit-margin-left="0"
     fit-margin-right="0"
     fit-margin-bottom="0" />
  <metadata
     id="metadata5">
    <rdf:RDF>
      <cc:Work
         rdf:about="">
        <dc:format>image/svg+xml</dc:format>
        <dc:type
           rdf:resource="http://purl.org/dc/dcmitype/StillImage" />
        <dc:title></dc:title>
      </cc:Work>
    </rdf:RDF>
  </metadata>
  <g
     inkscape:label="Ebene 1"
     inkscape:groupmode="layer"
     id="layer1"
     transform="translate(1355.1667,-269.28568)">
    <rect
       style="opacity:1;fill:none;fill-opacity:1;fill-rule:evenodd;stroke:none;stroke-width:0.99999988;stroke-linecap:round;stroke-linejoin:miter;stroke-miterlimit:4;stroke-dasharray:none;stroke-dashoffset:0;stroke-opacity:1;paint-order:stroke fill markers"
       id="rect1307"
       width="337.15475"
       height="414.26193"
       x="-1354.6667"
       y="269.78568"
       inkscape:label="Frame" />
    <path
       id="path1071"
       style="fill:#ececec;stroke-width:0.26458332"
       d="m -1154.3512,491.76226 c 2.3494,-0.11887 4.2366,14.02539 2.8996,18.30328 -3.198,14.67032 -13.2143,27.07124 -16.0982,41.90183 -3.7849,12.30262 -3.68,25.14882 -3.5151,37.8349 -1.252,10.92491 -8.7648,20.30375 -16.1039,27.99053 -3.9402,1.17944 -1.5299,-10.57354 -3.3734,-13.63895 1.4984,-17.06742 -3.9952,-33.77171 -3.5879,-50.79897 3.7613,-8.99713 13.0165,-15.80478 15.0218,-25.0827 0.6664,0.48612 17.0581,-2.22494 11.5393,-4.42867 -8.6963,6.16493 -13.4794,-0.24016 -12.0628,-8.95139 9.753,-1.27819 19.7097,-7.66757 22.8803,-17.36329 0.7835,-4.10292 1.6173,-5.72694 2.4003,-5.76657 z m -65.6058,-1.57923 c 0.6913,-0.067 0.4161,4.64066 2.5472,8.14214 5.2458,10.68096 22.9401,13.74999 21.2844,27.14873 -8.6257,4.67691 0.6427,13.31185 2.3658,21.45708 -2.5336,8.66302 -1.1995,19.29426 -0.7178,28.96568 2.2806,11.26295 1.1917,22.77473 2.7921,34.02326 l 0.3069,2.02776 0.071,1.28519 c -6.2943,-5.25812 -12.3799,-14.07732 -16.8702,-21.85808 0.6732,-12.1491 1.4259,-24.34198 0.1782,-36.52181 -1.7103,-11.10017 -5.7975,-21.79684 -9.7621,-32.25178 -4.6139,-10.61441 2.1629,1.84854 6.8905,1.86914 -6.2255,-8.3168 -18.2534,-17.94779 -11.4557,-29.38477 1.3789,-3.51732 2.007,-4.86511 2.3694,-4.90254 z"
       inkscape:connector-curvature="0"
       inkscape:label="Kleidung_01" />
    <path
       id="path1059"
       style="fill:#d3bc5f;stroke-width:0.26458332"
       d="m -1171.4245,600.31636 c 1.6309,1.59046 1.27,17.44689 2.3998,23.50812 0.1881,17.89063 2.5296,35.57707 4.5837,53.29442 1.1093,1.48354 0.9212,4.41941 0.6987,7.3117 h -29.838 c -0.5937,-6.25345 -2.8578,-14.34965 -1.8138,-19.10064 0.1814,-13.18752 -2.5498,-27.19654 2.6174,-39.69525 10.0535,-5.4624 16.8551,-14.86408 21.3522,-25.31835 z m -36.9074,-0.3855 c 2.0043,0.15545 6.5994,8.00071 10.1157,10.25364 13.4451,8.09567 -2.38,16.30974 0.3824,27.68719 -1.1646,15.46286 -0.5506,31.17559 1.1333,46.55891 h -21.4002 c 0.1515,-10.97732 1.0096,-21.91903 2.8199,-32.7675 3.565,-15.0653 6.9201,-30.32308 6.1666,-45.93053 -0.5042,-4.3546 -0.1286,-5.87238 0.7823,-5.80171 z"
       inkscape:connector-curvature="0"
       inkscape:label="Kleidung_02" />
    <path
       id="path1037"
       style="fill:#ffe6d5;fill-opacity:1;stroke-width:0.26458332"
       d="m -1078.3108,649.66838 c 6.5713,0.10977 2.1939,9.89015 -0.092,16.09979 -1.7475,6.20908 -7.2488,12.593 -10.3689,18.66243 h -19.373 c 2.0431,-8.02423 3.6287,-16.2076 5.1661,-24.32566 -2.8132,-15.04016 9.9206,-9.09587 19.8081,-9.41853 2.0507,-0.72705 3.6427,-1.03835 4.8597,-1.01803 z m -222.4511,-1.53893 c 5.7351,0.13933 13.8201,3.61458 19.1544,1.42836 8.6313,0.82764 3.7203,13.67128 8.0109,19.85613 0.4749,4.89278 0.5492,10.01651 1.3224,15.01666 h -24.5592 c -3.9043,-11.25828 -7.7607,-22.58076 -9.2754,-34.39324 1.2189,-1.50624 3.1028,-1.96241 5.3469,-1.90791 z"
       inkscape:connector-curvature="0"
       inkscape:label="Kleidung_Haut" />
    <path
       style="fill:#550000;stroke-width:0.26458332"
       d="m -1222.1016,483.61719 c -1.8212,0.1368 -6.5163,2.86363 -4.957,2.01367 -11.5563,6.06907 -15.6756,19.13964 -19.2734,30.34961 -8e-4,0.002 0,0.004 0,0.006 -1.8998,5.32819 -0.646,10.05338 1.4043,14.40039 2.0228,4.28867 4.7749,8.31066 6.2695,12.50195 -0.3993,1.31915 -0.604,2.62248 -0.8086,3.92578 -0.4527,-3.38684 -1.7521,-6.54826 -3.2812,-9.54687 -2.7913,-5.47395 -5.9568,-10.59655 -5.2812,-16.52149 4e-4,-0.015 4e-4,-0.0299 0,-0.0449 0.1922,-3.26125 2.0528,-8.11923 3.7382,-12.57031 0.8427,-2.22554 1.6366,-4.35855 2.1465,-6.21484 0.5099,-1.8563 0.8059,-3.41891 0.3457,-4.72266 -0.1419,-0.40186 -0.5594,-0.63653 -0.9765,-0.54883 -10.9298,2.3085 -31.4447,8.86681 -41.7032,11.92969 -2.9288,-0.98314 -5.1923,-0.89243 -6.7422,0.20703 -1.6202,1.14937 -2.3358,3.1133 -2.7011,5.22461 -0.3654,2.11131 -0.3823,4.44476 -0.4121,6.54687 -8e-4,0.0558 -0.011,0.0774 -0.012,0.13282 -0.2109,-0.14834 -0.6246,-0.23423 -0.9121,-0.12305 -0.5796,0.22424 -0.6055,0.54746 -0.7089,0.80664 -0.1034,0.25919 -0.1817,0.54638 -0.2579,0.88672 -0.1522,0.68067 -0.2871,1.56281 -0.4179,2.58008 -0.5233,4.06908 -0.9721,10.37184 -1.3203,12.23828 -1.7739,7.23348 -2.4452,14.18647 -4.2129,20.45117 -0.02,0.0706 -0.03,0.1435 -0.031,0.2168 -0.1881,12.23164 -5.6732,24.70482 -4.8535,37.26758 0.01,0.10262 0.032,0.2032 0.074,0.29687 0.8474,1.86029 0.6794,4.36486 0.061,7.10352 -0.6189,2.73865 -1.6585,5.66529 -2.3262,8.37695 -0.6677,2.71165 -1.03,5.27077 0.096,7.29492 0.5628,1.01208 1.5183,1.81877 2.8262,2.30859 1.302,0.48766 2.9552,0.69558 5.0644,0.62696 1.6397,-0.008 4.1867,0.52651 6.8907,1.15234 2.7039,0.62583 5.5834,1.33418 8.0957,1.62305 1.2561,0.14443 2.4219,0.18766 3.4589,0.0391 1.0371,-0.1486 1.9834,-0.49729 2.6504,-1.22461 0.667,-0.72732 0.9469,-1.77853 0.8282,-2.98437 -0.1128,-1.14428 -0.6009,-2.51608 -1.3829,-4.13672 v -0.002 c -2.9123,-15.78546 -6.218,-31.43796 -8.0468,-47.33399 0,-0.0203 -0.01,-0.0405 -0.01,-0.0606 -2.002,-10.5871 -4.4565,-21.29576 -4.1094,-31.9375 1.24,9.12292 1.5503,18.53447 3.7949,27.73438 2.4915,16.17082 4.7632,32.36737 8.3555,48.39844 0,0.0131 0.01,0.0262 0.01,0.0391 2.7807,10.16541 1.6736,20.96752 4.2715,31.60547 1.0533,10.9217 3.0176,21.32735 5.0645,31.95898 -0.2639,1.13331 -0.1865,2.41781 0.068,3.84571 0.2773,1.55335 0.7444,3.24904 1.2285,4.92968 0.1047,0.36411 0.4376,0.0858 0.8165,0.0861 h 48.9199 c 0.4609,-1e-4 0.8377,0.16175 0.8496,-0.29896 0.1213,-4.95142 0.75,-10.54405 0.7773,-14.24414 1.7498,-11.19126 1.4976,-22.49747 5.1914,-33.02344 0.01,-0.0231 0.014,-0.0466 0.02,-0.0703 4.624,-17.98186 2.5865,-36.4833 3.8867,-54.47656 1.6444,-17.4009 0.9562,-35.6454 -6.5879,-51.89844 l -0.027,-0.0703 c -4.0327,-11.08018 -11.2115,-22.43286 -8.9415,-33.87305 0.7582,-1.87779 2.549,-4.89853 3.7715,-7.4668 0.6174,-1.29686 1.1043,-2.45476 1.2149,-3.49218 0.055,-0.51872 0.027,-1.06899 -0.3262,-1.54883 -0.353,-0.47984 -0.9838,-0.68811 -1.5723,-0.66992 z m 74.5176,1.49609 c -2.0465,0.0366 -4.2914,0.69791 -6.7969,2.13867 -0.5648,0.32756 -0.5648,1.14315 0,1.47071 1.4505,0.84664 2.3883,2.15797 3.0118,3.87304 0.6234,1.71507 0.9009,3.81771 0.9746,6.07813 0.1457,4.46926 -0.49,9.50311 -0.4571,13.54297 -3.9043,15.93538 -14.0106,30.04026 -16.375,46.95117 v 0.0215 c -3.4212,14.77177 -1.9213,30.08112 -2.0527,44.88867 v 0.0879 c 1.9185,20.4566 1.8595,41.21042 5.4297,61.62695 0.3821,6.30545 1.5165,12.51108 2.0762,18.71289 0.04,0.43765 0.4063,0.2438 0.8457,0.24427 h 49.25 c 0.3777,2.4e-4 0.7103,0.28037 0.8164,-0.0822 0.7434,-2.55472 1.8442,-5.41346 2.705,-8.17969 0.828,-2.66068 1.4144,-5.217 1.209,-7.47461 4.5402,-21.08266 4.9269,-42.66301 7.7871,-63.81055 3e-4,-0.013 3e-4,-0.0261 0,-0.0391 1.5503,-17.62287 4.1435,-35.22891 8.545,-52.33594 2.4605,-4.29661 3.1522,-9.6541 3.7734,-14.71289 0.4531,-3.68964 0.9074,-7.19093 1.8418,-9.98828 0.476,11.22304 -4.044,22.079 -7.0234,33.05274 v 0.004 c -3.408,12.82998 -3.4783,25.95517 -4.9824,38.85352 -0.01,0.0558 -0.01,0.11212 0,0.16797 0.1606,1.94658 -0.3231,4.54373 -0.9453,7.24414 -0.6222,2.70041 -1.3699,5.50812 -1.6465,8.0332 -0.2766,2.52508 -0.1113,4.88449 1.4414,6.44141 1.5526,1.55692 4.211,1.98225 8.2812,1.18359 l -0.2011,0.0156 c 8.5738,0.37644 19.5771,-0.30875 26.5918,-5.0918 0.2015,-0.13705 0.3345,-0.35397 0.3652,-0.5957 1.2386,-9.7106 -1.9914,-18.73599 -2.3672,-27.83203 0,-0.0487 -0.01,-0.097 -0.02,-0.14454 -1.4599,-6.77733 -2.3002,-12.56285 -0.791,-18.79101 0.04,-0.16394 0.029,-0.33595 -0.029,-0.49414 -6.1901,-16.67297 -6.0183,-35.11408 -11.7578,-52.25586 l 0.017,0.0645 c -1.5026,-6.06411 -5.0313,-8.83222 -9.0879,-10.25586 -4.0565,-1.42363 -8.6256,-1.6937 -12.6679,-3.10742 l 0.1367,0.0625 c -3.0587,-1.7263 -9.6954,-3.63909 -16.0742,-5.32226 -6.3788,-1.68318 -12.4864,-3.09172 -13.8809,-3.48438 -0.8278,-0.2328 -1.4383,0.76992 -0.8515,1.39844 3.3826,3.62004 6.5307,10.15143 7.9003,16.72656 1.3641,6.54833 0.9346,13.0735 -2.2695,16.92969 -3.099,1.81618 -4.8204,4.25733 -5.6543,6.9414 -0.8537,2.748 -0.8553,5.7163 -0.7871,8.66797 0.068,2.95167 0.2093,5.89407 -0.2344,8.56836 -0.4437,2.6743 -1.4336,5.06206 -3.6758,7.09375 -0.038,0.0339 -0.072,0.0712 -0.1035,0.11133 -8.765,11.40624 -11.2494,25.61975 -17.33,37.91992 -0.011,0.0217 -0.02,0.0439 -0.029,0.0664 -5.3853,13.75748 -6.5554,28.36287 -8.1055,42.72461 -0.6077,-6.28167 -0.5637,-14.2742 1.1719,-19.82032 0.013,-0.0415 0.023,-0.0839 0.029,-0.12695 1.8541,-12.3658 6.3138,-23.99139 11.8847,-35.19726 0.026,-0.0512 0.046,-0.10485 0.061,-0.16016 2.9856,-11.2 8.4768,-21.33567 14.0898,-31.56445 0.04,-0.0741 0.069,-0.15373 0.086,-0.23633 1.0004,-4.84929 0.5589,-10.26297 1.1171,-15.16797 0.5583,-4.905 2.0068,-9.20206 6.7344,-12.20898 0.096,-0.0612 0.1779,-0.14087 0.2422,-0.23438 3.0312,-4.38984 2.5179,-10.68651 0.6836,-16.72656 -1.8343,-6.04005 -5.0406,-11.88645 -7.873,-15.52539 -0.017,-0.0217 -0.034,-0.0425 -0.053,-0.0625 -2.1965,-2.32287 -4.2531,-5.01569 -6.5918,-7.16407 -2.3387,-2.14837 -5.0358,-3.77456 -8.3789,-3.71484 z m -92.2441,67.56055 c 0.1659,4.39856 1.1166,8.70554 2.6113,12.88086 2.6257,7.33501 6.5977,14.34827 9.5859,21.07617 3e-4,5.2e-4 -2e-4,10e-4 0,0.002 5.0899,13.16753 11.3109,26.141 11.0938,40.32617 0,0.0716 0.01,0.14319 0.023,0.2129 0.5852,2.42548 -0.014,6.54897 -0.7246,9.16796 0,-0.87742 0.012,-1.80596 0.1172,-3.23046 3e-4,-0.013 3e-4,-0.0261 0,-0.0391 0.3341,-12.43734 -1.4746,-24.92632 -7.1387,-36.21875 -4.7867,-14.2479 -13.1313,-27.09054 -16.2871,-41.44922 0.3804,-0.94094 0.5138,-1.82646 0.7168,-2.72851 z m 178.7617,59.96679 c -0.3652,0.12066 -0.6039,0.47149 -0.582,0.85547 0.1368,2.35719 -0.085,4.61802 -1.1289,6.24414 -1.0443,1.62613 -2.9055,2.79225 -6.5977,2.94141 -0.047,0.002 -0.094,0.008 -0.1406,0.0176 -9.978,2.11723 -20.1812,1.99291 -30.3614,1.11523 -0.5728,-0.0493 -1.0283,0.47231 -0.9023,1.03321 0.8787,3.9426 -0.9606,10.21503 -1.2129,15.24414 -0.1261,2.51455 0.1498,4.85137 1.7149,6.40429 1.565,1.55293 4.1872,2.02722 8.1523,1.29102 l -0.1211,0.0137 c 4.7629,-0.18692 10.5655,0.44354 16.1172,0.16797 5.5517,-0.27557 10.9405,-1.4755 14.6914,-5.50391 0.026,-0.0277 0.05,-0.057 0.072,-0.0879 1.3731,-1.92944 1.8085,-3.91764 1.8007,-5.80273 -0.01,-1.88509 -0.4244,-3.67812 -0.7246,-5.38281 -0.3001,-1.70469 -0.4826,-3.3078 -0.1504,-4.83008 0.3323,-1.52228 1.1522,-3.01164 3.0606,-4.58594 0.1486,-0.12256 0.2512,-0.29197 0.291,-0.48047 0.3148,-1.48625 0.1373,-3.61289 -0.4023,-5.45508 -0.2698,-0.92109 -0.6251,-1.76264 -1.1739,-2.4082 -0.5487,-0.64555 -1.4942,-1.08926 -2.4023,-0.79102 z m -249.7188,6.85547 c -2.0226,-0.041 -3.772,0.87977 -4.6289,2.60352 -0.8248,1.65935 -0.8549,3.94213 -0.1836,6.75977 -1.3284,3.21253 -1.3958,6.14882 -0.4843,8.64843 0.9353,2.5651 2.8352,4.64484 5.1894,6.25391 4.7084,3.21815 11.2679,4.64567 16.5274,4.29297 l -0.022,0.002 c 3.5421,-0.14973 7.4239,0.54024 11.2539,-0.47266 1.3787,0.0854 2.5132,-0.0455 3.4297,-0.4375 0.948,-0.4055 1.647,-1.10557 2.0508,-1.9414 0.8074,-1.67166 0.6077,-3.74756 0.2148,-5.97656 -0.3929,-2.22901 -1.0346,-4.63588 -1.4141,-6.8711 -0.3794,-2.23522 -0.4678,-4.28153 0.068,-5.71484 0.1758,-0.47058 -0.093,-0.9902 -0.5781,-1.11914 -7.2778,-1.9342 -17.7989,-0.99859 -25.3203,-3.96094 -2.2379,-1.31522 -4.2997,-2.02985 -6.1036,-2.06641 z m 122.6719,10.20313 c -2.1949,0.9655 -2.1481,-0.91142 -2.5683,2.03516 2.1814,2.90469 1.6291,2.14101 3.7128,2.38867 1.8432,0.76102 -0.1,-4.27303 0.6387,-3.38282 0.6267,2.13277 -0.7637,-0.78276 -1.7832,-1.04101 z m -1.9726,23.54883 c -2.3253,0.86685 -1.5129,4.80328 0.3535,3.91406 0.7132,0.1036 1.4759,-0.17714 2.2168,-0.7793 0.3613,-0.2933 0.4196,-0.82259 0.1308,-1.1875 -1.0035,-1.26715 -1.7364,-1.92212 -2.7011,-1.94726 z"
       id="path1053"
       inkscape:connector-curvature="0"
       sodipodi:nodetypes="ccccccccccsccccccccccccccccccsccccscsccccccccccccccccccccccccccccccccccccccccccccccccccccccsscccccccccccccccccccccsccccccccccccccscccccccccccccccccccccccccccccscccccccccccccccccccccscccccccccccccccc"
       inkscape:label="Kleidung_03" />
    <path
       style="fill:#000000;stroke-width:0.99999994"
       d="m 507.78516,805.67188 c -25.16901,0.28799 -59.78545,20.37387 -70.65235,40.9746 -15.67262,9.32261 -113.38981,37.82217 -165.13476,51.54297 -56.3505,-1.13051 -50.60572,51.23341 -55.25586,86.99024 -1.92907,36.90151 -16.10007,71.02251 -21.84571,104.67971 2.16076,32.9582 -4.17862,64.6158 -12.57031,96.1972 -8.46312,39.389 -5.95236,77.2888 -17.91797,116.3614 -33.67786,25.1181 -29.30072,76.3437 -11.01953,112.08 35.82123,10.1855 21.39881,43.8976 29.69336,72.8887 8.83427,27.5661 16.11043,55.8149 24.70508,83.5547 H 221.125 c -14.97827,-43.1737 -29.89947,-86.5745 -35.70898,-131.8809 16.37971,-20.2413 64.55532,9.6838 92.60546,-1.8125 32.62224,3.1281 14.06091,51.6731 30.27735,75.0489 1.85461,19.1093 2.08371,39.1496 5.29101,58.6445 h 11.57618 c -3.84945,-13.2653 -7.59956,-26.8587 -5.31446,-34.4316 -7.7673,-40.3406 -15.20072,-79.7178 -19.17187,-120.9786 -9.74627,-39.6006 -5.4837,-80.5744 -16.22852,-119.8554 -13.54091,-60.4283 -22.1206,-121.5787 -31.54297,-182.7324 -10.50444,-42.8609 -9.35757,-87.5829 -18.47265,-130.28129 -7.91358,49.38349 4.18664,98.91659 13.33007,147.27149 6.93506,60.2803 19.43984,119.5171 30.4375,179.1269 25.28429,50.9691 -47.02636,16.9724 -74.49218,17.1055 -62.01336,2.0861 -3.88593,-62.8037 -18.68164,-95.2851 -3.02703,-46.3931 17.62665,-93.4646 18.35156,-140.5997 6.80579,-24.1192 9.32082,-50.458 15.98828,-77.5761 2.90268,-15.55629 6.45236,-93.88917 12.08008,-43.15627 5.81423,-18.39701 -4.96509,-63.49117 35.97461,-61.87305 43.30272,-4.6644 118.32132,-32.06232 158.03711,-45.22461 5.00409,14.17701 -22.16039,60.98179 -23.72852,87.58789 -5.40586,47.41217 50.11588,80.15394 28.18555,131.40434 11.9879,55.291 43.82566,104.0934 61.81055,157.625 21.26475,42.1814 28.07543,88.9856 26.81836,135.7754 -4.06073,54.848 14.25214,0.3904 8.61914,-22.959 0.83603,-54.6309 -23.01743,-104.1194 -42.20118,-153.7715 -22.77127,-51.271 -59.85939,-105.769 -41.27734,-164.4199 -11.5835,-33.3273 -43.00617,-61.87245 -29.31445,-100.2266 13.62028,-42.43491 29.03882,-90.82741 71.42773,-113.01172 41.9297,-24.32047 9.91559,19.43008 2.33008,38.51367 -9.10035,45.07049 18.93795,88.76019 34.00391,130.28711 28.27993,60.74884 30.91578,129.24374 24.71093,194.83204 -4.94249,68.3997 2.69073,138.1069 -14.5957,205.3301 -14.23332,40.5594 -13.19309,83.591 -19.7793,125.5683 -0.0794,14.07 -2.67087,36.4782 -3.01367,55.9551 h 8.55859 c 0.49928,-42.1235 3.74344,-84.1113 10.68946,-125.7363 13.47401,-56.9397 26.15256,-114.6069 23.30469,-173.5957 -6.09752,-52.6664 21.85868,4.4407 41.18945,16.8261 50.81612,30.5979 -8.9933,61.6432 1.44726,104.6446 -4.44926,59.0752 -2.0372,119.1175 4.48438,177.8613 h 11.77344 c -1.94419,-23.8679 -11.08959,-55.6481 -7.03907,-74.082 0.68561,-49.8427 -9.63699,-102.7901 9.89258,-150.0293 37.99748,-20.6453 63.70426,-56.1792 80.70117,-95.6914 6.16404,6.0112 4.80021,65.941 9.07032,88.8496 0.71093,67.6181 9.56264,134.4665 17.32617,201.4297 4.43452,5.9305 3.38504,18.0013 2.49609,29.5234 h 10.93946 c -2.07723,-24.3975 -6.60738,-48.5644 -8.05079,-72.8867 -13.42866,-76.7941 -13.22188,-155.1458 -20.49218,-232.668 0.49889,-56.2256 -5.09984,-113.8705 7.69726,-169.0449 8.73185,-63.1021 47.00547,-116.4159 61.94141,-177.63672 -0.36284,-29.92849 9.99435,-77.57745 -14.9082,-92.11328 38.91515,-22.37791 56.24019,9.09015 78.33984,32.46093 20.79345,26.7145 48.09507,87.63398 27.05859,118.09961 -37.6199,23.92736 -23.80606,70.20966 -31.09375,105.53516 -21.2194,38.6688 -42.12873,77.203 -53.54101,120.0137 -21.14533,42.534 -38.13491,86.787 -45.21094,133.9785 -9.45562,30.2166 -6.31653,77.4567 -0.97266,100.5215 7.67244,-62.0724 10.10613,-125.8869 33.22852,-184.9571 23.2577,-47.0468 32.65616,-100.4739 65.16992,-142.7851 36.26608,-32.8617 -7.14325,-92.0962 39.31055,-118.29689 26.5663,-31.56711 5.53185,-102.97541 -21.28125,-131.66992 11.33594,3.19188 91.2074,20.96396 112.51562,32.99023 31.69626,11.08521 69.24335,4.15332 80.16995,48.24805 21.4639,64.10393 20.808,133.85073 44.4765,197.60153 -5.876,24.2491 -2.5688,46.7169 2.9746,72.4512 1.4472,35.0301 13.5292,68.9121 8.9708,104.6543 -25.3089,17.257 -66.4609,20.0947 -98.5567,18.6855 -59.65681,11.7058 -20.45784,-51.3306 -23.12694,-83.6699 5.712,-48.9841 6.00266,-98.4167 18.74609,-146.3906 12.26495,-45.1741 32.22665,-90.5795 25.77345,-138.5625 -16.004,24.56436 -8.3894,74.1244 -26.62111,105.1816 -16.71874,64.9301 -26.5466,131.7089 -32.42187,198.4981 -10.84384,80.1759 -12.31617,161.649 -29.38867,240.9258 1.97858,16.206 -9.73039,40.7683 -15.28516,60.8359 h 13.44336 c 7.95628,-30.9309 14.06683,-62.5112 19.99805,-93.8301 -10.63257,-56.8447 37.4932,-34.3782 74.8633,-35.5976 49.604,-17.5864 28.2594,29.1862 18.0195,57.0019 -6.7861,24.1118 -28.5772,48.9249 -40.166,72.4258 h 14.2363 c 20.9942,-34.9518 38.4647,-72.6445 47.8262,-112.4434 -4.1609,-37.5501 55.7023,-13.8488 54.9785,-55.4238 -7.7567,-32.0344 16.7798,-60.7801 7.9277,-91.9765 -29.6825,-24.2247 -5.7785,3.4893 -7.3867,18.666 -30.6017,25.2441 3.4982,51.5929 -15.6406,78.4863 -26.6906,28.665 -77.4671,17.7001 -114.22266,19.1426 -57.99987,10.7688 -21.6638,-51.393 -28.98437,-84.2383 38.63283,3.3307 77.51423,3.8262 115.68553,-4.2734 46.8049,-1.8909 32.8608,-37.1911 28.3594,-69.5938 -7.7839,-42.7335 -17.2089,-87.2671 -8.5274,-127.4844 -22.038,-62.2329 -28.2821,-128.2192 -45.1777,-191.70309 -5.4871,-35.64537 -33.256,-69.36307 -71.58983,-60.50586 -32.39736,-16.37189 -107.56977,-30.65395 -140.71094,-46.88672 -31.26727,-16.81682 -49.75804,-53.9724 -89.94726,-19.625 -2.93292,49.82495 -44.40479,93.47929 -94.3418,97.24805 -0.45392,30.99776 7.15857,71.78527 -23.23828,100.58982 -21.11358,53.1231 -22.691,-10.6364 -40.85352,-27.42381 31.70532,-17.28865 15.44353,-74.13281 -21.33203,-87.46093 -24.35943,-23.88129 -70.80566,-57.50977 -48.29102,-95.03711 -4.63823,-3.79729 -10.44009,-5.39957 -16.85546,-5.32617 z m 3.24609,29.21484 c 2.61543,-0.2623 1.57051,17.53613 9.62695,30.77344 19.82665,40.36898 86.7027,51.96846 80.44532,102.60937 -32.60145,17.67651 2.4289,50.31257 8.9414,81.09767 -9.57581,32.7421 -4.53153,72.9232 -2.71094,109.4766 8.61959,42.5685 4.50203,86.0777 10.55079,128.5917 h -0.002 l 1.16211,7.6641 0.26758,4.8574 c -23.78986,-19.8732 -46.79051,-53.2056 -63.76172,-82.6132 2.54438,-45.9179 5.38917,-92.0012 0.67383,-138.0352 -6.46413,-41.9534 -21.91217,-82.38176 -36.89649,-121.89649 -17.43836,-40.11749 8.17488,6.98659 26.04297,7.06445 -23.52945,-31.43357 -68.98934,-67.83416 -43.29687,-111.06054 5.21348,-13.29929 7.58733,-18.39184 8.95703,-18.5293 z m 247.95898,5.96875 c 8.87925,-0.44927 16.01222,53.00933 10.95899,69.17773 -12.08693,55.44688 -49.94592,102.3165 -60.8457,158.3691 -14.30514,46.4981 -13.90645,95.0507 -13.28321,142.9981 -4.73197,41.291 -33.12885,76.7386 -60.86719,105.791 -14.89209,4.4577 -5.78244,-39.963 -12.75,-51.5488 5.66325,-64.5068 -15.09994,-127.6411 -13.56054,-191.9961 14.21594,-34.0049 49.1963,-59.7346 56.77539,-94.8008 2.51868,1.83731 64.47369,-8.40922 43.61523,-16.73828 -32.8679,23.30052 -50.94587,-0.90766 -45.59179,-33.83203 36.86173,-4.83092 74.49124,-28.97976 86.47461,-65.625 2.96126,-15.5071 6.11484,-21.64514 9.07421,-21.79492 z M 643.00781,1081.252 c -5.0793,0.13 -8.95133,6.3863 -0.8125,18.748 27.17594,12.4448 14.00737,-36.43 9.66016,-4.7637 1.05789,-9.443 -4.36589,-14.099 -8.84766,-13.9843 z m -434.94726,36.4746 c -5.695,0.17 0.60865,22.9006 16.76953,28.1718 24.04346,12.0948 1.94555,-9.4956 -4.44336,-15.6093 -6.03137,-9.2406 -10.09739,-12.6291 -12.32617,-12.5625 z m 425.01757,87.2285 c -4.64995,0.011 -6.31853,4.0825 1.77344,16.25 33.11396,3.42 8.45661,-16.2647 -1.77344,-16.25 z m 7.35547,4.7383 c 0.96492,0.1001 2.30739,1.5518 3.9375,5.4707 -6.32579,6.0919 -6.83148,-5.7714 -3.9375,-5.4707 z m -160.54687,116.6093 c -9.64536,0.023 -19.47861,6.2806 -11.62891,20.7539 5.27736,3.2445 12.19541,1.8388 17.68555,0.3028 15.56334,-13.1034 4.87451,-21.0815 -6.05664,-21.0547 z m -312.20899,0.5371 c 6.13229,0.1244 13.63313,2.6199 21.96094,7.5879 29.55666,11.6414 69.57727,8.0518 96.04492,15.086 -9.5777,25.6031 27.29827,80.0416 -13.69336,77.0761 -13.73555,3.8034 -28.33828,1.1791 -42.40039,1.7735 -38.20384,2.562 -97.38427,-21.3523 -76.77148,-69.0039 -5.5011,-21.5921 1.36873,-32.793 14.85937,-32.5196 z m 605.61915,17.8204 c -7.71591,0.1058 -12.91077,3.0153 -6.45118,11.3886 l 5.31446,0.2246 9.3457,-0.062 c 30.44107,-1.734 6.52172,-11.751 -8.20898,-11.5488 z m -141.56055,14.9668 c -11.51509,-0.2533 -25.2365,11.0751 -9.4668,26.4746 6.40063,2.1879 14.08079,0.2751 18.83203,-4.5 6.26457,-15.4371 -0.96259,-21.7899 -9.36523,-21.9746 z m -0.47656,5.7792 c 3.20103,0.1252 6.15177,2.7793 4.84961,10.3184 -16.87673,-2.0998 -11.211,-9.9524 -5.49219,-10.3105 0.21444,-0.014 0.42917,-0.016 0.64258,-0.01 z m -457.19141,0.836 c -7.19244,-0.2865 40.27887,18.9021 50.00586,20.7422 39.21864,9.2811 -22.02838,4.6237 -12.15625,16.4629 l 8.11914,1.4726 5.61719,-0.7773 c 58.94362,-9.5978 -14.75239,-32.2039 -36.73828,-34.1367 -8.61771,-2.5931 -13.18807,-3.6975 -14.84766,-3.7637 z m 918.26364,12.4316 c -1.6582,0.029 -3.866,0.1764 -6.6953,0.461 -10.8363,8.0937 -83.784,4.7946 -54.6582,11.8945 8.7345,7.1668 79.5757,-11.7465 62.832,-12.3477 -0.433,-0.015 -0.9257,-0.017 -1.4785,-0.01 z m -620.82614,63.8418 c -7.17317,0.2291 -11.71983,6.4745 -2.08203,24.3457 36.00113,-6.0453 14.86893,-24.7541 2.08203,-24.3457 z m 155.77148,7.9258 c -11.81933,8e-4 -25.3422,9.0783 -5.51367,20.8828 l 7.29688,0.3946 6.20898,-1.8204 c 9.36265,-13.9674 1.20038,-19.4577 -7.99219,-19.457 z m -3.43164,3.9648 c 1.65014,0.043 4.21577,1.6503 7.77344,6.1426 -9.43899,7.6718 -12.72462,-6.272 -7.77344,-6.1426 z m 154.67383,0.063 c -7.4982,-0.1191 -13.32889,2.3759 -11.37109,9.998 6.01247,3.8956 13.4197,1.0876 19.91406,1.9785 32.51981,1.1992 7.9524,-11.7143 -8.54297,-11.9765 z m -308.65234,94.7578 c -6.78047,-0.039 -11.91217,5.3552 -4.20117,21.3867 31.38028,-6.1623 15.50195,-21.3214 4.20117,-21.3867 z m 300.38672,1.6975 c -27.41766,2.4295 -9.73716,11.4132 8.87695,12.0173 23.77317,-3.1807 -2.14976,-11.9855 -8.87695,-12.0173 z"
       id="path817"
       inkscape:connector-curvature="0"
       inkscape:label="Kontur_Kleidung"
       sodipodi:nodetypes="scccccccccccccccccccccccccccccccccccccccccccccccccccccccccccccccccccccccccccccccccccccccccccccccccccccccccccccccsccccccccccccccccccccccccccccccccccccccccccccccccccccccccccccccccccccccccccccccccccscscccccccccccccccccc"
       transform="matrix(0.26458333,0,0,0.26458333,-1355.1667,269.28568)" />
  </g>
</svg>
