<svg xmlns="http://www.w3.org/2000/svg" width="1278.065" height="1569.494" viewBox="0 0 338.155 415.262">
  <path fill="none" d="M.5.5h337.155v414.262H.5z" paint-order="stroke fill markers"/>
  <path fill="#502d16" fill-rule="evenodd" d="M-930.847 246.866a1.712 1.712 0 0 0-.58.115c-3.742 1.457-6.83 2.347-9.34 3.6-2.51 1.252-4.537 3.148-5.19 6.054-1.808 8.052.575 19.247-1.568 40.852a1.712 1.712 0 0 0-.008.238c.809 20.064 2.291 40.17 7.94 59.744.356 1.803.555 2.816.855 3.578.078.198.107.388.467.768.18.19.52.494 1.113.556.593.063 1.183-.26 1.436-.513.505-.507.461-.733.515-.93.054-.197.082-.359.108-.531.207-1.381.294-3.766.712-5.512a1.712 1.712 0 0 0 .047-.371c.318-19.65 1.832-39.389 1.496-59.328a1.712 1.712 0 0 0-.037-.33c-1.327-6.188-.477-16.038.805-25.092 1.282-9.054 2.957-17.142 2.98-21.178a1.712 1.712 0 0 0-1.751-1.72zm150.271 5.695a1.712 1.712 0 0 0-.906.283c-2.908 1.92-4.673 5.055-5.828 8.664-1.155 3.61-1.733 7.77-2.143 12.086-.819 8.634-1.003 17.957-3.025 24.047a1.712 1.712 0 0 0-.07.3c-2.846 20.22.096 40.326 5.029 59.725a1.712 1.712 0 0 0 3.369-.474l-.07-2.246c2.263-18.719 4.65-33.769 4.75-52.844.027-5.275 1.799-15.115 3.627-23.977.913-4.43 1.837-8.642 2.556-12.006.72-3.363 1.23-5.727 1.342-7.064a1.712 1.712 0 0 0-.299-1.12c-1.078-1.556-2.449-2.488-3.734-3.175-1.285-.687-2.491-1.181-3.625-1.922a1.712 1.712 0 0 0-.973-.277z" transform="translate(1027.083 -13.766)"/>
  <path class="outfit03" fill="#222b00" fill-rule="evenodd" d="M-810.347 224.657c-3.276.002-6.186.415-8.385 1.39-1.1.488-2.033 1.125-2.695 1.979a4.56 4.56 0 0 0-.948 3.086 1.058 1.058 0 0 0 1.131.99c.397-.028.346.013.686 0-1.645.711-3.203 1.415-6.135 2.408-4.157 1.409-9.053 2.964-13.27 4.379-4.216 1.415-7.66 2.616-9.328 3.602l.2-.092c-3.093 1.05-5.25 2.07-6.696 3.162-1.446 1.092-2.26 2.422-2.107 3.803.077.694.36 1.31.78 1.875-9.21-4.112-18.422-8.23-27.782-11.989a1.049 1.049 0 0 0-.17-.05c-3.627-.791-5.606-1.923-6.361-2.993-.755-1.07-.667-2.252.341-4.07.036-.066.065-.135.086-.207.417-1.376-.18-2.555-.672-3.137-.209-.247-.34-.388-.412-.474a1.058 1.058 0 0 0-1.367-1.123c-6.524 2.047-15.63 3.626-24.306 9.504a1.056 1.056 0 0 0-.22.197c-.793.95-.841 2.064-.882 2.867-.04.803-.111 1.283-.285 1.494-.33.401-.32.983.023 1.373 11.503 13.045 32.78 20.637 46.006 32.395.03.025.06.05.092.072 3.451 2.443 6.93 4.917 10.4 7.385-.229-.092-.311-.17-.554-.264-17.042-11.182-39.125-26.446-56.448-37.293a1.058 1.058 0 0 0-.582-.162c-3.2.062-5.61 1.566-7.176 3.818-1.566 2.253-2.398 5.192-2.927 8.389-1.059 6.393-.886 13.93-1.797 18.922-.02.104-.023.21-.01.316.182 1.515.995 2.725 2.195 3.104.065.02.134-.005.2.011-1.225 1.241-2.298 2.593-2.98 4.21-1.13 2.683-1.317 5.906-.253 9.724.023.082.056.16.098.234.462.824.801 2.802.861 5.27.06 2.468-.09 5.453-.293 8.52-.405 6.132-1.046 12.5-.463 16.271.057.367.302.678.647.818a6.139 6.139 0 0 0 3.166.393c1.287-.17 2.798-.708 4.713-1.791 16.583-8.308 32.797-17.68 49.955-24.738.14-.058.265-.146.369-.256 1.184-1.264 3.61-2.48 6.275-3.53 2.666-1.05 5.554-1.97 7.791-2.964 1.119-.497 2.077-1 2.813-1.643.734-.641 1.306-1.627 1.072-2.666 15.847 11.052 32.284 21.437 50.947 27.414 1.779 1.137 3.34 2.223 4.684 3.066 1.367.86 2.47 1.517 3.668 1.641.598.062 1.287-.075 1.797-.5s.789-1.024.955-1.7c.331-1.35.287-3.18-.008-5.9l.002.221.324-3.176a1.057 1.057 0 0 0-.158-.671c-3.696-5.872-10.317-9.919-17.51-13.405-7.193-3.486-15.006-6.407-21.164-9.777a1.055 1.055 0 0 0-.201-.084c-3.265-.988-8.306-4.118-12.09-6.809.692.362 1.063.513 1.908.977l.027.014c16.237 8.334 34.24 14.853 48.246 25.658.674.52 1.655.073 1.704-.777.926-16.233 6.902-36.78 6.527-50.848a1.055 1.055 0 0 0-.117-.457c1.623-.241 3.28-.367 4.802-.194 2.673.306 4.677 1.281 5.506 3.635.129.364.446.63.827.692 3.903.642 8.046 2.62 10.105 3.279.257.082.484.146.732.184.248.037.559.168 1.084-.211.263-.19.463-.583.483-.871.02-.289-.05-.476-.112-.624-.124-.295-.271-.485-.462-.72-.764-.94-2.332-2.409-5.2-4.996a1.057 1.057 0 0 0-.234-.16c-.609-.306-.922-.598-1.47-.909.451.03.872-.23 1.046-.648.535-1.283.493-2.657.006-3.89-.487-1.234-1.371-2.35-2.514-3.395-2.284-2.092-5.639-3.934-9.421-5.504-3.847-1.597-8.108-2.893-12.121-3.758.756.094 1.519.124 2.238.23 2.932.434 5.515 1.023 6.43 1.452 1.054.494 2.017-.829 1.222-1.68-5.727-6.15-17.733-9.325-26.885-9.318zm-137.14 32.554c-1.223.062-2.316.772-3.614 1.801-1.29 1.022-2.701 2.43-4.086 4.105-4.409 3.096-7.937 9.327-10.645 15.81-2.71 6.488-4.509 13.137-5.127 17.198-3.02 6.474-6.741 12.553-9.07 19.575-.032.095-.05.195-.053.296-.118 3.617-2.228 10.135-3.023 13.872-.199.934-.334 1.669-.28 2.369.028.35.065.783.526 1.181.23.2.572.32.854.323a1.58 1.58 0 0 0 .69-.157c.75-.34 1.267-.926 2.108-1.922.426-.504 1.105-1.463 1.655-2.193-5.167 9.557-6.626 20.68-8.547 31.568-.038.21-.011.426.076.62 2.87 6.365 2.235 13.902 1.82 21.455-.414 7.552-.597 15.18 3.793 21.443.5.713 1.598.551 1.871-.275l.594-1.8c5.895-14.399 11.858-28.921 15.844-44.31.012-.045.021-.092.027-.138.712-5.871 3.685-11.726 7.082-16.452 3.397-4.725 7.265-8.344 9.402-9.685.248-.156.42-.407.475-.694.82-4.175.913-10.078-1.297-15.224l.04.11c-.62-2.038-.7-5.69-.594-9.589.105-3.898.358-8.074.226-11.466-.066-1.697-.22-3.196-.584-4.43-.364-1.234-.993-2.352-2.183-2.748-.247-.082-.512.016-.766.006.047-.047.105-.088.152-.135.983-.982 1.858-1.94 2.528-2.853.669-.914 1.173-1.756 1.265-2.73.32-3.24.295-8.554.254-13.41-.02-2.427-.046-4.732-.04-6.57.004-1.837.064-3.296.128-3.664a1.058 1.058 0 0 0-.709-1.187 2.142 2.142 0 0 0-.791-.1zm178.724 2.733c-2.558 1.188-.856-2.033-2.7 1.63-1.636 2.276-3.074 5.636-4.275 12.624-.01.057-.015.115-.016.173-.07 12.346-5.308 27.02-3.972 39.454.026.243.137.47.312.642.66.647 1.078 1.386 1.655 2.096-.314-.046-.631.05-.866.263-1.164 1.064-1.856 2.342-2.064 3.692-.208 1.35.044 2.733.562 4.113.588 1.564 1.565 3.163 2.696 4.783-.117-.084-.243-.269-.36-.343-.535-.346-1.076-.602-1.695-.664-.618-.062-1.33.16-1.799.627a1.058 1.058 0 0 0-.195 1.232c7.318 14.298 9.684 31.259 12.008 47.504.004.033.01.065.017.098 3.99 16.542 4.63 33.682 4.278 50.74-.013.593.458.436 1.05.435h33.287c.652 0 1.086.076.98-.568-.804-4.899-.17-11.687.259-18.598.43-6.911.663-13.965-1.2-19.664l.034.131c-3.248-17.09 1.017-33.943-.924-51.625v-.01c-2.496-20.988-6.484-42.211-13.88-62.129a1.057 1.057 0 0 0-.124-.232c-2.603-3.759-7.032-7.767-11.451-10.909-2.21-1.57-4.413-2.92-6.399-3.89-1.985-.971-3.716-1.596-5.218-1.606zm-39.047 8.732c.397-.014.43.032.785.031-.025.064-.088.099-.106.166-.1.392-.04.806.094 1.118.189.439.505.649.801.894-.49-.039-.782-.049-1.424-.11-1.93-.576-3.793-1.35-5.705-1.978 2.026.005 4-.066 5.555-.121z"  transform="translate(1027.083 -13.766)"/>
  <path class="outfit02" fill="#c87137" fill-rule="evenodd" d="M-847.384 296.604c-2.23 1.312-3.959 3.004-10.038 7.662-16.142 10.075-6.585 33.4-13.455 49.043-.468 25.05 1.186 50.667-.257 75.734h13.666c-.978-14.744-.849-29.9-2.354-44.59-.344-4.303.266-15.19.736-15.222.2-.014.375 1.907.442 7.076-.35 16.942 2.777 33.848 2.447 50.496-.183.22-.018 1.375.142 2.24h65.14c-1.85-13.255 3.612-29.077 4.269-42.757 3.294-14.63-1.145-27.209-4.631-41.254-2.53-9.181-3.45-18.397-4.941-22.785-7.32-4.632-14.191-10.493-25.034-12.387-8.942-2.866-18.22-12.553-26.132-13.256zm-28.395 4.133c-1.63.422-4.19 2.534-8.674 4.787-15.67 6.223-31.973 15.486-46.467 21.855-2.76 15.735-4.323 32.194-3.703 48.022.259 4.376-2.011 7.946-1.836 12.19.155 3.72 1.806 9.236 1.694 11.415-.493 9.597-1.262 15.02-.717 25.3a15.786 15.786 0 0 1-1.022 4.716l62.404.022c.054-3.935.99-9.74.4-12.075 2.115-26.75-2.731-54 3.85-80.26 1.388-6.909-1.504-14.191 2.97-28.695-4.451-3.726-7.78-5.5-8.899-7.277z" transform="translate(1027.083 -13.766)"/>
  <path class="outfit01" fill="#676c53" fill-rule="evenodd" d="M-781.677 336.804c6.875 6.054 9.397 26.314 11.132 38.478 4.755 17.429 4.134 35.863 4.636 53.761h-23.076c1.854-13.778 3.24-30.11 5.483-44.318 2.633-16.016-2.42-32.024 1.825-47.92zm-165.147-1.195c4.429-.292 3.565 16.444 6.89 22.554 2.982 9.87.897 19.819.213 29.479-.308 4.356 1.152 5.103 1.093 7.5-.093 3.77-.012 7.506.469 11.193-2.12 3.629.117 19.83 1.655 22.687l-38.197.022c-2.862-7.906-5.375-23.985.103-30.62 10.083-17.334 10.626-38.593 21.23-55.824 3.003-4.905 5.068-6.894 6.544-6.991zm91.18-44.554c14.17 1.356-2.162 10.821-8.27 15.285-5.608-2.407-7.194-5.057-9.427-6.88 2.334-3.085 15.283-5.347 17.697-8.405z" transform="translate(1027.083 -13.766)"/>
  <path d="M215.731 209.488c-6.822-.048-12.978 2.437-16.58 10.041-13.583-.01-26.303 17.197-38.368 12.39-7.399-5.368-26.755-5.541-22.392-15.236 1.815-11.416-14.27-2.902-20.663.438-2.798.891-6.432 3.19-9.537 5.247-1.986 3.228-3.248 4.753-2.77 6.189-1.9.324-4.49 2.353-6.697 2.974-2.845.8-5.43.325-9.023 2.004-6.14 3.467-6.764 3.57-9.528 8.22-4.351 2.14-9.195 6.675-15.007 13.343-5.28 5.443-9.638 19.71-11.012 27.345-4.747 9.769-9.091 19.49-11.311 30.055-4.9 10.33 4.703 21.49-2.495 32.486.339 12.233 1.16 24.75.65 37.018 1.445 4.347 1.498 6.973 5.36 11.516-.06 3.627-.126 5.58.593 12.026.37 3.324 1.122 6.254 1.384 9.733h4.047c-2.423-7.423-5.498-23.835.103-30.62 10.083-17.333 10.627-38.592 21.23-55.823 12.015-19.62 9.001 7.416 13.434 15.563 2.983 9.87.897 19.819.214 29.479-.309 4.356 1.152 5.103 1.093 7.5-.093 3.77-.012 7.506.468 11.193-2.96 5.068 1.797 33.725 2.678 17.972-.545-10.281.225-15.704.718-25.3.111-2.18-1.541-7.696-1.695-11.417-.176-4.243 2.095-7.814 1.837-12.19-.62-15.828.942-32.285 3.701-48.02 14.493-6.37 30.798-15.634 46.468-21.857 4.484-2.253 7.043-4.364 8.674-4.786 1.119 1.776 4.448 3.55 8.899 7.276-4.474 14.504-1.583 21.788-2.97 28.697-6.581 26.26-1.735 53.51-3.85 80.26.613 2.428-.423 8.105-.4 12.073h2.966c1.49-25.223-.213-50.528.258-75.734 6.87-15.644-2.687-38.968 13.455-49.043 6.08-4.659 7.806-6.35 10.037-7.661 7.913.703 17.19 10.39 26.132 13.256 10.842 1.894 17.713 7.754 25.033 12.385 1.49 4.388 2.41 13.605 4.941 22.786 3.486 14.045 7.925 26.624 4.631 41.254-.663 13.827-6.3 29.406-4.269 42.757h1.93c1.885-13.874 3.218-29.965 5.484-44.318 2.633-16.016-2.421-32.025 1.825-47.92 6.874 6.053 9.397 26.313 11.132 38.477 4.792 17.563 4.111 35.727 4.635 53.761h1.783c.371-17.234-.245-34.61-4.3-51.423-2.323-16.241-4.681-33.32-12.112-47.837 4.197-4.173 22.79 32.526 18.32 20.567-1.773-11.334-23.819-25.325-15.693-32.742 8.651 13.44 5.941 2.668-.761-3.897-1.294-12.043 3.906-26.703 3.978-39.334 1.221-7.106 2.641-10.321 4.212-12.427 1.524-4.213 18.04 6.51 23.918 15 7.355 19.804 11.332 40.944 13.822 61.883 1.915 17.44-2.367 34.33.936 51.708 3.59 10.986-.897 28.281.966 38.502h2.506c1.949-19.335-.999-38.888-2.13-58.211 3.509-20.906-.291-42.297-4.268-62.902-3.975-17.637-8.806-36.824-25.877-46.299-1.269-3.54-5.11-7.168-6.94-10.255 1.312-4.11-4.994-10.686-12.182-13.992-2.271-4.156-6.718-6.624-11.042-8.975-6.268-2.527-13.757-5.107-20.579-5.155zm1.004 2.462c8.892-.006 20.784 3.257 26.112 8.979-4.804-2.25-31.247-4.109-19.38-.803 10.706-.5 36.79 7.938 33.337 16.221-11.16-7.543-8.342-1.744.926 2.909 11.438 10.322 2.498 3.487-5.75 2.13-3.935-11.178-32.224 3.002-12.247-2.605.366 13.735-5.588 34.324-6.526 50.76-14.189-10.945-32.257-17.47-48.41-25.761-18.955-10.4.708 5.152 9.365 7.77 12.522 6.854 31.276 11.68 38.288 22.82l-.326 3.175c1.159 10.69-2.194 7.026-9.56 2.33-25.267-8.051-46.547-24.296-67.893-39.407-13.473-11.977-34.712-19.597-45.915-32.302.928-1.125.083-3.063 1.165-4.357 8.464-5.734 17.39-7.286 24.029-9.37-.379.91 1.752 1.34 1.122 3.418-2.22 4.002-.767 6.977 6.721 8.61 25.834 10.374 50.652 23.608 77.415 31.586 12.668 1.21-3.913-1.738 3.983-3.988-2.943-1.121-16.686 2.324-23.538-4.18-8.416-5.661-45.59-12.006-21.321-20.251 5.632-3.328 44.95-13.591 27.433-12.352-.222-3.65 4.605-5.328 10.97-5.333zm11.889 13.654c-8.07-.01-17.057 1.104-24.04 1.432 5.6 1.841 25.643-1.987 36.449.953l3.38.577c-3.792-2.266-9.513-2.954-15.79-2.962zm-109.155 5.898c-2.954-.189 18.934 10.83 22.863 14.354 24.989 14.717 46.39 35.169 73.125 46.967-4.69-1.468 4.828 2.304 3.225.44-18.175-9.347-35.842-20.638-51.978-33.412-14.482-9.614-28.673-19.862-44.323-27.527-1.56-.54-2.49-.795-2.912-.822zm-12.57.555c17.298 10.832 39.4 26.11 56.465 37.306 18.136 6.929-5.273 8.064-10.955 14.127-17.262 7.102-33.512 16.503-50.073 24.797-3.674 2.079-5.553 1.908-6.96 1.337-1.069-6.915 2.406-25.721-.228-30.416-2.03-7.284.778-11.764 5.44-15.1-2.499.976-4.261.77-4.57-1.791 1.896-10.384-.723-30.034 10.881-30.26zm-6.311 32.052c1.862-.727 4.133-2.109 6.518-3.663-2.35 1.103-4.592 2.285-6.518 3.663zm6.518-3.663c5.22-2.451 10.964-4.515 14.93-7.47-2.989-.854-9.278 3.788-14.93 7.47zM96.277 234.81c-.04 7.03-6.613 33.287-3.748 46.638.334 19.834-1.178 39.554-1.497 59.273-.966 4.031-.376 10.211-1.898 2.507-5.584-19.35-7.066-39.312-7.873-59.337 2.16-21.781-.114-33.297 1.536-40.647 1.075-4.788 5.853-5.464 13.48-8.434zm150.268 5.696c2.594 1.693 5.122 2.085 6.89 4.638-.338 3.997-7.472 31.925-7.531 43.183-.1 18.983-2.482 33.96-4.755 52.777l.073 2.374c-4.903-19.283-7.791-39.16-4.99-59.063 4.34-13.07.498-37.426 10.313-43.91zm-93.168.7c-2.817.322 20.489 8.594 27.01 11.94l3.576 1.326c-7.722-3.414-20.26-10.025-30.586-13.266zm-73.725 3.296c.15-.008.285.007.404.047-.422 2.403.263 17.493-.352 23.727-.458 4.858-22.32 19.14-9.916 12.437 14.944-18.343 7.087 12.62 9.912 21.916 2.087 4.86 2.016 10.604 1.231 14.604-4.72 2.963-15.485 14.638-16.972 26.906-3.966 15.312-9.915 29.805-15.816 44.22l-.603 1.822c-8.297-11.837.525-29.328-5.514-42.726 2.921-16.555 4.53-33.225 19.644-44.176 13.3-14.432-8.39 5.968-11.387 9.671-10.826 15.312-2.484-2.763-2.224-10.684 2.288-6.9 6.003-12.961 9.063-19.534 1.14-7.794 7.288-27.088 15.564-32.678 2.707-3.284 5.517-5.479 6.966-5.552zm105.486 10.2c14.77 9.22 31.152 15.264 46.86 22.613l1.472.597-.61-.673c-16.015-7.29-31.696-15.29-47.722-22.538zm-13.698 22.587c14.169 1.356-2.162 10.82-8.27 15.285-5.609-2.407-7.194-5.057-9.427-6.88 2.334-3.085 15.283-5.347 17.697-8.405zm-.233 17.605c-.145.007-.403 2.152-.817 8.053.411 19.167 1.334-8.078.817-8.053zm-8.222 19.6c-.908-.035-1.532.953-.954 3.98 6.85 1.924 3.105-3.898.954-3.98zm7.777.996c-2.21-.303-.673 24.246-1.969 33.808 1.478 2.263.826-26.373 1.97-33.808zm-11.456 33c-.95.04-1.522 1.201-.427 4.56 5.912-.039 2.374-4.646.427-4.56zm8.693 6.974c-.471.033-1.08 10.92-.737 15.224 1.521 14.844 1.34 29.689 2.354 44.59h1.412c-.218-1.085-.357-1.983-.141-2.241.33-16.648-2.798-33.554-2.448-50.495-.067-5.17-.241-7.092-.44-7.078zm-7.638 20.13c-1.04.08-1.441 1.118.576 3.98 5.726-.795 1.41-4.132-.576-3.98zm.669 29.99c-1.466.052-2.175 1.205.672 4.427 6.316-1.545 1.77-4.514-.672-4.427z"/>
</svg>
