<svg xmlns="http://www.w3.org/2000/svg" width="1278.065" height="1569.494" viewBox="0 0 338.155 415.262">
  <path fill="none" d="M.5.5h337.155v414.262H.5z" paint-order="stroke fill markers"/>
  <path fill="#502d16" fill-rule="evenodd" d="M-551.221 247.2a1.712 1.712 0 0 0-.58.115c-3.742 1.457-6.83 2.348-9.34 3.6-2.51 1.252-4.537 3.149-5.19 6.055-1.808 8.051.575 19.247-1.568 40.851a1.712 1.712 0 0 0-.008.238c.809 20.065 2.291 40.171 7.94 59.745.356 1.803.555 2.816.855 3.578.078.198.107.387.467.767.18.19.52.495 1.113.557.593.062 1.183-.26 1.436-.514.505-.506.461-.732.515-.93.054-.196.082-.358.108-.53.207-1.382.294-3.767.712-5.512a1.712 1.712 0 0 0 .047-.371c.318-19.651 1.832-39.39 1.496-59.329a1.712 1.712 0 0 0-.037-.33c-1.327-6.188-.477-16.037.805-25.091 1.282-9.055 2.957-17.143 2.98-21.178a1.712 1.712 0 0 0-1.751-1.72zm150.271 5.695a1.712 1.712 0 0 0-.906.284c-2.908 1.92-4.673 5.055-5.828 8.664-1.155 3.609-1.733 7.769-2.143 12.086-.819 8.633-1.003 17.957-3.025 24.046a1.712 1.712 0 0 0-.07.301c-2.846 20.22.096 40.325 5.029 59.725a1.712 1.712 0 0 0 3.369-.475l-.07-2.246c2.263-18.718 4.65-33.768 4.75-52.844.027-5.274 1.799-15.114 3.627-23.976.913-4.431 1.837-8.642 2.556-12.006.72-3.364 1.23-5.728 1.342-7.064a1.712 1.712 0 0 0-.299-1.12c-1.078-1.556-2.449-2.489-3.734-3.175-1.285-.687-2.491-1.182-3.625-1.922a1.712 1.712 0 0 0-.973-.278z"transform="translate(647.457 -14.1)"/>
  <path class="outfit03" fill="#222b00" fill-rule="evenodd" d="M-430.721 224.991c-3.276.002-6.186.415-8.385 1.39-1.1.489-2.033 1.126-2.695 1.98a4.56 4.56 0 0 0-.948 3.085 1.058 1.058 0 0 0 1.131.99c.397-.028.346.014.686 0-1.645.712-3.203 1.415-6.135 2.409-4.157 1.408-9.053 2.963-13.27 4.379-4.216 1.415-7.66 2.616-9.328 3.601l.2-.092c-3.093 1.05-5.25 2.07-6.696 3.162-1.446 1.092-2.26 2.423-2.107 3.803.077.695.36 1.31.78 1.875-9.21-4.111-18.422-8.23-27.782-11.988a1.048 1.048 0 0 0-.17-.05c-3.627-.792-5.606-1.923-6.361-2.993-.755-1.07-.667-2.252.341-4.07.036-.066.065-.136.086-.207.417-1.376-.18-2.555-.672-3.137-.209-.248-.34-.389-.412-.475a1.058 1.058 0 0 0-1.367-1.123c-6.523 2.047-15.63 3.627-24.306 9.504a1.056 1.056 0 0 0-.22.197c-.793.951-.841 2.065-.882 2.868-.04.803-.111 1.282-.285 1.494-.33.4-.32.983.023 1.373 11.503 13.044 32.78 20.636 46.006 32.394.03.026.06.05.092.073 3.451 2.443 6.93 4.916 10.4 7.384-.229-.092-.311-.17-.554-.263-17.042-11.183-39.125-26.446-56.448-37.293a1.058 1.058 0 0 0-.582-.162c-3.2.062-5.61 1.565-7.176 3.818-1.566 2.252-2.398 5.192-2.927 8.389-1.059 6.393-.886 13.93-1.797 18.921-.02.105-.023.211-.01.317.182 1.515.995 2.725 2.195 3.103.065.02.134-.005.2.012-1.225 1.24-2.298 2.593-2.98 4.209-1.13 2.683-1.317 5.907-.253 9.725.023.081.056.16.098.234.462.824.801 2.801.861 5.27.06 2.468-.09 5.453-.293 8.519-.405 6.133-1.046 12.5-.463 16.271.057.368.302.679.647.819a6.139 6.139 0 0 0 3.166.392c1.287-.17 2.798-.707 4.713-1.79 16.583-8.308 32.797-17.68 49.955-24.739.14-.058.265-.145.369-.256 1.184-1.263 3.61-2.48 6.275-3.529 2.666-1.05 5.554-1.971 7.791-2.965 1.119-.497 2.077-1 2.813-1.642.734-.642 1.306-1.628 1.072-2.666 15.847 11.051 32.284 21.436 50.947 27.414 1.779 1.137 3.34 2.222 4.684 3.066 1.367.86 2.47 1.517 3.668 1.64.598.062 1.287-.074 1.797-.5.51-.424.789-1.024.955-1.699.331-1.35.287-3.18-.008-5.9l.002.22.324-3.175a1.057 1.057 0 0 0-.158-.672c-3.696-5.871-10.317-9.918-17.51-13.404-7.193-3.486-15.006-6.407-21.164-9.778a1.055 1.055 0 0 0-.201-.084c-3.265-.987-8.306-4.117-12.09-6.808.692.362 1.063.513 1.908.976l.027.014c16.237 8.334 34.24 14.854 48.246 25.658.674.52 1.655.073 1.704-.777.926-16.232 6.902-36.779 6.527-50.848a1.055 1.055 0 0 0-.117-.457c1.623-.24 3.28-.367 4.802-.193 2.673.305 4.677 1.28 5.506 3.635.129.364.446.629.827.691 3.903.642 8.046 2.62 10.105 3.28.257.082.484.145.732.183.248.038.559.169 1.084-.21.263-.19.463-.583.483-.872.02-.288-.05-.475-.112-.623-.124-.296-.271-.486-.462-.72-.764-.941-2.332-2.41-5.2-4.997a1.057 1.057 0 0 0-.234-.16c-.609-.306-.922-.597-1.47-.908.451.03.872-.23 1.046-.649.535-1.283.493-2.657.006-3.89-.487-1.234-1.371-2.349-2.513-3.395-2.285-2.092-5.64-3.934-9.422-5.504-3.847-1.596-8.108-2.893-12.121-3.757.756.093 1.519.124 2.238.23 2.932.434 5.515 1.023 6.43 1.451 1.054.494 2.017-.828 1.222-1.68-5.727-6.15-17.733-9.324-26.885-9.318zm-137.14 32.555c-1.223.062-2.316.772-3.614 1.8-1.29 1.023-2.701 2.43-4.086 4.106-4.409 3.096-12.7 9.327-15.407 15.809-2.711 6.488-4.51 13.137-5.127 17.199-3.02 6.473-6.742 12.552-9.07 19.574-.032.096-.05.196-.053.297-.119 3.616-2.229 10.135-3.024 13.871-.198.934-.334 1.67-.279 2.37.028.35.064.782.526 1.18.23.2.571.32.853.323a1.58 1.58 0 0 0 .691-.156c.75-.34 1.266-.926 2.108-1.922.426-.504 1.104-1.464 1.654-2.193-5.166 9.557-6.625 20.679-8.547 31.568-.037.21-.01.425.076.62 2.87 6.365 2.235 13.902 1.82 21.454-.414 7.553-.596 15.18 3.794 21.444.5.712 1.598.55 1.87-.276l.595-1.799c5.894-14.4 16.62-28.922 20.606-44.31.012-.046.021-.092.027-.139.712-5.87 3.685-11.725 7.082-16.451 3.397-4.726 7.265-8.344 9.402-9.686.248-.155.42-.406.475-.693.82-4.176.913-10.079-1.297-15.225l.04.11c-.62-2.037-.7-5.69-.594-9.588.105-3.899.358-8.074.226-11.467-.066-1.696-.22-3.195-.584-4.43-.364-1.234-.993-2.352-2.183-2.748-.247-.082-.512.016-.766.006.047-.047.105-.088.152-.134.983-.982 1.858-1.94 2.528-2.854.669-.913 1.173-1.756 1.265-2.73.32-3.239.295-8.554.254-13.409-.02-2.428-.046-4.732-.04-6.57.004-1.837.064-3.297.128-3.664a1.058 1.058 0 0 0-.709-1.187 2.142 2.142 0 0 0-.791-.1zm178.724 2.732c-2.558 1.189-.856-2.033-2.7 1.631-1.636 2.275-3.074 5.636-4.275 12.623-.01.058-.015.116-.016.174-.07 12.346-5.308 27.02-3.972 39.453.026.244.137.471.312.643.66.647 1.078 1.386 1.655 2.095-.314-.046-.631.051-.866.264-1.164 1.063-1.856 2.341-2.064 3.691-.208 1.35.044 2.734.562 4.114.588 1.564 1.565 3.163 2.696 4.783-.117-.084-.243-.269-.36-.344-.535-.345-1.076-.602-1.695-.664-.618-.062-1.33.16-1.799.627a1.058 1.058 0 0 0-.195 1.232c7.318 14.298 14.446 31.26 16.77 47.504.004.033.01.066.018.098 3.99 16.542 4.629 33.683 4.277 50.74-.012.593.458.437 1.051.436h33.286c.653 0 1.086.075.98-.569-.804-4.898-.17-11.686.26-18.597.429-6.912.662-13.965-1.2-19.664l.033.13c-3.247-17.09 1.017-33.942-.924-51.624v-.01c-2.495-20.988-6.484-42.212-13.88-62.13a1.057 1.057 0 0 0-.123-.232c-2.603-3.758-7.033-7.766-11.452-10.908-2.209-1.571-9.175-2.92-11.16-3.89-1.986-.972-3.717-1.597-5.22-1.606zm-39.047 8.733c.397-.014.43.031.785.03-.025.064-.088.1-.106.167-.1.391-.04.806.094 1.117.189.44.505.65.801.895-.49-.04-.782-.05-1.424-.11-1.93-.576-3.793-1.35-5.705-1.978 2.026.005 4-.067 5.555-.121z" transform="translate(647.457 -14.1)"/>
  <path class="outfit02" fill="#c87137" fill-rule="evenodd" d="M-467.758 296.938c-2.23 1.313-3.959 3.004-10.038 7.662-16.142 10.076-6.585 33.4-13.455 49.043-10.758 24.649-14.892 50.125-5.644 75.727 1.044-.012 4.695.25 94.808-.018 2.026-12.454 2.161-18.895 2.818-32.575 3.294-14.63-8.896-37.365-12.382-51.41-2.53-9.181-3.45-18.397-4.941-22.786-7.32-4.631-14.191-10.492-25.034-12.387-8.942-2.865-18.22-12.552-26.132-13.255zm-28.395 4.133c-1.63.422-4.19 2.534-8.674 4.787-15.67 6.224-31.973 15.486-46.467 21.856-2.76 15.735-5.173 15.562-4.553 31.39.258 4.376-4.09 7.191-3.915 11.434.154 3.72-5.093 17.457-4.543 23.039-2.142 13.567-5.817 30.59.618 35.897l64.073-.106c-6.631-27.501 1.86-60.266 9.39-92.324 1.388-6.91-1.504-14.192 2.97-28.695-4.451-3.727-7.78-5.501-8.899-7.278z" transform="translate(647.457 -14.1)"/>
  <path class="outfit01" fill="#676c53" fill-rule="evenodd" d="M-402.05 337.139c6.874 6.054 14.158 26.314 15.893 38.478 4.756 17.428 4.134 35.863 4.637 53.761l-20.567-.026c1.854-13.778 1.046-13.247 3.29-27.455 2.632-16.015-7.5-48.862-3.253-64.758zm-165.148-1.196c4.429-.291 3.565 16.444 6.89 22.555 2.982 9.87-2.316 16.511-3 26.171-.308 4.357-1.723 10.867-1.782 13.264-.093 3.769-.758 10.247-.278 13.934-2.119 3.628.144 14.751 1.681 17.607l-36.15-.096c-2.654-7.639-5.375-23.985.102-30.62 10.083-17.333 15.39-38.592 25.993-55.823 3.003-4.905 5.068-6.894 6.544-6.991zm91.18-44.553c14.17 1.355-2.162 10.82-8.27 15.284-5.608-2.406-7.194-5.056-9.427-6.88 2.334-3.084 15.283-5.346 17.697-8.404z" transform="translate(647.457 -14.1)"/>
  <path d="M215.731 209.488c-6.822-.048-12.978 2.437-16.58 10.041-13.583-.01-26.303 17.197-38.368 12.39-7.4-5.368-26.755-5.541-22.392-15.236 1.815-11.416-14.27-2.902-20.663.438-2.798.891-6.432 3.19-9.537 5.247-1.986 3.228-3.248 4.753-2.77 6.189-1.9.324-4.49 2.353-6.697 2.974-2.845.8-5.43.325-9.023 2.004-6.14 3.467-6.764 3.57-9.528 8.22-4.351 2.14-9.195 6.675-15.007 13.343-5.28 5.443-14.4 19.71-15.774 27.345-4.748 9.769-9.092 19.49-11.311 30.055-4.9 10.33 4.702 21.49-2.496 32.486.34 12.233 1.16 24.75.651 37.018 1.445 4.347 1.498 6.973 5.36 11.516-.061 3.627-.127 5.58.592 12.026.371 3.324 1.122 6.254 1.385 9.733h4.047c-2.424-7.423-5.498-23.835.103-30.62 10.083-17.333 15.389-38.592 25.992-55.823 12.015-19.62 9.001 7.416 13.434 15.563 2.983 9.87-4.715 21.823-5.399 31.483-1.521 10.125-.815 15.523-1.046 22.798.03 3.813 1.867 12.04 1.463 16.654l3.024.02c-4.476-11.309-1.666-38.027-.708-41.812-.176-4.243 5.026-18.662 5.57-21.702 2.9-3.422 3.35-22.49 6.11-38.224 14.493-6.37 30.798-15.634 46.468-21.857 4.484-2.253 7.043-4.364 8.674-4.786 1.119 1.776 4.448 3.55 8.899 7.276-4.474 14.504-3.945 31.71-5.332 38.619-4.582 16.741-6.786 22.138-8.961 40.707-1.227 10.473-1.986 22.452-.145 34.708.614 2.43 1.416 3.045 1.438 7.013l3.359-.025c-4.55-17.293-3.592-27.05-2.359-38.08 1.43-12.796 3.875-26.07 8.004-37.646 6.87-15.644-2.687-38.968 13.455-49.043 6.08-4.659 7.806-6.35 10.037-7.661 7.913.703 17.19 10.39 26.132 13.256 10.842 1.894 17.713 7.754 25.033 12.385 1.49 4.388 2.41 13.605 4.941 22.786 3.486 14.045 14.54 43.35 11.246 57.98.73 15.22-1.036 15.327-2.474 26.06h1.93c1.844-11.126 2.449-8.308 3.689-27.622 2.632-16.015-9.036-48.75-4.79-64.646 6.875 6.054 14.16 26.314 15.894 38.478 4.792 17.563 4.112 35.727 4.636 53.761h1.783c.37-17.234-.245-34.61-4.3-51.423-2.324-16.241-9.444-33.32-16.875-47.837 4.197-4.173 22.79 32.526 18.32 20.567-1.773-11.334-23.819-25.325-15.693-32.742 8.651 13.44 5.941 2.668-.761-3.897-1.294-12.043 3.906-26.703 3.978-39.334 1.221-7.106 2.641-10.321 4.212-12.427 1.524-4.213 22.802 6.51 28.681 15 7.355 19.804 11.332 40.944 13.822 61.883 1.914 17.44-2.367 34.33.935 51.708 3.59 10.986-.896 28.281.967 38.502h2.506c1.948-19.335-.999-38.888-2.13-58.211 3.508-20.906-.292-42.297-4.268-62.902-3.975-17.637-8.806-36.824-25.877-46.299-1.269-3.54-9.873-7.168-11.702-10.255 1.311-4.11-4.995-10.686-12.183-13.992-2.271-4.156-6.718-6.624-11.042-8.975-6.268-2.527-13.757-5.107-20.579-5.155zm1.004 2.462c8.892-.006 20.784 3.257 26.112 8.979-4.804-2.25-31.247-4.109-19.38-.803 10.706-.5 36.79 7.938 33.337 16.221-11.16-7.543-8.342-1.744.926 2.909 11.438 10.322 2.498 3.487-5.75 2.13-3.935-11.178-32.224 3.002-12.247-2.605.366 13.735-5.588 34.324-6.526 50.76-14.189-10.945-32.257-17.47-48.41-25.761-18.955-10.4.708 5.152 9.365 7.77 12.522 6.854 31.276 11.68 38.288 22.82l-.326 3.175c1.159 10.69-2.194 7.026-9.56 2.33-25.267-8.051-46.547-24.296-67.893-39.407-13.473-11.977-34.712-19.597-45.915-32.302.928-1.125.083-3.063 1.165-4.357 8.464-5.734 17.39-7.286 24.029-9.37-.379.91 1.752 1.34 1.122 3.418-2.22 4.002-.767 6.977 6.721 8.61 25.834 10.374 50.652 23.608 77.415 31.586 12.668 1.21-3.913-1.738 3.983-3.988-2.943-1.121-16.686 2.324-23.538-4.18-8.416-5.661-45.59-12.006-21.321-20.251 5.632-3.328 44.95-13.591 27.433-12.352-.222-3.65 4.605-5.328 10.97-5.333zm11.889 13.654c-8.07-.01-17.057 1.104-24.04 1.432 5.6 1.841 25.643-1.987 36.449.953l3.38.577c-3.792-2.266-9.513-2.954-15.79-2.962zm-109.155 5.898c-2.954-.189 18.934 10.83 22.863 14.354 24.989 14.717 46.39 35.169 73.125 46.967-4.69-1.468 4.828 2.304 3.225.44-18.175-9.347-35.842-20.638-51.978-33.412-14.482-9.614-28.673-19.862-44.323-27.527-1.56-.54-2.49-.795-2.912-.822zm-12.57.555c17.298 10.832 39.4 26.11 56.465 37.306 18.136 6.929-5.273 8.064-10.955 14.127-17.262 7.102-33.512 16.503-50.073 24.797-3.674 2.079-5.553 1.908-6.96 1.337-1.069-6.915 2.406-25.721-.228-30.416-2.03-7.284.778-11.764 5.44-15.1-2.499.976-4.261.77-4.57-1.791 1.896-10.384-.723-30.034 10.881-30.26zm-6.311 32.052c1.862-.727 4.133-2.109 6.518-3.663-2.349 1.103-4.592 2.285-6.518 3.663zm6.518-3.663c5.22-2.451 10.964-4.515 14.93-7.47-2.989-.854-9.278 3.788-14.93 7.47zM96.277 234.81c-.04 7.03-6.613 33.287-3.748 46.638.334 19.834-1.512 38.819-1.83 58.538-.967 4.031-.444 8.073-1.565 3.242-5.584-19.35-7.066-39.312-7.873-59.337 2.16-21.781-.114-33.297 1.536-40.647 1.075-4.788 5.853-5.464 13.48-8.434zm150.268 5.696c2.594 1.693 5.122 2.085 6.89 4.638-.338 3.997-7.472 31.925-7.531 43.183-.1 18.983-2.482 33.96-4.755 52.777l.073 2.374c-4.903-19.283-7.791-39.16-4.99-59.063 4.34-13.07.498-37.426 10.313-43.91zm-93.168.7c-2.817.322 20.489 8.594 27.009 11.94l3.577 1.326c-7.722-3.414-20.26-10.025-30.586-13.266zm-73.725 3.296c.15-.008.285.007.404.047-.422 2.403.263 17.493-.352 23.727-.458 4.858-22.32 19.14-9.916 12.437 14.944-18.343 7.087 12.62 9.912 21.916 2.087 4.86 2.016 10.604 1.231 14.604-4.72 2.963-15.485 14.638-16.972 26.906-3.966 15.312-14.678 29.805-20.579 44.22l-.602 1.822c-8.297-11.837.524-29.328-5.514-42.726 2.92-16.555 9.292-33.225 24.406-44.176 13.3-14.432-13.152 5.968-16.15 9.671-10.826 15.312-2.483-2.763-2.223-10.684 2.288-6.9 6.002-12.961 9.062-19.534 1.14-7.794 12.05-27.088 20.327-32.678 2.707-3.284 5.517-5.479 6.966-5.552zm105.486 10.2c14.77 9.22 31.152 15.264 46.86 22.613l1.472.597-.61-.673c-16.015-7.29-31.696-15.29-47.722-22.538zm-13.698 22.587c14.169 1.356-2.162 10.82-8.27 15.285-5.609-2.407-7.194-5.057-9.427-6.88 2.334-3.085 15.283-5.347 17.697-8.405zm-.233 17.605c-.145.007-.403 2.152-.817 8.053.411 19.167 1.334-8.078.817-8.053zm-8.222 19.6c-.908-.035-1.532.953-.954 3.98 6.85 1.924 3.105-3.898.954-3.98zm7.777.996c-2.21-.303-1.876 22.108-3.171 31.67 1.478 2.262 2.028-24.235 3.171-31.67zm-11.456 33c-.95.04-1.522 1.201-.427 4.56 5.912-.039 2.374-4.646.427-4.56zm5.229 5.549c-.471.032-2.72 7.054-6.344 24.964 1.521 14.845.273 21.497 1.286 36.398h1.413c-.219-1.084-.424-2.484-.208-2.742-1.536-18.825-2.556-42.24 2.651-50.251.122-.917 1.4-8.383 1.202-8.37zm-13.529 24.094c-1.04.08-1.44 1.118.576 3.98 5.727-.795 1.41-4.132-.576-3.98zm1.204 27.317c-1.466.053-2.175 1.205.673 4.427 6.315-1.545 1.77-4.514-.673-4.427z"/>
</svg>
