<svg xmlns="http://www.w3.org/2000/svg" width="1278.065" height="1569.494" viewBox="0 0 338.155 415.262">
  <path fill="none" d="M0 1h337.155v414.262H0z" paint-order="stroke fill markers"/>
  <path class="outfit01" fill="#f9f9f9" d="M219.1 225.407c-2.274.068-4.094 1.87-2.514 6.3-4.662 10.946-9.494 21.97-14.915 32.666-1.62 4.191-7.813 5.14-7.99 3.943l-3.632.678c-8.63 3.495-17.756 6.837-27.198 6.54-10.19.139-19.014-2.218-28.437-1.549-14.33.893-8.793-18.442-14.459-27.536-.493-4.4-5.034-25.99-5.581-11.624.069 13.093-.316 26.83 4.89 39.066 10.339 5.662 23.565 3.126 34.964 6.21 7.285 1.343 15.313 4.34 22.509 3.72 9.546-7.055 23.53-4.299 32.198-13.523 9.195-9.233 6.713-24.647 12.933-35.952 5.433-4.93.78-9.044-2.768-8.939zm39.827 6.518c-4.164.032-7.836 1.582-9.372 5.177-5.425 10.651-8.694 24.031-4.377 35.431 3.422 18.53 7.65 38.075 2.53 56.657-7.966 8.75-7.403 19.96-10.33 31.193-5.251 7.644 12.3 3.496 4.377 12.255-2.656 7.884 10.859 3.387 6.397-3.62 7.726-10.296 14.092 3.883 5.896 6.919 7.569 5.01 5.81-11.993 15.757-8.242 6.111 1.576 1.818-15.888 4.313-2.53 4.427 6.446-10.822 15.73 3.43 12.285 8.94 1.24 9.844-3.588 8.656-7.82 1.626 6.132 7.135 11.111 3.098.521-2.179-4.124-6.61-24.843-7.986-10.994-1.626-8.043.452-15.043 7.65-18.311 3.019-12.316 9.398-21.341 8.342-34.676 2.516-11.008-5.197-19.676-7.956-29.687-1.023-12.64-6.355-23.91-13.128-34.501-2.052-5.946-10.357-10.11-17.297-10.057zM73.43 237.539c-1.997.04-4.288.9-6.895 2.86-12.141 3.273-18.871 18.066-26.268 27.082-4.614 12.142-8.93 24.36-13.353 36.57-2.737 12.633 3.01 31.03 1.827 37.778-5.782 7.685-9.683 21.225-6.116 29.698 5.656.163 8.894 1.984 5.264-4.766 2.438-3.372 9.852-20.254 5.391-6.86-5.07 6.7 11.607 13.836 15.612 9.401 2.277 2.735 2.57 7.306 7.344 4.651-2.206-3.774-2.941-15.773 6.73-11.394 7.459 2.89-3.892 18.149 6.872 8.129 2.521-3.415 3.99 1.087 6.865 1.151 2.164.05 5.675-4.096 7.96-6.645 4.468-5.69-6.332-17.879-6.783-22.36 11.609-1.875 4.462-19.73 6.448-27.996 4.281-18.626 1.346-38.03.376-56.923-.125-8.079-3.438-20.533-11.274-20.376zM30.95 366.895c-.999-.003-1.203 1.238.661 4.628-6.534 5.122-2.276 3.4 3.89 3.75 3.688-2.357-2.354-8.374-4.55-8.378zm224.364 1.317a3.62 3.62 0 0 0-.255 0c-2.725.106-9.022 3.138-2.938 4.325l1.985-1.398c2.65-2.096 2.423-2.884 1.208-2.928zm30.507 9.324c-2.668-.06-8.049 3.922-.177 2.09l1.349-.32c.305-1.283-.283-1.75-1.172-1.77zm4.587 1.155c-.776.025-2.938 1.228-4.35 1.91-1.472.709-6.226 4.625-.98 2.594 5.924.961 7.477-4.572 5.33-4.504z"/>
  <path class="outfit02" fill="maroon" d="M231.687 227.21c-2.29.053-4.209.372-5.241.904-5.427 11.411-8.208 23.782-10.694 36.095-5.354 12.637-20 15.875-32.087 18.371-10.625 5.454-1.72 22.547-5.35 32.813-.189 12.354.488 24.974-2.857 36.987-.543-11.535 1.292-23.664.86-35.372-1.507-9.573 6.94-29.348-6.659-30.814-13.588-3.345-27.316-5.856-41.314-6.575-17.92 1.513-16.064-20.4-17.501-32.475 1.033-7.371 3.07-22.127-9.136-15.193-8.43 1.562-24.935 1.069-16.642 13.37 3.155 11.43 1.64 20.032 2.062 35.983-1.335 11.912-3.184 21.634-4.397 33.591.225 10.544 3.28 23.508.392 31.52 5.99 12.784.8 27.764 5.865 41.067 8.046 6.54 29.27 4.19 39.436 4.631 12.194.96 24.406 4.31 36.59 2.337 15.537 2.13 4.179-17.026 8.265-25.488.485-6.334 2.333-15.189 2.14-3.566-2.603 9.57 3.304 24.042-5.013 30.743l5.607-.192c1.12-2.159 14.44-2.25 17.49-2.3 11.425-.748 39.108-.109 44.268-11.877 2.508-10.476 5.29-18.76 4.799-32.43-.955-10.858 8.385-20.613 10.127-29.694 4.092-15.133 1.061-29.213-.817-44.112-1.444-11.922-4.148-23.65-2.325-38.432 5.739-8.915-9.687-10.082-17.868-9.891z"/>
  <path class="outfit03" fill="#5f8dd3" d="M107.632 391.557c-.336-.007-14.278-1.801-14.612-1.791-8.73.268-7.064 7.666-6.266 16.953-.549 2.45-.17 6.546-.723 8.703h6.662c2.117-7.634 5.37-15.565 12.286-18.997.065 6.286-3.494 12.756-6.199 18.997h51.77c1.177-3.276 2.53-7.06 4.144-10.332 7.443-11.555 1.116 4.078-1.86 10.332h61.107c-.07-6.012-.38-12.052-4.299-13.497-2.09 5.289-7.207 13.068-3.153 2.38 5.703-11.426 9.423 2.987 9.701 11.117h26.036c-.384-1.06.074-3.143-.439-3.446-.404-7.426-3.412-17.273-6.967-23.02-.897-1.451-15.818 3.508-22.016 5.699-11.998 2.248-24.058-.523-35.636 2.5-.678-.46-1.043-.86-1.155-1.209l-5.607.193c-18.694 3.185-37.013-3.57-55.691-3.072a19.584 19.584 0 0 0-7.083-1.51zm-6.808 9.88c-3.205 2.699-4.86 8.82-6.208 13.985h2.375c1.759-5.877 3.54-11.55 3.833-13.985z"/>
  <path fill="#d3bc5f" d="M168.977 297.523a4.107 4.107 0 0 0-.314 0c-2.846.132-7.074 3.433-.731 5.314l1.78-1.14c1.753-2.993.799-4.112-.735-4.175zm-.82 30.434a4.743 4.743 0 0 0-.391.01c-2.731.212-6.366 3.258-1.772 6.27l2.207-.272c3.062-4.324 1.868-5.956-.043-6.007zm-2.398 27.354c-2.915.1-7.183 3.868-.694 6.08l.887-.345.976-.828c1.84-3.708.58-4.967-1.17-4.907zm.307 25.808a2.111 2.111 0 0 0-.252.003c-2.644.131-6.648 3.735-1.557 5.129l1.631-.376 1.168-.49c1.267-3.089.386-4.21-.99-4.264z"/>
  <path class="skin" fill="#f7ba8f" d="M59.603 364.138c-3.808-.019-1.504 7.562-.326 10.511-5.82 7.647-19.207-10.047-20.233 3.33.698 13.428 4.09 25.996 7.749 37.443h36.915c.494-3.678 2.568-9.504 3.023-12.868 1.217-8.99-1.636-19.577-2.807-28.376 4.623-9.306-5.205-3.338-8.982 1.5-4.123-.943 3.762-10.12-3.14-4.475-5.565 11.171-13.377 2.157-8.497-5.688-1.619-.964-2.823-1.373-3.702-1.377zm178.168 17.632c-1.548 4.527-1.184 4.962-2.728 6.92 3.277 7.262 6.348 18.885 8.087 26.699l28.098.033c1.48-3.548 4.276-4.555 4.268-7.476 1.911-12.869 11.497-28.64-.301-28.677-9.636-2.712 2.172-13.108-9.094-11.574-7.216 1.406-4.2 12.196-10.367 9.889-13.258-1.522-15.782-.334-17.963 4.186z"/>
  <path d="M217.446 221.62c-4.948-.128-2.676 7.779-3.726 12.92-6.262 9.903-8.05 22.043-15.87 31.043-10.338 4.137 1.488 4.826 3.82-1.21 5.422-10.696 10.254-21.72 14.917-32.667-4.047-11.342 14.196-5.451 5.281 2.64-6.22 11.304-3.738 26.72-12.934 35.952-8.666 9.225-22.651 6.468-32.198 13.523-7.195.62-15.224-2.377-22.508-3.72-11.4-3.084-24.626-.548-34.964-6.21-5.206-12.237-4.82-25.973-4.89-39.066.547-14.366 5.088 7.224 5.58 11.624 5.667 9.094.13 28.429 14.46 27.536 9.423-.67 18.246 1.688 28.436 1.55 9.91.31 19.477-3.382 28.482-7.058-7.591-.522-17.753 5.79-26.211 5.728-9.86-1.277-17.446-.037-26.968-2.554-10.186 3.098-12.608-7.221-13.157-15.516-4.75-8.667-2.882-23.649-6.642-29.8-11.43 2.223-22.852 2.535-33.938 6.432-9.794 5.011-26.28 3.855-32.011 14.803-6.44 9.677-14.441 19.237-17.952 30.562-2.813 12.14-9.757 23.228-8.798 36.063-.507 10.152 4.959 20.993.707 30.315-2.784 9.06-13.256 23.486-3.522 30.82 5.604 4.704 12.295-4.2 14.547 9.44 2.392 9.955 4.387 20.52 7.365 30.652h2.57c-3.658-11.447-7.58-24.014-8.278-37.443 1.026-13.377 14.412 4.317 20.233-3.33-1.45-3.63-4.605-14.276 4.028-9.134-4.88 7.845 2.932 16.86 8.496 5.688 6.903-5.645-.982 3.532 3.141 4.476 3.777-4.84 13.605-10.807 8.982-1.5 1.17 8.799 2.152 19.12.936 28.108-.455 3.365-.659 9.457-1.153 13.135h2.323c.553-2.156.176-6.254.724-8.703 1.037-5.34-1.53-15.475 2.942-15.508 4.085-.03 18.056-1.031 25.018 1.856 18.828-.503 37.292 6.368 56.142 2.995 9.324-6.493 1.895-20.857 4.563-30.666.193-11.623-1.655-2.768-2.14 3.566-4.087 8.462 7.272 27.618-8.265 25.487-12.184 1.973-24.396-1.376-36.59-2.336-10.166-.441-29.92-3.303-39.436-4.63-2.506-15.833.125-28.283-5.865-41.067 2.889-8.013 1.297-24.12 1.072-34.664 1.213-11.958 2.498-19.888 3.834-31.8 1.158-16.093.192-23.201-2.964-34.63-8.292-12.302 8.213-11.809 16.643-13.37 12.206-6.934 10.17 7.821 9.135 15.192 1.438 12.075-.418 33.988 17.501 32.474 13.998.72 27.727 3.231 41.315 6.576 13.599 1.466 5.152 21.24 6.66 30.814.43 11.708-1.404 23.836-.861 35.372 3.344-12.013 2.668-24.633 2.857-36.987 3.63-10.266-5.275-27.36 5.35-32.813 12.087-2.496 26.733-5.734 32.087-18.37 2.486-12.314 5.267-24.685 10.694-36.096 4.72-2.43 27.955-.401 20.61 11.01-2.258 13.59 3.032 24.928 4.823 36.41 1.879 14.9 3.19 30.13-.902 45.262-2.016 15.17-22.95 27.8-36.57 27.992-8.091-.456-10.768 2.417-.587 1.86 6.036 2.94 28.355-14.387 27.408-6.458 1.241 13.975-.48 23.933-4.382 37.79-5.16 11.768-31.785 10.585-43.344 11.668-3.692.06-22.382-.596-16.334 3.507 11.577-3.023 23.638-.253 35.636-2.5 3.237-1.103 9.436-1.806 14.057-2.77 2.824-.59 6.833-2.406 7.368-2.01 1.705 1.263 7.16 14.78 7.558 22.101.513.303.054 2.385.44 3.446h1.899c-.27-7.68-4.684-18.565-6.624-26.829.637-5.282 1.8-1.56 3.348-9.095 6.279 1.728 11.103-3.132 13.224-.779 10.797 4.765 5.178-7.17 12.394-8.576 11.266-1.534-6.805 7.265 2.83 9.976 16.435-4.198 7.466 15.903 6.216 24.803.011 2.921-2.806 6.952-4.286 10.5h3.59c1.867-6.415 3.452-13.452 4.97-19.953 1.75-11.896 9.016-5.343 14.746-12.086-.684-11.108-5.689-21.418-8.542-32.095 6.91-9.57 9.547-20.697 11.677-32.426 2.275-12.52 3.116-22.382-1.78-32.657-5.279-11.732-5.135-24.068-12.69-35.02-4.456-12.03-9.352-22.812-28.226-21.004-10.47-2.344-21.616-6.855-32.82-7.056-2.04-1.018-3.565-1.475-4.707-1.505zm41.482 10.305c6.94-.053 15.244 4.11 17.296 10.056 6.774 10.592 12.104 21.862 13.128 34.502 2.759 10.01 7.044 18.416 6.368 29.687-.8 13.353-4.265 22.36-7.282 34.676-7.2 3.267-8.748 10.268-7.123 18.311 1.377-13.85 5.279 6.87 7.458 10.994 4.037 10.591-.543 5.443-2.57-.522.822 3.83.815 8.531-8.126 7.291-14.252 3.445.468-5.309-3.96-11.756-2.495-13.357 1.8 4.107-4.312 2.531-9.947-3.75-8.188 13.251-15.757 8.24 8.197-3.035 1.83-17.212-5.897-6.917 4.463 7.007-9.053 11.504-6.396 3.62 7.923-8.759.275-4.779 2.196-13.819 2.928-11.234.024-20.878 7.99-29.629 5.12-18.581 5.125-38.127 1.703-56.657-2.721-11.4-5.004-24.78-4.09-35.431 1.537-3.595 5.21-5.146 9.374-5.177zm27.276 137.704a9.286 9.286 0 0 0-.438-1.454c.125.485.274.972.438 1.454zM73.43 237.539c7.835-.157 11.149 12.298 11.274 20.376.97 18.893.692 33.95-3.59 52.576-1.984 8.267 8.375 30.469-3.234 32.344.45 4.48 8.216 20.661 4.127 23.799-1.264 1.41-4.574 5.18-4.696 4.16-.497-4.145-4.103-4.67-7.473-.106-10.765 10.02.586-5.24-6.872-8.129-9.672-4.38-8.936 7.62-6.73 11.394-4.774 2.655-5.067-1.916-7.344-4.65-4.005 4.434-20.682-2.702-15.612-9.403 4.46-13.393-2.954 3.489-5.391 6.861 3.629 6.75.392 4.929-5.264 4.766-3.567-8.473 2.98-22.013 8.76-29.698-1.65-12.418-6.15-25.145-3.412-37.779 4.423-12.21 9.797-24.427 14.411-36.569 7.396-9.016 12.01-23.81 24.15-27.082 2.607-1.96 4.898-2.82 6.896-2.86zm95.98 57.844c-4.522.016-9.897 4.008-3.28 9.053 2.299 1.476 5.136.16 6.828-1.602 2.6-5.357-.247-7.463-3.547-7.45zm-.747 2.14c1.708-.079 2.919.983 1.05 4.176l-1.782 1.139c-6.343-1.88-2.114-5.182.732-5.314zm.19 28.15c-4.6.024-10.177 6.801-3.305 11.222 4.118 2.383 8.635-1.934 7.708-6.212-.425-3.636-2.313-5.02-4.404-5.01zm-.642 2.286c1.88.081 3.023 1.724-.011 6.007l-2.206.272c-4.85-3.18-.53-6.397 2.217-6.279zm88.982 9.854c-.108-.008-.333.01-.727.08-.518.536 1.195-.042.727-.08zm11.36.426c-.34-.013-.613.095-.792.356 3.28.023 3.232 6.93 8.174 5.793 2.58 2.004-4.618-6.049-7.383-6.15zm-18.858.304a4.767 4.767 0 0 0-.395.004c-6.709 1.237-2.48 1.027.925 2.559 3.777 3.066 3.437-2.424-.53-2.563zm-204.71 2.79c-.637-.308-7.037 7.357-7.127 8.833 1.427.112 7.654-8.899 7.128-8.833zm49.724 2.954c-5.182 1.612 20.55 9.707 25.349 9.076 5.823.294 11.666-.419 17.471-.803-9.362-1.169-30.593-.139-42.82-8.273zm-23.582 5.494c-.473-.187 1.09 9.441 1.953 12.237 1.478.938-.327-6.07-.51-7.394-.834-3.423-1.271-4.775-1.443-4.843zm103.824 2.933c-.092-.026-.236.508-.426 2.14.554 1.645.66-2.074.426-2.14zm-8.546 1.428c-4.61.053-10.216 4.576-2.423 9.135 1.968.475 4.65.368 5.878-1.541 2.388-5.572-.3-7.63-3.455-7.594zm-.43 1.168c1.632.05 2.717 1.354.953 4.908l-.976.828-.887.345c-6.651-2.267-2.001-6.169.91-6.08zm-114.207 2.894c-.09.063-.337.72-.835 2.448-.03 2.5 1.105-2.64.835-2.448zm22.086 4.804c-.163-.004-.283.348-.252 1.364 1.623 1.874.742-1.35.252-1.364zm-42.904 3.887c2.197.004 8.239 6.02 4.552 8.377-6.167-.35-10.425 1.373-3.891-3.75-1.864-3.39-1.66-4.629-.661-4.627zm224.109 1.32c1.427-.056 1.874.69-.953 2.926l-1.985 1.399c-6.085-1.187.214-4.22 2.938-4.326zm30.761 9.32c.89.02 1.478.488 1.173 1.77l-1.35.322c-7.871 1.831-2.49-2.15.177-2.092zm4.588 1.156c2.147-.068.594 5.465-5.33 4.504-5.246 2.03-.03-1.761 1.58-1.66 1.713-2.062 2.973-2.82 3.75-2.844zm-124.956.89c-3.585-.026-7.017 2.455-3.636 8.232 1.645 2.209 4.642.294 6.729.372 5.233-5.325.971-8.575-3.093-8.605zm.614 1.539c1.376.053 2.257 1.176.99 4.265l-1.169.489-1.63.376c-5.255-1.44-.82-5.232 1.809-5.13zm58.54 15.083c1.729 2.041 6.428 11.317 8.181 19.22h1.023c-.623-6.902-3.57-17.081-9.205-19.22zm-119.627.222c-6.916 3.433-10.169 11.364-12.286 18.997h1.923c1.348-5.164 3.002-11.286 6.208-13.985-.293 2.435-2.075 8.11-3.834 13.985h1.79c2.704-6.24 6.265-12.71 6.2-18.997zm98.397 2.489c-.94-.058-7.364 10.642-4.76 14.561 1.793-2.066 1.212-6.763 2.94-9.447 1.782-3.665 2.16-5.094 1.82-5.114zm-83.503.293c-.655-.013-1.035.33.057 1.379 2.898-.355 1.037-1.359-.057-1.38zm-7.802.466c-1.83-.016-4.036 1.624-5.354 5.208-4.422 9.755 1.6 2.094 3.768-2.269 3.677.95 2.54 6.96 1.403 12.81h1.7c.31-2.968.63-6.292.97-8.082 1.59-4.886-.136-7.646-2.487-7.667zm98.56.3c-1.22.017-2.61 1.26-4.143 4.332-4.053 10.688 1.064 2.909 3.154-2.38 3.918 1.445 4.225 7.487 4.296 13.497h2.252c-.204-5.944-2.246-15.493-5.56-15.448zm14.727.57c-.117-.015-.275.027-.476.166.736 1.04.985-.1.476-.165zm-63.818.204c.32 2.261.864 8.957.894 14.675h1.26c.817-5.095.911-11.499-2.154-14.675zm-3.542.118c-.378.036-1.381 1.24-3.304 4.226-1.614 3.272-2.967 7.056-4.145 10.331h2.285c2.207-4.638 6.251-14.659 5.164-14.557zm67.858 1.843c-.074.003-.133.418-.15 1.534.957 4.783.44-1.545.15-1.534zm-88.502 3.493c-.578-.113-2.838 2.56-3.89 6.245-.793 2.558 2.924-1.073 1.793-1.527 2.102-3.257 2.493-4.64 2.097-4.718zm34.196 1.37c-.252.045-.377.642.104 2.254 1.09-.865.316-2.328-.104-2.254zm-.026 3.451c-.11-.05-.252 1.235-.412 3.467.05.386.095.664.14.933h.493c.055-1.46-.038-4.315-.221-4.4zm33.354 2.51c-.115-.004-.235.642-.331.97 1.08 1.103.741-.96.331-.97zm-102.17 1.033c-.137-.02-.41.144-.881.631.01.085.015.159.025.226h.75c.205-.368.317-.828.106-.857z"/>
</svg>
