<svg xmlns="http://www.w3.org/2000/svg" width="1278.065" height="1569.494" viewBox="0 0 338.155 415.262">
  <path fill="none" d="M.5.5h337.155v414.262H.5z" paint-order="stroke fill markers"/>
  <path class="outfit02" fill="#d4aa00" d="M145.431 398.703c1.182.004 2.257.183 3.094.586.912.462 1.735.965 1.83 1.118.094.153.086.808-.019 1.455-.196 1.21-.34 1.283-1.716.873-.443-.132-2.188-.17-3.878-.086-3.287.165-9.318-.175-9.318-.525 1.947-1.861 6.46-3.432 10.007-3.421zm-56.25-157.575c.139.004.263.03.368.08 5.385 2.45 2.463 7.102 4.643 12.957.702 1.6 2.385 3.56 3.595 4.185.496.256 1.552.466 2.347.466.795 0 1.535.145 1.645.322.12.195-.324.322-1.124.322-4.194.06-6.83 5.167-4.137 8.54 1.137 1.295 4.914 3.174 5.876 2.922.338-.088.9-.008 1.249.178.586.313.617.562.415 3.314-.2 2.711-.145 3.17.609 5.172.454 1.208.986 2.39 1.182 2.625.736.887 2.594.211 4.005-1.458.384-.454.832-.694 1.046-.561.582.36.455.76-.584 1.846-1.135 1.189-1.495 2.717-.996 4.23.463 1.403 2.971 4.368 4.486 5.303 1.517.936 4.57 1.932 6.788 2.213 1.367.174 1.602.279 1.068.477-2.13.788-1.359 3.633 1.364 5.031.53.273 2.359 1.869 4.062 3.546 3.702 3.647 5.656 4.9 7.663 4.906.88.003 1.648-.199 2.013-.53.658-.59 1.256-.325.646.284-.44.441-.478 5.485-.082 11.197.182 2.617.544 4.645 1.236 6.92 1.614 5.376 2.445 10.93 4.264 16.258 1.658 5.123 3.35 12.243 4.672 18.672 1.01 4.553.85 9.24 1.561 13.843.256 2.213.544 7.874.643 12.58.098 4.707.325 8.944.505 9.417.394 1.038.352 1.044-1.36.163-4.384-2.205-9.44-.134-14.308 1.805-1.168.38-1.905.864-2.4 1.572-.392.562-.865 1.128-1.05 1.258-.38.267-.519.263-2.134-.052-1.136-.222-4.348-1.442-6.931-2.632-.728-.336-1.715-.61-2.194-.61-1.42 0-1.97-.497-3.482-3.132-1.6-2.793-1.96-3.972-4.139-13.606-.34-1.503-.706-3.011-.815-3.351-.171-.54.026-.494 1.532.356 1.929 1.088 3.46 1.512 4.058 1.125.675-.435-.4-1.566-3.245-3.416-3.895-2.533-4.022-2.72-4.39-6.49-.376-3.846-.97-6.71-2.783-13.431-.42-1.557-.764-2.95-.764-3.097 0-.146 1.39.65 3.088 1.77 5.147 3.394 7.102 4.038 7.984 2.629.538-.86 0-1.465-3.246-3.622-5.2-3.46-8.997-8.111-14.006-17.156-2.224-4.017-2.632-5.002-3.01-7.266-.242-1.441-.587-3.416-.768-4.39-.394-2.126-1.326-14.953-1.326-18.35 0-2.598-.23-4.578-1.268-11.106-1.131-7.106-1.262-8.21-1.61-13.521-.92-14.06-.874-13.725-2.704-19.96-1.93-6.458-5.462-11.506-5.19-17.598 1.283-1.238 4.088-3.187 5.434-3.148zm162.068-10.448c.178.003.347.052.539.126.47.179 1.507.325 2.302.325.795 0 2.085.16 2.866.357l1.42.358-.497 1.171c-8.782 21.865-12.766 31.557-15.116 75.853-.436 8.646-4.83 22.096-7.083 31.393-1.336 3.22-4.716 7.649-8.787 11.513-1.444 1.37-2.623 2.727-2.622 3.015.01 1.46 1.884 1.506 4.428.11.752-.412 1.368-.59 1.368-.398-2.109 11.217-7.62 20.673-7.027 33.545.1 4.149.072 4.386-.538 4.555-11.28 3.305-24.109 8.543-38.198 9.634-7.655 1.035-14.334 1.417-13.952.798.146-.236.296-1.89.333-3.674.037-1.784.224-4.982.415-7.106.191-2.125.497-7.92.679-12.878.317-8.613.592-12.58 1.316-18.993.748-6.66 1.55-13.09 2.879-19.96.586-4.08 1.666-9.14 2.75-13.681 1.559-6.66 2.732-14.696 2.732-18.741v-1.517l6.841.19c6.278.173 7.078.132 9.715-.503 3.25-.782 6.11-1.956 8.223-3.378 2.407-1.619 6.278-5.543 7.248-7.346a42.42 42.42 0 0 1 1.785-2.99c.912-1.352 2.545-4.903 3.535-7.69 3.787-10.591 9.25-22.391 14.989-32.873.56-.886 1.78-3.125 2.708-4.977 2.291-4.569 2.887-5.316 9.342-11.716 3.696-3.666 4.635-4.534 5.407-4.522z"/>
  <path class="outfit03" fill="#8a0" d="M157.707 413.829c.704-.022 1.129.187 1.352.555h-3.681c.985-.36 1.752-.537 2.329-.555zm10.202-.449c.112.005.208.035.261.088.107.107-.083.183-.422.17-.375-.016-.451-.092-.195-.195a.885.885 0 0 1 .356-.063zm.96-6.3c.293 0 .622 0 .998.004 4.454.117 10.084 2.578 14.583 4.465l-.933.399c-.587.25-2.55.398-5.28.402-4.089.003-4.489-.054-6.76-.967-1.328-.533-3.61-1.14-5.07-1.348-1.461-.208-2.656-.454-2.644-.548.01-.093.695-.677 1.529-1.297 1.304-.967 1.528-1.104 3.577-1.11zm-6.356-1.144c1.639 0 1.652.008 1.077.644-.32.354-.669.637-.775.631-.32-.021-1.962-.962-1.962-1.123 0-.083.747-.152 1.66-.152zm-25.083-.491c.8.006 1.806.023 3.061.052 3.32.077 7.353.286 8.962.467 1.608.18 4.096.244 5.528.141 1.501-.107 2.683-.057 2.791.117.107.172-.752.383-1.988.487-5.065.427-12.068.444-16.178.037-2.39-.236-4.527-.443-4.748-.459-.222-.016-.403-.231-.403-.479 0-.28.57-.38 2.975-.363zm-21.951-5.265c.147.017.314.164.605.427.44.399 1.311.657 2.519.747 1.918.144 3.4.55 6.675 1.83 1.062.416 2.583.86 3.38.987 2.163.344 2.576.656 2.576 1.949 0 1.375.748 2.585 1.997 3.23 2.398 1.241 15.39 1.935 23.676 1.266l3.3-.266v.771c0 .758-.054.772-3.139.805-2.174.024-4.174.287-6.517.86a80.378 80.378 0 0 1-8.83 1.598h-18.185a43.21 43.21 0 0 1-1.297-.222c-2.354-.309-5.667.064-7.252-.596-3.878-1.614-3.787-1.496-3.734-4.939.048-3.07 2.03-5.891 3.538-7.833.343-.442.499-.635.688-.614zm111.082-5.467c.267.102.458.615.458 1.229 0 .579.233 1.246.517 1.481 1.375 1.359 3.15 9.196 4.42 12.448 0 .817-1.327 1.453-3.703 1.773-.885.12-2.478.489-3.54.82-4.184 1.306-10.94 1.486-24.263 1.831-1.87.049-1.886.047-3.514.089h-9.723c.057-.184.225-.466.504-.832.996-1.306 1.125-3.382.258-4.155-.883-.786-6.227-3.084-7.734-3.325-.748-.12-1.36-.316-1.36-.435 0-.207 6.667-1.073 11.428-1.485 12.261-1.185 25.321-5.773 36.252-9.44z"/>
  <path class="outfit01" fill="#fff" d="M161.054 388.574c2.137 2.156 3.471 2.667 4.032 5.399-.07.955.107 1.474.765 2.256.47.559 1.059 1.015 1.309 1.015.326 0 .462.431.462 1.53.01 1.93.473 3.966.974 4.275-2.68 1.4-8.368.51-11.75-.01l-1.99-1.972c-2.341-2.321-2.772-3.596-1.434-4.238.61-.292.91-.771 1.128-1.807.55-2.516 4.68-4.198 6.504-6.448zm8.095-9.673c.76-.003-.564 8.268-.635 9.967-.214 1.243-.467 2.25-.564 2.24-1.916-.286-3.42-2.868-4.91-4.091 1.767-2.105 3.357-3.885 4.616-6.35.6-1.387.917-1.761 1.493-1.766zm-16.967-.81.712.964c1.716 2.263 4.361 4.736 6.093 7.616-1.712 1.828-4.148 3.502-6.281 4.779-.152 0-.548-8.341-.536-11.267zm8.568-6.05 1.188.808c1.519 1.031 4.388 3.742 4.388 4.145-.195 2.163-3.578 6.402-5.437 7.696-2.935-2.155-3.784-5.157-6.095-8.707.632-1.869 4.13-2.815 5.956-3.942zm8.312-8.474 1.071.32c.97.292 1.055.416.903 1.307-.092.542-.257 1.999-.366 3.238-.323 3.677-.412 3.944-1.313 3.944-.817.016-1.418.641-2.09 1.018-.075-.015-1.036-.674-2.136-1.464l-2-1.436 2.966-3.464zm-18.759-2.587c.103-.016.402.253 1.045.853 2.738 2.592 4.813 5.964 7.222 8.486-1.65 1-2.946 1.75-4.67 2.408-.159-.028-.744-.11-1.3-.18-.997-.125-1.014-.157-1.354-2.603a84.669 84.669 0 0 1-.516-5.053c-.094-1.417-.265-2.938-.38-3.38-.087-.333-.126-.518-.046-.531zm10.43-4.823c.455.019.871.265 1.816.827a54.703 54.703 0 0 0 3.374 1.823c2.483 1.204 2.376 1.876-.926 5.84-1.44 1.728-2.924 3.392-3.3 3.697-.375.306-.755.554-.844.549-3.607-3.319-6.941-6.808-8.405-9.219a7.44 7.44 0 0 0 .473-1.11c.11-.36.923-.702 2.518-1.058 1.295-.29 3.047-.75 3.891-1.025.67-.218 1.048-.34 1.403-.324zm11.52-7.553c.068-.003.106.022.11.074 1.161.774-.036 5.802-.282 8.165l-1.67.05c-1.636.049-4.064-.771-5.723-1.933-.904-.643 6.562-6.331 7.566-6.356zm-24.39-2.341c1.818.063 6.85 6.073 8.918 7.144 1.761 1.229 1.833 1.327 1.098 1.511-4.283 1.075-6.076 1.325-6.61.919-.306-.233-.945-.427-1.42-.432-.933-.011-1.049-.228-1.394-2.587-.187-1.28-.878-4.357-1.31-5.835-.1-.342.092-.587.553-.707a.703.703 0 0 1 .166-.013zm10.907-6.11c.34.017.784.165 1.324.443 3.777 1.913 6.941 2.852 10.667 4.683-2.22 2.918-6.053 5.136-9.103 8.104l-2.391-1.49c-3.918-2.485-7.502-5.225-8.975-8.484.091-.886.276-1.013 2.475-1.708 1.746-.548 3.72-.891 5.556-1.467a.763.763 0 0 1 .308-.08c.044-.004.09-.004.14 0zm14.372-7.871 1.104.69c1.802 1.115.205 6.904-.311 9.703-.201.706-.583 1.32-.849 1.364-.265.044-1.28-.257-2.253-.668-3.4-1.435-6.287-2.466-9.325-4.045.01-.104.476-.42 1.046-.7 2.06-1.017 6.467-3.58 8.505-4.947zm-29.146-2.22c.452.019.87.282 1.615.942 1.639 1.452 6.984 5.37 8.79 6.444.91.54 1.263.904.966.993-.258.077-1.58.446-2.937.82-2.88.793-2.975.792-4.454-.015-.766-.419-1.462-.556-2.175-.429-.893.16-1.091.075-1.338-.575-.38-.998-1.996-7.709-1.884-7.821.048-.048.47-.183.94-.3.171-.044.326-.065.477-.06zm14.232-5.964c4.835 1.572 9.747 3.442 14.118 5.414.155.465-6.37 4.63-10.945 6.985-2.145 1.104-3.658 1.041-5.86-.246-2.644-1.547-9.633-6.703-9.581-7.07.023-.163.89-.616 1.924-1.005 2.554-.969 5.063-2.397 7.742-3.218zm-15.023-6.671c2.735-.057 9.114 3.843 11.818 5.09-2.704.884-5.186 2.113-7.84 3.235-1.057.368-1.957.668-2.004.668-1.444-1.98-1.477-2.108-4.173-2.73-.439-.145-1.078-2.9-1.078-4.645 0-1.118.068-1.214.763-1.081.42.08 1.226-.093 1.791-.385.197-.098.44-.147.723-.152zm32.651-1.152c.463.003.949.182 1.569.568 1.164.724 1.164.725.99 2.6-.095 1.032-.406 2.843-.692 4.024-.455 1.887-.613 2.154-1.296 2.195-1.064.094-2.012 1.043-2.871 1.645-5.13-1.826-9.925-3.65-11.979-5.237.399-.114 1.956-.77 3.461-1.456 3.946-1.798 9.357-4.035 10.36-4.283.152-.038.304-.057.458-.056zm-35.748-1.122c.277 0 .412.145.303.322-.11.177-.335.322-.502.322-.167 0-.303-.145-.303-.322 0-.177.226-.322.502-.322zm31.144-.545c.682-.003 1.081.009 1.106.033-4.152 2.342-8.547 3.165-12.966 5.673-1.07.526-2.012.945-2.093.933-3.577-.8-6.621-3.347-9.967-4.725l-1.77-.862 1.287-.266c.99-.204 19.627-.777 24.403-.786zm28.22-33.202c.436.163.851.354.921.424.22.22-3.254 4.005-4.744 5.17-.81.633-1.79 1.111-2.278 1.111-.495 0-1.172.336-1.604.795-.962 1.024-2.07 1.369-5.697 1.773-4.176.466-3.887.273-4.44 2.992-.288 1.418-1.352 2.176-2.97 2.115-2.088-.08-2.47.512-2.196 3.393.174 1.831.09 2.537-.484 4.074-.731 1.938-4.953 5.752-7.185 2.875-.666-.891-1.912-2.125-2.77-2.741-1.524-1.095-1.555-1.149-1.293-2.323.205-.916.905-1.815 2.944-3.778 6.13-5.875 22.534-12.676 31.796-15.88zm-120.65-36.599c1.505.027 1.595 3.817 2.606 7.229 5.538 11.62 6.486 23.308 7.03 35.99 3.34 14.817 1.087 30.472 6.012 44.947 2.704 9.967 14.22 17.987 5.562 28.523-5.14 10.822-4.41 25.682-8.897 37.057-.464 7.207-4.517 11.233-5.637 15.831H47.625c-.262-4.356-1.035-9.011-.886-12.14-2.263-5.227.675-11.788-3.665-16.115-1.392-9.169 1.028-18.875 1.201-28.204 1.086-10.852 4.446-21.332 3.124-32.366-.904-17.625 4.153-34.591 9.66-51.094 6.411-9.19 8.585-17.876 17.48-25.42 2.148-3.085 3.438-4.253 4.282-4.238zm182.79-9.704c2.64-.086 6.038 2.33 8.956 5.51 10.648 6.292 13.834 18.08 15.471 29.494-2.51 11.743 4.685 24.31-.842 35.71-5.768 10.834 1.693 22.32-.724 33.812.377 10.976-.742 21.866-3.058 32.344 1.15 6.263-4.338 10.975-4.3 17.21-.222 8.763-2.663 17.076-5.429 25.201h-35.593c-1.637-5.162-3.901-10.633-4.526-14.704-6.485-8.238-6.14-18.05-2.856-28.284 2.748-16.119 12.53-30.074 14.101-46.424 4.341-15.947 3.636-32.64 5.574-48.95 1.27-11.538 5.502-22.547 8.86-33.651.297-5.167 2.036-7.192 4.365-7.268zm-150.577-7.736c3.288.048-2.353 2.333-2.345 5.993-2.364 5.845-3.34 7.836-2.127 12.747 1.978 7.725 2.784 17.556 10.877 21.538 8.062 3.532 9.498 13.385 16.353 18.277 6.417 4.188 13.303 7.785 19.367 12.566 4.755 1.897 2.811 3.495.11 6.4l-.585 1.1c-2.916-1.455-7.94-4.279-11.475-.29-2.664-3.255-6.484-.287-9.57-2.31-2.04-2.042-8.22-4.952-7.296-7.578 2.636-7.789-12.648-2.843-13.414-10.85 3.317-2.442 1.295-9.594-2.797-5.424-2.349-2.676-.94-11.684-8.148-11.744-7.843-5.754 7.41-4.596 3.824-10.644-7.22-.152-7.79-2.017-7.978-8.052 2.045-7.038-9.625-8.4-3.663-14.321 4.366-2.778 11.195-2.985 14.985-7.073 1.889-.238 3.123-.346 3.882-.335zm115.325-7.387c4.48-.023 9.76 5.529 12.405.25 1.527 3.655 4.87 6.92 7.693 9.586-4.676 5.25-10.566 9.72-13.214 16.503-4.966 8.439-8.984 17.302-12.973 26.234-4.37 9.518-6.431 21.212-15.574 27.572-6.26 4.407-14.065 3.79-21.29 3.587-6.378-.682-1.427 8.494-7.262 9.106-8.64.178-17.294.059-25.916.665-2.232-.044-5.741 1.85-7.155-.677-3.122.629-5.437-4.832-1.445-4.145 3.651-4.88 7.749-2.73 11.711.55 2.774-3.18 7.064-7.681 11.511-2.994 2.66 6.664 11.733 3.954 13.832-1.596-.811-5.757 5.287-6.084 5.992-11.175 2.652-1.495 8.333-1.936 11.544-4.569 3.833-2.993 8.977-5.822 8.044-11.459 3.111-3.352 4.71-7.908 4.365-12.962.53-5.897-1.557-14.144 5.726-16.644.883-3.925-3.355-11.912 3.993-13.946 1.297-4.952 6.43-8.218 6.651-13.681.443-.14.898-.202 1.362-.205z"/>
  <path d="M240.108 217.258c-4.423 1.57-8.065 3.48-14.208.432-6.49 4.324-7.85 14.903-14.407 20.026 2.21 7.67-1.5 9.751-5.387 15.58 1.083 9.323.412 21.835-7.834 26.52-11.225 4.452-22.691 8.932-32.75 15.755-5.127 10.804-11.348.571-17.44-3.815-10.191-4.875-18.535-12.125-23.532-22.35-10.182-5.034-20.184-24.283-12.32-38.556 12.073-4.115-9.135-8.105-11.048-1.772-5.881 1.064-10.756 2.83-13.437 7.363-2.612-.044-5.054 3.083-8.7 4.959-12.026 5.263-18.317 16.052-29.447 47.086-3.955 12.299-5.977 25.142-5.518 38.112 1.256 11.081-2.53 21.558-3.337 32.498-1.074 12.046-2.889 24.49 1.503 35.653 1.457 6.58 1.292 13.406 1.421 20.135h3.99c-.228-4.496-1.073-9.392-.919-12.64-2.262-5.227.676-11.788-3.664-16.115-1.392-9.169 1.028-18.875 1.201-28.204 1.086-10.852 4.446-21.332 3.124-32.366-.904-17.625 4.153-34.591 9.66-51.094 6.411-9.19 8.585-17.876 17.48-25.42 5.977-8.582 5.311-2.335 6.889 2.99 5.538 11.622 6.486 23.31 7.03 35.992 3.34 14.816 1.087 30.471 6.012 44.946 2.704 9.967 14.22 17.987 5.562 28.523-5.14 10.822-4.41 25.682-8.897 37.057-.48 7.467-4.816 11.519-5.747 16.33h4.255c4.626-6.446 2.438-13.481 7.557-22.168 2.166-10.367 3.629-25.111 7.3-33.237 1.124 11.217 4.346 21.843 6.45 32.862 4.832 7.262-3.604 14.585-6.056 22.544 8.324.214 14.736 0 23.209 0a49.114 49.114 0 0 1-5.864-.722c-2.354-.309-5.667.064-7.252-.596-3.877-1.614-3.787-1.496-3.734-4.939.048-3.07 2.03-5.891 3.538-7.833.61-.785.629-.788 1.293-.187.44.399 1.311.657 2.519.747 1.918.144 3.4.55 6.675 1.83 1.062.416 2.583.86 3.38.987 2.164.344 2.576.656 2.576 1.949 0 1.375.748 2.585 1.997 3.23 2.398 1.241 15.39 1.935 23.676 1.266l3.3-.266v.771c0 .758-.055.772-3.139.805-2.174.024-4.174.287-6.517.86-3.99.968-8.981 1.792-14.206 2.098h17.63l.393-.099c3.415-1.465 4.685-1.101 4.867.099 5.121.346 58.746-.198 73.924 0h3.096c-1.646-5.305-4.043-11.003-4.689-15.204-6.484-8.238-6.138-18.05-2.855-28.284 2.748-16.119 12.53-30.074 14.101-46.424 4.341-15.947 3.636-32.64 5.574-48.95 1.27-11.538 5.502-22.547 8.86-33.651.634-11.023 7.83-7.745 13.322-1.757 10.648 6.291 13.834 18.078 15.471 29.493-2.51 11.743 4.685 24.31-.842 35.71-5.768 10.834 1.693 22.32-.724 33.812.377 10.976-.742 21.866-3.058 32.344 1.15 6.263-4.338 10.975-4.301 17.21-.225 8.942-2.76 17.417-5.595 25.7h4.05c.138-.941.104-1.838-.173-2.617 2.673-8.22 4.119-17.814 5.911-27.012 4.938-6.37 1.3-14.224 5.014-20.736 1.244-13.952 1.354-28.137.816-42.121-4.994-11.165 6.664-21.174 3.035-32.684-2.49-11.03.3-22.197-3.886-32.914-1.61-11.499-12.724-17.552-20.891-24.26-7.353-7.423-23.129-.502-25.287-15.281zm-13.748 2.722c4.481-.023 9.76 5.529 12.405.25 1.527 3.655 4.87 6.92 7.693 9.586-4.676 5.25-10.566 9.72-13.214 16.503-4.966 8.439-8.984 17.302-12.973 26.234-4.37 9.518-6.431 21.212-15.574 27.572-6.26 4.407-14.065 3.79-21.29 3.587-6.378-.682-1.427 8.494-7.262 9.106-8.64.178-17.294.059-25.916.665-2.232-.044-5.741 1.85-7.155-.677-3.122.629-5.437-4.832-1.445-4.145 3.651-4.88 7.749-2.73 11.711.55 2.774-3.18 7.063-7.681 11.511-2.994 2.66 6.664 11.733 3.954 13.832-1.596-.811-5.757 5.287-6.084 5.992-11.175 2.651-1.495 8.333-1.936 11.544-4.569 3.833-2.993 8.977-5.822 8.044-11.459 3.111-3.352 4.71-7.908 4.365-12.962.53-5.898-1.557-14.144 5.726-16.644.883-3.925-3.355-11.912 3.993-13.946 1.297-4.952 6.43-8.218 6.651-13.681.443-.14.898-.202 1.362-.205zm-115.325 7.387c3.288.048-2.353 2.333-2.345 5.993-2.364 5.845-3.34 7.836-2.127 12.747 1.978 7.725 2.784 17.556 10.877 21.538 8.062 3.532 9.498 13.385 16.353 18.277 6.416 4.188 13.303 7.785 19.367 12.566 4.755 1.897 2.811 3.495.11 6.4l-.586 1.1c-2.915-1.456-7.938-4.279-11.474-.29-2.664-3.255-6.484-.288-9.57-2.31-2.04-2.042-8.22-4.952-7.296-7.578 2.636-7.789-12.648-2.843-13.414-10.85 3.317-2.442 1.295-9.594-2.797-5.424-2.35-2.676-.94-11.684-8.148-11.744-7.843-5.754 7.41-4.596 3.824-10.644-7.22-.152-7.79-2.017-7.978-8.052 2.045-7.038-9.625-8.4-3.663-14.321 4.366-2.778 11.195-2.985 14.985-7.073 1.889-.238 3.123-.346 3.882-.335zm140.214 3.313c.178.003.347.052.539.126.47.178 1.507.325 2.302.325.796 0 2.085.16 2.866.357l1.42.358-.497 1.171c-8.782 21.865-12.766 31.557-15.116 75.853-.436 8.646-4.83 22.096-7.083 31.393-1.336 3.22-4.716 7.649-8.787 11.513-1.443 1.37-2.623 2.727-2.622 3.015.01 1.46 1.884 1.506 4.428.11.753-.412 1.368-.59 1.368-.398-2.109 11.217-7.62 20.673-7.027 33.545.1 4.149.072 4.386-.538 4.555-11.28 3.305-24.108 8.543-38.198 9.634-7.655 1.035-14.334 1.417-13.952.798.146-.236.296-1.89.333-3.674.037-1.784.224-4.982.415-7.106.191-2.125.497-7.92.679-12.878.317-8.613.591-12.58 1.316-18.993.748-6.66 1.55-13.09 2.879-19.96.586-4.08 1.665-9.14 2.75-13.681 1.559-6.66 2.732-14.696 2.732-18.741v-1.517l6.841.19c6.278.173 7.078.132 9.715-.503 3.25-.782 6.11-1.956 8.223-3.378 2.407-1.619 6.278-5.543 7.248-7.346a42.415 42.415 0 0 1 1.785-2.99c.912-1.352 2.545-4.903 3.535-7.69 3.787-10.591 9.25-22.391 14.989-32.873.56-.886 1.78-3.125 2.708-4.977 2.291-4.569 2.887-5.316 9.342-11.716 3.696-3.666 4.635-4.534 5.407-4.522zM89.18 241.128c.14.004.263.03.368.08 5.385 2.45 2.463 7.102 4.643 12.957.702 1.6 2.385 3.56 3.595 4.185.496.256 1.552.466 2.347.466.795 0 1.535.145 1.645.322.12.195-.324.322-1.124.322-4.194.06-6.83 5.167-4.137 8.54 1.137 1.295 4.914 3.173 5.876 2.921.338-.088.9-.008 1.249.179.586.313.617.562.415 3.314-.2 2.711-.145 3.17.609 5.172.455 1.208.986 2.39 1.182 2.625.736.887 2.594.211 4.005-1.458.384-.454.832-.694 1.046-.561.582.36.455.76-.583 1.846-1.136 1.189-1.496 2.717-.997 4.23.463 1.403 2.971 4.368 4.486 5.303 1.517.936 4.57 1.931 6.788 2.213 1.367.173 1.602.278 1.068.476-2.13.788-1.359 3.634 1.364 5.032.53.273 2.359 1.869 4.062 3.546 3.702 3.647 5.656 4.9 7.663 4.906.88.003 1.648-.199 2.014-.53.657-.59 1.255-.326.645.283-.44.442-.478 5.486-.082 11.198.182 2.617.544 4.645 1.235 6.92 1.615 5.376 2.446 10.93 4.265 16.258 1.658 5.123 3.35 12.242 4.672 18.672 1.01 4.552.85 9.24 1.561 13.843.256 2.213.544 7.874.643 12.58.098 4.707.325 8.944.505 9.417.394 1.038.352 1.043-1.36.163-4.384-2.206-9.44-.134-14.309 1.805-1.167.38-1.904.864-2.398 1.572-.393.562-.866 1.128-1.051 1.258-.38.267-.519.263-2.134-.053-1.136-.222-4.348-1.442-6.931-2.632-.728-.335-1.715-.61-2.194-.61-1.42 0-1.971-.496-3.482-3.131-1.6-2.793-1.96-3.972-4.139-13.606-.34-1.503-.707-3.012-.815-3.352-.171-.539.026-.493 1.532.357 1.928 1.088 3.46 1.512 4.058 1.125.675-.436-.4-1.566-3.245-3.417-3.895-2.532-4.022-2.72-4.39-6.49-.376-3.846-.97-6.71-2.783-13.43-.42-1.558-.764-2.951-.764-3.097 0-.146 1.39.65 3.088 1.77 5.147 3.393 7.102 4.037 7.984 2.628.538-.859 0-1.464-3.246-3.622-5.2-3.46-8.997-8.11-14.006-17.156-2.224-4.016-2.632-5.001-3.011-7.266-.241-1.44-.586-3.416-.767-4.39-.394-2.126-1.326-14.952-1.326-18.35 0-2.598-.23-4.578-1.268-11.106-1.131-7.106-1.262-8.21-1.61-13.521-.92-14.06-.874-13.724-2.704-19.96-1.93-6.458-5.462-11.505-5.19-17.598 1.283-1.237 4.088-3.186 5.434-3.148zm178.561 11.867c-.409-.016-.822.094-1.25.323-.737.395-2.3 3.381-2.3 4.395 0 1.59 1.71 1.755 2.043.197.222-1.038 1.373-2.957 1.775-2.957.157 0 1.002 1.05 1.878 2.334 4.837 7.089 6.032 11.098 6.523 21.885.167 3.671.406 7.215.53 7.875.203 1.087.25 1.13.493.472 1.04-2.813 1.104-11.245.127-16.849-.9-5.15-3.576-11.105-7.066-15.717-.974-1.287-1.853-1.924-2.753-1.958zM73.595 260.12c-.695.01-1.399.172-1.839.48-1.161.814-2.206 2.925-5.036 10.174-3.05 7.814-3.382 8.873-4.527 14.439-.984 4.754-1.324 10.069-.972 14.97l.254 3.54.432-2.253c.238-1.24.944-5.457 1.569-9.372 1.325-8.298 2.738-14.163 5.032-20.89 2.15-6.3 3.23-8.665 4.274-9.349.467-.306.935-.47 1.04-.365.323.323-.821 2.796-2.16 4.664-1.368 1.911-1.586 2.858-.734 3.185.373.143.868-.179 1.623-1.056 1.392-1.618 1.847-2.477 2.72-5.136.693-2.11.696-2.178.108-2.607-.403-.295-1.089-.435-1.784-.424zm125.877 21.285c.436.163.851.354.921.424.22.22-3.254 4.005-4.744 5.17-.81.633-1.79 1.111-2.278 1.111-.495 0-1.172.336-1.604.795-.962 1.024-2.07 1.369-5.697 1.773-4.176.466-3.887.273-4.44 2.992-.288 1.418-1.352 2.176-2.97 2.115-2.088-.08-2.47.512-2.196 3.393.174 1.831.09 2.537-.484 4.074-.731 1.938-4.953 5.752-7.185 2.875-.666-.891-1.912-2.125-2.77-2.741-1.524-1.095-1.555-1.149-1.293-2.323.205-.916.905-1.815 2.944-3.778 6.13-5.875 22.534-12.676 31.796-15.88zm-118.314 2.307c-.222-.039-.47.653-.615 2.05-.277 2.66-1.444 5.681-4.324 11.201-1.897 3.637-3.574 7.448-3.574 8.125 0 1.465 6.658-11.036 8.194-15.385.62-1.754.83-2.912.759-4.16-.07-1.191-.244-1.796-.44-1.83zm122.557 28.225c-.392.01-.822.3-1.02.822-.172.454-.317 2.88-.317 5.392-.01 8.725-1.08 17.423-2.568 20.814-.521 1.188-1.109 3.234-1.306 4.546-.196 1.312-.692 3.472-1.101 4.8-.41 1.327-.92 3.283-1.133 4.346-.214 1.062-.88 3.815-1.48 6.116-.599 2.302-1.622 6.793-2.273 9.98-1.168 5.74-1.18 5.868-1.18 13.58 0 5.551.12 8.07.412 8.773.225.543.602.987.838.987.727 0 1.102-2.23 1.102-6.6 0-2.301.156-5.85.343-7.887.329-3.584 2.855-15.694 4.162-19.96.353-1.15.644-2.408.644-2.795 0-.386.423-2.342.938-4.346.514-2.004 1.088-4.903 1.274-6.444.215-1.78.627-3.37 1.132-4.366.436-.861.953-2.447 1.148-3.525.902-4.97 1.706-22.174 1.11-23.728-.135-.352-.42-.513-.725-.505zm-83.132.328c-.329.02-.626.157-.643.392-.015.222 0 2.703.026 5.514.03 2.812-.12 6.868-.331 9.014-.354 3.588-.331 4.18.289 7.343.666 3.402 2.218 7.64 4.81 13.139 1.125 2.387 3.404 9.548 4.097 12.877.13.62.928 3.01 1.774 5.313.847 2.303 1.703 5.128 1.903 6.278.2 1.15.938 3.642 1.64 5.54 1.397 3.778 2.238 6.742 2.238 7.886 0 1.487.605.682.828-1.104.157-1.261.054-2.807-.329-4.91a795.21 795.21 0 0 1-1.166-6.609c-.367-2.145-1.231-5.255-2.19-7.887-.872-2.39-2.334-6.737-3.25-9.658-1.63-5.203-2.11-6.418-5.444-13.75-.943-2.076-1.97-5.018-2.414-6.922-.718-3.074-.774-3.976-.798-12.581-.013-5.098-.11-9.408-.214-9.577-.14-.225-.499-.32-.827-.298zm50.669 2.342c.682-.003 1.081.009 1.106.033-4.152 2.342-8.547 3.165-12.966 5.673-1.07.526-2.012.945-2.093.933-3.577-.8-6.621-3.347-9.967-4.725l-1.77-.862 1.287-.266c.99-.204 19.627-.777 24.403-.786zm-31.144.545c.277 0 .412.145.303.322-.11.177-.335.322-.502.322-.167 0-.303-.145-.303-.322 0-.177.226-.322.502-.322zm35.748 1.122c.463.003.949.182 1.569.568 1.164.724 1.164.725.99 2.6-.095 1.032-.406 2.842-.692 4.024-.455 1.886-.613 2.154-1.296 2.195-1.064.094-2.012 1.043-2.871 1.645-5.13-1.826-9.925-3.65-11.979-5.237.399-.115 1.956-.77 3.461-1.456 3.946-1.798 9.356-4.035 10.36-4.283a1.86 1.86 0 0 1 .458-.056zm-32.65 1.152c2.734-.057 9.113 3.843 11.817 5.09-2.704.884-5.187 2.113-7.84 3.235-1.057.368-1.958.668-2.005.668-1.443-1.98-1.476-2.108-4.172-2.73-.439-.145-1.078-2.9-1.078-4.645 0-1.118.068-1.214.763-1.081.42.08 1.226-.093 1.79-.385.198-.098.442-.147.724-.152zm15.022 6.671c4.835 1.572 9.747 3.442 14.118 5.414.155.465-6.37 4.63-10.945 6.985-2.145 1.104-3.658 1.04-5.86-.246-2.644-1.547-9.633-6.703-9.581-7.07.023-.163.89-.616 1.924-1.005 2.554-.969 5.063-2.397 7.742-3.218zm-92.233.097c-.08.01-.237.256-.453.813-2.594 6.678-3.138 8.387-4.957 15.577-4.213 16.653-5.568 25.945-4.974 34.124.286 3.944.787 7.976 1.13 9.094.297.97.49.616.28-.51-.19-1.012.41-10.542 1.159-18.403.185-1.947.846-6.293 1.467-9.657a1349.6 1349.6 0 0 0 2.377-13.36c1.188-6.903 2.581-12.983 3.683-16.066.35-.979.423-1.626.288-1.612zm78 5.868c.452.018.871.281 1.616.941 1.639 1.452 6.984 5.371 8.79 6.444.91.541 1.263.904.965.993-.257.078-1.579.447-2.936.82-2.88.794-2.975.793-4.454-.015-.766-.418-1.462-.555-2.175-.428-.893.16-1.091.074-1.338-.575-.38-.998-1.996-7.71-1.884-7.821.047-.048.47-.183.94-.301.171-.043.326-.064.477-.059zm29.147 2.219 1.104.69c1.802 1.115.205 6.904-.311 9.703-.201.706-.583 1.32-.849 1.364-.265.044-1.28-.257-2.253-.668-3.4-1.435-6.287-2.466-9.325-4.045.01-.104.476-.42 1.046-.7 2.06-1.018 6.467-3.58 8.505-4.947zm-14.51 7.87c.354-.022.845.126 1.462.443 3.777 1.914 6.941 2.853 10.667 4.684-2.22 2.918-6.053 5.136-9.103 8.104l-2.392-1.49c-3.917-2.485-7.501-5.225-8.974-8.484.091-.886.276-1.013 2.475-1.708 1.746-.548 3.72-.892 5.556-1.467a.764.764 0 0 1 .308-.081zm-10.768 6.11c1.817.064 6.849 6.074 8.917 7.145 1.761 1.229 1.833 1.327 1.098 1.511-4.283 1.075-6.076 1.325-6.61.919-.306-.233-.945-.428-1.42-.433-.933-.01-1.049-.227-1.394-2.586-.187-1.28-.878-4.357-1.31-5.835-.1-.342.092-.588.553-.708a.703.703 0 0 1 .166-.012zm97.678.6c-.828 0-2.56 7.372-4.502 19.155-1.026 6.232-1.637 12.496-1.637 16.802 0 2.271.084 2.628.79 3.333.435.435 1.016.79 1.292.79.565 0 .515.692-.393 5.473-.286 1.505-.52 4.33-.52 6.278.001 3.159.112 3.854 1.027 6.438.565 1.594 1.351 3.646 1.75 4.56l.723 1.662.096-1.213c.053-.667-.218-2.646-.602-4.398-1.246-5.68-1.19-8.125.41-17.626.439-2.604.192-3.218-1.354-3.37l-1.062-.105.192-5.369c.225-6.293.726-10.356 2.708-21.946 1.658-9.699 1.737-10.463 1.082-10.463zm-73.288 1.742c.067-.003.105.022.11.074 1.16.774-.036 5.801-.283 8.165l-1.67.05c-1.636.049-4.064-.771-5.723-1.933-.904-.643 6.562-6.331 7.566-6.356zM85.916 350.9c-.164-.004-.355.15-.576.45-.37.5-.461 2.116-.461 8.089v7.462l-1.772 2.161c-.974 1.189-1.848 2.547-1.94 3.02a16.162 16.162 0 0 1-.508 1.822c-.186.532-.46 2.56-.61 4.508-.466 6.086-2.71 14.776-5.634 21.83-.647 1.559-1.257 3.623-1.357 4.587-.1.963-.052 1.75.106 1.75.88-.003 4.908-7.563 6.087-11.427 1.81-5.934 3.105-12.22 3.381-16.418.39-5.916.494-6.31 2.167-8.267.805-.942 1.66-2.18 1.899-2.75.476-1.134.528-5.203.156-12.074-.178-3.284-.443-4.73-.938-4.743zm74.817 5.257c.455.019.871.265 1.816.827a54.7 54.7 0 0 0 3.374 1.823c2.483 1.204 2.376 1.876-.926 5.84-1.44 1.728-2.924 3.392-3.3 3.697-.375.306-.755.554-.844.549-3.607-3.319-6.941-6.808-8.405-9.219a7.44 7.44 0 0 0 .473-1.11c.11-.36.923-.702 2.518-1.058 1.295-.29 3.047-.75 3.891-1.025.67-.218 1.048-.34 1.403-.324zm117.661 1.674a.076.076 0 0 0-.039.025c-.535.563-1.617 4.788-2.565 10.011-1.634 9.005-3.007 12.659-6.274 16.699-2.427 3-3.518 5.224-3.102 6.318.173.455.41 1.68.528 2.721l.215 1.893-3.312 5.461c-4.927 8.123-7.038 12.294-6.496 12.835.43.432.965.062 2.425-1.68 1.654-1.97 4.517-6.41 7.88-12.216l2.098-3.624-.222-3.316-.222-3.315 2.258-2.529c4.496-5.035 6.857-11.522 7.323-20.13.21-3.867-.09-9.228-.495-9.153zm-128.09 3.149c.101-.017.4.252 1.044.853 2.738 2.592 4.813 5.964 7.222 8.486-1.65 1-2.946 1.749-4.67 2.408-.159-.029-.744-.11-1.3-.18-.997-.125-1.014-.157-1.354-2.603a84.67 84.67 0 0 1-.516-5.053c-.094-1.417-.265-2.938-.38-3.38-.087-.334-.126-.519-.047-.531zm18.758 2.586 1.071.322c.97.29 1.055.414.903 1.306-.092.541-.257 1.999-.366 3.238-.323 3.677-.412 3.944-1.313 3.944-.817.016-1.418.641-2.09 1.018-.075-.015-1.036-.674-2.136-1.464l-2-1.436 2.966-3.464zm-8.312 8.475 1.188.807c1.519 1.032 4.388 3.743 4.388 4.145-.195 2.163-3.578 6.403-5.437 7.696-2.935-2.154-3.784-5.156-6.095-8.706.631-1.869 4.13-2.816 5.956-3.942zm-8.568 6.05.712.964c1.716 2.263 4.361 4.736 6.093 7.616-1.712 1.828-4.148 3.502-6.281 4.779-.152 0-.548-8.342-.536-11.267zm16.967.81c.76-.004-.564 8.268-.635 9.967-.214 1.243-.467 2.25-.564 2.24-1.917-.286-3.42-2.868-4.91-4.091 1.767-2.105 3.357-3.886 4.616-6.35.6-1.388.917-1.762 1.493-1.767zm-8.095 9.673c2.137 2.156 3.471 2.667 4.032 5.399-.07.955.106 1.474.765 2.256.47.559 1.059 1.016 1.309 1.016.326 0 .462.43.462 1.529.01 1.93.473 3.966.974 4.275-2.68 1.4-8.368.51-11.75-.01l-1.99-1.972c-2.341-2.321-2.772-3.596-1.434-4.237.61-.293.91-.773 1.128-1.808.55-2.516 4.68-4.198 6.504-6.448zm65.507 6.139c.267.102.458.615.458 1.228 0 .58.233 1.246.517 1.482 1.375 1.359 3.15 9.196 4.42 12.448 0 .817-1.326 1.453-3.702 1.773-.885.12-2.479.489-3.541.82-4.184 1.306-10.94 1.486-24.263 1.831-6.994.181-12.905.332-13.135.332-.263 0-.113-.399.402-1.075.996-1.306 1.125-3.382.258-4.155-.883-.786-6.227-3.084-7.734-3.325-.748-.12-1.36-.316-1.36-.435 0-.207 6.667-1.073 11.429-1.485 12.26-1.185 25.32-5.773 36.251-9.44zm-81.13 3.99c1.182.004 2.257.183 3.094.586.912.462 1.735.965 1.83 1.118.094.153.086.808-.019 1.455-.196 1.21-.34 1.283-1.716.873-.443-.132-2.188-.17-3.878-.086-3.287.165-9.318-.175-9.318-.525 1.947-1.861 6.46-3.432 10.007-3.421zm7.712 3.08c.181-.004.51.198.995.602l.76.633-.848.01c-.583.008-.9-.19-1.016-.632-.107-.407-.073-.612.109-.614zm-15.713 3.662c.8.006 1.806.023 3.061.052 3.32.077 7.353.286 8.962.467 1.609.18 4.096.244 5.528.141 1.5-.107 2.683-.057 2.792.117.106.172-.753.383-1.988.487-5.066.427-12.069.444-16.179.037a623.98 623.98 0 0 0-4.748-.459c-.222-.016-.403-.231-.403-.479 0-.28.57-.38 2.974-.363zm25.083.491c1.639 0 1.652.008 1.077.644-.32.354-.669.637-.775.631-.32-.021-1.962-.962-1.962-1.124 0-.082.747-.15 1.66-.15zm6.356 1.144c.293 0 .622 0 .998.004 4.454.117 10.084 2.578 14.583 4.465l-.933.399c-.587.25-2.55.398-5.28.402-4.088.003-4.489-.054-6.76-.967-1.328-.533-3.61-1.14-5.07-1.348-1.461-.208-2.656-.454-2.644-.548.01-.094.695-.677 1.529-1.297 1.304-.967 1.528-1.104 3.577-1.11zm-.96 6.3c.112.005.208.035.261.088.107.107-.083.183-.422.17-.375-.016-.451-.092-.195-.195a.885.885 0 0 1 .356-.062z"/>
</svg>
